<svg xmlns="http://www.w3.org/2000/svg" xmlns:xlink="http://www.w3.org/1999/xlink" width="190" height="190" viewBox="0 0 190 190">
  <defs>
    <clipPath id="clip-path">
      <rect id="Rectángulo_33772" data-name="Rectángulo 33772" width="116" height="107" transform="translate(179.724 2438.667)" fill="#01f6ff"/>
    </clipPath>
  </defs>
  <g id="Grupo_84488" data-name="Grupo 84488" transform="translate(-1230 -2287)">
    <circle id="Elipse_4849" data-name="Elipse 4849" cx="95" cy="95" r="95" transform="translate(1230 2287)" fill="#ffa686"/>
    <g id="Enmascarar_grupo_54" data-name="Enmascarar grupo 54" transform="translate(1087.276 -109.667)" clip-path="url(#clip-path)">
      <g id="investigacion-del-consumidor" transform="translate(184.557 2439)">
        <g id="Grupo_80576" data-name="Grupo 80576" transform="translate(1.715 1.715)">
          <g id="Grupo_80560" data-name="Grupo 80560" transform="translate(24.011 34.301)">
            <path id="Trazado_114292" data-name="Trazado 114292" d="M58.882,95.215V75.783a13.158,13.158,0,0,0-9.158-12.52c-.257-.086-.532-.154-.806-.223-2.127-.532-3.756-.943-3.756-.943h78.893v65.172a3.44,3.44,0,0,1-3.43,3.43H58.882v-6.86a13.158,13.158,0,0,0-.875-4.716l.034-.017a7.2,7.2,0,0,0,.84-3.379,7.1,7.1,0,0,0-1.2-3.979l-.806-1.2a8.525,8.525,0,0,1,0-9.433l.394-.6A9.54,9.54,0,0,0,58.882,95.215Z" transform="translate(-45.161 -62.097)" fill="#e6e9ed"/>
          </g>
          <g id="Grupo_80561" data-name="Grupo 80561" transform="translate(23.033 17.151)">
            <path id="Trazado_114293" data-name="Trazado 114293" d="M123.423,51.022H44.53l-.978-3.876v-.017a6.829,6.829,0,0,0,4.408-6.4v-.686l4.288-1.715a4.075,4.075,0,0,0,2.573-3.79,4.014,4.014,0,0,0-.051-.652l.051-.017h65.172a3.44,3.44,0,0,1,3.43,3.43Z" transform="translate(-43.552 -33.871)" fill="#b4dd7f"/>
          </g>
          <g id="Grupo_80562" data-name="Grupo 80562" transform="translate(3.43)">
            <path id="Trazado_114294" data-name="Trazado 114294" d="M22.73,16.313l-4.579,3.053H15.389a4.119,4.119,0,0,0-3.259,1.612l-.515-2.058a10.113,10.113,0,0,1-.326-2.59A10.686,10.686,0,0,1,21.975,5.645h9.5A10.657,10.657,0,0,1,42.161,16.33a10.113,10.113,0,0,1-.326,2.59l-.515,2.058a4.119,4.119,0,0,0-3.259-1.612H28.441A6.833,6.833,0,0,1,22.73,16.313Z" transform="translate(-11.29 -5.645)" fill="#656d78"/>
          </g>
          <g id="Grupo_80563" data-name="Grupo 80563" transform="translate(0 35.468)">
            <path id="Trazado_114295" data-name="Trazado 114295" d="M34.218,64.016,31.371,69.71l-6.86-3.43-6.86,3.43L14.8,64.016a13.142,13.142,0,0,0-9.158,12.52V95.968A9.535,9.535,0,0,1,6.657,91.7L9.624,85.78a16.638,16.638,0,0,1,29.774,0L42.365,91.7a9.535,9.535,0,0,1,1.012,4.271V76.536A13.158,13.158,0,0,0,34.218,64.016Z" transform="translate(-5.645 -64.016)" fill="#4fc1e9"/>
          </g>
          <g id="Grupo_80564" data-name="Grupo 80564" transform="translate(18.866 34.301)">
            <path id="Trazado_114296" data-name="Trazado 114296" d="M46.4,63.263l-2.847,5.694-6.86-3.43,5.145-3.43s1.629.412,3.756.943c.274.069.549.137.806.223Z" transform="translate(-36.694 -62.097)" fill="#3bafda"/>
          </g>
          <g id="Grupo_80565" data-name="Grupo 80565" transform="translate(9.158 34.301)">
            <path id="Trazado_114297" data-name="Trazado 114297" d="M30.425,65.527l-6.86,3.43-2.847-5.694c.274-.086.549-.172.823-.24L25.28,62.1Z" transform="translate(-20.718 -62.097)" fill="#3bafda"/>
          </g>
          <g id="Grupo_80566" data-name="Grupo 80566" transform="translate(0 48.022)">
            <path id="Trazado_114298" data-name="Trazado 114298" d="M15.936,108.688a6.829,6.829,0,0,0,4.408,6.4v.017l-.978,3.876-3.739.926a13.138,13.138,0,0,0-9.107,8.078H6.5a7.23,7.23,0,0,1-.858-3.4,7.1,7.1,0,0,1,1.2-3.979l.806-1.2a8.525,8.525,0,0,0,0-9.433l-.394-.6a9.517,9.517,0,0,1-.6-9.57l2.967-5.917a16.638,16.638,0,0,1,29.774,0L42.365,99.8a9.517,9.517,0,0,1-.6,9.57l-.394.6a8.525,8.525,0,0,0,0,9.433l.806,1.2a7.1,7.1,0,0,1,1.2,3.979,7.2,7.2,0,0,1-.84,3.379l-.034.017a13.122,13.122,0,0,0-9.09-8.061c-2.127-.532-3.756-.943-3.756-.943l-.978-3.876v-.017a6.829,6.829,0,0,0,4.408-6.4v-6.294a.809.809,0,0,0-.549-.755,20.37,20.37,0,0,1-8.027-4.957,20.37,20.37,0,0,1-8.027,4.957.809.809,0,0,0-.549.755Z" transform="translate(-5.645 -84.677)" fill="#fcd770"/>
          </g>
          <g id="Grupo_80567" data-name="Grupo 80567" transform="translate(0 82.323)">
            <path id="Trazado_114299" data-name="Trazado 114299" d="M19.366,141.129v3.43a3.44,3.44,0,0,0,3.43,3.43h3.43a3.44,3.44,0,0,0,3.43-3.43v-3.43s1.629.412,3.756.943a13.181,13.181,0,0,1,9.965,12.777v6.86H5.645v-6.895a12.9,12.9,0,0,1,.875-4.682,13.138,13.138,0,0,1,9.107-8.078Z" transform="translate(-5.645 -141.129)" fill="#ff826e"/>
          </g>
          <g id="Grupo_80568" data-name="Grupo 80568" transform="translate(13.721 78.43)">
            <path id="Trazado_114300" data-name="Trazado 114300" d="M35.086,135.185a6.5,6.5,0,0,0,2.453-.463v.017l.978,3.876v3.43a3.44,3.44,0,0,1-3.43,3.43h-3.43a3.44,3.44,0,0,1-3.43-3.43v-3.43l.978-3.876v-.017a6.436,6.436,0,0,0,2.453.463Z" transform="translate(-28.226 -134.722)" fill="#f0d0b4"/>
          </g>
          <g id="Grupo_80569" data-name="Grupo 80569" transform="translate(10.29 60.027)">
            <path id="Trazado_114301" data-name="Trazado 114301" d="M39.731,110.147v6.294a6.829,6.829,0,0,1-4.408,6.4,6.5,6.5,0,0,1-2.453.463h-3.43a6.436,6.436,0,0,1-2.453-.463,6.829,6.829,0,0,1-4.408-6.4v-6.294a.809.809,0,0,1,.549-.755,20.37,20.37,0,0,0,8.027-4.957,20.37,20.37,0,0,0,8.027,4.957A.809.809,0,0,1,39.731,110.147Z" transform="translate(-22.581 -104.435)" fill="#f0d0b4"/>
          </g>
          <g id="Grupo_80570" data-name="Grupo 80570" transform="translate(27.441 13.721)">
            <path id="Trazado_114302" data-name="Trazado 114302" d="M53.568,28.226a4.119,4.119,0,0,1,3.259,1.612,4.217,4.217,0,0,1,.789,1.835,4.014,4.014,0,0,1,.051.652,4.075,4.075,0,0,1-2.573,3.79L50.806,37.83v-9.6Z" transform="translate(-50.806 -28.226)" fill="#f0d0b4"/>
          </g>
          <g id="Grupo_80571" data-name="Grupo 80571" transform="translate(13.721 30.408)">
            <path id="Trazado_114303" data-name="Trazado 114303" d="M35.086,56.153a6.436,6.436,0,0,0,2.453-.463v.017l.978,3.876-5.145,3.43-5.145-3.43.978-3.876V55.69a6.436,6.436,0,0,0,2.453.463Z" transform="translate(-28.226 -55.69)" fill="#f0d0b4"/>
          </g>
          <g id="Grupo_80572" data-name="Grupo 80572" transform="translate(10.29 10.668)">
            <path id="Trazado_114304" data-name="Trazado 114304" d="M39.731,35.859v.686a6.829,6.829,0,0,1-4.408,6.4,6.436,6.436,0,0,1-2.453.463h-3.43a6.436,6.436,0,0,1-2.453-.463,6.829,6.829,0,0,1-4.408-6.4V26.254L27.16,23.2a6.833,6.833,0,0,0,5.711,3.053h6.86Z" transform="translate(-22.581 -23.202)" fill="#f0d0b4"/>
          </g>
          <g id="Grupo_80573" data-name="Grupo 80573" transform="translate(3.43 13.721)">
            <path id="Trazado_114305" data-name="Trazado 114305" d="M18.151,28.226v9.6l-4.288-1.715a4.075,4.075,0,0,1-2.573-3.79,4.028,4.028,0,0,1,.84-2.487,4.119,4.119,0,0,1,3.259-1.612Z" transform="translate(-11.29 -28.226)" fill="#f0d0b4"/>
          </g>
          <g id="Grupo_80574" data-name="Grupo 80574" transform="translate(72.033 72.033)">
            <path id="Trazado_114306" data-name="Trazado 114306" d="M124.194,124.194H148.2V148.2H124.194Z" transform="translate(-124.194 -124.194)" fill="#fcd770"/>
          </g>
          <g id="Grupo_80575" data-name="Grupo 80575" transform="translate(72.033 41.162)">
            <path id="Trazado_114307" data-name="Trazado 114307" d="M124.194,73.387H148.2V97.4H124.194Z" transform="translate(-124.194 -73.387)" fill="#fcd770"/>
          </g>
        </g>
        <g id="Grupo_80577" data-name="Grupo 80577" transform="translate(0 0)">
          <path id="Trazado_114308" data-name="Trazado 114308" d="M104.011,19.973H40.033c-.057-.123-.13-.238-.194-.357l.343-1.379A12.4,12.4,0,0,0,28.151,2.823H18.658A12.4,12.4,0,0,0,6.623,18.234l.345,1.382A5.742,5.742,0,0,0,9.9,27.739l3.26,1.305a8.539,8.539,0,0,0,4.077,6.8l-.4,1.58-2.746.683A14.847,14.847,0,0,0,2.823,52.559v19.4a11.229,11.229,0,0,0,1.892,6.248l.4.6a6.754,6.754,0,0,1,1.139,3.763,6.754,6.754,0,0,1-1.139,3.763l-.8,1.2a8.814,8.814,0,0,0-.758,8.435,14.936,14.936,0,0,0-.736,4.615v8.575H104.011a5.151,5.151,0,0,0,5.145-5.145V25.118A5.151,5.151,0,0,0,104.011,19.973Zm1.715,5.145V37.124H29.886l-.321-1.279a8.537,8.537,0,0,0,4.077-6.8l3.26-1.305A5.762,5.762,0,0,0,40.446,23.4h63.565A1.717,1.717,0,0,1,105.726,25.118ZM40.554,62.443,39.83,61A18.224,18.224,0,0,0,25.118,50.963V45.044L31.03,48l2.907-5.816a11.405,11.405,0,0,1,6.617,10.374ZM28.868,40.688l1.763.442L29.5,43.4l-2.682-1.341Zm4.826-20.715h1.055a2.376,2.376,0,0,1,.883,4.581l-1.938.775ZM9.683,22.349a2.378,2.378,0,0,1,2.375-2.375h1.055v5.356l-1.938-.775A2.366,2.366,0,0,1,9.683,22.349Zm4.626-5.805h-2.25a5.768,5.768,0,0,0-2.187.434A8.9,8.9,0,0,1,18.656,6.253h9.493a8.986,8.986,0,0,1,8.975,8.975,8.826,8.826,0,0,1-.19,1.749,5.76,5.76,0,0,0-2.185-.434h-9.63A5.151,5.151,0,0,1,19.973,11.4V9.683h-3.43V11.4a8.519,8.519,0,0,0,.633,3.233Zm2.235,2.633,2.538-1.693a8.553,8.553,0,0,0,6.037,2.49h5.145v8.575a5.151,5.151,0,0,1-5.145,5.145h-3.43a5.151,5.151,0,0,1-5.145-5.145Zm5.145,17.948h3.43a8.472,8.472,0,0,0,1.2-.122l.271,1.08L23.4,40.208l-3.188-2.125L20.484,37a8.472,8.472,0,0,0,1.2.122Zm-3.751,3.562,2.056,1.37L17.311,43.4l-1.135-2.274ZM12.866,42.18,15.775,48l5.914-2.957v5.919A18.224,18.224,0,0,0,6.976,61l-.724,1.448V52.53A11.4,11.4,0,0,1,12.866,42.18Zm-4.9,34.728-.4-.6a7.838,7.838,0,0,1-.489-7.85l2.965-5.931a14.936,14.936,0,0,1,26.717,0l2.965,5.931a7.831,7.831,0,0,1-.489,7.846l-.4.6a10.21,10.21,0,0,0,0,11.328l.8,1.2a5.416,5.416,0,0,1,.624,1.288,14.855,14.855,0,0,0-7.533-4.584l-2.765-.691-.4-1.581a8.556,8.556,0,0,0,4.126-7.3V70.283A2.506,2.506,0,0,0,31.979,67.9a18.949,18.949,0,0,1-7.363-4.55L23.4,62.14l-1.213,1.213a18.942,18.942,0,0,1-7.364,4.55,2.507,2.507,0,0,0-1.713,2.381V76.57a8.551,8.551,0,0,0,4.126,7.294l-.4,1.58-2.746.683a14.814,14.814,0,0,0-7.55,4.588,5.468,5.468,0,0,1,.621-1.283l.8-1.194a10.176,10.176,0,0,0,1.715-5.665,10.18,10.18,0,0,0-1.715-5.665Zm17.151,4.807h-3.43a5.151,5.151,0,0,1-5.145-5.145V70.935A22.4,22.4,0,0,0,23.4,66.9a22.433,22.433,0,0,0,6.86,4.034V76.57A5.151,5.151,0,0,1,25.118,81.716ZM19.973,87.07l.511-2.046a8.472,8.472,0,0,0,1.2.122h3.43a8.472,8.472,0,0,0,1.2-.122l.511,2.044v3.223a1.717,1.717,0,0,1-1.715,1.715h-3.43a1.717,1.717,0,0,1-1.715-1.715ZM6.253,100.552a11.416,11.416,0,0,1,8.675-11.1l1.616-.4v1.237a5.151,5.151,0,0,0,5.145,5.145h3.43a5.151,5.151,0,0,0,5.145-5.145V89.058l1.629.408a11.418,11.418,0,0,1,8.661,11.114v5.145H35.786L37.091,99.2l-3.363-.674-1.441,7.2H14.519l-1.441-7.2L9.717,99.2l1.3,6.524H6.253Zm97.759,5.174H43.984v-5.143a14.832,14.832,0,0,0-.734-4.62,8.811,8.811,0,0,0-.76-8.43l-.8-1.2a6.78,6.78,0,0,1,0-7.522l.4-.6a11.221,11.221,0,0,0,1.892-6.248v-19.4A14.824,14.824,0,0,0,37.9,40.554h67.824v63.457a1.717,1.717,0,0,1-1.715,1.715Z" transform="translate(-2.823 -2.823)"/>
          <path id="Trazado_114309" data-name="Trazado 114309" d="M135.308,142.566l-2.218-2.218-2.425,2.425,4.643,4.643,11.5-11.5-2.425-2.425Z" transform="translate(-52.985 -54.093)"/>
          <path id="Trazado_114310" data-name="Trazado 114310" d="M121.371,148.812h27.441V121.371H121.371ZM124.8,124.8h20.581v20.581H124.8Z" transform="translate(-49.338 -49.338)"/>
          <path id="Trazado_114311" data-name="Trazado 114311" d="M135.308,91.76l-2.218-2.218-2.425,2.425,4.643,4.643,11.5-11.5-2.425-2.425Z" transform="translate(-52.985 -34.158)"/>
          <path id="Trazado_114312" data-name="Trazado 114312" d="M121.371,98.006h27.441V70.565H121.371Zm3.43-24.011h20.581V94.575H124.8Z" transform="translate(-49.338 -29.403)"/>
          <path id="Trazado_114313" data-name="Trazado 114313" d="M98.79,81.855h10.29v3.43H98.79Z" transform="translate(-40.478 -33.833)"/>
          <path id="Trazado_114314" data-name="Trazado 114314" d="M76.21,81.855H86.5v3.43H76.21Z" transform="translate(-31.618 -33.833)"/>
          <path id="Trazado_114315" data-name="Trazado 114315" d="M76.21,93.145h24.011v3.43H76.21Z" transform="translate(-31.618 -38.263)"/>
          <path id="Trazado_114316" data-name="Trazado 114316" d="M76.21,104.435h3.43v3.43H76.21Z" transform="translate(-31.618 -42.693)"/>
          <path id="Trazado_114317" data-name="Trazado 114317" d="M87.5,104.435h3.43v3.43H87.5Z" transform="translate(-36.048 -42.693)"/>
          <path id="Trazado_114318" data-name="Trazado 114318" d="M98.79,104.435h3.43v3.43H98.79Z" transform="translate(-40.478 -42.693)"/>
          <path id="Trazado_114319" data-name="Trazado 114319" d="M76.21,132.661h24.011v3.43H76.21Z" transform="translate(-31.618 -53.768)"/>
          <path id="Trazado_114320" data-name="Trazado 114320" d="M76.21,143.952h24.011v3.43H76.21Z" transform="translate(-31.618 -58.198)"/>
          <path id="Trazado_114321" data-name="Trazado 114321" d="M76.21,155.242h3.43v3.43H76.21Z" transform="translate(-31.618 -62.628)"/>
          <path id="Trazado_114322" data-name="Trazado 114322" d="M87.5,155.242h3.43v3.43H87.5Z" transform="translate(-36.048 -62.628)"/>
          <path id="Trazado_114323" data-name="Trazado 114323" d="M98.79,155.242h3.43v3.43H98.79Z" transform="translate(-40.478 -62.628)"/>
        </g>
      </g>
    </g>
  </g>
</svg>
