<svg xmlns="http://www.w3.org/2000/svg" xmlns:xlink="http://www.w3.org/1999/xlink" width="56" height="56" viewBox="0 0 56 56">
  <defs>
    <clipPath id="clip-path">
      <rect id="Rectángulo_34010" data-name="Rectángulo 34010" width="56" height="56" transform="translate(1196 1283)" fill="#fff" stroke="#707070" stroke-width="1"/>
    </clipPath>
  </defs>
  <g id="Enmascarar_grupo_75" data-name="Enmascarar grupo 75" transform="translate(-1196 -1283)" clip-path="url(#clip-path)">
    <g id="comunidad" transform="translate(1196 1283)">
      <g id="Grupo_83876" data-name="Grupo 83876">
        <path id="Trazado_117554" data-name="Trazado 117554" d="M32.174,25.893a4.174,4.174,0,1,0-8.348,0V27.98a4.174,4.174,0,0,0,8.349,0V25.893Z" fill="#bb6b57" fill-rule="evenodd"/>
        <path id="Trazado_117555" data-name="Trazado 117555" d="M31.1,30.764a4.159,4.159,0,0,1-6.207,0,7.328,7.328,0,0,0-4.2,6.608v12.96H35.3V37.372A7.328,7.328,0,0,0,31.1,30.764Z" fill="#ff5a58" fill-rule="evenodd"/>
        <path id="Trazado_117556" data-name="Trazado 117556" d="M19.256,25.893a4.174,4.174,0,1,0-8.348,0V27.98a4.174,4.174,0,0,0,8.349,0V25.893Z" fill="#cc9081" fill-rule="evenodd"/>
        <path id="Trazado_117557" data-name="Trazado 117557" d="M18.185,30.764a4.159,4.159,0,0,1-6.207,0,7.328,7.328,0,0,0-4.2,6.608v12.96h14.61V37.372a7.328,7.328,0,0,0-4.2-6.608Z" fill="#66e0f7" fill-rule="evenodd"/>
        <path id="Trazado_117558" data-name="Trazado 117558" d="M45.093,25.893a4.174,4.174,0,1,0-8.348,0V27.98a4.174,4.174,0,0,0,8.349,0V25.893Z" fill="#cc9081" fill-rule="evenodd"/>
        <path id="Trazado_117559" data-name="Trazado 117559" d="M44.022,30.764a4.159,4.159,0,0,1-6.207,0,7.328,7.328,0,0,0-4.2,6.608v12.96h14.61V37.372A7.328,7.328,0,0,0,44.022,30.764Z" fill="#ff9346" fill-rule="evenodd"/>
        <path id="Trazado_117560" data-name="Trazado 117560" d="M26.731,2.5a4.87,4.87,0,0,0-6.851,0C14.761,7.6,24.616,16.516,28,17.42c3.384-.9,13.239-9.821,8.12-14.924a4.87,4.87,0,0,0-6.851,0A1.771,1.771,0,0,1,26.731,2.5Z" fill="#ff5a58" fill-rule="evenodd"/>
        <path id="Trazado_117561" data-name="Trazado 117561" d="M12.8,40.81a4.174,4.174,0,1,0-8.348,0V42.9a4.174,4.174,0,0,0,8.349,0V40.81Z" fill="#bb6b57" fill-rule="evenodd"/>
        <path id="Trazado_117562" data-name="Trazado 117562" d="M11.726,45.681a4.159,4.159,0,0,1-6.207,0,7.328,7.328,0,0,0-4.2,6.608v2.626h14.61V52.289a7.328,7.328,0,0,0-4.2-6.608Z" fill="#ffc144" fill-rule="evenodd"/>
        <path id="Trazado_117563" data-name="Trazado 117563" d="M25.715,40.81a4.174,4.174,0,0,0-8.348,0V42.9a4.174,4.174,0,0,0,8.348,0Z" fill="#e5ae8c" fill-rule="evenodd"/>
        <path id="Trazado_117564" data-name="Trazado 117564" d="M24.644,45.681a4.159,4.159,0,0,1-6.207,0,7.328,7.328,0,0,0-4.2,6.608v2.626h14.61V52.289A7.328,7.328,0,0,0,24.644,45.681Z" fill="#8481e2" fill-rule="evenodd"/>
        <path id="Trazado_117565" data-name="Trazado 117565" d="M38.633,40.81a4.174,4.174,0,0,0-8.348,0V42.9a4.174,4.174,0,0,0,8.349,0V40.81Z" fill="#cc9081" fill-rule="evenodd"/>
        <path id="Trazado_117566" data-name="Trazado 117566" d="M37.563,45.681a4.159,4.159,0,0,1-6.207,0,7.328,7.328,0,0,0-4.2,6.608v2.626h14.61V52.289a7.328,7.328,0,0,0-4.2-6.608Z" fill="#fff" fill-rule="evenodd"/>
        <path id="Trazado_117567" data-name="Trazado 117567" d="M51.552,40.81a4.174,4.174,0,0,0-8.348,0V42.9a4.174,4.174,0,0,0,8.348,0Z" fill="#e5ae8c" fill-rule="evenodd"/>
        <path id="Trazado_117568" data-name="Trazado 117568" d="M50.481,45.681a4.159,4.159,0,0,1-6.207,0,7.328,7.328,0,0,0-4.2,6.608v2.626h14.61V52.289A7.328,7.328,0,0,0,50.481,45.681Z" fill="#cbe558" fill-rule="evenodd"/>
      </g>
      <g id="Grupo_83877" data-name="Grupo 83877">
        <path id="Trazado_117569" data-name="Trazado 117569" d="M52.041,45.323a5.225,5.225,0,0,0,.6-2.426V40.81a5.268,5.268,0,0,0-3.465-4.944,8.35,8.35,0,0,0-3.589-5.462,5.225,5.225,0,0,0,.595-2.425V25.893a5.259,5.259,0,0,0-10.518,0V27.98a5.225,5.225,0,0,0,.595,2.425,8.421,8.421,0,0,0-1.8,1.621,8.4,8.4,0,0,0-1.793-1.619,5.225,5.225,0,0,0,.6-2.427V25.893a5.259,5.259,0,1,0-10.518,0V27.98a5.224,5.224,0,0,0,.6,2.427,8.4,8.4,0,0,0-1.8,1.63,8.484,8.484,0,0,0-1.791-1.63,5.225,5.225,0,0,0,.6-2.428V25.893a5.259,5.259,0,0,0-10.518,0V27.98a5.225,5.225,0,0,0,.595,2.425,8.355,8.355,0,0,0-3.589,5.461A5.268,5.268,0,0,0,3.363,40.81V42.9a5.225,5.225,0,0,0,.6,2.426A8.342,8.342,0,0,0,.233,52.29v2.626A1.085,1.085,0,0,0,1.317,56H54.683a1.085,1.085,0,0,0,1.085-1.085V52.29a8.342,8.342,0,0,0-3.726-6.966ZM50.467,40.81V42.9a3.09,3.09,0,0,1-6.179,0V40.81a3.09,3.09,0,1,1,6.179,0Zm-3.6-5.234a5.266,5.266,0,0,0-4.751,5.234V42.9a5.225,5.225,0,0,0,.6,2.427,8.414,8.414,0,0,0-1.791,1.618,8.425,8.425,0,0,0-1.8-1.619,5.225,5.225,0,0,0,.6-2.426V40.81a5.266,5.266,0,0,0-4.751-5.234,6.333,6.333,0,0,1,2.678-3.485,5.243,5.243,0,0,0,6.547,0A6.33,6.33,0,0,1,46.87,35.576ZM31.369,42.9V40.81a3.09,3.09,0,1,1,6.179,0V42.9a3.09,3.09,0,0,1-6.179,0Zm6.459-17a3.09,3.09,0,0,1,6.179,0V27.98a3.09,3.09,0,1,1-6.179,0Zm-12.918,0a3.09,3.09,0,0,1,6.179,0V27.98a3.09,3.09,0,0,1-6.179,0V25.893Zm-.184,6.2a5.243,5.243,0,0,0,6.547,0,6.254,6.254,0,0,1,1.955,1.925,8.363,8.363,0,0,0-.563,1.85A5.268,5.268,0,0,0,29.2,40.81V42.9a5.224,5.224,0,0,0,.6,2.426,8.422,8.422,0,0,0-1.8,1.618A8.4,8.4,0,0,0,26.2,45.324a5.224,5.224,0,0,0,.6-2.427V40.81a5.268,5.268,0,0,0-3.467-4.944,8.3,8.3,0,0,0-.568-1.839,6.254,6.254,0,0,1,1.962-1.936ZM18.451,42.9V40.81a3.09,3.09,0,0,1,6.179,0V42.9a3.09,3.09,0,0,1-6.179,0Zm-6.459-17a3.09,3.09,0,0,1,6.179,0V27.98a3.09,3.09,0,0,1-6.179,0Zm-.184,6.2a5.243,5.243,0,0,0,6.547,0,6.328,6.328,0,0,1,2.678,3.485,5.266,5.266,0,0,0-4.751,5.234V42.9a5.225,5.225,0,0,0,.6,2.426,8.426,8.426,0,0,0-1.8,1.618,8.391,8.391,0,0,0-1.791-1.617,5.225,5.225,0,0,0,.6-2.427V40.81A5.266,5.266,0,0,0,9.13,35.576,6.334,6.334,0,0,1,11.808,32.091ZM5.533,40.81a3.09,3.09,0,0,1,6.179,0V42.9a3.09,3.09,0,0,1-6.179,0ZM2.4,52.29a6.189,6.189,0,0,1,2.946-5.281,5.243,5.243,0,0,0,6.548,0,6.248,6.248,0,0,1,1.954,1.923,8.377,8.377,0,0,0-.7,3.358v1.541H2.4Zm12.918,0a6.189,6.189,0,0,1,2.946-5.281,5.243,5.243,0,0,0,6.548,0,6.252,6.252,0,0,1,1.953,1.923,8.377,8.377,0,0,0-.7,3.358v1.541H15.32V52.29Zm12.918,0a6.189,6.189,0,0,1,2.946-5.281,5.243,5.243,0,0,0,6.548,0,6.191,6.191,0,0,1,2.946,5.281v1.541H28.239ZM53.6,53.83H42.849V52.289a8.376,8.376,0,0,0-.7-3.357A6.263,6.263,0,0,1,44.1,47.009a5.243,5.243,0,0,0,6.547,0A6.189,6.189,0,0,1,53.6,52.289V53.83Z"/>
        <path id="Trazado_117570" data-name="Trazado 117570" d="M19.241,9.221a1.085,1.085,0,0,0,.652-1.389c-.682-1.889-.436-3.383.753-4.568a3.774,3.774,0,0,1,5.32,0,2.853,2.853,0,0,0,4.069,0,3.774,3.774,0,0,1,5.32,0,3.817,3.817,0,0,1,.938,3.987C35.205,11.314,30.164,15.462,28,16.28a10.9,10.9,0,0,1-2.384-1.429,1.085,1.085,0,0,0-1.3,1.734,11.08,11.08,0,0,0,3.406,1.883,1.084,1.084,0,0,0,.56,0,15.506,15.506,0,0,0,5.6-3.765c1.345-1.306,3.718-3.937,4.508-6.892A5.978,5.978,0,0,0,28.5,1.728a.691.691,0,0,1-1.006,0,5.948,5.948,0,0,0-8.383,0,6.13,6.13,0,0,0-1.262,6.841,1.085,1.085,0,0,0,1.389.652Z"/>
        <path id="Trazado_117571" data-name="Trazado 117571" d="M21.418,11.281A1.085,1.085,0,1,0,22.5,12.366a1.084,1.084,0,0,0-1.085-1.085Z"/>
      </g>
    </g>
  </g>
</svg>
