<svg xmlns="http://www.w3.org/2000/svg" width="315" height="212.085" viewBox="0 0 315 212.085">
  <g id="Grupo_81532" data-name="Grupo 81532" transform="translate(-64.355 -67.216)">
    <g id="Character" transform="translate(133.208 67.216)">
      <g id="Grupo_81351" data-name="Grupo 81351">
        <g id="Grupo_81289" data-name="Grupo 81289">
          <g id="Grupo_81234" data-name="Grupo 81234" transform="translate(60.244)">
            <g id="Grupo_81086" data-name="Grupo 81086" transform="translate(12.247 8.346)">
              <g id="Grupo_81085" data-name="Grupo 81085">
                <g id="Grupo_81084" data-name="Grupo 81084">
                  <g id="Grupo_81067" data-name="Grupo 81067">
                    <g id="Grupo_81066" data-name="Grupo 81066">
                      <g id="Grupo_81065" data-name="Grupo 81065">
                        <g id="Grupo_81064" data-name="Grupo 81064">
                          <g id="Grupo_81063" data-name="Grupo 81063">
                            <g id="Grupo_81062" data-name="Grupo 81062">
                              <g id="Grupo_81061" data-name="Grupo 81061">
                                <g id="Grupo_81060" data-name="Grupo 81060">
                                  <g id="Grupo_81059" data-name="Grupo 81059">
                                    <g id="Grupo_81058" data-name="Grupo 81058">
                                      <g id="Grupo_81057" data-name="Grupo 81057">
                                        <g id="Grupo_81056" data-name="Grupo 81056">
                                          <g id="Grupo_81055" data-name="Grupo 81055">
                                            <g id="Grupo_81054" data-name="Grupo 81054">
                                              <g id="Grupo_81053" data-name="Grupo 81053">
                                                <g id="Grupo_81052" data-name="Grupo 81052">
                                                  <path id="Trazado_116792" data-name="Trazado 116792" d="M327.77,109.228l-.684,55.1c-.117,9.37,1.627,23.157,16.449,22.666h0c12.828-1.4,16.231-13.54,16.331-22.284.047-4.147.1-7.606.128-8.032,0,0,14.042-1.145,15.227-15.015.573-6.7.628-20.6.533-33.18A25.929,25.929,0,0,0,351.706,82.83l-1.339-.1C335.862,82.521,327.579,94.722,327.77,109.228Z" transform="translate(-327.08 -82.73)" fill="#ffbe9d"/>
                                                </g>
                                              </g>
                                            </g>
                                          </g>
                                        </g>
                                      </g>
                                    </g>
                                  </g>
                                </g>
                              </g>
                            </g>
                          </g>
                        </g>
                      </g>
                    </g>
                  </g>
                  <g id="Grupo_81083" data-name="Grupo 81083" transform="translate(15.228 67.281)">
                    <g id="Grupo_81082" data-name="Grupo 81082">
                      <g id="Grupo_81081" data-name="Grupo 81081">
                        <g id="Grupo_81080" data-name="Grupo 81080">
                          <g id="Grupo_81079" data-name="Grupo 81079">
                            <g id="Grupo_81078" data-name="Grupo 81078">
                              <g id="Grupo_81077" data-name="Grupo 81077">
                                <g id="Grupo_81076" data-name="Grupo 81076">
                                  <g id="Grupo_81075" data-name="Grupo 81075">
                                    <g id="Grupo_81074" data-name="Grupo 81074">
                                      <g id="Grupo_81073" data-name="Grupo 81073">
                                        <g id="Grupo_81072" data-name="Grupo 81072">
                                          <g id="Grupo_81071" data-name="Grupo 81071">
                                            <g id="Grupo_81070" data-name="Grupo 81070">
                                              <g id="Grupo_81069" data-name="Grupo 81069">
                                                <g id="Grupo_81068" data-name="Grupo 81068">
                                                  <path id="Trazado_116793" data-name="Trazado 116793" d="M373.071,214.452a33.627,33.627,0,0,1-17.685-6.664S359.055,218.25,373,218.011Z" transform="translate(-355.386 -207.788)" fill="#eb996e"/>
                                                </g>
                                              </g>
                                            </g>
                                          </g>
                                        </g>
                                      </g>
                                    </g>
                                  </g>
                                </g>
                              </g>
                            </g>
                          </g>
                        </g>
                      </g>
                    </g>
                  </g>
                </g>
              </g>
            </g>
            <g id="Grupo_81175" data-name="Grupo 81175" transform="translate(27.569 29.299)">
              <g id="Grupo_81174" data-name="Grupo 81174">
                <g id="Grupo_81141" data-name="Grupo 81141" transform="translate(1.109 8.026)">
                  <g id="Grupo_81140" data-name="Grupo 81140">
                    <g id="Grupo_81139" data-name="Grupo 81139">
                      <g id="Grupo_81104" data-name="Grupo 81104">
                        <g id="Grupo_81103" data-name="Grupo 81103">
                          <g id="Grupo_81102" data-name="Grupo 81102">
                            <g id="Grupo_81101" data-name="Grupo 81101">
                              <g id="Grupo_81100" data-name="Grupo 81100">
                                <g id="Grupo_81099" data-name="Grupo 81099">
                                  <g id="Grupo_81098" data-name="Grupo 81098">
                                    <g id="Grupo_81097" data-name="Grupo 81097">
                                      <g id="Grupo_81096" data-name="Grupo 81096">
                                        <g id="Grupo_81095" data-name="Grupo 81095">
                                          <g id="Grupo_81094" data-name="Grupo 81094">
                                            <g id="Grupo_81093" data-name="Grupo 81093">
                                              <g id="Grupo_81092" data-name="Grupo 81092">
                                                <g id="Grupo_81091" data-name="Grupo 81091">
                                                  <g id="Grupo_81090" data-name="Grupo 81090">
                                                    <g id="Grupo_81089" data-name="Grupo 81089">
                                                      <g id="Grupo_81088" data-name="Grupo 81088">
                                                        <g id="Grupo_81087" data-name="Grupo 81087">
                                                          <path id="Trazado_116794" data-name="Trazado 116794" d="M366.151,139.048c-.276.281-1.877-1.009-4.2-1.071-2.32-.1-4.059,1.078-4.3.778-.121-.133.167-.646.924-1.178a5.812,5.812,0,0,1,3.454-.98,5.607,5.607,0,0,1,3.334,1.213C366.059,138.394,366.286,138.923,366.151,139.048Z" transform="translate(-357.621 -136.595)" fill="#263238"/>
                                                        </g>
                                                      </g>
                                                    </g>
                                                  </g>
                                                </g>
                                              </g>
                                            </g>
                                          </g>
                                        </g>
                                      </g>
                                    </g>
                                  </g>
                                </g>
                              </g>
                            </g>
                          </g>
                        </g>
                      </g>
                      <g id="Grupo_81121" data-name="Grupo 81121" transform="translate(4.284 5.427)">
                        <g id="Grupo_81120" data-name="Grupo 81120">
                          <g id="Grupo_81119" data-name="Grupo 81119">
                            <g id="Grupo_81118" data-name="Grupo 81118">
                              <g id="Grupo_81117" data-name="Grupo 81117">
                                <g id="Grupo_81116" data-name="Grupo 81116">
                                  <g id="Grupo_81115" data-name="Grupo 81115">
                                    <g id="Grupo_81114" data-name="Grupo 81114">
                                      <g id="Grupo_81113" data-name="Grupo 81113">
                                        <g id="Grupo_81112" data-name="Grupo 81112">
                                          <g id="Grupo_81111" data-name="Grupo 81111">
                                            <g id="Grupo_81110" data-name="Grupo 81110">
                                              <g id="Grupo_81109" data-name="Grupo 81109">
                                                <g id="Grupo_81108" data-name="Grupo 81108">
                                                  <g id="Grupo_81107" data-name="Grupo 81107">
                                                    <g id="Grupo_81106" data-name="Grupo 81106">
                                                      <g id="Grupo_81105" data-name="Grupo 81105">
                                                        <path id="Trazado_116795" data-name="Trazado 116795" d="M369.341,148.515a1.881,1.881,0,0,1-1.946,1.76,1.8,1.8,0,0,1-1.809-1.832,1.88,1.88,0,0,1,1.944-1.761A1.8,1.8,0,0,1,369.341,148.515Z" transform="translate(-365.584 -146.681)" fill="#263238"/>
                                                      </g>
                                                    </g>
                                                  </g>
                                                </g>
                                              </g>
                                            </g>
                                          </g>
                                        </g>
                                      </g>
                                    </g>
                                  </g>
                                </g>
                              </g>
                            </g>
                          </g>
                        </g>
                      </g>
                      <g id="Grupo_81138" data-name="Grupo 81138" transform="translate(14.352 0.772)">
                        <g id="Grupo_81137" data-name="Grupo 81137">
                          <g id="Grupo_81136" data-name="Grupo 81136">
                            <g id="Grupo_81135" data-name="Grupo 81135">
                              <g id="Grupo_81134" data-name="Grupo 81134">
                                <g id="Grupo_81133" data-name="Grupo 81133">
                                  <g id="Grupo_81132" data-name="Grupo 81132">
                                    <g id="Grupo_81131" data-name="Grupo 81131">
                                      <g id="Grupo_81130" data-name="Grupo 81130">
                                        <g id="Grupo_81129" data-name="Grupo 81129">
                                          <g id="Grupo_81128" data-name="Grupo 81128">
                                            <g id="Grupo_81127" data-name="Grupo 81127">
                                              <g id="Grupo_81126" data-name="Grupo 81126">
                                                <g id="Grupo_81125" data-name="Grupo 81125">
                                                  <g id="Grupo_81124" data-name="Grupo 81124">
                                                    <g id="Grupo_81123" data-name="Grupo 81123">
                                                      <g id="Grupo_81122" data-name="Grupo 81122">
                                                        <path id="Trazado_116796" data-name="Trazado 116796" d="M384.3,155.876a14.152,14.152,0,0,1,3.51-.372c.549-.017,1.072-.087,1.191-.452a2.779,2.779,0,0,0-.246-1.641q-.624-2.034-1.308-4.266c-1.806-6.07-3.071-11.044-2.826-11.114s1.908,4.791,3.714,10.86q.649,2.244,1.239,4.286a3.166,3.166,0,0,1,.126,2.159,1.37,1.37,0,0,1-.953.731,3.693,3.693,0,0,1-.935.061A13.882,13.882,0,0,1,384.3,155.876Z" transform="translate(-384.297 -138.03)" fill="#263238"/>
                                                      </g>
                                                    </g>
                                                  </g>
                                                </g>
                                              </g>
                                            </g>
                                          </g>
                                        </g>
                                      </g>
                                    </g>
                                  </g>
                                </g>
                              </g>
                            </g>
                          </g>
                        </g>
                      </g>
                    </g>
                  </g>
                </g>
                <g id="Grupo_81157" data-name="Grupo 81157">
                  <g id="Grupo_81156" data-name="Grupo 81156">
                    <g id="Grupo_81155" data-name="Grupo 81155">
                      <g id="Grupo_81154" data-name="Grupo 81154">
                        <g id="Grupo_81153" data-name="Grupo 81153">
                          <g id="Grupo_81152" data-name="Grupo 81152">
                            <g id="Grupo_81151" data-name="Grupo 81151">
                              <g id="Grupo_81150" data-name="Grupo 81150">
                                <g id="Grupo_81149" data-name="Grupo 81149">
                                  <g id="Grupo_81148" data-name="Grupo 81148">
                                    <g id="Grupo_81147" data-name="Grupo 81147">
                                      <g id="Grupo_81146" data-name="Grupo 81146">
                                        <g id="Grupo_81145" data-name="Grupo 81145">
                                          <g id="Grupo_81144" data-name="Grupo 81144">
                                            <g id="Grupo_81143" data-name="Grupo 81143">
                                              <g id="Grupo_81142" data-name="Grupo 81142">
                                                <path id="Trazado_116797" data-name="Trazado 116797" d="M364.21,123.419c-.224.515-2.085.128-4.312.242-2.23.067-4.059.606-4.317.11-.114-.237.233-.712.99-1.172a7.03,7.03,0,0,1,3.261-.917,6.954,6.954,0,0,1,3.313.65C363.931,122.728,364.308,123.174,364.21,123.419Z" transform="translate(-355.559 -121.676)" fill="#263238"/>
                                              </g>
                                            </g>
                                          </g>
                                        </g>
                                      </g>
                                    </g>
                                  </g>
                                </g>
                              </g>
                            </g>
                          </g>
                        </g>
                      </g>
                    </g>
                  </g>
                </g>
                <g id="Grupo_81173" data-name="Grupo 81173" transform="translate(22.196 4.246)">
                  <g id="Grupo_81172" data-name="Grupo 81172">
                    <g id="Grupo_81171" data-name="Grupo 81171">
                      <g id="Grupo_81170" data-name="Grupo 81170">
                        <g id="Grupo_81169" data-name="Grupo 81169">
                          <g id="Grupo_81168" data-name="Grupo 81168">
                            <g id="Grupo_81167" data-name="Grupo 81167">
                              <g id="Grupo_81166" data-name="Grupo 81166">
                                <g id="Grupo_81165" data-name="Grupo 81165">
                                  <g id="Grupo_81164" data-name="Grupo 81164">
                                    <g id="Grupo_81163" data-name="Grupo 81163">
                                      <g id="Grupo_81162" data-name="Grupo 81162">
                                        <g id="Grupo_81161" data-name="Grupo 81161">
                                          <g id="Grupo_81160" data-name="Grupo 81160">
                                            <g id="Grupo_81159" data-name="Grupo 81159">
                                              <g id="Grupo_81158" data-name="Grupo 81158">
                                                <path id="Trazado_116798" data-name="Trazado 116798" d="M405.34,131.371c-.244.42-2.057-.046-4.254-.114-2.2-.108-4.021.214-4.253-.226-.1-.209.26-.586,1.026-.919a7.673,7.673,0,0,1,3.25-.537,7.933,7.933,0,0,1,3.232.8C405.1,130.765,405.448,131.17,405.34,131.371Z" transform="translate(-396.816 -129.568)" fill="#263238"/>
                                              </g>
                                            </g>
                                          </g>
                                        </g>
                                      </g>
                                    </g>
                                  </g>
                                </g>
                              </g>
                            </g>
                          </g>
                        </g>
                      </g>
                    </g>
                  </g>
                </g>
              </g>
            </g>
            <g id="Grupo_81189" data-name="Grupo 81189" transform="translate(3.586 44.519)">
              <g id="Grupo_81188" data-name="Grupo 81188">
                <g id="Grupo_81187" data-name="Grupo 81187">
                  <g id="Grupo_81186" data-name="Grupo 81186">
                    <g id="Grupo_81185" data-name="Grupo 81185">
                      <g id="Grupo_81184" data-name="Grupo 81184">
                        <g id="Grupo_81183" data-name="Grupo 81183">
                          <g id="Grupo_81182" data-name="Grupo 81182">
                            <g id="Grupo_81181" data-name="Grupo 81181">
                              <g id="Grupo_81180" data-name="Grupo 81180">
                                <g id="Grupo_81179" data-name="Grupo 81179">
                                  <g id="Grupo_81178" data-name="Grupo 81178">
                                    <g id="Grupo_81177" data-name="Grupo 81177">
                                      <g id="Grupo_81176" data-name="Grupo 81176">
                                        <path id="Trazado_116799" data-name="Trazado 116799" d="M320.715,150.653c-.229-.12-9.333-3.518-9.722,5.995s9.241,7.942,9.269,7.67S320.715,150.653,320.715,150.653Z" transform="translate(-310.982 -149.967)" fill="#ffbe9d"/>
                                      </g>
                                    </g>
                                  </g>
                                </g>
                              </g>
                            </g>
                          </g>
                        </g>
                      </g>
                    </g>
                  </g>
                </g>
              </g>
            </g>
            <g id="Grupo_81204" data-name="Grupo 81204" transform="translate(6.002 47.547)">
              <g id="Grupo_81203" data-name="Grupo 81203" transform="translate(0 0)">
                <g id="Grupo_81202" data-name="Grupo 81202">
                  <g id="Grupo_81201" data-name="Grupo 81201">
                    <g id="Grupo_81200" data-name="Grupo 81200">
                      <g id="Grupo_81199" data-name="Grupo 81199">
                        <g id="Grupo_81198" data-name="Grupo 81198">
                          <g id="Grupo_81197" data-name="Grupo 81197">
                            <g id="Grupo_81196" data-name="Grupo 81196">
                              <g id="Grupo_81195" data-name="Grupo 81195">
                                <g id="Grupo_81194" data-name="Grupo 81194">
                                  <g id="Grupo_81193" data-name="Grupo 81193">
                                    <g id="Grupo_81192" data-name="Grupo 81192">
                                      <g id="Grupo_81191" data-name="Grupo 81191">
                                        <g id="Grupo_81190" data-name="Grupo 81190">
                                          <path id="Trazado_116800" data-name="Trazado 116800" d="M319.579,163.2c-.041-.032-.171.11-.456.227a1.659,1.659,0,0,1-1.24-.025c-.99-.411-1.771-2.041-1.747-3.757a5.487,5.487,0,0,1,.561-2.354,1.915,1.915,0,0,1,1.3-1.221.844.844,0,0,1,.959.494c.117.271.048.459.1.477.026.025.211-.151.15-.547a1.059,1.059,0,0,0-.35-.611,1.254,1.254,0,0,0-.907-.28,2.329,2.329,0,0,0-1.792,1.4,5.627,5.627,0,0,0-.683,2.628c-.018,1.92.89,3.754,2.249,4.208a1.775,1.775,0,0,0,1.526-.19C319.552,163.425,319.611,163.214,319.579,163.2Z" transform="translate(-315.473 -155.595)" fill="#eb996e"/>
                                        </g>
                                      </g>
                                    </g>
                                  </g>
                                </g>
                              </g>
                            </g>
                          </g>
                        </g>
                      </g>
                    </g>
                  </g>
                </g>
              </g>
            </g>
            <g id="Grupo_81206" data-name="Grupo 81206" transform="translate(35.75 56.405)">
              <g id="Grupo_81205" data-name="Grupo 81205">
                <path id="Trazado_116801" data-name="Trazado 116801" d="M375.8,178.184c.1-.24-1.76-.8-3.07-2.547a10.66,10.66,0,0,1-1.316-2.484c-.278-.69-.488-1.124-.591-1.092s-.073.5.08,1.249a7.023,7.023,0,0,0,1.224,2.783,5.69,5.69,0,0,0,2.43,1.86C375.284,178.247,375.776,178.265,375.8,178.184Z" transform="translate(-370.766 -172.059)" fill="#263238"/>
              </g>
            </g>
            <g id="Grupo_81208" data-name="Grupo 81208">
              <g id="Grupo_81207" data-name="Grupo 81207">
                <path id="Trazado_116802" data-name="Trazado 116802" d="M383.656,88.861a2.246,2.246,0,0,0-1.055-1.312,6.908,6.908,0,0,0-3.546-.576,20.03,20.03,0,0,1-10.431-3.17,46.7,46.7,0,0,0-4.854-5.882c-4.2-4.335-7.664-7.286-11.241-8.726-4.629-1.863-12.37-2.618-17.195-1.353s-9.16,5.182-9.831,10.126c-2.706-2.289-6.77-2.269-10.065-.944l-.083-.036c-3.671,1.308-5.757,5.187-6.84,8.93s-1.545,7.747-3.528,11.1c-.415.7-.907,1.542-.545,2.272a1.548,1.548,0,0,0,1.62.706,4.544,4.544,0,0,0,1.709-.774l-1.228,2.941a8.677,8.677,0,0,0,3.993-.267,85.02,85.02,0,0,0,2.611,9.872c1.534,0,2.939.105,3.885.957,1.286,1.156,1.861,3.331,4,2.5,1.087-.42,2.08-2.7,2.444-3.809a54.13,54.13,0,0,0,2.344-22.914,17.4,17.4,0,0,1,5.373-3.878l-.164.148c3.876-1.347,8.261-2.671,11.939-.851,2.853,1.412,4.53,4.372,6.663,6.734a21.778,21.778,0,0,0,15.521,7.169c.2,3.905-.123,9.426.082,13.331l3.286-6.256,0,.031c.269-.457.492-.919.706-1.382l.074-.14V103.4a24.5,24.5,0,0,1,1.1-2.222l.038.033A2.44,2.44,0,0,0,374,97.947a5.516,5.516,0,0,0-1.18-1.186,3.86,3.86,0,0,0,3.677.953,3.028,3.028,0,0,0,2.142-3,2.576,2.576,0,0,0-1.535-2.066,8.7,8.7,0,0,0,4.947-1.091C383.028,91.007,383.987,90.089,383.656,88.861Z" transform="translate(-304.316 -67.216)" fill="#263238"/>
              </g>
            </g>
            <g id="Grupo_81210" data-name="Grupo 81210" transform="translate(5.192 12.345)">
              <g id="Grupo_81209" data-name="Grupo 81209">
                <path id="Trazado_116803" data-name="Trazado 116803" d="M334.327,90.162a11.992,11.992,0,0,0-1.392,1.273,9.948,9.948,0,0,0-2.129,4.607,17.455,17.455,0,0,0-.355,3.526c-.006,1.278.1,2.646.195,4.088a36.581,36.581,0,0,1,.1,4.55,16.025,16.025,0,0,1-.313,2.4,5,5,0,0,1-.979,2.328,2.094,2.094,0,0,1-1.958.659,3.119,3.119,0,0,1-1.762-1,7.2,7.2,0,0,1-1.337-3.528l.292.036A11.621,11.621,0,0,1,323,112.011a4.132,4.132,0,0,1-2.7,1.47,2.673,2.673,0,0,1-1.431-.251,2.307,2.307,0,0,1-.972-.957,2.381,2.381,0,0,1-.295-1.23,1.727,1.727,0,0,1,.445-1.079l.147.131a8.954,8.954,0,0,1-2.98,2.236,8.118,8.118,0,0,1-.924.359,1.509,1.509,0,0,1-.331.082,1.677,1.677,0,0,1,.313-.133c.206-.084.513-.208.9-.4a9.227,9.227,0,0,0,2.877-2.269l.147.131a1.778,1.778,0,0,0-.092,2.062,2.075,2.075,0,0,0,.879.847,2.418,2.418,0,0,0,1.3.211,3.872,3.872,0,0,0,2.505-1.4,11.452,11.452,0,0,0,1.625-2.844l.2-.445.092.48a6.959,6.959,0,0,0,1.273,3.371,2.805,2.805,0,0,0,1.577.89,1.767,1.767,0,0,0,1.665-.557,4.737,4.737,0,0,0,.9-2.178,15.885,15.885,0,0,0,.311-2.351,37.121,37.121,0,0,0-.086-4.512c-.089-1.441-.183-2.816-.165-4.11a17.4,17.4,0,0,1,.4-3.572,9.814,9.814,0,0,1,2.26-4.642A5.64,5.64,0,0,1,334.327,90.162Z" transform="translate(-313.966 -90.162)" fill="#455a64"/>
              </g>
            </g>
            <g id="Grupo_81212" data-name="Grupo 81212" transform="translate(26.026 4.556)">
              <g id="Grupo_81211" data-name="Grupo 81211">
                <path id="Trazado_116804" data-name="Trazado 116804" d="M395.141,96.973s-.034.037-.111.1l-.347.252a4.6,4.6,0,0,1-.588.377,7.514,7.514,0,0,1-.844.444,12.311,12.311,0,0,1-5.938,1.068,15.725,15.725,0,0,1-8.374-3.092,27.222,27.222,0,0,1-7.193-8.292c-1.009-1.68-1.832-3.4-2.738-4.993a18.393,18.393,0,0,0-3.1-4.224,9.472,9.472,0,0,0-4-2.426,6.79,6.79,0,0,0-2.108-.243,7.463,7.463,0,0,0-1.93.371,8.03,8.03,0,0,0-4.458,3.772,9.613,9.613,0,0,0-.716,2.08.5.5,0,0,1,.011-.145l.066-.425a6.936,6.936,0,0,1,.527-1.567,7.892,7.892,0,0,1,1.553-2.106,8.117,8.117,0,0,1,2.943-1.827,7.63,7.63,0,0,1,1.992-.4,7.02,7.02,0,0,1,2.193.233,9.705,9.705,0,0,1,4.134,2.471,18.552,18.552,0,0,1,3.168,4.281c.918,1.6,1.741,3.32,2.741,4.985a27.231,27.231,0,0,0,7.091,8.215,15.623,15.623,0,0,0,8.212,3.105,12.494,12.494,0,0,0,5.872-.954A19.562,19.562,0,0,0,395.141,96.973Z" transform="translate(-352.693 -75.685)" fill="#455a64"/>
              </g>
            </g>
            <g id="Grupo_81214" data-name="Grupo 81214" transform="translate(55.032 19.744)">
              <g id="Grupo_81213" data-name="Grupo 81213">
                <path id="Trazado_116805" data-name="Trazado 116805" d="M421.312,103.919a2.168,2.168,0,0,1-.5.346,10.77,10.77,0,0,1-1.474.748,14.345,14.345,0,0,1-2.333.766,15.105,15.105,0,0,1-5.986.192,14.379,14.379,0,0,1-2.377-.615,10.778,10.778,0,0,1-1.518-.653,2.195,2.195,0,0,1-.519-.314c.027-.055.794.339,2.109.748a16.43,16.43,0,0,0,2.352.538,16.206,16.206,0,0,0,5.874-.188,16.381,16.381,0,0,0,2.313-.688C420.542,104.309,421.281,103.867,421.312,103.919Z" transform="translate(-406.607 -103.915)" fill="#455a64"/>
              </g>
            </g>
            <g id="Grupo_81224" data-name="Grupo 81224" transform="translate(49.862 38.201)">
              <g id="Grupo_81223" data-name="Grupo 81223">
                <g id="Grupo_81222" data-name="Grupo 81222">
                  <g id="Grupo_81221" data-name="Grupo 81221">
                    <g id="Grupo_81220" data-name="Grupo 81220">
                      <g id="Grupo_81219" data-name="Grupo 81219">
                        <g id="Grupo_81218" data-name="Grupo 81218">
                          <g id="Grupo_81217" data-name="Grupo 81217">
                            <g id="Grupo_81216" data-name="Grupo 81216">
                              <g id="Grupo_81215" data-name="Grupo 81215">
                                <path id="Trazado_116806" data-name="Trazado 116806" d="M405.528,140.675c-.276.281-1.877-1.009-4.2-1.071-2.32-.1-4.059,1.078-4.3.779-.121-.133.167-.646.924-1.178a5.813,5.813,0,0,1,3.454-.98,5.611,5.611,0,0,1,3.334,1.213C405.436,140.021,405.663,140.55,405.528,140.675Z" transform="translate(-396.998 -138.222)" fill="#263238"/>
                              </g>
                            </g>
                          </g>
                        </g>
                      </g>
                    </g>
                  </g>
                </g>
              </g>
            </g>
            <g id="Grupo_81233" data-name="Grupo 81233" transform="translate(52.267 43.427)">
              <g id="Grupo_81232" data-name="Grupo 81232">
                <g id="Grupo_81231" data-name="Grupo 81231">
                  <g id="Grupo_81230" data-name="Grupo 81230">
                    <g id="Grupo_81229" data-name="Grupo 81229">
                      <g id="Grupo_81228" data-name="Grupo 81228">
                        <g id="Grupo_81227" data-name="Grupo 81227">
                          <g id="Grupo_81226" data-name="Grupo 81226">
                            <g id="Grupo_81225" data-name="Grupo 81225">
                              <path id="Trazado_116807" data-name="Trazado 116807" d="M405.225,149.769a1.88,1.88,0,0,1-1.946,1.76,1.8,1.8,0,0,1-1.809-1.832,1.881,1.881,0,0,1,1.945-1.761A1.8,1.8,0,0,1,405.225,149.769Z" transform="translate(-401.468 -147.935)" fill="#263238"/>
                            </g>
                          </g>
                        </g>
                      </g>
                    </g>
                  </g>
                </g>
              </g>
            </g>
          </g>
          <g id="Grupo_81235" data-name="Grupo 81235" transform="translate(172.682 90.605)">
            <path id="Trazado_116808" data-name="Trazado 116808" d="M543.57,241.01a3.829,3.829,0,0,0-3.851-4.03c-1.467-1.928-3.118-1.227-3.118-1.227l-6.235,4.206c-.917,1.577-6.969,7.535-6.969,7.535-1.651-1.227-1.651-3.68-3.629-6.659s-6.458-2.628-6.458-2.628,3.485,7.885,3.852,12.792-2.679,18.593-2.679,18.593l17.628,4.954s1.113-7.508,3.088-8.114c2.377-.73,3.7-4.237,3.7-4.237,2.57-5.206,7.788-12.773,8.521-16.628S543.57,241.01,543.57,241.01Z" transform="translate(-513.31 -235.629)" fill="#ffbe9d"/>
          </g>
          <g id="Grupo_81260" data-name="Grupo 81260" transform="translate(0 87.272)">
            <g id="Grupo_81242" data-name="Grupo 81242" transform="translate(40.651)">
              <g id="Grupo_81236" data-name="Grupo 81236">
                <path id="Trazado_116809" data-name="Trazado 116809" d="M299.094,229.433c11.228,7.056,22.545,9.71,34.005,5.141l17.228,4.4,16.95,113.244-99.38.863,4.9-26.3,12.32-94.5Z" transform="translate(-267.897 -229.433)" fill="#455a64"/>
              </g>
              <g id="Grupo_81237" data-name="Grupo 81237" transform="translate(82.43 9.541)">
                <path id="Trazado_116810" data-name="Trazado 116810" d="M421.115,247.168s13.4,5.564,18.513,15.311,13.334,37.1,13.334,37.1L468.1,271.778l28.1,7.183s-20.916,57.693-26.167,62.946c-5.749,5.75-21.415,11.548-29.087,7.074s-9.232-21.46-9.232-21.46Z" transform="translate(-421.115 -247.168)" fill="#455a64"/>
              </g>
              <g id="Grupo_81239" data-name="Grupo 81239" transform="translate(83.214 34.439)">
                <g id="Grupo_81238" data-name="Grupo 81238">
                  <path id="Trazado_116811" data-name="Trazado 116811" d="M422.712,315.914c-.077,0-.14-5.03-.14-11.233s.062-11.234.14-11.234.14,5.029.14,11.234S422.789,315.914,422.712,315.914Z" transform="translate(-422.572 -293.447)" fill="#263238"/>
                </g>
              </g>
              <g id="Grupo_81241" data-name="Grupo 81241" transform="translate(84.631 16.012)">
                <g id="Grupo_81240" data-name="Grupo 81240">
                  <path id="Trazado_116812" data-name="Trazado 116812" d="M429.174,259.195a16.823,16.823,0,0,1-.654,1.856c-.421,1.137-.982,2.715-1.53,4.482s-.975,3.386-1.27,4.563a16.97,16.97,0,0,1-.508,1.9,1.92,1.92,0,0,1,.052-.528c.051-.337.14-.821.263-1.417.246-1.192.647-2.826,1.2-4.6s1.143-3.35,1.613-4.472c.235-.561.434-1.011.583-1.318A1.951,1.951,0,0,1,429.174,259.195Z" transform="translate(-425.204 -259.195)" fill="#263238"/>
                </g>
              </g>
            </g>
            <g id="Grupo_81259" data-name="Grupo 81259" transform="translate(0 2.581)">
              <g id="Grupo_81243" data-name="Grupo 81243">
                <path id="Trazado_116813" data-name="Trazado 116813" d="M248.386,276.9l3.109-42.67S228.1,236.4,220.363,252.9c-6.523,13.907-24.529,55.749-26.457,61.473-5.655,16.8,3.18,39.889,39.6,38.551l4.153-22.834Z" transform="translate(-192.336 -234.231)" fill="#455a64"/>
              </g>
              <g id="Grupo_81245" data-name="Grupo 81245" transform="translate(29.857 91.585)">
                <g id="Grupo_81244" data-name="Grupo 81244">
                  <path id="Trazado_116814" data-name="Trazado 116814" d="M247.833,413.5a2.666,2.666,0,0,1,.19-.409l.594-1.149,2.231-4.2.745-1.389a4.114,4.114,0,0,1,1.07-1.375,2.907,2.907,0,0,1,1.8-.518,8.2,8.2,0,0,1,1.939.314,19.919,19.919,0,0,1,3.914,1.48,10.411,10.411,0,0,1,1.879,1.2l.216.188a.7.7,0,0,1,.183.289,2.407,2.407,0,0,1,.119.588,9.161,9.161,0,0,1,.025,1.159c-.057,1.542-.249,3.029-.441,4.463s-.416,2.809-.635,4.119c-.44,2.619-.88,4.969-1.258,6.941l-.914,4.665q-.157.8-.25,1.268a3.585,3.585,0,0,1-.094.442,2.209,2.209,0,0,1,.038-.45c.039-.294.105-.725.2-1.278.2-1.133.481-2.726.826-4.682.352-1.976.773-4.328,1.2-6.947.212-1.309.425-2.685.618-4.114s.377-2.914.433-4.434a9.036,9.036,0,0,0-.024-1.122,2.18,2.18,0,0,0-.1-.518.412.412,0,0,0-.111-.181l-.206-.18a10.19,10.19,0,0,0-1.827-1.167,19.9,19.9,0,0,0-3.854-1.475,8,8,0,0,0-1.877-.318,2.677,2.677,0,0,0-1.657.458,3.92,3.92,0,0,0-1.019,1.293l-.761,1.379L248.714,412l-.64,1.123A2.706,2.706,0,0,1,247.833,413.5Z" transform="translate(-247.833 -404.466)" fill="#263238"/>
                </g>
              </g>
              <g id="Grupo_81247" data-name="Grupo 81247" transform="translate(12.942 80.343)">
                <g id="Grupo_81246" data-name="Grupo 81246">
                  <path id="Trazado_116815" data-name="Trazado 116815" d="M216.393,383.579a1.024,1.024,0,0,1,.275-.009l.785.03c.681.033,1.667.091,2.883.2a37.324,37.324,0,0,1,4.248.619,21.74,21.74,0,0,1,5,1.655,19.574,19.574,0,0,1,4.4,2.9,11.745,11.745,0,0,1,2.668,3.372,7.463,7.463,0,0,1,.809,2.783,4.956,4.956,0,0,1,.016.789.984.984,0,0,1-.023.274c-.031,0-.02-.38-.1-1.051a7.85,7.85,0,0,0-.876-2.7,11.892,11.892,0,0,0-2.664-3.269,19.954,19.954,0,0,0-4.346-2.841,22.264,22.264,0,0,0-4.928-1.655,41.318,41.318,0,0,0-4.214-.674c-1.209-.138-2.192-.226-2.87-.293l-.781-.082A1.014,1.014,0,0,1,216.393,383.579Z" transform="translate(-216.393 -383.569)" fill="#263238"/>
                </g>
              </g>
              <g id="Grupo_81249" data-name="Grupo 81249" transform="translate(33.184 78.198)">
                <g id="Grupo_81248" data-name="Grupo 81248">
                  <path id="Trazado_116816" data-name="Trazado 116816" d="M258.8,379.583a10.1,10.1,0,0,1-.582,1.679c-.4,1.022-1,2.415-1.682,3.94l-1.756,3.9a12.459,12.459,0,0,1-.764,1.6,10.061,10.061,0,0,1,.582-1.679c.4-1.022,1-2.415,1.682-3.94l1.755-3.9A12.44,12.44,0,0,1,258.8,379.583Z" transform="translate(-254.017 -379.583)" fill="#263238"/>
                </g>
              </g>
              <g id="Grupo_81251" data-name="Grupo 81251" transform="translate(50.776 32.534)">
                <g id="Grupo_81250" data-name="Grupo 81250">
                  <path id="Trazado_116817" data-name="Trazado 116817" d="M286.857,306.785c-.077,0-.14-2.7-.14-6.04s.062-6.041.14-6.041.14,2.7.14,6.041S286.934,306.785,286.857,306.785Z" transform="translate(-286.717 -294.704)" fill="#263238"/>
                </g>
              </g>
              <g id="Grupo_81253" data-name="Grupo 81253" transform="translate(21.843 92.969)" opacity="0.3">
                <g id="Grupo_81252" data-name="Grupo 81252">
                  <path id="Trazado_116818" data-name="Trazado 116818" d="M245.09,407.038c-6.154,2.147-10.314,7.73-11.994,14.027a2.175,2.175,0,0,0,.148,1.962,1.549,1.549,0,0,0,1.932.158,4.513,4.513,0,0,0,1.37-1.578,161.613,161.613,0,0,0,8.544-14.569Z" transform="translate(-232.938 -407.038)"/>
                </g>
              </g>
              <g id="Grupo_81256" data-name="Grupo 81256" transform="translate(6.938 77.994)">
                <g id="Grupo_81255" data-name="Grupo 81255" opacity="0.3">
                  <g id="Grupo_81254" data-name="Grupo 81254">
                    <path id="Trazado_116819" data-name="Trazado 116819" d="M224.655,382a24.816,24.816,0,0,0-10.593-2.778,16.084,16.084,0,0,0-4.281.377c-1.92.4-4.129,1.374-4.549,2.754,4.417-1.384,10.918-.472,15.44.516a16.586,16.586,0,0,1,10.81,7.659A15.422,15.422,0,0,0,224.655,382Z" transform="translate(-205.232 -379.202)"/>
                  </g>
                </g>
              </g>
              <g id="Grupo_81258" data-name="Grupo 81258" transform="translate(38.529 11.241)">
                <g id="Grupo_81257" data-name="Grupo 81257">
                  <path id="Trazado_116820" data-name="Trazado 116820" d="M272.9,270.329a3.4,3.4,0,0,1-.215-.674c-.115-.438-.3-1.067-.556-1.835a29.618,29.618,0,0,0-6.357-10.8c-.548-.6-1.007-1.064-1.334-1.377a3.457,3.457,0,0,1-.484-.514,3.444,3.444,0,0,1,.558.434c.351.289.833.74,1.4,1.321a26.664,26.664,0,0,1,6.4,10.88c.231.781.391,1.421.473,1.868A3.456,3.456,0,0,1,272.9,270.329Z" transform="translate(-263.952 -255.125)" fill="#263238"/>
                </g>
              </g>
            </g>
          </g>
          <g id="Grupo_81277" data-name="Grupo 81277" transform="translate(29.591 134.468)">
            <g id="Grupo_81262" data-name="Grupo 81262">
              <g id="Grupo_81261" data-name="Grupo 81261">
                <path id="Trazado_116821" data-name="Trazado 116821" d="M273.814,393.595l-26.066-62.888c-1.189-2.87.3-5.2,3.333-5.2h5.244c2.14,0,3.6-1.179,3.736-3.019l.174-2.312c.139-1.84,1.6-3.019,3.742-3.019H288.9a8.724,8.724,0,0,1,5.771,2.553l2.022,1.96a8.715,8.715,0,0,0,5.766,2.553h31.738a8.856,8.856,0,0,1,7.58,5.2l25.84,64.173Z" transform="translate(-247.339 -317.16)" fill="#ff725e"/>
              </g>
            </g>
            <g id="Grupo_81264" data-name="Grupo 81264" opacity="0.3">
              <g id="Grupo_81263" data-name="Grupo 81263">
                <path id="Trazado_116822" data-name="Trazado 116822" d="M273.814,393.595l-26.066-62.888c-1.189-2.87.3-5.2,3.333-5.2h5.244c2.14,0,3.6-1.179,3.736-3.019l.174-2.312c.139-1.84,1.6-3.019,3.742-3.019H288.9a8.724,8.724,0,0,1,5.771,2.553l2.022,1.96a8.715,8.715,0,0,0,5.766,2.553h31.738a8.856,8.856,0,0,1,7.58,5.2l25.84,64.173Z" transform="translate(-247.339 -317.16)"/>
              </g>
            </g>
            <g id="Grupo_81265" data-name="Grupo 81265" transform="translate(12.194 12.054)">
              <path id="Trazado_116823" data-name="Trazado 116823" d="M279.978,382.588l-9.831-38.009c-.647-2.5.992-5.014,3.273-5.014h77.055a3.514,3.514,0,0,1,3.281,2.831l14.31,57.209c.628,2.512-.376,4.019-2.659,3.99l-77.529.024a3.516,3.516,0,0,1-3.238-2.808Z" transform="translate(-270.005 -339.566)" fill="#e0e0e0"/>
            </g>
            <g id="Grupo_81271" data-name="Grupo 81271" transform="translate(23.295 10.932)">
              <g id="Grupo_81266" data-name="Grupo 81266">
                <path id="Trazado_116824" data-name="Trazado 116824" d="M294.837,401.262l-4.188-59.856a3.671,3.671,0,0,1,3.662-3.927H374.15v63.783Z" transform="translate(-290.64 -337.479)" fill="#ebebeb"/>
              </g>
              <g id="Grupo_81270" data-name="Grupo 81270" transform="translate(3.303)">
                <g id="Grupo_81269" data-name="Grupo 81269">
                  <g id="Grupo_81268" data-name="Grupo 81268">
                    <g id="Grupo_81267" data-name="Grupo 81267">
                      <path id="Trazado_116825" data-name="Trazado 116825" d="M296.78,402.632l9.5-61.706a4.422,4.422,0,0,1,4.341-3.446h80.766a4.366,4.366,0,0,1,4.077,6.082l-17.44,56.471Z" transform="translate(-296.78 -337.479)" fill="#fafafa"/>
                    </g>
                  </g>
                </g>
              </g>
            </g>
            <g id="Grupo_81276" data-name="Grupo 81276" transform="translate(26.475 14.597)">
              <g id="Grupo_81275" data-name="Grupo 81275">
                <g id="Grupo_81274" data-name="Grupo 81274">
                  <g id="Grupo_81273" data-name="Grupo 81273">
                    <g id="Grupo_81272" data-name="Grupo 81272">
                      <path id="Trazado_116826" data-name="Trazado 116826" d="M296.55,406.1l19.588-57.792a5.8,5.8,0,0,1,5.448-4.018h83.262a4.069,4.069,0,0,1,3.719,5.4L390.348,406.13Z" transform="translate(-296.55 -344.292)" fill="#ff725e"/>
                    </g>
                  </g>
                </g>
              </g>
            </g>
          </g>
          <g id="Grupo_81279" data-name="Grupo 81279" transform="translate(57.764 176.365)" opacity="0.3">
            <g id="Grupo_81278" data-name="Grupo 81278">
              <path id="Trazado_116827" data-name="Trazado 116827" d="M338.265,419.87s-3.143.143-4.593.242a42.778,42.778,0,0,1-20.231-3.588c-1.959-.873-4.032-2.105-4.624-4.167-.664-2.308.832-4.711,2.654-6.276s4.039-2.679,5.622-4.486,2.332-4.732.773-6.559l-.431.316c-1.127,2.854-4.264,4.23-6.861,5.863A24.212,24.212,0,0,0,300.408,414.5c-.915,2.992-1.158,6.482.656,9.031a11.245,11.245,0,0,0,5.475,3.608c6.3,2.336,13.031,2.424,19.749,2.431,2.123,0,8.637-.087,8.637-.087,2.048-.557,2.724-1.624,3.957-3.351C340.014,424.549,339.766,421.114,338.265,419.87Z" transform="translate(-299.707 -395.036)"/>
            </g>
          </g>
          <g id="Grupo_81288" data-name="Grupo 81288" transform="translate(41.785 174.988)">
            <g id="Grupo_81281" data-name="Grupo 81281">
              <g id="Grupo_81280" data-name="Grupo 81280">
                <path id="Trazado_116828" data-name="Trazado 116828" d="M324.543,418.688l-21.716-3.265-8.431-4.851a3.806,3.806,0,0,1-1.938-3.063l0-.072a3.851,3.851,0,0,1,2.386-3.676c2.675-1.127,6.912-2.626,8.719-5.792,2.6-4.55,0-5.494,0-5.494l-18.135,7.249-12.837,8.737-2.583,14.568,17.912,5.85s19.958,1.125,25.466.507,5.507-3.183,5.507-3.183c1.022-.32,3.09-2.135,3.09-3.827,2.672-2.507,2.563-3.69,2.563-3.69" transform="translate(-270.005 -392.476)" fill="#ffbe9d"/>
              </g>
            </g>
            <g id="Grupo_81284" data-name="Grupo 81284" transform="translate(26.762 32.477)">
              <g id="Grupo_81283" data-name="Grupo 81283">
                <g id="Grupo_81282" data-name="Grupo 81282">
                  <path id="Trazado_116829" data-name="Trazado 116829" d="M319.75,452.847a4.316,4.316,0,0,1,.895.171c.567.138,1.393.321,2.416.525a51.078,51.078,0,0,0,16.208.632c1.036-.124,1.873-.241,2.449-.335a4.307,4.307,0,0,1,.905-.1,4.346,4.346,0,0,1-.879.242c-.57.137-1.4.294-2.441.452a44.1,44.1,0,0,1-16.3-.635c-1.021-.238-1.841-.46-2.4-.641A4.3,4.3,0,0,1,319.75,452.847Z" transform="translate(-319.75 -452.842)" fill="#eb996e"/>
                </g>
              </g>
            </g>
            <g id="Grupo_81287" data-name="Grupo 81287" transform="translate(28.745 29.119)">
              <g id="Grupo_81286" data-name="Grupo 81286">
                <g id="Grupo_81285" data-name="Grupo 81285">
                  <path id="Trazado_116830" data-name="Trazado 116830" d="M323.435,446.607a4.5,4.5,0,0,1,.909.173c.576.14,1.414.322,2.454.522a52.675,52.675,0,0,0,8.209.907,55.724,55.724,0,0,0,8.254-.379c1.051-.126,1.9-.247,2.486-.342a4.49,4.49,0,0,1,.919-.1,4.43,4.43,0,0,1-.893.245c-.578.139-1.425.3-2.477.46a46.763,46.763,0,0,1-8.3.488,44.554,44.554,0,0,1-8.25-1.021c-1.039-.234-1.872-.456-2.439-.638A4.429,4.429,0,0,1,323.435,446.607Z" transform="translate(-323.435 -446.602)" fill="#eb996e"/>
                </g>
              </g>
            </g>
          </g>
        </g>
        <g id="Grupo_81350" data-name="Grupo 81350" transform="translate(141.58 63.371)">
          <g id="Grupo_81334" data-name="Grupo 81334">
            <g id="Grupo_81319" data-name="Grupo 81319" transform="translate(1.883)">
              <g id="Grupo_81306" data-name="Grupo 81306" transform="translate(0.138 0.143)">
                <g id="Grupo_81305" data-name="Grupo 81305">
                  <g id="Grupo_81294" data-name="Grupo 81294">
                    <g id="Grupo_81293" data-name="Grupo 81293">
                      <g id="Grupo_81292" data-name="Grupo 81292">
                        <g id="Grupo_81291" data-name="Grupo 81291">
                          <g id="Grupo_81290" data-name="Grupo 81290">
                            <path id="Trazado_116831" data-name="Trazado 116831" d="M514.264,245.547l-38.584,7.621a4.921,4.921,0,0,1-5.781-3.874L459.35,195.888a4.921,4.921,0,0,1,3.874-5.781l24.47-4.833,22.8,15.782,7.646,38.711A4.921,4.921,0,0,1,514.264,245.547Z" transform="translate(-459.256 -185.273)" fill="#ebebeb"/>
                          </g>
                        </g>
                      </g>
                    </g>
                  </g>
                  <g id="Grupo_81299" data-name="Grupo 81299" transform="translate(28.438)">
                    <g id="Grupo_81298" data-name="Grupo 81298">
                      <g id="Grupo_81297" data-name="Grupo 81297">
                        <g id="Grupo_81296" data-name="Grupo 81296">
                          <g id="Grupo_81295" data-name="Grupo 81295">
                            <path id="Trazado_116832" data-name="Trazado 116832" d="M512.116,185.273l2.969,15.031a4.577,4.577,0,0,0,5.377,3.6l14.453-2.852Z" transform="translate(-512.116 -185.273)" fill="#f5f5f5"/>
                          </g>
                        </g>
                      </g>
                    </g>
                  </g>
                  <g id="Grupo_81304" data-name="Grupo 81304" transform="translate(31.865 15.782)">
                    <g id="Grupo_81303" data-name="Grupo 81303">
                      <g id="Grupo_81302" data-name="Grupo 81302">
                        <g id="Grupo_81301" data-name="Grupo 81301">
                          <g id="Grupo_81300" data-name="Grupo 81300">
                            <path id="Trazado_116833" data-name="Trazado 116833" d="M518.485,215.137A5.089,5.089,0,0,0,523.4,219.2a4.765,4.765,0,0,0,.5.013c1.954-.036,14.813-.279,14.757-.564-.061-.309-.8-4.039-.8-4.039L523.4,217.463S519.771,218.052,518.485,215.137Z" transform="translate(-518.485 -214.608)" fill="#e0e0e0"/>
                          </g>
                        </g>
                      </g>
                    </g>
                  </g>
                </g>
              </g>
              <g id="Grupo_81312" data-name="Grupo 81312">
                <g id="Grupo_81311" data-name="Grupo 81311">
                  <g id="Grupo_81310" data-name="Grupo 81310">
                    <g id="Grupo_81309" data-name="Grupo 81309">
                      <g id="Grupo_81308" data-name="Grupo 81308">
                        <g id="Grupo_81307" data-name="Grupo 81307">
                          <path id="Trazado_116834" data-name="Trazado 116834" d="M514.146,245.425s.07-.024.208-.061a4.2,4.2,0,0,0,.608-.2,4.923,4.923,0,0,0,1.992-1.452,4.873,4.873,0,0,0,1.06-3.753c-.282-1.563-.666-3.364-1.063-5.382-1.609-8.081-3.911-19.648-6.692-33.623l.048.073L487.5,185.261l.1.021-14.119,2.793-7.386,1.46-1.874.37a12.587,12.587,0,0,0-1.844.435,4.783,4.783,0,0,0-2.671,2.5,4.716,4.716,0,0,0-.387,2.558c.136.866.336,1.753.5,2.624l1.029,5.209q1.02,5.173,2.009,10.185l3.794,19.255q.906,4.6,1.765,8.967.428,2.18.845,4.3.207,1.057.413,2.1a11.251,11.251,0,0,0,.492,2.017,4.813,4.813,0,0,0,4.725,2.963,18.212,18.212,0,0,0,1.911-.325l7.285-1.429,21.987-4.3,5.981-1.155,1.556-.293c.351-.065.532-.09.532-.09s-.178.045-.527.118l-1.551.321-5.97,1.206-21.97,4.385-7.281,1.447a18.407,18.407,0,0,1-1.94.334,4.988,4.988,0,0,1-2-.287,5.049,5.049,0,0,1-2.951-2.807,11.455,11.455,0,0,1-.508-2.061q-.207-1.04-.416-2.1-.42-2.114-.852-4.294l-1.777-8.965c-1.214-6.135-2.489-12.575-3.811-19.252q-.99-5.008-2.014-10.185l-1.029-5.209c-.166-.88-.362-1.739-.5-2.644a5,5,0,0,1,.41-2.708,5.063,5.063,0,0,1,2.828-2.648,12.763,12.763,0,0,1,1.888-.448l1.874-.37,7.387-1.458,14.121-2.785.055-.011.047.032,22.788,15.8.039.027.009.046c2.74,13.983,5.009,25.557,6.594,33.643.387,2.023.76,3.816,1.033,5.394a4.938,4.938,0,0,1-1.109,3.811,4.886,4.886,0,0,1-2.033,1.44,3.672,3.672,0,0,1-.617.182C514.218,245.413,514.146,245.425,514.146,245.425Z" transform="translate(-459 -185.008)" fill="#263238"/>
                        </g>
                      </g>
                    </g>
                  </g>
                </g>
              </g>
              <g id="Grupo_81318" data-name="Grupo 81318" transform="translate(28.573 0.143)">
                <g id="Grupo_81317" data-name="Grupo 81317">
                  <g id="Grupo_81316" data-name="Grupo 81316">
                    <g id="Grupo_81315" data-name="Grupo 81315">
                      <g id="Grupo_81314" data-name="Grupo 81314">
                        <g id="Grupo_81313" data-name="Grupo 81313">
                          <path id="Trazado_116835" data-name="Trazado 116835" d="M534.912,201.055a1.878,1.878,0,0,1-.365.1l-1.06.236-3.906.817-5.8,1.175-3.432.679a4.723,4.723,0,0,1-4.915-2.384,5.454,5.454,0,0,1-.573-1.793c-.232-1.189-.456-2.337-.669-3.431-.42-2.181-.8-4.148-1.117-5.813-.3-1.633-.551-2.965-.729-3.923l-.185-1.07a.19.19,0,1,1,.055-.011c.06.27.138.621.236,1.059l.817,3.906,1.176,5.8c.219,1.093.448,2.24.685,3.428a5.188,5.188,0,0,0,.549,1.712,4.462,4.462,0,0,0,4.625,2.247l3.428-.661,5.812-1.116,3.924-.729,1.07-.185A1.957,1.957,0,0,1,534.912,201.055Z" transform="translate(-512.111 -185.273)" fill="#263238"/>
                        </g>
                      </g>
                    </g>
                  </g>
                </g>
              </g>
            </g>
            <g id="Grupo_81321" data-name="Grupo 81321" transform="translate(12.022 13.694)">
              <g id="Grupo_81320" data-name="Grupo 81320">
                <path id="Trazado_116836" data-name="Trazado 116836" d="M498.2,210.467c.015.076-4.53,1.038-10.151,2.148s-10.191,1.949-10.206,1.873,4.529-1.037,10.152-2.148S498.188,210.391,498.2,210.467Z" transform="translate(-477.846 -210.462)" fill="#263238"/>
              </g>
            </g>
            <g id="Grupo_81323" data-name="Grupo 81323" transform="translate(13.503 19.286)">
              <g id="Grupo_81322" data-name="Grupo 81322">
                <path id="Trazado_116837" data-name="Trazado 116837" d="M510.614,220.859c.015.076-6.693,1.465-14.98,3.1s-15.021,2.9-15.036,2.827,6.692-1.464,14.982-3.1S510.6,220.783,510.614,220.859Z" transform="translate(-480.598 -220.856)" fill="#263238"/>
              </g>
            </g>
            <g id="Grupo_81325" data-name="Grupo 81325" transform="translate(14.984 26.784)">
              <g id="Grupo_81324" data-name="Grupo 81324">
                <path id="Trazado_116838" data-name="Trazado 116838" d="M513.367,234.8c.015.076-6.693,1.465-14.98,3.1s-15.021,2.9-15.036,2.827,6.691-1.464,14.982-3.1S513.352,234.72,513.367,234.8Z" transform="translate(-483.351 -234.793)" fill="#263238"/>
              </g>
            </g>
            <g id="Grupo_81327" data-name="Grupo 81327" transform="translate(16.465 34.282)">
              <g id="Grupo_81326" data-name="Grupo 81326">
                <path id="Trazado_116839" data-name="Trazado 116839" d="M486.1,254.662c-.015-.076,6.693-1.465,14.98-3.1s15.021-2.9,15.036-2.827-6.692,1.464-14.982,3.1S486.119,254.738,486.1,254.662Z" transform="translate(-486.104 -248.73)" fill="#263238"/>
              </g>
            </g>
            <g id="Grupo_81329" data-name="Grupo 81329" transform="translate(17.946 41.78)">
              <g id="Grupo_81328" data-name="Grupo 81328">
                <path id="Trazado_116840" data-name="Trazado 116840" d="M518.872,262.67c.014.076-6.693,1.464-14.98,3.1s-15.021,2.9-15.036,2.827,6.692-1.464,14.982-3.1S518.857,262.594,518.872,262.67Z" transform="translate(-488.856 -262.667)" fill="#263238"/>
              </g>
            </g>
            <g id="Grupo_81331" data-name="Grupo 81331" transform="translate(19.427 49.278)">
              <g id="Grupo_81330" data-name="Grupo 81330">
                <path id="Trazado_116841" data-name="Trazado 116841" d="M521.625,276.607c.015.076-6.693,1.464-14.98,3.1s-15.021,2.9-15.036,2.827,6.691-1.464,14.982-3.1S521.61,276.531,521.625,276.607Z" transform="translate(-491.609 -276.604)" fill="#263238"/>
              </g>
            </g>
            <g id="Grupo_81332" data-name="Grupo 81332" transform="translate(0 39.092)">
              <path id="Rectngulo_33937" data-name="Rectngulo 33937" d="M4.221,0H29.184a4.222,4.222,0,0,1,4.222,4.222v6.567a4.222,4.222,0,0,1-4.222,4.222H4.222A4.222,4.222,0,0,1,0,10.788V4.221A4.221,4.221,0,0,1,4.221,0Z" transform="matrix(0.981, -0.194, 0.194, 0.981, 0, 6.473)" fill="#ff725e"/>
            </g>
            <g id="Grupo_81333" data-name="Grupo 81333" transform="translate(8.978 45.454)">
              <path id="Trazado_116842" data-name="Trazado 116842" d="M472.187,275.16l2.527-.5a2.85,2.85,0,1,1,1.1,5.565l-2.527.5Zm3.354,4.02a1.761,1.761,0,1,0-.681-3.45l-1.177.232.682,3.45Z" transform="translate(-472.187 -271.844)" fill="#fff"/>
              <path id="Trazado_116843" data-name="Trazado 116843" d="M484.708,275.5a3.109,3.109,0,1,1,3.613,2.276A2.936,2.936,0,0,1,484.708,275.5Zm4.785-.945a1.775,1.775,0,1,0-1.389,2.125A1.731,1.731,0,0,0,489.494,274.555Z" transform="translate(-477.944 -270.63)" fill="#fff"/>
              <path id="Trazado_116844" data-name="Trazado 116844" d="M497.175,273.04a3.123,3.123,0,0,1,4.937-2.94l-.676.926a1.824,1.824,0,0,0-1.528-.375,1.815,1.815,0,1,0,.7,3.561,1.809,1.809,0,0,0,1.269-.936l.978.6a3.119,3.119,0,0,1-5.683-.836Z" transform="translate(-483.703 -269.495)" fill="#fff"/>
            </g>
          </g>
          <g id="Grupo_81349" data-name="Grupo 81349" transform="translate(45.669 18.367)">
            <g id="Grupo_81336" data-name="Grupo 81336" transform="translate(0.144 0.105)">
              <g id="Grupo_81335" data-name="Grupo 81335">
                <path id="Trazado_116845" data-name="Trazado 116845" d="M545.8,221.545s2.85-3.608,5.044-1.59,1.562,3.055-.525,6.244c0,0,4.658-.245,3.164,4.54,0,0,4.642-.513,4.2,3.4,0,0,3.505,3.43,1.682,5.64s-8.434,6.2-10.1,5.516-1.683-3.051-1.683-3.051a6.5,6.5,0,0,1-2.534-1.941c-.549-1.046.393-2.513.393-2.513s-1.675-1.711-2.09-2.189.227-2.7.227-2.7l2.674-2.594s-3.681,1.6-4.449.989-1.632-1.137-.811-2.25a37.284,37.284,0,0,1,3.741-3.6Z" transform="translate(-540.654 -219.341)" fill="#ffbe9d"/>
              </g>
            </g>
            <g id="Grupo_81339" data-name="Grupo 81339" transform="translate(7.436 14.902)">
              <g id="Grupo_81338" data-name="Grupo 81338">
                <g id="Grupo_81337" data-name="Grupo 81337">
                  <path id="Trazado_116846" data-name="Trazado 116846" d="M554.21,255.226a12.693,12.693,0,0,1,1.206-1.465,14.094,14.094,0,0,1,3.4-3.115,32.812,32.812,0,0,0,3.822-2.457,18.176,18.176,0,0,0,1.3-1.341,3.4,3.4,0,0,1-1.094,1.574,22.586,22.586,0,0,1-3.794,2.6,17.1,17.1,0,0,0-3.407,2.952A5.992,5.992,0,0,1,554.21,255.226Z" transform="translate(-554.208 -246.847)" fill="#eb996e"/>
                </g>
              </g>
            </g>
            <g id="Grupo_81342" data-name="Grupo 81342" transform="translate(4.856 11.496)">
              <g id="Grupo_81341" data-name="Grupo 81341">
                <g id="Grupo_81340" data-name="Grupo 81340">
                  <path id="Trazado_116847" data-name="Trazado 116847" d="M549.416,248.263a35.811,35.811,0,0,1,3.82-4.126c1.1-1.079,2.048-2.128,2.862-2.77a3.442,3.442,0,0,1,1.433-.846c.032.06-.5.384-1.226,1.082-.737.68-1.64,1.756-2.756,2.848A35.753,35.753,0,0,1,549.416,248.263Z" transform="translate(-549.413 -240.515)" fill="#eb996e"/>
                </g>
              </g>
            </g>
            <g id="Grupo_81345" data-name="Grupo 81345" transform="translate(5.731 6.754)">
              <g id="Grupo_81344" data-name="Grupo 81344">
                <g id="Grupo_81343" data-name="Grupo 81343">
                  <path id="Trazado_116848" data-name="Trazado 116848" d="M551.044,236.023a16.393,16.393,0,0,1,2.142-2.067,27.646,27.646,0,0,0,1.887-2.253,4.461,4.461,0,0,1-1.577,2.569A7.479,7.479,0,0,1,551.044,236.023Z" transform="translate(-551.039 -231.702)" fill="#eb996e"/>
                </g>
              </g>
            </g>
            <g id="Grupo_81348" data-name="Grupo 81348">
              <g id="Grupo_81347" data-name="Grupo 81347">
                <g id="Grupo_81346" data-name="Grupo 81346">
                  <path id="Trazado_116849" data-name="Trazado 116849" d="M545.678,221.442a1.173,1.173,0,0,1-.047.267c-.048.2-.109.449-.183.76-.181.7-.431,1.668-.749,2.9l-.007.027-.024.02c-.537.473-1.142,1.016-1.795,1.631a15.875,15.875,0,0,0-1.987,2.123,1.109,1.109,0,0,0-.2.674,1.066,1.066,0,0,0,.359.629,7.185,7.185,0,0,0,.656.542.992.992,0,0,0,.742.147,14.231,14.231,0,0,0,3.611-1.12l.862-.356-.665.65-2.664,2.6.04-.057a3.4,3.4,0,0,0-.137,2.708,7.556,7.556,0,0,0,2.108,2.148l.181.136-.146.172c-.582.687-.994,1.774-.234,2.444a9.88,9.88,0,0,0,2.524,1.727l-.313.174,0-.052s0-.024,0-.015v0c.055.065-.124-.154.128.189.6-.284.174-.117.3-.164h0v0l0,.1,0,.217a4.163,4.163,0,0,0,.04.438,3.421,3.421,0,0,0,.231.844,2.251,2.251,0,0,0,.473.709,1.331,1.331,0,0,0,.691.4,4.217,4.217,0,0,0,1.76-.347,15.65,15.65,0,0,0,1.749-.787,28.725,28.725,0,0,0,3.112-1.882,18.137,18.137,0,0,0,2.722-2.234,2.2,2.2,0,0,0,.707-1.4,3.407,3.407,0,0,0-.287-1.568,8.912,8.912,0,0,0-1.832-2.662l-.066-.069,0-.1a3.351,3.351,0,0,0-.158-1.53,2.27,2.27,0,0,0-.938-1.108,5.007,5.007,0,0,0-2.872-.55l-.267.017.064-.264c.07-.291.153-.578.213-.864a4.85,4.85,0,0,0,.067-.856,2.372,2.372,0,0,0-.48-1.514,3.491,3.491,0,0,0-2.773-1.086h-.312l.167-.253a25.97,25.97,0,0,0,1.5-2.447,3.6,3.6,0,0,0,.381-1.212,1.984,1.984,0,0,0-.239-1.128,5.041,5.041,0,0,0-1.464-1.591,2.149,2.149,0,0,0-1.742-.178,5.823,5.823,0,0,0-2.166,1.356c-.22.2-.376.365-.484.474a1.027,1.027,0,0,1-.168.161.746.746,0,0,1,.132-.193,6.626,6.626,0,0,1,.455-.51A7.138,7.138,0,0,1,547.1,220a4.424,4.424,0,0,1,1.345-.726,2.34,2.34,0,0,1,1.907.16l.446.326.4.386a4.6,4.6,0,0,1,.731.947,2.255,2.255,0,0,1,.287,1.274,3.862,3.862,0,0,1-.393,1.317,25.617,25.617,0,0,1-1.492,2.5l-.145-.252a4.859,4.859,0,0,1,1.624.232,3,3,0,0,1,1.447.96,2.737,2.737,0,0,1,.57,1.726,5.185,5.185,0,0,1-.066.929c-.061.3-.145.606-.219.914l-.2-.247a5.368,5.368,0,0,1,3.124.588,2.679,2.679,0,0,1,1.109,1.3,3.755,3.755,0,0,1,.19,1.726l-.061-.172a9.265,9.265,0,0,1,1.936,2.8,3.819,3.819,0,0,1,.322,1.773,2.743,2.743,0,0,1-.259.91,3.991,3.991,0,0,1-.56.747,18.417,18.417,0,0,1-2.789,2.3,28.965,28.965,0,0,1-3.16,1.914,15.938,15.938,0,0,1-1.8.808,4.528,4.528,0,0,1-1.979.369,2.2,2.2,0,0,1-1.5-1.369,3.845,3.845,0,0,1-.26-.953,4.591,4.591,0,0,1-.044-.485l0-.245.006-.129,0-.026v-.007c.131-.048-.3.118.306-.167.253.342.073.124.128.19v.018l0,.043-.005.063-.03.325-.284-.152a10.2,10.2,0,0,1-2.646-1.829,2.066,2.066,0,0,1-.453-.726,1.715,1.715,0,0,1-.036-.86,3.3,3.3,0,0,1,.726-1.424l.036.308a7.861,7.861,0,0,1-2.226-2.305,2.827,2.827,0,0,1-.246-1.58,5,5,0,0,1,.392-1.473l.013-.031.027-.026L546,230.081l.2.294a14.364,14.364,0,0,1-3.73,1.114,1.31,1.31,0,0,1-.961-.223,7.409,7.409,0,0,1-.677-.574,1.358,1.358,0,0,1-.436-.816,1.388,1.388,0,0,1,.255-.854,15.522,15.522,0,0,1,2.064-2.148c.667-.606,1.282-1.138,1.833-1.6l-.031.047.844-2.891.23-.742A1.014,1.014,0,0,1,545.678,221.442Z" transform="translate(-540.386 -219.147)" fill="#eb996e"/>
                </g>
              </g>
            </g>
          </g>
        </g>
      </g>
    </g>
    <g id="Files" transform="translate(64.355 72.654)">
      <g id="Grupo_81396" data-name="Grupo 81396" transform="translate(20.666 53.222)">
        <g id="Grupo_81381" data-name="Grupo 81381" transform="translate(7.303)">
          <g id="Grupo_81368" data-name="Grupo 81368" transform="translate(0.141 0.141)">
            <g id="Grupo_81367" data-name="Grupo 81367">
              <g id="Grupo_81356" data-name="Grupo 81356">
                <g id="Grupo_81355" data-name="Grupo 81355">
                  <g id="Grupo_81354" data-name="Grupo 81354">
                    <g id="Grupo_81353" data-name="Grupo 81353">
                      <g id="Grupo_81352" data-name="Grupo 81352">
                        <path id="Trazado_116850" data-name="Trazado 116850" d="M153.954,230.767h-33.2a4.154,4.154,0,0,1-4.153-4.154V180.666a4.154,4.154,0,0,1,4.153-4.154h21.053l16.3,16.8v33.3A4.154,4.154,0,0,1,153.954,230.767Z" transform="translate(-116.604 -176.512)" fill="#ebebeb"/>
                      </g>
                    </g>
                  </g>
                </g>
              </g>
              <g id="Grupo_81361" data-name="Grupo 81361" transform="translate(25.207)">
                <g id="Grupo_81360" data-name="Grupo 81360">
                  <g id="Grupo_81359" data-name="Grupo 81359">
                    <g id="Grupo_81358" data-name="Grupo 81358">
                      <g id="Grupo_81357" data-name="Grupo 81357">
                        <path id="Trazado_116851" data-name="Trazado 116851" d="M163.457,176.512v12.932a3.863,3.863,0,0,0,3.862,3.863l12.434,0Z" transform="translate(-163.457 -176.512)" fill="#f5f5f5"/>
                      </g>
                    </g>
                  </g>
                </g>
              </g>
              <g id="Grupo_81366" data-name="Grupo 81366" transform="translate(25.375 14.066)">
                <g id="Grupo_81365" data-name="Grupo 81365">
                  <g id="Grupo_81364" data-name="Grupo 81364">
                    <g id="Grupo_81363" data-name="Grupo 81363">
                      <g id="Grupo_81362" data-name="Grupo 81362">
                        <path id="Trazado_116852" data-name="Trazado 116852" d="M163.771,202.658a4.3,4.3,0,0,0,3.407,4.167,3.924,3.924,0,0,0,.408.092c1.624.291,12.311,2.192,12.311,1.946v-3.475H167.464S164.36,205.282,163.771,202.658Z" transform="translate(-163.77 -202.658)" fill="#e0e0e0"/>
                      </g>
                    </g>
                  </g>
                </g>
              </g>
            </g>
          </g>
          <g id="Grupo_81374" data-name="Grupo 81374">
            <g id="Grupo_81373" data-name="Grupo 81373">
              <g id="Grupo_81372" data-name="Grupo 81372">
                <g id="Grupo_81371" data-name="Grupo 81371">
                  <g id="Grupo_81370" data-name="Grupo 81370">
                    <g id="Grupo_81369" data-name="Grupo 81369">
                      <path id="Trazado_116853" data-name="Trazado 116853" d="M153.832,230.645c0-.019.249.005.717-.084a4.161,4.161,0,0,0,1.884-.877,4.107,4.107,0,0,0,1.488-2.93c.021-1.34,0-2.894,0-4.629-.012-6.957-.029-16.911-.049-28.936l.033.082-16.309-16.785.1.041-12.148,0h-7.967a10.68,10.68,0,0,0-1.595.059,4.016,4.016,0,0,0-2.607,1.626,3.959,3.959,0,0,0-.735,2.043c-.03.737-.009,1.506-.015,2.254q0,2.256,0,4.481,0,4.45,0,8.762c0,5.745-.005,11.286-.008,16.564q0,3.959-.006,7.714,0,1.875,0,3.7,0,.909,0,1.8a9.483,9.483,0,0,0,.076,1.748,4.051,4.051,0,0,0,1.881,2.671,4.006,4.006,0,0,0,1.532.541,15.4,15.4,0,0,0,1.633.043l6.266.009,18.909.045,5.141.026,1.337.013c.3,0,.456.015.456.015s-.154.01-.456.015l-1.337.013-5.141.026-18.909.045-6.266.009a15.49,15.49,0,0,1-1.663-.041,4.269,4.269,0,0,1-3.612-3.386,9.711,9.711,0,0,1-.084-1.793q0-.895,0-1.8,0-1.82,0-3.7,0-3.751-.006-7.714c0-5.279-.005-10.82-.008-16.564q0-4.309,0-8.762,0-2.225,0-4.481c.007-.756-.015-1.5.015-2.274a4.245,4.245,0,0,1,.787-2.186,4.3,4.3,0,0,1,2.789-1.739,10.781,10.781,0,0,1,1.64-.062h1.612l6.355,0,12.148,0h.057l.04.04,16.284,16.809.033.034v.047c-.02,12.025-.038,21.979-.049,28.936-.011,1.738,0,3.283-.029,4.636a4.172,4.172,0,0,1-1.546,2.978,4.12,4.12,0,0,1-1.922.858,3.1,3.1,0,0,1-.541.049C153.894,230.648,153.832,230.645,153.832,230.645Z" transform="translate(-116.342 -176.25)" fill="#263238"/>
                    </g>
                  </g>
                </g>
              </g>
            </g>
          </g>
          <g id="Grupo_81380" data-name="Grupo 81380" transform="translate(25.207 0.141)">
            <g id="Grupo_81379" data-name="Grupo 81379">
              <g id="Grupo_81378" data-name="Grupo 81378">
                <g id="Grupo_81377" data-name="Grupo 81377">
                  <g id="Grupo_81376" data-name="Grupo 81376">
                    <g id="Grupo_81375" data-name="Grupo 81375">
                      <path id="Trazado_116854" data-name="Trazado 116854" d="M179.633,193.309a1.353,1.353,0,0,1-.32.028l-.916.026-3.368.044-5,.029-2.954,0a4.007,4.007,0,0,1-3.7-2.793,4.613,4.613,0,0,1-.182-1.585c0-1.022.005-2.009.008-2.95.011-1.871.021-3.562.03-5,.019-1.394.034-2.536.045-3.368l.026-.915a1.367,1.367,0,0,1,.029-.32,1.392,1.392,0,0,1,.028.32c.007.239.016.543.026.915.011.833.026,1.974.045,3.368.009,1.433.019,3.124.03,5,0,.941,0,1.928.008,2.95a4.365,4.365,0,0,0,.173,1.5,3.745,3.745,0,0,0,3.442,2.6l2.946.014,5,.031,3.368.045.916.026A1.392,1.392,0,0,1,179.633,193.309Z" transform="translate(-163.195 -176.512)" fill="#263238"/>
                    </g>
                  </g>
                </g>
              </g>
            </g>
          </g>
        </g>
        <g id="Grupo_81383" data-name="Grupo 81383" transform="translate(14.509 11.54)">
          <g id="Grupo_81382" data-name="Grupo 81382">
            <path id="Trazado_116855" data-name="Trazado 116855" d="M147.25,197.84c0,.077-3.921.14-8.757.14s-8.757-.062-8.757-.14,3.92-.14,8.757-.14S147.25,197.763,147.25,197.84Z" transform="translate(-129.736 -197.7)" fill="#263238"/>
          </g>
        </g>
        <g id="Grupo_81385" data-name="Grupo 81385" transform="translate(14.509 17.991)">
          <g id="Grupo_81384" data-name="Grupo 81384">
            <path id="Trazado_116856" data-name="Trazado 116856" d="M155.56,209.831c0,.077-5.781.14-12.911.14s-12.912-.063-12.912-.14,5.78-.14,12.912-.14S155.56,209.753,155.56,209.831Z" transform="translate(-129.736 -209.691)" fill="#263238"/>
          </g>
        </g>
        <g id="Grupo_81387" data-name="Grupo 81387" transform="translate(14.509 24.442)">
          <g id="Grupo_81386" data-name="Grupo 81386">
            <path id="Trazado_116857" data-name="Trazado 116857" d="M155.56,221.821c0,.077-5.781.14-12.911.14s-12.912-.063-12.912-.14,5.78-.14,12.912-.14S155.56,221.744,155.56,221.821Z" transform="translate(-129.736 -221.681)" fill="#263238"/>
          </g>
        </g>
        <g id="Grupo_81389" data-name="Grupo 81389" transform="translate(14.509 30.893)">
          <g id="Grupo_81388" data-name="Grupo 81388">
            <path id="Trazado_116858" data-name="Trazado 116858" d="M155.56,233.812c0,.077-5.781.14-12.911.14s-12.912-.063-12.912-.14,5.78-.14,12.912-.14S155.56,233.734,155.56,233.812Z" transform="translate(-129.736 -233.672)" fill="#263238"/>
          </g>
        </g>
        <g id="Grupo_81391" data-name="Grupo 81391" transform="translate(14.509 37.343)">
          <g id="Grupo_81390" data-name="Grupo 81390">
            <path id="Trazado_116859" data-name="Trazado 116859" d="M155.56,245.8c0,.077-5.781.14-12.911.14s-12.912-.063-12.912-.14,5.78-.14,12.912-.14S155.56,245.725,155.56,245.8Z" transform="translate(-129.736 -245.662)" fill="#263238"/>
          </g>
        </g>
        <g id="Grupo_81393" data-name="Grupo 81393" transform="translate(14.509 43.794)">
          <g id="Grupo_81392" data-name="Grupo 81392">
            <path id="Trazado_116860" data-name="Trazado 116860" d="M155.56,257.793c0,.077-5.781.14-12.911.14s-12.912-.062-12.912-.14,5.78-.14,12.912-.14S155.56,257.715,155.56,257.793Z" transform="translate(-129.736 -257.653)" fill="#263238"/>
          </g>
        </g>
        <g id="Grupo_81394" data-name="Grupo 81394" transform="translate(0 32.771)">
          <path id="Rectngulo_33938" data-name="Rectngulo 33938" d="M4.222,0H23.974A4.222,4.222,0,0,1,28.2,4.222V8.447a4.221,4.221,0,0,1-4.221,4.221H4.222A4.222,4.222,0,0,1,0,8.447V4.222A4.222,4.222,0,0,1,4.222,0Z" fill="#ff725e"/>
        </g>
        <g id="Grupo_81395" data-name="Grupo 81395" transform="translate(6.889 36.896)">
          <path id="Trazado_116861" data-name="Trazado 116861" d="M119.723,246.567c0,1.067-.8,1.73-2.079,1.73h-.964v1.32h-1.108V244.83h2.072C118.923,244.83,119.723,245.493,119.723,246.567Zm-1.122,0c0-.526-.342-.834-1.019-.834h-.9v1.662h.9C118.26,247.395,118.6,247.086,118.6,246.567Z" transform="translate(-115.572 -244.83)" fill="#fff"/>
          <path id="Trazado_116862" data-name="Trazado 116862" d="M124.748,244.83h2.175a2.4,2.4,0,1,1,0,4.787h-2.175Zm2.12,3.877a1.486,1.486,0,1,0,0-2.968h-1.012v2.968Z" transform="translate(-119.811 -244.83)" fill="#fff"/>
          <path id="Trazado_116863" data-name="Trazado 116863" d="M136.353,245.719v1.265h2.215v.889h-2.215v1.744h-1.108V244.83h3.617v.889Z" transform="translate(-124.661 -244.83)" fill="#fff"/>
        </g>
      </g>
      <g id="Grupo_81441" data-name="Grupo 81441" transform="translate(0 129.512)">
        <g id="Grupo_81426" data-name="Grupo 81426" transform="translate(7.223)">
          <g id="Grupo_81413" data-name="Grupo 81413" transform="translate(0.142 0.141)">
            <g id="Grupo_81412" data-name="Grupo 81412">
              <g id="Grupo_81401" data-name="Grupo 81401">
                <g id="Grupo_81400" data-name="Grupo 81400">
                  <g id="Grupo_81399" data-name="Grupo 81399">
                    <g id="Grupo_81398" data-name="Grupo 81398">
                      <g id="Grupo_81397" data-name="Grupo 81397">
                        <path id="Trazado_116864" data-name="Trazado 116864" d="M114.995,371.993H82.153a4.109,4.109,0,0,1-4.109-4.109V322.427a4.109,4.109,0,0,1,4.109-4.11h20.828L119.1,334.935v32.949A4.109,4.109,0,0,1,114.995,371.993Z" transform="translate(-78.044 -318.317)" fill="#ebebeb"/>
                      </g>
                    </g>
                  </g>
                </g>
              </g>
              <g id="Grupo_81406" data-name="Grupo 81406" transform="translate(24.937)">
                <g id="Grupo_81405" data-name="Grupo 81405">
                  <g id="Grupo_81404" data-name="Grupo 81404">
                    <g id="Grupo_81403" data-name="Grupo 81403">
                      <g id="Grupo_81402" data-name="Grupo 81402">
                        <path id="Trazado_116865" data-name="Trazado 116865" d="M124.4,318.317v12.794a3.823,3.823,0,0,0,3.821,3.822l12.3,0Z" transform="translate(-124.396 -318.317)" fill="#f5f5f5"/>
                      </g>
                    </g>
                  </g>
                </g>
              </g>
              <g id="Grupo_81411" data-name="Grupo 81411" transform="translate(25.104 13.916)">
                <g id="Grupo_81410" data-name="Grupo 81410">
                  <g id="Grupo_81409" data-name="Grupo 81409">
                    <g id="Grupo_81408" data-name="Grupo 81408">
                      <g id="Grupo_81407" data-name="Grupo 81407">
                        <path id="Trazado_116866" data-name="Trazado 116866" d="M124.707,344.184a4.249,4.249,0,0,0,3.371,4.123,3.972,3.972,0,0,0,.4.091c1.606.287,12.18,2.168,12.18,1.925v-3.438h-12.3S125.289,346.78,124.707,344.184Z" transform="translate(-124.706 -344.184)" fill="#e0e0e0"/>
                      </g>
                    </g>
                  </g>
                </g>
              </g>
            </g>
          </g>
          <g id="Grupo_81419" data-name="Grupo 81419">
            <g id="Grupo_81418" data-name="Grupo 81418">
              <g id="Grupo_81417" data-name="Grupo 81417">
                <g id="Grupo_81416" data-name="Grupo 81416">
                  <g id="Grupo_81415" data-name="Grupo 81415">
                    <g id="Grupo_81414" data-name="Grupo 81414">
                      <path id="Trazado_116867" data-name="Trazado 116867" d="M114.873,371.872c0-.019.246,0,.71-.084a4.112,4.112,0,0,0,1.864-.868,4.062,4.062,0,0,0,1.471-2.9c.021-1.325,0-2.863,0-4.58-.012-6.883-.029-16.73-.049-28.627l.033.081L102.763,318.29l.1.041-12.019,0H82.958a10.587,10.587,0,0,0-1.577.058A3.971,3.971,0,0,0,78.8,320a3.915,3.915,0,0,0-.727,2.021c-.029.728-.008,1.49-.015,2.229v4.434l0,8.669-.008,16.388-.006,7.631,0,3.656,0,1.785a9.423,9.423,0,0,0,.076,1.729,4,4,0,0,0,3.375,3.177,15.2,15.2,0,0,0,1.616.043l6.2.009,18.707.044,5.086.026,1.322.014c.3,0,.451.015.451.015s-.153.01-.451.014l-1.322.014-5.086.026-18.707.045-6.2.009a15.322,15.322,0,0,1-1.646-.041,4.189,4.189,0,0,1-1.6-.561,4.233,4.233,0,0,1-1.972-2.789,9.65,9.65,0,0,1-.084-1.774l0-1.785,0-3.656-.006-7.631-.008-16.388,0-8.669v-4.434c.006-.748-.016-1.481.015-2.249a4.2,4.2,0,0,1,.778-2.164,4.253,4.253,0,0,1,2.76-1.721,10.682,10.682,0,0,1,1.623-.062h7.882l12.019,0h.057l.039.041,16.11,16.629.033.034v.047c-.02,11.9-.038,21.744-.049,28.627-.011,1.72,0,3.248-.029,4.587a4.132,4.132,0,0,1-1.53,2.947,4.075,4.075,0,0,1-1.9.849,3.078,3.078,0,0,1-.535.048C114.934,371.874,114.873,371.872,114.873,371.872Z" transform="translate(-77.781 -318.055)" fill="#263238"/>
                    </g>
                  </g>
                </g>
              </g>
            </g>
          </g>
          <g id="Grupo_81425" data-name="Grupo 81425" transform="translate(24.938 0.141)">
            <g id="Grupo_81424" data-name="Grupo 81424">
              <g id="Grupo_81423" data-name="Grupo 81423">
                <g id="Grupo_81422" data-name="Grupo 81422">
                  <g id="Grupo_81421" data-name="Grupo 81421">
                    <g id="Grupo_81420" data-name="Grupo 81420">
                      <path id="Trazado_116868" data-name="Trazado 116868" d="M140.4,334.935a1.327,1.327,0,0,1-.316.028l-.906.026-3.332.044-4.942.029-2.922,0a3.965,3.965,0,0,1-3.662-2.764,4.571,4.571,0,0,1-.18-1.568c0-1.011.005-1.988.008-2.919.011-1.851.022-3.524.03-4.942.018-1.379.033-2.508.044-3.332.011-.368.02-.668.026-.906a1.343,1.343,0,0,1,.029-.316,1.37,1.37,0,0,1,.028.316c.007.238.016.538.026.906.011.825.026,1.953.045,3.332.009,1.418.019,3.091.03,4.942,0,.931.005,1.908.008,2.919a4.32,4.32,0,0,0,.172,1.484,3.7,3.7,0,0,0,3.4,2.573l2.914.014,4.942.031,3.332.045.906.027A1.359,1.359,0,0,1,140.4,334.935Z" transform="translate(-124.135 -318.317)" fill="#263238"/>
                    </g>
                  </g>
                </g>
              </g>
            </g>
          </g>
        </g>
        <g id="Grupo_81428" data-name="Grupo 81428" transform="translate(14.354 11.417)">
          <g id="Grupo_81427" data-name="Grupo 81427">
            <path id="Trazado_116869" data-name="Trazado 116869" d="M108.363,339.417c0,.077-3.879.14-8.663.14s-8.664-.062-8.664-.14,3.878-.14,8.664-.14S108.363,339.339,108.363,339.417Z" transform="translate(-91.035 -339.277)" fill="#263238"/>
          </g>
        </g>
        <g id="Grupo_81430" data-name="Grupo 81430" transform="translate(14.354 17.799)">
          <g id="Grupo_81429" data-name="Grupo 81429">
            <path id="Trazado_116870" data-name="Trazado 116870" d="M116.583,351.279c0,.077-5.719.14-12.774.14s-12.775-.063-12.775-.14,5.718-.14,12.775-.14S116.583,351.2,116.583,351.279Z" transform="translate(-91.035 -351.139)" fill="#263238"/>
          </g>
        </g>
        <g id="Grupo_81432" data-name="Grupo 81432" transform="translate(14.354 24.181)">
          <g id="Grupo_81431" data-name="Grupo 81431">
            <path id="Trazado_116871" data-name="Trazado 116871" d="M116.583,363.142c0,.077-5.719.14-12.774.14s-12.775-.062-12.775-.14,5.718-.14,12.775-.14S116.583,363.064,116.583,363.142Z" transform="translate(-91.035 -363.002)" fill="#263238"/>
          </g>
        </g>
        <g id="Grupo_81434" data-name="Grupo 81434" transform="translate(14.354 30.563)">
          <g id="Grupo_81433" data-name="Grupo 81433">
            <path id="Trazado_116872" data-name="Trazado 116872" d="M116.583,375c0,.078-5.719.14-12.774.14s-12.775-.063-12.775-.14,5.718-.14,12.775-.14S116.583,374.927,116.583,375Z" transform="translate(-91.035 -374.864)" fill="#263238"/>
          </g>
        </g>
        <g id="Grupo_81436" data-name="Grupo 81436" transform="translate(14.354 36.945)">
          <g id="Grupo_81435" data-name="Grupo 81435">
            <path id="Trazado_116873" data-name="Trazado 116873" d="M116.583,386.867c0,.077-5.719.14-12.774.14s-12.775-.062-12.775-.14,5.718-.14,12.775-.14S116.583,386.789,116.583,386.867Z" transform="translate(-91.035 -386.727)" fill="#263238"/>
          </g>
        </g>
        <g id="Grupo_81438" data-name="Grupo 81438" transform="translate(14.354 43.327)">
          <g id="Grupo_81437" data-name="Grupo 81437">
            <path id="Trazado_116874" data-name="Trazado 116874" d="M116.583,398.729c0,.077-5.719.14-12.774.14s-12.775-.063-12.775-.14,5.718-.14,12.775-.14S116.583,398.652,116.583,398.729Z" transform="translate(-91.035 -398.589)" fill="#263238"/>
          </g>
        </g>
        <g id="Grupo_81439" data-name="Grupo 81439" transform="translate(0 32.422)">
          <path id="Rectngulo_33939" data-name="Rectngulo 33939" d="M4.221,0H23.673a4.221,4.221,0,0,1,4.221,4.221V8.312a4.222,4.222,0,0,1-4.222,4.222H4.222A4.222,4.222,0,0,1,0,8.312V4.221A4.221,4.221,0,0,1,4.221,0Z" fill="#ff725e"/>
        </g>
        <g id="Grupo_81440" data-name="Grupo 81440" transform="translate(6.814 36.506)">
          <path id="Trazado_116875" data-name="Trazado 116875" d="M81.126,387.629c0,1.055-.791,1.711-2.056,1.711h-.954v1.306h-1.1v-4.735h2.05C80.335,385.911,81.126,386.567,81.126,387.629Zm-1.11,0c0-.521-.338-.825-1.008-.825h-.893v1.644h.893C79.678,388.448,80.016,388.143,80.016,387.629Z" transform="translate(-77.02 -385.911)" fill="#fff"/>
          <path id="Trazado_116876" data-name="Trazado 116876" d="M90.2,387.629c0,1.055-.791,1.711-2.056,1.711h-.954v1.306H86.1v-4.735h2.05C89.412,385.911,90.2,386.567,90.2,387.629Zm-1.109,0c0-.521-.338-.825-1.008-.825h-.893v1.644h.893C88.756,388.448,89.094,388.143,89.094,387.629Z" transform="translate(-81.214 -385.911)" fill="#fff"/>
          <path id="Trazado_116877" data-name="Trazado 116877" d="M95.458,386.8H93.943v-.893h4.126v.893H96.554v3.842h-1.1Z" transform="translate(-84.839 -385.911)" fill="#fff"/>
        </g>
      </g>
      <g id="Grupo_81486" data-name="Grupo 81486" transform="translate(64.858)">
        <g id="Grupo_81471" data-name="Grupo 81471" transform="translate(7.176)">
          <g id="Grupo_81458" data-name="Grupo 81458" transform="translate(0.141 0.141)">
            <g id="Grupo_81457" data-name="Grupo 81457">
              <g id="Grupo_81446" data-name="Grupo 81446">
                <g id="Grupo_81445" data-name="Grupo 81445">
                  <g id="Grupo_81444" data-name="Grupo 81444">
                    <g id="Grupo_81443" data-name="Grupo 81443">
                      <g id="Grupo_81442" data-name="Grupo 81442">
                        <path id="Trazado_116878" data-name="Trazado 116878" d="M235.227,130.919H202.595a4.082,4.082,0,0,1-4.083-4.083V81.669a4.083,4.083,0,0,1,4.083-4.083h20.7L239.31,94.1v32.739A4.083,4.083,0,0,1,235.227,130.919Z" transform="translate(-198.512 -77.586)" fill="#ebebeb"/>
                      </g>
                    </g>
                  </g>
                </g>
              </g>
              <g id="Grupo_81451" data-name="Grupo 81451" transform="translate(24.778)">
                <g id="Grupo_81450" data-name="Grupo 81450">
                  <g id="Grupo_81449" data-name="Grupo 81449">
                    <g id="Grupo_81448" data-name="Grupo 81448">
                      <g id="Grupo_81447" data-name="Grupo 81447">
                        <path id="Trazado_116879" data-name="Trazado 116879" d="M244.569,77.586V90.3a3.8,3.8,0,0,0,3.8,3.8l12.223,0Z" transform="translate(-244.569 -77.586)" fill="#f5f5f5"/>
                      </g>
                    </g>
                  </g>
                </g>
              </g>
              <g id="Grupo_81456" data-name="Grupo 81456" transform="translate(24.944 13.828)">
                <g id="Grupo_81455" data-name="Grupo 81455">
                  <g id="Grupo_81454" data-name="Grupo 81454">
                    <g id="Grupo_81453" data-name="Grupo 81453">
                      <g id="Grupo_81452" data-name="Grupo 81452">
                        <path id="Trazado_116880" data-name="Trazado 116880" d="M244.878,103.288a4.222,4.222,0,0,0,3.349,4.1,4.091,4.091,0,0,0,.4.09c1.6.285,12.1,2.154,12.1,1.913v-3.416H248.508S245.456,105.868,244.878,103.288Z" transform="translate(-244.877 -103.288)" fill="#e0e0e0"/>
                      </g>
                    </g>
                  </g>
                </g>
              </g>
            </g>
          </g>
          <g id="Grupo_81464" data-name="Grupo 81464">
            <g id="Grupo_81463" data-name="Grupo 81463">
              <g id="Grupo_81462" data-name="Grupo 81462">
                <g id="Grupo_81461" data-name="Grupo 81461">
                  <g id="Grupo_81460" data-name="Grupo 81460">
                    <g id="Grupo_81459" data-name="Grupo 81459">
                      <path id="Trazado_116881" data-name="Trazado 116881" d="M235.105,130.8c0-.019.245.005.705-.083a4.09,4.09,0,0,0,1.851-.863,4.037,4.037,0,0,0,1.462-2.88c.02-1.317,0-2.845,0-4.551-.012-6.839-.029-16.623-.05-28.444l.033.081-16.032-16.5.1.041-11.942,0H203.4a10.455,10.455,0,0,0-1.567.058,3.944,3.944,0,0,0-2.561,1.6,3.888,3.888,0,0,0-.722,2.007c-.029.724-.008,1.48-.015,2.215q0,2.218,0,4.406,0,4.375,0,8.614c0,5.647-.005,11.094-.008,16.283q0,3.891-.006,7.583,0,1.844,0,3.633,0,.894,0,1.774a9.394,9.394,0,0,0,.075,1.718,3.979,3.979,0,0,0,1.848,2.624,3.938,3.938,0,0,0,1.505.532,15.146,15.146,0,0,0,1.605.042l6.16.009,18.588.045,5.053.026,1.314.014c.3,0,.448.014.448.014s-.152.01-.448.015l-1.314.014-5.053.026L209.7,130.9l-6.16.009a15.117,15.117,0,0,1-1.635-.04,4.168,4.168,0,0,1-1.592-.557,4.211,4.211,0,0,1-1.96-2.772,9.527,9.527,0,0,1-.083-1.763q0-.88,0-1.774,0-1.788,0-3.633,0-3.687-.006-7.583c0-5.189-.005-10.636-.008-16.283q0-4.236,0-8.614,0-2.187,0-4.406c.006-.744-.015-1.471.015-2.234a4.169,4.169,0,0,1,.773-2.151,4.226,4.226,0,0,1,2.743-1.71,10.625,10.625,0,0,1,1.613-.061h7.832l11.942,0h.057l.04.041L239.273,93.9l.033.034v.047c-.02,11.821-.038,21.605-.049,28.444-.011,1.709,0,3.228-.029,4.558a4.1,4.1,0,0,1-1.52,2.928,4.054,4.054,0,0,1-1.889.844,3.074,3.074,0,0,1-.532.047C235.166,130.8,235.105,130.8,235.105,130.8Z" transform="translate(-198.249 -77.324)" fill="#263238"/>
                    </g>
                  </g>
                </g>
              </g>
            </g>
          </g>
          <g id="Grupo_81470" data-name="Grupo 81470" transform="translate(24.779 0.141)">
            <g id="Grupo_81469" data-name="Grupo 81469">
              <g id="Grupo_81468" data-name="Grupo 81468">
                <g id="Grupo_81467" data-name="Grupo 81467">
                  <g id="Grupo_81466" data-name="Grupo 81466">
                    <g id="Grupo_81465" data-name="Grupo 81465">
                      <path id="Trazado_116882" data-name="Trazado 116882" d="M260.468,94.1a1.35,1.35,0,0,1-.314.028l-.9.026-3.311.044-4.911.029-2.9,0a3.941,3.941,0,0,1-3.639-2.747,4.567,4.567,0,0,1-.179-1.559c0-1,.006-1.975.009-2.9.011-1.839.021-3.5.03-4.911.019-1.369.034-2.491.045-3.311.011-.365.019-.663.026-.9a1.323,1.323,0,0,1,.029-.314,1.348,1.348,0,0,1,.028.314c.007.237.016.535.026.9.011.82.026,1.942.045,3.311.009,1.41.019,3.071.03,4.911,0,.926,0,1.9.008,2.9a4.279,4.279,0,0,0,.171,1.475,3.678,3.678,0,0,0,3.381,2.556l2.9.014,4.911.031,3.311.045.9.026A1.325,1.325,0,0,1,260.468,94.1Z" transform="translate(-244.307 -77.586)" fill="#263238"/>
                    </g>
                  </g>
                </g>
              </g>
            </g>
          </g>
        </g>
        <g id="Grupo_81473" data-name="Grupo 81473" transform="translate(14.262 11.344)">
          <g id="Grupo_81472" data-name="Grupo 81472">
            <path id="Trazado_116883" data-name="Trazado 116883" d="M228.638,98.55c0,.077-3.855.14-8.608.14s-8.608-.063-8.608-.14,3.854-.14,8.608-.14S228.638,98.473,228.638,98.55Z" transform="translate(-211.421 -98.41)" fill="#263238"/>
          </g>
        </g>
        <g id="Grupo_81475" data-name="Grupo 81475" transform="translate(14.262 17.685)">
          <g id="Grupo_81474" data-name="Grupo 81474">
            <path id="Trazado_116884" data-name="Trazado 116884" d="M236.806,110.337c0,.077-5.683.14-12.692.14s-12.693-.063-12.693-.14,5.682-.14,12.693-.14S236.806,110.259,236.806,110.337Z" transform="translate(-211.421 -110.197)" fill="#263238"/>
          </g>
        </g>
        <g id="Grupo_81477" data-name="Grupo 81477" transform="translate(14.262 24.027)">
          <g id="Grupo_81476" data-name="Grupo 81476">
            <path id="Trazado_116885" data-name="Trazado 116885" d="M236.806,122.124c0,.077-5.683.14-12.692.14s-12.693-.063-12.693-.14,5.682-.14,12.693-.14S236.806,122.046,236.806,122.124Z" transform="translate(-211.421 -121.984)" fill="#263238"/>
          </g>
        </g>
        <g id="Grupo_81479" data-name="Grupo 81479" transform="translate(14.262 30.368)">
          <g id="Grupo_81478" data-name="Grupo 81478">
            <path id="Trazado_116886" data-name="Trazado 116886" d="M236.806,133.911c0,.077-5.683.14-12.692.14s-12.693-.062-12.693-.14,5.682-.14,12.693-.14S236.806,133.833,236.806,133.911Z" transform="translate(-211.421 -133.771)" fill="#263238"/>
          </g>
        </g>
        <g id="Grupo_81481" data-name="Grupo 81481" transform="translate(14.262 36.709)">
          <g id="Grupo_81480" data-name="Grupo 81480">
            <path id="Trazado_116887" data-name="Trazado 116887" d="M236.806,145.7c0,.077-5.683.14-12.692.14s-12.693-.062-12.693-.14,5.682-.14,12.693-.14S236.806,145.62,236.806,145.7Z" transform="translate(-211.421 -145.557)" fill="#263238"/>
          </g>
        </g>
        <g id="Grupo_81483" data-name="Grupo 81483" transform="translate(14.262 43.05)">
          <g id="Grupo_81482" data-name="Grupo 81482">
            <path id="Trazado_116888" data-name="Trazado 116888" d="M236.806,157.484c0,.077-5.683.14-12.692.14s-12.693-.063-12.693-.14,5.682-.14,12.693-.14S236.806,157.407,236.806,157.484Z" transform="translate(-211.421 -157.344)" fill="#263238"/>
          </g>
        </g>
        <g id="Grupo_81484" data-name="Grupo 81484" transform="translate(0 32.216)">
          <path id="Rectngulo_33940" data-name="Rectngulo 33940" d="M4.221,0H23.5a4.221,4.221,0,0,1,4.221,4.221V8.232A4.221,4.221,0,0,1,23.5,12.454H4.222A4.222,4.222,0,0,1,0,8.232V4.221A4.221,4.221,0,0,1,4.221,0Z" fill="#ff725e"/>
        </g>
        <g id="Grupo_81485" data-name="Grupo 81485" transform="translate(6.237 36.185)">
          <path id="Trazado_116889" data-name="Trazado 116889" d="M200.007,149.44l-1.136-1.634-1.116,1.634H196.5l1.741-2.394-1.654-2.313h1.237l1.082,1.526,1.063-1.526h1.177l-1.641,2.272,1.755,2.434Z" transform="translate(-196.504 -144.653)" fill="#fff"/>
          <path id="Trazado_116890" data-name="Trazado 116890" d="M206.149,144.734h1.089v3.819h2.36v.888h-3.449Z" transform="translate(-200.96 -144.653)" fill="#fff"/>
          <path id="Trazado_116891" data-name="Trazado 116891" d="M212.958,148.907l.37-.82a2.769,2.769,0,0,0,1.553.491c.646,0,.908-.215.908-.5,0-.881-2.737-.276-2.737-2.024,0-.8.646-1.465,1.984-1.465a3.159,3.159,0,0,1,1.634.417l-.336.827a2.655,2.655,0,0,0-1.3-.37c-.646,0-.894.243-.894.538,0,.868,2.736.269,2.736,2,0,.787-.652,1.459-2,1.459A3.352,3.352,0,0,1,212.958,148.907Z" transform="translate(-204.106 -144.584)" fill="#fff"/>
        </g>
      </g>
      <g id="Grupo_81531" data-name="Grupo 81531" transform="translate(266.001 135.381)">
        <g id="Grupo_81516" data-name="Grupo 81516" transform="translate(7.293)">
          <g id="Grupo_81503" data-name="Grupo 81503" transform="translate(0.141 0.141)">
            <g id="Grupo_81502" data-name="Grupo 81502">
              <g id="Grupo_81491" data-name="Grupo 81491">
                <g id="Grupo_81490" data-name="Grupo 81490">
                  <g id="Grupo_81489" data-name="Grupo 81489">
                    <g id="Grupo_81488" data-name="Grupo 81488">
                      <g id="Grupo_81487" data-name="Grupo 81487">
                        <path id="Trazado_116892" data-name="Trazado 116892" d="M609.9,383.41H576.751a4.148,4.148,0,0,1-4.148-4.148V333.375a4.148,4.148,0,0,1,4.148-4.148h21.025L614.052,346v33.26A4.148,4.148,0,0,1,609.9,383.41Z" transform="translate(-572.603 -329.227)" fill="#ebebeb"/>
                      </g>
                    </g>
                  </g>
                </g>
              </g>
              <g id="Grupo_81496" data-name="Grupo 81496" transform="translate(25.173)">
                <g id="Grupo_81495" data-name="Grupo 81495">
                  <g id="Grupo_81494" data-name="Grupo 81494">
                    <g id="Grupo_81493" data-name="Grupo 81493">
                      <g id="Grupo_81492" data-name="Grupo 81492">
                        <path id="Trazado_116893" data-name="Trazado 116893" d="M619.394,329.227v12.914A3.858,3.858,0,0,0,623.251,346l12.418,0Z" transform="translate(-619.394 -329.227)" fill="#f5f5f5"/>
                      </g>
                    </g>
                  </g>
                </g>
              </g>
              <g id="Grupo_81501" data-name="Grupo 81501" transform="translate(25.342 14.048)">
                <g id="Grupo_81500" data-name="Grupo 81500">
                  <g id="Grupo_81499" data-name="Grupo 81499">
                    <g id="Grupo_81498" data-name="Grupo 81498">
                      <g id="Grupo_81497" data-name="Grupo 81497">
                        <path id="Trazado_116894" data-name="Trazado 116894" d="M619.708,355.338a4.29,4.29,0,0,0,3.4,4.162,3.905,3.905,0,0,0,.408.092c1.622.29,12.3,2.189,12.3,1.943v-3.47H623.4S620.3,357.959,619.708,355.338Z" transform="translate(-619.707 -355.338)" fill="#e0e0e0"/>
                      </g>
                    </g>
                  </g>
                </g>
              </g>
            </g>
          </g>
          <g id="Grupo_81509" data-name="Grupo 81509">
            <g id="Grupo_81508" data-name="Grupo 81508">
              <g id="Grupo_81507" data-name="Grupo 81507">
                <g id="Grupo_81506" data-name="Grupo 81506">
                  <g id="Grupo_81505" data-name="Grupo 81505">
                    <g id="Grupo_81504" data-name="Grupo 81504">
                      <path id="Trazado_116895" data-name="Trazado 116895" d="M609.783,383.289c0-.019.249.005.716-.084a4.154,4.154,0,0,0,1.881-.876,4.1,4.1,0,0,0,1.485-2.926c.021-1.338,0-2.891,0-4.624-.012-6.947-.029-16.888-.05-28.9l.033.081L597.559,329.2l.1.041-12.132,0h-7.956a10.574,10.574,0,0,0-1.592.059,4.012,4.012,0,0,0-2.6,1.623,3.959,3.959,0,0,0-.734,2.041c-.029.735-.008,1.5-.015,2.25q0,2.253,0,4.476,0,4.444,0,8.75c0,5.737-.006,11.271-.008,16.543q0,3.953-.006,7.7,0,1.873,0,3.69,0,.909,0,1.8a9.557,9.557,0,0,0,.076,1.745,4.045,4.045,0,0,0,1.878,2.667,4,4,0,0,0,1.53.54,15.36,15.36,0,0,0,1.632.044l6.258.009,18.884.044,5.134.026,1.335.014c.3,0,.455.015.455.015s-.154.01-.455.014l-1.335.014-5.134.026-18.884.045-6.258.009a15.448,15.448,0,0,1-1.661-.041,4.227,4.227,0,0,1-1.617-.566,4.272,4.272,0,0,1-1.99-2.815,9.689,9.689,0,0,1-.085-1.79q0-.894,0-1.8,0-1.817,0-3.69,0-3.746-.006-7.7c0-5.272-.005-10.806-.009-16.543q0-4.3,0-8.75,0-2.222,0-4.476c.007-.755-.015-1.5.016-2.27a4.237,4.237,0,0,1,.785-2.184,4.293,4.293,0,0,1,2.786-1.737,10.815,10.815,0,0,1,1.638-.062h7.956l12.132,0h.057l.039.041L614.015,345.8l.033.034v.047c-.02,12.009-.038,21.95-.049,28.9-.011,1.737,0,3.28-.029,4.63a4.167,4.167,0,0,1-1.544,2.975,4.116,4.116,0,0,1-1.92.857,3.094,3.094,0,0,1-.54.049C609.844,383.292,609.783,383.289,609.783,383.289Z" transform="translate(-572.341 -328.965)" fill="#263238"/>
                    </g>
                  </g>
                </g>
              </g>
            </g>
          </g>
          <g id="Grupo_81515" data-name="Grupo 81515" transform="translate(25.174 0.141)">
            <g id="Grupo_81514" data-name="Grupo 81514">
              <g id="Grupo_81513" data-name="Grupo 81513">
                <g id="Grupo_81512" data-name="Grupo 81512">
                  <g id="Grupo_81511" data-name="Grupo 81511">
                    <g id="Grupo_81510" data-name="Grupo 81510">
                      <path id="Trazado_116896" data-name="Trazado 116896" d="M635.549,346a1.39,1.39,0,0,1-.319.028l-.915.026-3.364.044-4.989.03-2.95,0a4,4,0,0,1-3.695-2.789,4.627,4.627,0,0,1-.182-1.583c0-1.021.005-2.006.008-2.947.011-1.869.021-3.557.03-4.989.018-1.392.033-2.532.045-3.364.011-.372.019-.675.026-.915a1.391,1.391,0,0,1,.028-.318,1.364,1.364,0,0,1,.029.318l.026.915c.011.832.026,1.971.044,3.364.009,1.432.019,3.12.03,4.989,0,.94.005,1.925.008,2.947a4.367,4.367,0,0,0,.173,1.5,3.741,3.741,0,0,0,3.437,2.6l2.942.015,4.989.031,3.364.045.915.026A1.366,1.366,0,0,1,635.549,346Z" transform="translate(-619.133 -329.227)" fill="#263238"/>
                    </g>
                  </g>
                </g>
              </g>
            </g>
          </g>
        </g>
        <g id="Grupo_81518" data-name="Grupo 81518" transform="translate(14.49 11.525)">
          <g id="Grupo_81517" data-name="Grupo 81517">
            <path id="Trazado_116897" data-name="Trazado 116897" d="M603.209,350.527c0,.077-3.916.14-8.745.14s-8.746-.062-8.746-.14,3.915-.14,8.746-.14S603.209,350.449,603.209,350.527Z" transform="translate(-585.718 -350.387)" fill="#263238"/>
          </g>
        </g>
        <g id="Grupo_81520" data-name="Grupo 81520" transform="translate(14.49 17.967)">
          <g id="Grupo_81519" data-name="Grupo 81519">
            <path id="Trazado_116898" data-name="Trazado 116898" d="M611.508,362.5c0,.077-5.774.14-12.894.14s-12.9-.063-12.9-.14,5.773-.14,12.9-.14S611.508,362.424,611.508,362.5Z" transform="translate(-585.718 -362.361)" fill="#263238"/>
          </g>
        </g>
        <g id="Grupo_81522" data-name="Grupo 81522" transform="translate(14.49 24.409)">
          <g id="Grupo_81521" data-name="Grupo 81521">
            <path id="Trazado_116899" data-name="Trazado 116899" d="M611.508,374.476c0,.077-5.774.14-12.894.14s-12.9-.063-12.9-.14,5.773-.14,12.9-.14S611.508,374.4,611.508,374.476Z" transform="translate(-585.718 -374.336)" fill="#263238"/>
          </g>
        </g>
        <g id="Grupo_81524" data-name="Grupo 81524" transform="translate(14.49 30.852)">
          <g id="Grupo_81523" data-name="Grupo 81523">
            <path id="Trazado_116900" data-name="Trazado 116900" d="M611.508,386.451c0,.077-5.774.14-12.894.14s-12.9-.063-12.9-.14,5.773-.14,12.9-.14S611.508,386.373,611.508,386.451Z" transform="translate(-585.718 -386.311)" fill="#263238"/>
          </g>
        </g>
        <g id="Grupo_81526" data-name="Grupo 81526" transform="translate(14.49 37.294)">
          <g id="Grupo_81525" data-name="Grupo 81525">
            <path id="Trazado_116901" data-name="Trazado 116901" d="M611.508,398.425c0,.077-5.774.14-12.894.14s-12.9-.062-12.9-.14,5.773-.14,12.9-.14S611.508,398.348,611.508,398.425Z" transform="translate(-585.718 -398.285)" fill="#263238"/>
          </g>
        </g>
        <g id="Grupo_81528" data-name="Grupo 81528" transform="translate(14.49 45.24)">
          <g id="Grupo_81527" data-name="Grupo 81527">
            <path id="Trazado_116902" data-name="Trazado 116902" d="M611.508,413.194c0,.078-5.774.14-12.894.14s-12.9-.062-12.9-.14,5.773-.14,12.9-.14S611.508,413.117,611.508,413.194Z" transform="translate(-585.718 -413.054)" fill="#263238"/>
          </g>
        </g>
        <g id="Grupo_81529" data-name="Grupo 81529" transform="translate(0 32.728)">
          <path id="Rectngulo_33941" data-name="Rectngulo 33941" d="M4.222,0H23.937a4.221,4.221,0,0,1,4.221,4.221V8.431a4.222,4.222,0,0,1-4.222,4.222H4.221A4.221,4.221,0,0,1,0,8.431V4.222A4.222,4.222,0,0,1,4.222,0Z" fill="#ff725e"/>
        </g>
        <g id="Grupo_81530" data-name="Grupo 81530" transform="translate(3.262 36.771)">
          <path id="Trazado_116903" data-name="Trazado 116903" d="M564.849,397.466h2.172a2.4,2.4,0,1,1,0,4.781h-2.172Zm2.118,3.872a1.484,1.484,0,1,0,0-2.964h-1.011v2.964Z" transform="translate(-564.849 -397.384)" fill="#fff"/>
          <path id="Trazado_116904" data-name="Trazado 116904" d="M574.774,399.786a2.62,2.62,0,1,1,2.616,2.473A2.474,2.474,0,0,1,574.774,399.786Zm4.112,0a1.5,1.5,0,1,0-1.5,1.53A1.459,1.459,0,0,0,578.886,399.786Z" transform="translate(-569.434 -397.314)" fill="#fff"/>
          <path id="Trazado_116905" data-name="Trazado 116905" d="M585.486,399.786a2.633,2.633,0,0,1,4.562-1.625l-.71.656a1.538,1.538,0,0,0-1.2-.56,1.53,1.53,0,1,0,0,3.06,1.524,1.524,0,0,0,1.2-.566l.71.655a2.628,2.628,0,0,1-4.562-1.619Z" transform="translate(-574.383 -397.314)" fill="#fff"/>
          <path id="Trazado_116906" data-name="Trazado 116906" d="M597.713,402.247l-1.154-1.66-1.134,1.66h-1.27l1.769-2.432-1.68-2.349H595.5l1.1,1.55,1.079-1.55h1.195l-1.666,2.309,1.782,2.473Z" transform="translate(-578.389 -397.384)" fill="#fff"/>
        </g>
      </g>
    </g>
  </g>
</svg>
