<svg xmlns="http://www.w3.org/2000/svg" xmlns:xlink="http://www.w3.org/1999/xlink" width="56" height="56" viewBox="0 0 56 56">
  <defs>
    <clipPath id="clip-path">
      <rect id="Rectángulo_34017" data-name="Rectángulo 34017" width="56" height="56" transform="translate(446 1400)" fill="#fff" stroke="#707070" stroke-width="1"/>
    </clipPath>
  </defs>
  <g id="Enmascarar_grupo_76" data-name="Enmascarar grupo 76" transform="translate(-446 -1400)" clip-path="url(#clip-path)">
    <g id="campesino" transform="translate(446 1400)">
      <path id="Trazado_117572" data-name="Trazado 117572" d="M41,51.1a1.123,1.123,0,0,1-1.136-1.054,1.1,1.1,0,0,1,.819-1.1,1.095,1.095,0,0,1,0-2.119,1.095,1.095,0,0,1,0-2.119,1.1,1.1,0,0,1-.819-1.1A1.123,1.123,0,0,1,41,42.547h.23V34.409a5.462,5.462,0,0,0-2.595-2.062l-4.816-1.831L23.9,39.867l-9.925-9.351L9.158,32.347a5.469,5.469,0,0,0-3.525,5.112V54.086A1.094,1.094,0,0,0,6.726,55.18H41.235V51.1Z" fill="#fff3de"/>
      <g id="Grupo_83879" data-name="Grupo 83879">
        <g id="Grupo_83878" data-name="Grupo 83878">
          <path id="Trazado_117573" data-name="Trazado 117573" d="M10.882,54.086V37.459a5.469,5.469,0,0,1,3.525-5.112l1.075-.409-1.509-1.422L9.158,32.347a5.469,5.469,0,0,0-3.525,5.112V54.086A1.094,1.094,0,0,0,6.726,55.18h5.25A1.094,1.094,0,0,1,10.882,54.086Z" fill="#ffe5c2"/>
        </g>
      </g>
      <g id="Grupo_83880" data-name="Grupo 83880">
        <path id="Trazado_117574" data-name="Trazado 117574" d="M27.423,28.082a.547.547,0,0,1-.353-.511v-1.3a5.826,5.826,0,0,1-1.744.266H22.471a5.826,5.826,0,0,1-1.744-.266v1.3a.547.547,0,0,1-.353.511l-6.4,2.434L23.9,39.867l9.925-9.351Z" fill="#ffcebf"/>
      </g>
      <g id="Grupo_83882" data-name="Grupo 83882">
        <g id="Grupo_83881" data-name="Grupo 83881">
          <path id="Trazado_117575" data-name="Trazado 117575" d="M17.654,29.117l-3.68,1.4L23.9,39.867l2.583-2.433Z" fill="#ffb09e"/>
        </g>
      </g>
      <g id="Grupo_83895" data-name="Grupo 83895">
        <g id="Grupo_83883" data-name="Grupo 83883">
          <path id="Trazado_117576" data-name="Trazado 117576" d="M28.547,20.137A2.734,2.734,0,0,0,25.813,17.4H21.985a2.734,2.734,0,0,0-2.734,2.734,1.234,1.234,0,0,1-2.4.4,4.087,4.087,0,0,1-.206-1.286v1.457a5.829,5.829,0,0,0,5.829,5.829h2.855a5.829,5.829,0,0,0,5.829-5.829V19.252a4.087,4.087,0,0,1-.206,1.286,1.234,1.234,0,0,1-2.4-.4Z" fill="#ffd15b"/>
        </g>
        <g id="Grupo_83885" data-name="Grupo 83885">
          <g id="Grupo_83884" data-name="Grupo 83884">
            <path id="Trazado_117577" data-name="Trazado 117577" d="M20.069,20.709V18.187a2.726,2.726,0,0,0-.819,1.951,1.234,1.234,0,0,1-2.4.4,4.087,4.087,0,0,1-.206-1.286v1.457a5.829,5.829,0,0,0,5.829,5.829h2.855c.1,0,.191,0,.286-.007a5.829,5.829,0,0,1-5.543-5.822Z" fill="#ffc344"/>
          </g>
        </g>
        <g id="Grupo_83886" data-name="Grupo 83886">
          <path id="Trazado_117578" data-name="Trazado 117578" d="M15.791,12.553h.851V10.331a.547.547,0,0,1,.928-.392L19.1,11.43l2.4-2.313,2.4,2.313,2.4-2.313,2.4,2.313,1.532-1.491a.547.547,0,0,1,.928.392v2.222h.851a2.818,2.818,0,0,1,1.845.686V8.55A7.73,7.73,0,0,0,26.122.82H21.676a7.73,7.73,0,0,0-7.73,7.73v4.688a2.817,2.817,0,0,1,1.845-.686Z" fill="#ffd15b"/>
        </g>
        <g id="Grupo_83888" data-name="Grupo 83888">
          <g id="Grupo_83887" data-name="Grupo 83887">
            <path id="Trazado_117579" data-name="Trazado 117579" d="M19.2,8.55A7.73,7.73,0,0,1,26.524.831q-.2-.01-.4-.01H21.675a7.73,7.73,0,0,0-7.73,7.73v4.688a2.818,2.818,0,0,1,1.845-.686h.851V10.331a.547.547,0,0,1,.928-.392L19.1,11.43l.094-.09V8.55Z" fill="#ffc344"/>
          </g>
        </g>
        <g id="Grupo_83891" data-name="Grupo 83891">
          <g id="Grupo_83889" data-name="Grupo 83889">
            <path id="Trazado_117580" data-name="Trazado 117580" d="M32.006,12.553h-.851v6.2h.851a2.83,2.83,0,0,0,2.83-2.83v-.545a2.83,2.83,0,0,0-2.83-2.83Z" fill="#ffb09e"/>
          </g>
          <g id="Grupo_83890" data-name="Grupo 83890">
            <path id="Trazado_117581" data-name="Trazado 117581" d="M16.642,12.553h-.851a2.83,2.83,0,0,0-2.83,2.83v.545a2.83,2.83,0,0,0,2.83,2.83h.851Z" fill="#f89580"/>
          </g>
        </g>
        <g id="Grupo_83892" data-name="Grupo 83892">
          <path id="Trazado_117582" data-name="Trazado 117582" d="M28.7,11.43,26.3,9.117,23.9,11.43,21.5,9.117,19.1,11.43,17.571,9.939a.547.547,0,0,0-.928.392v8.921a4.087,4.087,0,0,0,.206,1.286,1.234,1.234,0,0,0,2.4-.4A2.734,2.734,0,0,1,21.985,17.4h3.828a2.734,2.734,0,0,1,2.734,2.734,1.234,1.234,0,0,0,2.4.4,4.087,4.087,0,0,0,.206-1.286V10.331a.547.547,0,0,0-.928-.392Z" fill="#ffcebf"/>
        </g>
        <g id="Grupo_83894" data-name="Grupo 83894">
          <g id="Grupo_83893" data-name="Grupo 83893">
            <path id="Trazado_117583" data-name="Trazado 117583" d="M20.069,10.5l-.967.933L17.571,9.939a.547.547,0,0,0-.928.392v8.921a4.087,4.087,0,0,0,.206,1.286,1.234,1.234,0,0,0,2.4-.4,2.726,2.726,0,0,1,.819-1.951V10.5Z" fill="#ffb09e"/>
          </g>
        </g>
      </g>
      <g id="Grupo_83896" data-name="Grupo 83896">
        <path id="Trazado_117584" data-name="Trazado 117584" d="M13.973,30.516l-1.128,5.431a1.094,1.094,0,0,0,.8,1.282L23.9,39.867Z" fill="#fed2a4"/>
      </g>
      <g id="Grupo_83897" data-name="Grupo 83897">
        <path id="Trazado_117585" data-name="Trazado 117585" d="M33.824,30.516l1.128,5.431a1.094,1.094,0,0,1-.8,1.282L23.9,39.867Z" fill="#fed2a4"/>
      </g>
      <g id="Grupo_83905" data-name="Grupo 83905">
        <g id="Grupo_83898" data-name="Grupo 83898">
          <path id="Trazado_117586" data-name="Trazado 117586" d="M47.334,29.2H37.87a3.034,3.034,0,0,1-3.034-3.034v3.281a3.034,3.034,0,0,0,3.034,3.034h9.464a3.034,3.034,0,0,0,3.034-3.034V26.17A3.034,3.034,0,0,1,47.334,29.2Z" fill="#e2e2e2"/>
        </g>
        <g id="Grupo_83900" data-name="Grupo 83900">
          <g id="Grupo_83899" data-name="Grupo 83899">
            <path id="Trazado_117587" data-name="Trazado 117587" d="M39.211,29.451V29.2H37.87a3.034,3.034,0,0,1-3.034-3.034v3.281a3.034,3.034,0,0,0,3.034,3.034h4.375A3.034,3.034,0,0,1,39.211,29.451Z" fill="#cecece"/>
          </g>
        </g>
        <g id="Grupo_83901" data-name="Grupo 83901">
          <path id="Trazado_117588" data-name="Trazado 117588" d="M43.2,51.1H41.235V55.18h1.641a1.094,1.094,0,0,0,1.094-1.094V50.95A2.128,2.128,0,0,1,43.2,51.1Z" fill="#e9b665"/>
          <path id="Trazado_117589" data-name="Trazado 117589" d="M43.2,42.547a2.127,2.127,0,0,1,.77.145V32.484H41.235V42.547Z" fill="#e9b665"/>
        </g>
        <g id="Grupo_83902" data-name="Grupo 83902">
          <path id="Trazado_117590" data-name="Trazado 117590" d="M41.235,51.1H42.6V55.18H41.235Z" fill="#d8aa5e"/>
          <path id="Trazado_117591" data-name="Trazado 117591" d="M41.235,32.484H42.6V42.547H41.235Z" fill="#d8aa5e"/>
        </g>
        <g id="Grupo_83903" data-name="Grupo 83903">
          <path id="Trazado_117592" data-name="Trazado 117592" d="M41,42.547A1.123,1.123,0,0,0,39.868,43.6a1.1,1.1,0,0,0,.819,1.1,1.095,1.095,0,0,0,0,2.119,1.095,1.095,0,0,0,0,2.119,1.1,1.1,0,0,0-.819,1.1A1.123,1.123,0,0,0,41,51.1H43.2a2.137,2.137,0,0,0,2.137-2.137V44.684A2.137,2.137,0,0,0,43.2,42.547Z" fill="#ffcebf"/>
        </g>
        <g id="Grupo_83904" data-name="Grupo 83904">
          <path id="Trazado_117593" data-name="Trazado 117593" d="M42.493,48.958V44.684a2.136,2.136,0,0,1,1.422-2.012,2.129,2.129,0,0,0-.715-.125H41A1.123,1.123,0,0,0,39.868,43.6a1.1,1.1,0,0,0,.819,1.1,1.094,1.094,0,0,0,0,2.119,1.094,1.094,0,0,0,0,2.119,1.1,1.1,0,0,0-.819,1.1A1.123,1.123,0,0,0,41,51.1H43.2a2.129,2.129,0,0,0,.715-.125A2.136,2.136,0,0,1,42.493,48.958Z" fill="#ffb09e"/>
        </g>
      </g>
      <g id="Grupo_83906" data-name="Grupo 83906">
        <path id="Trazado_117594" data-name="Trazado 117594" d="M29.368,30.461H25.977a.82.82,0,0,0,0,1.641h3.391a.82.82,0,1,0,0-1.641Z"/>
        <path id="Trazado_117595" data-name="Trazado 117595" d="M21.821,30.461H18.43a.82.82,0,0,0,0,1.641h3.391a.82.82,0,1,0,0-1.641Z"/>
        <path id="Trazado_117596" data-name="Trazado 117596" d="M25.965,21.263a.82.82,0,1,0-.628-1.516,3.733,3.733,0,0,1-2.877,0,.82.82,0,1,0-.628,1.516,5.364,5.364,0,0,0,4.132,0Z"/>
        <path id="Trazado_117597" data-name="Trazado 117597" d="M50.368,14.6a.82.82,0,0,0-.82.82V26.17a2.216,2.216,0,0,1-2.213,2.213H43.422v-12.2a.82.82,0,0,0-1.641,0v12.2H37.87a2.216,2.216,0,0,1-2.213-2.213V15.383a3.636,3.636,0,0,0-.984-2.49V8.55a8.471,8.471,0,0,0-.843-3.706.82.82,0,0,0-1.478.712,6.844,6.844,0,0,1,.681,2.994v3.33a3.636,3.636,0,0,0-1.025-.148h-.031v-1.4a1.367,1.367,0,0,0-2.321-.98l-.962.936L26.867,8.527a.82.82,0,0,0-1.139,0L23.9,10.29,22.07,8.527a.82.82,0,0,0-1.139,0L19.1,10.288l-.962-.936a1.367,1.367,0,0,0-2.321.98v1.4h-.031a3.64,3.64,0,0,0-1.025.148V8.55a6.917,6.917,0,0,1,6.909-6.909h4.447a6.859,6.859,0,0,1,4.015,1.288.82.82,0,1,0,.955-1.334A8.49,8.49,0,0,0,26.122,0H21.675a8.56,8.56,0,0,0-8.55,8.55v4.343a3.636,3.636,0,0,0-.984,2.49v.545a3.654,3.654,0,0,0,3.65,3.65h.031v1.131a6.659,6.659,0,0,0,4.085,6.134v.539L8.866,31.58a6.323,6.323,0,0,0-4.054,5.879V54.086A1.916,1.916,0,0,0,6.726,56h8.5a.82.82,0,0,0,0-1.641H12.145V46.131a.82.82,0,0,0-1.641,0v8.229H6.726a.274.274,0,0,1-.273-.273V37.459a4.674,4.674,0,0,1,3-4.345l3.417-1.3-.824,3.965a1.912,1.912,0,0,0,1.4,2.243l10.255,2.638a.819.819,0,0,0,.409,0l10.255-2.638a1.912,1.912,0,0,0,1.4-2.243l-.789-3.8a3.845,3.845,0,0,0,2.9,1.325h.907a4.66,4.66,0,0,1,1.638,1.378v7.132a1.913,1.913,0,0,0-1.049,2.89,1.914,1.914,0,0,0,0,2.116,1.914,1.914,0,0,0,0,2.116,1.913,1.913,0,0,0,1.049,2.89v2.532H37.293V46.131a.82.82,0,0,0-1.641,0v8.229H19.05a.82.82,0,0,0,0,1.641H42.875a1.916,1.916,0,0,0,1.914-1.914V51.45a2.957,2.957,0,0,0,1.367-2.491V44.684a2.957,2.957,0,0,0-1.367-2.491v-2a.82.82,0,1,0-1.641,0v1.531H42.055V33.3h1.094v3.063a.82.82,0,0,0,1.641,0V33.3h2.544a3.858,3.858,0,0,0,3.854-3.854V15.422a.82.82,0,0,0-.82-.82ZM15.822,17.938h-.031a2.012,2.012,0,0,1-2.01-2.01v-.545a2.012,2.012,0,0,1,2.01-2.01h.031Zm16.154-4.564h.031a2.012,2.012,0,0,1,2.01,2.01v.545a2.012,2.012,0,0,1-2.01,2.01h-.031Zm0,7.336V19.578h.031a3.628,3.628,0,0,0,2.01-.605V29.451c0,.089,0,.177.01.264l-6.135-2.333v-.539a6.659,6.659,0,0,0,4.085-6.134ZM17.463,19.252V10.979l1.067,1.039a.82.82,0,0,0,.924.152.827.827,0,0,0-.018.169v1.473a.82.82,0,0,0,1.641,0V12.339a.82.82,0,0,0-.82-.82c-.023,0-.046,0-.069,0L21.5,10.257l1.829,1.764a.82.82,0,0,0,1.139,0L26.3,10.257l1.312,1.265c-.023,0-.046,0-.069,0a.82.82,0,0,0-.82.82v1.473a.82.82,0,0,0,1.641,0V12.339a.827.827,0,0,0-.018-.169.82.82,0,0,0,.925-.152l1.067-1.039v8.273a3.264,3.264,0,0,1-.165,1.029.372.372,0,0,1-.448.268.393.393,0,0,1-.355-.411,3.559,3.559,0,0,0-3.555-3.555H24.5a.818.818,0,0,0-.3-.651l-.956-.771.986-.875a.82.82,0,1,0-1.089-1.227l-1.711,1.519a.82.82,0,0,0,.03,1.252l.934.753h-.4a3.559,3.559,0,0,0-3.555,3.555.393.393,0,0,1-.355.411.373.373,0,0,1-.448-.268,3.267,3.267,0,0,1-.165-1.029Zm.218,2.919a2.117,2.117,0,0,0,.656,0,2.026,2.026,0,0,0,1.734-2.03,1.916,1.916,0,0,1,1.914-1.914h3.828a1.916,1.916,0,0,1,1.914,1.914,2.026,2.026,0,0,0,1.734,2.03,2.173,2.173,0,0,0,.346.028,2.077,2.077,0,0,0,.309-.023,5.017,5.017,0,0,1-4.79,3.545H22.471a5.017,5.017,0,0,1-4.791-3.547ZM13.848,36.434a.273.273,0,0,1-.2-.32l.83-4,6.538,6.16ZM23.9,38.74l-8.409-7.923,5.177-1.968a1.375,1.375,0,0,0,.881-1.278v-.278a6.671,6.671,0,0,0,.924.066h2.855a6.669,6.669,0,0,0,.924-.066v.278a1.375,1.375,0,0,0,.881,1.278l5.177,1.968Zm10.051-2.306-7.168,1.844,6.538-6.16.83,4A.273.273,0,0,1,33.949,36.434Zm9.2,17.652a.274.274,0,0,1-.273.273h-.82V51.915h1.094Zm.05-10.719a1.318,1.318,0,0,1,1.317,1.317v4.274A1.318,1.318,0,0,1,43.2,50.275H41a.305.305,0,0,1-.316-.264.274.274,0,0,1,.206-.277.82.82,0,0,0,0-1.588.274.274,0,0,1,0-.531.82.82,0,0,0,0-1.588.274.274,0,0,1,0-.531.82.82,0,0,0,0-1.588.274.274,0,0,1-.206-.277A.305.305,0,0,1,41,43.367Zm6.348-13.916a2.216,2.216,0,0,1-2.213,2.213H37.87a2.216,2.216,0,0,1-2.213-2.213v-.129a3.831,3.831,0,0,0,2.213.7h9.464a3.832,3.832,0,0,0,2.213-.7Z"/>
      </g>
    </g>
  </g>
</svg>
