<svg xmlns="http://www.w3.org/2000/svg" xmlns:xlink="http://www.w3.org/1999/xlink" width="100" height="94" viewBox="0 0 100 94">
  <defs>
    <clipPath id="clip-path">
      <rect id="Rectángulo_33935" data-name="Rectángulo 33935" width="100" height="94" transform="translate(225 519)" fill="#01f6ff"/>
    </clipPath>
  </defs>
  <g id="Enmascarar_grupo_65" data-name="Enmascarar grupo 65" transform="translate(-225 -519)" clip-path="url(#clip-path)">
    <g id="archivo" transform="translate(228 519)">
      <g id="Grupo_81034" data-name="Grupo 81034">
        <path id="Trazado_116773" data-name="Trazado 116773" d="M75.19,7.312H12.134V3.232a1.855,1.855,0,0,1,1.855-1.855H73.335A1.855,1.855,0,0,1,75.19,3.232v4.08Z" fill="#d3effb"/>
      </g>
      <g id="Grupo_81035" data-name="Grupo 81035">
        <path id="Trazado_116774" data-name="Trazado 116774" d="M77.045,13.246H10.279V9.166a1.855,1.855,0,0,1,1.855-1.855H75.19a1.855,1.855,0,0,1,1.855,1.855Z" fill="#cbe2ff"/>
      </g>
      <g id="Grupo_81036" data-name="Grupo 81036">
        <path id="Trazado_116775" data-name="Trazado 116775" d="M82.608,92.623H4.92l-.205-24.11H82.608Z" fill="#9d66d5"/>
      </g>
      <g id="Grupo_81037" data-name="Grupo 81037">
        <path id="Trazado_116776" data-name="Trazado 116776" d="M82.608,80.7,71.375,69.468q.213-.474.4-.954H23.558a25.978,25.978,0,0,0,34.7,14.067L68.3,92.623H82.608V80.7Z" fill="#8659b9"/>
      </g>
      <g id="Grupo_81038" data-name="Grupo 81038">
        <path id="Trazado_116777" data-name="Trazado 116777" d="M78.9,68.513H8.425V15.1a1.855,1.855,0,0,1,1.855-1.855H77.045A1.855,1.855,0,0,1,78.9,15.1V68.513Z" fill="#f4fbff"/>
      </g>
      <g id="Grupo_81039" data-name="Grupo 81039">
        <path id="Trazado_116778" data-name="Trazado 116778" d="M12.134,21.407h23V39.952h-23Z" transform="translate(54.312 7.047) rotate(90)" fill="#dd636e"/>
      </g>
      <g id="Grupo_81040" data-name="Grupo 81040">
        <path id="Trazado_116779" data-name="Trazado 116779" d="M77.045,13.246H72.156A1.855,1.855,0,0,1,74.011,15.1V68.513H78.9V15.1a1.855,1.855,0,0,0-1.855-1.855Z" fill="#e4f6ff"/>
      </g>
      <g id="Grupo_81049" data-name="Grupo 81049">
        <g id="Grupo_81041" data-name="Grupo 81041">
          <path id="Trazado_116780" data-name="Trazado 116780" d="M59.663,73.093H70.789v6.676H59.663Z" transform="translate(-34.946 68.518) rotate(-45)" fill="#2b4d66"/>
        </g>
        <g id="Grupo_81042" data-name="Grupo 81042">
          <path id="Trazado_116781" data-name="Trazado 116781" d="M66.609,77.813h6.676v6.676H66.609Z" transform="translate(-36.901 73.239) rotate(-45)" fill="#4a80aa"/>
        </g>
        <g id="Grupo_81043" data-name="Grupo 81043">
          <path id="Trazado_116782" data-name="Trazado 116782" d="M89.285,92.623H73.548l-5.165-5.165,7.868-7.868Z" fill="#407093"/>
        </g>
        <g id="Grupo_81044" data-name="Grupo 81044">
          <path id="Trazado_116783" data-name="Trazado 116783" d="M76.252,79.59l-2.623,2.623,10.41,10.41h5.245Z" fill="#365e7d"/>
        </g>
        <g id="Grupo_81045" data-name="Grupo 81045">
          <circle id="Elipse_4799" data-name="Elipse 4799" cx="22.255" cy="22.255" r="22.255" transform="translate(25.408 36.615)" fill="#407093"/>
        </g>
        <g id="Grupo_81046" data-name="Grupo 81046">
          <path id="Trazado_116784" data-name="Trazado 116784" d="M61.122,41.146A22.255,22.255,0,0,1,29.939,72.329,22.255,22.255,0,1,0,61.122,41.146Z" fill="#365e7d"/>
        </g>
        <g id="Grupo_81047" data-name="Grupo 81047">
          <circle id="Elipse_4800" data-name="Elipse 4800" cx="16.32" cy="16.32" r="16.32" transform="translate(31.343 42.549)" fill="#e4f6ff"/>
        </g>
        <g id="Grupo_81048" data-name="Grupo 81048">
          <path id="Trazado_116785" data-name="Trazado 116785" d="M57.519,45.861A16.32,16.32,0,0,1,34.655,68.725,16.32,16.32,0,1,0,57.519,45.861Z" fill="#d3effb"/>
        </g>
      </g>
      <g id="Grupo_81050" data-name="Grupo 81050">
        <path id="Trazado_116786" data-name="Trazado 116786" d="M8.425,51.436A1.377,1.377,0,0,0,9.8,50.059V15.1a.478.478,0,0,1,.477-.477H77.046a.478.478,0,0,1,.477.477V31.7a1.377,1.377,0,0,0,2.754,0V15.1a3.232,3.232,0,0,0-1.855-2.919V9.166a3.233,3.233,0,0,0-1.855-2.919V3.232A3.235,3.235,0,0,0,73.335,0H13.988a3.235,3.235,0,0,0-3.232,3.232V6.247A3.233,3.233,0,0,0,8.9,9.166v3.016A3.232,3.232,0,0,0,7.048,15.1V50.059a1.377,1.377,0,0,0,1.377,1.377ZM11.656,9.166a.478.478,0,0,1,.478-.478H75.19a.478.478,0,0,1,.478.478v2.7H11.656Zm1.855-5.935a.478.478,0,0,1,.478-.478H73.335a.478.478,0,0,1,.478.478v2.7h-60.3Z"/>
        <path id="Trazado_116787" data-name="Trazado 116787" d="M60.177,46.356A17.7,17.7,0,1,0,65.361,58.87,17.581,17.581,0,0,0,60.177,46.356ZM58.23,69.437A14.944,14.944,0,1,1,62.607,58.87,14.846,14.846,0,0,1,58.23,69.437Z"/>
        <path id="Trazado_116788" data-name="Trazado 116788" d="M90.258,91.649l-6.273-6.273V68.513a1.377,1.377,0,0,0-1.377-1.377H80.276V38.125a1.377,1.377,0,1,0-2.754,0V67.136H69.8A23.631,23.631,0,0,0,34.282,39.39V19.181A1.377,1.377,0,0,0,32.905,17.8H14.359a1.377,1.377,0,0,0-1.377,1.377v23a1.377,1.377,0,0,0,1.377,1.377H29.665a23.681,23.681,0,0,0-4.139,23.581H9.8V56.484a1.377,1.377,0,0,0-2.754,0V67.136H4.715a1.377,1.377,0,0,0-1.377,1.389l.206,24.109A1.377,1.377,0,0,0,4.92,94H13.1a1.377,1.377,0,1,0,0-2.754H6.286L6.1,69.89H26.756A23.67,23.67,0,0,0,58.73,79.752l3.959,3.959a1.377,1.377,0,0,0,1.947,0l.6-.6,2.774,2.774-.6.6a1.377,1.377,0,0,0,0,1.947l2.814,2.814h-50.7a1.377,1.377,0,1,0,0,2.754H73.551a1.377,1.377,0,0,0,.971-2.35l-4.191-4.191,5.921-5.921L88.311,93.6a1.377,1.377,0,1,0,1.947-1.947ZM15.736,20.558H31.528V40.8H15.736ZM32.9,73.633a20.878,20.878,0,1,1,29.526,0A20.9,20.9,0,0,1,32.9,73.633Zm28.25,4.645a23.784,23.784,0,0,0,5.921-5.921l2.512,2.512L63.662,80.79Zm6.033,2.886,2.774-2.774,2.774,2.774-2.774,2.774Zm8.095-2.547-.6.6L71.9,76.442l.6-.6a1.377,1.377,0,0,0,0-1.947l-3.959-3.959.025-.046H81.231V82.622l-4.006-4.006a1.377,1.377,0,0,0-1.947,0Z"/>
        <path id="Trazado_116789" data-name="Trazado 116789" d="M72.964,17.8H39.211a1.377,1.377,0,1,0,0,2.754H72.964a1.377,1.377,0,0,0,0-2.754Z"/>
        <path id="Trazado_116790" data-name="Trazado 116790" d="M74.341,25.116a1.377,1.377,0,0,0-1.377-1.377H39.211a1.377,1.377,0,1,0,0,2.754H72.964A1.377,1.377,0,0,0,74.341,25.116Z"/>
        <path id="Trazado_116791" data-name="Trazado 116791" d="M39.211,29.673a1.377,1.377,0,0,0,0,2.754H61.837a1.377,1.377,0,1,0,0-2.754Z"/>
      </g>
    </g>
  </g>
</svg>
