<svg xmlns="http://www.w3.org/2000/svg" xmlns:xlink="http://www.w3.org/1999/xlink" width="56" height="56" viewBox="0 0 56 56">
  <defs>
    <clipPath id="clip-path">
      <rect id="Rectángulo_34009" data-name="Rectángulo 34009" width="56" height="56" transform="translate(947 1283)" fill="#fff" stroke="#707070" stroke-width="1"/>
    </clipPath>
  </defs>
  <g id="Enmascarar_grupo_73" data-name="Enmascarar grupo 73" transform="translate(-947 -1283)" clip-path="url(#clip-path)">
    <g id="alcalde" transform="translate(947 1283)">
      <g id="Grupo_83873" data-name="Grupo 83873">
        <path id="Trazado_117492" data-name="Trazado 117492" d="M33.014,17.48,29.7,16.789H26.3l-2.873.912A2.426,2.426,0,0,0,21.5,20.076L21.055,22.7,28,23.86,34.945,22.7V19.856A2.426,2.426,0,0,0,33.014,17.48Z" fill="#6fbbc6"/>
        <path id="Trazado_117493" data-name="Trazado 117493" d="M27.945,17.992l-4.032.84a1.53,1.53,0,0,0-1.218,1.5v2.64L21.055,22.7V19.856a2.426,2.426,0,0,1,1.932-2.376l3.318-.691h1.613Z" fill="#61aab8"/>
        <path id="Trazado_117494" data-name="Trazado 117494" d="M27.615,18.116,25.867,22.7,28,23.86,30.133,22.7l-1.787-4.683Z" fill="#f9f8f9"/>
        <path id="Trazado_117495" data-name="Trazado 117495" d="M28,18.539a1.7,1.7,0,0,1-1.7-1.7V13.836H29.7v3.008A1.7,1.7,0,0,1,28,18.539Z" fill="#ffd18d"/>
        <g id="Grupo_83869" data-name="Grupo 83869">
          <g id="Grupo_83868" data-name="Grupo 83868">
            <path id="Trazado_117496" data-name="Trazado 117496" d="M48.344,5.823H51.3V53.674H48.344Z" fill="#e8e8e8"/>
          </g>
          <path id="Trazado_117497" data-name="Trazado 117497" d="M51.9,51.9H49.82l-1.891.12a2.173,2.173,0,0,0-2.277,2.075l.011.628a.328.328,0,0,0,.328.328l1.751.13h6.016a.328.328,0,0,0,.328-.328v-.766A2.188,2.188,0,0,0,51.9,51.9Z" fill="#e8e8e8"/>
          <path id="Trazado_117498" data-name="Trazado 117498" d="M49.93,51.9a2.187,2.187,0,0,0-2.187,2.187V55.18H45.883a.328.328,0,0,1-.328-.328v-.766A2.187,2.187,0,0,1,47.742,51.9Z" fill="#dcdbdd"/>
          <path id="Trazado_117499" data-name="Trazado 117499" d="M51.461,6.07,49.82,4.43l-.988,1.837L44.9,24.865a.437.437,0,0,0,.153.422l4.588,3.83a.437.437,0,0,0,.553,0l1.111-.629,3.678-3a.438.438,0,0,0,.153-.422Z" fill="#ff5f7a"/>
          <path id="Trazado_117500" data-name="Trazado 117500" d="M51.3,28.488l-1.2.982a.438.438,0,0,1-.553,0l-4.88-3.985a.437.437,0,0,1-.153-.422L48.18,6.07,49.82,4.43l.68.68-.243.243L46.576,24.41a.327.327,0,0,0,.115.316Z" fill="#ea476a"/>
          <path id="Trazado_117501" data-name="Trazado 117501" d="M52.719,3.719a2.9,2.9,0,0,0-4.307-2.534s-.351.386-.543.581a2.67,2.67,0,0,0-.763,1.969,2.771,2.771,0,0,0,5.151,1.35,2.989,2.989,0,0,1,.284-.365A2.9,2.9,0,0,0,52.719,3.719Z" fill="#f9f8f9"/>
          <path id="Trazado_117502" data-name="Trazado 117502" d="M52.541,4.721a2.9,2.9,0,1,1-4.129-3.536,2.9,2.9,0,0,0,2.721,3.9A2.877,2.877,0,0,0,52.541,4.721Z" fill="#e8e8e8"/>
        </g>
        <path id="Trazado_117503" data-name="Trazado 117503" d="M38.117,30.68,28,29.568,18.54,30.68V50.8h19l.578-1.75V45.172l-1.7-4.519,1.7-4.231Z" fill="#c6805d"/>
        <path id="Trazado_117504" data-name="Trazado 117504" d="M38.117,49.055V50.8l-9.93,1.577L17.883,50.8V45.172l1.076-4.43-1.076-4.32V30.68l.875-.816.875.816V48.617a.438.438,0,0,0,.437.437Z" fill="#ba7052"/>
        <path id="Trazado_117505" data-name="Trazado 117505" d="M39.758,22.7H17.664l-1.062.422a.547.547,0,0,0-.547.547l.026,6.127a.547.547,0,0,0,.547.547l22.815.049a.547.547,0,0,0,.547-.547l.315-1.13V23.242A.547.547,0,0,0,39.758,22.7Z" fill="#c6805d"/>
        <path id="Trazado_117506" data-name="Trazado 117506" d="M40.3,28.711v1.422a.547.547,0,0,1-.547.547H16.242a.547.547,0,0,1-.547-.547V23.242a.547.547,0,0,1,.547-.547h1.422v5.469a.547.547,0,0,0,.547.547Z" fill="#ba7052"/>
        <g id="Grupo_83871" data-name="Grupo 83871">
          <g id="Grupo_83870" data-name="Grupo 83870">
            <path id="Trazado_117507" data-name="Trazado 117507" d="M4.7,5.823H7.656V53.674H4.7Z" fill="#e8e8e8"/>
          </g>
          <path id="Trazado_117508" data-name="Trazado 117508" d="M8.258,51.9H6.18l-1.891.12a2.173,2.173,0,0,0-2.277,2.075l.011.628a.328.328,0,0,0,.328.328l1.751.13h6.016a.328.328,0,0,0,.328-.328v-.766A2.187,2.187,0,0,0,8.258,51.9Z" fill="#e8e8e8"/>
          <path id="Trazado_117509" data-name="Trazado 117509" d="M6.289,51.9A2.187,2.187,0,0,0,4.1,54.086V55.18H2.242a.328.328,0,0,1-.328-.328v-.766A2.187,2.187,0,0,1,4.1,51.9Z" fill="#dcdbdd"/>
          <path id="Trazado_117510" data-name="Trazado 117510" d="M7.82,6.07,6.18,4.43,5.192,6.267l-3.937,18.6a.437.437,0,0,0,.153.422l4.588,3.83a.437.437,0,0,0,.553,0l1.111-.629,3.678-3a.438.438,0,0,0,.153-.422Z" fill="#ff5f7a"/>
          <path id="Trazado_117511" data-name="Trazado 117511" d="M7.658,28.488l-1.2.982a.438.438,0,0,1-.553,0l-4.88-3.985a.437.437,0,0,1-.153-.422L4.539,6.07,6.18,4.43l.68.68-.243.243L2.936,24.41a.327.327,0,0,0,.115.316Z" fill="#ea476a"/>
          <path id="Trazado_117512" data-name="Trazado 117512" d="M9.078,3.719A2.9,2.9,0,0,0,4.772,1.185s-.351.386-.543.581a2.67,2.67,0,0,0-.763,1.969,2.585,2.585,0,0,0,2.715,2.7A2.6,2.6,0,0,0,8.616,5.085,2.988,2.988,0,0,1,8.9,4.721,2.893,2.893,0,0,0,9.078,3.719Z" fill="#f9f8f9"/>
          <path id="Trazado_117513" data-name="Trazado 117513" d="M8.9,4.721A2.9,2.9,0,1,1,4.772,1.185a2.9,2.9,0,0,0,2.721,3.9A2.877,2.877,0,0,0,8.9,4.721Z" fill="#e8e8e8"/>
        </g>
        <path id="Trazado_117514" data-name="Trazado 117514" d="M18.758,36.422H38.117v8.75H18.758Z" fill="#ba7052"/>
        <path id="Trazado_117515" data-name="Trazado 117515" d="M17.883,36.422h1.75v8.75h-1.75Z" fill="#af644e"/>
        <path id="Trazado_117516" data-name="Trazado 117516" d="M34.836,40.742A6.836,6.836,0,0,0,23.93,35.25a4.825,4.825,0,0,1-.38.414,6.615,6.615,0,0,0-2.179,5.078A6.389,6.389,0,0,0,27.951,47.3a6.657,6.657,0,0,0,4.639-1.671c.308-.286.9-.815.9-.815A6.8,6.8,0,0,0,34.836,40.742Z" fill="#ffe077"/>
        <path id="Trazado_117517" data-name="Trazado 117517" d="M33.492,44.813A6.836,6.836,0,1,1,23.93,35.25a6.836,6.836,0,0,0,9.563,9.563Z" fill="#ffd05b"/>
        <circle id="Elipse_4811" data-name="Elipse 4811" cx="3.555" cy="3.555" r="3.555" transform="translate(24.445 37.187)" fill="#f9f8f9"/>
        <circle id="Elipse_4812" data-name="Elipse 4812" cx="1.695" cy="1.695" r="1.695" transform="translate(18.922 12.195)" fill="#61aab8"/>
        <circle id="Elipse_4813" data-name="Elipse 4813" cx="1.695" cy="1.695" r="1.695" transform="translate(33.687 12.195)" fill="#61aab8"/>
        <path id="Trazado_117518" data-name="Trazado 117518" d="M39.758,50.8H17.883l-1.239.322a.547.547,0,0,0-.547.547l-.028,2.569a.547.547,0,0,0,.547.547l22.966.088a.547.547,0,0,0,.547-.547l.176-1.339V51.352A.547.547,0,0,0,39.758,50.8Z" fill="#c6805d"/>
        <path id="Trazado_117519" data-name="Trazado 117519" d="M40.3,52.992v1.641a.547.547,0,0,1-.547.547H16.242a.547.547,0,0,1-.547-.547V51.352a.547.547,0,0,1,.547-.547h1.641v1.75a.438.438,0,0,0,.438.438Z" fill="#ba7052"/>
        <g id="Grupo_83872" data-name="Grupo 83872">
          <path id="Trazado_117520" data-name="Trazado 117520" d="M31.828,11.1a3.829,3.829,0,0,0-5.653-3.366,10.926,10.926,0,0,0-1.191,1.27,3.556,3.556,0,0,0-.57,2.127A3.322,3.322,0,0,0,28,14.583c1.451,0,3.363-1.651,3.363-1.651A3.811,3.811,0,0,0,31.828,11.1Z" fill="#ffd18d"/>
          <path id="Trazado_117521" data-name="Trazado 117521" d="M31.362,12.933a3.829,3.829,0,1,1-5.187-5.2,3.827,3.827,0,0,0,5.187,5.2Z" fill="#fbbd80"/>
        </g>
      </g>
      <g id="Grupo_83874" data-name="Grupo 83874">
        <path id="Trazado_117522" data-name="Trazado 117522" d="M39.758,21.875h-.711V17.8a4.353,4.353,0,0,0-1.507-3.308,2.25,2.25,0,1,0-.995,1.31,2.725,2.725,0,0,1,.861,2v4.073H35.766V19.856a3.26,3.26,0,0,0-2.585-3.178l-2.665-.555V14.951a4.375,4.375,0,1,0-5.031,0v1.171l-2.665.555a3.26,3.26,0,0,0-2.585,3.178v2.019H18.594V17.8a2.726,2.726,0,0,1,.861-2,2.251,2.251,0,1,0-.995-1.31A4.353,4.353,0,0,0,16.953,17.8v4.073h-.711a1.369,1.369,0,0,0-1.367,1.367v6.891A1.369,1.369,0,0,0,16.242,31.5h.82V49.984h-.82a1.369,1.369,0,0,0-1.367,1.367v3.281A1.369,1.369,0,0,0,16.242,56H39.758a1.369,1.369,0,0,0,1.367-1.367V51.352a1.369,1.369,0,0,0-1.367-1.367h-.82V31.5h.82a1.369,1.369,0,0,0,1.367-1.367V23.242A1.369,1.369,0,0,0,39.758,21.875Zm-4.977-7.984a.6.6,0,1,1,.6.6A.6.6,0,0,1,34.781,13.891Zm-14.164-.6a.6.6,0,1,1-.6.6A.6.6,0,0,1,20.617,13.289Zm13.508,6.567v2.019H30.713l-1.1-3.1a2.526,2.526,0,0,0,.727-1.009l2.505.522a1.613,1.613,0,0,1,1.278,1.572Zm-6.043-.5.89,2.518H27.027l.89-2.518ZM28,8.641a2.734,2.734,0,1,1-2.734,2.734A2.737,2.737,0,0,1,28,8.641Zm0,7.109a4.378,4.378,0,0,0,.875-.088v1.182a.875.875,0,0,1-1.75,0V15.662A4.378,4.378,0,0,0,28,15.75Zm-6.125,4.106a1.613,1.613,0,0,1,1.278-1.572l2.505-.522a2.526,2.526,0,0,0,.727,1.009l-1.1,3.1H21.875ZM37.3,44.352H34.75a7.634,7.634,0,0,0,.056-7.109H37.3Zm-3.281-3.609A6.016,6.016,0,1,1,28,34.727,6.022,6.022,0,0,1,34.016,40.742ZM21.25,44.352H18.7V37.242h2.491a7.634,7.634,0,0,0,.056,7.109ZM39.484,54.359H16.516V51.625H39.484ZM18.7,49.984V45.992h3.732a7.638,7.638,0,0,0,11.13,0H37.3v3.992ZM39.484,29.859H28.109a.82.82,0,1,0,0,1.641H37.3v4.1H33.669a7.645,7.645,0,0,0-11.338,0H18.7V31.5h5.469a.82.82,0,0,0,0-1.641H16.516V23.516H39.484Z"/>
        <path id="Trazado_117523" data-name="Trazado 117523" d="M10.675,16.524a.82.82,0,0,0-1.611.311l1.576,8.159L6.18,28.636,1.719,24.995,5.139,7.288a3.7,3.7,0,0,0,2.081,0L8.342,13.1a.82.82,0,0,0,1.611-.311L8.725,6.427a3.719,3.719,0,1,0-5.09,0L.015,25.165a.82.82,0,0,0,.287.791l3.581,2.923v13.5a.82.82,0,1,0,1.641,0V30.219l.137.112a.82.82,0,0,0,1.038,0l.137-.112v20.86H5.523V46.211a.82.82,0,1,0-1.641,0v4.876a3.011,3.011,0,0,0-2.789,3V55.18a.82.82,0,0,0,.82.82h8.531a.82.82,0,0,0,.82-.82V54.086a3.011,3.011,0,0,0-2.789-3V28.879l3.581-2.923a.82.82,0,0,0,.287-.791ZM6.18,1.641A2.078,2.078,0,1,1,4.1,3.719,2.08,2.08,0,0,1,6.18,1.641ZM9.625,54.086v.273H2.734v-.273A1.369,1.369,0,0,1,4.1,52.719H8.258A1.369,1.369,0,0,1,9.625,54.086Z"/>
        <path id="Trazado_117524" data-name="Trazado 117524" d="M55.985,25.165,52.365,6.427a3.719,3.719,0,1,0-5.09,0l-3.62,18.738a.82.82,0,0,0,.287.791l3.581,2.923V35.2a.82.82,0,1,0,1.641,0V30.219l.137.112a.82.82,0,0,0,1.038,0l.137-.112v20.86H49.164V39.024a.82.82,0,1,0-1.641,0V51.087a3.011,3.011,0,0,0-2.789,3V55.18a.82.82,0,0,0,.82.82h8.531a.82.82,0,0,0,.82-.82V54.086a3.011,3.011,0,0,0-2.789-3V28.879L55.7,25.956A.82.82,0,0,0,55.985,25.165ZM53.266,54.086v.273H46.375v-.273a1.369,1.369,0,0,1,1.367-1.367H51.9A1.369,1.369,0,0,1,53.266,54.086ZM49.82,1.641a2.078,2.078,0,1,1-2.078,2.078A2.08,2.08,0,0,1,49.82,1.641Zm0,27-4.461-3.642L48.78,7.288a3.7,3.7,0,0,0,2.081,0l3.42,17.706Z"/>
        <path id="Trazado_117525" data-name="Trazado 117525" d="M28,36.367a4.375,4.375,0,1,0,4.375,4.375A4.38,4.38,0,0,0,28,36.367Zm0,7.109a2.734,2.734,0,1,1,2.734-2.734A2.737,2.737,0,0,1,28,43.477Z"/>
      </g>
    </g>
  </g>
</svg>
