<svg xmlns="http://www.w3.org/2000/svg" xmlns:xlink="http://www.w3.org/1999/xlink" width="56" height="56" viewBox="0 0 56 56">
  <defs>
    <clipPath id="clip-path">
      <rect id="Rectángulo_34006" data-name="Rectángulo 34006" width="56" height="56" transform="translate(196 1283)" fill="#fff" stroke="#707070" stroke-width="1"/>
    </clipPath>
  </defs>
  <g id="Enmascarar_grupo_71" data-name="Enmascarar grupo 71" transform="translate(-196 -1283)" clip-path="url(#clip-path)">
    <g id="liderazgo" transform="translate(196 1283)">
      <path id="Trazado_117442" data-name="Trazado 117442" d="M42.551,2.707,40.989,1.144a1.1,1.1,0,0,0-1.563,0L17.841,22.729l3.125,3.125L42.551,4.269a1.1,1.1,0,0,0,0-1.563Z" fill="#c5d3dd"/>
      <path id="Trazado_117443" data-name="Trazado 117443" d="M24.847,21.974a6.155,6.155,0,0,0-2.937-.739c-.181,0-.36.009-.538.024l-1.031-1.031-2.5,2.5,3.125,3.125Z" fill="#b6c4cf"/>
      <path id="Trazado_117444" data-name="Trazado 117444" d="M54.856,18.754,41.461,5.359,28.013,18.808,41.407,32.2a1.1,1.1,0,0,0,1.776-.3l3.369-6.974A2.21,2.21,0,0,1,47.581,23.9l6.974-3.369a1.1,1.1,0,0,0,.3-1.776Z" fill="#fd8087"/>
      <path id="Trazado_117445" data-name="Trazado 117445" d="M26.388,11.6H45.4v3.293H26.388Z" transform="translate(1.148 29.266) rotate(-45)" fill="#fe646f"/>
      <path id="Trazado_117446" data-name="Trazado 117446" d="M5.966,40.854,2.841,37.729.821,39.75V46Z" fill="#9facba"/>
      <path id="Trazado_117447" data-name="Trazado 117447" d="M44.98,55.18H20.233L7.222,42.11l5-5,10-10,3.653,3.653L26.9,37.1l1.732,1.732Z" fill="#ffbd86"/>
      <path id="Trazado_117448" data-name="Trazado 117448" d="M22.075,46.338a1.547,1.547,0,0,1-2.187,0l-1.476-1.476a6.582,6.582,0,0,1-1.8-5.941,6.15,6.15,0,0,1-4.307-1.729l-.083-.082s0,0,0,0l10-10,3.653,3.653L26.9,37.1l2.2,2.2Z" fill="#f6a96c"/>
      <path id="Trazado_117449" data-name="Trazado 117449" d="M20.347,32.735l-9.063-9.063a2.652,2.652,0,0,1,3.75-3.75L24.1,28.985Z" fill="#fed2a4"/>
      <path id="Trazado_117450" data-name="Trazado 117450" d="M10.972,38.36,3.785,31.172a2.652,2.652,0,0,1,3.75-3.75l7.188,7.188a2.652,2.652,0,1,1-3.75,3.75Z" fill="#fed2a4"/>
      <path id="Trazado_117451" data-name="Trazado 117451" d="M7.222,42.11,1.6,36.485a2.652,2.652,0,1,1,3.75-3.75l5.625,5.625a2.652,2.652,0,1,1-3.75,3.75Z" fill="#fed2a4"/>
      <path id="Trazado_117452" data-name="Trazado 117452" d="M14.722,34.61l-8.75-8.75a2.652,2.652,0,0,1,3.75-3.75l8.75,8.75a2.652,2.652,0,1,1-3.75,3.75Z" fill="#fed2a4"/>
      <g id="Grupo_83863" data-name="Grupo 83863">
        <path id="Trazado_117453" data-name="Trazado 117453" d="M18.472,34.61a2.652,2.652,0,0,0,0-3.75L14.1,26.485l-1.833,1.833a6.276,6.276,0,0,0-1.477,2.357l3.935,3.935a2.652,2.652,0,0,0,3.75,0Z" fill="#ffbd86"/>
        <path id="Trazado_117454" data-name="Trazado 117454" d="M22.222,27.11,17.86,22.747c-.111.1-.22.195-.325.3L14.1,26.485l4.375,4.375a2.652,2.652,0,0,0,3.75-3.75Z" fill="#ffbd86"/>
        <path id="Trazado_117455" data-name="Trazado 117455" d="M14.722,34.61l-3.941-3.941a6.193,6.193,0,0,0,1.442,6.442l.083.081A6.168,6.168,0,0,0,14.5,38.558a2.649,2.649,0,0,0,.222-3.948Z" fill="#ffbd86"/>
        <path id="Trazado_117456" data-name="Trazado 117456" d="M28.8,38.669l-.465-6.32a6.542,6.542,0,0,0-1.9-4.146l-2.655-2.655a2.652,2.652,0,0,0-3.75,0l-5.27,5.27a2.7,2.7,0,0,0-.006,3.828,2.652,2.652,0,0,0,3.713-.036l3.438-3.438.947.947v3.313a1.637,1.637,0,0,1-.479,1.157l-1.465,1.465a3.046,3.046,0,0,0,0,4.308L33.73,55.18H45.314Z" fill="#ffbd86"/>
      </g>
      <path id="Trazado_117457" data-name="Trazado 117457" d="M45.3,15.387l-.552,1.627a1.2,1.2,0,0,0,.175,1.1l1.027,1.377a1.2,1.2,0,0,1-.977,1.917l-1.718-.022a1.2,1.2,0,0,0-.995.507l-.992,1.4a1.2,1.2,0,0,1-2.125-.337l-.51-1.64a1.2,1.2,0,0,0-.789-.789l-1.64-.51a1.2,1.2,0,0,1-.337-2.125l1.4-.992a1.2,1.2,0,0,0,.507-.995l-.022-1.718a1.2,1.2,0,0,1,1.917-.977l1.377,1.027a1.2,1.2,0,0,0,1.1.175l1.627-.552A1.2,1.2,0,0,1,45.3,15.387Z" fill="#ffe177"/>
      <g id="Grupo_83864" data-name="Grupo 83864">
        <path id="Trazado_117458" data-name="Trazado 117458" d="M55.436,18.174,42.621,5.359l.509-.509a1.925,1.925,0,0,0,0-2.724L41.569.565a1.923,1.923,0,0,0-2.723,0L31.429,7.982a.82.82,0,1,0,1.16,1.16l7.419-7.419a.283.283,0,0,1,.4,0l1.563,1.562a.284.284,0,0,1,0,.4L21.7,23.959a3.477,3.477,0,0,0-1.185.284L19,22.729l10.88-10.88a.82.82,0,0,0-1.16-1.16l-10.88,10.88-2.227-2.227a3.473,3.473,0,0,0-5.854,1.745A3.472,3.472,0,0,0,4.951,25.9a3.469,3.469,0,0,0-2.187,5.313,3.47,3.47,0,0,0-1.747,5.852l.664.664L.241,39.17A.82.82,0,0,0,1.4,40.33l1.441-1.441,1.965,1.965L.241,45.42A.82.82,0,0,0,1.4,46.58l4.566-4.566,7.218,7.247A.82.82,0,0,0,14.347,48.1L9.879,43.616a3.464,3.464,0,0,0,2.676-3.674c.1.008.2.013.293.013A3.466,3.466,0,0,0,16.3,36.188a3.473,3.473,0,0,0,2.748-1l2.857-2.858.126.126v2.973a.811.811,0,0,1-.239.577l-1.465,1.465a3.871,3.871,0,0,0,0,5.468l2.57,2.57a.82.82,0,1,0,1.16-1.16l-2.57-2.57a2.228,2.228,0,0,1,0-3.147l1.465-1.465a2.44,2.44,0,0,0,.72-1.737V32.119a.821.821,0,0,0-.24-.58l-.947-.947a.82.82,0,0,0-1.16,0L17.892,34.03a1.84,1.84,0,0,1-2.565.025,1.784,1.784,0,0,1-.542-1.282,1.929,1.929,0,0,1,.558-1.375l5.27-5.27a1.834,1.834,0,0,1,2.59,0l2.655,2.655a5.723,5.723,0,0,1,1.66,3.626l.465,6.32a.821.821,0,0,0,.238.52L44.734,55.76a.82.82,0,1,0,1.16-1.16L29.6,38.3l-.442-6.016a7.365,7.365,0,0,0-2.137-4.666l-2.655-2.655a3.461,3.461,0,0,0-.771-.58l4.419-4.419,5.744,5.743a.82.82,0,1,0,1.16-1.16l-5.744-5.743L41.461,6.519,54.276,19.334a.285.285,0,0,1-.077.458l-6.976,3.369a3.045,3.045,0,0,0-1.409,1.41l-3.369,6.973a.284.284,0,0,1-.458.078l-4.364-4.364a.82.82,0,0,0-1.16,1.16l4.363,4.363a1.925,1.925,0,0,0,3.1-.523l3.369-6.975a1.4,1.4,0,0,1,.646-.647l6.976-3.369a1.925,1.925,0,0,0,.523-3.095ZM11.865,20.5a1.833,1.833,0,0,1,2.59,0l4.732,4.732-2.59,2.59-4.733-4.733a1.833,1.833,0,0,1,0-2.59Zm-.936,19.732A1.831,1.831,0,0,1,7.8,41.53L2.177,35.9a1.831,1.831,0,0,1,2.59-2.59l5.625,5.625A1.82,1.82,0,0,1,10.929,40.235Zm3.214-2.455a1.833,1.833,0,0,1-2.59,0L4.365,30.592A1.831,1.831,0,0,1,6.955,28l7.187,7.187A1.833,1.833,0,0,1,14.142,37.78Zm.042-7.542a3.567,3.567,0,0,0-.948,1.726L6.552,25.28a1.831,1.831,0,0,1,2.59-2.59l6.295,6.295Z"/>
        <path id="Trazado_117459" data-name="Trazado 117459" d="M17.048,50.817a.82.82,0,0,0-1.163,1.157l3.767,3.784A.82.82,0,1,0,20.815,54.6Z"/>
        <path id="Trazado_117460" data-name="Trazado 117460" d="M36.794,16.234l-1.4.992a2.02,2.02,0,0,0,.567,3.578l1.64.51a.379.379,0,0,1,.249.249l.51,1.64a2.007,2.007,0,0,0,1.613,1.4,2.057,2.057,0,0,0,.322.025,2.005,2.005,0,0,0,1.643-.854l.992-1.4a.384.384,0,0,1,.314-.16l1.718.022A2.02,2.02,0,0,0,46.6,19l-1.027-1.377a.379.379,0,0,1-.055-.349l.552-1.627a2.02,2.02,0,0,0-2.561-2.561l-1.627.552a.38.38,0,0,1-.348-.055l-1.377-1.027A2.02,2.02,0,0,0,36.932,14.2l.022,1.718a.379.379,0,0,1-.16.315Zm.947,1.339a2.019,2.019,0,0,0,.853-1.675l-.022-1.718a.369.369,0,0,1,.207-.343.4.4,0,0,1,.177-.043.366.366,0,0,1,.222.077L40.555,14.9a2.018,2.018,0,0,0,1.857.294l1.627-.552a.379.379,0,0,1,.481.481l-.552,1.627a2.019,2.019,0,0,0,.294,1.857l1.027,1.377a.379.379,0,0,1-.309.606l-1.718-.022a2.015,2.015,0,0,0-1.675.853l-.992,1.4a.379.379,0,0,1-.671-.106l-.51-1.64a2.019,2.019,0,0,0-1.329-1.329l-1.64-.51a.379.379,0,0,1-.106-.672Z"/>
      </g>
    </g>
  </g>
</svg>
