<svg xmlns="http://www.w3.org/2000/svg" xmlns:xlink="http://www.w3.org/1999/xlink" width="98.955" height="99.541" viewBox="0 0 98.955 99.541">
  <defs>
    <radialGradient id="radial-gradient" cx="0.076" cy="0.019" r="1.465" gradientTransform="translate(0.001)" gradientUnits="objectBoundingBox">
      <stop offset="0" stop-color="#f6f6f7"/>
      <stop offset="0.477" stop-color="#f9f9fa"/>
      <stop offset="0.715" stop-color="#fff"/>
    </radialGradient>
    <filter id="Trazado_40937" x="0" y="0.685" width="98.955" height="98.856" filterUnits="userSpaceOnUse">
      <feOffset dy="7" input="SourceAlpha"/>
      <feGaussianBlur stdDeviation="2.5" result="blur"/>
      <feFlood flood-opacity="0.102"/>
      <feComposite operator="in" in2="blur"/>
      <feComposite in="SourceGraphic"/>
    </filter>
  </defs>
  <g id="Grupo_1003852" data-name="Grupo 1003852" transform="translate(-278.586 -4733)">
    <g id="Grupo_997988" data-name="Grupo 997988" transform="translate(285 4733)">
      <g id="Grupo_18423" data-name="Grupo 18423" transform="translate(0 0)">
        <g id="Grupo_18421" data-name="Grupo 18421">
          <g id="Grupo_18420" data-name="Grupo 18420">
            <g id="Grupo_18419" data-name="Grupo 18419">
              <path id="Trazado_40936" data-name="Trazado 40936" d="M279.664,2188.24a42.521,42.521,0,1,1-42.52-42.519A42.52,42.52,0,0,1,279.664,2188.24Z" transform="translate(-194.623 -2145.721)" fill="#fff"/>
            </g>
          </g>
        </g>
        <g transform="matrix(1, 0, 0, 1, -6.41, 0)" filter="url(#Trazado_40937)">
          <path id="Trazado_40937-2" data-name="Trazado 40937" d="M279.432,2187.987a42.52,42.52,0,1,0-42.52,42.521A42.352,42.352,0,0,0,279.432,2187.987Z" transform="translate(-187.98 -2145.47)" fill="url(#radial-gradient)"/>
        </g>
        <path id="Trazado_40938" data-name="Trazado 40938" d="M267.371,2186.006a32.456,32.456,0,1,0-32.456,32.456A32.336,32.336,0,0,0,267.371,2186.006Z" transform="translate(-192.266 -2143.346)" fill="none" stroke="#4db1f0" stroke-miterlimit="10" stroke-width="4"/>
        <g id="Grupo_18422" data-name="Grupo 18422" transform="translate(7.533 23.872)">
          <path id="Trazado_40939" data-name="Trazado 40939" d="M273.754,2164.488a42.526,42.526,0,0,1-73.209,42.344,42.391,42.391,0,0,0,73.209-42.344Z" transform="translate(-200.545 -2164.488)" fill="#eceef0"/>
        </g>
      </g>
    </g>
    <g id="colombia_1_" data-name="colombia (1)" transform="translate(294.037 4739.533)">
      <path id="Trazado_118043" data-name="Trazado 118043" d="M6.17,52.907l20.217-.138V21.59L42.013,4.751a33.523,33.523,0,0,0-30.186,9.225L7.31,19.606A33.516,33.516,0,0,0,5.842,53.073Z" transform="translate(-2.062 -1.118)" fill="#5fc6ff"/>
      <path id="Trazado_118044" data-name="Trazado 118044" d="M16.5,20.089a26.779,26.779,0,0,0-2.72-2.45A33.632,33.632,0,0,0,9.261,23.27a3.98,3.98,0,0,1,1.543,1.6c.661,1.29,1.469,3.995,3.917,5.59a2.016,2.016,0,0,1,1.969-2.914c1.7,0,.146-4.1,3.7-4.655l-.072-.164A11.04,11.04,0,0,1,16.5,20.089Z" transform="translate(-4.014 -4.782)" fill="#3ba9f4"/>
      <path id="Trazado_118045" data-name="Trazado 118045" d="M42.55,4.8,27.156,21.393V51.87l-19.763.135-.751.379a33.49,33.49,0,0,0,28.906,18.87v0l18.824-4.961A33.489,33.489,0,0,0,42.55,4.8Z" transform="translate(-3.304 -1.303)" fill="#2d6bd6"/>
      <path id="Trazado_118046" data-name="Trazado 118046" d="M26.737,78.736a3.307,3.307,0,0,0,.813-1.365c.669-2.958,2.891-4.22,1.256-6.428-1.295-1.749-1.032-3.628-1.649-5.248v2.682l-19.763.135-.751.379A33.631,33.631,0,0,0,20.762,83.707C21.552,82.462,25.089,80.568,26.737,78.736Z" transform="translate(-3.304 -17.81)" fill="#2050bc"/>
      <path id="Trazado_118047" data-name="Trazado 118047" d="M17.974,33.945c1.171,1.907.043,3.989,1.214,6.24s-1.04,3.081-2.081,5.682a3,3,0,0,1-.941,1.127h49.78a1.587,1.587,0,0,1,.281-1.553l.3-.356a1.582,1.582,0,0,0,.068-1.962c-1.989-2.649-1.365-5.307-1.365-7.431,0-2.371,2.688-2.658,2.081-4.987s-6.33-.966-8.5-.186-2.775-.954-4.769-4.133-7.514,0-9.017,0-3.353-1.965-2.543-4.451-.347-3.064-3.006-4.8-.173-.983.694-5.607,2.486-1.445,4.162-4.856,4.682-1.214,4.682-3.793S47.367,0,47.367,0c-2.428,0-7.847,5.766-9.211,5.766a11.424,11.424,0,0,1-2.426-.383,1.185,1.185,0,0,0-1.443.91c-.213,1.017-.7,2.177-1.8,1.511C30.662,6.705,28.27,9,27.6,9.668s1.734,4.725-1,4.725-.607,3.121-4.422,3.555-2.168,4.682-3.9,4.682-3.468,1.864-.824,4.509-.65,4.9.52,6.807Z" transform="translate(-5.867 0)" fill="#ffc82e"/>
      <path id="Trazado_118048" data-name="Trazado 118048" d="M16.166,46.995h13.09a3.9,3.9,0,0,0-.249-.324c-1.576-1.839,1.561-4.81-1.716-7.186s-1.741-4.664.112-4.96-.631-4.556,3.373-5.669,1.2-4.088,4.121-4.553-.343-4.388.26-5.221a8.059,8.059,0,0,1,3.225-2.831c-.518-.781,1.118-1.144,1.788-4.718.867-4.624,2.486-1.445,4.162-4.856s4.682-1.214,4.682-3.793S47.367,0,47.367,0c-2.428,0-7.847,5.766-9.211,5.766a11.427,11.427,0,0,1-2.426-.383,1.184,1.184,0,0,0-1.443.91c-.213,1.017-.7,2.177-1.8,1.511C30.662,6.705,28.27,9,27.6,9.668s1.734,4.725-1,4.725-.607,3.121-4.422,3.555-2.168,4.682-3.9,4.682-3.468,1.864-.824,4.509-.65,4.9.52,6.806.043,3.989,1.214,6.24-1.04,3.081-2.081,5.682A3,3,0,0,1,16.166,46.995Z" transform="translate(-5.867 0)" fill="#f7b126"/>
      <path id="Trazado_118049" data-name="Trazado 118049" d="M58.971,84.456a2.491,2.491,0,0,1-.494-1.176H31.927c4.147.874,1.321,3.583,5.657,4.529,3.346.729,3.763,3.049,4.819,4.718.412.015.825.025,1.24.025a33.325,33.325,0,0,0,17.584-4.986c-.574-.921-1.387-1.83-2.255-3.11Z" transform="translate(-10.159 -22.577)" fill="#dd2a44"/>
      <path id="Trazado_118050" data-name="Trazado 118050" d="M8.282,69.293c3.642,1.445,2.254,6.3,8.208,6.3s3.353,1.676,8.266,2.428a7.8,7.8,0,0,1,1.194.269H51.858c-.407-2.03,4.055-1.467,4.055-3.448a3.062,3.062,0,0,0-1.988-2.64,1.556,1.556,0,0,1-.888-1.4V69.685a1.548,1.548,0,0,1,1.548-1.548h6c1.727,0,2.542,1.54,2.9,2.64a1.586,1.586,0,0,0,3.085-.656,7.725,7.725,0,0,0-2.545-5.074,1.562,1.562,0,0,1-.476-.812H14.021c-2.392,2.135-8.921,3.8-5.739,5.058Z" transform="translate(-3.516 -17.414)" fill="#12379e"/>
      <path id="Trazado_118051" data-name="Trazado 118051" d="M25.95,78.29h1.042a3.218,3.218,0,0,0,.77-1.315c.669-2.958,2.891-4.22,1.256-6.428-1.591-2.148-.83-4.493-2.239-6.312H14.021C11.629,66.37,5.1,68.03,8.282,69.293c3.642,1.445,2.254,6.3,8.208,6.3s3.353,1.676,8.266,2.428A7.8,7.8,0,0,1,25.95,78.29Z" transform="translate(-3.516 -17.414)" fill="#052c7a"/>
    </g>
  </g>
</svg>
