<svg xmlns="http://www.w3.org/2000/svg" xmlns:xlink="http://www.w3.org/1999/xlink" width="56" height="56" viewBox="0 0 56 56">
  <defs>
    <clipPath id="clip-path">
      <rect id="Rectángulo_34007" data-name="Rectángulo 34007" width="56" height="56" transform="translate(446 1283)" fill="#fff" stroke="#707070" stroke-width="1"/>
    </clipPath>
  </defs>
  <g id="Enmascarar_grupo_72" data-name="Enmascarar grupo 72" transform="translate(-446 -1283)" clip-path="url(#clip-path)">
    <g id="edificios-gubernamentales" transform="translate(446 1283)">
      <rect id="Rectángulo_34029" data-name="Rectángulo 34029" width="33.471" height="21.427" transform="translate(11.266 31.94)" fill="#f7cf9c"/>
      <rect id="Rectángulo_34030" data-name="Rectángulo 34030" width="3.105" height="21.427" transform="translate(11.266 31.94)" fill="#eab883"/>
      <path id="Trazado_117461" data-name="Trazado 117461" d="M22.758,44.148H22.4v9.22H33v-9.22Z" fill="#9e7430"/>
      <path id="Trazado_117462" data-name="Trazado 117462" d="M27.7,44.148H22.4v9.22h5.3Z" fill="#8e6325"/>
      <path id="Trazado_117463" data-name="Trazado 117463" d="M25.3,44.148H22.4v9.22H25.3Z" fill="#7f551d"/>
      <rect id="Rectángulo_34031" data-name="Rectángulo 34031" width="33.471" height="4.43" transform="translate(11.266 30.463)" fill="#eab883"/>
      <rect id="Rectángulo_34032" data-name="Rectángulo 34032" width="3.105" height="4.43" transform="translate(11.266 30.463)" fill="#dda878"/>
      <path id="Trazado_117464" data-name="Trazado 117464" d="M20.072,30.464V50.749h2.987V30.464Z" fill="#e6e6e6"/>
      <path id="Trazado_117465" data-name="Trazado 117465" d="M20.072,30.464V50.749h1.494V30.464Z" fill="#ccc"/>
      <path id="Trazado_117466" data-name="Trazado 117466" d="M32.339,30.464V50.749h2.987V30.464Z" fill="#e6e6e6"/>
      <g id="Grupo_83865" data-name="Grupo 83865">
        <path id="Trazado_117467" data-name="Trazado 117467" d="M32.339,30.464V50.749h1.494V30.464Z" fill="#ccc"/>
        <path id="Trazado_117468" data-name="Trazado 117468" d="M35.638,52.226H32.028a1.481,1.481,0,0,1-1.477-1.477h0a1.481,1.481,0,0,1,1.477-1.477h3.609a1.481,1.481,0,0,1,1.477,1.477h0A1.481,1.481,0,0,1,35.638,52.226Z" fill="#ccc"/>
        <path id="Trazado_117469" data-name="Trazado 117469" d="M23.37,52.226H19.761a1.481,1.481,0,0,1-1.477-1.477h0a1.481,1.481,0,0,1,1.477-1.477H23.37a1.481,1.481,0,0,1,1.477,1.477h0A1.481,1.481,0,0,1,23.37,52.226Z" fill="#ccc"/>
      </g>
      <g id="Grupo_83866" data-name="Grupo 83866">
        <path id="Trazado_117470" data-name="Trazado 117470" d="M20.819,50.749A1.481,1.481,0,0,1,22.3,49.273H19.761a1.477,1.477,0,0,0,0,2.954H22.3A1.481,1.481,0,0,1,20.819,50.749Z" fill="#b7b7b7"/>
        <path id="Trazado_117471" data-name="Trazado 117471" d="M33.086,50.749a1.481,1.481,0,0,1,1.477-1.477H32.028a1.477,1.477,0,0,0,0,2.954h2.535A1.481,1.481,0,0,1,33.086,50.749Z" fill="#b7b7b7"/>
      </g>
      <path id="Trazado_117472" data-name="Trazado 117472" d="M38.006,3.146H28.393V9.819h9.522a.408.408,0,0,0,.408-.408V3.462A.316.316,0,0,0,38.006,3.146Z" fill="#ed5a5a"/>
      <path id="Trazado_117473" data-name="Trazado 117473" d="M28.393,3.146V9.819h4.04V3.146Z" fill="#e04b4b"/>
      <path id="Trazado_117474" data-name="Trazado 117474" d="M27.75.842A1.476,1.476,0,0,0,26.525,2.3V17.69h2.953V2.3A1.475,1.475,0,0,0,27.75.842Z" fill="#e6e6e6"/>
      <path id="Trazado_117475" data-name="Trazado 117475" d="M28,2.3a1.473,1.473,0,0,1,.739-1.277A1.478,1.478,0,0,0,26.525,2.3V17.69H28C28,15.955,28,4.24,28,2.3Z" fill="#ccc"/>
      <path id="SVGCleanerId_0" d="M46.643,27.048,32.814,17.067a2.671,2.671,0,0,0-1.563-.505H24.478a2.383,2.383,0,0,0-1.394.451L9.526,26.8c-.529.381-.329.978-.372,1.338v1.227h0l-.007,1.474a1.155,1.155,0,0,0,1.154,1.1H45.7a1.157,1.157,0,0,0,1.1-.812,3.388,3.388,0,0,0,.052-.943V28.06C46.815,27.61,46.95,27.27,46.643,27.048Z" fill="#9e7430"/>
      <g id="Grupo_83867" data-name="Grupo 83867">
        <path id="SVGCleanerId_0_1_" d="M46.643,27.048,32.814,17.067a2.671,2.671,0,0,0-1.563-.505H24.478a2.383,2.383,0,0,0-1.394.451L9.526,26.8c-.529.381-.329.978-.372,1.338v1.227h0l-.007,1.474a1.155,1.155,0,0,0,1.154,1.1H45.7a1.157,1.157,0,0,0,1.1-.812,3.388,3.388,0,0,0,.052-.943V28.06C46.815,27.61,46.95,27.27,46.643,27.048Z" fill="#9e7430"/>
      </g>
      <path id="Trazado_117476" data-name="Trazado 117476" d="M12.124,30.493h0c0-.749,0-1.417,0-2.166a1.056,1.056,0,0,1,.438-.856L27.676,16.562c-2.747.1-3.59-.273-4.593.451L9.526,26.8c-.529.381-.329.978-.372,1.338v1.227h0l-.007,1.474a1.155,1.155,0,0,0,1.154,1.1h1.815Z" fill="#8e6325"/>
      <path id="Trazado_117477" data-name="Trazado 117477" d="M46.8,31.128a10.446,10.446,0,0,0,.052-2.141H9.155v.375h0l-.007,1.474a1.155,1.155,0,0,0,1.154,1.1H45.7A1.157,1.157,0,0,0,46.8,31.128Z" fill="#7f551d"/>
      <path id="Trazado_117478" data-name="Trazado 117478" d="M12.1,30.836l.007-1.474h0v-.375H9.155v.375h0l-.007,1.474a1.155,1.155,0,0,0,1.154,1.1h2.953A1.155,1.155,0,0,1,12.1,30.836Z" fill="#724817"/>
      <path id="Trazado_117479" data-name="Trazado 117479" d="M51,53.451a1.477,1.477,0,0,0-1.454-1.225H6.461a1.477,1.477,0,0,0,0,2.954H49.543A1.475,1.475,0,0,0,51,53.451Z" fill="#8e6325"/>
      <path id="Trazado_117480" data-name="Trazado 117480" d="M12.688,53.324a1.476,1.476,0,0,1,1.426-1.1H6.461a1.477,1.477,0,0,0,0,2.954h7.653A1.476,1.476,0,0,1,12.688,53.324Z" fill="#7f551d"/>
      <path id="Trazado_117481" data-name="Trazado 117481" d="M39.31,38.852a.82.82,0,0,0-1.641,0v1.932a.82.82,0,0,0,1.641,0Z"/>
      <path id="Trazado_117482" data-name="Trazado 117482" d="M42.451,38.852a.82.82,0,0,0-1.641,0v1.932a.82.82,0,1,0,1.641,0Z"/>
      <path id="Trazado_117483" data-name="Trazado 117483" d="M38.489,43.437a.82.82,0,0,0-.82.82V46.19a.82.82,0,0,0,1.641,0V44.258A.82.82,0,0,0,38.489,43.437Z"/>
      <path id="Trazado_117484" data-name="Trazado 117484" d="M41.631,43.437a.82.82,0,0,0-.82.82V46.19a.82.82,0,1,0,1.641,0V44.258A.82.82,0,0,0,41.631,43.437Z"/>
      <path id="Trazado_117485" data-name="Trazado 117485" d="M14.37,38.032a.82.82,0,0,0-.82.82v1.932a.82.82,0,1,0,1.641,0V38.852A.82.82,0,0,0,14.37,38.032Z"/>
      <path id="Trazado_117486" data-name="Trazado 117486" d="M17.512,41.6a.82.82,0,0,0,.82-.82V38.852a.82.82,0,0,0-1.641,0v1.932A.82.82,0,0,0,17.512,41.6Z"/>
      <path id="Trazado_117487" data-name="Trazado 117487" d="M14.37,43.437a.82.82,0,0,0-.82.82V46.19a.82.82,0,1,0,1.641,0V44.258A.82.82,0,0,0,14.37,43.437Z"/>
      <path id="Trazado_117488" data-name="Trazado 117488" d="M18.332,44.258a.82.82,0,1,0-1.641,0V46.19a.82.82,0,1,0,1.641,0Z"/>
      <path id="Trazado_117489" data-name="Trazado 117489" d="M26.07,38.032a.82.82,0,0,0-.82.82v1.932a.82.82,0,1,0,1.641,0V38.852A.82.82,0,0,0,26.07,38.032Z"/>
      <path id="Trazado_117490" data-name="Trazado 117490" d="M29.211,41.6a.82.82,0,0,0,.82-.82V38.852a.82.82,0,0,0-1.641,0v1.932A.821.821,0,0,0,29.211,41.6Z"/>
      <path id="Trazado_117491" data-name="Trazado 117491" d="M49.542,51.406H45.557V47.138a.82.82,0,0,0-1.641,0v4.268h-6.08a2.292,2.292,0,0,0-1.691-2.895v-12.8h7.771v7.595a.82.82,0,1,0,1.641,0V32.761H45.7a1.973,1.973,0,0,0,1.977-1.976c0-2.535,0-2.937-.009-3.343a1.319,1.319,0,0,0-.545-1.059L33.292,16.4a4.576,4.576,0,0,0-2.995-.66v-5.1h7.615a1.229,1.229,0,0,0,1.228-1.228V3.462A1.138,1.138,0,0,0,38,2.325H30.3V2.3a2.3,2.3,0,0,0-4.594,0V4.568a.82.82,0,0,0,1.641,0V2.3a.656.656,0,0,1,1.313,0V15.741H27.344V8.4a.82.82,0,0,0-1.641,0v7.345c-.831.068-1.923-.245-3.1.606L9.045,26.132a1.721,1.721,0,0,0-.712,1.392c0,3.437-.045,3.445.081,3.847a2,2,0,0,0,2.031,1.389V51.406H6.459a2.3,2.3,0,0,0,0,4.594H49.542a2.3,2.3,0,1,0,0-4.594ZM30.3,3.966h7.2V9H30.3V3.966Zm5.995,46.783a.657.657,0,0,1-.656.656H32.026a.656.656,0,1,1,0-1.313h3.609A.657.657,0,0,1,36.292,50.749Zm-6.468.656H28.518V44.969h3v3.54A2.3,2.3,0,0,0,29.825,51.406Zm-5.947-2.9v-3.54h3v6.437H25.57A2.3,2.3,0,0,0,23.877,48.509Zm-6.319,2.9H12.085V35.714H19.25v12.8A2.3,2.3,0,0,0,17.559,51.406ZM12.085,34.074V32.761H19.25v1.313Zm7.674,16.019c.011,0,3.62,0,3.677,0a.656.656,0,0,1-.067,1.309H19.759a.656.656,0,1,1,0-1.313Zm1.132-1.641V32.761h1.346V48.452H20.891Zm2.987-5.124V35.714h7.64v7.613Zm0-9.254V32.761h7.64v1.313Zm9.281,14.379V32.761H34.5V48.452ZM43.916,34.074H36.145V32.761h7.771ZM10.3,31.12a.335.335,0,0,1-.321-.236,7.653,7.653,0,0,1-.008-1.076h8.184a.82.82,0,1,0,0-1.641H9.973c.01-.6-.027-.661.031-.7,14.218-10.135,13.53-10.081,14.472-10.081h6.773c1.093,0,.393,0,14.779,10.235,0,.011.007.586.006.549H21.984a.82.82,0,0,0,0,1.641h24.05a6.6,6.6,0,0,1-.015,1.077.335.335,0,0,1-.321.236H10.3ZM49.542,54.359H6.459a.655.655,0,0,1-.639-.8.664.664,0,0,1,.639-.51H49.542a.656.656,0,1,1,0,1.313Z"/>
    </g>
  </g>
</svg>
