<svg xmlns="http://www.w3.org/2000/svg" xmlns:xlink="http://www.w3.org/1999/xlink" width="190" height="134" viewBox="0 0 190 134">
  <defs>
    <clipPath id="clip-path">
      <rect id="Rect치ngulo_33792" data-name="Rect치ngulo 33792" width="148" height="116" transform="translate(214 5032.229)" fill="#0b481e"/>
    </clipPath>
  </defs>
  <g id="Grupo_84083" data-name="Grupo 84083" transform="translate(-180 -5013)">
    <rect id="Rect치ngulo_33791" data-name="Rect치ngulo 33791" width="190" height="134" transform="translate(180 5013)" fill="#fff"/>
    <g id="Enmascarar_grupo_95" data-name="Enmascarar grupo 95" transform="translate(-13 -10.229)" clip-path="url(#clip-path)">
      <g id="colombia_1_" data-name="colombia (1)" transform="translate(232.273 5032)">
        <path id="Trazado_118043" data-name="Trazado 118043" d="M8.9,85.314l33.648-.23V33.193L68.553,5.167A55.792,55.792,0,0,0,18.314,20.52L10.8,29.89a55.781,55.781,0,0,0-2.443,55.7Z" transform="translate(-2.062 0.879)" fill="#5fc6ff"/>
        <path id="Trazado_118044" data-name="Trazado 118044" d="M21.307,21.716a44.568,44.568,0,0,0-4.527-4.077A55.974,55.974,0,0,0,9.261,27.01a6.623,6.623,0,0,1,2.568,2.667c1.1,2.147,2.444,6.648,6.518,9.3-1.246-2.943,1.014-4.849,3.276-4.849,2.834,0,.242-6.817,6.159-7.747l-.12-.273a18.375,18.375,0,0,1-6.356-4.4Z" transform="translate(-0.528 3.759)" fill="#3ba9f4"/>
        <path id="Trazado_118045" data-name="Trazado 118045" d="M66.4,4.8,40.784,32.412V83.136l-32.891.225-1.25.631A55.738,55.738,0,0,0,54.752,115.4l0,0,31.329-8.256A55.736,55.736,0,0,0,66.4,4.8Z" transform="translate(-1.086 1.024)" fill="#2d6bd6"/>
        <path id="Trazado_118046" data-name="Trazado 118046" d="M40.085,87.4a5.5,5.5,0,0,0,1.353-2.272c1.113-4.922,4.811-7.023,2.091-10.7-2.155-2.91-1.717-6.038-2.745-8.734v4.464l-32.891.225-1.25.631a55.972,55.972,0,0,0,23.5,24.657c1.315-2.071,7.2-5.224,9.943-8.273Z" transform="translate(-1.086 14.001)" fill="#2050bc"/>
        <path id="Trazado_118047" data-name="Trazado 118047" d="M19.222,56.5c1.948,3.175.072,6.638,2.02,10.386s-1.732,5.127-3.463,9.456a4.987,4.987,0,0,1-1.565,1.876H99.063a2.642,2.642,0,0,1,.467-2.584l.5-.592a2.632,2.632,0,0,0,.113-3.266c-3.31-4.409-2.273-8.832-2.273-12.367,0-3.946,4.473-4.424,3.463-8.3S90.8,49.5,87.19,50.8s-4.618-1.587-7.937-6.879-12.506,0-15.008,0-5.58-3.271-4.233-7.408-.577-5.1-5-7.985-.289-1.635,1.154-9.332,4.137-2.405,6.927-8.081,7.793-2.02,7.793-6.313S68.141,0,68.141,0C64.1,0,55.082,9.6,52.812,9.6a19.013,19.013,0,0,1-4.038-.638,1.971,1.971,0,0,0-2.4,1.514c-.355,1.693-1.167,3.623-3,2.515-3.03-1.828-7.011,1.984-8.129,3.1s2.886,7.865-1.66,7.865-1.01,5.195-7.359,5.916-3.608,7.793-6.494,7.793-5.772,3.1-1.371,7.5-1.082,8.153.866,11.328Z" transform="translate(0.928 0)" fill="#ffc82e"/>
        <path id="Trazado_118048" data-name="Trazado 118048" d="M16.214,78.213H38a6.492,6.492,0,0,0-.414-.54c-2.623-3.061,2.6-8.006-2.856-11.96s-2.9-7.762.187-8.254-1.051-7.583,5.613-9.436,2-6.8,6.858-7.578-.571-7.3.434-8.689c.738-1.017,2.877-3.847,5.367-4.712-.862-1.3,1.861-1.9,2.976-7.852,1.443-7.7,4.137-2.405,6.927-8.081s7.793-2.02,7.793-6.313S68.141,0,68.141,0C64.1,0,55.082,9.6,52.811,9.6a19.017,19.017,0,0,1-4.038-.638,1.971,1.971,0,0,0-2.4,1.514c-.355,1.693-1.167,3.623-3,2.515-3.03-1.828-7.011,1.984-8.129,3.1s2.886,7.865-1.66,7.865-1.01,5.195-7.359,5.916-3.608,7.793-6.494,7.793-5.772,3.1-1.371,7.5-1.082,8.153.866,11.328.072,6.638,2.02,10.386-1.732,5.127-3.463,9.456A4.992,4.992,0,0,1,16.214,78.213Z" transform="translate(0.928 0)" fill="#f7b126"/>
        <path id="Trazado_118049" data-name="Trazado 118049" d="M76.937,85.237a4.145,4.145,0,0,1-.823-1.957H31.927c6.9,1.455,2.2,5.964,9.415,7.537,5.568,1.213,6.263,5.075,8.02,7.851.685.025,1.372.042,2.064.042a55.462,55.462,0,0,0,29.265-8.3c-.956-1.533-2.309-3.046-3.754-5.175Z" transform="translate(4.302 17.748)" fill="#dd2a44"/>
        <path id="Trazado_118050" data-name="Trazado 118050" d="M8.852,72.653c6.061,2.405,3.752,10.486,13.661,10.486s5.58,2.79,13.757,4.041a12.987,12.987,0,0,1,1.986.448H81.375c-.677-3.378,6.748-2.442,6.748-5.739,0-2.365-1.9-3.718-3.308-4.394a2.589,2.589,0,0,1-1.478-2.33V73.306a2.577,2.577,0,0,1,2.577-2.577h9.977c2.875,0,4.23,2.563,4.831,4.395a2.64,2.64,0,0,0,5.134-1.092,12.857,12.857,0,0,0-4.236-8.445,2.6,2.6,0,0,1-.793-1.351H18.4c-3.981,3.553-14.848,6.316-9.551,8.418Z" transform="translate(-0.92 13.689)" fill="#12379e"/>
        <path id="Trazado_118051" data-name="Trazado 118051" d="M38.256,87.627H39.99a5.355,5.355,0,0,0,1.281-2.189c1.113-4.922,4.811-7.023,2.091-10.7-2.647-3.575-1.381-7.478-3.726-10.506H18.4c-3.98,3.553-14.847,6.316-9.551,8.418,6.061,2.405,3.752,10.486,13.661,10.486s5.58,2.79,13.757,4.041A12.987,12.987,0,0,1,38.256,87.627Z" transform="translate(-0.92 13.689)" fill="#052c7a"/>
      </g>
    </g>
  </g>
</svg>
