<svg xmlns="http://www.w3.org/2000/svg" xmlns:xlink="http://www.w3.org/1999/xlink" width="56" height="56" viewBox="0 0 56 56">
  <defs>
    <clipPath id="clip-path">
      <rect id="Rectángulo_34020" data-name="Rectángulo 34020" width="56" height="56" transform="translate(196 1400)" fill="#fff" stroke="#707070" stroke-width="1"/>
    </clipPath>
  </defs>
  <g id="Enmascarar_grupo_83" data-name="Enmascarar grupo 83" transform="translate(-196 -1400)" clip-path="url(#clip-path)">
    <g id="corporativo" transform="translate(195.097 1399.097)">
      <g id="Grupo_84009" data-name="Grupo 84009">
        <g id="Grupo_83992" data-name="Grupo 83992">
          <path id="Trazado_117798" data-name="Trazado 117798" d="M47.943,15.725a3.6,3.6,0,0,0,1.734-3.08V9.935h-1.59a8.557,8.557,0,0,1-3.83-.9,1.812,1.812,0,0,0-1.806,1.806v1.806A3.636,3.636,0,0,0,43.508,15.2l.677.524v.009a2.352,2.352,0,0,1-.145.425,2.666,2.666,0,0,1-.7.994,8.279,8.279,0,0,1-4.272-3.27l-.226-.334.985-6.386a6.314,6.314,0,0,1,12.483,0l.985,6.386-.226.334a8.279,8.279,0,0,1-4.272,3.27,2.666,2.666,0,0,1-.7-.994,2.352,2.352,0,0,1-.145-.425Z" fill="#656d78"/>
        </g>
        <g id="Grupo_83993" data-name="Grupo 83993">
          <path id="Trazado_117799" data-name="Trazado 117799" d="M18.065,8.129V18.462l-.163-.054-2.385-.686a2.694,2.694,0,0,1-1.9-1.987v-.009a3.6,3.6,0,0,0,1.734-3.08V9.935l-.9-.9H9.032l-.9.9v2.71A3.636,3.636,0,0,0,9.186,15.2a3.774,3.774,0,0,0,.677.524v.009a2.694,2.694,0,0,1-1.9,1.987l-2.385.686-.163.054V8.129a6.323,6.323,0,1,1,12.645,0Z" fill="#656d78"/>
        </g>
        <g id="Grupo_83994" data-name="Grupo 83994">
          <path id="Trazado_117800" data-name="Trazado 117800" d="M36.129,6.088V7.135a3.108,3.108,0,0,1-.027.415,3.183,3.183,0,0,1-1.093,1.96l-.723.65a1.746,1.746,0,0,0-.867-.226H30.926a8.557,8.557,0,0,1-3.83-.9,1.8,1.8,0,0,0-1.563.9H24.387a1.746,1.746,0,0,0-.867.226l-.723-.65A3.183,3.183,0,0,1,21.7,7.551a3.107,3.107,0,0,1-.027-.415V6.088a3.179,3.179,0,0,1,1.255-2.52L24.45,2.439a3.105,3.105,0,0,1,1.888-.632H26.7a3.148,3.148,0,0,1,2.2.9,3.148,3.148,0,0,1,2.2-.9h.361a3.105,3.105,0,0,1,1.888.632l1.517,1.129a3.179,3.179,0,0,1,1.255,2.52Z" fill="#b27946"/>
        </g>
        <g id="Grupo_83995" data-name="Grupo 83995">
          <path id="Trazado_117801" data-name="Trazado 117801" d="M33.419,28.9H19.871V21.677a3.421,3.421,0,0,1,2.637-3.333l2.619-.623a2.7,2.7,0,0,0,.948-.488L28.9,20.774l2.827-3.541a2.7,2.7,0,0,0,.948.488l2.619.623a3.421,3.421,0,0,1,2.637,3.333V28.9Z" fill="#fcd770"/>
        </g>
        <g id="Grupo_83996" data-name="Grupo 83996">
          <path id="Trazado_117802" data-name="Trazado 117802" d="M48.792,17.152a2.633,2.633,0,0,0,1.048.569l2.385.686a2.707,2.707,0,0,1,1.969,2.6V28.9H37.935V21.009a2.707,2.707,0,0,1,1.969-2.6l2.385-.686a2.633,2.633,0,0,0,1.048-.569,2.666,2.666,0,0,0,.7-.994l.217.1v1.806a1.812,1.812,0,0,0,1.806,1.806,1.82,1.82,0,0,0,1.806-1.806V16.258l.217-.1a2.666,2.666,0,0,0,.7.994Z" fill="#5cd6b3"/>
        </g>
        <g id="Grupo_83997" data-name="Grupo 83997">
          <path id="Trazado_117803" data-name="Trazado 117803" d="M18.065,18.462a2.7,2.7,0,0,1,1.806,2.547V28.9H3.613V21.009a2.7,2.7,0,0,1,1.806-2.547l.163-.054,2.385-.686a2.694,2.694,0,0,0,1.9-1.987v-.009a.317.317,0,0,0,.072.045v2.294a1.812,1.812,0,0,0,1.806,1.806,1.82,1.82,0,0,0,1.806-1.806V15.77a.317.317,0,0,0,.072-.045v.009a2.694,2.694,0,0,0,1.9,1.987l2.385.686Z" fill="#ff826e"/>
        </g>
        <g id="Grupo_83998" data-name="Grupo 83998">
          <path id="Trazado_117804" data-name="Trazado 117804" d="M47.871,16.258v1.806a1.82,1.82,0,0,1-1.806,1.806,1.812,1.812,0,0,1-1.806-1.806V16.258l-.217-.1a2.352,2.352,0,0,0,.145-.425v-.009a11.874,11.874,0,0,0,1.879.533,3.53,3.53,0,0,0,1.879-.533v.009a2.352,2.352,0,0,0,.145.425Z" fill="#f0d0b4"/>
        </g>
        <g id="Grupo_83999" data-name="Grupo 83999">
          <path id="Trazado_117805" data-name="Trazado 117805" d="M49.677,9.935v2.71a3.6,3.6,0,0,1-1.734,3.08,3.53,3.53,0,0,1-1.879.533,11.874,11.874,0,0,1-1.879-.533l-.677-.524a3.636,3.636,0,0,1-1.057-2.556V10.839a1.812,1.812,0,0,1,1.806-1.806,8.557,8.557,0,0,0,3.83.9Z" fill="#f0d0b4"/>
        </g>
        <g id="Grupo_84000" data-name="Grupo 84000">
          <path id="Trazado_117806" data-name="Trazado 117806" d="M35.226,11.742a1.812,1.812,0,0,1-1.806,1.806H32.4a3.3,3.3,0,0,0,.117-.9V9.935h.9a1.746,1.746,0,0,1,.867.226,1.507,1.507,0,0,1,.406.307A1.766,1.766,0,0,1,35.226,11.742Z" fill="#f0d0b4"/>
        </g>
        <g id="Grupo_84001" data-name="Grupo 84001">
          <path id="Trazado_117807" data-name="Trazado 117807" d="M30.782,15.734a2.661,2.661,0,0,0,.948,1.5L28.9,20.774l-2.827-3.541a2.661,2.661,0,0,0,.948-1.5v-.009a11.874,11.874,0,0,0,1.879.533,3.507,3.507,0,0,0,1.879-.533Z" fill="#f0d0b4"/>
        </g>
        <g id="Grupo_84002" data-name="Grupo 84002">
          <path id="Trazado_117808" data-name="Trazado 117808" d="M32.4,13.548a3.569,3.569,0,0,1-1.617,2.177,3.507,3.507,0,0,1-1.879.533,11.874,11.874,0,0,1-1.879-.533,3.775,3.775,0,0,1-.677-.524,3.557,3.557,0,0,1-.939-1.653,3.3,3.3,0,0,1-.117-.9V10.839A1.811,1.811,0,0,1,27.1,9.032a8.557,8.557,0,0,0,3.83.9h1.59v2.71a3.3,3.3,0,0,1-.117.9Z" fill="#f0d0b4"/>
        </g>
        <g id="Grupo_84003" data-name="Grupo 84003">
          <path id="Trazado_117809" data-name="Trazado 117809" d="M25.29,12.645a3.3,3.3,0,0,0,.117.9H24.387a1.82,1.82,0,0,1-1.806-1.806,1.806,1.806,0,0,1,.939-1.581,1.746,1.746,0,0,1,.867-.226h1.147a1.8,1.8,0,0,0-.244.9Z" fill="#f0d0b4"/>
        </g>
        <g id="Grupo_84004" data-name="Grupo 84004">
          <path id="Trazado_117810" data-name="Trazado 117810" d="M13.548,15.77v2.294a1.82,1.82,0,0,1-1.806,1.806,1.812,1.812,0,0,1-1.806-1.806V15.77a3.589,3.589,0,0,0,3.613,0Z" fill="#f0d0b4"/>
        </g>
        <g id="Grupo_84005" data-name="Grupo 84005">
          <path id="Trazado_117811" data-name="Trazado 117811" d="M15.355,9.935v2.71a3.6,3.6,0,0,1-1.734,3.08.317.317,0,0,1-.072.045,3.589,3.589,0,0,1-3.613,0,.317.317,0,0,1-.072-.045,3.774,3.774,0,0,1-.677-.524,3.636,3.636,0,0,1-1.057-2.556V9.935l.9-.9h5.419Z" fill="#f0d0b4"/>
        </g>
        <g id="Grupo_84006" data-name="Grupo 84006">
          <path id="Trazado_117812" data-name="Trazado 117812" d="M3.613,32.516H54.194V56H3.613Z" fill="#cf9e76"/>
        </g>
        <g id="Grupo_84007" data-name="Grupo 84007">
          <path id="Trazado_117813" data-name="Trazado 117813" d="M56,29.806v1.806a.906.906,0,0,1-.9.9H2.71a.906.906,0,0,1-.9-.9V29.806a.906.906,0,0,1,.9-.9H55.1A.906.906,0,0,1,56,29.806Z" fill="#d3a06c"/>
        </g>
        <g id="Grupo_84008" data-name="Grupo 84008">
          <path id="Trazado_117814" data-name="Trazado 117814" d="M48.774,56H9.032a19.871,19.871,0,1,1,39.742,0Z" fill="#69d6f4"/>
        </g>
      </g>
      <path id="Trazado_117815" data-name="Trazado 117815" d="M55.1,28V21.012a3.628,3.628,0,0,0-2.62-3.474l-1.494-.427a9.237,9.237,0,0,0,2.836-2.729l.417-.625L53.2,7.025a7.219,7.219,0,0,0-14.271,0l-1.036,6.733.416.624a9.24,9.24,0,0,0,2.837,2.729l-1.493.427a3.609,3.609,0,0,0-1.888,1.3,4.309,4.309,0,0,0-2.259-1.371l-2.584-.611a1.8,1.8,0,0,1-1.057-.828,4.524,4.524,0,0,0,1.171-1.574h.383a2.7,2.7,0,0,0,2.2-4.277A4.1,4.1,0,0,0,37,7.656a4.454,4.454,0,0,0,.031-.516V6.09a4.073,4.073,0,0,0-1.62-3.242L33.9,1.713A4.083,4.083,0,0,0,31.467.9h-.356a4.021,4.021,0,0,0-2.207.653A4.021,4.021,0,0,0,26.7.9H26.34a4.083,4.083,0,0,0-2.431.81L22.394,2.849A4.074,4.074,0,0,0,20.774,6.09V7.14a4.262,4.262,0,0,0,.032.516,4.093,4.093,0,0,0,1.379,2.519,2.683,2.683,0,0,0-.508,1.567,2.713,2.713,0,0,0,2.71,2.71h.383a4.51,4.51,0,0,0,1.171,1.575,1.759,1.759,0,0,1-1.018.817l-2.624.621a4.312,4.312,0,0,0-2.259,1.371,3.633,3.633,0,0,0-1.073-.938V8.129a7.226,7.226,0,1,0-14.452,0V17.9A3.62,3.62,0,0,0,2.71,21.011V28A1.808,1.808,0,0,0,.9,29.806v1.806A1.808,1.808,0,0,0,2.71,33.419V56.9H55.1V33.419A1.808,1.808,0,0,0,56.9,31.613V29.806A1.808,1.808,0,0,0,55.1,28ZM48.774,12.645a2.71,2.71,0,0,1-5.419,0V10.839a.905.905,0,0,1,.731-.887,9.513,9.513,0,0,0,4,.887h.69ZM45.161,17.07a4.517,4.517,0,0,0,1.806,0v.994a.9.9,0,1,1-1.806,0Zm-5.349-3.691-.027-.041L40.715,7.3a5.413,5.413,0,0,1,10.7,0l.929,6.039-.028.042a7.44,7.44,0,0,1-3.263,2.682c-.008-.013-.019-.023-.026-.036a4.488,4.488,0,0,0,1.554-3.381V9.032h-2.5a7.685,7.685,0,0,1-3.422-.808l-.191-.095h-.213a2.713,2.713,0,0,0-2.71,2.71v1.806A4.488,4.488,0,0,0,43.1,16.026c-.007.013-.018.023-.026.036a7.436,7.436,0,0,1-3.263-2.683Zm-.974,7.632a1.814,1.814,0,0,1,1.311-1.737l2.392-.684a3.6,3.6,0,0,0,.831-.359,2.7,2.7,0,0,0,5.385,0,3.6,3.6,0,0,0,.831.359l2.393.684a1.814,1.814,0,0,1,1.31,1.737V28H51.484V22.581H49.677V28H42.452V22.581H40.645V28H38.839V21.012ZM26.194,12.645V10.839a.905.905,0,0,1,.731-.887,9.513,9.513,0,0,0,4,.887h.69v1.806a2.71,2.71,0,1,1-5.419,0Zm7.226,0V10.839a.9.9,0,0,1,0,1.806Zm-9.935-.9a.9.9,0,0,1,.9-.9v1.806A.9.9,0,0,1,23.484,11.742Zm1.608-2.71h-.7a2.676,2.676,0,0,0-.668.093l-.32-.286a2.3,2.3,0,0,1-.8-1.4,2.542,2.542,0,0,1-.018-.3V6.09a2.257,2.257,0,0,1,.9-1.8l1.514-1.135a2.259,2.259,0,0,1,1.348-.45H26.7a2.233,2.233,0,0,1,1.574.644l.633.623.633-.623a2.231,2.231,0,0,1,1.574-.644h.356a2.259,2.259,0,0,1,1.348.45l1.514,1.134a2.258,2.258,0,0,1,.9,1.8V7.14a2.557,2.557,0,0,1-.018.3,2.307,2.307,0,0,1-.8,1.4l-.32.286a2.636,2.636,0,0,0-.668-.094h-2.5A7.685,7.685,0,0,1,27.5,8.224l-.191-.095H27.1a2.7,2.7,0,0,0-2.005.9ZM28.9,17.161a4.44,4.44,0,0,0,1.391-.242,3.686,3.686,0,0,0,.242.368L28.9,19.328l-1.632-2.04a3.7,3.7,0,0,0,.242-.369,4.439,4.439,0,0,0,1.39.242Zm-6.187,2.061,2.664-.631a3.618,3.618,0,0,0,.48-.176L28.9,22.22l3.047-3.81a3.779,3.779,0,0,0,.516.191l2.624.621a2.512,2.512,0,0,1,1.942,2.454V28h-2.71V22.581H32.516V28H25.29V22.581H23.484V28h-2.71V21.677A2.514,2.514,0,0,1,22.716,19.222ZM11.742,2.71a5.425,5.425,0,0,1,5.419,5.419v9.125l-1.4-.4a1.8,1.8,0,0,1-1.057-.828,4.488,4.488,0,0,0,1.554-3.381V9.562L14.826,8.129H8.658L7.226,9.562v3.084a4.488,4.488,0,0,0,1.554,3.381,1.8,1.8,0,0,1-1.058.828l-1.4.4V8.129A5.425,5.425,0,0,1,11.742,2.71Zm2.71,9.935a2.71,2.71,0,1,1-5.419,0V10.309l.374-.374h4.671l.374.374ZM10.839,17.07a4.517,4.517,0,0,0,1.806,0v.994a.9.9,0,0,1-1.806,0ZM4.516,21.012a1.814,1.814,0,0,1,1.311-1.737l2.392-.684a3.6,3.6,0,0,0,.831-.359,2.7,2.7,0,0,0,5.385,0,3.6,3.6,0,0,0,.831.359l2.393.684a1.814,1.814,0,0,1,1.31,1.737V28H17.161V22.581H15.355V28H8.129V22.581H6.323V28H4.516ZM36.657,49.677H46.765a18.814,18.814,0,0,1,1.06,5.419h-10.8A53.4,53.4,0,0,0,36.657,49.677ZM35.209,55.1H22.6a50.786,50.786,0,0,1,.368-5.419H34.843a50.8,50.8,0,0,1,.366,5.419Zm1.2-7.226c-.689-4.344-1.94-8.18-3.716-10.458A19.019,19.019,0,0,1,46.015,47.871Zm-1.827,0H23.227C24.339,41.23,26.71,37.032,28.9,37.032S33.467,41.23,34.579,47.871Zm-13.179,0H11.792A19.02,19.02,0,0,1,25.115,37.413C23.34,39.691,22.088,43.527,21.4,47.871ZM11.042,49.677H21.149a53.394,53.394,0,0,0-.367,5.419H9.982A18.815,18.815,0,0,1,11.042,49.677ZM53.29,55.1H49.655a20.771,20.771,0,0,0-41.5,0H4.516V33.419H53.29ZM2.71,31.613V29.806H55.1v1.806Z"/>
    </g>
  </g>
</svg>
