<svg xmlns="http://www.w3.org/2000/svg" xmlns:xlink="http://www.w3.org/1999/xlink" width="56" height="56" viewBox="0 0 56 56">
  <defs>
    <clipPath id="clip-path">
      <rect id="Rectángulo_34008" data-name="Rectángulo 34008" width="56" height="56" transform="translate(696 1283)" fill="#fff" stroke="#707070" stroke-width="1"/>
    </clipPath>
  </defs>
  <g id="Enmascarar_grupo_74" data-name="Enmascarar grupo 74" transform="translate(-696 -1283)" clip-path="url(#clip-path)">
    <g id="gobierno" transform="translate(696.059 1283)">
      <path id="Trazado_117526" data-name="Trazado 117526" d="M3.774,29.044H52.109V56H3.774Zm0,0" fill="#bdd5ea"/>
      <path id="Trazado_117527" data-name="Trazado 117527" d="M13.042,48.564,10.607,46.7a3.142,3.142,0,0,0-3.142,3.142V56H18.619V49.847A3.142,3.142,0,0,0,15.478,46.7Zm0,0" fill="#577399"/>
      <path id="Trazado_117528" data-name="Trazado 117528" d="M10.607,46.819l2.435,1.859,2.435-1.859a3.719,3.719,0,1,0-4.87,0Zm0,0" fill="#ffdbac"/>
      <path id="Trazado_117529" data-name="Trazado 117529" d="M13.042,48.678l-1.859,2.789,1.859,3.718L14.9,51.467Zm0,0" fill="#bdd5ea"/>
      <g id="Grupo_83875" data-name="Grupo 83875">
        <path id="Trazado_117530" data-name="Trazado 117530" d="M34.448,32.762h3.718V36.48H34.448Zm0,0" fill="#577399"/>
        <path id="Trazado_117531" data-name="Trazado 117531" d="M26.083,32.762H29.8V36.48H26.083Zm0,0" fill="#577399"/>
        <path id="Trazado_117532" data-name="Trazado 117532" d="M17.717,32.762h3.718V36.48H17.717Zm0,0" fill="#577399"/>
        <path id="Trazado_117533" data-name="Trazado 117533" d="M9.351,32.762h3.718V36.48H9.351Zm0,0" fill="#577399"/>
        <path id="Trazado_117534" data-name="Trazado 117534" d="M42.814,32.762h3.718V36.48H42.814Zm0,0" fill="#577399"/>
      </g>
      <path id="Trazado_117535" data-name="Trazado 117535" d="M54.9,29.044H.986l9.3-7.436H45.6Zm0,0" fill="#495867"/>
      <path id="Trazado_117536" data-name="Trazado 117536" d="M27.942.93V4.648a15.315,15.315,0,0,0,7.436,0V.93a15.337,15.337,0,0,1-7.436,0Zm0,0" fill="#fe5f55"/>
      <path id="Trazado_117537" data-name="Trazado 117537" d="M36.307,16.031H19.576a7.436,7.436,0,0,1,7.436-7.436h1.859A7.436,7.436,0,0,1,36.307,16.031Zm0,0" fill="#495867"/>
      <path id="Trazado_117538" data-name="Trazado 117538" d="M20.506,16.031H35.378v5.577H20.506Zm0,0" fill="#eaeaea"/>
      <path id="Trazado_117539" data-name="Trazado 117539" d="M27.942,48.564,25.506,46.7a3.141,3.141,0,0,0-3.142,3.142V56H33.519V49.847A3.142,3.142,0,0,0,30.377,46.7Zm0,0" fill="#577399"/>
      <path id="Trazado_117540" data-name="Trazado 117540" d="M25.506,46.819l2.435,1.859,2.435-1.859a3.718,3.718,0,1,0-4.871,0Zm0,0" fill="#ffdbac"/>
      <path id="Trazado_117541" data-name="Trazado 117541" d="M27.942,48.678l-1.859,2.789,1.859,3.718L29.8,51.467Zm0,0" fill="#bdd5ea"/>
      <path id="Trazado_117542" data-name="Trazado 117542" d="M42.787,48.564,40.352,46.7a3.142,3.142,0,0,0-3.142,3.142V56H48.364V49.847A3.142,3.142,0,0,0,45.222,46.7Zm0,0" fill="#577399"/>
      <path id="Trazado_117543" data-name="Trazado 117543" d="M40.352,46.819l2.435,1.859,2.435-1.859a3.719,3.719,0,1,0-4.87,0Zm0,0" fill="#ffdbac"/>
      <path id="Trazado_117544" data-name="Trazado 117544" d="M42.787,48.678l-1.859,2.789,1.859,3.718,1.859-3.718Zm0,0" fill="#bdd5ea"/>
      <path id="Trazado_117545" data-name="Trazado 117545" d="M19.576,56V49.846a4.077,4.077,0,0,0-2.421-3.722,4.64,4.64,0,0,0-3.011-6.734,4.653,4.653,0,0,0-5.722,4.527,4.6,4.6,0,0,0,.568,2.206,4.074,4.074,0,0,0-2.427,3.723V56H8.422V49.846a2.206,2.206,0,0,1,1.935-2.184l1.456,1.111-1.376,2.063a.928.928,0,0,0-.058.931l1.859,3.718a.929.929,0,0,0,1.663,0l1.859-3.718a.932.932,0,0,0-.058-.931l-1.376-2.063,1.456-1.111a2.207,2.207,0,0,1,1.934,2.184V56Zm-6.507-3.008-.787-1.573.787-1.18.786,1.18ZM14.9,46l-1.833,1.4L11.238,46a2.745,2.745,0,0,1-.957-2.08A2.788,2.788,0,1,1,14.9,46Zm0,0"/>
      <path id="Trazado_117546" data-name="Trazado 117546" d="M25.251,51.768l1.859,3.718a.93.93,0,0,0,1.664,0l1.859-3.718a.932.932,0,0,0-.058-.931L29.2,48.773l1.456-1.111a2.207,2.207,0,0,1,1.934,2.184V56h1.859V49.846a4.077,4.077,0,0,0-2.421-3.722,4.64,4.64,0,0,0-3.011-6.734,4.653,4.653,0,0,0-5.722,4.527,4.6,4.6,0,0,0,.568,2.206,4.074,4.074,0,0,0-2.427,3.723V56h1.859V49.846a2.206,2.206,0,0,1,1.935-2.184l1.456,1.111-1.376,2.063a.93.93,0,0,0-.059.931Zm2.691,1.225-.787-1.573.787-1.18.786,1.18ZM26.11,46a2.745,2.745,0,0,1-.957-2.08,2.788,2.788,0,1,1,4.621,2.078l-1.833,1.4Zm0,0"/>
      <path id="Trazado_117547" data-name="Trazado 117547" d="M38.166,43.916a4.6,4.6,0,0,0,.568,2.206,4.074,4.074,0,0,0-2.427,3.723V56h1.859V49.846A2.206,2.206,0,0,1,40.1,47.662l1.456,1.111-1.376,2.063a.928.928,0,0,0-.058.931l1.859,3.718a.929.929,0,0,0,1.663,0L45.5,51.768a.932.932,0,0,0-.058-.931l-1.376-2.063,1.456-1.111a2.207,2.207,0,0,1,1.934,2.184V56H49.32V49.846A4.077,4.077,0,0,0,46.9,46.124a4.64,4.64,0,0,0-3.011-6.734,4.653,4.653,0,0,0-5.722,4.527Zm4.648,9.076-.787-1.573.787-1.18.786,1.18ZM41.076,41.736a2.779,2.779,0,0,1,3.571,4.259l-1.833,1.4L40.982,46a2.745,2.745,0,0,1-.957-2.08,2.78,2.78,0,0,1,1.05-2.181Zm0,0"/>
      <path id="Trazado_117548" data-name="Trazado 117548" d="M.986,29.974H2.845V56H4.7V29.974H51.179V56h1.859V29.974H54.9a.93.93,0,0,0,.581-1.656l-9.3-7.436a.931.931,0,0,0-.581-.2h-9.3V16.96a.93.93,0,0,0,.93-.93,8.375,8.375,0,0,0-8.366-8.366V5.79a16.324,16.324,0,0,0,2.789.245A16.275,16.275,0,0,0,35.6,5.551a.931.931,0,0,0,.7-.9V.93a.93.93,0,0,0-1.155-.9,14.462,14.462,0,0,1-6.986,0,.93.93,0,0,0-1.154.9V4.648a.894.894,0,0,0,.039.229h-.039V7.665a8.375,8.375,0,0,0-8.366,8.366.929.929,0,0,0,.93.93v3.718h-9.3a.93.93,0,0,0-.581.2L.4,28.318a.93.93,0,0,0,.581,1.656Zm27.885-27.9a16.367,16.367,0,0,0,5.577,0V3.9a14.449,14.449,0,0,1-5.577,0ZM27.012,9.524h1.859a6.516,6.516,0,0,1,6.44,5.577H20.571a6.517,6.517,0,0,1,6.441-5.577Zm7.436,7.436v3.718H32.589V16.961Zm-3.718,0v3.718H28.871V16.961Zm-3.718,0v3.718H25.153V16.961Zm-3.718,0v3.718H21.435V16.961ZM10.607,22.538h34.67l6.971,5.577H3.636Zm0,0"/>
      <path id="Trazado_117549" data-name="Trazado 117549" d="M38.166,31.833H34.448a.929.929,0,0,0-.93.93V36.48a.929.929,0,0,0,.93.93h3.718a.93.93,0,0,0,.93-.93V32.762A.929.929,0,0,0,38.166,31.833Zm-.93,3.718H35.378V33.692h1.859Zm0,0"/>
      <path id="Trazado_117550" data-name="Trazado 117550" d="M29.8,37.41a.93.93,0,0,0,.93-.93V32.762a.929.929,0,0,0-.93-.93H26.083a.929.929,0,0,0-.93.93V36.48a.929.929,0,0,0,.93.93Zm-2.789-3.718h1.859v1.859H27.012Zm0,0"/>
      <path id="Trazado_117551" data-name="Trazado 117551" d="M22.365,36.48V32.762a.929.929,0,0,0-.93-.93H17.717a.929.929,0,0,0-.93.93V36.48a.929.929,0,0,0,.93.93h3.718A.93.93,0,0,0,22.365,36.48Zm-1.859-.93H18.646V33.692h1.859Zm0,0"/>
      <path id="Trazado_117552" data-name="Trazado 117552" d="M13.069,37.41a.93.93,0,0,0,.93-.93V32.762a.929.929,0,0,0-.93-.93H9.351a.929.929,0,0,0-.93.93V36.48a.929.929,0,0,0,.93.93Zm-2.789-3.718H12.14v1.859H10.281Zm0,0"/>
      <path id="Trazado_117553" data-name="Trazado 117553" d="M46.532,37.41a.93.93,0,0,0,.93-.93V32.762a.929.929,0,0,0-.93-.93H42.814a.929.929,0,0,0-.93.93V36.48a.929.929,0,0,0,.93.93Zm-2.789-3.718H45.6v1.859H43.743Zm0,0"/>
    </g>
  </g>
</svg>
