<svg xmlns="http://www.w3.org/2000/svg" xmlns:xlink="http://www.w3.org/1999/xlink" width="505" height="274.705" viewBox="0 0 505 274.705">
  <defs>
    <clipPath id="clip-path">
      <rect y="-6" width="505" height="274.705" fill="none"/>
    </clipPath>
  </defs>
  <g id="Grupo_de_desplazamiento_2" data-name="Grupo de desplazamiento 2" transform="translate(0 6)" clip-path="url(#clip-path)" style="isolation: isolate">
    <g id="Grupo_80261" data-name="Grupo 80261" transform="translate(-27.689 -49.926)">
      <g id="Grupo_80192" data-name="Grupo 80192" transform="translate(305.447 83.977)">
        <path id="Trazado_113604" data-name="Trazado 113604" d="M484.192,153.264c-14.5-1.527-29.767,0-44.269-3.816,0,25.437-7.046,49.112-17.017,72.056,10.019,2.185,25.456,5.129,34,4.644,13.358-.76,30.341-4.719,30.341-4.719L485.8,211.267l6.135,9.117.02-.011C480.065,201.573,480.369,175.66,484.192,153.264Z" transform="translate(-413.335 -110.156)" fill="#f79c0b"/>
        <path id="Trazado_113605" data-name="Trazado 113605" d="M472.867,98.116c-7.346-2.294-25.9-6.566-35.765,4.9a52.867,52.867,0,0,0-3.8,4.966C447.407,108.284,461.409,105.478,472.867,98.116Z" transform="translate(-416.173 -95.403)" fill="#feb01b"/>
        <path id="Trazado_113606" data-name="Trazado 113606" d="M474.246,100.25c-.2-.012-.4-.026-.6-.036,0,0-1.17-.471-3.117-1.08C459.07,106.5,445.069,109.3,430.965,109a42.982,42.982,0,0,0-6.228,13.919C443.23,120.86,461.346,113.252,474.246,100.25Z" transform="translate(-413.835 -96.422)" fill="#ffb640"/>
        <path id="Trazado_113607" data-name="Trazado 113607" d="M485.755,170.282c-.2-10.113,5.339-25.76,7.629-33.965,2.273-8.148,5.149-33.978-23.231-35.648-12.9,13-31.016,20.609-49.509,22.667-1.9,7.7-1.531,15.2-1.107,22.585.763,13.293-9.8,60.044-9.8,60.044s3.927.991,9.571,2.222c9.971-22.944,17.017-46.619,17.017-72.056,14.5,3.816,29.768,2.289,44.269,3.816-3.823,22.4-4.127,48.309,7.759,67.109.22-.113,7.365-3.837,10.56-8.534C498.917,198.524,485.95,180.4,485.755,170.282Z" transform="translate(-409.741 -96.84)" fill="#feb01b"/>
        <path id="Trazado_113608" data-name="Trazado 113608" d="M483.655,305.681s-27.555-5.8-39.188,0c0,0-2.521,6.93-4.658,15.666,14.593-6.368,30.333-9.4,46.112-11.088A45.742,45.742,0,0,0,483.655,305.681Z" transform="translate(-417.949 -152.102)" fill="#1e1d35"/>
        <path id="Trazado_113609" data-name="Trazado 113609" d="M484.818,312.946c-15.779,1.687-31.519,4.72-46.112,11.088-1.74,7.109-3.225,15.412-2.89,22.162.748,15.043,5.129,43.134,5.129,43.134l20.553.18s2.127-30.56,1.064-37.684l4.025-1.591s2.8,38.692,3.308,39.1,19.413,0,19.413,0,5.265-25.8,2.976-47.173A99.423,99.423,0,0,0,484.818,312.946Z" transform="translate(-416.846 -154.789)" fill="#2c2945"/>
        <g id="Grupo_80173" data-name="Grupo 80173" transform="translate(7.883 65.068)">
          <path id="Trazado_113610" data-name="Trazado 113610" d="M446.835,202.337a8.663,8.663,0,0,1-4.167,2.442c-.332.072-.647.153-.965.232.846,5.3,1.865,12.594,1.634,15.7,0,0,14.883,7.633,18.891,7.824s13.167-5.725,14.883-8.015c1.042-1.389-.092-9.043-1.146-14.857-2.692-.843-4.081-2.378-4.611-6.259A80.5,80.5,0,0,1,446.835,202.337Z" transform="translate(-426.349 -188.862)" fill="#fcceb6"/>
          <path id="Trazado_113611" data-name="Trazado 113611" d="M455.624,184.9s-2.244,8.932-6.862,13.475a80.5,80.5,0,0,0,24.519-2.931,37.8,37.8,0,0,1-.256-5.365Z" transform="translate(-428.276 -184.903)" fill="#fcbfa4"/>
          <path id="Trazado_113612" data-name="Trazado 113612" d="M434.327,224.325a51.931,51.931,0,0,0-1.386-15.9c-4.83,1.938-7.507,5.428-9.453,12.6-2.422,8.929-2.9,23.336-2.9,23.336s-.563,18.882,11.083,20.765c.115-8.01.912-18.867,1.442-22.863C433.806,237.041,434.327,224.325,434.327,224.325Z" transform="translate(-420.584 -191.323)" fill="#fcbfa4"/>
          <path id="Trazado_113613" data-name="Trazado 113613" d="M488.628,244.453c-1.414-10.95-8.158-19.728-9.111-22.78-.627-2.009-1.986-8.891-2.841-13.365a19.079,19.079,0,0,1-2.313-.539c1.053,5.814,2.188,13.469,1.146,14.857-1.716,2.29-10.877,8.205-14.883,8.015s-18.891-7.824-18.891-7.824c.23-3.107-.789-10.4-1.634-15.7a23.185,23.185,0,0,0-3,.949,51.931,51.931,0,0,1,1.386,15.9s-.521,12.715-1.215,17.931c-.53,4-1.327,14.854-1.442,22.863.06.01.115.025.176.035,0,0,2.721,13.141,7.372,14.68,0,0,20.869-2.086,27.166-1.322s11.068,2.265,12.022,1.322,2.887-5.09,4.961-14.68c1.592-7.36,1.527-8.015,1.527-8.015s.084.093.232.252A76.4,76.4,0,0,0,488.628,244.453Z" transform="translate(-424.747 -190.967)" fill="#64ad99"/>
          <path id="Trazado_113614" data-name="Trazado 113614" d="M493.516,209c-.531-.079-1.03-.16-1.5-.245.855,4.473,2.214,11.355,2.841,13.365.953,3.053,7.7,11.831,9.111,22.78a76.4,76.4,0,0,1,.662,12.582,75.13,75.13,0,0,0,6.9,6.432,218.329,218.329,0,0,0-16.625-54.68C494.46,209.151,494,209.074,493.516,209Z" transform="translate(-440.082 -191.415)" fill="#fcbfa4"/>
          <path id="Trazado_113615" data-name="Trazado 113615" d="M530.664,254.55S518.834,241.192,511.01,226.5c-7.253-13.624-9.425-16.01-15.027-17.083a218.329,218.329,0,0,1,16.625,54.68c4.6,3.8,11.028,8.244,18.057,10.489Z" transform="translate(-441.167 -191.595)" fill="#fcceb6"/>
        </g>
        <path id="Trazado_113616" data-name="Trazado 113616" d="M443.57,133.611s-11.449-6.011-13.261,3.911,4.2,10.464,8.586,10.05a28.091,28.091,0,0,0,18.7,22.771c17.269,6.106,32.82-6.678,34.728-15.552s2-12.308,2-12.308-10.59-15.456-13.166-24.138C481.162,118.345,455.114,134.565,443.57,133.611Z" transform="translate(-415.265 -101.666)" fill="#fcceb6"/>
        <g id="Grupo_80174" data-name="Grupo 80174" transform="translate(18.047 32.83)">
          <path id="Trazado_113617" data-name="Trazado 113617" d="M434.975,142.491c2.353-1.261,4.281-1.267,6.174.722,1.737,1.824.746,5.413-.171,7.449-.2.451.388,1.033.746.576,1.806-2.3,2.087-6.494.172-8.771-1.846-2.195-5.24-2.7-7.257-.411a.279.279,0,0,0,.337.436Z" transform="translate(-434.564 -140.56)"/>
        </g>
        <g id="Grupo_80175" data-name="Grupo 80175" transform="translate(21.512 37.66)">
          <path id="Trazado_113618" data-name="Trazado 113618" d="M439.572,147.867a3.512,3.512,0,0,1,3.4,1.913c.238.542.975.126.89-.375-.289-1.7-2.974-2.657-4.407-1.986-.228.108-.1.441.121.448Z" transform="translate(-439.33 -147.204)"/>
        </g>
        <g id="Grupo_80176" data-name="Grupo 80176" transform="translate(50.145 51.413)">
          <path id="Trazado_113619" data-name="Trazado 113619" d="M478.8,166.327c-.336,1.142.38,2.4,1.064,3.289.609.8,1.7,1.85,2.771,1.7.446-.062.419-.672.115-.874a11.57,11.57,0,0,1-2.023-1.493,10.507,10.507,0,0,1-1.41-2.69.286.286,0,0,0-.518.068Z" transform="translate(-478.714 -166.121)"/>
        </g>
        <g id="Grupo_80177" data-name="Grupo 80177" transform="translate(38.38 36.369)">
          <path id="Trazado_113620" data-name="Trazado 113620" d="M470.23,153.326c.776-2.414,1.776-6.508-1.307-7.7-1.654-.638-3.375.338-4.391,1.594-.91,1.125-2.095,3.258-1.994,4.753.025.38.523.678.816.337,1.563-1.815,1.537-6,4.952-5.532,2.534.345,1.551,4.821,1.351,6.467-.042.341.477.376.574.078Z" transform="translate(-462.532 -145.427)"/>
        </g>
        <g id="Grupo_80178" data-name="Grupo 80178" transform="translate(66.227 43.545)">
          <path id="Trazado_113621" data-name="Trazado 113621" d="M501.328,160.6c.822-1.647,2.079-4.359,4.373-3.983,2.181.357.5,5.114.337,6.331-.069.523.774.731.992.269.877-1.858,2.09-6.628-.661-7.683-3.07-1.177-5.194,2.414-5.532,4.934-.035.262.379.357.491.133Z" transform="translate(-500.835 -155.298)"/>
        </g>
        <g id="Grupo_80179" data-name="Grupo 80179" transform="translate(56.028 28.375)">
          <path id="Trazado_113622" data-name="Trazado 113622" d="M488.548,156.25c2.368-.627,6.576-4.069,2.951-6a2.045,2.045,0,0,0-1.426-.125c-2.72.922-1.875-2.248-1.5-4.024a29.537,29.537,0,0,1,4.88-10.852c.358-.494-.463-1.128-.845-.652a28.517,28.517,0,0,0-5.619,13.61c-.093.716-.57,3.338.565,3.686a1.452,1.452,0,0,0,1.392-.055q1.457-.7,1.708,2.434a6.25,6.25,0,0,1-2.324,1.445c-.308.135-.086.61.222.529Z" transform="translate(-486.807 -134.433)"/>
        </g>
        <g id="Grupo_80180" data-name="Grupo 80180" transform="translate(38.895 30.349)">
          <path id="Trazado_113623" data-name="Trazado 113623" d="M463.732,141.778c2.741-2.576,6.536-3.145,10.091-3.717.532-.086.345-.834-.118-.878-3.517-.33-8,1.628-10.382,4.186a.289.289,0,0,0,.409.409Z" transform="translate(-463.241 -137.147)"/>
        </g>
        <g id="Grupo_80181" data-name="Grupo 80181" transform="translate(72.474 35.067)">
          <path id="Trazado_113624" data-name="Trazado 113624" d="M509.475,144.061a31.17,31.17,0,0,1,2.356,3.391c.807,1.525,1.4,3.158,2.14,4.71.214.45.807.174.848-.23.152-1.515-1.111-3.239-1.735-4.561a8.577,8.577,0,0,0-3.221-3.7c-.231-.14-.556.15-.388.387Z" transform="translate(-509.429 -143.637)"/>
        </g>
        <g id="Grupo_80182" data-name="Grupo 80182" transform="translate(15.085 42.279)">
          <path id="Trazado_113625" data-name="Trazado 113625" d="M433.788,153.558c-2.037.194-2.868,2.49-3.2,4.262a6.445,6.445,0,0,0,1.544,5.361c1.532,1.823,8.657,3.991,8.736.046a.344.344,0,0,0-.582-.241c-2.075,1.822-4.886,1.481-6.989-.216-2.305-1.862-2.622-7.441.555-8.711.245-.1.242-.53-.068-.5Z" transform="translate(-430.49 -153.557)"/>
        </g>
        <g id="Grupo_80183" data-name="Grupo 80183" transform="translate(37.55 125.457)">
          <path id="Trazado_113626" data-name="Trazado 113626" d="M461.559,274.137c2.8.733,6.3-.385,9.051-.966,4.39-.926,8.318-2.728,12.542-4.034a.6.6,0,0,0-.316-1.149c-3.385.825-6.647,2.537-10.044,3.507-3.2.913-7.822,2.617-11.169,2.169-.273-.036-.319.406-.064.473Z" transform="translate(-461.39 -267.967)"/>
        </g>
        <g id="Grupo_80184" data-name="Grupo 80184" transform="translate(39.571 133.122)">
          <path id="Trazado_113627" data-name="Trazado 113627" d="M464.417,281.489c6.54.44,13.135.193,19.326-2.122a.438.438,0,0,0-.233-.845,91.607,91.607,0,0,1-19.093,2.457.255.255,0,0,0,0,.51Z" transform="translate(-464.17 -278.51)"/>
        </g>
        <g id="Grupo_80185" data-name="Grupo 80185" transform="translate(34.651 187.504)">
          <path id="Trazado_113628" data-name="Trazado 113628" d="M457.735,365.09c5.631.024,11.613-1.95,16.823-3.961a35.157,35.157,0,0,0,6.632-3.875c1.365-.918,2.982-1.74,3.847-3.174.366-.606-.515-1.063-.92-.537-1.107,1.437-3.085,2.38-4.567,3.377a33.52,33.52,0,0,1-7.757,3.956,82.149,82.149,0,0,1-14.146,3.55c-.385.06-.28.662.089.664Z" transform="translate(-457.403 -353.312)"/>
        </g>
        <g id="Grupo_80186" data-name="Grupo 80186" transform="translate(27.51 158.138)">
          <path id="Trazado_113629" data-name="Trazado 113629" d="M447.676,313.114a.1.1,0,0,0,0-.195.1.1,0,0,0,0,.195Z" transform="translate(-447.581 -312.919)"/>
        </g>
        <g id="Grupo_80187" data-name="Grupo 80187" transform="translate(26.807 154.601)">
          <path id="Trazado_113630" data-name="Trazado 113630" d="M447.284,311.225l-.188.013c.042.31.084.622.126.931,5.565-2.032,12.538-1.927,18.405-2.3a76.179,76.179,0,0,1,19.527.771.63.63,0,0,0,.335-1.214c-6.534-1.983-13.164-1.349-19.862-.96-5.748.334-13.511.209-18.77,2.835-.511.255-.132.959.365.867l.186-.033a.466.466,0,0,0-.124-.911Z" transform="translate(-446.614 -308.054)"/>
        </g>
        <g id="Grupo_80188" data-name="Grupo 80188" transform="translate(45.526 151.513)">
          <path id="Trazado_113631" data-name="Trazado 113631" d="M472.652,304.04c.14,2.227-.3,4.643-.29,6.9.021,3.621.148,7.244.315,10.86.3,6.39,2.184,12.426,2.855,18.748a.535.535,0,0,0,1.07,0,30.965,30.965,0,0,0-1.25-8.394,65.329,65.329,0,0,1-1.475-11.738c-.18-3.608-.3-7.224-.414-10.835-.054-1.754.408-4.038-.374-5.663a.236.236,0,0,0-.437.118Z" transform="translate(-472.362 -303.807)"/>
        </g>
        <g id="Grupo_80189" data-name="Grupo 80189" transform="translate(47.704 155.958)">
          <path id="Trazado_113632" data-name="Trazado 113632" d="M476.34,337.081c3.9-.624,2.9-6.263,2.654-9.095-.515-5.9-1.7-11.853-2.639-17.7-.09-.562-1.055-.432-1,.134.35,3.318.8,6.638,1.394,9.92.542,2.974,3.661,14.3-.6,16.082a.344.344,0,0,0,.183.663Z" transform="translate(-475.357 -309.921)"/>
        </g>
        <g id="Grupo_80190" data-name="Grupo 80190" transform="translate(58.628 155.255)">
          <path id="Trazado_113633" data-name="Trazado 113633" d="M504.069,328.091c-.745.173-2.321-1.473-2.875-1.895a20.015,20.015,0,0,1-4.689-6.035,39.914,39.914,0,0,1-3.494-6.731c-.5-1.425-.747-3.114-1.72-4.294-.41-.5-1.115.135-.85.656,1.16,2.271,1.617,4.856,2.8,7.148a39.4,39.4,0,0,0,4.14,6.673c.909,1.115,4.834,6,6.888,4.96.276-.14.079-.547-.2-.481Z" transform="translate(-490.383 -308.955)"/>
        </g>
        <g id="Grupo_80191" data-name="Grupo 80191" transform="translate(20.967 157.716)">
          <path id="Trazado_113634" data-name="Trazado 113634" d="M438.933,333.614c7.429-2.908,9.956-13.771,8.951-20.8-.118-.829-1.383-.479-1.258.346,1.017,6.744-1.44,16.467-7.91,19.936-.279.15-.085.636.217.518Z" transform="translate(-438.58 -312.339)"/>
        </g>
        <path id="Trazado_113635" data-name="Trazado 113635" d="M469.031,165.338c-.762,1.89-4.062,2.341-7.372,1.006s-5.374-3.946-4.613-5.836,4.062-2.34,7.371-1.007S469.792,163.448,469.031,165.338Z" transform="translate(-422.611 -112.691)" fill="#fcbfa4"/>
        <path id="Trazado_113636" data-name="Trazado 113636" d="M505.233,173.692c.043,2.038-2.816,3.748-6.382,3.823s-6.493-1.518-6.536-3.555,2.816-3.748,6.383-3.822S505.192,171.656,505.233,173.692Z" transform="translate(-432.282 -115.804)" fill="#fcbfa4"/>
      </g>
      <g id="Grupo_80202" data-name="Grupo 80202" transform="translate(110.493 49.926)">
        <path id="Trazado_113637" data-name="Trazado 113637" d="M274.62,88.849s2.716-11.984-1.482-18.758-8.3-7.728-8.3-7.728a17.538,17.538,0,0,0-12.689-11.831c-10.5-2.766-17.746,4.961-25.57,2.958s-13.548-.477-11.258,3.721c0,0-6.584-1.621-4.962,3.53,0,0-6.965-2.766-9.35,2.958s5.908,14.28,13.491,12.593,52.914,15.552,52.914,15.552Z" transform="translate(-157.693 -49.926)"/>
        <path id="Trazado_113638" data-name="Trazado 113638" d="M299.288,167.587c-1.018,12.678,5.474,37.27,5.474,37.27,3.786,1.7,11.924,2.824,21.316,3.57a122.385,122.385,0,0,1-21.592-38.016C301.2,168.678,299.288,167.587,299.288,167.587Z" transform="translate(-184.606 -82.046)" fill="#6b4e45"/>
        <path id="Trazado_113639" data-name="Trazado 113639" d="M375.319,210.925l-2.8-16.284c-23.021-1.6-53.913-16.773-66.04-23.169a122.384,122.384,0,0,0,21.592,38.016C348.675,211.122,375.319,210.925,375.319,210.925Z" transform="translate(-186.599 -83.107)" fill="#826459"/>
        <path id="Trazado_113640" data-name="Trazado 113640" d="M143.277,214.661l-1.692,10.66s22.616-2.121,38.869-4.838c6.944-12.275,12.087-25.655,13.554-39.846C184.328,188.072,157.748,208.054,143.277,214.661Z" transform="translate(-141.585 -85.608)" fill="#826459"/>
        <path id="Trazado_113641" data-name="Trazado 113641" d="M212.257,176.745s-1.351,1.061-3.653,2.83c-1.467,14.191-6.611,27.571-13.554,39.846,7.668-1.282,13.92-2.7,15.712-4.081C210.761,215.34,220.859,181.132,212.257,176.745Z" transform="translate(-156.18 -84.546)" fill="#6b4e45"/>
        <path id="Trazado_113642" data-name="Trazado 113642" d="M285.114,320.3c-.054-.262-.107-.52-.16-.77a255.7,255.7,0,0,0-62.462,9.732s-.194,9.783-.287,21.709a341.192,341.192,0,0,1,63.281-28.788C285.361,321.525,285.236,320.9,285.114,320.3Z" transform="translate(-163.593 -123.524)" fill="#1e1d35"/>
        <path id="Trazado_113643" data-name="Trazado 113643" d="M222.187,351.966c-.126,16.224-.066,36.412.924,41.324H258.6s-3.053-26.588-3.434-28.686l5.343-1.336,1.908,30.022h32.439s-5.413-49.3-9.391-70.112A341.192,341.192,0,0,0,222.187,351.966Z" transform="translate(-163.575 -124.52)" fill="#2c2945"/>
        <path id="Trazado_113644" data-name="Trazado 113644" d="M231.094,166.4s-9.386,2.841-13.37,6.658c0,0,.978,27.174-2.648,45.93,0,0,1.145,23.718,1.145,30.779s.254,30.341,4.325,36.828c0,0,22.962-4.515,31.167-4.643s27.478-1.464,31.3-5.089.572-20.8,0-35.3-.191-33.358-.191-33.358-7.251-31.1-6.488-41.8l-12.022-3.17Z" transform="translate(-161.647 -80.856)" fill="#64ad99"/>
        <path id="Trazado_113645" data-name="Trazado 113645" d="M237.06,164.357s-2.47,22.3,14.323,22.687,18.891-25.856,18.891-25.856-4.112.465-6.468-5.432c-7.674,3.246-16.481,6.907-24.191,7.046A7.9,7.9,0,0,1,237.06,164.357Z" transform="translate(-167.613 -78.816)" fill="#826459"/>
        <path id="Trazado_113646" data-name="Trazado 113646" d="M245.078,148.721s-.252,7.61-4.457,11.379c7.711-.139,16.517-3.8,24.191-7.046a24.293,24.293,0,0,1-1.49-7.192Z" transform="translate(-168.62 -76.115)" fill="#6b4e45"/>
        <path id="Trazado_113647" data-name="Trazado 113647" d="M219.778,83.13s.573,15.395,0,23.249,3.053,19.876,14.5,23.5,32.248-.763,38.927-16.793c0,0,11.068,3.817,11.831-9.731-2.289-10.3-12.594-4.962-12.594-4.962a32.709,32.709,0,0,1-7.632-16.983s-6.679-1.908-20.418,0A176.613,176.613,0,0,1,219.778,83.13Z" transform="translate(-162.915 -58.29)" fill="#826459"/>
        <g id="Grupo_80193" data-name="Grupo 80193" transform="translate(79.493 51.86)">
          <path id="Trazado_113648" data-name="Trazado 113648" d="M251.005,126.009c.849.762,2.7.265,3.588-.192,1.4-.723,2.2-2.538,2.572-3.98.126-.481-.608-.827-.826-.349a11.191,11.191,0,0,1-1.517,2.976,4.339,4.339,0,0,1-3.627,1.085.271.271,0,0,0-.19.459Z" transform="translate(-250.927 -121.259)"/>
        </g>
        <g id="Grupo_80194" data-name="Grupo 80194" transform="translate(73.547 29.825)">
          <path id="Trazado_113649" data-name="Trazado 113649" d="M247.079,112.57l-.854-.379q-2.865-.9-.467-3.309a5,5,0,0,0,1.869.675c1.272,0,1.615-1.07,1.929-2.084,1.458-4.7-.824-11.525-1.868-16.123-.159-.7-1.237-.4-1.077.3a97.253,97.253,0,0,1,2.108,12c.224,2.251.018,5.511-3.229,4.03a2.79,2.79,0,0,0-1.771-.073c-1.226.188-1.032,1.872-.8,2.619.5,1.621,2.5,2.494,3.977,2.784.248.049.443-.318.183-.434Z" transform="translate(-242.748 -90.95)"/>
        </g>
        <g id="Grupo_80195" data-name="Grupo 80195" transform="translate(109.524 41.899)">
          <path id="Trazado_113650" data-name="Trazado 113650" d="M293.715,117.647c-.9-1.681-.532-4.655.416-6.217a7.128,7.128,0,0,1,3.269-2.448c1.437-.6,2.56-.041,3.731.771.522.362,1.027-.406.645-.836-2.359-2.665-5.8-.931-7.93,1.085-1.94,1.839-2.116,5.788-.6,7.919a.272.272,0,0,0,.47-.275Z" transform="translate(-292.233 -107.558)"/>
        </g>
        <g id="Grupo_80196" data-name="Grupo 80196" transform="translate(109.722 45.856)">
          <path id="Trazado_113651" data-name="Trazado 113651" d="M293.088,115.766c.561-2.614,4.144-1.674,5.787-1.12.406.137.788-.467.434-.747a5.414,5.414,0,0,0-4.61-.679c-1.061.273-2.356,1.349-2.175,2.546.044.289.506.271.564,0Z" transform="translate(-292.507 -113.001)"/>
        </g>
        <g id="Grupo_80197" data-name="Grupo 80197" transform="translate(67.533 189.73)">
          <path id="Trazado_113652" data-name="Trazado 113652" d="M234.683,323.587a99.624,99.624,0,0,0,13.425-.368c4.579-.577,9.133-1.474,13.668-2.33,7.623-1.438,15.925-3.875,21.782-9.225.366-.334-.124-.986-.534-.693a55.371,55.371,0,0,1-21.488,9.048c-4.016.85-8.094,1.534-12.15,2.164-4.933.766-9.771.551-14.7.975a.215.215,0,0,0,0,.429Z" transform="translate(-234.476 -310.897)"/>
        </g>
        <g id="Grupo_80198" data-name="Grupo 80198" transform="translate(84.457 162.602)">
          <path id="Trazado_113653" data-name="Trazado 113653" d="M258.1,298.952c5.281-1.439,10.055-6.285,13.9-9.961a32.874,32.874,0,0,0,5.317-7.044c1.559-2.609,3.552-5.04,4.669-7.866.175-.442-.51-.691-.743-.313-1.14,1.855-2.531,3.5-3.647,5.37a50.882,50.882,0,0,1-5.537,8.284c-3.635,4.063-8.9,9.179-14.1,10.995a.278.278,0,0,0,.148.535Z" transform="translate(-257.754 -273.583)"/>
        </g>
        <g id="Grupo_80199" data-name="Grupo 80199" transform="translate(80.832 153.126)">
          <path id="Trazado_113654" data-name="Trazado 113654" d="M253.173,294.887c5.275-2.955,9.091-9.565,11.819-14.745a80.326,80.326,0,0,0,4.229-9.724c1.025-2.79,2.27-6.372,2.286-9.353,0-.7-1.01-.675-1.071,0-.573,6.354-3.7,12.863-6.433,18.5-2.523,5.205-6.246,11.52-11.108,14.847a.275.275,0,0,0,.278.475Z" transform="translate(-252.769 -260.549)"/>
        </g>
        <g id="Grupo_80200" data-name="Grupo 80200" transform="translate(82.354 227.933)">
          <path id="Trazado_113655" data-name="Trazado 113655" d="M255.206,379.3a99.919,99.919,0,0,0,15.982-5.834c4.414-1.947,10.271-5.091,12.827-9.4a.414.414,0,0,0-.648-.5c-7.388,7.894-18.306,11.762-28.311,15.19a.281.281,0,0,0,.149.541Z" transform="translate(-254.861 -363.445)"/>
        </g>
        <g id="Grupo_80201" data-name="Grupo 80201" transform="translate(95.634 235.095)">
          <path id="Trazado_113656" data-name="Trazado 113656" d="M273.249,377.174c1.222.855,4.086-.464,5.376-.678,2.827-.468,5.849-.9,8.313-2.45.363-.229.128-.891-.3-.723a38.574,38.574,0,0,1-6.542,1.975c-1.128.229-2.261.431-3.388.67-1,.212-2.188.964-3.253.729a.262.262,0,0,0-.2.476Z" transform="translate(-273.128 -373.297)"/>
        </g>
        <path id="Trazado_113657" data-name="Trazado 113657" d="M269.271,110.523c0,1.211-.655,2.193-1.463,2.193s-1.462-.982-1.462-2.193.654-2.195,1.462-2.195S269.271,109.31,269.271,110.523Z" transform="translate(-175.643 -65.869)"/>
        <path id="Trazado_113658" data-name="Trazado 113658" d="M234.538,110.523c0,1.211-.655,2.193-1.463,2.193s-1.463-.982-1.463-2.193.654-2.195,1.463-2.195S234.538,109.31,234.538,110.523Z" transform="translate(-166.161 -65.869)"/>
        <path id="Trazado_113659" data-name="Trazado 113659" d="M275.382,93.754S269.913,87.264,268,87.33c-2.079.072-1.145,1.59-1.145,1.59s-2.8.827-1.59,2.29,6.106,2.353,7.951,3.371,2.862,1.526,2.862,1.526Z" transform="translate(-175.266 -60.137)"/>
        <path id="Trazado_113660" data-name="Trazado 113660" d="M224.666,94.1s5.47-6.49,7.378-6.424c2.078.071,1.145,1.59,1.145,1.59s2.8.826,1.59,2.289-6.107,2.354-7.951,3.371-2.862,1.527-2.862,1.527Z" transform="translate(-164.074 -60.232)"/>
      </g>
      <g id="Grupo_80225" data-name="Grupo 80225" transform="translate(232.549 73.561)">
        <path id="Trazado_113661" data-name="Trazado 113661" d="M309.472,113.9c.1,6.979,7.853,8.89,7.853,8.89s10.226,8.047,22.06,15.712c11.1-11.347,19.756-25.427,23.776-40.5C346.5,107.333,328.1,110.263,309.472,113.9Z" transform="translate(-309.471 -89.685)" fill="#bf674f"/>
        <path id="Trazado_113662" data-name="Trazado 113662" d="M380.524,109.764c-3.245-16.6-14.535-17.63-15.075-18-15.075-10.369-43.7-4.324-52.857,10.082-2.314,3.64-3.154,6.576-3.121,8.936,18.625-3.641,37.029-6.571,53.688-15.9-4.02,15.074-12.671,29.154-23.776,40.5,11.436,7.407,24.372,14.456,31.035,13.535C383.973,147.042,383.768,126.365,380.524,109.764Z" transform="translate(-309.471 -86.561)" fill="#cd7659"/>
        <path id="Trazado_113663" data-name="Trazado 113663" d="M401.751,351.219c-.23-.579-.467-1.122-.712-1.62-5.725-11.64-7.257-10.686-7.257-10.686l-54.4,7.442s-.113,8.311-.192,18.21C359.771,359.97,380.981,350.742,401.751,351.219Z" transform="translate(-317.583 -155.444)" fill="#2c8599"/>
        <path id="Trazado_113664" data-name="Trazado 113664" d="M339.158,369.185c-.1,12.83.533,32.247.871,35.766H408.7s-1.809-36.146-6.972-49.111C380.953,355.363,359.744,364.591,339.158,369.185Z" transform="translate(-317.555 -160.066)" fill="#3793b5"/>
        <path id="Trazado_113665" data-name="Trazado 113665" d="M340.82,202.319s-7.962,1.218-9.272,5.607S320.7,217.657,318.981,223s-6.834,31.485-8.092,40.072.651,25.76,4.657,34.92,12.541,16.41,16,18.51V309.25s24.07,4.2,46.014-2.671c0,0,6.107,11.067,13.74,17.174,0,0,14.693-21.944,16.982-33.584s0-28.724-3.625-41.553-9.351-27.9-13.93-35.156-19.656-9.922-19.656-9.922a10.929,10.929,0,0,0-10.113-4.767C354.283,199.529,340.82,202.319,340.82,202.319Z" transform="translate(-309.753 -117.173)" fill="#e95f33"/>
        <path id="Trazado_113666" data-name="Trazado 113666" d="M373.9,198.409a171.277,171.277,0,0,0-22,2.12,6.776,6.776,0,0,1-2.964,4.455s16.6,4.007,27.859-2.672A18.94,18.94,0,0,1,373.9,198.409Z" transform="translate(-320.244 -117.094)" fill="#f9b28f"/>
        <path id="Trazado_113667" data-name="Trazado 113667" d="M372.829,186.959l-19.469,4.124a19.331,19.331,0,0,1-.347,6.321,171.279,171.279,0,0,1,22-2.12A15.564,15.564,0,0,1,372.829,186.959Z" transform="translate(-321.357 -113.968)" fill="#f2a381"/>
        <path id="Trazado_113668" data-name="Trazado 113668" d="M320.253,127.417s.883,10.206.043,17.364,3.5,26.229,29.928,26.641c26.42-3.4,24.276-22.1,24.18-22.1s9.738,2.457,10-6.8-9.749-6.94-9.749-6.94-9.573-12.984-11.4-20.644C363.253,114.94,336.659,125.277,320.253,127.417Z" transform="translate(-312.4 -94.308)" fill="#f9b28f"/>
        <g id="Grupo_80203" data-name="Grupo 80203" transform="translate(37.557 228.165)">
          <path id="Trazado_113669" data-name="Trazado 113669" d="M361.3,400.858c7.755,2.137,17.2,3.1,25.088,1.25.373-.089.3-.709-.092-.675a86.838,86.838,0,0,1-24.871-1.027.235.235,0,0,0-.125.453Z" transform="translate(-361.13 -400.399)"/>
        </g>
        <g id="Grupo_80204" data-name="Grupo 80204" transform="translate(48.139 230.07)">
          <path id="Trazado_113670" data-name="Trazado 113670" d="M376.858,414.068a37.4,37.4,0,0,0-.155-5.343c-.076-1.782.007-3.566-.182-5.343a.375.375,0,0,0-.75,0,49.019,49.019,0,0,0,.687,10.74c.036.244.378.155.4-.055Z" transform="translate(-375.685 -403.02)"/>
        </g>
        <g id="Grupo_80205" data-name="Grupo 80205" transform="translate(44.158 193.269)">
          <path id="Trazado_113671" data-name="Trazado 113671" d="M373.5,384.984c.013-6.041-.522-12.137-.853-18.17-.246-4.489-.171-9.661-1.291-14.03a.539.539,0,0,0-1.038.286c.011.039.02.079.031.119a.51.51,0,0,0,.977,0l.031-.119a.539.539,0,0,0-1.038-.286c-.355,1.388.284,3.312.439,4.722.341,3.079.51,6.217.741,9.308.453,6.07.861,12.117,1.511,18.17a.246.246,0,0,0,.491,0Z" transform="translate(-370.21 -352.4)"/>
        </g>
        <g id="Grupo_80206" data-name="Grupo 80206" transform="translate(46.799 192.495)">
          <path id="Trazado_113672" data-name="Trazado 113672" d="M374.193,378.481c4.308-.82,5.11-3.58,5.056-7.527a107,107,0,0,0-2.568-19.228c-.123-.6-1.133-.472-1.079.146.007.084.015.169.023.254a.527.527,0,0,0,1.053,0c.007-.084.015-.169.022-.254l-1.078.146c.686,3.752,1.1,7.584,1.72,11.353a52.966,52.966,0,0,1,.8,7.583c.068,3.44-.83,5.629-4.1,6.975a.286.286,0,0,0,.152.552Z" transform="translate(-373.843 -351.335)"/>
        </g>
        <g id="Grupo_80207" data-name="Grupo 80207" transform="translate(22.166 194.87)">
          <path id="Trazado_113673" data-name="Trazado 113673" d="M340.071,358.816c2.7,1.516,6.26,1.4,9.277,1.575,5.083.305,10.2.259,15.293.167a71.543,71.543,0,0,0,13.48-1.244c2.766-.579,7.417-1.635,9.331-3.938a.455.455,0,0,0-.643-.643c-2.58,2.28-6.983,3.108-10.265,3.794-4.345.908-8.873.886-13.292.979-3.708.079-7.416.039-11.123-.044-3.836-.086-8.2.1-11.878-1.069a.233.233,0,0,0-.179.424Z" transform="translate(-339.96 -354.603)"/>
        </g>
        <g id="Grupo_80208" data-name="Grupo 80208" transform="translate(21.485 192.529)">
          <path id="Trazado_113674" data-name="Trazado 113674" d="M339.371,369.835c1.983-.7,3.687-4.046,4.757-5.626,2.311-3.412,4.59-8.068,5.2-12.189.095-.64-.884-.914-.977-.27-.506,3.481-2.269,6.891-3.826,10.015-1.019,2.044-3.232,6.438-5.367,7.562-.276.145-.084.613.214.507Z" transform="translate(-339.023 -351.382)"/>
        </g>
        <g id="Grupo_80209" data-name="Grupo 80209" transform="translate(66.79 189.481)">
          <path id="Trazado_113675" data-name="Trazado 113675" d="M401.38,347.559c1.338,1.992,2.988,3.73,4.293,5.754a38.018,38.018,0,0,0,3.42,5.067,55.437,55.437,0,0,0,11.987,9.677c.441.268.966-.383.559-.723-3.6-3-7.575-5.507-10.928-8.806-3.426-3.37-5.421-7.879-8.939-11.27-.2-.191-.553.06-.391.3Z" transform="translate(-401.339 -347.19)"/>
        </g>
        <g id="Grupo_80210" data-name="Grupo 80210" transform="translate(11.824 126.047)">
          <path id="Trazado_113676" data-name="Trazado 113676" d="M334.762,324.57c.627-4.053-2.585-8.563-4.026-12.183a63.556,63.556,0,0,1-3.765-17.562c-1.092-11.585.027-23.027,1.016-34.562.032-.372-.595-.458-.652-.088a155,155,0,0,0-1.321,32.062,79.829,79.829,0,0,0,2.31,15.444,43.617,43.617,0,0,0,2.09,6.255c1.42,3.339,3.722,6.843,3.864,10.569.01.265.439.351.483.065Z" transform="translate(-325.735 -259.937)"/>
        </g>
        <g id="Grupo_80211" data-name="Grupo 80211" transform="translate(67.778 165.503)">
          <path id="Trazado_113677" data-name="Trazado 113677" d="M403.182,337.482c4.949-6.284,9.724-14.734,11.038-22.725.089-.545-.694-.789-.845-.233a75.228,75.228,0,0,1-10.633,22.618c-.18.261.244.59.44.34Z" transform="translate(-402.698 -314.209)"/>
        </g>
        <g id="Grupo_80212" data-name="Grupo 80212" transform="translate(67.252 128.075)">
          <path id="Trazado_113678" data-name="Trazado 113678" d="M412.933,296.643c.064-5.632-1.762-11.461-3.424-16.785a132.272,132.272,0,0,0-6.48-16.834c-.316-.671-1.308-.087-.994.581,4.758,10.1,9.477,21.821,10.452,33.038a.223.223,0,0,0,.446,0Z" transform="translate(-401.975 -262.726)"/>
        </g>
        <g id="Grupo_80213" data-name="Grupo 80213" transform="translate(23.674 93.522)">
          <path id="Trazado_113679" data-name="Trazado 113679" d="M342.213,216.111c2.851.895,5.564,2.168,8.435,3,2.971.859,6.262.756,9.315.766a29.823,29.823,0,0,0,8.63-1.421c2.007-.589,4.252-1.059,5.783-2.553a.414.414,0,0,0-.5-.648c-4.46,2.523-10.217,3.468-15.248,3.469-5.848,0-10.7-1.762-16.279-3.1a.255.255,0,0,0-.135.491Z" transform="translate(-342.034 -215.2)"/>
        </g>
        <g id="Grupo_80214" data-name="Grupo 80214" transform="translate(29.3 90.057)">
          <path id="Trazado_113680" data-name="Trazado 113680" d="M349.782,214.749a.659.659,0,0,0,.129.276c.182.209.481.027.5-.206.059-.777.155-1.549.255-2.322a3.5,3.5,0,0,0-.02-1.908.317.317,0,0,0-.544,0,5.035,5.035,0,0,0-.22,1.908,21.527,21.527,0,0,0-.055,2.322l.5-.206a.658.658,0,0,0-.276-.131.219.219,0,0,0-.268.268Z" transform="translate(-349.773 -210.434)"/>
        </g>
        <g id="Grupo_80215" data-name="Grupo 80215" transform="translate(35.893 90.28)">
          <path id="Trazado_113681" data-name="Trazado 113681" d="M359.143,215.631c.482-.07.512-1.288.561-1.61a19.8,19.8,0,0,0,.279-2.87.4.4,0,0,0-.195-.34c-.767-.428-.615,1.179-.63,1.5-.026.6-.073,1.192-.115,1.788-.015.2,0,1.047-.124,1.144-.2.161.028.411.223.382Z" transform="translate(-358.841 -210.74)"/>
        </g>
        <g id="Grupo_80216" data-name="Grupo 80216" transform="translate(41.94 90.086)">
          <path id="Trazado_113682" data-name="Trazado 113682" d="M367.49,215.335a.673.673,0,0,0-.083.257l.568-.154c-.239-.425-.052-1.162-.029-1.627.046-.97.076-1.955.065-2.926a.427.427,0,0,0-.853,0c-.011,1.02.066,2.041.065,3.061a3.061,3.061,0,0,0,.225,1.8c.162.222.588.177.569-.154a.673.673,0,0,0-.083-.257.259.259,0,0,0-.445,0Z" transform="translate(-367.159 -210.473)"/>
        </g>
        <g id="Grupo_80217" data-name="Grupo 80217" transform="translate(47.589 89.248)">
          <path id="Trazado_113683" data-name="Trazado 113683" d="M376.074,214.515a23.749,23.749,0,0,0-.395-4.834c-.057-.467-.781-.492-.75,0,.1,1.63.651,3.185.623,4.834-.006.341.494.33.521,0Z" transform="translate(-374.929 -209.321)"/>
        </g>
        <g id="Grupo_80218" data-name="Grupo 80218" transform="translate(53.36 88.66)">
          <path id="Trazado_113684" data-name="Trazado 113684" d="M384.259,212.385c-.069-.63-.172-1.251-.3-1.872a8.454,8.454,0,0,1-.335-1.69.308.308,0,0,0-.461-.264c-.542.387-.218.837-.069,1.379a23.833,23.833,0,0,1,.571,2.527c.053.333.627.256.59-.08Z" transform="translate(-382.866 -208.512)"/>
        </g>
        <g id="Grupo_80219" data-name="Grupo 80219" transform="translate(56.897 86.06)">
          <path id="Trazado_113685" data-name="Trazado 113685" d="M387.779,205.483a19.585,19.585,0,0,1,1.041,1.882,23.111,23.111,0,0,0,.747,2.312.35.35,0,0,0,.633-.083c.535-1.465-1.027-3.469-1.864-4.541-.25-.322-.763.093-.557.43Z" transform="translate(-387.731 -204.936)"/>
        </g>
        <g id="Grupo_80220" data-name="Grupo 80220" transform="translate(24.961 87.127)">
          <path id="Trazado_113686" data-name="Trazado 113686" d="M344.479,212.961l.073-.031a.265.265,0,0,0,.121-.3,9.725,9.725,0,0,1-.112-2.865,4.367,4.367,0,0,1,1.354-2.819.321.321,0,0,0-.31-.531c-1.129.284-1.553,1.613-1.714,2.637a11.672,11.672,0,0,0-.084,1.932c0,.142.154,1.854.373,1.59a.247.247,0,0,0,.3.387Z" transform="translate(-343.804 -206.404)"/>
        </g>
        <g id="Grupo_80221" data-name="Grupo 80221" transform="translate(61.896 42.949)">
          <path id="Trazado_113687" data-name="Trazado 113687" d="M396.052,154.957c-.334-1.854-.841-3.748-.334-5.614a4.087,4.087,0,0,1,3.023-2.659c1.086-.126,1.8.9,2.574,1.473.379.279.814-.248.611-.611-1.478-2.631-4.2-2.339-6.063-.362-2.122,2.247-1.077,5.33-.284,7.9a.246.246,0,0,0,.475-.131Z" transform="translate(-394.608 -145.637)"/>
        </g>
        <g id="Grupo_80222" data-name="Grupo 80222" transform="translate(62.16 46.388)">
          <path id="Trazado_113688" data-name="Trazado 113688" d="M395.059,153.674l.06.035a.21.21,0,0,0,.286-.075c.471-.888.329-1.826,1.45-2.244a2.615,2.615,0,0,1,1.416-.084c.575.114.81.6,1.288.848a.342.342,0,0,0,.508-.292c-.008-1.405-2.022-1.642-3.042-1.422a2.532,2.532,0,0,0-1.5.877c-.118.177-.737,2.088-.428,2.023a.185.185,0,0,0-.043.335Z" transform="translate(-394.971 -150.368)"/>
        </g>
        <g id="Grupo_80223" data-name="Grupo 80223" transform="translate(30.318 54.285)">
          <path id="Trazado_113689" data-name="Trazado 113689" d="M351.518,166.5c.732-.022,1.379.331,2.116.183a4.543,4.543,0,0,0,1.98-.869,6.008,6.008,0,0,0,2.234-4.119c.049-.487-.669-.632-.891-.241a6.609,6.609,0,0,0-.519,1.408,4.683,4.683,0,0,1-1.314,2,3.644,3.644,0,0,1-1.742.9c-.629.158-1.307-.087-1.957.041-.393.077-.3.7.094.691Z" transform="translate(-351.172 -161.23)"/>
        </g>
        <g id="Grupo_80224" data-name="Grupo 80224" transform="translate(23.788 32.181)">
          <path id="Trazado_113690" data-name="Trazado 113690" d="M345.5,151.4a5.751,5.751,0,0,1-1.931-2.005q1.517-2.84,3.272-1.338a4.359,4.359,0,0,0,1.842.659c1,0,1.339-.617,1.547-1.473.5-2.044-.383-4.834-.614-6.876a54.072,54.072,0,0,0-1.648-9.135.58.58,0,0,0-1.135.154l0,.127a.576.576,0,0,0,1.151,0l0-.127-1.135.153a82.639,82.639,0,0,1,2.049,12.492c.206,1.736.262,4.117-2.348,2.665a4.727,4.727,0,0,0-2.692-.708c-3.853.126-.041,5.162,1.388,5.838a.246.246,0,0,0,.249-.425Z" transform="translate(-342.191 -130.825)"/>
        </g>
        <path id="Trazado_113691" data-name="Trazado 113691" d="M372.6,150.021c0,1.362-.655,2.467-1.463,2.467s-1.464-1.105-1.464-2.467.656-2.467,1.464-2.467S372.6,148.659,372.6,150.021Z" transform="translate(-325.904 -103.211)"/>
        <path id="Trazado_113692" data-name="Trazado 113692" d="M335.063,151.487c0,1.363-.654,2.467-1.463,2.467s-1.463-1.1-1.463-2.467.656-2.467,1.463-2.467S335.063,150.125,335.063,151.487Z" transform="translate(-315.658 -103.612)"/>
        <path id="Trazado_113693" data-name="Trazado 113693" d="M378.643,135.231s-5.12-6.361-7.919-6.614-5.471,1.526-4.326,2.671-2.06,2.127,1.145,2.672C375.023,135.231,381.435,138.324,378.643,135.231Z" transform="translate(-324.922 -98.035)" fill="#bf674f"/>
        <path id="Trazado_113694" data-name="Trazado 113694" d="M323.1,141.3s3.51-7.373,6.175-8.268,5.675.22,4.826,1.6,2.5,1.592-.5,2.864C326.621,140.458,321.1,144.951,323.1,141.3Z" transform="translate(-313.078 -99.158)" fill="#bf674f"/>
      </g>
      <path id="Trazado_113695" data-name="Trazado 113695" d="M413.951,206.331s-10.877-.449-12.194,5.484-.132,10.218.725,10.548,2.768-8.811,2.768-8.811-1.911,8.811,0,9.273,3.1-9.1,3.1-9.1-1.049,9.3.6,9.691,2.833-9.691,2.833-9.691-.923,9.757.395,10.021S415,213.99,415,213.99s1.125,6.923,2.444,7.384,3.1-5.845,2.275-9.185S417.511,206.451,413.951,206.331Z" transform="translate(-101.954 -42.694)" fill="#fcceb6"/>
      <g id="Grupo_80241" data-name="Grupo 80241" transform="translate(373.687 75.428)">
        <g id="Grupo_80227" data-name="Grupo 80227">
          <path id="Trazado_113696" data-name="Trazado 113696" d="M618.463,210.727c3.816-12.212-6.87-19.845-16.029-26.715-3.053-1.527-.763-6.87,0-9.922a25.991,25.991,0,0,0,0-15.266c-1.527-3.053-3.816-6.87-7.633-8.4-8.4-1.527-12.976,6.869-18.319,9.159-6.87,3.816-16.792,0-24.425-4.579-5.344-3.053-12.212.763-12.976,6.106-1.527,8.4,7.632,14.5,3.053,22.9-2.289,4.58-6.87,10.686-3.816,14.5,10.686,10.686,8.4,25.952.763,37.4a9.778,9.778,0,0,0-1.618,5.687,50.147,50.147,0,0,0,14.021,2.328c20.228.763,49.5-1.107,57.668-4.752,3.53-1.572,6.257-2.753,6.257-2.753l-.573-10.766,3.626,10.766s.949-.123,2.423-.335c-2.113-4-4.5-7.895-6.24-11.624C612.357,219.886,616.936,215.307,618.463,210.727Z" transform="translate(-512.804 -101.825)" fill="#db4d28"/>
          <path id="Trazado_113697" data-name="Trazado 113697" d="M595.679,110.176a56.964,56.964,0,0,1,16.587-5.658c-3.77-.338-7.517.828-10.672-2.738-4.389-4.961-11.117-11.45-23.114-8.968a49.985,49.985,0,0,0-10.007,3.362c5.575,2.774,10.835,7.554,14.992,11.712C586.519,110.939,591.863,112.466,595.679,110.176Z" transform="translate(-521.313 -85.998)" fill="#e95f33"/>
          <path id="Trazado_113698" data-name="Trazado 113698" d="M578.634,119.277c12.292,15.025,27.64,3.163,41.123-5.514-.822-2.754-1.97-4.385-4.867-6.316a9.105,9.105,0,0,0-4.4-1.46,56.964,56.964,0,0,0-16.587,5.658c-3.816,2.29-9.16.763-12.213-2.289-4.158-4.159-9.418-8.939-14.992-11.712-1.66.739-3.249,1.526-4.737,2.313C568.914,103.531,573.419,113.54,578.634,119.277Z" transform="translate(-519.534 -87.465)" fill="#ef6843"/>
          <path id="Trazado_113699" data-name="Trazado 113699" d="M616.946,164.161c2.672-7.187,3.244-12.34-1.908-21.88s-3.053-8.968-5.152-18.51c-.919-4.175-1.362-7-2-9.14-13.483,8.678-28.831,20.54-41.123,5.514-5.216-5.737-9.72-15.746-16.676-19.321a90.8,90.8,0,0,0-10.039,6.155s-16.029,1.527-17.555,13.93,2.862,18.415,2,24.664-6.393,11.273-6.011,18.588,9.16,10.46,8.4,16.043-5.152,12.071-4.007,18.178,2.1,17.746-1.717,22.325c0,0,2.5,4.508,11.167,7.4a9.779,9.779,0,0,1,1.618-5.687c7.632-11.448,9.922-26.714-.763-37.4-3.053-3.817,1.527-9.922,3.816-14.5,4.579-8.4-4.58-14.5-3.053-22.9.763-5.343,7.632-9.16,12.976-6.106,7.633,4.579,17.555,8.4,24.425,4.579,5.343-2.29,9.922-10.686,18.319-9.159,3.817,1.526,6.106,5.343,7.633,8.4a25.991,25.991,0,0,1,0,15.266c-.763,3.053-3.053,8.4,0,9.922,9.159,6.87,19.845,14.5,16.028,26.715-1.527,4.579-6.106,9.159-3.817,13.739,1.74,3.729,4.127,7.622,6.24,11.624a124.628,124.628,0,0,0,13.033-2.465s-1.717-6.678,0-10.686.856-9.456-3.053-18.128S614.275,171.348,616.946,164.161Z" transform="translate(-507.662 -88.334)" fill="#e95f33"/>
          <path id="Trazado_113700" data-name="Trazado 113700" d="M632.315,187.943s9.16,4.2,15.012,10.177,6.741,12.126,6.741,12.126a24.419,24.419,0,0,1-12.084-6.26C636.641,198.756,632.315,187.943,632.315,187.943Z" transform="translate(-538.741 -112.116)" fill="#2c2945"/>
          <path id="Trazado_113701" data-name="Trazado 113701" d="M636.133,190.875c5.575,14.437,16.01,16.827,16.01,16.827,4.172-6.271,7.759-12.1,10.859-17.514a114.276,114.276,0,0,1-21.091-7.577C638.59,187.435,636.133,190.875,636.133,190.875Z" transform="translate(-539.783 -110.661)" fill="#f2a381"/>
          <path id="Trazado_113702" data-name="Trazado 113702" d="M687.811,110.113c3.563-2.545,14.629-15.393,12.976-16.665s-9.286,6.488-9.286,6.488,7.25-11.322,5.47-12.085-8.905,9.541-8.905,9.541,5.6-11.958,3.944-12.594-8.143,11.195-8.143,11.195,5.852-11.958,2.926-12.34-7.377,13.357-7.377,13.357-.763-10.05-2.545-9.032-2.291,16.665-2.291,16.665-9.413,16.665-15.647,27.86c-3.659,6.572-10.132,16.233-14.854,23.092a114.275,114.275,0,0,0,21.091,7.577C684.5,129.43,684.742,112.305,687.811,110.113Z" transform="translate(-541.953 -83.644)" fill="#f9b28f"/>
          <g id="Grupo_80226" data-name="Grupo 80226" transform="translate(16.833 75.827)">
            <path id="Trazado_113703" data-name="Trazado 113703" d="M550.328,280.066c-.16,2.867-.318,6.032-.444,9.253,15.443,1.388,42.123,1.441,63.837-10.586.127-2.961.223-5.844.256-8.354C591.928,281.941,565.218,281.526,550.328,280.066Z" transform="translate(-533.072 -210.447)" fill="#feb01b"/>
            <path id="Trazado_113704" data-name="Trazado 113704" d="M550.495,273.508c14.89,1.461,41.6,1.876,63.649-9.687.008-.622.013-1.224.013-1.8,0-4.115,1.854-9.914,4.423-15.669-22.077,16.958-52.711,19.4-67.615,19.488C550.828,267.89,550.661,270.534,550.495,273.508Z" transform="translate(-533.239 -203.889)" fill="#fad8b4"/>
            <path id="Trazado_113705" data-name="Trazado 113705" d="M549.8,292.456c-.1,2.462-.174,4.952-.221,7.363,14.6,1.5,41.373,2.1,63.614-9.268.16-2.774.318-5.762.444-8.681C591.924,293.9,565.244,293.844,549.8,292.456Z" transform="translate(-532.989 -213.584)" fill="#fad8b4"/>
            <path id="Trazado_113706" data-name="Trazado 113706" d="M549.562,303.079c-.051,2.652-.065,5.209-.022,7.52,0,0,52.156-2.289,62.842-4.579,0,0,.4-5.462.794-12.209C590.935,305.177,564.165,304.577,549.562,303.079Z" transform="translate(-532.971 -216.843)" fill="#feb01b"/>
            <path id="Trazado_113707" data-name="Trazado 113707" d="M610.752,195.881c-3.307-5.405-4.965-7.938-4.965-7.938s-4.761,5.407-9.943,10.29c-13.755,17.029-42.26,19.38-57.74,19.3-.729,2.5-1.805,5.6-2.966,8.741C550.489,227.1,594.248,226.585,610.752,195.881Z" transform="translate(-529.047 -187.943)" fill="#feb01b"/>
            <path id="Trazado_113708" data-name="Trazado 113708" d="M596.958,202.1c-4.02,3.786-8.293,7.258-10.793,7.647-5.724.891-34.157,2.1-34.157,2.1s-10.686-.572-12.021,6.488c-.161.851-.428,1.895-.769,3.067C554.7,221.477,583.2,219.126,596.958,202.1Z" transform="translate(-530.16 -191.807)" fill="#fad8b4"/>
            <path id="Trazado_113709" data-name="Trazado 113709" d="M625.253,216.768a29,29,0,0,1-9.433-4.933c-23.338,36.768-70.579,34.293-87.312,32.1-1.04,2.557-1.749,4.241-1.749,4.241s12.116,4.579,18.032,3.911c0,0-.127,1.655-.305,4.329,14.9-.085,45.538-2.531,67.615-19.488C616.2,227.743,622.124,218.67,625.253,216.768Z" transform="translate(-526.759 -194.465)" fill="#feb01b"/>
            <path id="Trazado_113710" data-name="Trazado 113710" d="M616.476,208.293a21.442,21.442,0,0,1-5.068-5.666c-.837-1.386-1.6-2.635-2.287-3.766-16.5,30.7-60.263,31.22-75.613,30.394-1.5,4.068-3.143,8.19-4.344,11.144C545.9,242.586,593.138,245.061,616.476,208.293Z" transform="translate(-527.416 -190.923)" fill="#fad8b4"/>
          </g>
          <path id="Trazado_113711" data-name="Trazado 113711" d="M569.006,200.866s1.387,6.279-5.971,9.41c9.426,1.924,17.813-.67,25.226-5.538a24.975,24.975,0,0,1-1.487-6.039Z" transform="translate(-519.828 -115.052)" fill="#f2a381"/>
          <path id="Trazado_113712" data-name="Trazado 113712" d="M561.336,212.544a20.009,20.009,0,0,1-4.525,1.275,14.484,14.484,0,0,0,1.845,1.336c10.813,3.511,24.107,3.244,32.311-3.053,0,0-2.556-.507-4.406-5.1C579.149,211.873,570.762,214.468,561.336,212.544Z" transform="translate(-518.129 -117.32)" fill="#f9b28f"/>
          <path id="Trazado_113713" data-name="Trazado 113713" d="M536.764,150.378a129.5,129.5,0,0,1,3.943,14.5c1.527,7.506,14.375,17.555,30.531,15.52s22.135-17.555,23.026-27.8c0,0,11.069-.573,8.142-11.895s-11.831-1.654-11.831-1.654-11.2,1.781-16.665-5.216-1.4-11.2-11.194-11.7-12.213,3.69-12.213,3.69-.764,7.759-5.98,12.212S536.383,145.928,536.764,150.378Z" transform="translate(-512.648 -94.14)" fill="#f9b28f"/>
          <path id="Trazado_113714" data-name="Trazado 113714" d="M503.605,303.583s3.575,9.043,4.725,14.357c0,0,17.554-13.557,26.093-29.26a121.25,121.25,0,0,0-15.491-12.3C515.284,285.049,509.5,297.28,503.605,303.583Z" transform="translate(-503.605 -136.259)" fill="#f9b28f"/>
          <path id="Trazado_113715" data-name="Trazado 113715" d="M544.226,266.048s-9.07-.581-15.7-3.089c0,0-1.471,4.129-3.841,9.76a121.258,121.258,0,0,1,15.491,12.3,41,41,0,0,0,3.582-8.611Z" transform="translate(-509.36 -132.594)" fill="#f2a381"/>
          <path id="Trazado_113716" data-name="Trazado 113716" d="M550.818,214.288s-2.734,25.7-1.525,37.529-3.242,21.373-5.025,26.843-1.273,73.177,1.907,82.972h28.37L572.89,341.12a25.272,25.272,0,0,0,6.743-1.144s.508,14.689,1.017,21.656h36.511s2.417-26.871,1.78-33.995-8.4-44.778-8.27-44.271-9.794-3.816-14.374-14.5-6.361-33.457-6.361-33.457l.313-24.581-3.876,1.047.382,30.913s-32.949,1.653-32.949,2.162l.262-30.764Z" transform="translate(-514.427 -118.363)" fill="#3793b5"/>
        </g>
        <g id="Grupo_80228" data-name="Grupo 80228" transform="translate(27.684 44.123)">
          <path id="Trazado_113717" data-name="Trazado 113717" d="M542.293,156.339c.744-2.353,2.854-4.408,4.426-6.236a69.761,69.761,0,0,1,4.975-4.948c.468-.444-.217-1.1-.7-.7a39.423,39.423,0,0,0-5.508,5.674c-1.424,1.773-3.18,3.821-3.794,6.042a.309.309,0,0,0,.6.164Z" transform="translate(-541.684 -144.335)"/>
        </g>
        <g id="Grupo_80229" data-name="Grupo 80229" transform="translate(54.633 40.479)">
          <path id="Trazado_113718" data-name="Trazado 113718" d="M579.02,139.9c5.305.34,10.551,3.527,15.242,5.815a.426.426,0,0,0,.43-.736,37.688,37.688,0,0,0-7.653-3.693c-2.536-.926-5.272-2.145-8.019-1.942a.278.278,0,0,0,0,.555Z" transform="translate(-578.752 -139.323)"/>
        </g>
        <g id="Grupo_80230" data-name="Grupo 80230" transform="translate(80 43.441)">
          <path id="Trazado_113719" data-name="Trazado 113719" d="M616.295,154.03a11.061,11.061,0,0,1-1.3-4.806c-.136-2.676,1.966-5.39,4.787-4.142.5.22,1.044-.361.611-.791-2.074-2.057-4.736-.188-6.012,1.812-1.565,2.455-.395,6.363,1.424,8.308.252.269.661-.073.5-.382Z" transform="translate(-613.645 -143.397)"/>
        </g>
        <g id="Grupo_80231" data-name="Grupo 80231" transform="translate(80.696 47.756)">
          <path id="Trazado_113720" data-name="Trazado 113720" d="M614.853,153.023l.034,0a.211.211,0,0,0,.2-.156,2.957,2.957,0,0,0,.057-.572,1.853,1.853,0,0,1,.686-1.139,3.371,3.371,0,0,1,1.153-.7c.459-.179.958-.059,1.421-.223a.46.46,0,0,0-.121-.9,3.639,3.639,0,0,0-3.079,1.194,2.536,2.536,0,0,0-.521,2.363.174.174,0,0,0,.165.126Z" transform="translate(-614.601 -149.332)"/>
        </g>
        <g id="Grupo_80232" data-name="Grupo 80232" transform="translate(44.531 44.69)">
          <path id="Trazado_113721" data-name="Trazado 113721" d="M570.552,164.525l-1.431-2.791a6.282,6.282,0,0,0,1.17-.06,3.937,3.937,0,0,0,1.189-.46,3.569,3.569,0,0,0,.71-3.067c-.777-4.67-3.519-9.1-6.344-12.813-.394-.518-1.284-.025-.891.519a56.154,56.154,0,0,1,4.329,7.077c.57,1.1,3.951,7.606-.162,7.818a4.138,4.138,0,0,0-2.151.459c-2.728,1.6,2.395,3.863,3.582,3.81a.246.246,0,0,0,0-.492Z" transform="translate(-564.857 -145.114)"/>
        </g>
        <g id="Grupo_80233" data-name="Grupo 80233" transform="translate(32.215 169.247)">
          <path id="Trazado_113722" data-name="Trazado 113722" d="M548.04,321.146c4.243,1.518,8.592,1.652,13.048,1.9,5.522.308,11.06.326,16.589.26,10.212-.124,20.976-.795,29.928-6.231a.344.344,0,0,0-.347-.593c-9.43,4.532-19.25,5.594-29.581,5.771q-7.614.13-15.223-.11c-4.736-.144-9.749.027-14.32-1.338-.222-.066-.307.266-.094.342Z" transform="translate(-547.917 -316.441)"/>
        </g>
        <g id="Grupo_80234" data-name="Grupo 80234" transform="translate(42.204 217.331)">
          <path id="Trazado_113723" data-name="Trazado 113723" d="M561.951,390.664c5.348.262,10.891-1.877,16.124-2.841,6.526-1.2,12.638-1.861,18.934-4.211.619-.231.374-1.208-.277-1a106.251,106.251,0,0,1-16.368,3.764c-6.108.925-12.262,3.429-18.413,3.686a.3.3,0,0,0,0,.606Z" transform="translate(-561.657 -382.58)"/>
        </g>
        <g id="Grupo_80235" data-name="Grupo 80235" transform="translate(55.727 175.959)">
          <path id="Trazado_113724" data-name="Trazado 113724" d="M583.081,362.613c.645-12.218-1.808-24.292-1.8-36.446a.51.51,0,0,0-1.019,0c0,12.154,2.509,24.249,2.395,36.446a.215.215,0,0,0,.429,0Z" transform="translate(-580.257 -325.674)"/>
        </g>
        <g id="Grupo_80236" data-name="Grupo 80236" transform="translate(82.3 174.085)">
          <path id="Trazado_113725" data-name="Trazado 113725" d="M616.818,323.436c.893,3.117,3.642,6.289,5.674,8.755,3.053,3.708,6.731,7.657,11.168,9.659.4.179.891-.325.5-.651-6.219-5.239-13.03-10.508-16.854-17.97a.27.27,0,0,0-.491.207Z" transform="translate(-616.808 -323.096)"/>
        </g>
        <g id="Grupo_80237" data-name="Grupo 80237" transform="translate(29.758 176.757)">
          <path id="Trazado_113726" data-name="Trazado 113726" d="M545.112,349.413c2.758-3.206,5.184-6.226,6.847-10.159,1.576-3.729,2.127-7.807,3.765-11.513.326-.737-.752-1.383-1.092-.639-1.378,3.02-2.047,6.314-3.015,9.476-1.495,4.885-4.5,8.166-7.035,12.426-.193.324.276.705.53.409Z" transform="translate(-544.537 -326.771)"/>
        </g>
        <g id="Grupo_80238" data-name="Grupo 80238" transform="translate(99.429 197.928)">
          <path id="Trazado_113727" data-name="Trazado 113727" d="M641.119,399.934c1.8-7.115,1.843-14.99,2.2-22.3a89.836,89.836,0,0,0-.477-12.067c-.263-3.065-.35-6.463-1.494-9.341-.23-.579-1.152-.358-.956.262,1.9,6.019,1.874,13.441,1.866,19.714,0,3.82-.463,7.644-.75,11.45-.306,4.075-.18,8.095-.883,12.145-.056.317.409.459.491.134Z" transform="translate(-640.369 -355.892)"/>
        </g>
        <g id="Grupo_80239" data-name="Grupo 80239" transform="translate(58.641 176.078)">
          <path id="Trazado_113728" data-name="Trazado 113728" d="M584.308,358.209l.165.221a.314.314,0,0,0,.42.111c3.8-2.107,2.587-8.959,2.618-12.485.058-6.382.053-13.611-1.655-19.808a.581.581,0,0,0-1.12.31c1.4,4.919,1.365,10.414,1.65,15.491.142,2.529.145,5.061.144,7.593,0,.913-.423,9.2-1.865,8.211-.209-.143-.512.148-.356.357Z" transform="translate(-584.265 -325.837)"/>
        </g>
        <g id="Grupo_80240" data-name="Grupo 80240" transform="translate(39.392 129.954)">
          <path id="Trazado_113729" data-name="Trazado 113729" d="M558.032,264.493c5.65.089,11.295.547,16.945.3a49.932,49.932,0,0,0,6.655-.9c2.534-.454,5.129-.073,7.588-.873.324-.105.287-.668-.084-.625-2.163.258-4.324.153-6.488.371-2.573.259-5.078.878-7.671,1.08-5.637.439-11.3-.137-16.945.142a.252.252,0,0,0,0,.5Z" transform="translate(-557.788 -262.394)"/>
        </g>
        <path id="Trazado_113730" data-name="Trazado 113730" d="M576.551,181.392a5.427,5.427,0,0,0,4.826-.39c2.594-1.429,2.75-3.884,2.374-5.789A12.335,12.335,0,0,0,576.551,181.392Z" transform="translate(-523.518 -108.641)" fill="#e95f33"/>
        <path id="Trazado_113731" data-name="Trazado 113731" d="M572.3,177.983a7.719,7.719,0,0,0,3.093,2.394,12.335,12.335,0,0,1,7.2-6.18,10.433,10.433,0,0,0-.943-2.7C577.545,172.45,572.3,177.983,572.3,177.983Z" transform="translate(-522.357 -107.626)"/>
        <path id="Trazado_113732" data-name="Trazado 113732" d="M589.264,157.125c.322,1.077.031,2.116-.65,2.319s-1.5-.5-1.818-1.58-.031-2.116.65-2.32S588.942,156.049,589.264,157.125Z" transform="translate(-526.279 -103.262)"/>
        <path id="Trazado_113733" data-name="Trazado 113733" d="M555.715,164.1c.281,1.088-.049,2.114-.738,2.292s-1.475-.56-1.756-1.648.049-2.115.737-2.293S555.434,163.014,555.715,164.1Z" transform="translate(-517.122 -105.151)"/>
        <path id="Trazado_113734" data-name="Trazado 113734" d="M604.046,166.391c.847,2.591-1.146,5.567-4.452,6.648s-6.672-.143-7.52-2.734,1.147-5.567,4.452-6.648S603.2,163.8,604.046,166.391Z" transform="translate(-527.703 -105.379)" fill="#f2a381"/>
        <path id="Trazado_113735" data-name="Trazado 113735" d="M560.745,178.412c.009,2.726-2.8,4.946-6.279,4.96s-6.305-2.186-6.316-4.912,2.8-4.946,6.279-4.959S560.734,175.686,560.745,178.412Z" transform="translate(-515.765 -108.174)" fill="#f2a381"/>
      </g>
      <g id="Grupo_80260" data-name="Grupo 80260" transform="translate(27.689 86.773)">
        <path id="Trazado_113736" data-name="Trazado 113736" d="M114.156,101.108a13.787,13.787,0,0,0-6.96-.1c-7.663,1.85-14.771,5.389-15.783,14.519A53.177,53.177,0,0,0,114.156,101.108Z" transform="translate(-45.085 -100.608)" fill="#cd7659"/>
        <path id="Trazado_113737" data-name="Trazado 113737" d="M114.1,101.295a53.177,53.177,0,0,1-22.744,14.416c-.033.291-.078.571-.1.874-.635,9.8,6.615,11.831,6.615,11.831,15.266.254,23.025-9.922,23.916-16.919C122.412,106.646,118.931,102.654,114.1,101.295Z" transform="translate(-45.033 -100.796)" fill="#bf674f"/>
        <path id="Trazado_113738" data-name="Trazado 113738" d="M85.739,154.175c-.027,9.631,4.372,11.337,5.3,13.858,18.281-7.815,40.973-15.692,45.981-34.879a23.322,23.322,0,0,1-1.585-4.335A205.08,205.08,0,0,1,85.739,154.175Z" transform="translate(-43.536 -108.309)" fill="#bf674f"/>
        <path id="Trazado_113739" data-name="Trazado 113739" d="M155.724,127.241q-.809.577-1.623,1.147a23.322,23.322,0,0,0,1.585,4.335,30.982,30.982,0,0,0,.85-4.955Z" transform="translate(-62.198 -107.879)" fill="#bf674f"/>
        <path id="Trazado_113740" data-name="Trazado 113740" d="M157.251,126.35c-.3.22-.611.43-.917.648l.811.527C157.182,127.134,157.228,126.749,157.251,126.35Z" transform="translate(-62.807 -107.635)" fill="#cd7659"/>
        <path id="Trazado_113741" data-name="Trazado 113741" d="M157.131,127.966a30.982,30.982,0,0,1-.85,4.955c4.169,8.657,13.478,14.774,23.541,16.539a52.459,52.459,0,0,0-2.429-11.687C170.1,135.85,163.422,132.043,157.131,127.966Z" transform="translate(-62.793 -108.077)" fill="#bf674f"/>
        <path id="Trazado_113742" data-name="Trazado 113742" d="M137.063,124.192c.305-.217.613-.428.917-.648-.023.4-.069.784-.105,1.175,6.291,4.077,12.968,7.884,20.262,9.807-.143-.436-.28-.87-.438-1.314-4.071-11.449-14.63-20.354-37.782-16.029,0,0-28.242,1.144-32.949,23.407a50.043,50.043,0,0,0-1.228,10.1,205.08,205.08,0,0,0,49.7-25.356,22.689,22.689,0,0,1-.513-2.558Q135.987,123.488,137.063,124.192Z" transform="translate(-43.536 -104.83)" fill="#cd7659"/>
        <path id="Trazado_113743" data-name="Trazado 113743" d="M153.4,125.3a22.689,22.689,0,0,0,.513,2.558q.815-.568,1.623-1.147Q154.459,126.008,153.4,125.3Z" transform="translate(-62.005 -107.349)" fill="#cd7659"/>
        <path id="Trazado_113744" data-name="Trazado 113744" d="M107.438,172.379c-5.807,2.738-11.837,5.146-17.453,7.546a2.889,2.889,0,0,1-.005,1.989C88.326,187,80.057,193.49,82.22,202.649S86.8,215.37,86.8,215.37a31.12,31.12,0,0,0,9.033,2.417L98,206.339l1.014,11.449s3.107-.281,7.868-.751C110.2,202.264,111.83,186.687,107.438,172.379Z" transform="translate(-42.478 -120.201)" fill="#cd7659"/>
        <path id="Trazado_113745" data-name="Trazado 113745" d="M145.36,134.782c-3.469,13.294-15.429,21.157-28.528,27.334,4.392,14.308,2.758,29.885-.558,44.658,13.212-1.3,39.165-4.067,46.834-6.338v-7.159l2.417,6.488,4.041-1.164c-8.907-15.122-12.311-34.132-12.6-51.673A29.02,29.02,0,0,1,145.36,134.782Z" transform="translate(-51.872 -109.937)" fill="#bf674f"/>
        <path id="Trazado_113746" data-name="Trazado 113746" d="M186.528,188.168c-2.8-9.8-2.673-13.866-2.417-19.464a85.278,85.278,0,0,0,.068-12.823,35.847,35.847,0,0,1-11.936-4.394c.29,17.541,3.694,36.551,12.6,51.673l3.465-1S189.327,197.964,186.528,188.168Z" transform="translate(-67.15 -114.498)" fill="#cd7659"/>
        <path id="Trazado_113747" data-name="Trazado 113747" d="M175.044,321.8l-37.776,3.44s-3.351,9.149-6.312,18.582c15.216-6.811,32.173-10.463,48.826-12.391C177.132,325.738,175.044,321.8,175.044,321.8Z" transform="translate(-55.88 -160.99)" fill="#db4d28"/>
        <path id="Trazado_113748" data-name="Trazado 113748" d="M178.075,335.043c-16.652,1.928-33.609,5.58-48.826,12.391-1.631,5.2-3.144,10.478-3.913,14.365-2.162,10.941,1.908,34.729,1.908,34.729h61.572a148.324,148.324,0,0,0,0-30.276C187.73,357.1,182.215,343.931,178.075,335.043Z" transform="translate(-54.173 -164.606)" fill="#e95f33"/>
        <path id="Trazado_113749" data-name="Trazado 113749" d="M207.61,255.39,199.517,269.8s1.684,3.95,4.2,8.8a44.4,44.4,0,0,0,6.418-18.191Z" transform="translate(-74.596 -142.861)" fill="#f2a381"/>
        <path id="Trazado_113750" data-name="Trazado 113750" d="M228.753,246.7c-.539-9.3-.763-9.923-.763-9.923s1.781-6.614-2.544-9.032c0,0,2.8-9.16.254-11.2s-2.671,10.3-2.671,10.3-1.908-10.886-3.689-10.532,1.144,11.93,1.144,11.93-3.053.127-2.8,5.852-.763,25.952-.763,25.952l-5.208-10.324a44.4,44.4,0,0,1-6.418,18.191c3.959,7.623,9.985,17.469,14.806,17.7C227.99,286.009,229.77,265.4,228.753,246.7Z" transform="translate(-76.174 -132.195)" fill="#f9b28f"/>
        <path id="Trazado_113751" data-name="Trazado 113751" d="M126.042,234.078s-14.5,3.053-19.209,12.213-7.506,23.787-7.506,23.787,5.6,7.125,19.082,9.8c0,0,3.944,8.014,4.071,11.576s1.017,8.141,3.562,9.541,6.106-1.145,13.739-1.527,20.99-3.053,24.806-3.307,7.251-7.378,8.523-14.121-.763-18.7-1.272-19.591,5.725-4.707,8.905-16.92c0,0-5.216-12.084-10.686-16.029s-9.287-4.832-16.029-3.18S126.042,234.078,126.042,234.078Z" transform="translate(-47.245 -134.71)" fill="#feb01b"/>
        <path id="Trazado_113752" data-name="Trazado 113752" d="M136.073,231.968s3.18,2.8,14.121,0,13.866-7.761,13.866-7.761-4.256.042-6.3-6.407a64.379,64.379,0,0,1-15.413,5.232A14.423,14.423,0,0,1,136.073,231.968Z" transform="translate(-57.276 -132.6)" fill="#f9b28f"/>
        <path id="Trazado_113753" data-name="Trazado 113753" d="M145.557,212.245a27.738,27.738,0,0,1-.855,8.979,64.379,64.379,0,0,0,15.413-5.232,22.893,22.893,0,0,1-.922-4.815Z" transform="translate(-59.632 -130.792)" fill="#f2a381"/>
        <path id="Trazado_113754" data-name="Trazado 113754" d="M111.94,160.478s-9.032-1.145-7.759,9.032,10.05,5.6,10.05,5.6,4.973,17.135,25.57,16.41c18.064-.636,26.715-13.484,24.806-26.332s-4.071-18.955-4.071-18.955-11.2-5.979-17.174-11.831C143.362,134.4,123.645,155.645,111.94,160.478Z" transform="translate(-48.537 -109.833)" fill="#f9b28f"/>
        <path id="Trazado_113755" data-name="Trazado 113755" d="M145.883,190.982c0,2.222-3.019,4.023-6.742,4.023s-6.742-1.8-6.742-4.023,3.019-4.023,6.742-4.023S145.883,188.76,145.883,190.982Z" transform="translate(-56.273 -124.181)" fill="#f2a381"/>
        <path id="Trazado_113756" data-name="Trazado 113756" d="M179.879,185c.6,1.877-1.467,4.212-4.613,5.215s-6.182.3-6.78-1.582,1.466-4.212,4.612-5.216S179.28,183.128,179.879,185Z" transform="translate(-66.097 -123.091)" fill="#f2a381"/>
        <path id="Trazado_113757" data-name="Trazado 113757" d="M51,368.026l.023-.028Z" transform="translate(-34.053 -173.602)" fill="#f9b28f"/>
        <path id="Trazado_113758" data-name="Trazado 113758" d="M75.192,320.942c-3.816,3.307-28.623,18.191-28.623,18.191s-12.212-2.417-14.629,0,5.725,4.708,5.725,4.708-10.813,7.759-9.922,9.032,10.431-5.6,10.431-5.6-7.124,7.251-6.615,9.032,9.286-7,9.286-7-4.961,8.9-3.943,10.05c.984,1.107,7.324-7.187,7.738-7.731l.023-.028-.023.028c-.233.305-4.5,5.949-2.395,7.832,2.163,1.934,11.322-9.643,11.322-9.643S82.656,334.553,89.8,328.575c5.051-4.225,6.908-9.225,7.97-16.279A57.967,57.967,0,0,1,80,307.932C78.688,313.624,76.98,319.392,75.192,320.942Z" transform="translate(-27.689 -157.205)" fill="#f9b28f"/>
        <path id="Trazado_113759" data-name="Trazado 113759" d="M102.1,290.326s-.973,6.35-2.458,12.8a57.967,57.967,0,0,0,17.771,4.364c.441-2.926.747-6.2,1.083-9.927C118.494,297.563,108.854,295.3,102.1,290.326Z" transform="translate(-47.331 -152.398)" fill="#f2a381"/>
        <path id="Trazado_113760" data-name="Trazado 113760" d="M222.6,235.841s1.59,6.772,3.244,6.559-1.07-9.53-1.07-9.53S223.426,233.056,222.6,235.841Z" transform="translate(-80.897 -136.714)" fill="#f2a381"/>
        <path id="Trazado_113761" data-name="Trazado 113761" d="M232.033,232.038s-3.69,8.014-2.29,8.777,3.69-5.979,3.69-5.979-3.116,7.634-2,8.524,4.107-2.59,3.5-5.661S234.45,232.929,232.033,232.038Z" transform="translate(-82.76 -136.487)" fill="#f2a381"/>
        <g id="Grupo_80242" data-name="Grupo 80242" transform="translate(58.335 53.562)">
          <path id="Trazado_113762" data-name="Trazado 113762" d="M108.333,176.624c1.283-1.657,4.61-2.136,5.968-.334,1.594,2.115.417,5.067-.278,7.226a.357.357,0,0,0,.593.345c1.876-2.224,2.044-6.644-.16-8.724-1.712-1.616-5.455-.782-6.5,1.2-.121.23.2.515.378.292Z" transform="translate(-107.929 -174.283)"/>
        </g>
        <g id="Grupo_80243" data-name="Grupo 80243" transform="translate(61.198 57.478)">
          <path id="Trazado_113763" data-name="Trazado 113763" d="M112.1,180.457a8.56,8.56,0,0,1,2.42-.087,2.091,2.091,0,0,1,1.265,1.121.266.266,0,0,0,.455,0c.415-.664-.506-1.288-1.008-1.549-1.072-.558-2.041-.111-3.131.028-.3.039-.323.485,0,.486Z" transform="translate(-111.866 -179.669)"/>
        </g>
        <g id="Grupo_80244" data-name="Grupo 80244" transform="translate(75.809 41.54)">
          <path id="Trazado_113764" data-name="Trazado 113764" d="M132.544,167.8c.982-1.558,1.73-3.254,2.762-4.8a12.254,12.254,0,0,1,5.49-4.361c.436-.174.43-.932-.121-.888-2.1.169-4.068,2.19-5.418,3.645a18.157,18.157,0,0,0-3.273,6.172c-.129.336.382.518.56.236Z" transform="translate(-131.964 -157.746)"/>
        </g>
        <g id="Grupo_80245" data-name="Grupo 80245" transform="translate(105.132 39.992)">
          <path id="Trazado_113765" data-name="Trazado 113765" d="M172.437,156.149c1.271.745,2.621,1.381,3.935,2.048,1.464.744,2.153,2.486,3.47,3.424.577.411,1.117-.536.552-.944-1.325-.957-2.011-2.6-3.522-3.335a21.058,21.058,0,0,0-4.215-1.717.288.288,0,0,0-.22.523Z" transform="translate(-172.297 -155.617)"/>
        </g>
        <g id="Grupo_80246" data-name="Grupo 80246" transform="translate(93.979 63.089)">
          <path id="Trazado_113766" data-name="Trazado 113766" d="M157.325,187.386h-.049a.309.309,0,0,0-.293.223c-.2.626.752,1.481,1.116,1.865a4.01,4.01,0,0,0,3.043,1.32c.7-.063.722-1.149,0-1.11a3.493,3.493,0,0,1-2.359-.895,5.182,5.182,0,0,1-1.245-1.253v.307l.026-.04a.28.28,0,0,0-.239-.418Z" transform="translate(-156.956 -187.386)"/>
        </g>
        <g id="Grupo_80247" data-name="Grupo 80247" transform="translate(95.452 38.628)">
          <path id="Trazado_113767" data-name="Trazado 113767" d="M162.55,176.345c1.868-1.191,3.342-2.42,3.859-4.644a1.931,1.931,0,0,0-1.727-2.487c-.71,0-1.365.638-1.859,1.042-2.75,2.247-2.723-2.478-2.836-3.888-.326-4.073.076-8.146-.062-12.218a.424.424,0,0,0-.847,0c.036,3.238-.137,6.47-.085,9.711.034,2.145-.165,5.323.776,7.36.482,1.044.794,1.37,1.877,1.18.4-.071,1.081-.84,1.349-1.109q1.26-1.652,2,1.877a15.231,15.231,0,0,1-2.661,2.894c-.137.146.041.4.219.284Z" transform="translate(-158.982 -153.74)"/>
        </g>
        <g id="Grupo_80248" data-name="Grupo 80248" transform="translate(80.353 51.813)">
          <path id="Trazado_113768" data-name="Trazado 113768" d="M145.7,177.992c-.238-1.9-.64-6.1-3.33-6.116a3.829,3.829,0,0,0-3.53,2.286c-.971,1.913-.558,4.079-.445,6.119a.55.55,0,0,0,1.1,0,21.549,21.549,0,0,1,.017-4.623c.307-1.4,1.675-3.274,3.341-2.558s1.623,3.623,2.528,4.977c.084.127.343.1.32-.087Z" transform="translate(-138.214 -171.876)"/>
        </g>
        <g id="Grupo_80249" data-name="Grupo 80249" transform="translate(104.786 48.107)">
          <path id="Trazado_113769" data-name="Trazado 113769" d="M172.215,173.683c.321-1.682.879-7.039,3.8-5.582,1.825.91,1.687,4.241,1.724,5.924.013.578.928.746,1.04.141.43-2.316-.213-6.334-2.725-7.253-1.377-.5-2.866.5-3.56,1.621-.974,1.568-.62,3.392-.579,5.11,0,.166.265.214.3.04Z" transform="translate(-171.821 -166.779)"/>
        </g>
        <g id="Grupo_80250" data-name="Grupo 80250" transform="translate(67.44 139.433)">
          <path id="Trazado_113770" data-name="Trazado 113770" d="M123.937,298.548a.317.317,0,0,0,.5.1c.246-.246,0-.6-.128-.835a39.186,39.186,0,0,0-3.208-5.266c-.222-.289-.758-.14-.633.267a17.169,17.169,0,0,0,2.267,3.824c.247.388.488.778.745,1.16q.176.26.342.526c.182.291.075.327.126.109l.287-.163-.072-.019a.2.2,0,0,0-.229.3Z" transform="translate(-120.452 -292.397)"/>
        </g>
        <g id="Grupo_80251" data-name="Grupo 80251" transform="translate(70.946 139.295)">
          <path id="Trazado_113771" data-name="Trazado 113771" d="M125.95,298.585c.009-.926-.111-1.842-.048-2.768a21.322,21.322,0,0,0,.184-3.338c-.026-.29-.474-.4-.54-.073a23.2,23.2,0,0,0-.128,6.18.266.266,0,0,0,.532,0Z" transform="translate(-125.275 -292.207)"/>
        </g>
        <g id="Grupo_80252" data-name="Grupo 80252" transform="translate(120.667 117.64)">
          <path id="Trazado_113772" data-name="Trazado 113772" d="M197.293,272.709l.031.083a.283.283,0,1,0,.478-.278c-.349-.412-.412-1.892-.572-2.429-.276-.926-.611-1.834-.943-2.741a29.047,29.047,0,0,0-2.059-4.775.3.3,0,0,0-.555.234,44.526,44.526,0,0,0,2.32,6.125c.349.9.645,1.813.941,2.729.129.4.115.968.462,1.262a.283.283,0,1,0,.278-.478l-.083-.03a.244.244,0,0,0-.3.3Z" transform="translate(-193.665 -262.421)"/>
        </g>
        <g id="Grupo_80253" data-name="Grupo 80253" transform="translate(124.158 118.494)">
          <path id="Trazado_113773" data-name="Trazado 113773" d="M198.524,272.641c-.012.039-.025.077-.038.116l.589.079c.061-2.967.914-6.107.158-9.042a.279.279,0,0,0-.545.073c-.126,1.407.076,2.846.044,4.262-.036,1.576-.317,3.126-.257,4.707.017.452.722.326.59-.079-.013-.039-.026-.078-.039-.116a.263.263,0,0,0-.5,0Z" transform="translate(-198.467 -263.595)"/>
        </g>
        <g id="Grupo_80254" data-name="Grupo 80254" transform="translate(80.047 166.671)">
          <path id="Trazado_113774" data-name="Trazado 113774" d="M138.213,337.607c6.331-3.405,14.587-3.823,21.592-4.609,2.888-.324,5.828-.466,8.7-.91,2.984-.46,6.439-.31,9.259-1.241.516-.169.455-1.018-.133-.984-6.9.406-13.8,1.469-20.665,2.325-6.156.767-13.826,1.226-19.043,4.925a.286.286,0,0,0,.289.494Z" transform="translate(-137.793 -329.863)"/>
        </g>
        <g id="Grupo_80255" data-name="Grupo 80255" transform="translate(103.37 164.021)">
          <path id="Trazado_113775" data-name="Trazado 113775" d="M169.875,326.443c1.008,11.141,1.326,22.318,2.424,33.456,1.055,10.71,1.176,21.686,3.113,32.266.062.337.614.259.6-.081-.585-10.7-1.51-21.507-2.616-32.185-.579-5.586-1.025-11.186-1.37-16.792-.344-5.58-.289-11.279-1.692-16.726-.063-.249-.479-.2-.455.062Z" transform="translate(-169.874 -326.218)"/>
        </g>
        <path id="Trazado_113776" data-name="Trazado 113776" d="M176.842,327.991a1.4,1.4,0,1,1-1.4-1.463A1.432,1.432,0,0,1,176.842,327.991Z" transform="translate(-67.642 -162.281)"/>
        <path id="Trazado_113777" data-name="Trazado 113777" d="M177.718,341.638a1.4,1.4,0,1,1-1.4-1.463A1.434,1.434,0,0,1,177.718,341.638Z" transform="translate(-67.881 -166.007)"/>
        <path id="Trazado_113778" data-name="Trazado 113778" d="M179.642,371.122a1.4,1.4,0,1,1-1.4-1.463A1.432,1.432,0,0,1,179.642,371.122Z" transform="translate(-68.406 -174.055)"/>
        <path id="Trazado_113779" data-name="Trazado 113779" d="M183.491,406.118a1.4,1.4,0,1,1-1.4-1.463A1.432,1.432,0,0,1,183.491,406.118Z" transform="translate(-69.457 -183.609)"/>
        <g id="Grupo_80259" data-name="Grupo 80259" transform="translate(69.606 43.569)">
          <g id="Grupo_80256" data-name="Grupo 80256">
            <path id="Trazado_113780" data-name="Trazado 113780" d="M135.214,184.1A11.783,11.783,0,1,1,147,172.32,11.8,11.8,0,0,1,135.214,184.1Zm0-22.8a11.02,11.02,0,1,0,11.02,11.02A11.032,11.032,0,0,0,135.214,161.3Z" transform="translate(-123.431 -160.537)" fill="#2c2945"/>
          </g>
          <g id="Grupo_80257" data-name="Grupo 80257" transform="translate(31.564)">
            <path id="Trazado_113781" data-name="Trazado 113781" d="M178.63,184.1a11.783,11.783,0,1,1,11.783-11.783A11.8,11.8,0,0,1,178.63,184.1Zm0-22.8a11.02,11.02,0,1,0,11.02,11.02A11.032,11.032,0,0,0,178.63,161.3Z" transform="translate(-166.847 -160.537)" fill="#2c2945"/>
          </g>
          <g id="Grupo_80258" data-name="Grupo 80258" transform="translate(22.855 8.792)">
            <path id="Trazado_113782" data-name="Trazado 113782" d="M155.374,174.607l-.506-.571c.105-.094,2.669-2.286,9.379-1l-.143.75C157.759,172.57,155.4,174.587,155.374,174.607Z" transform="translate(-154.868 -172.63)" fill="#2c2945"/>
          </g>
        </g>
      </g>
      <path id="Trazado_113783" data-name="Trazado 113783" d="M130.782,227.437s-22.683,5.794-26.881,9.324-12.683,12-4.961,18.032c7.823,6.116,11.449,5.812,11.926,4.58.941-2.43-8.015-7.443-8.015-7.443s8.778,5.484,10.972,4.53-6.678-8.155-6.678-8.155,6.678,6.107,9.159,4.389-6.583-7.727-6.583-7.727,8.015,4.1,9.541,3.147S112.3,240.2,112.3,240.2s7.346-4.8,12.785-5.6C125.082,234.6,129.877,230.568,130.782,227.437Z" transform="translate(-18.596 -48.458)" fill="#826459"/>
    </g>
    <g id="Grupo_80262" data-name="Grupo 80262" transform="translate(398.685 200.691) rotate(-9)">
      <path id="Trazado_113591" data-name="Trazado 113591" d="M958.755,221.3c-6.639.835-8.483,7.079-7.723,12.93.654,5.029,4.037,9.876,3.725,15-.222,3.642-3.955,2.7-6.474,2.058-3.184-.811-6.487-1.955-9.82-1.7-2.541.193-5.112,1.55-5.892,4.145-.665,2.21.609,4.225,2.2,5.659,4.665,4.192,11.827,5.988,17.542,8.137,2.12.8,8.744,1.669,9.283,4.215.375,1.78-3.523,1.885-4.655,1.967-4.212.309-8.412-.241-12.621-.146-2.768.062-9.752.412-9.123,4.68.43,2.9,3.575,5.173,5.9,6.515a71.96,71.96,0,0,0,10.888,5.048,94.9,94.9,0,0,0,14.609,3.819,108.834,108.834,0,0,0,14.45,2.134c2.225.138,4.451.1,6.674.288a1.125,1.125,0,0,0,.807.945,74.411,74.411,0,0,0,13.027,3.085c3.48.445,7.277.387,10.211-1.8,3.332-2.478,5.274-6.657,7.616-9.985,2.155-3.066,4.778-5.96,6.328-9.4,1.591-3.533,3.153-9.647-1.093-12.022-5.4-3.015-11.709,2.447-17.039,3.007-1.3.136-3.513.017-4.062-1.492-.373-1.031.4-2.235.934-3.062a34.579,34.579,0,0,1,6.094-6.5c3.758-3.412,8.295-7.2,5.984-12.9-2.628-6.48-11.2-6.814-16.274-3.173a18.737,18.737,0,0,0-5.964,8.234,31.006,31.006,0,0,0-1.4,4.167c-.638,2.406-2.212,3.574-4.618,2.023-3.675-2.367-4.9-7.927-6.322-11.728a68.211,68.211,0,0,0-5.818-12.584C972.239,226.67,966.861,220.276,958.755,221.3Z" transform="translate(-932.391 -221.188)" fill="#add031"/>
      <g id="Grupo_80153" data-name="Grupo 80153" transform="translate(25.644 10.582)">
        <path id="Trazado_113592" data-name="Trazado 113592" d="M945.58,227.368a49.018,49.018,0,0,0,2.535,11.327,82.126,82.126,0,0,0,4.651,9.993A119.911,119.911,0,0,0,965.257,267.4a124.034,124.034,0,0,0,16.056,16.206q4.1,3.472,8.444,6.659c3.015,2.208,6.39,4.937,10.1,5.764.488.109.934-.512.517-.889-2.634-2.381-6.03-3.97-8.931-6.021-3.033-2.146-5.978-4.437-8.83-6.818a111.573,111.573,0,0,1-15.045-15.428,120.844,120.844,0,0,1-12.127-18.208c-3.6-6.589-7.005-14.074-8.375-21.5-.152-.831-1.6-.65-1.492.2Z" transform="translate(-945.574 -226.627)" fill="#4f9638"/>
      </g>
      <g id="Grupo_80154" data-name="Grupo 80154" transform="translate(70.627 49.079)">
        <path id="Trazado_113593" data-name="Trazado 113593" d="M969.787,266.64c2.148-3.344,4.173-6.768,6.359-10.086,1.068-1.62,2.173-3.216,3.352-4.756,1.239-1.62,2.677-3.14,3.764-4.867.171-.27-.181-.658-.457-.457a20.573,20.573,0,0,0-3.986,4.241c-1.237,1.6-2.4,3.264-3.513,4.955-2.249,3.414-4.317,6.943-6.515,10.388-.4.63.6,1.208,1,.584Z" transform="translate(-968.698 -246.418)" fill="#4f9638"/>
      </g>
      <g id="Grupo_80155" data-name="Grupo 80155" transform="translate(38.159 7.936)">
        <path id="Trazado_113594" data-name="Trazado 113594" d="M957.28,258.6c1.947-5.281,1.541-11.287.6-16.731a68.394,68.394,0,0,0-2.2-9.057c-.761-2.408-1.535-5.367-3.078-7.408-.2-.268-.694-.13-.584.247.7,2.364,1.926,4.595,2.7,6.954a68.926,68.926,0,0,1,2.247,8.76c1.031,5.5,1.836,11.736.072,17.171-.049.15.181.208.235.064Z" transform="translate(-952.008 -225.267)" fill="#4f9638"/>
      </g>
      <g id="Grupo_80156" data-name="Grupo 80156" transform="translate(2.34 34.465)">
        <path id="Trazado_113595" data-name="Trazado 113595" d="M968.933,245.22c-3.167-.294-6.271-.4-9.429-.844-3.013-.418-6.058-.578-9.065-1.049a80.509,80.509,0,0,1-9.1-1.91c-2.482-.691-4.83-2.371-7.421-2.511a.338.338,0,0,0-.169.624c4.978,3.175,11.259,4.307,17.015,5.095,2.85.389,5.723.619,8.586.881,3.21.294,6.375.054,9.582.231.335.018.327-.486,0-.517Z" transform="translate(-933.594 -238.905)" fill="#4f9638"/>
      </g>
      <g id="Grupo_80157" data-name="Grupo 80157" transform="translate(8.229 57.266)">
        <path id="Trazado_113596" data-name="Trazado 113596" d="M936.856,251.507c6.707,3.188,14.076,4.461,21.433,5.2a80.633,80.633,0,0,0,11.913.142c1.928-.093,3.856-.216,5.783-.3,1.729-.078,3.671.233,5.223-.6a.491.491,0,0,0,0-.84c-1.373-.7-2.885-.418-4.4-.358-1.928.078-3.856.185-5.783.268a94.5,94.5,0,0,1-11.57-.086,98.687,98.687,0,0,1-22.239-4.285c-.5-.16-.852.628-.364.86Z" transform="translate(-936.622 -250.626)" fill="#4f9638"/>
      </g>
      <g id="Grupo_80158" data-name="Grupo 80158" transform="translate(55.153 22.441)">
        <path id="Trazado_113597" data-name="Trazado 113597" d="M961.2,266.072c1.432-3.488,2.918-6.9,4.653-10.25a61.16,61.16,0,0,1,6.017-9.09,45.453,45.453,0,0,1,7.7-7.435c1.27-1.035,2.434-2.192,3.721-3.206,1.154-.907,2.782-1.515,3.782-2.548a.475.475,0,0,0-.208-.788c-2.653-.416-5.544,3.367-7.3,4.91-1.358,1.194-2.856,2.206-4.165,3.461-1.461,1.4-2.729,2.974-4.107,4.455a37.549,37.549,0,0,0-6.455,9.332,97.861,97.861,0,0,0-4.081,11.039c-.1.282.331.385.44.121Z" transform="translate(-960.744 -232.724)" fill="#4f9638"/>
      </g>
    </g>
  </g>
</svg>
