<svg xmlns="http://www.w3.org/2000/svg" width="400" height="271.245" viewBox="0 0 400 271.245">
  <g id="Grupo_84482" data-name="Grupo 84482" transform="translate(-101.006 -132.576)">
    <g id="Folder" transform="translate(204.254 135.573)">
      <g id="Grupo_84163" data-name="Grupo 84163" transform="translate(0 0)">
        <g id="Grupo_84138" data-name="Grupo 84138" transform="translate(3.626 37.889)">
          <path id="Trazado_118175" data-name="Trazado 118175" d="M232.278,189.8l5.749,98.023a6.62,6.62,0,0,0,6.588,6.232l176.434.538a6.62,6.62,0,0,0,6.64-6.6l.233-76.32a6.619,6.619,0,0,0-6.642-6.64l-108.507.368a6.618,6.618,0,0,1-4.682-1.918l-18.8-18.633a6.622,6.622,0,0,0-4.639-1.918l-45.743-.139A6.619,6.619,0,0,0,232.278,189.8Z" transform="translate(-232.267 -182.792)" fill="#adce32"/>
          <path id="Trazado_118176" data-name="Trazado 118176" d="M232.278,189.8l5.749,98.023a6.62,6.62,0,0,0,6.588,6.232l176.434.538a6.62,6.62,0,0,0,6.64-6.6l.233-76.32a6.619,6.619,0,0,0-6.642-6.64l-108.507.368a6.618,6.618,0,0,1-4.682-1.918l-18.8-18.633a6.622,6.622,0,0,0-4.639-1.918l-45.743-.139A6.619,6.619,0,0,0,232.278,189.8Z" transform="translate(-232.267 -182.792)" opacity="0.3"/>
        </g>
        <g id="Grupo_84144" data-name="Grupo 84144" transform="translate(5.375 1.034)">
          <g id="Grupo_84141" data-name="Grupo 84141">
            <g id="Grupo_84140" data-name="Grupo 84140">
              <rect id="Rectángulo_34137" data-name="Rectángulo 34137" width="95.746" height="76.547" transform="matrix(0.606, -0.795, 0.795, 0.606, 0.266, 76.165)" fill="#fff"/>
              <g id="Grupo_84139" data-name="Grupo 84139">
                <path id="Trazado_118177" data-name="Trazado 118177" d="M292.7,137.527s-.091.131-.271.374l-.8,1.072L288.5,143.12l-11.835,15.619-41.829,55.068-.037-.265L295.7,259.9l.007,0-.3.04,58.047-76.143.033.248-44.121-33.725-12.311-9.435-3.24-2.493c-.734-.567-1.113-.873-1.113-.873s.375.27,1.107.818l3.237,2.442,12.334,9.338,44.32,33.646.141.107-.107.141-57.99,76.186-.129.169-.169-.129-.007,0-60.872-46.4-.151-.116.116-.151,42.055-55.051L288.474,143l3.144-4.09.808-1.043C292.607,137.638,292.7,137.527,292.7,137.527Z" transform="translate(-234.415 -137.527)" fill="#263238"/>
              </g>
            </g>
          </g>
          <rect id="Rectángulo_34138" data-name="Rectángulo 34138" width="89.02" height="66.909" transform="matrix(0.606, -0.795, 0.795, 0.606, 6.1, 76.46)" fill="#263238"/>
          <path id="Trazado_118178" data-name="Trazado 118178" d="M304.027,266.1l-14.243-49.936,32.37.446L319,197.79l38.966-2.5Z" transform="translate(-244.702 -148.258)" fill="#455a64"/>
          <g id="Grupo_84143" data-name="Grupo 84143" transform="translate(45.515 39.84)">
            <g id="Grupo_84142" data-name="Grupo 84142" transform="translate(0 0)">
              <circle id="Elipse_4850" data-name="Elipse 4850" cx="7.009" cy="7.009" r="7.009" transform="translate(0 1.895) rotate(-7.768)" fill="#455a64"/>
            </g>
          </g>
        </g>
        <g id="Grupo_84150" data-name="Grupo 84150" transform="translate(71.924)">
          <g id="Grupo_84147" data-name="Grupo 84147">
            <g id="Grupo_84146" data-name="Grupo 84146">
              <rect id="Rectángulo_34139" data-name="Rectángulo 34139" width="106.541" height="133.265" transform="matrix(0.041, -0.999, 0.999, 0.041, 0.221, 106.649)" fill="#fff"/>
              <g id="Grupo_84145" data-name="Grupo 84145">
                <path id="Trazado_118179" data-name="Trazado 118179" d="M453.9,141.932s-.218,0-.638-.015l-1.86-.066-7.22-.274-27.244-1.07-96.2-3.863.2-.182c-1.3,31.682-2.783,68.005-4.356,106.441v.011l-.2-.221,133.15,5.514-.183.169c1.358-32.08,2.483-58.67,3.269-77.248.4-9.3.717-16.586.933-21.559.111-2.484.2-4.388.253-5.678s.1-1.958.1-1.958-.014.647-.059,1.922-.12,3.177-.212,5.647c-.194,4.966-.478,12.243-.839,21.524-.744,18.606-1.808,45.237-3.092,77.366l-.007.176-.176-.007-133.153-5.441-.213-.009.009-.212v-.011c1.589-38.436,3.091-74.758,4.4-106.439l.007-.19.19.008,96.314,4.056,27.2,1.169,7.18.318,1.838.086C453.7,141.916,453.9,141.932,453.9,141.932Z" transform="translate(-316.149 -136.257)" fill="#263238"/>
              </g>
            </g>
          </g>
          <rect id="Rectángulo_34140" data-name="Rectángulo 34140" width="93.127" height="123.902" transform="translate(5.087 100.136) rotate(-87.644)" fill="#455a64"/>
          <path id="Trazado_118180" data-name="Trazado 118180" d="M322.4,246.451l45.618-56.059,25.3,37.288,18.962-18.6,33.921,42.462Z" transform="translate(-317.31 -146.315)" fill="#263238"/>
          <g id="Grupo_84149" data-name="Grupo 84149" transform="translate(67.75 26.506)">
            <g id="Grupo_84148" data-name="Grupo 84148" transform="translate(0 0)">
              <circle id="Elipse_4851" data-name="Elipse 4851" cx="9.756" cy="9.756" r="9.756" transform="matrix(0.219, -0.976, 0.976, 0.219, 0, 19.039)" fill="#263238"/>
            </g>
          </g>
        </g>
        <g id="Grupo_84162" data-name="Grupo 84162" transform="translate(29.078 20.311)">
          <path id="Trazado_118181" data-name="Trazado 118181" d="M452.093,199.428,271.73,224.261l19.1,132.1,178.888-25.2Z" transform="translate(-265.051 -168.304)" fill="#ebebeb"/>
          <path id="Trazado_118182" data-name="Trazado 118182" d="M453.417,179.188,275.141,216.141l27.973,130.51,176.779-37.218Z" transform="translate(-265.685 -164.544)" fill="#e0e0e0"/>
          <g id="Grupo_84161" data-name="Grupo 84161">
            <g id="Grupo_84152" data-name="Grupo 84152">
              <path id="Trazado_118183" data-name="Trazado 118183" d="M435.575,161.2,263.83,221.629l45.149,125.606L479.2,286.745Z" transform="translate(-263.583 -161.203)" fill="#fff"/>
              <g id="Grupo_84151" data-name="Grupo 84151" transform="translate(0 0)">
                <path id="Trazado_118184" data-name="Trazado 118184" d="M435.518,161.2c.471,1.347,17.262,49.463,43.793,125.485l.057.163-.162.057L308.993,347.435l-.2.071-.072-.2-.33-.916c-16.068-44.723-31.3-87.127-44.8-124.7l-.065-.182.182-.064L435.518,161.2,263.837,221.81l.117-.246,44.838,124.683.33.916-.27-.128,170.239-60.453-.106.22C452.652,210.711,435.985,162.55,435.518,161.2Z" transform="translate(-263.527 -161.203)" fill="#263238"/>
              </g>
            </g>
            <g id="Grupo_84153" data-name="Grupo 84153" transform="translate(141.157 24.349)">
              <path id="Trazado_118185" data-name="Trazado 118185" d="M472.566,287.233c-.329.122-8.58-21.3-18.426-47.839S436.575,191.23,436.9,191.108s8.578,21.294,18.428,47.844S472.9,287.11,472.566,287.233Z" transform="translate(-436.895 -191.107)" fill="#263238"/>
            </g>
            <g id="Grupo_84154" data-name="Grupo 84154" transform="translate(126.489 31.053)">
              <path id="Trazado_118186" data-name="Trazado 118186" d="M454.552,295.467c-.33.122-8.581-21.3-18.427-47.839s-17.565-48.164-17.235-48.286,8.579,21.294,18.428,47.844S454.881,295.344,454.552,295.467Z" transform="translate(-418.879 -199.341)" fill="#263238"/>
            </g>
            <g id="Grupo_84155" data-name="Grupo 84155" transform="translate(80.95 50.127)">
              <path id="Trazado_118187" data-name="Trazado 118187" d="M398.621,318.894c-.33.122-8.581-21.3-18.427-47.839s-17.565-48.164-17.235-48.286,8.579,21.294,18.428,47.844S398.95,318.771,398.621,318.894Z" transform="translate(-362.948 -222.768)" fill="#263238"/>
            </g>
            <g id="Grupo_84156" data-name="Grupo 84156" transform="translate(95.464 44.283)">
              <path id="Trazado_118188" data-name="Trazado 118188" d="M416.447,311.716c-.33.122-8.58-21.3-18.426-47.839s-17.565-48.164-17.236-48.286,8.579,21.294,18.428,47.843S416.776,311.593,416.447,311.716Z" transform="translate(-380.775 -215.59)" fill="#263238"/>
            </g>
            <g id="Grupo_84157" data-name="Grupo 84157" transform="translate(109.979 38.438)">
              <path id="Trazado_118189" data-name="Trazado 118189" d="M434.273,304.537c-.329.122-8.58-21.3-18.426-47.839s-17.565-48.165-17.235-48.287,8.578,21.295,18.428,47.844S434.6,304.415,434.273,304.537Z" transform="translate(-398.601 -208.411)" fill="#263238"/>
            </g>
            <g id="Grupo_84158" data-name="Grupo 84158" transform="translate(64.137 54.965)">
              <path id="Trazado_118190" data-name="Trazado 118190" d="M377.972,324.835c-.33.122-8.58-21.3-18.426-47.839s-17.565-48.164-17.236-48.287,8.578,21.295,18.428,47.844S378.3,324.713,377.972,324.835Z" transform="translate(-342.3 -228.709)" fill="#263238"/>
            </g>
            <g id="Grupo_84159" data-name="Grupo 84159" transform="translate(48.058 60.861)">
              <path id="Trazado_118191" data-name="Trazado 118191" d="M358.224,332.077c-.33.122-8.58-21.3-18.426-47.84s-17.565-48.164-17.236-48.286,8.579,21.294,18.428,47.844S358.553,331.955,358.224,332.077Z" transform="translate(-322.552 -235.951)" fill="#263238"/>
            </g>
            <g id="Grupo_84160" data-name="Grupo 84160" transform="translate(31.979 66.758)">
              <path id="Trazado_118192" data-name="Trazado 118192" d="M338.476,339.319c-.33.123-8.58-21.3-18.426-47.839s-17.565-48.164-17.236-48.286,8.578,21.294,18.428,47.844S338.8,339.2,338.476,339.319Z" transform="translate(-302.804 -243.193)" fill="#263238"/>
            </g>
          </g>
        </g>
        <path id="Trazado_118193" data-name="Trazado 118193" d="M227.844,256.21,242.2,376.38a4.257,4.257,0,0,0,4.214,3.752l187.871.572a4.255,4.255,0,0,0,4.255-3.909l9.825-120.1a4.257,4.257,0,0,0-4.23-4.6l-212.049-.646A4.257,4.257,0,0,0,227.844,256.21Z" transform="translate(-227.813 -157.658)" fill="#adce32"/>
      </g>
    </g>
    <g id="Character_2" data-name="Character 2" transform="translate(402.389 145.248)">
      <g id="Grupo_84310" data-name="Grupo 84310">
        <path id="Trazado_118194" data-name="Trazado 118194" d="M508.716,216.138l-6.333,4.535,3.691,18.157L514.4,231.4Z" transform="translate(-476.962 -160.773)" fill="#bf7a62"/>
        <g id="Grupo_84308" data-name="Grupo 84308" transform="translate(28.318)">
          <path id="Trazado_118195" data-name="Trazado 118195" d="M511.928,380.939l26.341-12.8,33.79,4.056a11.01,11.01,0,0,1,4.242,7.01,3.592,3.592,0,0,1-.384,2.661c-.759,1.059-2.307,1.19-3.572.877a31.4,31.4,0,0,0-3.74-1.117c-2.513-.3-4.834,1.31-6.723,3s-3.771,3.608-6.238,4.171a9.563,9.563,0,0,1-6.429-1.2c-1.973-1.032-3.735-2.425-5.66-3.543a19.086,19.086,0,0,0-11.9-2.644c-3.28.428-6.355,1.865-9.621,2.382s-8.336-.059-10.109-2.851" transform="translate(-507.052 -189.014)" fill="#455a64"/>
          <g id="Grupo_84271" data-name="Grupo 84271" transform="translate(8.812 101.237)">
            <g id="Grupo_84168" data-name="Grupo 84168" transform="translate(6.305)">
              <g id="Grupo_84164" data-name="Grupo 84164">
                <path id="Trazado_118196" data-name="Trazado 118196" d="M577.065,415.43s-21.577-73.565-21.986-75.916c-.37-2.126,2.995-53.662,4.5-67.035l-23.765.2-.01.223-11.3.278,5.063,146.314,14.612,1.126-.1-48.273c9.217,23.277,19.9,49.235,19.9,49.235Z" transform="translate(-524.507 -272.478)" fill="#d89377"/>
              </g>
              <g id="Grupo_84166" data-name="Grupo 84166" transform="translate(9.525 63.664)">
                <g id="Grupo_84165" data-name="Grupo 84165">
                  <path id="Trazado_118197" data-name="Trazado 118197" d="M536.622,350.669c.046.007-.044.573-.1,1.6a31.54,31.54,0,0,0,.065,4.359A40,40,0,0,0,537.654,363a63.4,63.4,0,0,0,2.577,7.5c2,5.282,3.791,10.073,5.064,13.548.607,1.686,1.108,3.079,1.484,4.125a10.486,10.486,0,0,1,.484,1.535,10.547,10.547,0,0,1-.655-1.47l-1.624-4.071c-1.352-3.446-3.189-8.218-5.193-13.5q-.745-1.983-1.452-3.86a35.644,35.644,0,0,1-1.106-3.7,37.384,37.384,0,0,1-.976-6.452,26.35,26.35,0,0,1,.084-4.4,11.865,11.865,0,0,1,.177-1.183A1.437,1.437,0,0,1,536.622,350.669Z" transform="translate(-536.206 -350.669)" fill="#bf7a62"/>
                </g>
              </g>
              <g id="Grupo_84167" data-name="Grupo 84167" transform="translate(14.509 86.683)">
                <path id="Trazado_118198" data-name="Trazado 118198" d="M547.43,409.65c.026-.446.334-16.37.334-16.37s-5.3-14.78-5.435-14.33S547.43,409.65,547.43,409.65Z" transform="translate(-542.327 -378.941)" fill="#bf7a62"/>
              </g>
            </g>
            <g id="Grupo_84219" data-name="Grupo 84219" transform="translate(0 145.285)">
              <g id="Grupo_84218" data-name="Grupo 84218">
                <g id="Grupo_84173" data-name="Grupo 84173" transform="translate(0.047)">
                  <g id="Grupo_84170" data-name="Grupo 84170">
                    <g id="Grupo_84169" data-name="Grupo 84169">
                      <path id="Trazado_118199" data-name="Trazado 118199" d="M527.313,452.561l.04-1.646,15.494.311-.074,5.426-.958.044c-4.261.16-21.675.515-24.505-.4C514.154,455.278,527.313,452.561,527.313,452.561Z" transform="translate(-516.821 -450.915)" fill="#e8505b"/>
                    </g>
                  </g>
                  <g id="Grupo_84172" data-name="Grupo 84172" transform="translate(20.361 1.182)" opacity="0.3">
                    <g id="Grupo_84171" data-name="Grupo 84171">
                      <path id="Trazado_118200" data-name="Trazado 118200" d="M541.829,456.7a5.35,5.35,0,0,1,2.027-3.254,5.2,5.2,0,0,1,3.626-1.057l-.074,4.311Z" transform="translate(-541.829 -452.366)" fill="#fff"/>
                    </g>
                  </g>
                </g>
                <g id="Grupo_84175" data-name="Grupo 84175" transform="translate(0 3.201)">
                  <g id="Grupo_84174" data-name="Grupo 84174">
                    <path id="Trazado_118201" data-name="Trazado 118201" d="M520.868,454.847s-4.617,1.243-4.058,2.009,18.172,1.072,25.952.526l-.019-.345-20.546-.18S521.766,454.9,520.868,454.847Z" transform="translate(-516.763 -454.847)" fill="#fff" opacity="0.3"/>
                  </g>
                </g>
                <g id="Grupo_84178" data-name="Grupo 84178" transform="translate(0.047 4.947)">
                  <g id="Grupo_84177" data-name="Grupo 84177">
                    <g id="Grupo_84176" data-name="Grupo 84176">
                      <path id="Trazado_118202" data-name="Trazado 118202" d="M543,457.43a1.435,1.435,0,0,1-.265.024l-.763.033-2.806.072c-2.369.044-5.643.062-9.259,0s-6.889-.186-9.256-.309l-2.8-.164-.76-.058a.134.134,0,1,1,0-.038l.763.024,2.8.105c2.368.089,5.638.194,9.253.254s6.886.063,9.254.052l2.806-.013.763,0A1.442,1.442,0,0,1,543,457.43Z" transform="translate(-516.821 -456.991)" fill="#263238"/>
                    </g>
                  </g>
                </g>
                <g id="Grupo_84181" data-name="Grupo 84181" transform="translate(3.995 3.01)">
                  <g id="Grupo_84180" data-name="Grupo 84180">
                    <g id="Grupo_84179" data-name="Grupo 84179">
                      <path id="Trazado_118203" data-name="Trazado 118203" d="M523.11,457.053a4.081,4.081,0,0,0-1.438-2.437,2.493,2.493,0,0,1,1.438,2.437Z" transform="translate(-521.67 -454.611)" fill="#263238"/>
                    </g>
                  </g>
                </g>
                <g id="Grupo_84184" data-name="Grupo 84184" transform="translate(9.225 1.921)">
                  <g id="Grupo_84183" data-name="Grupo 84183">
                    <g id="Grupo_84182" data-name="Grupo 84182">
                      <path id="Trazado_118204" data-name="Trazado 118204" d="M528.894,454.574c-.045.027-.257-.242-.476-.6s-.361-.671-.317-.7.257.242.476.6S528.938,454.548,528.894,454.574Z" transform="translate(-528.093 -453.275)" fill="#263238"/>
                    </g>
                  </g>
                </g>
                <g id="Grupo_84187" data-name="Grupo 84187" transform="translate(10.334 1.696)">
                  <g id="Grupo_84186" data-name="Grupo 84186">
                    <g id="Grupo_84185" data-name="Grupo 84185">
                      <path id="Trazado_118205" data-name="Trazado 118205" d="M530.408,453.884c-.036.038-.276-.129-.537-.372s-.445-.471-.41-.509.276.129.537.372S530.443,453.846,530.408,453.884Z" transform="translate(-529.456 -452.998)" fill="#263238"/>
                    </g>
                  </g>
                </g>
                <g id="Grupo_84190" data-name="Grupo 84190" transform="translate(10.488 1.041)">
                  <g id="Grupo_84189" data-name="Grupo 84189">
                    <g id="Grupo_84188" data-name="Grupo 84188">
                      <path id="Trazado_118206" data-name="Trazado 118206" d="M531.257,452.293a3.517,3.517,0,1,1-.805-.1A1.812,1.812,0,0,1,531.257,452.293Z" transform="translate(-529.645 -452.194)" fill="#263238"/>
                    </g>
                  </g>
                </g>
                <g id="Grupo_84193" data-name="Grupo 84193" transform="translate(10.562 0.101)">
                  <g id="Grupo_84192" data-name="Grupo 84192">
                    <g id="Grupo_84191" data-name="Grupo 84191">
                      <path id="Trazado_118207" data-name="Trazado 118207" d="M531.563,451.056a2.265,2.265,0,0,1-1.828.106,5.008,5.008,0,0,1,.914-.047A4.914,4.914,0,0,1,531.563,451.056Z" transform="translate(-529.735 -451.039)" fill="#263238"/>
                    </g>
                  </g>
                </g>
                <g id="Grupo_84196" data-name="Grupo 84196" transform="translate(6.634 0.445)">
                  <g id="Grupo_84195" data-name="Grupo 84195">
                    <g id="Grupo_84194" data-name="Grupo 84194">
                      <path id="Trazado_118208" data-name="Trazado 118208" d="M527.8,452.883a2.847,2.847,0,0,1-.991-.023,5.853,5.853,0,0,1-1.051-.252,2.877,2.877,0,0,1-.6-.259.537.537,0,0,1-.239-.313.39.39,0,0,1,.157-.393,1.817,1.817,0,0,1,2.238.571,1.766,1.766,0,0,1,.312.667c.037.17.033.267.021.268a2.8,2.8,0,0,0-.436-.853,1.789,1.789,0,0,0-.838-.564,1.537,1.537,0,0,0-1.182.059c-.16.114-.1.3.072.408a3.049,3.049,0,0,0,.553.247,6.89,6.89,0,0,0,1.016.283C527.425,452.845,527.8,452.853,527.8,452.883Z" transform="translate(-524.911 -451.462)" fill="#263238"/>
                    </g>
                  </g>
                </g>
                <g id="Grupo_84199" data-name="Grupo 84199" transform="translate(9.153 0.009)">
                  <g id="Grupo_84198" data-name="Grupo 84198">
                    <g id="Grupo_84197" data-name="Grupo 84197">
                      <path id="Trazado_118209" data-name="Trazado 118209" d="M528.12,452.828a.98.98,0,0,1-.1-.69,1.634,1.634,0,0,1,.283-.719,1,1,0,0,1,.834-.491.394.394,0,0,1,.3.462,1.1,1.1,0,0,1-.176.44,3.027,3.027,0,0,1-.479.591,1.424,1.424,0,0,1-.574.392c-.017-.024.2-.174.479-.484a3.465,3.465,0,0,0,.426-.587c.139-.208.239-.582-.009-.632-.247-.028-.5.214-.66.41a1.638,1.638,0,0,0-.292.64A3.7,3.7,0,0,0,528.12,452.828Z" transform="translate(-528.005 -450.926)" fill="#263238"/>
                    </g>
                  </g>
                </g>
                <g id="Grupo_84202" data-name="Grupo 84202" transform="translate(20.424 1.042)">
                  <g id="Grupo_84201" data-name="Grupo 84201">
                    <g id="Grupo_84200" data-name="Grupo 84200">
                      <path id="Trazado_118210" data-name="Trazado 118210" d="M547.4,452.313c0,.035-.441-.05-1.14.02a4.834,4.834,0,0,0-4.1,3.151c-.247.657-.277,1.1-.312,1.1a.9.9,0,0,1,0-.311,4.094,4.094,0,0,1,.182-.829,4.689,4.689,0,0,1,4.21-3.239,4.047,4.047,0,0,1,.848.037A.9.9,0,0,1,547.4,452.313Z" transform="translate(-541.848 -452.195)" fill="#263238"/>
                    </g>
                  </g>
                </g>
                <g id="Grupo_84205" data-name="Grupo 84205" transform="translate(13.985 3.924)">
                  <g id="Grupo_84204" data-name="Grupo 84204">
                    <g id="Grupo_84203" data-name="Grupo 84203">
                      <path id="Trazado_118211" data-name="Trazado 118211" d="M538.447,455.789a12.657,12.657,0,0,1-4.508-.035c.006-.055,1.012.024,2.255.033S538.442,455.734,538.447,455.789Z" transform="translate(-533.939 -455.735)" fill="#263238"/>
                    </g>
                  </g>
                </g>
                <g id="Grupo_84208" data-name="Grupo 84208" transform="translate(21.063 4.019)">
                  <g id="Grupo_84207" data-name="Grupo 84207">
                    <g id="Grupo_84206" data-name="Grupo 84206">
                      <path id="Trazado_118212" data-name="Trazado 118212" d="M543.086,455.858c.037.039-.086.213-.192.442s-.167.433-.22.428-.076-.245.05-.509S543.053,455.82,543.086,455.858Z" transform="translate(-542.632 -455.851)" fill="#263238"/>
                    </g>
                  </g>
                </g>
                <g id="Grupo_84211" data-name="Grupo 84211" transform="translate(22.085 2.62)">
                  <g id="Grupo_84210" data-name="Grupo 84210">
                    <g id="Grupo_84209" data-name="Grupo 84209">
                      <path id="Trazado_118213" data-name="Trazado 118213" d="M544.483,454.14c.036.037-.066.2-.229.355s-.323.258-.359.221.066-.2.229-.354S544.447,454.1,544.483,454.14Z" transform="translate(-543.888 -454.133)" fill="#263238"/>
                    </g>
                  </g>
                </g>
                <g id="Grupo_84214" data-name="Grupo 84214" transform="translate(23.437 1.915)">
                  <g id="Grupo_84213" data-name="Grupo 84213">
                    <g id="Grupo_84212" data-name="Grupo 84212">
                      <path id="Trazado_118214" data-name="Trazado 118214" d="M546.433,453.36c-.011.052-.217.047-.445.123s-.393.194-.433.158.093-.247.376-.336S546.449,453.313,546.433,453.36Z" transform="translate(-545.548 -453.267)" fill="#263238"/>
                    </g>
                  </g>
                </g>
                <g id="Grupo_84217" data-name="Grupo 84217" transform="translate(25.019 1.686)">
                  <g id="Grupo_84216" data-name="Grupo 84216">
                    <g id="Grupo_84215" data-name="Grupo 84215">
                      <path id="Trazado_118215" data-name="Trazado 118215" d="M547.96,453.022c.018.049-.073.126-.2.173s-.248.047-.266,0,.072-.126.2-.173S547.942,452.974,547.96,453.022Z" transform="translate(-547.491 -452.985)" fill="#263238"/>
                    </g>
                  </g>
                </g>
              </g>
            </g>
            <g id="Grupo_84270" data-name="Grupo 84270" transform="translate(37.853 141.321)">
              <g id="Grupo_84269" data-name="Grupo 84269">
                <g id="Grupo_84224" data-name="Grupo 84224" transform="translate(0.011)">
                  <g id="Grupo_84221" data-name="Grupo 84221">
                    <g id="Grupo_84220" data-name="Grupo 84220">
                      <path id="Trazado_118216" data-name="Trazado 118216" d="M571.184,454.172l-.7-1.491,14.007-6.634,2.354,4.889-.838.467c-3.741,2.044-19.169,10.13-22.109,10.575C560.619,462.474,571.184,454.172,571.184,454.172Z" transform="translate(-563.268 -446.047)" fill="#e8505b"/>
                    </g>
                  </g>
                  <g id="Grupo_84223" data-name="Grupo 84223" transform="translate(18.279 0.806)" opacity="0.3">
                    <g id="Grupo_84222" data-name="Grupo 84222">
                      <path id="Trazado_118217" data-name="Trazado 118217" d="M585.914,453.416a5.35,5.35,0,0,1,.363-3.816,5.194,5.194,0,0,1,2.773-2.563l1.857,3.891Z" transform="translate(-585.718 -447.037)" fill="#fff"/>
                    </g>
                  </g>
                </g>
                <g id="Grupo_84226" data-name="Grupo 84226" transform="translate(0 4.589)">
                  <g id="Grupo_84225" data-name="Grupo 84225">
                    <path id="Trazado_118218" data-name="Trazado 118218" d="M566.118,459.482s-3.578,3.172-2.735,3.609,16.741-7.148,23.461-11.107l-.171-.3-18.469,9S566.945,459.129,566.118,459.482Z" transform="translate(-563.254 -451.683)" fill="#fff" opacity="0.3"/>
                  </g>
                </g>
                <g id="Grupo_84229" data-name="Grupo 84229" transform="translate(0.013 4.475)">
                  <g id="Grupo_84228" data-name="Grupo 84228">
                    <g id="Grupo_84227" data-name="Grupo 84227">
                      <path id="Trazado_118219" data-name="Trazado 118219" d="M586.89,451.544a1.5,1.5,0,0,1-.227.14l-.668.37-2.479,1.317c-2.1,1.1-5.023,2.573-8.285,4.133s-6.249,2.907-8.421,3.853l-2.581,1.1-.707.287a1.52,1.52,0,0,1-.252.089,1.4,1.4,0,0,1,.237-.124l.692-.319,2.557-1.156c2.158-.977,5.133-2.342,8.394-3.9s6.19-3.017,8.306-4.082l2.505-1.263.684-.339A1.409,1.409,0,0,1,586.89,451.544Z" transform="translate(-563.27 -451.543)" fill="#263238"/>
                    </g>
                  </g>
                </g>
                <g id="Grupo_84232" data-name="Grupo 84232" transform="translate(2.683 12.245)">
                  <g id="Grupo_84231" data-name="Grupo 84231">
                    <g id="Grupo_84230" data-name="Grupo 84230">
                      <path id="Trazado_118220" data-name="Trazado 118220" d="M568.923,462.649a6.374,6.374,0,0,0-1.05-.983,6.261,6.261,0,0,0-1.325-.557,2.491,2.491,0,0,1,2.374,1.54Z" transform="translate(-566.549 -461.086)" fill="#263238"/>
                    </g>
                  </g>
                </g>
                <g id="Grupo_84235" data-name="Grupo 84235" transform="translate(6.88 8.948)">
                  <g id="Grupo_84234" data-name="Grupo 84234">
                    <g id="Grupo_84233" data-name="Grupo 84233">
                      <path id="Trazado_118221" data-name="Trazado 118221" d="M572.995,457.852c-.027.044-.338-.1-.694-.324s-.622-.44-.594-.484.338.1.694.325S573.022,457.809,572.995,457.852Z" transform="translate(-571.705 -457.036)" fill="#263238"/>
                    </g>
                  </g>
                </g>
                <g id="Grupo_84238" data-name="Grupo 84238" transform="translate(7.772 8.242)">
                  <g id="Grupo_84237" data-name="Grupo 84237">
                    <g id="Grupo_84236" data-name="Grupo 84236">
                      <path id="Trazado_118222" data-name="Trazado 118222" d="M574.042,456.558c-.015.05-.3.007-.647-.094s-.608-.223-.594-.273.3-.008.647.094S574.056,456.508,574.042,456.558Z" transform="translate(-572.799 -456.17)" fill="#263238"/>
                    </g>
                  </g>
                </g>
                <g id="Grupo_84241" data-name="Grupo 84241" transform="translate(7.651 6.965)">
                  <g id="Grupo_84240" data-name="Grupo 84240">
                    <g id="Grupo_84239" data-name="Grupo 84239">
                      <path id="Trazado_118223" data-name="Trazado 118223" d="M574.1,454.612c.023.046-.283.243-.682.439a1.814,1.814,0,0,1-.765.271c-.023-.046.283-.243.682-.439A1.814,1.814,0,0,1,574.1,454.612Z" transform="translate(-572.651 -454.602)" fill="#263238"/>
                    </g>
                  </g>
                </g>
                <g id="Grupo_84244" data-name="Grupo 84244" transform="translate(7.313 5.927)">
                  <g id="Grupo_84243" data-name="Grupo 84243">
                    <g id="Grupo_84242" data-name="Grupo 84242">
                      <path id="Trazado_118224" data-name="Trazado 118224" d="M573.825,453.331c.035.034-.243.363-.7.623a1.56,1.56,0,0,1-.89.287,4.987,4.987,0,0,1,.8-.449A4.933,4.933,0,0,1,573.825,453.331Z" transform="translate(-572.236 -453.327)" fill="#263238"/>
                    </g>
                  </g>
                </g>
                <g id="Grupo_84247" data-name="Grupo 84247" transform="translate(4.081 8.194)">
                  <g id="Grupo_84246" data-name="Grupo 84246">
                    <g id="Grupo_84245" data-name="Grupo 84245">
                      <path id="Trazado_118225" data-name="Trazado 118225" d="M571.3,456.691a2.824,2.824,0,0,1-.9.422,5.81,5.81,0,0,1-1.053.244,2.84,2.84,0,0,1-.652.035.535.535,0,0,1-.354-.172.39.39,0,0,1-.035-.423,1.818,1.818,0,0,1,2.258-.488,1.776,1.776,0,0,1,.577.458c.109.136.147.225.138.23a2.809,2.809,0,0,0-.772-.568,1.78,1.78,0,0,0-1-.133,1.539,1.539,0,0,0-1.032.581c-.092.173.043.314.246.333a2.968,2.968,0,0,0,.606-.025,6.731,6.731,0,0,0,1.036-.2C570.95,456.825,571.292,456.663,571.3,456.691Z" transform="translate(-568.267 -456.111)" fill="#263238"/>
                    </g>
                  </g>
                </g>
                <g id="Grupo_84250" data-name="Grupo 84250" transform="translate(6.423 6.759)">
                  <g id="Grupo_84249" data-name="Grupo 84249">
                    <g id="Grupo_84248" data-name="Grupo 84248">
                      <path id="Trazado_118226" data-name="Trazado 118226" d="M571.628,456.519a.98.98,0,0,1-.4-.572,1.629,1.629,0,0,1-.068-.77,1,1,0,0,1,.528-.812.4.4,0,0,1,.473.282,1.088,1.088,0,0,1,.038.472,2.972,2.972,0,0,1-.164.743,1.432,1.432,0,0,1-.339.607c-.026-.015.1-.246.213-.646a3.487,3.487,0,0,0,.118-.716c.033-.248-.046-.628-.289-.561-.234.085-.357.417-.408.66a1.622,1.622,0,0,0,.024.7A3.553,3.553,0,0,0,571.628,456.519Z" transform="translate(-571.142 -454.349)" fill="#263238"/>
                    </g>
                  </g>
                </g>
                <g id="Grupo_84253" data-name="Grupo 84253" transform="translate(18.078 0.798)">
                  <g id="Grupo_84252" data-name="Grupo 84252">
                    <g id="Grupo_84251" data-name="Grupo 84251">
                      <path id="Trazado_118227" data-name="Trazado 118227" d="M588.91,447.03c.012.033-.417.152-1.01.527a4.832,4.832,0,0,0-2.26,4.647c.072.7.243,1.109.209,1.12a.879.879,0,0,1-.134-.28,4.039,4.039,0,0,1-.206-.823,4.689,4.689,0,0,1,2.323-4.777,4.074,4.074,0,0,1,.775-.346A.915.915,0,0,1,588.91,447.03Z" transform="translate(-585.457 -447.028)" fill="#263238"/>
                    </g>
                  </g>
                </g>
                <g id="Grupo_84256" data-name="Grupo 84256" transform="translate(12.036 6.661)">
                  <g id="Grupo_84255" data-name="Grupo 84255">
                    <g id="Grupo_84254" data-name="Grupo 84254">
                      <path id="Trazado_118228" data-name="Trazado 118228" d="M582.088,454.23a12.685,12.685,0,0,1-4.051,1.98c-.019-.051.917-.429,2.032-.976S582.058,454.184,582.088,454.23Z" transform="translate(-578.037 -454.227)" fill="#263238"/>
                    </g>
                  </g>
                </g>
                <g id="Grupo_84259" data-name="Grupo 84259" transform="translate(18.651 5.356)">
                  <g id="Grupo_84258" data-name="Grupo 84258">
                    <g id="Grupo_84257" data-name="Grupo 84257">
                      <path id="Trazado_118229" data-name="Trazado 118229" d="M586.324,452.627c.05.018.017.228.024.481s.044.462-.006.482-.177-.186-.182-.478S586.277,452.607,586.324,452.627Z" transform="translate(-586.161 -452.625)" fill="#263238"/>
                    </g>
                  </g>
                </g>
                <g id="Grupo_84262" data-name="Grupo 84262" transform="translate(18.936 3.585)">
                  <g id="Grupo_84261" data-name="Grupo 84261">
                    <g id="Grupo_84260" data-name="Grupo 84260">
                      <path id="Trazado_118230" data-name="Trazado 118230" d="M586.807,450.452c.049.017.029.205-.046.42s-.174.375-.223.358-.028-.205.046-.42S586.758,450.435,586.807,450.452Z" transform="translate(-586.511 -450.451)" fill="#263238"/>
                    </g>
                  </g>
                </g>
                <g id="Grupo_84265" data-name="Grupo 84265" transform="translate(19.742 2.276)">
                  <g id="Grupo_84264" data-name="Grupo 84264">
                    <g id="Grupo_84263" data-name="Grupo 84263">
                      <path id="Trazado_118231" data-name="Trazado 118231" d="M588.183,448.867c.013.052-.173.138-.343.308s-.266.349-.318.335-.027-.261.186-.468S588.177,448.817,588.183,448.867Z" transform="translate(-587.501 -448.843)" fill="#263238"/>
                    </g>
                  </g>
                </g>
                <g id="Grupo_84268" data-name="Grupo 84268" transform="translate(20.986 1.513)">
                  <g id="Grupo_84267" data-name="Grupo 84267">
                    <g id="Grupo_84266" data-name="Grupo 84266">
                      <path id="Trazado_118232" data-name="Trazado 118232" d="M589.383,447.917c.037.036-.008.145-.1.245s-.2.152-.239.117.008-.146.1-.245S589.346,447.882,589.383,447.917Z" transform="translate(-589.029 -447.906)" fill="#263238"/>
                    </g>
                  </g>
                </g>
              </g>
            </g>
          </g>
          <g id="Grupo_84280" data-name="Grupo 84280" transform="translate(0 41.821)">
            <g id="Grupo_84273" data-name="Grupo 84273">
              <g id="Grupo_84272" data-name="Grupo 84272">
                <path id="Trazado_118233" data-name="Trazado 118233" d="M555.493,254.773l.007,0c-6.5-11.24-8.144-9.926-5.942-16.473l6.345-21.288-2.669-13.362a14.707,14.707,0,0,0-11.251-4.114l-13.256.912s-6.523-1.43-16.132,7.905l-6.655,6.211,8.382,15.906.418,7.21,6.046,19.732-1.611,8.7c-.7,6.622-9.605,82.54-8.4,83.74,1.26,1.253,19.818-8.036,24.312-4.241s13.542,6.121,18.646,4.488,12.759-11.794,20.482-4.944C574.217,345.153,571.691,277.8,555.493,254.773Z" transform="translate(-505.94 -199.504)" fill="#263238"/>
              </g>
            </g>
            <path id="Trazado_118234" data-name="Trazado 118234" d="M555.215,200.666s13.807,3.677,11.769,13.537c-1,4.849-7.622,14.964-7.622,14.964l-15.649-7.4Z" transform="translate(-512.958 -199.72)" fill="#263238"/>
            <g id="Grupo_84274" data-name="Grupo 84274" transform="translate(10.661 58.425)">
              <path id="Trazado_118235" data-name="Trazado 118235" d="M522.469,274.789a12.864,12.864,0,0,1,2.335-1.652,13.324,13.324,0,0,1,7.517-1.853,10.816,10.816,0,0,1,5.175,1.54,9.983,9.983,0,0,1,4.042,4.682,7.681,7.681,0,0,1,.571,3.349,8.183,8.183,0,0,1-1.021,3.389c-1.118,2.14-2.874,3.918-4.037,6.1a12.163,12.163,0,0,0-1.1,7.013c.144,2.336.506,4.669-.017,6.849a9.407,9.407,0,0,1-1.189,3,5.7,5.7,0,0,1-2.194,2.123,4.7,4.7,0,0,1-2.814.479,6.566,6.566,0,0,1-2.454-.934,19.32,19.32,0,0,1-3.363-2.924,31.481,31.481,0,0,0-2.506-2.2,15.786,15.786,0,0,0-1.739-1.188c-.416-.243-.651-.344-.642-.364a.647.647,0,0,1,.179.059,5.4,5.4,0,0,1,.5.23,13.191,13.191,0,0,1,1.8,1.131,28.868,28.868,0,0,1,2.57,2.164,19.55,19.55,0,0,0,3.355,2.839,6.286,6.286,0,0,0,2.344.866,4.359,4.359,0,0,0,2.605-.465,5.347,5.347,0,0,0,2.041-2.009,9.067,9.067,0,0,0,1.124-2.885c.5-2.093.138-4.376-.015-6.737a19.878,19.878,0,0,1,.015-3.642,9.667,9.667,0,0,1,1.124-3.6c1.207-2.255,2.963-4.027,4.044-6.1a7.8,7.8,0,0,0,.984-3.221,7.311,7.311,0,0,0-.528-3.177,9.664,9.664,0,0,0-3.865-4.529,10.572,10.572,0,0,0-5.009-1.54,13.4,13.4,0,0,0-7.417,1.7,20.176,20.176,0,0,0-1.8,1.1l-.453.312A.666.666,0,0,1,522.469,274.789Z" transform="translate(-519.034 -271.26)" fill="#fafafa"/>
            </g>
            <g id="Grupo_84275" data-name="Grupo 84275" transform="translate(35.125 75.619)">
              <path id="Trazado_118236" data-name="Trazado 118236" d="M580.608,341.846a.826.826,0,0,1-.214.051l-.633.108c-.559.09-1.383.217-2.447.361a56.2,56.2,0,0,1-9.082.615,27.906,27.906,0,0,1-6.245-.844,20.738,20.738,0,0,1-6.61-2.939,14.463,14.463,0,0,1-5.174-6.061,12.867,12.867,0,0,1-.7-8.5,10.159,10.159,0,0,1,2.11-3.856,25.157,25.157,0,0,1,3.171-2.819,18.035,18.035,0,0,0,2.921-2.747,8.215,8.215,0,0,0,1.58-3.428c.523-2.451.28-4.887.391-7.148a12.135,12.135,0,0,1,5.042-9.956,11.969,11.969,0,0,1,3.492-1.791,10.691,10.691,0,0,1,2.43-.492l.645-.023a.862.862,0,0,1,.219.007,14.134,14.134,0,0,0-3.242.664,12.114,12.114,0,0,0-3.4,1.825,11.936,11.936,0,0,0-4.831,9.779c-.1,2.236.167,4.677-.361,7.219a8.61,8.61,0,0,1-1.643,3.594,18.316,18.316,0,0,1-2.981,2.82,25.106,25.106,0,0,0-3.115,2.775,9.74,9.74,0,0,0-2.018,3.694,12.482,12.482,0,0,0,.668,8.215,14.107,14.107,0,0,0,5.016,5.907,20.529,20.529,0,0,0,6.477,2.92,27.919,27.919,0,0,0,6.166.884,60.693,60.693,0,0,0,9.051-.478l2.455-.283.64-.067A.86.86,0,0,1,580.608,341.846Z" transform="translate(-549.08 -292.378)" fill="#fafafa"/>
            </g>
            <g id="Grupo_84276" data-name="Grupo 84276" transform="translate(6.272 127.353)">
              <path id="Trazado_118237" data-name="Trazado 118237" d="M535.212,374.006c-.007-.011.086-.089.278-.209a3.815,3.815,0,0,0,.786-.547c.287-.289.168-.838-.012-1.4a11.406,11.406,0,0,0-.892-1.835c-.744-1.338-1.613-2.94-2.688-4.645a26.166,26.166,0,0,0-4.07-5.09,15.073,15.073,0,0,0-5.476-3.407,10.808,10.808,0,0,0-5.217-.491,7.554,7.554,0,0,0-3.252,1.391c-.677.51-.994.868-1.024.839-.011-.01.061-.1.21-.276a6.146,6.146,0,0,1,.712-.693,7.317,7.317,0,0,1,3.3-1.556,10.848,10.848,0,0,1,5.394.415,15.115,15.115,0,0,1,5.644,3.468,25.492,25.492,0,0,1,4.111,5.192c1.068,1.732,1.912,3.355,2.622,4.711a10.838,10.838,0,0,1,.853,1.905,3.689,3.689,0,0,1,.158.859.922.922,0,0,1-.25.72,3.141,3.141,0,0,1-.867.511A1.237,1.237,0,0,1,535.212,374.006Z" transform="translate(-513.644 -355.917)" fill="#fafafa"/>
            </g>
            <g id="Grupo_84277" data-name="Grupo 84277" transform="translate(38.025 41.796)">
              <path id="Trazado_118238" data-name="Trazado 118238" d="M560.277,258.758c.016.015-.1.189-.392.42a3.463,3.463,0,0,1-1.438.634,4.3,4.3,0,0,1-2.331-.2,4.979,4.979,0,0,1-2.244-1.776,7.28,7.28,0,0,1-1.191-4.941,5.888,5.888,0,0,1,.456-2.062c.069.014-.105.8-.157,2.08a7.5,7.5,0,0,0,1.236,4.675,4.791,4.791,0,0,0,2.042,1.659,4.225,4.225,0,0,0,2.139.264A5.046,5.046,0,0,0,560.277,258.758Z" transform="translate(-552.641 -250.838)" fill="#fafafa"/>
            </g>
            <g id="Grupo_84278" data-name="Grupo 84278" transform="translate(40.093 3.554)">
              <path id="Trazado_118239" data-name="Trazado 118239" d="M561.915,226.609a.949.949,0,0,1-.316.071,4.884,4.884,0,0,1-.927.029,6.086,6.086,0,0,1-3.181-1.194,5.72,5.72,0,0,1-1.572-1.789,5.906,5.906,0,0,1-.732-2.636,6.178,6.178,0,0,1,.609-2.963,11.652,11.652,0,0,1,1.973-2.539,5.824,5.824,0,0,0,.885-1.269,2.508,2.508,0,0,0,.234-1.405,8.717,8.717,0,0,0-1.19-2.607,4.435,4.435,0,0,1-.539-2.688,4.351,4.351,0,0,1,.92-2.207,4.232,4.232,0,0,1,3.008-1.535,3.69,3.69,0,0,1,.929.055.879.879,0,0,1,.309.1,9.723,9.723,0,0,0-1.223.013,4.176,4.176,0,0,0-2.789,1.557,4.106,4.106,0,0,0-.271,4.526,8.73,8.73,0,0,1,1.257,2.735,2.909,2.909,0,0,1-.264,1.638,6.185,6.185,0,0,1-.947,1.37,11.571,11.571,0,0,0-1.92,2.444,5.832,5.832,0,0,0-.591,2.765,5.508,5.508,0,0,0,2.1,4.2,6.216,6.216,0,0,0,3.014,1.267C561.469,226.634,561.911,226.568,561.915,226.609Z" transform="translate(-555.182 -203.87)" fill="#fafafa"/>
            </g>
            <g id="Grupo_84279" data-name="Grupo 84279" transform="translate(6.324 9.625)">
              <path id="Trazado_118240" data-name="Trazado 118240" d="M516.843,235.833a10.97,10.97,0,0,0,1.313.063,5.211,5.211,0,0,0,3.2-1.33,4.8,4.8,0,0,0,1.344-4.74,4.928,4.928,0,0,0-1.6-2.54,11.213,11.213,0,0,1-2.4-2.478,5.6,5.6,0,0,1-.545-3.43c.121-1.113.38-2.148.554-3.134a9.469,9.469,0,0,0,.169-2.8,4.214,4.214,0,0,0-.883-2.2,4.782,4.782,0,0,0-2.978-1.734,8.992,8.992,0,0,0-1.31-.048,1.064,1.064,0,0,1,.336-.09,3.882,3.882,0,0,1,1-.025,4.82,4.82,0,0,1,3.189,1.709,4.489,4.489,0,0,1,1,2.347,9.656,9.656,0,0,1-.133,2.908c-.167,1-.414,2.036-.526,3.109a5.236,5.236,0,0,0,.5,3.178,11.19,11.19,0,0,0,2.312,2.384,5.3,5.3,0,0,1,1.7,2.75,5.087,5.087,0,0,1-1.525,5.058,5.2,5.2,0,0,1-3.394,1.271,4.177,4.177,0,0,1-.989-.112A1.09,1.09,0,0,1,516.843,235.833Z" transform="translate(-513.707 -211.325)" fill="#fafafa"/>
            </g>
          </g>
          <g id="Grupo_84307" data-name="Grupo 84307" transform="translate(3.437)">
            <g id="Grupo_84306" data-name="Grupo 84306">
              <path id="Trazado_118241" data-name="Trazado 118241" d="M536.254,150.454a9.931,9.931,0,0,1,11.853,9.12c.1,1.562-.1,3.353,1.007,4.462.778.782,1.965.951,2.934,1.475a4.487,4.487,0,0,1,1.988,5.372c-.375.975-1.091,1.792-1.456,2.771a7.473,7.473,0,0,0-.55,4.57c2.269,7.729-3.211,8.682-6.133,9.2-4.117.725-8.3-.583-8.723-4.9-.138-1.392-2.618-1.234-4.005-1.054-1.673.217-2.91,1.6-4.131,2.759a14.048,14.048,0,0,1-6.753,3.829A8.033,8.033,0,0,1,515,186.088a5.685,5.685,0,0,1-.663-7.181,7.129,7.129,0,0,1-2.7-10.853c1-1.3,2.451-2.255,3.166-3.727.6-1.244,1.254-4.087,1.726-5.387.671-1.847,2.952-5.017,4.718-5.878" transform="translate(-510.161 -148.535)" fill="#455a64"/>
              <g id="Grupo_84291" data-name="Grupo 84291" transform="translate(9.324 5.456)">
                <g id="Grupo_84290" data-name="Grupo 84290">
                  <g id="Grupo_84289" data-name="Grupo 84289">
                    <g id="Grupo_84288" data-name="Grupo 84288">
                      <g id="Grupo_84282" data-name="Grupo 84282">
                        <g id="Grupo_84281" data-name="Grupo 84281">
                          <path id="Trazado_118242" data-name="Trazado 118242" d="M545.705,193.549l-15.29.217c-.261-1.763-.78-8.63-.78-8.63s-6.407-.388-7.08-6.693-.943-20.906-.943-20.906h0a22.037,22.037,0,0,1,22.308.7l1,.632Z" transform="translate(-521.613 -154.841)" fill="#d89377"/>
                        </g>
                      </g>
                      <g id="Grupo_84285" data-name="Grupo 84285" transform="translate(5.191 11.882)">
                        <g id="Grupo_84284" data-name="Grupo 84284">
                          <g id="Grupo_84283" data-name="Grupo 84283">
                            <path id="Trazado_118243" data-name="Trazado 118243" d="M530.311,177.042a4.236,4.236,0,0,0-1.434-.165c-.23,0-.414-.038-.441-.159a1.242,1.242,0,0,1,.1-.667l.521-1.831a24.388,24.388,0,0,0,1.051-4.785,24.3,24.3,0,0,0-1.531,4.654c-.167.635-.326,1.242-.484,1.842a1.455,1.455,0,0,0-.035.957.6.6,0,0,0,.426.326,1.435,1.435,0,0,0,.393.014A4.243,4.243,0,0,0,530.311,177.042Z" transform="translate(-527.989 -169.434)" fill="#263238"/>
                          </g>
                        </g>
                      </g>
                      <g id="Grupo_84287" data-name="Grupo 84287" transform="translate(8.003 27.09)">
                        <g id="Grupo_84286" data-name="Grupo 84286">
                          <path id="Trazado_118244" data-name="Trazado 118244" d="M531.442,191.227a14.741,14.741,0,0,0,8.01-3.114s-1.518,4.726-7.87,4.751Z" transform="translate(-531.442 -188.113)" fill="#bf7a62"/>
                        </g>
                      </g>
                    </g>
                  </g>
                </g>
              </g>
              <g id="Grupo_84295" data-name="Grupo 84295" transform="translate(19.744 16.613)">
                <g id="Grupo_84292" data-name="Grupo 84292" transform="translate(0.248 1.003)">
                  <path id="Trazado_118245" data-name="Trazado 118245" d="M536.313,170.514a.8.8,0,0,1-.787.791.765.765,0,0,1-.81-.738.8.8,0,0,1,.787-.792A.766.766,0,0,1,536.313,170.514Z" transform="translate(-534.716 -169.775)" fill="#263238"/>
                </g>
                <g id="Grupo_84294" data-name="Grupo 84294">
                  <g id="Grupo_84293" data-name="Grupo 84293">
                    <path id="Trazado_118246" data-name="Trazado 118246" d="M537.572,169.416c-.1.1-.7-.358-1.559-.373s-1.5.4-1.592.295c-.045-.047.06-.234.34-.428a2.2,2.2,0,0,1,1.277-.366,2.115,2.115,0,0,1,1.238.427C537.536,169.18,537.621,169.37,537.572,169.416Z" transform="translate(-534.411 -168.543)" fill="#263238"/>
                  </g>
                </g>
              </g>
              <g id="Grupo_84299" data-name="Grupo 84299" transform="translate(10.757 16.744)">
                <g id="Grupo_84296" data-name="Grupo 84296" transform="translate(0.421 0.847)">
                  <path id="Trazado_118247" data-name="Trazado 118247" d="M525.487,170.483a.8.8,0,0,1-.787.791.764.764,0,0,1-.81-.738.8.8,0,0,1,.786-.791A.765.765,0,0,1,525.487,170.483Z" transform="translate(-523.89 -169.744)" fill="#263238"/>
                </g>
                <g id="Grupo_84298" data-name="Grupo 84298">
                  <g id="Grupo_84297" data-name="Grupo 84297">
                    <path id="Trazado_118248" data-name="Trazado 118248" d="M526.533,169.578c-.1.1-.7-.358-1.559-.374s-1.5.4-1.591.3c-.045-.048.059-.234.339-.429A2.2,2.2,0,0,1,525,168.7a2.1,2.1,0,0,1,1.238.428C526.5,169.342,526.583,169.532,526.533,169.578Z" transform="translate(-523.373 -168.704)" fill="#263238"/>
                  </g>
                </g>
              </g>
              <path id="Trazado_118249" data-name="Trazado 118249" d="M532.588,181.013a1.665,1.665,0,0,1-.137-.641.569.569,0,0,1,.34-.52c.149-.051.326-.017.458-.1.182-.117.178-.379.279-.57a.7.7,0,0,1,.759-.307,1.491,1.491,0,0,1,.736.453,1.331,1.331,0,0,1,.454.874,1.039,1.039,0,0,1-.475.83,2.177,2.177,0,0,1-.931.322,4.988,4.988,0,0,1-1.074.043.711.711,0,0,1-.3-.068.271.271,0,0,1-.151-.252" transform="translate(-514.302 -153.847)" fill="#bf7a62"/>
              <g id="Grupo_84301" data-name="Grupo 84301" transform="translate(17.662 24.845)">
                <path id="Trazado_118250" data-name="Trazado 118250" d="M531.853,181.1a4.069,4.069,0,0,0,3.277-2.445" transform="translate(-531.853 -178.654)" fill="#bf7a62"/>
                <g id="Grupo_84300" data-name="Grupo 84300">
                  <path id="Trazado_118251" data-name="Trazado 118251" d="M535.13,178.656a3.119,3.119,0,0,1-3.277,2.445,14.976,14.976,0,0,0,1.841-.951C534.612,179.48,535.015,178.606,535.13,178.656Z" transform="translate(-531.853 -178.654)" fill="#263238"/>
                </g>
              </g>
              <g id="Grupo_84303" data-name="Grupo 84303" transform="translate(10.78 14.526)">
                <path id="Trazado_118252" data-name="Trazado 118252" d="M523.422,166.836a3.666,3.666,0,0,1,2.36-.263" transform="translate(-523.405 -166.074)" fill="#bf7a62"/>
                <g id="Grupo_84302" data-name="Grupo 84302">
                  <path id="Trazado_118253" data-name="Trazado 118253" d="M525.778,166.479c-.064.23-.577.287-1.155.357s-1.093.116-1.205-.094.352-.666,1.111-.749S525.846,166.26,525.778,166.479Z" transform="translate(-523.401 -165.98)" fill="#263238"/>
                </g>
              </g>
              <g id="Grupo_84305" data-name="Grupo 84305" transform="translate(19.658 14.691)">
                <path id="Trazado_118254" data-name="Trazado 118254" d="M534.315,166.938a4.477,4.477,0,0,1,3.331.182" transform="translate(-534.306 -166.279)" fill="#bf7a62"/>
                <g id="Grupo_84304" data-name="Grupo 84304">
                  <path id="Trazado_118255" data-name="Trazado 118255" d="M537.644,167.024c-.112.212-.822.049-1.671.011-.848-.055-1.571.031-1.66-.193-.1-.207.65-.714,1.707-.654S537.763,166.829,537.644,167.024Z" transform="translate(-534.305 -166.183)" fill="#263238"/>
                </g>
              </g>
              <path id="Trazado_118256" data-name="Trazado 118256" d="M534.974,149.936a5.055,5.055,0,0,0-3.617-1.729,11.879,11.879,0,0,0-10.832,4.907c-1.4,2-2.1,4.793-.794,6.856a4.266,4.266,0,0,0,7.7-1.072,3.564,3.564,0,1,0,7.117-.32,6.476,6.476,0,0,0,2.264,3.242c1.137.711,2.916.54,3.5-.666.713.848,1.719,1.713,2.8,1.449a2.175,2.175,0,0,0,1.455-2.183,5.584,5.584,0,0,0-.925-2.644c-2.088-3.633-5.167-6.97-9.21-8.073" transform="translate(-511.811 -148.14)" fill="#455a64"/>
              <path id="Trazado_118257" data-name="Trazado 118257" d="M544.155,160.1a11.372,11.372,0,0,1,.086,11,18.534,18.534,0,0,0-1.734,3.192,3.017,3.017,0,0,0,.742,3.328c.6.445,1.505.668,1.647,1.4a2.009,2.009,0,0,1-.225,1.07,7.239,7.239,0,0,0-.191,4.588,3.96,3.96,0,0,0,2.7,3.285c1.178.526,1.816,1.422,4.364.766,4.464-1.147,2.887-11.116,2.471-15.705s-2.553-12.762-5.129-16.583" transform="translate(-516.135 -149.682)" fill="#455a64"/>
            </g>
            <path id="Trazado_118258" data-name="Trazado 118258" d="M531.463,198.659s-4.625,17.268-1.677,15.557,17.255-13.081,17.255-13.081l-7.235-5.46Z" transform="translate(-513.625 -156.971)" fill="#d89377"/>
          </g>
        </g>
        <g id="Grupo_84309" data-name="Grupo 84309" transform="translate(0 59.899)">
          <path id="Trazado_118259" data-name="Trazado 118259" d="M477.2,233.238c-.512-1.689-6.911-5.177-5.943-6.117,1.261-1.225,6.514,3.942,6.99,4.345s1.059-.286.609-.626c-.645-.49-7.294-5.809-6.067-7.023.68-.674,1.751.7,1.751.7s5.866,5.445,6.427,4.85-2.772-3.917-3.974-4.954-1.2-2.018-.322-2.18c.6-.11,4.355,2.976,5.521,4.029s4.316,4,3.91,1.257c-.007-.043-.007-.083-.013-.126-.473-2.691.054-4.921.645-5.463a.944.944,0,0,1,1.522.754.959.959,0,0,1-.021.4c-.016.057-.023.138-.036.2a13.605,13.605,0,0,0,.177,2.793,7.4,7.4,0,0,0,.768,2.379c.453.857.875,1.58,1.247,2.177,4.279,2.376,16.589,8.646,28.932,9.63,2.228.177,12.076-15.367,12.076-15.367l14.631,6.922a142.521,142.521,0,0,1-11.663,18.4C522.02,267,483.407,239.025,483.407,239.025h0l-.362-.178a89.759,89.759,0,0,1-8.534-4.818c-3.32-2.347-3.121-2.654-2.79-3C472.61,230.089,477.714,234.928,477.2,233.238Z" transform="translate(-471.161 -221.707)" fill="#d89377"/>
        </g>
      </g>
    </g>
    <g id="Character_1" data-name="Character 1" transform="translate(101.006 132.576)">
      <g id="Grupo_84481" data-name="Grupo 84481">
        <g id="Grupo_84423" data-name="Grupo 84423" transform="translate(0 117.214)">
          <g id="Grupo_84360" data-name="Grupo 84360" transform="translate(72.41 139.174)">
            <g id="Grupo_84359" data-name="Grupo 84359">
              <g id="Grupo_84313" data-name="Grupo 84313" transform="translate(0.168)">
                <g id="Grupo_84312" data-name="Grupo 84312">
                  <g id="Grupo_84311" data-name="Grupo 84311">
                    <path id="Trazado_118260" data-name="Trazado 118260" d="M202.738,454.148l-.078-6.681-12.514.066.01,9.775.777.046c3.454.173,17.576.64,19.881-.072C213.383,456.487,202.738,454.148,202.738,454.148Z" transform="translate(-190.145 -447.467)" fill="#455a64"/>
                  </g>
                </g>
              </g>
              <g id="Grupo_84316" data-name="Grupo 84316" transform="translate(0 9.465)">
                <g id="Grupo_84315" data-name="Grupo 84315">
                  <g id="Grupo_84314" data-name="Grupo 84314">
                    <path id="Trazado_118261" data-name="Trazado 118261" d="M189.939,459.181a1.156,1.156,0,0,0,.215.022l.618.035,2.275.087c1.922.06,4.577.108,7.511.1s5.59-.08,7.51-.155l2.274-.105.618-.039a1.272,1.272,0,0,0,.215-.024,1.189,1.189,0,0,0-.216-.007l-.62.011-2.275.057c-1.921.048-4.575.1-7.508.111s-5.586-.02-7.508-.053l-2.275-.039-.62-.006A1.071,1.071,0,0,0,189.939,459.181Z" transform="translate(-189.939 -459.092)" fill="#263238"/>
                  </g>
                </g>
              </g>
              <g id="Grupo_84319" data-name="Grupo 84319" transform="translate(16.839 7.854)">
                <g id="Grupo_84318" data-name="Grupo 84318">
                  <g id="Grupo_84317" data-name="Grupo 84317">
                    <path id="Trazado_118262" data-name="Trazado 118262" d="M210.643,459.079a5.084,5.084,0,0,1,.419-1.088,5.147,5.147,0,0,1,.772-.874,2.02,2.02,0,0,0-1.191,1.962Z" transform="translate(-210.62 -457.113)" fill="#263238"/>
                  </g>
                </g>
              </g>
              <g id="Grupo_84322" data-name="Grupo 84322" transform="translate(13.154 6.918)">
                <g id="Grupo_84321" data-name="Grupo 84321">
                  <g id="Grupo_84320" data-name="Grupo 84320">
                    <path id="Trazado_118263" data-name="Trazado 118263" d="M206.1,457.009c.035.022.211-.194.392-.482s.3-.541.264-.563-.211.194-.392.482S206.065,456.987,206.1,457.009Z" transform="translate(-206.094 -455.963)" fill="#263238"/>
                  </g>
                </g>
              </g>
              <g id="Grupo_84325" data-name="Grupo 84325" transform="translate(12.141 6.723)">
                <g id="Grupo_84324" data-name="Grupo 84324">
                  <g id="Grupo_84323" data-name="Grupo 84323">
                    <path id="Trazado_118264" data-name="Trazado 118264" d="M204.853,456.434c.028.031.226-.1.44-.3s.366-.378.338-.409-.225.1-.44.3S204.826,456.4,204.853,456.434Z" transform="translate(-204.85 -455.724)" fill="#263238"/>
                  </g>
                </g>
              </g>
              <g id="Grupo_84328" data-name="Grupo 84328" transform="translate(11.498 6.183)">
                <g id="Grupo_84327" data-name="Grupo 84327">
                  <g id="Grupo_84326" data-name="Grupo 84326">
                    <path id="Trazado_118265" data-name="Trazado 118265" d="M204.061,455.133a1.483,1.483,0,0,0,.653.08,1.468,1.468,0,0,0,.655-.072,1.489,1.489,0,0,0-.654-.08A1.462,1.462,0,0,0,204.061,455.133Z" transform="translate(-204.061 -455.061)" fill="#263238"/>
                  </g>
                </g>
              </g>
              <g id="Grupo_84331" data-name="Grupo 84331" transform="translate(11.274 5.41)">
                <g id="Grupo_84330" data-name="Grupo 84330">
                  <g id="Grupo_84329" data-name="Grupo 84329">
                    <path id="Trazado_118266" data-name="Trazado 118266" d="M203.786,454.124a1.842,1.842,0,0,0,1.481.105,3.921,3.921,0,0,0-.741-.048A4.049,4.049,0,0,0,203.786,454.124Z" transform="translate(-203.785 -454.111)" fill="#263238"/>
                  </g>
                </g>
              </g>
              <g id="Grupo_84334" data-name="Grupo 84334" transform="translate(13.579 5.738)">
                <g id="Grupo_84333" data-name="Grupo 84333">
                  <g id="Grupo_84332" data-name="Grupo 84332">
                    <path id="Trazado_118267" data-name="Trazado 118267" d="M206.617,455.647a2.328,2.328,0,0,0,.8-.009,4.712,4.712,0,0,0,.855-.193,2.341,2.341,0,0,0,.489-.2.439.439,0,0,0,.2-.251.317.317,0,0,0-.124-.322,1.475,1.475,0,0,0-1.821.44,1.434,1.434,0,0,0-.26.537.448.448,0,0,0-.02.217,2.283,2.283,0,0,1,.363-.688,1.453,1.453,0,0,1,.686-.449,1.245,1.245,0,0,1,.958.061c.129.094.079.244-.063.33a2.419,2.419,0,0,1-.451.2,5.585,5.585,0,0,1-.827.219C206.923,455.62,206.617,455.621,206.617,455.647Z" transform="translate(-206.617 -454.514)" fill="#263238"/>
                  </g>
                </g>
              </g>
              <g id="Grupo_84337" data-name="Grupo 84337" transform="translate(12.733 5.356)">
                <g id="Grupo_84336" data-name="Grupo 84336">
                  <g id="Grupo_84335" data-name="Grupo 84335">
                    <path id="Trazado_118268" data-name="Trazado 118268" d="M206.632,455.6a.791.791,0,0,0,.09-.559,1.314,1.314,0,0,0-.222-.586.808.808,0,0,0-.672-.407.32.32,0,0,0-.246.373.874.874,0,0,0,.138.358,2.457,2.457,0,0,0,.382.485,1.165,1.165,0,0,0,.462.323c.014-.02-.161-.143-.383-.4a2.849,2.849,0,0,1-.34-.481c-.111-.169-.188-.474.014-.511.2-.02.408.179.531.339a1.318,1.318,0,0,1,.23.522A2.948,2.948,0,0,1,206.632,455.6Z" transform="translate(-205.577 -454.045)" fill="#263238"/>
                  </g>
                </g>
              </g>
              <g id="Grupo_84340" data-name="Grupo 84340" transform="translate(0.239 6.041)">
                <g id="Grupo_84339" data-name="Grupo 84339">
                  <g id="Grupo_84338" data-name="Grupo 84338">
                    <path id="Trazado_118269" data-name="Trazado 118269" d="M190.233,454.974c0,.029.358-.036.924.029a3.92,3.92,0,0,1,3.29,2.6c.193.536.213.9.242.892a.741.741,0,0,0,0-.252,3.288,3.288,0,0,0-.14-.674,3.8,3.8,0,0,0-3.381-2.671,3.3,3.3,0,0,0-.688.021A.727.727,0,0,0,190.233,454.974Z" transform="translate(-190.233 -454.887)" fill="#263238"/>
                  </g>
                </g>
              </g>
              <g id="Grupo_84343" data-name="Grupo 84343" transform="translate(1.413 0.914)">
                <g id="Grupo_84342" data-name="Grupo 84342">
                  <g id="Grupo_84341" data-name="Grupo 84341">
                    <path id="Trazado_118270" data-name="Trazado 118270" d="M191.774,448.59a43.474,43.474,0,0,0-.042,5.143,43.949,43.949,0,0,0,.042-5.143Z" transform="translate(-191.675 -448.59)" fill="#263238"/>
                  </g>
                </g>
              </g>
              <g id="Grupo_84346" data-name="Grupo 84346" transform="translate(6.284 8.476)">
                <g id="Grupo_84345" data-name="Grupo 84345">
                  <g id="Grupo_84344" data-name="Grupo 84344">
                    <path id="Trazado_118271" data-name="Trazado 118271" d="M197.657,457.892a10.275,10.275,0,0,0,3.657.017c0-.044-.822.01-1.829,0S197.662,457.848,197.657,457.892Z" transform="translate(-197.657 -457.877)" fill="#263238"/>
                  </g>
                </g>
              </g>
              <g id="Grupo_84349" data-name="Grupo 84349" transform="translate(3.825 8.494)">
                <g id="Grupo_84348" data-name="Grupo 84348">
                  <g id="Grupo_84347" data-name="Grupo 84347">
                    <path id="Trazado_118272" data-name="Trazado 118272" d="M194.643,457.9c-.03.031.068.173.152.36s.131.353.174.35.064-.2-.037-.414S194.67,457.874,194.643,457.9Z" transform="translate(-194.637 -457.899)" fill="#263238"/>
                  </g>
                </g>
              </g>
              <g id="Grupo_84352" data-name="Grupo 84352" transform="translate(2.896 7.346)">
                <g id="Grupo_84351" data-name="Grupo 84351">
                  <g id="Grupo_84350" data-name="Grupo 84350">
                    <path id="Trazado_118273" data-name="Trazado 118273" d="M193.5,456.5c-.03.03.051.16.182.291s.26.212.289.182-.051-.159-.182-.29S193.531,456.466,193.5,456.5Z" transform="translate(-193.495 -456.49)" fill="#263238"/>
                  </g>
                </g>
              </g>
              <g id="Grupo_84355" data-name="Grupo 84355" transform="translate(1.576 6.761)">
                <g id="Grupo_84354" data-name="Grupo 84354">
                  <g id="Grupo_84353" data-name="Grupo 84353">
                    <path id="Trazado_118274" data-name="Trazado 118274" d="M191.875,455.843c.009.042.175.04.359.1s.318.161.35.133-.072-.2-.3-.277S191.862,455.8,191.875,455.843Z" transform="translate(-191.874 -455.77)" fill="#263238"/>
                  </g>
                </g>
              </g>
              <g id="Grupo_84358" data-name="Grupo 84358" transform="translate(0.632 6.56)">
                <g id="Grupo_84357" data-name="Grupo 84357">
                  <g id="Grupo_84356" data-name="Grupo 84356">
                    <path id="Trazado_118275" data-name="Trazado 118275" d="M190.717,455.553c-.015.039.058.1.161.142s.2.041.216,0-.057-.1-.161-.143S190.732,455.514,190.717,455.553Z" transform="translate(-190.715 -455.525)" fill="#263238"/>
                  </g>
                </g>
              </g>
            </g>
          </g>
          <g id="Grupo_84410" data-name="Grupo 84410" transform="translate(0 123.859)">
            <g id="Grupo_84409" data-name="Grupo 84409">
              <g id="Grupo_84363" data-name="Grupo 84363">
                <g id="Grupo_84362" data-name="Grupo 84362">
                  <g id="Grupo_84361" data-name="Grupo 84361">
                    <path id="Trazado_118276" data-name="Trazado 118276" d="M113.307,441.017l3.535-5.669-10.577-6.69-5.26,8.239.629.457c2.816,2.008,14.46,10.012,16.785,10.654C121.014,448.724,113.307,441.017,113.307,441.017Z" transform="translate(-101.006 -428.658)" fill="#455a64"/>
                  </g>
                </g>
              </g>
              <g id="Grupo_84366" data-name="Grupo 84366" transform="translate(0.005 7.901)">
                <g id="Grupo_84365" data-name="Grupo 84365">
                  <g id="Grupo_84364" data-name="Grupo 84364">
                    <path id="Trazado_118277" data-name="Trazado 118277" d="M101.012,438.362a1.063,1.063,0,0,0,.169.135l.5.362,1.869,1.3c1.586,1.086,3.8,2.558,6.273,4.13s4.752,2.945,6.41,3.917l1.973,1.137.541.3a.108.108,0,1,0,.015-.026l-.528-.325-1.947-1.178c-1.644-.995-3.907-2.382-6.384-3.953s-4.694-3.027-6.295-4.091l-1.9-1.26-.518-.339A1.288,1.288,0,0,0,101.012,438.362Z" transform="translate(-101.012 -438.362)" fill="#263238"/>
                  </g>
                </g>
              </g>
              <g id="Grupo_84369" data-name="Grupo 84369" transform="translate(14.061 16.163)">
                <g id="Grupo_84368" data-name="Grupo 84368">
                  <g id="Grupo_84367" data-name="Grupo 84367">
                    <path id="Trazado_118278" data-name="Trazado 118278" d="M118.278,449.559a3.311,3.311,0,0,1,2.061-1.01,2.019,2.019,0,0,0-2.061,1.01Z" transform="translate(-118.275 -448.509)" fill="#263238"/>
                  </g>
                </g>
              </g>
              <g id="Grupo_84372" data-name="Grupo 84372" transform="translate(11.946 13.12)">
                <g id="Grupo_84371" data-name="Grupo 84371">
                  <g id="Grupo_84370" data-name="Grupo 84370">
                    <path id="Trazado_118279" data-name="Trazado 118279" d="M115.679,445.307c.018.037.282-.05.59-.195s.543-.294.525-.332-.282.05-.59.195S115.661,445.269,115.679,445.307Z" transform="translate(-115.678 -444.771)" fill="#263238"/>
                  </g>
                </g>
              </g>
              <g id="Grupo_84375" data-name="Grupo 84375" transform="translate(11.377 12.457)">
                <g id="Grupo_84374" data-name="Grupo 84374">
                  <g id="Grupo_84373" data-name="Grupo 84373">
                    <path id="Trazado_118280" data-name="Trazado 118280" d="M114.979,444.161c.007.041.245.036.531-.013s.511-.121.5-.162-.244-.036-.53.012S114.972,444.119,114.979,444.161Z" transform="translate(-114.979 -443.958)" fill="#263238"/>
                  </g>
                </g>
              </g>
              <g id="Grupo_84378" data-name="Grupo 84378" transform="translate(11.467 11.313)">
                <g id="Grupo_84377" data-name="Grupo 84377">
                  <g id="Grupo_84376" data-name="Grupo 84376">
                    <path id="Trazado_118281" data-name="Trazado 118281" d="M115.091,442.559c-.023.036.2.223.507.42s.567.327.589.292-.2-.223-.507-.42S115.113,442.524,115.091,442.559Z" transform="translate(-115.089 -442.553)" fill="#263238"/>
                  </g>
                </g>
              </g>
              <g id="Grupo_84381" data-name="Grupo 84381" transform="translate(11.724 10.495)">
                <g id="Grupo_84380" data-name="Grupo 84380">
                  <g id="Grupo_84379" data-name="Grupo 84379">
                    <path id="Trazado_118282" data-name="Trazado 118282" d="M115.409,441.55c-.032.024.16.316.5.569a1.267,1.267,0,0,0,.69.318c.017-.04-.276-.2-.6-.439S115.443,441.523,115.409,441.55Z" transform="translate(-115.406 -441.548)" fill="#263238"/>
                  </g>
                </g>
              </g>
              <g id="Grupo_84384" data-name="Grupo 84384" transform="translate(12.874 12.633)">
                <g id="Grupo_84383" data-name="Grupo 84383">
                  <g id="Grupo_84382" data-name="Grupo 84382">
                    <path id="Trazado_118283" data-name="Trazado 118283" d="M116.833,444.5a2.312,2.312,0,0,0,.682.426,4.668,4.668,0,0,0,.824.3,2.34,2.34,0,0,0,.522.091.432.432,0,0,0,.3-.1.316.316,0,0,0,.069-.337,1.476,1.476,0,0,0-1.772-.611,1.446,1.446,0,0,0-.509.313c-.1.1-.141.166-.134.173a2.254,2.254,0,0,1,.676-.384,1.456,1.456,0,0,1,.82-.009,1.246,1.246,0,0,1,.774.567c.058.148-.065.248-.23.244a2.372,2.372,0,0,1-.485-.079,5.614,5.614,0,0,1-.815-.26C117.106,444.643,116.846,444.479,116.833,444.5Z" transform="translate(-116.818 -444.174)" fill="#263238"/>
                  </g>
                </g>
              </g>
              <g id="Grupo_84387" data-name="Grupo 84387" transform="translate(12.718 11.34)">
                <g id="Grupo_84386" data-name="Grupo 84386">
                  <g id="Grupo_84385" data-name="Grupo 84385">
                    <path id="Trazado_118284" data-name="Trazado 118284" d="M116.952,444.35c0,.014.215-.1.377-.422a1.323,1.323,0,0,0,.129-.614.808.808,0,0,0-.346-.705.32.32,0,0,0-.408.182.872.872,0,0,0-.077.377,2.424,2.424,0,0,0,.061.614,1.155,1.155,0,0,0,.214.521c.023-.009-.058-.208-.109-.541a2.779,2.779,0,0,1-.026-.588c0-.2.1-.5.287-.423s.248.37.265.572a1.333,1.333,0,0,1-.088.563A2.941,2.941,0,0,1,116.952,444.35Z" transform="translate(-116.626 -442.586)" fill="#263238"/>
                  </g>
                </g>
              </g>
              <g id="Grupo_84390" data-name="Grupo 84390" transform="translate(2.052 5.144)">
                <g id="Grupo_84389" data-name="Grupo 84389">
                  <g id="Grupo_84388" data-name="Grupo 84388">
                    <path id="Trazado_118285" data-name="Trazado 118285" d="M103.527,434.977c-.013.025.321.163.763.522a3.921,3.921,0,0,1,1.371,3.962c-.125.555-.3.87-.277.882a.723.723,0,0,0,.135-.213,3.263,3.263,0,0,0,.246-.643,3.8,3.8,0,0,0-1.409-4.072,3.337,3.337,0,0,0-.591-.353A.727.727,0,0,0,103.527,434.977Z" transform="translate(-103.527 -434.975)" fill="#263238"/>
                  </g>
                </g>
              </g>
              <g id="Grupo_84393" data-name="Grupo 84393" transform="translate(3.127 1.439)">
                <g id="Grupo_84392" data-name="Grupo 84392">
                  <g id="Grupo_84391" data-name="Grupo 84391">
                    <path id="Trazado_118286" data-name="Trazado 118286" d="M107.654,430.426a43.823,43.823,0,0,0-2.807,4.31,43.678,43.678,0,0,0,2.807-4.31Z" transform="translate(-104.846 -430.426)" fill="#263238"/>
                  </g>
                </g>
              </g>
              <g id="Grupo_84396" data-name="Grupo 84396" transform="translate(5.87 10.392)">
                <g id="Grupo_84395" data-name="Grupo 84395">
                  <g id="Grupo_84394" data-name="Grupo 84394">
                    <path id="Trazado_118287" data-name="Trazado 118287" d="M108.216,441.423a10.313,10.313,0,0,0,3.071,1.986c.02-.039-.7-.435-1.542-.983S108.244,441.388,108.216,441.423Z" transform="translate(-108.215 -441.421)" fill="#263238"/>
                  </g>
                </g>
              </g>
              <g id="Grupo_84399" data-name="Grupo 84399" transform="translate(3.679 9.077)">
                <g id="Grupo_84398" data-name="Grupo 84398">
                  <g id="Grupo_84397" data-name="Grupo 84397">
                    <path id="Trazado_118288" data-name="Trazado 118288" d="M105.646,439.807c-.042.01-.036.182-.066.385s-.081.368-.042.388.16-.132.192-.367S105.685,439.8,105.646,439.807Z" transform="translate(-105.525 -439.806)" fill="#263238"/>
                  </g>
                </g>
              </g>
              <g id="Grupo_84402" data-name="Grupo 84402" transform="translate(3.604 7.611)">
                <g id="Grupo_84401" data-name="Grupo 84401">
                  <g id="Grupo_84400" data-name="Grupo 84400">
                    <path id="Trazado_118289" data-name="Trazado 118289" d="M105.464,438.006c-.042.009-.042.162,0,.342s.1.319.145.31.042-.162,0-.342S105.5,438,105.464,438.006Z" transform="translate(-105.432 -438.006)" fill="#263238"/>
                  </g>
                </g>
              </g>
              <g id="Grupo_84405" data-name="Grupo 84405" transform="translate(2.798 6.445)">
                <g id="Grupo_84404" data-name="Grupo 84404">
                  <g id="Grupo_84403" data-name="Grupo 84403">
                    <path id="Trazado_118290" data-name="Trazado 118290" d="M104.444,436.588c-.015.041.126.129.247.282s.18.306.223.3.046-.208-.106-.395S104.454,436.549,104.444,436.588Z" transform="translate(-104.443 -436.574)" fill="#263238"/>
                  </g>
                </g>
              </g>
              <g id="Grupo_84408" data-name="Grupo 84408" transform="translate(2.122 5.74)">
                <g id="Grupo_84407" data-name="Grupo 84407">
                  <g id="Grupo_84406" data-name="Grupo 84406">
                    <path id="Trazado_118291" data-name="Trazado 118291" d="M103.627,435.714c-.034.025-.007.118.059.208s.147.142.181.116.007-.117-.059-.207S103.66,435.689,103.627,435.714Z" transform="translate(-103.612 -435.708)" fill="#263238"/>
                  </g>
                </g>
              </g>
            </g>
          </g>
          <g id="Grupo_84420" data-name="Grupo 84420" transform="translate(0.458)">
            <g id="Grupo_84417" data-name="Grupo 84417">
              <g id="Grupo_84413" data-name="Grupo 84413" transform="translate(0 0.966)">
                <g id="Grupo_84412" data-name="Grupo 84412">
                  <g id="Grupo_84411" data-name="Grupo 84411">
                    <path id="Trazado_118292" data-name="Trazado 118292" d="M161.884,283.4s10.619,70.546,9.074,73.956-51.118,57.928-51.118,57.928l-18.27-12.106s43.3-54.519,42.976-55.829-16.41-69.624-16.41-69.624Z" transform="translate(-101.569 -277.723)" fill="#cee284"/>
                  </g>
                </g>
              </g>
              <g id="Grupo_84416" data-name="Grupo 84416" transform="translate(19.01)">
                <g id="Grupo_84415" data-name="Grupo 84415">
                  <g id="Grupo_84414" data-name="Grupo 84414">
                    <path id="Trazado_118293" data-name="Trazado 118293" d="M126.444,276.536l-.642,2.619a30.814,30.814,0,0,0,3.238,22.735L157.834,351.8a40.1,40.1,0,0,1,4.412,11.345l13,57.647H195.3c0,1.2-5.189-47.488-7.788-63.658-1.961-12.2-18.281-50.053-26.188-67.929l4.9-6.027-8.509-1.421Z" transform="translate(-124.917 -276.536)" fill="#cee284"/>
                  </g>
                </g>
              </g>
            </g>
            <g id="Grupo_84418" data-name="Grupo 84418" transform="translate(56.035 12.53)">
              <path id="Trazado_118294" data-name="Trazado 118294" d="M170.394,291.926a3.7,3.7,0,0,1,.444.794c.261.522.621,1.286,1.052,2.236.862,1.9,1.994,4.551,3.149,7.518s2.11,5.689,2.759,7.672c.324.991.575,1.8.735,2.359a3.774,3.774,0,0,1,.208.884,3.752,3.752,0,0,1-.366-.832l-.861-2.312c-.72-1.956-1.719-4.654-2.87-7.617s-2.238-5.626-3.029-7.554q-.547-1.347-.927-2.287A3.8,3.8,0,0,1,170.394,291.926Z" transform="translate(-170.39 -291.926)" fill="#263238"/>
            </g>
            <g id="Grupo_84419" data-name="Grupo 84419" transform="translate(34.737 45.468)">
              <path id="Trazado_118295" data-name="Trazado 118295" d="M167.9,383.117a2.87,2.87,0,0,1-.13-.562l-.292-1.62q-.09-.535-.2-1.171-.143-.641-.307-1.381c-.222-.989-.449-2.122-.809-3.347l-.525-1.933-.659-2.069c-.428-1.439-1.023-2.93-1.593-4.517-1.237-3.14-2.741-6.535-4.5-10.013a188.443,188.443,0,0,0-10.119-17.2l-3.341-5.05-.906-1.376a2.93,2.93,0,0,1-.291-.5,3.013,3.013,0,0,1,.362.448l.971,1.33c.838,1.16,2.026,2.856,3.456,4.979a166.492,166.492,0,0,1,10.247,17.177c1.763,3.49,3.262,6.9,4.484,10.064.562,1.6,1.146,3.1,1.562,4.551q.331,1.078.638,2.084.261,1.015.5,1.949c.343,1.235.55,2.377.751,3.375l.274,1.392q.089.641.164,1.181c.088.676.158,1.219.212,1.635A2.9,2.9,0,0,1,167.9,383.117Z" transform="translate(-144.233 -332.379)" fill="#263238"/>
            </g>
          </g>
          <g id="Grupo_84421" data-name="Grupo 84421" transform="translate(2.676 123.608)">
            <path id="Trazado_118296" data-name="Trazado 118296" d="M123.025,440.349a3.52,3.52,0,0,1-.836-.275,20.3,20.3,0,0,1-2.178-1,50.521,50.521,0,0,1-6.622-4.3c-2.47-1.842-4.691-3.514-6.368-4.626s-2.76-1.725-2.728-1.787a3.474,3.474,0,0,1,.806.354c.51.247,1.221.652,2.084,1.181,1.729,1.053,3.991,2.7,6.457,4.536a65.314,65.314,0,0,0,6.514,4.383C121.9,439.8,123.054,440.279,123.025,440.349Z" transform="translate(-104.292 -428.35)" fill="#263238"/>
          </g>
          <g id="Grupo_84422" data-name="Grupo 84422" transform="translate(68.656 140.809)">
            <path id="Trazado_118297" data-name="Trazado 118297" d="M206.476,449.932a3.159,3.159,0,0,1-.834.047l-2.267-.016L195.9,449.9l-7.474.046-2.267.011a3.153,3.153,0,0,1-.834-.049,3.16,3.16,0,0,1,.827-.116c.534-.048,1.308-.1,2.264-.146,1.913-.1,4.56-.174,7.483-.171s5.569.086,7.483.187c.957.05,1.73.1,2.264.151A3.153,3.153,0,0,1,206.476,449.932Z" transform="translate(-185.328 -449.476)" fill="#263238"/>
          </g>
        </g>
        <g id="Grupo_84452" data-name="Grupo 84452" transform="translate(24.624 12.645)">
          <path id="Trazado_118298" data-name="Trazado 118298" d="M140.83,180.662a9.14,9.14,0,0,1-5.157-.778,4.851,4.851,0,0,1-2.717-4.221c.032-1.032.48-2.05.309-3.068a9.745,9.745,0,0,0-1.415-2.749,5.7,5.7,0,0,1,1.53-6.982c1.067-.813,2.43-1.238,3.324-2.237,1.058-1.183,1.228-2.892,1.874-4.342a7.026,7.026,0,0,1,5.23-4.008,22.4,22.4,0,0,0,3.752-.458,12.864,12.864,0,0,0,2.775-1.653,12.844,12.844,0,0,1,9.571-1.794,7.68,7.68,0,0,1,3.881,1.909c1.162,1.155,2.664,2.408,3.083,3.993.494,1.869-.111,4.214-.613,6.081a5,5,0,0,1-3.921,3.8" transform="translate(-131.248 -148.106)" fill="#263238"/>
          <g id="Grupo_84442" data-name="Grupo 84442" transform="translate(5.935 8.248)">
            <g id="Grupo_84439" data-name="Grupo 84439">
              <g id="Grupo_84432" data-name="Grupo 84432" transform="translate(3.236)">
                <g id="Grupo_84431" data-name="Grupo 84431">
                  <g id="Grupo_84425" data-name="Grupo 84425">
                    <g id="Grupo_84424" data-name="Grupo 84424">
                      <path id="Trazado_118299" data-name="Trazado 118299" d="M142.512,196.943l15.29.217c.261-1.763.78-8.63.78-8.63s6.407-.388,7.08-6.694.943-20.906.943-20.906h0a22.041,22.041,0,0,0-22.309.7l-1,.632Z" transform="translate(-142.512 -158.236)" fill="#ffbe9d"/>
                    </g>
                  </g>
                  <g id="Grupo_84428" data-name="Grupo 84428" transform="translate(16.579 11.882)">
                    <g id="Grupo_84427" data-name="Grupo 84427">
                      <g id="Grupo_84426" data-name="Grupo 84426">
                        <path id="Trazado_118300" data-name="Trazado 118300" d="M162.874,180.437a4.226,4.226,0,0,1,1.434-.165c.23,0,.413-.038.441-.159a1.242,1.242,0,0,0-.1-.667l-.521-1.832a24.314,24.314,0,0,1-1.051-4.784,24.269,24.269,0,0,1,1.531,4.653c.167.636.326,1.243.483,1.843a1.455,1.455,0,0,1,.036.957.6.6,0,0,1-.427.326,1.5,1.5,0,0,1-.392.014A4.243,4.243,0,0,1,162.874,180.437Z" transform="translate(-162.874 -172.829)" fill="#263238"/>
                      </g>
                    </g>
                  </g>
                  <g id="Grupo_84430" data-name="Grupo 84430" transform="translate(8.079 27.091)">
                    <g id="Grupo_84429" data-name="Grupo 84429">
                      <path id="Trazado_118301" data-name="Trazado 118301" d="M160.444,194.622a14.749,14.749,0,0,1-8.01-3.114s1.518,4.726,7.871,4.751Z" transform="translate(-152.434 -191.508)" fill="#eb996e"/>
                    </g>
                  </g>
                </g>
              </g>
              <g id="Grupo_84438" data-name="Grupo 84438" transform="translate(0 10.601)">
                <g id="Grupo_84434" data-name="Grupo 84434">
                  <g id="Grupo_84433" data-name="Grupo 84433">
                    <path id="Trazado_118302" data-name="Trazado 118302" d="M142.632,171.314c-.125-.051-4.323-.736-4.085,4.254s5.2,3.1,5.2,2.956S142.632,171.314,142.632,171.314Z" transform="translate(-138.537 -171.255)" fill="#ffbe9d"/>
                  </g>
                </g>
                <g id="Grupo_84437" data-name="Grupo 84437" transform="translate(1.278 1.687)">
                  <g id="Grupo_84436" data-name="Grupo 84436">
                    <g id="Grupo_84435" data-name="Grupo 84435">
                      <path id="Trazado_118303" data-name="Trazado 118303" d="M142.427,177.232c-.023-.015-.085.064-.228.139a.871.871,0,0,1-.649.044,2.153,2.153,0,0,1-1.087-1.882,2.861,2.861,0,0,1,.184-1.256,1,1,0,0,1,.622-.7.443.443,0,0,1,.524.213c.073.137.046.238.073.245s.1-.089.053-.293a.557.557,0,0,0-.211-.3.654.654,0,0,0-.487-.1,1.222,1.222,0,0,0-.871.817,2.958,2.958,0,0,0-.235,1.405,2.259,2.259,0,0,0,1.37,2.094.934.934,0,0,0,.789-.169C142.423,177.353,142.444,177.24,142.427,177.232Z" transform="translate(-140.107 -173.328)" fill="#eb996e"/>
                    </g>
                  </g>
                </g>
              </g>
            </g>
            <g id="Grupo_84440" data-name="Grupo 84440" transform="translate(14.124 9.435)">
              <path id="Trazado_118304" data-name="Trazado 118304" d="M155.9,170.926c-.068-.089.05-.326.374-.574a2.921,2.921,0,0,1,3.009-.207c.354.2.5.42.449.517-.125.207-.935-.069-1.924.014C156.819,170.729,156.055,171.114,155.9,170.926Z" transform="translate(-155.884 -169.823)" fill="#263238"/>
            </g>
            <g id="Grupo_84441" data-name="Grupo 84441" transform="translate(22.991 10.05)">
              <path id="Trazado_118305" data-name="Trazado 118305" d="M166.777,171.121c-.044-.227.64-.546,1.536-.542s1.579.324,1.534.55-.727.3-1.536.3S166.819,171.354,166.777,171.121Z" transform="translate(-166.775 -170.579)" fill="#263238"/>
            </g>
          </g>
          <path id="Trazado_118306" data-name="Trazado 118306" d="M141.625,162.813l.711,4.6a3.835,3.835,0,0,0,.73,2.031,2.737,2.737,0,0,0,3.337.213,7.979,7.979,0,0,0,3-4.227,13.044,13.044,0,0,1,2.452-4.638,6.077,6.077,0,0,0,7.01,1.292c1.018-.512,1.865-1.305,2.842-1.891a3.725,3.725,0,0,1,3.249-.522c.577.239,1.1.713,1.72.686a1.39,1.39,0,0,0,1.12-.77A2.381,2.381,0,0,0,168,158.2a5.45,5.45,0,0,0-3.248-3.946,16.85,16.85,0,0,0-7.43-1.275,28.089,28.089,0,0,0-7.165.708,12.385,12.385,0,0,0-6.173,3.543,8,8,0,0,0-2.046,6.663" transform="translate(-133.176 -149.012)" fill="#263238"/>
          <path id="Trazado_118307" data-name="Trazado 118307" d="M165.964,158.27a7.548,7.548,0,0,0,2.4,4.169,3.23,3.23,0,0,0,2.113.947,2.62,2.62,0,0,0,2.3-2.615,4.992,4.992,0,0,0-1.562-3.41,4.734,4.734,0,0,0-3.176-1.676,2.424,2.424,0,0,0-2.54,2.13" transform="translate(-137.613 -149.513)" fill="#263238"/>
          <g id="Grupo_84446" data-name="Grupo 84446" transform="translate(19.669 19.405)">
            <g id="Grupo_84443" data-name="Grupo 84443" transform="translate(1.328 1.003)">
              <path id="Trazado_118308" data-name="Trazado 118308" d="M157.037,173.909a.8.8,0,0,0,.787.791.765.765,0,0,0,.81-.738.8.8,0,0,0-.787-.792A.766.766,0,0,0,157.037,173.909Z" transform="translate(-157.037 -173.17)" fill="#263238"/>
            </g>
            <g id="Grupo_84445" data-name="Grupo 84445">
              <g id="Grupo_84444" data-name="Grupo 84444">
                <path id="Trazado_118309" data-name="Trazado 118309" d="M155.419,172.811c.1.1.7-.358,1.559-.374s1.5.4,1.591.3c.045-.047-.059-.234-.339-.428a2.2,2.2,0,0,0-1.277-.366,2.1,2.1,0,0,0-1.238.427C155.455,172.575,155.369,172.765,155.419,172.811Z" transform="translate(-155.405 -171.938)" fill="#263238"/>
              </g>
            </g>
          </g>
          <g id="Grupo_84450" data-name="Grupo 84450" transform="translate(28.656 19.536)">
            <g id="Grupo_84447" data-name="Grupo 84447" transform="translate(1.156 0.846)">
              <path id="Trazado_118310" data-name="Trazado 118310" d="M167.863,173.877a.8.8,0,0,0,.787.791.765.765,0,0,0,.81-.738.8.8,0,0,0-.787-.792A.766.766,0,0,0,167.863,173.877Z" transform="translate(-167.863 -173.138)" fill="#263238"/>
            </g>
            <g id="Grupo_84449" data-name="Grupo 84449">
              <g id="Grupo_84448" data-name="Grupo 84448">
                <path id="Trazado_118311" data-name="Trazado 118311" d="M166.457,172.972c.1.1.7-.358,1.559-.373s1.5.4,1.592.295c.045-.047-.059-.234-.34-.428a2.194,2.194,0,0,0-1.276-.366,2.11,2.11,0,0,0-1.238.427C166.494,172.736,166.407,172.926,166.457,172.972Z" transform="translate(-166.444 -172.099)" fill="#263238"/>
              </g>
            </g>
          </g>
          <g id="Grupo_84451" data-name="Grupo 84451" transform="translate(23.028 27.826)">
            <path id="Trazado_118312" data-name="Trazado 118312" d="M162.046,184.751c.008.052-.215.151-.6.128a2.082,2.082,0,0,1-1.916-2c-.006-.386.1-.6.155-.594.116,0,.028.934.728,1.668S162.05,184.635,162.046,184.751Z" transform="translate(-159.531 -182.282)" fill="#263238"/>
          </g>
        </g>
        <g id="Grupo_84454" data-name="Grupo 84454" transform="translate(52.959 71.305)">
          <g id="Grupo_84453" data-name="Grupo 84453">
            <path id="Trazado_118313" data-name="Trazado 118313" d="M166.14,224.4l12.706-4.249s8.85,20.928,11.126,21.135c12.615,1.15,26.113-3.032,30.846-4.686.48-.539,1.028-1.187,1.64-1.979a7.564,7.564,0,0,0,1.187-2.267,11.5,11.5,0,0,0,.675-3.117.989.989,0,0,1,1.7-.779c.546.705.686,3.409-.559,6.317s3.162.594,4.783-.22,6.755-3.1,7.4-2.8c.946.44.649,1.536-.99,2.311-1.658.785-6.386,3.447-5.914,4.282s8.661-3.434,8.661-3.434,1.6-1.193,2.181-.246c1.041,1.708-8.006,5.593-8.877,5.941-.6.243-.125,1.168.511.874.654-.3,8.077-4.437,9.153-2.707.825,1.327-7.413,3.264-8.476,4.976s6.1-2.1,6.834-.8c.274.484.412.883-4.017,2.481a94.15,94.15,0,0,1-9.871,2.52l.015.046s-45.584,20.4-53.782.713C164.722,228.656,166.14,224.4,166.14,224.4Z" transform="translate(-166.049 -220.152)" fill="#eb996e"/>
          </g>
        </g>
        <path id="Trazado_118314" data-name="Trazado 118314" d="M174.672,223.4c-5.085-11.912-11.751-16.578-15.267-18.3a10.2,10.2,0,0,0-3.936-1.012h0l-.423-2.047-16.858-1.518-.413,2.6-2.474-.134s-14.533,1.454-14.559,18.287c-.012,7.873,4.24,15.533,5.74,19.286.936,7.852-2.433,22.086-2.342,25.559l41.3,2.931,1.748-25.819-.387-2.422,13.6-4.164Zm-36.484-20.249h0Z" transform="translate(-104.673 -145.199)" fill="#ebebeb"/>
        <g id="Grupo_84458" data-name="Grupo 84458" transform="translate(46.705)">
          <g id="Grupo_84455" data-name="Grupo 84455">
            <path id="Trazado_118315" data-name="Trazado 118315" d="M274.019,154.585a47.99,47.99,0,0,0-85.066,25.035h0a47.955,47.955,0,0,0,16.2,41.251l-42.008,49.3,6.028,5.138,42.362-49.712a47.7,47.7,0,0,0,20.035,6.844,48.81,48.81,0,0,0,5.191.278,47.995,47.995,0,0,0,37.257-78.131Zm2.494,34.394a40.067,40.067,0,1,1-8.657-29.421A39.807,39.807,0,0,1,276.513,188.979Z" transform="translate(-159.257 -133.347)" fill="#263238"/>
            <path id="Trazado_118316" data-name="Trazado 118316" d="M269.75,150.432a47.99,47.99,0,0,0-85.066,25.035h0a47.958,47.958,0,0,0,16.2,41.251l-42.516,49.7,6.444,5.155,42.454-50.133a47.7,47.7,0,0,0,20.034,6.844,48.84,48.84,0,0,0,5.191.278,47.994,47.994,0,0,0,37.257-78.131Zm2.495,34.394a40.068,40.068,0,1,1-8.658-29.421A39.808,39.808,0,0,1,272.244,184.826Z" transform="translate(-158.369 -132.576)" fill="#455a64"/>
          </g>
          <g id="Grupo_84456" data-name="Grupo 84456" transform="translate(43.561 30.184)">
            <path id="Trazado_118317" data-name="Trazado 118317" d="M220.564,213.454a2.011,2.011,0,0,1-.317-.353c-.191-.243-.492-.59-.833-1.071a36.469,36.469,0,0,1-2.675-4.215,39.694,39.694,0,0,1-2.716-31.967,36.571,36.571,0,0,1,1.925-4.605c.255-.532.493-.924.641-1.2a1.931,1.931,0,0,1,.252-.4,1.986,1.986,0,0,1-.177.44c-.123.284-.336.688-.568,1.228a43.583,43.583,0,0,0-1.789,4.629,40.776,40.776,0,0,0,2.7,31.731,43.384,43.384,0,0,0,2.545,4.262c.318.493.6.855.766,1.115A1.99,1.99,0,0,1,220.564,213.454Z" transform="translate(-211.87 -169.647)" fill="#263238"/>
          </g>
          <g id="Grupo_84457" data-name="Grupo 84457" transform="translate(52.398 24.697)">
            <path id="Trazado_118318" data-name="Trazado 118318" d="M224.584,162.923c.071.1-.419.554-.906,1.2s-.809,1.225-.923,1.183.048-.746.586-1.441S224.523,162.829,224.584,162.923Z" transform="translate(-222.724 -162.908)" fill="#263238"/>
          </g>
        </g>
        <g id="Grupo_84480" data-name="Grupo 84480" transform="translate(17.027 55.712)">
          <g id="Grupo_84460" data-name="Grupo 84460" transform="translate(41.711 13.488)">
            <g id="Grupo_84459" data-name="Grupo 84459">
              <path id="Trazado_118319" data-name="Trazado 118319" d="M173.155,217.567a6.012,6.012,0,0,1,.3,1.124c.164.73.379,1.789.624,3.1.493,2.625,1.086,6.27,1.587,10.316s.81,7.728.971,10.4c.081,1.333.13,2.413.148,3.16a6.124,6.124,0,0,1-.012,1.162,6.068,6.068,0,0,1-.152-1.152c-.074-.823-.169-1.88-.283-3.148-.237-2.657-.594-6.325-1.092-10.365s-1.045-7.682-1.462-10.318c-.2-1.257-.363-2.305-.492-3.122A6.182,6.182,0,0,1,173.155,217.567Z" transform="translate(-173.147 -217.567)" fill="#263238"/>
            </g>
          </g>
          <g id="Grupo_84462" data-name="Grupo 84462" transform="translate(3.398 25.684)">
            <g id="Grupo_84461" data-name="Grupo 84461">
              <path id="Trazado_118320" data-name="Trazado 118320" d="M186.883,260.345s-45.569,20.445-53.766.758c-8.351-20.055-6.933-24.309-6.933-24.309l12.707-4.249s8.849,20.928,11.126,21.135c12.615,1.15,26.112-3.032,30.845-4.686.48-.539,1.029-1.187,1.64-1.98.524-.681,1.069-1.661,1.606-2.333,1.2-1.507,2.156-1.759,2.682-2.353,1.259-1.423,2.408-.384,1.861.383a13.721,13.721,0,0,0-3.145,4.458c-1.245,2.908,3.192,1.479,4.946,1.018,1.94-.511,5.584-1.926,5.584-1.926.085.854-.881,2.573-2.52,3.348a26.02,26.02,0,0,1-2.73,1.136s3.368-.409,3.458.358-1,6.447-4.581,8.134Z" transform="translate(-126.092 -232.545)" fill="#ffbe9d"/>
            </g>
          </g>
          <path id="Trazado_118321" data-name="Trazado 118321" d="M135.153,210.139l8.185,24.73-17.916,7.082s-9.347-24.285,2.49-30.231Z" transform="translate(-121.918 -202.699)" fill="#ebebeb"/>
          <g id="Grupo_84469" data-name="Grupo 84469" transform="translate(3.46 3.796)">
            <g id="Grupo_84463" data-name="Grupo 84463" transform="translate(4.97)">
              <path id="Trazado_118322" data-name="Trazado 118322" d="M146.453,233.074c-.009.007-.1-.064-.243-.231a4.557,4.557,0,0,1-.537-.8,27.209,27.209,0,0,1-1.292-3.254c-1-2.772-2.362-6.61-3.838-10.857l-2.065-5.994a14.884,14.884,0,0,0-2.066-4.649,3.775,3.775,0,0,0-2.927-1.454,3.7,3.7,0,0,0-1.214.291c-.007-.01.081-.086.274-.193a2.406,2.406,0,0,1,.931-.263,3.881,3.881,0,0,1,3.165,1.426,14.558,14.558,0,0,1,2.207,4.715c.646,1.847,1.354,3.865,2.1,5.983,1.476,4.248,2.789,8.1,3.72,10.9.475,1.4.8,2.545,1.157,3.278S146.483,233.05,146.453,233.074Z" transform="translate(-132.272 -205.663)" fill="#263238"/>
            </g>
            <g id="Grupo_84464" data-name="Grupo 84464" transform="translate(0 27.869)">
              <path id="Trazado_118323" data-name="Trazado 118323" d="M144.939,239.895a2.93,2.93,0,0,1-.678.425c-.449.251-1.107.594-1.93,1-1.645.817-3.951,1.876-6.549,2.925s-5,1.886-6.746,2.439c-.875.277-1.588.488-2.084.619a2.954,2.954,0,0,1-.783.164,23.683,23.683,0,0,1,2.771-1.067c1.722-.625,4.093-1.5,6.685-2.548s4.906-2.057,6.58-2.8A23.924,23.924,0,0,1,144.939,239.895Z" transform="translate(-126.168 -239.891)" fill="#263238"/>
            </g>
            <g id="Grupo_84465" data-name="Grupo 84465" transform="translate(1.508 30.865)">
              <path id="Trazado_118324" data-name="Trazado 118324" d="M129.5,247.25a9.309,9.309,0,0,1-1.45-3.679,9.322,9.322,0,0,1,1.45,3.679Z" transform="translate(-128.019 -243.57)" fill="#263238"/>
            </g>
            <g id="Grupo_84466" data-name="Grupo 84466" transform="translate(5.444 29.539)">
              <path id="Trazado_118325" data-name="Trazado 118325" d="M134.176,245.493c-.1.055-.6-.66-.953-1.663a3.453,3.453,0,0,1-.32-1.889,20.335,20.335,0,0,1,1.273,3.552Z" transform="translate(-132.854 -241.941)" fill="#263238"/>
            </g>
            <g id="Grupo_84467" data-name="Grupo 84467" transform="translate(9.326 27.706)">
              <path id="Trazado_118326" data-name="Trazado 118326" d="M139.031,243.356a5.5,5.5,0,0,1-1.361-3.666,29.532,29.532,0,0,1,1.361,3.666Z" transform="translate(-137.622 -239.69)" fill="#263238"/>
            </g>
            <g id="Grupo_84468" data-name="Grupo 84468" transform="translate(13.725 25.755)">
              <path id="Trazado_118327" data-name="Trazado 118327" d="M144.278,241.2a9.94,9.94,0,0,1-1.22-3.9,9.951,9.951,0,0,1,1.22,3.9Z" transform="translate(-143.024 -237.295)" fill="#263238"/>
            </g>
          </g>
          <g id="Grupo_84474" data-name="Grupo 84474" transform="translate(45.108 32.864)">
            <g id="Grupo_84470" data-name="Grupo 84470" transform="translate(0 2.593)">
              <path id="Trazado_118328" data-name="Trazado 118328" d="M191.244,244.558a63.15,63.15,0,0,1-6.9,2.419,63.174,63.174,0,0,1-7.027,2.015,63.185,63.185,0,0,1,6.9-2.419A63.152,63.152,0,0,1,191.244,244.558Z" transform="translate(-177.319 -244.549)" fill="#263238"/>
            </g>
            <g id="Grupo_84471" data-name="Grupo 84471" transform="translate(1.77 2.636)">
              <path id="Trazado_118329" data-name="Trazado 118329" d="M180.734,247.442c-.108.046-.466-.552-.8-1.335s-.518-1.457-.41-1.5.466.552.8,1.336S180.841,247.4,180.734,247.442Z" transform="translate(-179.493 -244.602)" fill="#263238"/>
            </g>
            <g id="Grupo_84472" data-name="Grupo 84472" transform="translate(5.525 1.292)">
              <path id="Trazado_118330" data-name="Trazado 118330" d="M185.1,246.343c-.107.044-.493-.664-.752-1.617a3.212,3.212,0,0,1-.177-1.774c.118-.019.331.737.585,1.663A4.776,4.776,0,0,1,185.1,246.343Z" transform="translate(-184.104 -242.952)" fill="#263238"/>
            </g>
            <g id="Grupo_84473" data-name="Grupo 84473" transform="translate(9.518)">
              <path id="Trazado_118331" data-name="Trazado 118331" d="M189.775,244.842a7.534,7.534,0,0,1-.71-3.477,7.54,7.54,0,0,1,.71,3.477Z" transform="translate(-189.009 -241.364)" fill="#263238"/>
            </g>
          </g>
          <g id="Grupo_84475" data-name="Grupo 84475" transform="translate(18.004)">
            <path id="Trazado_118332" data-name="Trazado 118332" d="M144.183,202.989c-.117-.009-.181-.46-.142-1.009s.165-.988.282-.979.18.46.142,1.009S144.3,203,144.183,202.989Z" transform="translate(-144.03 -201.001)" fill="#263238"/>
          </g>
          <g id="Grupo_84476" data-name="Grupo 84476" transform="translate(21.614 0.216)">
            <path id="Trazado_118333" data-name="Trazado 118333" d="M148.72,203.253c-.117,0-.23-.436-.252-.984s.055-1,.172-1,.23.436.252.985S148.837,203.249,148.72,203.253Z" transform="translate(-148.464 -201.266)" fill="#263238"/>
          </g>
          <g id="Grupo_84477" data-name="Grupo 84477" transform="translate(24.535 0.641)">
            <path id="Trazado_118334" data-name="Trazado 118334" d="M152.256,203.846c-.117,0-.208-.462-.2-1.031s.1-1.028.221-1.028.208.462.2,1.031S152.373,203.847,152.256,203.846Z" transform="translate(-152.052 -201.788)" fill="#263238"/>
          </g>
          <g id="Grupo_84478" data-name="Grupo 84478" transform="translate(28.252 0.711)">
            <path id="Trazado_118335" data-name="Trazado 118335" d="M156.981,204.289c-.11.029-.343-.5-.362-1.2s.178-1.24.29-1.217.112.558.134,1.2S157.1,204.26,156.981,204.289Z" transform="translate(-156.617 -201.874)" fill="#263238"/>
          </g>
          <g id="Grupo_84479" data-name="Grupo 84479" transform="translate(31.409 0.712)">
            <path id="Trazado_118336" data-name="Trazado 118336" d="M160.894,204.289c-.116.014-.275-.515-.355-1.181s-.05-1.217.067-1.232.274.515.354,1.181S161.01,204.275,160.894,204.289Z" transform="translate(-160.494 -201.876)" fill="#263238"/>
          </g>
        </g>
      </g>
    </g>
  </g>
</svg>
