<svg xmlns="http://www.w3.org/2000/svg" xmlns:xlink="http://www.w3.org/1999/xlink" width="59" height="59" viewBox="0 0 59 59">
  <defs>
    <clipPath id="clip-path">
      <rect id="Rect치ngulo_33951" data-name="Rect치ngulo 33951" width="59" height="59" transform="translate(1166 -9054)" fill="#01f6ff"/>
    </clipPath>
  </defs>
  <g id="Enmascarar_grupo_103" data-name="Enmascarar grupo 103" transform="translate(-1166 9054)" clip-path="url(#clip-path)">
    <g id="idea-de-negocio" transform="translate(1166 -9053.998)">
      <path id="Trazado_118151" data-name="Trazado 118151" d="M5.9,58.012A4.916,4.916,0,0,1,.983,53.1V20.648A1.972,1.972,0,0,1,2.95,18.682H16.883a1.972,1.972,0,0,1,1.4.58l2.773,2.773a1.972,1.972,0,0,0,1.4.58H34.414v5.9l-23.6,29.5Z" fill="#4e98ec"/>
      <path id="Trazado_118152" data-name="Trazado 118152" d="M46.213,28.515V53.1A4.916,4.916,0,0,1,41.3,58.012H5.9A4.9,4.9,0,0,0,10.816,53.1V30.481a1.972,1.972,0,0,1,1.967-1.967Z" fill="#67acf6"/>
      <rect id="Rect치ngulo_34136" data-name="Rect치ngulo 34136" width="13.766" height="7.866" rx="0.983" transform="translate(14.749 32.448)" fill="#f1f3f5"/>
      <path id="Trazado_118153" data-name="Trazado 118153" d="M49.163,39.33V36.941a12.192,12.192,0,0,1,3.943-8.81,15.732,15.732,0,1,0-21.651,0,12.192,12.192,0,0,1,3.943,8.81V39.33Z" fill="#fcd576"/>
      <path id="Trazado_118154" data-name="Trazado 118154" d="M51.129,39.33A1.972,1.972,0,0,1,49.163,41.3H48.18v1.967h-11.8V41.3H35.4a1.967,1.967,0,1,1,0-3.933H49.163a1.981,1.981,0,0,1,1.967,1.967Z" fill="#cfd2da"/>
      <path id="Trazado_118155" data-name="Trazado 118155" d="M50.146,43.263A1.972,1.972,0,0,1,48.18,45.23H46.213V47.2H38.347V45.23H36.381a1.967,1.967,0,1,1,0-3.933h11.8a1.981,1.981,0,0,1,1.967,1.967Z" fill="#bdc2cc"/>
      <path id="Trazado_118156" data-name="Trazado 118156" d="M46.213,45.23a1.967,1.967,0,0,1,0,3.933H38.347a1.967,1.967,0,0,1,0-3.933Z" fill="#cfd2da"/>
      <g id="Grupo_84134" data-name="Grupo 84134">
        <path id="Trazado_118157" data-name="Trazado 118157" d="M29.5,39.33v-5.9a1.967,1.967,0,0,0-1.967-1.967h-11.8a1.967,1.967,0,0,0-1.967,1.967v5.9A1.967,1.967,0,0,0,15.732,41.3h11.8A1.967,1.967,0,0,0,29.5,39.33Zm-13.766,0v-5.9h11.8v5.9Z" fill="#373737"/>
        <path id="Trazado_118158" data-name="Trazado 118158" d="M42.28,0A16.693,16.693,0,0,0,26.312,21.632H22.448a.983.983,0,0,1-.7-.295l-2.773-2.773a2.935,2.935,0,0,0-2.091-.865H2.95A2.95,2.95,0,0,0,0,20.648V53.1A5.905,5.905,0,0,0,5.9,59H41.3a5.905,5.905,0,0,0,5.9-5.9.983.983,0,0,0-1.967,0A3.933,3.933,0,0,1,41.3,57.029h-31A5.885,5.885,0,0,0,11.8,53.1V30.481a.983.983,0,0,1,.983-.983H31.406a11.031,11.031,0,0,1,2.987,7.067,2.805,2.805,0,0,0-1.068.675,2.888,2.888,0,0,0-.878,2.091,2.95,2.95,0,0,0,1.377,2.487,2.9,2.9,0,0,0-.393,1.446A2.944,2.944,0,0,0,35.612,46.1a2.95,2.95,0,0,0,2.735,4.048h7.866A2.95,2.95,0,0,0,48.951,46.1a2.95,2.95,0,0,0,2.179-2.835,2.908,2.908,0,0,0-.393-1.447,2.935,2.935,0,0,0-.569-5.251,11.18,11.18,0,0,1,3.617-7.72A16.715,16.715,0,0,0,42.28,0ZM9.833,30.481V53.1a3.933,3.933,0,0,1-7.866,0V20.648a.983.983,0,0,1,.983-.983H16.883a.983.983,0,0,1,.7.295l2.773,2.773a2.935,2.935,0,0,0,2.091.865h4.621a16.683,16.683,0,0,0,2.476,3.933H12.782a2.95,2.95,0,0,0-2.95,2.95ZM44.247,29.5v6.883H40.314V29.5Zm4.916,8.849a.961.961,0,0,1,.7.3.943.943,0,0,1,.282.681.983.983,0,0,1-.983.983H35.4a.983.983,0,0,1-.983-.983.961.961,0,0,1,.3-.7.943.943,0,0,1,.681-.282Zm-2.95,9.833H38.347a.983.983,0,0,1-.983-.983.961.961,0,0,1,.3-.7.943.943,0,0,1,.681-.282h7.866a.961.961,0,0,1,.7.3.943.943,0,0,1,.282.681A.983.983,0,0,1,46.213,48.18Zm1.967-3.933h-11.8a.983.983,0,0,1-.983-.983.961.961,0,0,1,.3-.7.943.943,0,0,1,.681-.282h11.8a.961.961,0,0,1,.7.3.943.943,0,0,1,.282.681A.983.983,0,0,1,48.18,44.247Zm4.25-16.828a13.132,13.132,0,0,0-4.22,8.962h-2V29.5a2.95,2.95,0,1,0,0-5.9.983.983,0,1,0,0,1.967.983.983,0,1,1,0,1.967H38.347a.983.983,0,1,1,0-1.967.983.983,0,0,0,0-1.967,2.95,2.95,0,1,0,0,5.9v6.883h-2a13.133,13.133,0,0,0-4.221-8.963,14.58,14.58,0,0,1-4.6-10.7,14.749,14.749,0,1,1,29.5,0,14.581,14.581,0,0,1-4.6,10.7Z" fill="#373737"/>
        <path id="Trazado_118159" data-name="Trazado 118159" d="M28.515,44.247a.983.983,0,0,0-.983-.983h-11.8a.983.983,0,1,0,0,1.967h11.8A.983.983,0,0,0,28.515,44.247Z" fill="#373737"/>
        <path id="Trazado_118160" data-name="Trazado 118160" d="M15.732,47.2a.983.983,0,1,0,0,1.967h6.883a.983.983,0,1,0,0-1.967Z" fill="#373737"/>
        <path id="Trazado_118161" data-name="Trazado 118161" d="M42.28,3.933c-.358,0-.714.015-1.064.044A.984.984,0,0,0,41.3,5.944a.787.787,0,0,0,.083,0c.295-.024.6-.036.9-.036a.983.983,0,0,0,0-1.967Z" fill="#373737"/>
        <path id="Trazado_118162" data-name="Trazado 118162" d="M36.953,5.1A12.832,12.832,0,0,0,29.5,16.715a.983.983,0,1,0,1.967,0,10.862,10.862,0,0,1,6.311-9.833A.983.983,0,0,0,36.953,5.1Z" fill="#373737"/>
      </g>
    </g>
  </g>
</svg>
