<svg xmlns="http://www.w3.org/2000/svg" xmlns:xlink="http://www.w3.org/1999/xlink" width="56" height="56" viewBox="0 0 56 56">
  <defs>
    <clipPath id="clip-path">
      <rect id="Rectángulo_34025" data-name="Rectángulo 34025" width="56" height="56" transform="translate(1071 1517)" fill="#fff" stroke="#707070" stroke-width="1"/>
    </clipPath>
  </defs>
  <g id="Enmascarar_grupo_82" data-name="Enmascarar grupo 82" transform="translate(-1071 -1517)" clip-path="url(#clip-path)">
    <g id="colegio" transform="translate(1071 1517)">
      <g id="Grupo_83990" data-name="Grupo 83990">
        <path id="Trazado_117775" data-name="Trazado 117775" d="M28,3.889h6.137V8.273H28Z" fill="#ff8086"/>
        <path id="Trazado_117776" data-name="Trazado 117776" d="M28,3.889h2.63V8.273H28Z" fill="#e5646e"/>
        <path id="Trazado_117777" data-name="Trazado 117777" d="M51.672,19.671H4.327L.82,27.562H55.18Z" fill="#ff8086"/>
        <path id="Trazado_117778" data-name="Trazado 117778" d="M1.989,24.931.82,27.562H55.18l-1.169-2.63Z" fill="#e5646e"/>
        <path id="Trazado_117779" data-name="Trazado 117779" d="M53.426,52.111H2.574V27.562h11.4L28,13.533,42.028,27.562h11.4Z" fill="#ffc269"/>
        <path id="Trazado_117780" data-name="Trazado 117780" d="M22.739,40.713H33.261v9.644H22.739Z" fill="#c38c66"/>
        <circle id="Elipse_4821" data-name="Elipse 4821" cx="5.261" cy="5.261" r="5.261" transform="translate(22.739 24.054)" fill="#fff0af"/>
        <circle id="Elipse_4822" data-name="Elipse 4822" cx="2.63" cy="2.63" r="2.63" transform="translate(25.37 26.685)" fill="#fff"/>
        <path id="Trazado_117781" data-name="Trazado 117781" d="M20.986,48.6H35.014v3.507H20.986Z" fill="#c8c5c9"/>
        <path id="Trazado_117782" data-name="Trazado 117782" d="M42.028,27.562,28,13.533,13.972,27.562H2.574V52.111H5.2V31.945a1.754,1.754,0,0,1,1.753-1.753h6.781a3.507,3.507,0,0,0,2.493-1.041L28,17.253l11.768,11.9a3.507,3.507,0,0,0,2.493,1.041H53.426v-2.63Z" fill="#ffa95f"/>
        <path id="Trazado_117783" data-name="Trazado 117783" d="M37.644,31.945H49.919v5.261H37.644Z" fill="#edf4ff"/>
        <path id="Trazado_117784" data-name="Trazado 117784" d="M40.275,32.822v-.877h-2.63v5.261H49.919v-2.63H42.028A1.754,1.754,0,0,1,40.275,32.822Z" fill="#dbeaff"/>
        <path id="Trazado_117785" data-name="Trazado 117785" d="M37.644,40.713H49.919v5.261H37.644Z" fill="#edf4ff"/>
        <path id="Trazado_117786" data-name="Trazado 117786" d="M40.275,41.59v-.877h-2.63v5.261H49.919v-2.63H42.028A1.754,1.754,0,0,1,40.275,41.59Z" fill="#dbeaff"/>
        <path id="Trazado_117787" data-name="Trazado 117787" d="M6.081,31.945H18.356v5.261H6.081Z" fill="#edf4ff"/>
        <path id="Trazado_117788" data-name="Trazado 117788" d="M8.711,32.822v-.877H6.081v5.261H18.356v-2.63H10.465A1.754,1.754,0,0,1,8.711,32.822Z" fill="#dbeaff"/>
        <path id="Trazado_117789" data-name="Trazado 117789" d="M6.081,40.713H18.356v3.73H6.081Z" fill="#edf4ff"/>
        <path id="Trazado_117790" data-name="Trazado 117790" d="M8.711,41.59v-.877H6.081v5.261H18.356v-2.63H10.465A1.754,1.754,0,0,1,8.711,41.59Z" fill="#dbeaff"/>
      </g>
      <g id="Grupo_83991" data-name="Grupo 83991">
        <path id="Trazado_117791" data-name="Trazado 117791" d="M55.18,51.291h-.933V28.382h.933a.82.82,0,0,0,.75-1.153l-3.507-7.891a.82.82,0,0,0-.75-.487h-17.2L28.82,13.194v-4.1h5.317a.82.82,0,0,0,.82-.82V3.889a.82.82,0,0,0-.82-.82H28a.82.82,0,0,0-.82.82v9.3L21.523,18.85H4.327a.82.82,0,0,0-.75.487L.071,27.228a.82.82,0,0,0,.75,1.153h.933V51.291H.82a.82.82,0,0,0,0,1.641H55.18a.82.82,0,0,0,0-1.641ZM33.317,7.452h-4.5V4.709h4.5ZM4.86,20.491H19.882l-6.25,6.25H2.083ZM3.394,28.382H13.972a.82.82,0,0,0,.58-.24L28,14.693,41.448,28.142a.82.82,0,0,0,.58.24h6.137a.82.82,0,1,0,0-1.641h-5.8l-6.25-6.25H51.14l2.778,6.25H51.673a.82.82,0,1,0,0,1.641h.933V51.291H35.834V48.6a.82.82,0,0,0-.82-.82h-.933V40.713a.82.82,0,0,0-.82-.82H22.739a.82.82,0,0,0-.82.82v7.071h-.933a.82.82,0,0,0-.82.82v2.687H3.394ZM32.44,41.533v6.25H28.82v-6.25Zm-5.261,6.25H23.56v-6.25h3.62Zm7.014,1.641v1.866H21.806V49.424Z"/>
        <path id="Trazado_117792" data-name="Trazado 117792" d="M28,35.4a6.081,6.081,0,1,0-6.081-6.081A6.088,6.088,0,0,0,28,35.4Zm0-10.521a4.44,4.44,0,1,1-4.44,4.44A4.445,4.445,0,0,1,28,24.875Z"/>
        <path id="Trazado_117793" data-name="Trazado 117793" d="M28,31.889a.82.82,0,0,0,.82-.82V29.822l1.3-.65a.82.82,0,1,0-.734-1.467l-1.753.877a.82.82,0,0,0-.453.734v1.753a.82.82,0,0,0,.82.82Z"/>
        <path id="Trazado_117794" data-name="Trazado 117794" d="M18.356,39.893H6.081a.82.82,0,0,0-.82.82v5.261a.82.82,0,0,0,.82.82H7.835a.82.82,0,1,0,0-1.641H6.9v-3.62h4.5v3.62h-.056a.82.82,0,1,0,0,1.641h7.014a.82.82,0,0,0,.82-.82V40.713A.82.82,0,0,0,18.356,39.893Zm-.82,5.261h-4.5v-3.62h4.5Z"/>
        <path id="Trazado_117795" data-name="Trazado 117795" d="M18.356,31.125H6.081a.82.82,0,0,0-.82.82v5.261a.82.82,0,0,0,.82.82H18.356a.82.82,0,0,0,.82-.82V31.945A.82.82,0,0,0,18.356,31.125ZM6.9,32.766h4.5v3.62H6.9Zm10.634,3.62h-4.5v-3.62h4.5Z"/>
        <path id="Trazado_117796" data-name="Trazado 117796" d="M37.644,46.794H49.919a.82.82,0,0,0,.82-.82V40.713a.82.82,0,0,0-.82-.82H37.644a.82.82,0,0,0-.82.82v5.261A.82.82,0,0,0,37.644,46.794ZM49.1,45.153H44.6v-3.62h4.5Zm-10.634-3.62h4.5v3.62h-4.5Z"/>
        <path id="Trazado_117797" data-name="Trazado 117797" d="M37.644,38.026H49.919a.82.82,0,0,0,.82-.82V31.945a.82.82,0,0,0-.82-.82H37.644a.82.82,0,0,0-.82.82v5.261A.82.82,0,0,0,37.644,38.026ZM49.1,36.386H44.6v-3.62h4.5Zm-10.634-3.62h4.5v3.62h-4.5Z"/>
      </g>
    </g>
  </g>
</svg>
