<svg xmlns="http://www.w3.org/2000/svg" width="240" height="373" viewBox="0 0 240 373">
  <g id="Grupo_80448" data-name="Grupo 80448" transform="translate(-680 -5217)">
    <rect id="Rectángulo_33775" data-name="Rectángulo 33775" width="240" height="373" transform="translate(680 5217)" fill="#cee284"/>
    <circle id="Elipse_4735" data-name="Elipse 4735" cx="119" cy="119" r="119" transform="translate(681 5268)" fill="#adce32"/>
    <g id="afro" transform="translate(607.646 5274)">
      <path id="Trazado_114092" data-name="Trazado 114092" d="M285.1,108.625a18.675,18.675,0,0,0,8.14-18.862c-1.255-7.73-6.854-13.443-13.589-14.7a19.363,19.363,0,0,0,1.709-20.749c-3.614-6.8-10.674-10.087-17.4-8.767a19.137,19.137,0,0,0-4.928-20.132,15.628,15.628,0,0,0-19.111-1.775c.029-7.422-4.18-14.4-10.971-17.087a15.851,15.851,0,0,0-18.517,5.431C208.125,5,201.972,0,194.745,0s-13.38,5-15.69,11.981a15.851,15.851,0,0,0-18.517-5.431c-6.792,2.685-11,9.665-10.971,17.087a15.628,15.628,0,0,0-19.111,1.775,19.137,19.137,0,0,0-4.928,20.132c-6.725-1.32-13.785,1.969-17.4,8.767a19.363,19.363,0,0,0,1.709,20.749c-6.735,1.258-12.334,6.971-13.589,14.7a18.675,18.675,0,0,0,8.14,18.862,18.675,18.675,0,0,0-8.14,18.862c1.255,7.73,6.854,13.443,13.589,14.7a19.363,19.363,0,0,0-1.709,20.749c3.614,6.8,10.674,10.087,17.4,8.767a19.136,19.136,0,0,0,4.928,20.132,15.628,15.628,0,0,0,19.111,1.775c-.029,7.422,4.18,14.4,10.971,17.087a15.851,15.851,0,0,0,18.517-5.431c2.311,6.985,8.463,11.981,15.69,11.981s13.38-5,15.69-11.981a15.851,15.851,0,0,0,18.517,5.431c6.792-2.685,11-9.665,10.971-17.087a15.628,15.628,0,0,0,19.111-1.775,19.137,19.137,0,0,0,4.928-20.132c6.725,1.32,13.785-1.969,17.4-8.767a19.361,19.361,0,0,0-1.709-20.749c6.735-1.258,12.334-6.971,13.589-14.7a18.673,18.673,0,0,0-8.139-18.862Z" transform="translate(-2.159)" fill="#7a6d79"/>
      <path id="Trazado_114093" data-name="Trazado 114093" d="M168.641,196.994a15.628,15.628,0,0,1-19.111-1.775,19.137,19.137,0,0,1-4.928-20.132c-6.725,1.32-13.785-1.969-17.4-8.767a19.363,19.363,0,0,1,1.709-20.749c-6.735-1.258-12.334-6.971-13.589-14.7a18.675,18.675,0,0,1,8.14-18.862,18.675,18.675,0,0,1-8.14-18.862c1.255-7.73,6.853-13.443,13.589-14.7A19.363,19.363,0,0,1,127.2,57.7c3.614-6.8,10.674-10.087,17.4-8.767A19.136,19.136,0,0,1,149.531,28.8a15.628,15.628,0,0,1,19.111-1.775A18.654,18.654,0,0,1,175.773,12.1a15.547,15.547,0,0,0-15.235-2.161c-6.792,2.685-11,9.665-10.971,17.087A15.628,15.628,0,0,0,130.456,28.8a19.137,19.137,0,0,0-4.928,20.132c-6.725-1.32-13.785,1.969-17.4,8.767a19.363,19.363,0,0,0,1.709,20.749C103.1,79.7,97.5,85.415,96.248,93.145a18.675,18.675,0,0,0,8.14,18.862,18.675,18.675,0,0,0-8.14,18.862c1.255,7.73,6.854,13.443,13.589,14.7a19.363,19.363,0,0,0-1.709,20.749c3.614,6.8,10.674,10.087,17.4,8.767a19.136,19.136,0,0,0,4.928,20.132,15.628,15.628,0,0,0,19.111,1.775c-.029,7.422,4.18,14.4,10.971,17.087a15.55,15.55,0,0,0,15.235-2.161,18.654,18.654,0,0,1-7.132-14.926Z" transform="translate(-2.159 -3.383)" fill="#685e68"/>
      <path id="Trazado_114094" data-name="Trazado 114094" d="M265.209,320.438l-21.575-1.021-23.163-14.281v-46.47H164.706v46.47l-21.1,13.576-23.638,1.727a43.786,43.786,0,0,0-29.614,41.429v48.7a4.451,4.451,0,0,0,4.451,4.451h28.659l32.815-6.358,36.31,6.358,36.31-6.358,32.815,6.358h28.66a4.451,4.451,0,0,0,4.451-4.451v-48.7a43.786,43.786,0,0,0-29.614-41.429Z" transform="translate(0 -99.02)" fill="#bb5d4c"/>
      <path id="Trazado_114095" data-name="Trazado 114095" d="M229.339,302.66v-44H210.823v46.47L238.706,415.02l9.258-36.486-18.016-71A19.807,19.807,0,0,1,229.339,302.66Z" transform="translate(-46.118 -99.02)" fill="#a44f3e"/>
      <path id="Trazado_114096" data-name="Trazado 114096" d="M183.075,333.958l27.882,109.885H141.832s12.06-53.725-3.5-94.582Z" transform="translate(-18.369 -127.844)" fill="#57be92"/>
      <path id="Trazado_114097" data-name="Trazado 114097" d="M90.353,400.181v48.7a4.451,4.451,0,0,0,4.451,4.451h27.34V400.18A43.708,43.708,0,0,1,126,382.212a116.251,116.251,0,0,0-6.031-23.461A43.788,43.788,0,0,0,90.353,400.181Z" transform="translate(0 -137.335)" fill="#a44f3e"/>
      <path id="Trazado_114098" data-name="Trazado 114098" d="M138.336,349.261a116.22,116.22,0,0,1,6.031,23.461,43.776,43.776,0,0,1,25.76-23.461l15.486-5.3-2.539-10.006Z" transform="translate(-18.369 -127.844)" fill="#22b27f"/>
      <path id="Trazado_114099" data-name="Trazado 114099" d="M283.883,333.958,256,443.843h69.125s-12.06-53.725,3.5-94.582Z" transform="translate(-63.412 -127.844)" fill="#57be92"/>
      <path id="Trazado_114100" data-name="Trazado 114100" d="M171.638,163.976H156.367A12.368,12.368,0,0,0,144,176.344v9.267a12.368,12.368,0,0,0,12.368,12.368h15.272Z" transform="translate(-20.536 -62.772)" fill="#bb5d4c"/>
      <path id="Trazado_114101" data-name="Trazado 114101" d="M323.218,163.976H338.49a12.368,12.368,0,0,1,12.368,12.368v9.267a12.368,12.368,0,0,1-12.368,12.368H323.218Z" transform="translate(-89.144 -62.772)" fill="#bb5d4c"/>
      <path id="Trazado_114102" data-name="Trazado 114102" d="M245.955,115.856a4.449,4.449,0,0,0-6.763-1.014,19.747,19.747,0,0,1-25.977-.209,4.452,4.452,0,0,0-6.9,1.252c-4.781,9.022-10.552,12.855-23.583,13.491a4.459,4.459,0,0,0-4.254,4.445v50.225a47.844,47.844,0,1,0,95.688,0V133.629a4.445,4.445,0,0,0-3.983-4.423c-13.027-1.337-20.484-6.943-24.231-13.35Z" transform="translate(-33.736 -43.452)" fill="#d78878"/>
      <path id="Trazado_114103" data-name="Trazado 114103" d="M197.555,184.04V138.5a9.5,9.5,0,0,1,8.328-9.459c8.611-1.025,13.54-3.967,17.421-9.663a19.679,19.679,0,0,1-10.121-4.776,4.442,4.442,0,0,0-6.867,1.284c-4.781,9.02-10.551,12.851-23.581,13.487a4.459,4.459,0,0,0-4.254,4.445v50.225a47.885,47.885,0,0,0,57.382,46.893A47.86,47.86,0,0,1,197.555,184.04Z" transform="translate(-33.737 -43.446)" fill="#ca6e59"/>
      <path id="Trazado_114104" data-name="Trazado 114104" d="M228.9,242.549a16.728,16.728,0,1,0,33.455,0,4.768,4.768,0,1,0-9.537,0,7.19,7.19,0,0,1-14.38,0,4.769,4.769,0,0,0-9.538,0Z" transform="translate(-53.037 -91.026)" fill="#a44f3e"/>
      <g id="Grupo_80443" data-name="Grupo 80443" transform="translate(162.713 93.982)">
        <path id="Trazado_114105" data-name="Trazado 114105" d="M225.131,184.273a4.768,4.768,0,0,0-9.537,0v6.259a4.768,4.768,0,0,0,9.537,0Z" transform="translate(-210.657 -162.699)" fill="#6d3326"/>
        <path id="Trazado_114106" data-name="Trazado 114106" d="M286.931,179.5a4.768,4.768,0,0,0-4.768,4.768v6.259a4.768,4.768,0,1,0,9.537,0v-6.259A4.769,4.769,0,0,0,286.931,179.5Z" transform="translate(-236.14 -162.699)" fill="#6d3326"/>
        <path id="Trazado_114107" data-name="Trazado 114107" d="M212.362,161.812h9.875a4.768,4.768,0,1,0,0-9.537h-9.875a4.768,4.768,0,1,0,0,9.537Z" transform="translate(-207.594 -152.275)" fill="#6d3326"/>
        <path id="Trazado_114108" data-name="Trazado 114108" d="M277.722,161.812H287.6a4.768,4.768,0,1,0,0-9.537h-9.875a4.768,4.768,0,1,0,0,9.537Z" transform="translate(-232.615 -152.275)" fill="#6d3326"/>
      </g>
    </g>
  </g>
</svg>
