<svg xmlns="http://www.w3.org/2000/svg" xmlns:xlink="http://www.w3.org/1999/xlink" width="56" height="56" viewBox="0 0 56 56">
  <defs>
    <clipPath id="clip-path">
      <rect id="Rectángulo_34024" data-name="Rectángulo 34024" width="56" height="56" transform="translate(822 1517)" fill="#fff" stroke="#707070" stroke-width="1"/>
    </clipPath>
  </defs>
  <g id="Enmascarar_grupo_81" data-name="Enmascarar grupo 81" transform="translate(-822 -1517)" clip-path="url(#clip-path)">
    <g id="colega" transform="translate(822 1517)">
      <path id="Trazado_117740" data-name="Trazado 117740" d="M37.032,4.516V8.129l-6.022,3.613,2.409-7.226Z" fill="#fccc86"/>
      <path id="Trazado_117741" data-name="Trazado 117741" d="M33.419,4.516v7.226L18.968,8.129V4.516Z" fill="#fee3ac"/>
      <path id="Trazado_117742" data-name="Trazado 117742" d="M21.376,20.172,18.968,55.1H15.355L12.946,20.172Z" fill="#f9a167"/>
      <path id="Trazado_117743" data-name="Trazado 117743" d="M.9,22.581V55.1H15.355V20.172Z" fill="#fccc86"/>
      <path id="Trazado_117744" data-name="Trazado 117744" d="M55.1,22.581V55.1H51.484L49.075,20.172Z" fill="#f9a167"/>
      <path id="Trazado_117745" data-name="Trazado 117745" d="M34.624,20.172,37.032,55.1H51.484V20.172Z" fill="#fccc86"/>
      <path id="Trazado_117746" data-name="Trazado 117746" d="M55.1,15.355v7.226H51.484l-1.806-3.613,1.806-3.613Z" fill="#555970"/>
      <rect id="Rectángulo_34035" data-name="Rectángulo 34035" width="16.86" height="7.226" transform="translate(34.624 15.355)" fill="#5475ac"/>
      <path id="Trazado_117747" data-name="Trazado 117747" d="M37.032,8.129v9.634H31.011l2.409-9.634Z" fill="#f9a167"/>
      <rect id="Rectángulo_34036" data-name="Rectángulo 34036" width="14.452" height="9.634" transform="translate(18.968 8.129)" fill="#fccc86"/>
      <path id="Trazado_117748" data-name="Trazado 117748" d="M21.376,15.355v7.226H15.355l-1.806-3.613,1.806-3.613Z" fill="#555970"/>
      <rect id="Rectángulo_34037" data-name="Rectángulo 34037" width="14.452" height="7.226" transform="translate(0.903 15.355)" fill="#5475ac"/>
      <path id="Trazado_117749" data-name="Trazado 117749" d="M37.032,15.355V55.1H33.419L25.591,35.226l7.828-19.871Z" fill="#fee3ac"/>
      <path id="Trazado_117750" data-name="Trazado 117750" d="M33.419,15.355v28.9L22.581,55.1H18.968V15.355Z" fill="#fffbd2"/>
      <path id="Trazado_117751" data-name="Trazado 117751" d="M33.419,44.258V55.1H29.806L27.4,41.849Z" fill="#867069"/>
      <path id="Trazado_117752" data-name="Trazado 117752" d="M29.806,41.849V55.1H22.581V44.258Z" fill="#988680"/>
      <path id="Trazado_117753" data-name="Trazado 117753" d="M33.419,44.258H29.806L28,35.98A9.033,9.033,0,0,1,33.419,44.258Z" fill="#f9a167"/>
      <path id="Trazado_117754" data-name="Trazado 117754" d="M28,35.98c1.063,1.393,1.806,4.575,1.806,8.278H22.581A9.033,9.033,0,0,1,28,35.98Z" fill="#fccc86"/>
      <path id="Trazado_117755" data-name="Trazado 117755" d="M15.355,26.194v3.613L8.129,33.419l3.613-7.226Z" fill="#9bc5ff"/>
      <g id="Grupo_83986" data-name="Grupo 83986">
        <path id="Trazado_117756" data-name="Trazado 117756" d="M11.742,26.194v7.226L4.516,29.806V26.194Z" fill="#cde2ff"/>
        <path id="Trazado_117757" data-name="Trazado 117757" d="M15.355,29.806v7.226H11.742L9.936,33.419l1.806-3.613Z" fill="#cde2ff"/>
      </g>
      <rect id="Rectángulo_34038" data-name="Rectángulo 34038" width="7.226" height="7.226" transform="translate(4.516 29.806)" fill="#fff"/>
      <path id="Trazado_117758" data-name="Trazado 117758" d="M51.484,26.194v3.613l-7.226,3.613,3.613-7.226Z" fill="#9bc5ff"/>
      <g id="Grupo_83987" data-name="Grupo 83987">
        <path id="Trazado_117759" data-name="Trazado 117759" d="M47.871,26.194v7.226l-7.226-3.613V26.194Z" fill="#cde2ff"/>
        <path id="Trazado_117760" data-name="Trazado 117760" d="M51.484,29.806v7.226H47.871l-1.806-3.613,1.806-3.613Z" fill="#cde2ff"/>
      </g>
      <rect id="Rectángulo_34039" data-name="Rectángulo 34039" width="7.226" height="7.226" transform="translate(40.645 29.806)" fill="#fff"/>
      <path id="Trazado_117761" data-name="Trazado 117761" d="M15.355,40.645v3.613L8.129,47.871l3.613-7.226Z" fill="#9bc5ff"/>
      <g id="Grupo_83988" data-name="Grupo 83988">
        <path id="Trazado_117762" data-name="Trazado 117762" d="M11.742,40.645v7.226L4.516,44.258V40.645Z" fill="#cde2ff"/>
        <path id="Trazado_117763" data-name="Trazado 117763" d="M15.355,44.258v7.226H11.742L9.936,47.871l1.806-3.613Z" fill="#cde2ff"/>
      </g>
      <rect id="Rectángulo_34040" data-name="Rectángulo 34040" width="7.226" height="7.226" transform="translate(4.516 44.258)" fill="#fff"/>
      <path id="Trazado_117764" data-name="Trazado 117764" d="M51.484,40.645v3.613l-7.226,3.613,3.613-7.226Z" fill="#9bc5ff"/>
      <g id="Grupo_83989" data-name="Grupo 83989">
        <path id="Trazado_117765" data-name="Trazado 117765" d="M47.871,40.645v7.226l-7.226-3.613V40.645Z" fill="#cde2ff"/>
        <path id="Trazado_117766" data-name="Trazado 117766" d="M51.484,44.258v7.226H47.871l-1.806-3.613,1.806-3.613Z" fill="#cde2ff"/>
      </g>
      <rect id="Rectángulo_34041" data-name="Rectángulo 34041" width="7.226" height="7.226" transform="translate(40.645 44.258)" fill="#fff"/>
      <path id="Trazado_117767" data-name="Trazado 117767" d="M28,18.968V29.806a5.419,5.419,0,0,0,0-10.839Z" fill="#e6f1ff"/>
      <path id="Trazado_117768" data-name="Trazado 117768" d="M28,18.968c1,0,1.806,2.427,1.806,5.419S29,29.806,28,29.806a5.419,5.419,0,1,1,0-10.839Z" fill="#fff"/>
      <path id="Trazado_117769" data-name="Trazado 117769" d="M15.355,25.29H4.516a.9.9,0,0,0-.9.9V37.032a.9.9,0,0,0,.9.9H15.355a.9.9,0,0,0,.9-.9V26.194A.9.9,0,0,0,15.355,25.29Zm-.9,1.806V28.9H5.419V27.1h9.032ZM10.839,30.71v5.419H9.032V30.71Zm-5.419,0H7.226v5.419H5.419Zm7.226,5.419V30.71h1.806v5.419Z"/>
      <path id="Trazado_117770" data-name="Trazado 117770" d="M51.484,25.29H40.645a.9.9,0,0,0-.9.9V37.032a.9.9,0,0,0,.9.9H51.484a.9.9,0,0,0,.9-.9V26.194A.9.9,0,0,0,51.484,25.29Zm-.9,1.806V28.9H41.548V27.1h9.032ZM46.968,30.71v5.419H45.161V30.71Zm-5.419,0h1.806v5.419H41.548Zm7.226,5.419V30.71h1.806v5.419Z"/>
      <path id="Trazado_117771" data-name="Trazado 117771" d="M15.355,39.742H4.516a.9.9,0,0,0-.9.9V51.484a.9.9,0,0,0,.9.9H15.355a.9.9,0,0,0,.9-.9V40.645A.9.9,0,0,0,15.355,39.742Zm-.9,1.806v1.806H5.419V41.548Zm-3.613,3.613v5.419H9.032V45.161Zm-5.419,0H7.226v5.419H5.419Zm7.226,5.419V45.161h1.806v5.419Z"/>
      <path id="Trazado_117772" data-name="Trazado 117772" d="M51.484,39.742H40.645a.9.9,0,0,0-.9.9V51.484a.9.9,0,0,0,.9.9H51.484a.9.9,0,0,0,.9-.9V40.645A.9.9,0,0,0,51.484,39.742Zm-.9,1.806v1.806H41.548V41.548Zm-3.613,3.613v5.419H45.161V45.161Zm-5.419,0h1.806v5.419H41.548Zm7.226,5.419V45.161h1.806v5.419Z"/>
      <path id="Trazado_117773" data-name="Trazado 117773" d="M55.1,14.452H37.936V.9a.9.9,0,0,0-1.806,0v2.71H34.323V.9a.9.9,0,1,0-1.806,0v2.71H30.71V.9A.9.9,0,1,0,28.9.9v2.71H27.1V.9A.9.9,0,1,0,25.29.9v2.71H23.484V.9a.9.9,0,1,0-1.806,0v2.71H19.871V.9a.9.9,0,1,0-1.806,0V14.452H.9a.9.9,0,0,0-.9.9V55.1a.9.9,0,0,0,.9.9H55.1a.9.9,0,0,0,.9-.9V15.355A.9.9,0,0,0,55.1,14.452Zm-.9,1.806v5.419H37.936V16.258ZM36.129,5.419V7.226H19.871V5.419ZM19.871,9.032H36.129v5.419H28.9v-2.71a.9.9,0,1,0-1.806,0v2.71H19.871V9.032Zm-1.806,7.226v5.419H1.806V16.258Zm5.419,28.9h9.032v9.032H23.484Zm.051-1.806A8.134,8.134,0,0,1,28,36.976a8.134,8.134,0,0,1,4.465,6.379Zm14.4,10.839v-2.71a.9.9,0,0,0-1.806,0v2.71H34.323V44.258a9.939,9.939,0,0,0-5.961-9.106.9.9,0,0,0-.723,0,9.939,9.939,0,0,0-5.961,9.106v9.936H19.871v-2.71a.9.9,0,0,0-1.806,0v2.71H1.806V23.484H18.064V47.871a.9.9,0,0,0,1.806,0V16.258H36.129V47.871a.9.9,0,0,0,1.806,0V23.484H54.193v30.71Z"/>
      <path id="Trazado_117774" data-name="Trazado 117774" d="M28,18.064a6.323,6.323,0,1,0,6.323,6.323A6.33,6.33,0,0,0,28,18.064ZM28,28.9a4.516,4.516,0,1,1,4.516-4.516A4.521,4.521,0,0,1,28,28.9Z"/>
    </g>
  </g>
</svg>
