<svg xmlns="http://www.w3.org/2000/svg" xmlns:xlink="http://www.w3.org/1999/xlink" width="59" height="59" viewBox="0 0 59 59">
  <defs>
    <clipPath id="clip-path">
      <rect id="Rectángulo_33947" data-name="Rectángulo 33947" width="59" height="59" transform="translate(753 -9611)" fill="#01f6ff"/>
    </clipPath>
  </defs>
  <g id="Enmascarar_grupo_100" data-name="Enmascarar grupo 100" transform="translate(-753 9611)" clip-path="url(#clip-path)">
    <g id="documentos_1_" data-name="documentos (1)" transform="translate(753 -9611)">
      <g id="Grupo_84132" data-name="Grupo 84132">
        <path id="Trazado_118113" data-name="Trazado 118113" d="M49.274,15.73h-.008l-.343.2v5.935h5.2l.284-.242v-.76A5.149,5.149,0,0,0,49.274,15.73Z" fill="#ffa90f"/>
        <path id="Trazado_118114" data-name="Trazado 118114" d="M42.4,1.685,42.031.859h-25.2a1.9,1.9,0,0,0-1.9,1.9V6.049l.792.649H36.845l6.935,6.741v8.585h4.936l.549-.4V8.094l-.856-.378Z" fill="#62ddfc"/>
        <g id="Grupo_84131" data-name="Grupo 84131">
          <path id="Trazado_118115" data-name="Trazado 118115" d="M20.834,2.763a1.9,1.9,0,0,1,1.9-1.9h-5.9a1.9,1.9,0,0,0-1.9,1.9V6.049l.792.649h5.9l-.792-.649V2.763Z" fill="#00d2fc"/>
        </g>
        <path id="Trazado_118116" data-name="Trazado 118116" d="M9.745,15.73H9.639A5.051,5.051,0,0,0,4.6,20.766v.857l.5.138h5.032V16.054Z" fill="#ffa90f"/>
        <path id="Trazado_118117" data-name="Trazado 118117" d="M42.031.859V6.191a1.9,1.9,0,0,0,1.9,1.9h5.331Z" fill="#00d2fc"/>
        <path id="Trazado_118118" data-name="Trazado 118118" d="M37.289,7.14l-.444-1.09h-25.2a1.9,1.9,0,0,0-1.9,1.9v13.67l.747.747H42.03l2.05-.747V13.285l-1.068-.5Z" fill="#dbedff"/>
        <path id="Trazado_118119" data-name="Trazado 118119" d="M15.649,7.953a1.9,1.9,0,0,1,1.9-1.9h-5.9a1.9,1.9,0,0,0-1.9,1.9v13.67l.747.747h5.9l-.747-.747Z" fill="#b5dcff"/>
        <path id="Trazado_118120" data-name="Trazado 118120" d="M36.846,6.05v5.331a1.9,1.9,0,0,0,1.9,1.9h5.331Z" fill="#b5dcff"/>
        <path id="Trazado_118121" data-name="Trazado 118121" d="M45.142,6.191V3.971L42.031.859V6.191a1.9,1.9,0,0,0,1.9,1.9h3.111a1.9,1.9,0,0,1-1.9-1.9Z" fill="#00c2fb"/>
        <path id="Trazado_118122" data-name="Trazado 118122" d="M39.957,11.381V9.161L36.846,6.05v5.331a1.9,1.9,0,0,0,1.9,1.9h3.111A1.9,1.9,0,0,1,39.957,11.381Z" fill="#8bcaff"/>
        <path id="Trazado_118123" data-name="Trazado 118123" d="M54.407,21.624H4.6V56.6a1.531,1.531,0,0,0,1.531,1.531H52.877A1.531,1.531,0,0,0,54.407,56.6Z" fill="#ffd086"/>
        <path id="Trazado_118124" data-name="Trazado 118124" d="M11.943,56.6V21.624H4.6V56.6a1.531,1.531,0,0,0,1.531,1.531h7.34A1.53,1.53,0,0,1,11.943,56.6Z" fill="#ffc365"/>
        <path id="Trazado_118125" data-name="Trazado 118125" d="M48.825,36.875H30.485a.98.98,0,0,0-.979.979V52.291a.98.98,0,0,0,.979.979H48.825a.98.98,0,0,0,.979-.979V37.855A.979.979,0,0,0,48.825,36.875Z" fill="#dbedff"/>
        <path id="Trazado_118126" data-name="Trazado 118126" d="M34.108,52.291V37.855a.98.98,0,0,1,.979-.979h-4.6a.98.98,0,0,0-.979.979V52.291a.98.98,0,0,0,.979.979h4.6a.979.979,0,0,1-.979-.979Z" fill="#b5dcff"/>
      </g>
      <g id="Grupo_84133" data-name="Grupo 84133">
        <path id="Trazado_118127" data-name="Trazado 118127" d="M8.875,14.921a5.908,5.908,0,0,0-5.142,5.85V56.605A2.4,2.4,0,0,0,6.128,59H52.872a2.4,2.4,0,0,0,2.395-2.395V40.962a.864.864,0,0,0-1.729,0V56.605a.667.667,0,0,1-.666.666H6.128a.667.667,0,0,1-.666-.666V22.493H53.538V36.929a.864.864,0,0,0,1.729,0V20.868a6.006,6.006,0,0,0-5.142-5.936V8.1a.868.868,0,0,0-.253-.611L42.637.253A.873.873,0,0,0,42.025,0h-25.2A2.771,2.771,0,0,0,14.06,2.768V5.19H11.643A2.771,2.771,0,0,0,8.875,7.958Zm0,5.843H5.462a4.179,4.179,0,0,1,3.413-4.1Zm41.249-4.079a4.277,4.277,0,0,1,3.412,4.079H50.125ZM42.89,2.951l4.284,4.284H43.929A1.041,1.041,0,0,1,42.89,6.2Zm-27.1-.183a1.041,1.041,0,0,1,1.04-1.04H41.161V6.2a2.771,2.771,0,0,0,2.768,2.768H48.4v11.8H44.94V13.29a.868.868,0,0,0-.253-.611L37.452,5.443a.875.875,0,0,0-.611-.253H15.789Zm26.2,9.657H38.744a1.041,1.041,0,0,1-1.04-1.04V8.141ZM10.6,7.958a1.041,1.041,0,0,1,1.04-1.04H35.976v4.467a2.771,2.771,0,0,0,2.768,2.768h4.467v6.61H10.6Z"/>
        <path id="Trazado_118128" data-name="Trazado 118128" d="M45.757,48.989H33.542a.864.864,0,0,0,0,1.729H45.757a.864.864,0,0,0,0-1.729Z"/>
        <path id="Trazado_118129" data-name="Trazado 118129" d="M45.757,45.805H33.542a.864.864,0,1,0,0,1.729H45.757a.864.864,0,1,0,0-1.729Z"/>
        <path id="Trazado_118130" data-name="Trazado 118130" d="M45.757,42.622H33.542a.864.864,0,0,0,0,1.729H45.757a.864.864,0,1,0,0-1.729Z"/>
        <path id="Trazado_118131" data-name="Trazado 118131" d="M45.757,39.438H33.542a.864.864,0,0,0,0,1.729H45.757a.864.864,0,0,0,0-1.729Z"/>
        <path id="Trazado_118132" data-name="Trazado 118132" d="M38.3,17.241H14.53a.864.864,0,0,0,0,1.729H38.3a.864.864,0,0,0,0-1.729Z"/>
        <path id="Trazado_118133" data-name="Trazado 118133" d="M14.53,15.786H34.54a.864.864,0,0,0,0-1.729H14.53a.864.864,0,1,0,0,1.729Z"/>
        <path id="Trazado_118134" data-name="Trazado 118134" d="M37.633,36.016H30.479a1.846,1.846,0,0,0-1.844,1.844V52.3a1.846,1.846,0,0,0,1.844,1.844H48.82A1.846,1.846,0,0,0,50.664,52.3V37.86a1.846,1.846,0,0,0-1.844-1.844H41.666a.864.864,0,0,0,0,1.729H48.82a.115.115,0,0,1,.115.115V52.3a.115.115,0,0,1-.115.115H30.479a.115.115,0,0,1-.115-.115V37.86a.115.115,0,0,1,.115-.115h7.154a.864.864,0,0,0,0-1.729Z"/>
      </g>
    </g>
  </g>
</svg>
