<svg xmlns="http://www.w3.org/2000/svg" xmlns:xlink="http://www.w3.org/1999/xlink" width="59" height="59" viewBox="0 0 59 59">
  <defs>
    <clipPath id="clip-path">
      <rect id="Rectángulo_33943" data-name="Rectángulo 33943" width="59" height="59" transform="translate(358 2091)" fill="#01f6ff"/>
    </clipPath>
  </defs>
  <g id="Enmascarar_grupo_97" data-name="Enmascarar grupo 97" transform="translate(-358 -2091)" clip-path="url(#clip-path)">
    <g id="autenticidad" transform="translate(358 2091)">
      <g id="Grupo_84129" data-name="Grupo 84129">
        <g id="Grupo_84128" data-name="Grupo 84128">
          <path id="Trazado_118093" data-name="Trazado 118093" d="M28.754,1.1C20.825,6.668,9.659,5.44,5.477,4.718A1.3,1.3,0,0,0,3.956,6.11L6.247,33.26A22.888,22.888,0,0,0,17.208,50.92l11.618,7.027a1.3,1.3,0,0,0,1.348,0L41.792,50.92A22.888,22.888,0,0,0,52.753,33.26L55.044,6.11a1.3,1.3,0,0,0-1.521-1.393C49.341,5.44,38.175,6.668,30.246,1.1a1.3,1.3,0,0,0-1.491,0Z" fill="#fddd45"/>
          <path id="Trazado_118094" data-name="Trazado 118094" d="M55.044,6.111,52.753,33.26A22.89,22.89,0,0,1,41.792,50.92L30.174,57.947a1.305,1.305,0,0,1-1.348,0L25.445,55.9,29.5,53.641l10.2-6.172a18.907,18.907,0,0,0,9.03-14.547L50.739,9.159l.251-4.083c1-.112,1.856-.242,2.533-.358a1.3,1.3,0,0,1,1.521,1.393Z" fill="#f8c52d"/>
          <path id="Trazado_118095" data-name="Trazado 118095" d="M19.3,47.469a18.909,18.909,0,0,1-9.029-14.547L8.261,9.159c1.4.137,3,.235,4.72.235,6.5,0,12.047-1.338,16.519-3.98,4.471,2.642,10.017,3.98,16.519,3.98,1.723,0,3.321-.1,4.72-.235L48.734,32.921A18.91,18.91,0,0,1,39.7,47.469L29.5,53.641Z" fill="#31a7fb"/>
          <path id="Trazado_118096" data-name="Trazado 118096" d="M50.739,9.159,48.734,32.921A18.907,18.907,0,0,1,39.7,47.469L29.5,53.641l-3.433-2.077,9.676-5.853a18.415,18.415,0,0,0,8.791-14.165L46.4,9.39C47.98,9.378,49.445,9.286,50.739,9.159Z" fill="#1c96f9"/>
          <path id="Trazado_118097" data-name="Trazado 118097" d="M29.5,53.641,19.3,47.469a18.909,18.909,0,0,1-9.029-14.547L8.261,9.159c1.4.137,3,.235,4.72.235,6.5,0,12.047-1.338,16.519-3.98Z" fill="#1c96f9"/>
          <path id="Trazado_118098" data-name="Trazado 118098" d="M25.867,7.181V51.443l3.633,2.2V5.413a25.476,25.476,0,0,1-3.633,1.767Z" fill="#1785f8"/>
          <g id="Grupo_84127" data-name="Grupo 84127">
            <g id="Grupo_84126" data-name="Grupo 84126">
              <g id="Grupo_84125" data-name="Grupo 84125">
                <path id="Trazado_118099" data-name="Trazado 118099" d="M50.333,13.983l-.686,8.123L30.323,41.429a1.17,1.17,0,0,1-1.654,0L20.3,33.057a1.168,1.168,0,0,1,0-1.652l2.066-2.066a1.168,1.168,0,0,1,1.652,0L29.5,34.818Z" fill="#fb4a59"/>
              </g>
            </g>
            <path id="Trazado_118100" data-name="Trazado 118100" d="M50.333,13.983l-.686,8.123-4.713,4.713.686-8.123Z" fill="#f82f40"/>
          </g>
        </g>
      </g>
      <g id="Grupo_84130" data-name="Grupo 84130">
        <path id="Trazado_118101" data-name="Trazado 118101" d="M39.694,46.456a.864.864,0,1,0,.937,1.453A19.849,19.849,0,0,0,49.6,32.994L51.6,9.231a.864.864,0,0,0-.946-.933c-1.557.153-3.117.23-4.636.23-6.335,0-11.745-1.3-16.079-3.86a.864.864,0,0,0-.879,0c-4.334,2.561-9.744,3.86-16.079,3.86-1.519,0-3.079-.078-4.636-.23a.864.864,0,0,0-.946.933l.686,8.13a.864.864,0,1,0,1.722-.145l-.6-7.107c1.269.1,2.534.148,3.773.148A33.957,33.957,0,0,0,28.636,6.877v2.6a.864.864,0,1,0,1.729,0v-2.6a33.955,33.955,0,0,0,15.654,3.381c1.239,0,2.5-.05,3.773-.148L49.5,13.6,30.364,32.729v-5.15a.864.864,0,1,0-1.729,0v5.157l-4.008-4.008a2.033,2.033,0,0,0-2.875,0l-2.066,2.066a2.033,2.033,0,0,0,0,2.875l8.372,8.372a2.03,2.03,0,0,0,.577.4v9.665l-8.893-5.379a18.043,18.043,0,0,1-8.616-13.881l-1-11.8a.864.864,0,1,0-1.722.145l1,11.8a19.777,19.777,0,0,0,9.443,15.214l10.2,6.172a.864.864,0,0,0,.895,0l7.377-4.462a.864.864,0,0,0-.895-1.479l-6.066,3.669V42.44a2.029,2.029,0,0,0,.57-.4L48.587,24.388l-.714,8.46a18.109,18.109,0,0,1-8.179,13.608Zm-9.982-5.638a.305.305,0,0,1-.431,0l-8.372-8.372a.3.3,0,0,1,0-.43l2.066-2.066a.3.3,0,0,1,.43,0l5.481,5.479a.864.864,0,0,0,1.222,0L49.272,16.265l-.46,5.453Z"/>
        <path id="Trazado_118102" data-name="Trazado 118102" d="M55.21,4.4a2.154,2.154,0,0,0-1.835-.538A42.289,42.289,0,0,1,41.7,4.251a.864.864,0,1,0-.2,1.717,44.066,44.066,0,0,0,12.172-.4.434.434,0,0,1,.373.109.43.43,0,0,1,.14.359l-2.291,27.15A22.088,22.088,0,0,1,41.344,50.18L29.727,57.207a.437.437,0,0,1-.454,0L17.656,50.18A22.088,22.088,0,0,1,7.108,33.188L4.817,6.038a.439.439,0,0,1,.513-.468,45.163,45.163,0,0,0,10.44.56A26.28,26.28,0,0,0,29.251,1.806a.434.434,0,0,1,.5,0,23.282,23.282,0,0,0,7.863,3.466.864.864,0,0,0,.413-1.678,21.566,21.566,0,0,1-7.283-3.2,2.167,2.167,0,0,0-2.485,0c-2.537,1.782-9.82,5.687-22.633,3.475a2.167,2.167,0,0,0-2.53,2.317l2.291,27.15A23.821,23.821,0,0,0,16.761,51.659l11.618,7.027a2.161,2.161,0,0,0,2.243,0l11.617-7.027A23.821,23.821,0,0,0,53.614,33.333L55.9,6.183A2.151,2.151,0,0,0,55.21,4.4Z"/>
        <path id="Trazado_118103" data-name="Trazado 118103" d="M34.666,19.831v-2.97a5.166,5.166,0,0,0-10.332,0v2.97a5.153,5.153,0,0,0,4.617,5.137.886.886,0,0,0,.092,0,.864.864,0,0,0,.09-1.724,3.428,3.428,0,0,1-3.071-3.418v-2.97a3.437,3.437,0,0,1,6.875,0v2.97a.864.864,0,1,0,1.729,0Z"/>
        <path id="Trazado_118104" data-name="Trazado 118104" d="M31.466,22.853l.622.446a.864.864,0,1,0,1.007-1.4l-.622-.446a1.553,1.553,0,0,1-.646-1.259V16.872a2.281,2.281,0,0,0-4.563,0V20.6a.864.864,0,1,0,1.729,0V16.872a.553.553,0,0,1,1.106,0v3.317a3.285,3.285,0,0,0,1.368,2.664Z"/>
      </g>
    </g>
  </g>
</svg>
