<svg xmlns="http://www.w3.org/2000/svg" xmlns:xlink="http://www.w3.org/1999/xlink" width="56" height="56" viewBox="0 0 56 56">
  <defs>
    <clipPath id="clip-path">
      <rect id="Rectángulo_34070" data-name="Rectángulo 34070" width="56" height="56" transform="translate(446 2467)" fill="#fff" stroke="#707070" stroke-width="1"/>
    </clipPath>
  </defs>
  <g id="Enmascarar_grupo_86" data-name="Enmascarar grupo 86" transform="translate(-446 -2467)" clip-path="url(#clip-path)">
    <g id="anemia" transform="translate(446 2467)">
      <path id="Trazado_117865" data-name="Trazado 117865" d="M13.437,23.411l-2.5,16.478H38.113L35.656,23.411Z" fill="#497090"/>
      <path id="Trazado_117866" data-name="Trazado 117866" d="M39.54,38.749l-8.711-1.034a1.64,1.64,0,0,1-1.447-1.629V29.813H19.712v6.273a1.64,1.64,0,0,1-1.447,1.629L9.553,38.749a5.849,5.849,0,0,0-5.018,5.79V55.18H44.558V44.539a5.849,5.849,0,0,0-5.018-5.79Z" fill="#c2fae3"/>
      <path id="Trazado_117867" data-name="Trazado 117867" d="M18.265,37.714,9.553,38.749a5.849,5.849,0,0,0-5.018,5.79V55.18H7.816V44.539a5.849,5.849,0,0,1,5.018-5.79l6.878-.817V36.087A1.64,1.64,0,0,1,18.265,37.714Z" fill="#a9e8d1"/>
      <circle id="Elipse_4823" data-name="Elipse 4823" cx="6.793" cy="6.793" r="6.793" transform="translate(38.113 14.413)" fill="#f2fbff"/>
      <path id="Trazado_117868" data-name="Trazado 117868" d="M13.1,12.25v4.51h22.9V10.485a3.841,3.841,0,0,0-3.816-3.866V4.686A3.841,3.841,0,0,0,28.363.82H24.382A11.357,11.357,0,0,0,13.1,12.25Z" fill="#5680a6"/>
      <path id="Trazado_117869" data-name="Trazado 117869" d="M27.662.82H24.382A11.357,11.357,0,0,0,13.1,12.25v4.51H16.38V12.25A11.357,11.357,0,0,1,27.662.82Z" fill="#497090"/>
      <path id="Trazado_117870" data-name="Trazado 117870" d="M29.382,29.813v8.149a4.835,4.835,0,0,1-9.671,0V29.813Z" fill="#ffe5c2"/>
      <path id="Trazado_117871" data-name="Trazado 117871" d="M19.712,29.813v6.274h0Z" fill="#606060"/>
      <path id="Trazado_117872" data-name="Trazado 117872" d="M22.992,36.086V29.813H19.712v6.273h0v1.845l1.834-.218A1.64,1.64,0,0,0,22.992,36.086Z" fill="#fed2a4"/>
      <path id="Trazado_117873" data-name="Trazado 117873" d="M32.279,16.755V10.776a14.541,14.541,0,0,1-11.753,5.979H15.182v7.551a9.365,9.365,0,1,0,18.73,0V16.755Z" fill="#fff3de"/>
      <path id="Trazado_117874" data-name="Trazado 117874" d="M18.463,24.306V16.755H15.182v7.551a9.373,9.373,0,0,0,11.005,9.222,9.368,9.368,0,0,1-7.725-9.222Z" fill="#ffe5c2"/>
      <path id="Trazado_117875" data-name="Trazado 117875" d="M15.182,16.755H13.437a2.421,2.421,0,0,0-2.421,2.421V20.99a2.421,2.421,0,0,0,2.421,2.421h1.745Z" fill="#fff3de"/>
      <path id="Trazado_117876" data-name="Trazado 117876" d="M33.912,16.755h1.745a2.421,2.421,0,0,1,2.421,2.421V20.99a2.421,2.421,0,0,1-2.421,2.421H33.912Z" fill="#ffe5c2"/>
      <g id="Grupo_84041" data-name="Grupo 84041">
        <path id="Trazado_117877" data-name="Trazado 117877" d="M47.454,21.971a2.548,2.548,0,0,1-5.1,0c0-1.062,1.452-3.079,2.163-3.9a.508.508,0,0,1,.769,0c.712.822,2.163,2.838,2.163,3.9Z" fill="#fd8087"/>
      </g>
      <path id="Trazado_117878" data-name="Trazado 117878" d="M44.546,21.971a6.861,6.861,0,0,1,1.454-3c-.262-.362-.514-.678-.709-.9a.508.508,0,0,0-.769,0c-.712.822-2.163,2.838-2.163,3.9A2.549,2.549,0,0,0,46,24.272a2.548,2.548,0,0,1-1.454-2.3Z" fill="#fe646f"/>
      <g id="Grupo_84042" data-name="Grupo 84042">
        <path id="Trazado_117879" data-name="Trazado 117879" d="M27.527,20.866,29.214,21.9a.82.82,0,1,0,.857-1.4l-1.687-1.034a.82.82,0,1,0-.857,1.4Z"/>
        <path id="Trazado_117880" data-name="Trazado 117880" d="M20.71,19.467,19.023,20.5a.82.82,0,0,0,.857,1.4l1.687-1.034a.82.82,0,1,0-.857-1.4Z"/>
        <path id="Trazado_117881" data-name="Trazado 117881" d="M25.425,27.145a.82.82,0,0,0,1.64,0,2.519,2.519,0,1,0-5.037,0,.82.82,0,1,0,1.64,0,.878.878,0,1,1,1.756,0Z"/>
        <path id="Trazado_117882" data-name="Trazado 117882" d="M44.906,17.074a1.328,1.328,0,0,0-1,.459c-.024.027-2.363,2.749-2.363,4.437a3.368,3.368,0,1,0,6.735,0c0-1.689-2.34-4.41-2.363-4.437A1.328,1.328,0,0,0,44.906,17.074Zm1.727,4.9a1.727,1.727,0,1,1-3.455,0,7.986,7.986,0,0,1,1.727-3.082A7.984,7.984,0,0,1,46.634,21.971Z"/>
        <path id="Trazado_117883" data-name="Trazado 117883" d="M51.678,22.2a.82.82,0,0,0-1.006.577A5.974,5.974,0,1,1,44.9,15.233h.013a5.984,5.984,0,0,1,5.756,4.4.82.82,0,0,0,1.582-.432,7.63,7.63,0,0,0-5.574-5.4L48.883,11.6a.82.82,0,0,0-1.16-1.16l-2,2V7.619a.82.82,0,1,0-1.64,0v4.828l-2.035-2.014A.82.82,0,1,0,40.9,11.6l2.227,2.2a7.643,7.643,0,0,0-4.786,3.555,3.258,3.258,0,0,0-1.524-1.209V10.485A4.68,4.68,0,0,0,33,5.872V4.686A4.667,4.667,0,0,0,28.363,0h-3.98a12.191,12.191,0,0,0-12.1,12.25v3.9A3.246,3.246,0,0,0,10.2,19.176V20.99a3.247,3.247,0,0,0,2.308,3.1l-.688,4.535a.82.82,0,0,0,.688.934q.61.09.934-.688l.7-4.644h.22a10.419,10.419,0,0,0,4.53,8.542v3.312a.821.821,0,0,1-.723.815l-6.056.719.79-5.21a.82.82,0,0,0-1.622-.246l-.858,5.657a6.879,6.879,0,0,0-6.707,6.718V55.18a.82.82,0,0,0,.82.82h18.2a.82.82,0,1,0,0-1.64h-10.9V49.151a.82.82,0,0,0-1.64,0V54.36H5.356V44.539a5.054,5.054,0,0,1,4.3-4.976l8.7-1.033a2.456,2.456,0,0,0,.546-.129,5.655,5.655,0,0,0,11.277,0,2.461,2.461,0,0,0,.547.129l8.7,1.033a5.054,5.054,0,0,1,4.3,4.976v9.821H38.9V49.15a.82.82,0,0,0-1.64,0v5.209H26.314a.82.82,0,1,0,0,1.64H44.558a.82.82,0,0,0,.82-.82V44.539a6.889,6.889,0,0,0-6.746-6.723L36.588,24.095a3.234,3.234,0,0,0,1.07-.557,7.615,7.615,0,0,0,14.6-.335.82.82,0,0,0-.577-1.006ZM24.382,1.64h3.98a3.025,3.025,0,0,1,3,3.045V6.619a.82.82,0,0,0,.82.82,3.024,3.024,0,0,1,3,3.045v5.45H33.1V10.776a.8.8,0,0,0-1.483-.483,13.494,13.494,0,0,1-11.09,5.642H13.919V12.25A10.549,10.549,0,0,1,24.382,1.64ZM13.459,22.591h-.038a1.6,1.6,0,0,1-1.584-1.6V19.176a1.6,1.6,0,0,1,1.6-1.6h.924V22.59h-.9ZM16,24.306V17.575h4.523A15.419,15.419,0,0,0,31.458,13v3.753a.82.82,0,0,0,.82.82h.813v6.731a8.545,8.545,0,0,1-17.09,0Zm12.56,13.655a4.015,4.015,0,1,1-8.03,0V33.666a10.231,10.231,0,0,0,8.03,0v4.294Zm2.364-1.06a.821.821,0,0,1-.724-.815V32.773a10.446,10.446,0,0,0,4.53-8.542h.218l1.995,13.384Zm6.331-15.91a1.6,1.6,0,0,1-1.58,1.6h-.946V17.575h.924a1.6,1.6,0,0,1,1.6,1.6V20.99Z"/>
      </g>
    </g>
  </g>
</svg>
