<svg xmlns="http://www.w3.org/2000/svg" width="239" height="373" viewBox="0 0 239 373">
  <g id="Grupo_80447" data-name="Grupo 80447" transform="translate(-931 -5217)">
    <rect id="Rectángulo_33776" data-name="Rectángulo 33776" width="239" height="373" transform="translate(931 5217)" fill="#cee284"/>
    <circle id="Elipse_4736" data-name="Elipse 4736" cx="119" cy="119" r="119" transform="translate(932 5268)" fill="#adce32"/>
    <g id="palenquera" transform="translate(855.066 5263.124)">
      <path id="Trazado_114047" data-name="Trazado 114047" d="M250.088,354.494l-68.476,5.4c-4.3,2.311-10.237,4.464-18.326,6.891,0,0,10.77,34.1,56.03,34.1s56.03-34.1,56.03-34.1C261.44,362.609,253.889,359.247,250.088,354.494Z" transform="translate(-23.397 -121.344)" fill="#ab7b64"/>
      <path id="Trazado_114048" data-name="Trazado 114048" d="M259.626,348.414c-2.477-3.1-3.364-6.787-3.364-11.681H201.445c0,8.036-2.38,12.826-10.3,17.077,9.792,7.5,21.2,11.984,31.127,11.984,12.116,0,26.455-6.691,37.35-17.38Z" transform="translate(-32.935 -115.264)" fill="#8c5e5e"/>
      <path id="Trazado_114049" data-name="Trazado 114049" d="M204.662,441.461c65.467,0,80.365-49.754,83.642-58.646-8.1-3.106-18.017-6.674-27.9-9.64,0,0-10.77,34.1-56.03,34.1-38.232,0-51.853-24.33-55.161-31.886l-29.582,19.2C128.234,410.482,155.447,441.461,204.662,441.461Z" transform="translate(-8.453 -127.738)" fill="#f8e883"/>
      <path id="Trazado_114050" data-name="Trazado 114050" d="M149.029,373.175c-9.679,2.9-19.39,6.386-27.394,9.446a84.825,84.825,0,0,0,5.258,11.967l23-19.2C149.289,374,149.029,373.175,149.029,373.175Z" transform="translate(-9.14 -127.738)" fill="#eec06b"/>
      <path id="Trazado_114051" data-name="Trazado 114051" d="M285.868,387.832c-3.277,8.891-18.176,52.069-83.642,52.069-49.215,0-69.85-24.4-78.456-40.3l-11.257,7.2c10.782,17.6,37.931,45.593,89.712,45.593,43.553,0,74.329-21.369,93.229-38.264a83.365,83.365,0,0,0,7.176-14.383,4.928,4.928,0,0,0-2.71-6.293C296.678,392.1,291.754,390.089,285.868,387.832Z" transform="translate(-6.018 -132.755)" fill="#d97b7b"/>
      <path id="Trazado_114052" data-name="Trazado 114052" d="M109.126,406.7l8.626-7.2a84.793,84.793,0,0,1-5.258-11.967c-6.088,2.327-11.187,4.409-14.525,5.8a4.921,4.921,0,0,0-2.706,6.309c5.663,14.637,28.985,59.881,100.944,59.881,55.072,0,81.417-26.5,93.229-45.5-18.9,16.9-49.675,35.633-93.229,35.633-51.781,0-76.3-25.359-87.082-42.962Z" transform="translate(0 -132.654)" fill="#d16161"/>
      <path id="Trazado_114053" data-name="Trazado 114053" d="M333.566,45.6s9.576-23.6,9.576-30.7S336.073,0,327.673,0s-26.422,7.721-43.817,22.8V55.3Z" transform="translate(-64.668)" fill="#e69642"/>
      <g id="Grupo_80433" data-name="Grupo 80433" transform="translate(230.448 17.337)">
        <path id="Trazado_114054" data-name="Trazado 114054" d="M305.907,59.561a4.932,4.932,0,0,1-3.773-8.107L321.76,28.119a4.932,4.932,0,1,1,7.55,6.349L309.684,57.8A4.921,4.921,0,0,1,305.907,59.561Z" transform="translate(-300.977 -26.361)" fill="#8c5e5e"/>
      </g>
      <path id="Trazado_114055" data-name="Trazado 114055" d="M179.1,21.922S171.959,0,183.307,0s34.828,33.937,34.828,33.937V53.655H179.1Z" transform="translate(-28.052 0)" fill="#e69642"/>
      <path id="Trazado_114056" data-name="Trazado 114056" d="M259.136,33.937S235.655,0,224.307,0s-4.2,21.922-4.2,21.922l9.062,17.053Z" transform="translate(-42.086 0)" fill="#f8e883"/>
      <path id="Trazado_114057" data-name="Trazado 114057" d="M140.968,56.493A39.11,39.11,0,0,1,137.241,5.5a4.947,4.947,0,0,1,7.467-.565l51.555,51.555h-55.3Z" transform="translate(-11.837 -1.197)" fill="#d97b7b"/>
      <circle id="Elipse_4727" data-name="Elipse 4727" cx="24.151" cy="24.151" r="24.151" transform="translate(187.079 21.454)" fill="#eec06b"/>
      <path id="Trazado_114058" data-name="Trazado 114058" d="M155.713,300.393a19.721,19.721,0,1,1,19.721-19.72,19.743,19.743,0,0,1-19.721,19.72Zm0-29.577a9.855,9.855,0,1,0,9.856,9.856A9.867,9.867,0,0,0,155.713,270.816Z" transform="translate(-14.054 -89.324)" fill="#c8c3ca"/>
      <path id="Trazado_114059" data-name="Trazado 114059" d="M300.992,280.672a19.721,19.721,0,1,1,19.721,19.72,19.743,19.743,0,0,1-19.721-19.72Zm9.865,0a9.856,9.856,0,1,0,9.856-9.856A9.866,9.866,0,0,0,310.857,280.672Z" transform="translate(-70.534 -89.324)" fill="#c8c3ca"/>
      <path id="Trazado_114060" data-name="Trazado 114060" d="M280.208,222.107V187.38a54.26,54.26,0,0,0-54.26-54.26c-20.274,0-43.287,24.293-43.287,54.26v34.727c0,29.967,27.667,54.26,43.287,54.26C249.036,276.367,280.208,252.074,280.208,222.107Z" transform="translate(-30.029 -45.567)" fill="#ab7b64"/>
      <path id="Trazado_114061" data-name="Trazado 114061" d="M183.527,222.107V187.38c0-29.967,16.436-54.26,36.71-54.26a54.26,54.26,0,0,0-54.26,54.26v34.727c0,29.967,31.172,54.26,54.26,54.26C204.617,276.367,183.527,252.074,183.527,222.107Z" transform="translate(-24.318 -45.567)" fill="#8c5e5e"/>
      <path id="Trazado_114062" data-name="Trazado 114062" d="M235.377,301.789a32.38,32.38,0,0,1-24.042-10.432,4.933,4.933,0,0,1,7.587-6.306,22.41,22.41,0,0,0,16.454,6.873,22.729,22.729,0,0,0,16.432-6.846,4.933,4.933,0,0,1,7.61,6.279,32.381,32.381,0,0,1-24.042,10.432Z" transform="translate(-39.458 -96.969)" fill="#8c5e5e"/>
      <path id="Trazado_114063" data-name="Trazado 114063" d="M240.784,274.1a18.146,18.146,0,0,1-13.653-6,4.933,4.933,0,0,1,7.609-6.28,8.78,8.78,0,0,0,12.089,0,4.933,4.933,0,0,1,7.609,6.28,18.146,18.146,0,0,1-13.653,6Z" transform="translate(-44.865 -89.007)" fill="#8c5e5e"/>
      <g id="Grupo_80434" data-name="Grupo 80434" transform="translate(150.323 126.745)">
        <path id="Trazado_114064" data-name="Trazado 114064" d="M281.59,244.9a4.932,4.932,0,0,1-4.933-4.933V229.486a4.933,4.933,0,1,1,9.865,0v10.482A4.932,4.932,0,0,1,281.59,244.9Z" transform="translate(-212.527 -203.61)" fill="#655e67"/>
        <path id="Trazado_114065" data-name="Trazado 114065" d="M211.59,244.9a4.932,4.932,0,0,1-4.933-4.933V229.486a4.933,4.933,0,0,1,9.865,0v10.482A4.932,4.932,0,0,1,211.59,244.9Z" transform="translate(-188.566 -203.61)" fill="#655e67"/>
        <path id="Trazado_114066" data-name="Trazado 114066" d="M207.1,205.157a4.933,4.933,0,0,0,6.976-6.976c-5.02-5.02-13.5-5.487-16.91-5.47-7.01.057-13.207,2.1-16.575,5.471a4.932,4.932,0,1,0,6.976,6.975c1.254-1.254,4.981-2.543,9.679-2.581,4.979-.061,8.541,1.268,9.854,2.582Z" transform="translate(-179.15 -192.71)" fill="#655e67"/>
        <path id="Trazado_114067" data-name="Trazado 114067" d="M270.918,205.157a4.933,4.933,0,0,1-6.976-6.976c5.02-5.02,13.5-5.487,16.91-5.47,7.01.057,13.207,2.1,16.575,5.471a4.932,4.932,0,1,1-6.976,6.975c-1.254-1.254-4.981-2.543-9.679-2.581-4.979-.061-8.541,1.268-9.854,2.582Z" transform="translate(-207.68 -192.71)" fill="#655e67"/>
      </g>
      <path id="Trazado_114068" data-name="Trazado 114068" d="M162.535,159.636c-1.3,8.393,20.6,17.527,20.6,17.527v.009c11.055-11.285,28.585-23.918,56.219-34.215-25.9,0-65.9-6.577-65.9-6.577S163.835,151.243,162.535,159.636Z" transform="translate(-23.121 -46.683)" fill="#d97b7b"/>
      <path id="Trazado_114069" data-name="Trazado 114069" d="M163.824,133.12s-20.3,17.582-20.3,38.573c0,15.134,5.187,28.957,14.767,50.413,0-18.008,2.092-27.241,13.593-40.839,1.432-1.694,3.021-3.438,4.76-5.212v-.009s-15.322-9.134-14.022-17.527,10.913-16.679,10.913-16.679h59.328a263.8,263.8,0,0,1,28.414-8.721Z" transform="translate(-16.632 -45.567)" fill="#d16161"/>
      <path id="Trazado_114070" data-name="Trazado 114070" d="M293.742,144.513l-76.15,1.228c31.981,11.917,50.439,26.964,60.98,39.427,11.5,13.6,13.593,22.831,13.593,40.838,9.58-21.455,14.767-35.279,14.767-50.413C306.932,162.971,299.6,151.589,293.742,144.513Z" transform="translate(-41.986 -49.467)" fill="#e7afaf"/>
      <path id="Trazado_114071" data-name="Trazado 114071" d="M278.954,140.613a69.252,69.252,0,0,0-7.11-7.493H174.39a263.814,263.814,0,0,1,28.414,8.721h69.04A19.992,19.992,0,0,0,278.954,140.613Z" transform="translate(-27.198 -45.567)" fill="#d97b7b"/>
      <path id="Trazado_114072" data-name="Trazado 114072" d="M119.074,85.782C138.8,85.782,130.2,108,150.552,108H264.321l11.1-16.759,21.046-12.074a9.864,9.864,0,0,0-9.863-9.826H115.127a9.811,9.811,0,0,0-5.74,1.852c.868,4.562,4.872,14.59,9.687,14.59Z" transform="translate(-4.947 -23.735)" fill="#c8c3ca"/>
      <path id="Trazado_114073" data-name="Trazado 114073" d="M288.4,80.169c-19.731,0-11.124,22.217-31.479,22.217H148.405c-20.354,0-11.748-22.217-31.479-22.217a9.864,9.864,0,0,1-9.686-8.013,9.859,9.859,0,0,0,5.74,17.879c19.731,0,11.124,22.217,31.479,22.217H252.98c20.354,0,11.748-22.217,31.479-22.217a9.866,9.866,0,0,0,9.865-9.865c0-.013,0-.026,0-.039C292.2,80.153,290.084,80.169,288.4,80.169Z" transform="translate(-2.8 -24.699)" fill="#a29aa5"/>
    </g>
  </g>
</svg>
