<svg xmlns="http://www.w3.org/2000/svg" xmlns:xlink="http://www.w3.org/1999/xlink" width="56" height="56" viewBox="0 0 56 56">
  <defs>
    <clipPath id="clip-path">
      <rect id="Rectángulo_34069" data-name="Rectángulo 34069" width="56" height="56" transform="translate(196 2467)" fill="#fff" stroke="#707070" stroke-width="1"/>
    </clipPath>
  </defs>
  <g id="Enmascarar_grupo_85" data-name="Enmascarar grupo 85" transform="translate(-196 -2467)" clip-path="url(#clip-path)">
    <g id="desnutricion" transform="translate(196 2467)">
      <g id="Grupo_84039" data-name="Grupo 84039">
        <path id="Trazado_117844" data-name="Trazado 117844" d="M47.328,31.463V17.815l1.559-5.663a4.844,4.844,0,0,0-.987-3.96,5.586,5.586,0,0,0-3.7-1.382H36.542a6.747,6.747,0,0,1-5.02-5.99H22.291V2.306a5,5,0,0,1-2.832,4.5H11.8a5.636,5.636,0,0,0-5.434,7.132l1.217,4.419V32.01a9.711,9.711,0,0,0-1.837,4.927,9.711,9.711,0,0,0,1.837,4.927V53.008L13.159,54.1l1.094-26.828c0,6.486,5.423,4.562,5.423,9.664,0,4.4-4.028,2.763-5.141,6.382H40.508C39.647,38.987,35.23,41,35.23,36.39c0-5.1,4.331-3.01,6.517-9.117V53.008L47.328,54.1V41.318a9.711,9.711,0,0,0,1.837-4.927,9.71,9.71,0,0,0-1.837-4.927Z" fill="#e49280"/>
        <g id="Grupo_84038" data-name="Grupo 84038">
          <path id="Trazado_117845" data-name="Trazado 117845" d="M12.065,17.177V51.914a1.094,1.094,0,0,1-1.094,1.094H7.578V55.2l5.581-.017,1.094-9.672V16.747a17.836,17.836,0,0,1-1.247-1.521,2.188,2.188,0,0,0-.941,1.951Z" fill="#dd7f66"/>
          <path id="Trazado_117846" data-name="Trazado 117846" d="M48.422,32.01V18.362l1.217-4.419A5.623,5.623,0,0,0,47.9,8.192a7.178,7.178,0,0,1-.107,3.413l-1.52,5.521a1.1,1.1,0,0,0-.039.29V30.573a1.09,1.09,0,0,0,.183.605,9.316,9.316,0,0,1,1.654,4.665,9.316,9.316,0,0,1-1.654,4.665,1.09,1.09,0,0,0-.183.605v10.8a1.094,1.094,0,0,1-1.094,1.094H41.747L42.841,55.2l5.581-.017V41.865a9.711,9.711,0,0,0,1.837-4.927,9.711,9.711,0,0,0-1.837-4.927Z" fill="#dd7f66"/>
          <path id="Trazado_117847" data-name="Trazado 117847" d="M41.747,27.274V16.747A17.83,17.83,0,0,1,39.56,18.77h0V26.18c0,6.486-5.423,4.562-5.423,9.664,0,4.788,4.775,2.425,5.363,7.476H14.535a7.445,7.445,0,0,0-.282,2.188L28,47.7l13.747-2.188c0-6.486-5.423-3.468-5.423-8.57s5.423-3.178,5.423-9.664Z" fill="#dd7f66"/>
          <path id="Trazado_117848" data-name="Trazado 117848" d="M33.709,2.306V.821H31.521V2.306a6.679,6.679,0,0,0,1.748,4.5h3.272a5,5,0,0,1-2.832-4.5Z" fill="#dd7f66"/>
        </g>
        <path id="Trazado_117849" data-name="Trazado 117849" d="M40.653,45.507h-26.4A1.094,1.094,0,0,0,13.159,46.6v6.39l28.588,1.094Z" fill="#afe2e6"/>
        <path id="Trazado_117850" data-name="Trazado 117850" d="M41.747,45.507H40.653V51.9a1.094,1.094,0,0,1-1.094,1.094h-26.4v2.188H42.841V46.6a1.094,1.094,0,0,0-1.094-1.094Z" fill="#75cdd5"/>
      </g>
      <g id="Grupo_84040" data-name="Grupo 84040">
        <path id="Trazado_117851" data-name="Trazado 117851" d="M11.8,7.631a.821.821,0,0,0,0-1.641A6.457,6.457,0,0,0,5.57,14.161l1.187,4.312V31.75a10.175,10.175,0,0,0-1.837,5.187,10.175,10.175,0,0,0,1.837,5.187V55.179a.821.821,0,0,0,1.641,0V41.865a.824.824,0,0,0-.163-.491,8.932,8.932,0,0,1-1.674-4.437A8.931,8.931,0,0,1,8.235,32.5.821.821,0,0,0,8.4,32.01V18.362a.818.818,0,0,0-.029-.218L7.152,13.725A4.816,4.816,0,0,1,11.8,7.631Z"/>
        <path id="Trazado_117852" data-name="Trazado 117852" d="M15.077,7.631h9.26a.821.821,0,0,0,0-1.641H21.789a5.837,5.837,0,0,0,1.322-3.684V.821a.821.821,0,1,0-1.641,0V2.306A4.2,4.2,0,0,1,19.257,5.99H15.077a.821.821,0,0,0,0,1.641Z"/>
        <path id="Trazado_117853" data-name="Trazado 117853" d="M20.155,32.591a.817.817,0,0,0,.246-.038,10.206,10.206,0,0,0,6.091-5.222.821.821,0,1,0-1.515-.631,8.586,8.586,0,0,1-5.068,4.288.821.821,0,0,0,.246,1.6Z"/>
        <path id="Trazado_117854" data-name="Trazado 117854" d="M21.286,25.544a.821.821,0,0,0-1.124-.29,9.291,9.291,0,0,1-2.765.958.821.821,0,0,0,.138,1.629.829.829,0,0,0,.139-.012A10.976,10.976,0,0,0,21,26.668.821.821,0,0,0,21.286,25.544Z"/>
        <path id="Trazado_117855" data-name="Trazado 117855" d="M49.243,31.75V26.086a.821.821,0,0,0-1.641,0V32.01a.82.82,0,0,0,.164.491,8.869,8.869,0,0,1,1.673,4.436,8.932,8.932,0,0,1-1.673,4.436.821.821,0,0,0-.163.491V55.179a.821.821,0,0,0,1.641,0V42.125a10.175,10.175,0,0,0,1.837-5.187,10.174,10.174,0,0,0-1.837-5.187Z"/>
        <path id="Trazado_117856" data-name="Trazado 117856" d="M48.036,9.529a4.779,4.779,0,0,1,.812,4.2l-1.217,4.419a.818.818,0,0,0-.029.218V22.8a.821.821,0,1,0,1.641,0v-4.33l1.187-4.312A6.457,6.457,0,0,0,44.2,5.99H36.743A4.2,4.2,0,0,1,34.53,2.306V.821a.821.821,0,1,0-1.641,0V2.306A5.838,5.838,0,0,0,34.211,5.99H31.663a.821.821,0,0,0,0,1.641H44.2a4.779,4.779,0,0,1,3.831,1.9Z"/>
        <path id="Trazado_117857" data-name="Trazado 117857" d="M43.766,14.114a.821.821,0,0,0-1.141.214C40.1,18.021,35.98,20.7,32.833,20.7a.821.821,0,0,0,0,1.641c2.566,0,5.551-1.4,8.093-3.641v8.57h0a4.939,4.939,0,0,1-2.608,4.853C37,33.058,35.5,34.114,35.5,36.937c0,2.9,1.618,3.719,2.919,4.375a3.582,3.582,0,0,1,2.468,3.374H22.53a.821.821,0,0,0,0,1.641h6.838v2.735H13.98V46.6a.274.274,0,0,1,.274-.274h4.994a.821.821,0,0,0,0-1.641H15.109a3.582,3.582,0,0,1,2.468-3.374c1.3-.656,2.919-1.472,2.919-4.375,0-2.823-1.5-3.879-2.815-4.811a4.939,4.939,0,0,1-2.608-4.853h0V18.7c2.542,2.244,5.527,3.641,8.093,3.641a.821.821,0,1,0,0-1.641c-3.147,0-7.265-2.681-9.792-6.374a.821.821,0,0,0-1.354.927,18.482,18.482,0,0,0,1.412,1.808V44.874A1.915,1.915,0,0,0,12.338,46.6v8.578a.821.821,0,1,0,1.641,0V50.7H29.367v4.476a.821.821,0,1,0,1.641,0V50.7H42.02v4.476a.821.821,0,0,0,1.641,0V46.6a1.915,1.915,0,0,0-1.094-1.727V17.063a18.516,18.516,0,0,0,1.412-1.808.82.82,0,0,0-.214-1.14ZM16.735,33.467c1.231.869,2.121,1.5,2.121,3.47,0,1.893-.8,2.3-2.017,2.91a7.863,7.863,0,0,0-1.765,1.106V32.1a10.314,10.314,0,0,0,1.661,1.366Zm22.427,6.38c-1.214-.612-2.017-1.017-2.017-2.91,0-1.973.889-2.6,2.121-3.47A10.3,10.3,0,0,0,40.926,32.1v8.852A7.863,7.863,0,0,0,39.162,39.847Zm-8.153,9.216V46.328H41.747a.274.274,0,0,1,.274.274v2.462Z"/>
        <path id="Trazado_117858" data-name="Trazado 117858" d="M31.022,26.7a.821.821,0,1,0-1.515.631A10.206,10.206,0,0,0,35.6,32.553a.821.821,0,1,0,.492-1.566A8.587,8.587,0,0,1,31.022,26.7Z"/>
        <path id="Trazado_117859" data-name="Trazado 117859" d="M38.326,27.83a.821.821,0,0,0,.277-1.618,9.29,9.29,0,0,1-2.765-.958A.821.821,0,1,0,35,26.668a10.977,10.977,0,0,0,3.322,1.162Z"/>
        <path id="Trazado_117860" data-name="Trazado 117860" d="M28,39.3a.821.821,0,0,0,.821-.821v-2.2a.821.821,0,1,0-1.641,0v2.2A.821.821,0,0,0,28,39.3Z"/>
        <path id="Trazado_117861" data-name="Trazado 117861" d="M21.431,12.215a.821.821,0,0,0,.821.821H25.8a.821.821,0,1,0,0-1.641h-3.55a.821.821,0,0,0-.821.821Z"/>
        <path id="Trazado_117862" data-name="Trazado 117862" d="M25.8,15.333h-3.55a.821.821,0,0,0,0,1.641H25.8a.821.821,0,1,0,0-1.641Z"/>
        <path id="Trazado_117863" data-name="Trazado 117863" d="M30.2,13.036h3.55a.821.821,0,1,0,0-1.641H30.2a.821.821,0,0,0,0,1.641Z"/>
        <path id="Trazado_117864" data-name="Trazado 117864" d="M30.2,16.974h3.55a.821.821,0,1,0,0-1.641H30.2a.821.821,0,0,0,0,1.641Z"/>
      </g>
    </g>
  </g>
</svg>
