<svg xmlns="http://www.w3.org/2000/svg" width="240" height="373" viewBox="0 0 240 373">
  <g id="Grupo_80446" data-name="Grupo 80446" transform="translate(-1180 -5217)">
    <rect id="Rectángulo_33777" data-name="Rectángulo 33777" width="240" height="373" transform="translate(1180 5217)" fill="#cee284"/>
    <circle id="Elipse_4737" data-name="Elipse 4737" cx="119" cy="119" r="119" transform="translate(1181 5268)" fill="#adce32"/>
    <g id="gitano" transform="translate(1191 5330.003)">
      <path id="Trazado_114109" data-name="Trazado 114109" d="M344.508,224.658c-3.481-3.073-3.759-5.969-4.144-9.978-.426-4.461-.958-10.013-6.782-15.157s-11.4-4.985-15.879-4.854c-4.025.113-6.933.2-10.414-2.874s-3.759-5.971-4.142-9.978c-.428-4.463-.96-10.015-6.784-15.157s-11.4-4.981-15.879-4.854c-2.585.073-4.709.129-6.822-.651a13.446,13.446,0,0,1-1.238-.561,12.194,12.194,0,0,1-2.176-1.515,11.634,11.634,0,0,1-2.115-2.676c-.014-.026-.032-.048-.048-.073-.044-.071-.089-.139-.137-.206-.032-.044-.061-.083-.093-.125-.048-.061-.1-.121-.145-.179s-.077-.087-.117-.129-.1-.1-.145-.143-.093-.087-.143-.129-.1-.081-.145-.119l-.159-.119-.153-.1c-.056-.034-.109-.067-.167-.1s-.113-.063-.171-.091-.107-.054-.161-.077-.131-.058-.2-.081c-.05-.02-.1-.038-.149-.056-.073-.026-.147-.048-.222-.067-.044-.014-.089-.026-.135-.036-.079-.02-.159-.036-.238-.05-.046-.008-.089-.016-.135-.022-.079-.012-.161-.02-.24-.026-.05,0-.1-.008-.147-.01-.075,0-.151,0-.226,0-.057,0-.117,0-.175.006s-.131.01-.2.018-.141.018-.21.03-.111.018-.167.03c-.077.016-.155.036-.232.058-.03.008-.06.012-.089.022s-.042.016-.064.022c-.071.022-.143.048-.212.075s-.119.046-.179.071-.107.052-.163.077c-.071.036-.141.071-.208.109-.018.012-.038.02-.056.03s-.048.034-.073.048c-.071.046-.141.089-.208.139-.044.03-.083.062-.125.091-.06.048-.119.1-.177.145s-.087.079-.131.121-.1.091-.139.139-.091.1-.137.149-.073.089-.109.135-.087.115-.127.173-.063.091-.093.137c-.038.061-.075.121-.109.184s-.056.1-.081.151-.06.119-.087.181-.05.115-.071.175-.044.113-.064.171-.042.133-.061.2-.03.107-.042.161c-.018.071-.032.143-.046.214-.008.054-.018.105-.024.159-.01.073-.018.145-.024.218-.006.056-.008.113-.01.169s0,.137,0,.206,0,.127.008.192.01.121.016.181c.008.075.018.149.03.222l.03.157c.018.079.036.159.06.238.008.03.012.06.02.087s.022.061.032.093.02.065.032.1c2.251,7.294,7.012,10.083,10.848,12.322,3.477,2.029,5.991,3.5,7.32,7.946s.034,7.054-1.757,10.658c-2,4.013-4.481,9.008-2.255,16.452s7.042,10.255,10.912,12.515c3.475,2.029,5.989,3.5,7.32,7.946s.034,7.054-1.76,10.66c-2,4.013-4.479,9.008-2.253,16.452s7.042,10.255,10.912,12.517c3.477,2.029,5.991,3.5,7.32,7.946a3.96,3.96,0,0,0,3.791,2.827,4.029,4.029,0,0,0,1.135-.167,3.958,3.958,0,0,0,2.658-4.925c-2.224-7.445-7.042-10.257-10.912-12.517-3.477-2.031-5.991-3.5-7.32-7.948s-.036-7.056,1.757-10.66c2-4.013,4.479-9.008,2.253-16.452s-7.042-10.255-10.912-12.515c-3.475-2.029-5.989-3.5-7.32-7.946-1.15-3.852-.333-6.322,1.069-9.256a18.713,18.713,0,0,0,2.561,7.206c3.932,6.651,9.275,8.19,13.568,9.428,3.842,1.109,6.617,1.908,8.948,5.852s1.694,6.762.813,10.662c-.986,4.36-2.212,9.785,1.718,16.434a3.957,3.957,0,1,0,6.814-4.027c-2.331-3.943-1.694-6.76-.813-10.662.986-4.358,2.212-9.783-1.718-16.434s-9.275-8.19-13.568-9.428c-3.842-1.109-6.617-1.908-8.948-5.852s-1.694-6.76-.811-10.66c.936-4.144,2.089-9.254-1.178-15.462,3.416,3.051,3.7,5.935,4.076,9.916.428,4.461.96,10.013,6.782,15.155s11.4,4.983,15.879,4.854c4.027-.113,6.933-.2,10.414,2.876s3.759,5.971,4.144,9.978c.428,4.461.96,10.015,6.784,15.157a3.957,3.957,0,1,0,5.239-5.933Zm0,0" transform="translate(-128.351 -76.025)" fill="#f76937"/>
      <path id="Trazado_114110" data-name="Trazado 114110" d="M286.928,299.254a20.815,20.815,0,0,0-8.627-21.425,11.945,11.945,0,0,1-4.923-6,26.572,26.572,0,0,1-1.835-9.634,34.347,34.347,0,0,0-2.4-12.167,3.957,3.957,0,1,0-7.341,2.956,26.565,26.565,0,0,1,1.835,9.634,34.362,34.362,0,0,0,2.4,12.168,19.7,19.7,0,0,0,7.558,9.406,12.944,12.944,0,0,1,5.53,13.739,19.711,19.711,0,0,0,1.069,12.019,3.961,3.961,0,0,0,3.674,2.48,3.915,3.915,0,0,0,1.476-.288,3.957,3.957,0,0,0,2.194-5.147,11.951,11.951,0,0,1-.609-7.74Zm0,0" transform="translate(-128.716 -121.84)" fill="#f76937"/>
      <path id="Trazado_114111" data-name="Trazado 114111" d="M170.8,381a15.583,15.583,0,0,1-15.581,15.581H15.581A15.582,15.582,0,0,1,0,381a70.97,70.97,0,0,1,20.854-50.344c.153-.153.3-.3.452-.444,7.762-7.623,17.256-9.924,27.84-10.833A20.223,20.223,0,0,0,67.635,299.22V277.507h35.533V299.22a20.223,20.223,0,0,0,18.489,20.162c10.253.881,19.487,3.061,27.112,10.126.248.232.49.464.734.7A71,71,0,0,1,170.8,381Zm0,0" transform="translate(0 -136.587)" fill="#e3a76f"/>
      <path id="Trazado_114112" data-name="Trazado 114112" d="M190.581,381A15.583,15.583,0,0,1,175,396.584H55.764A15.581,15.581,0,0,1,40.183,381a70.968,70.968,0,0,1,20.852-50.344c.153-.153.3-.3.454-.444,7.762-7.623,17.256-9.924,27.84-10.833a20.223,20.223,0,0,0,18.489-20.162V277.507h15.127V299.22a20.223,20.223,0,0,0,18.489,20.162c10.253.881,19.487,3.061,27.112,10.126.248.232.49.464.734.7A71,71,0,0,1,190.581,381Zm0,0" transform="translate(-19.778 -136.587)" fill="#f2bb88"/>
      <path id="Trazado_114113" data-name="Trazado 114113" d="M170.8,432.085a15.584,15.584,0,0,1-15.581,15.581H15.581A15.582,15.582,0,0,1,0,432.085a70.97,70.97,0,0,1,20.854-50.344c.153-.153.3-.3.452-.444,15.851,8.422,38.7,13.709,64.1,13.709s48.25-5.286,64.1-13.713a71,71,0,0,1,21.3,50.792Zm0,0" transform="translate(0 -187.669)" fill="#a88ac8"/>
      <path id="Trazado_114114" data-name="Trazado 114114" d="M35.987,447.671H15.581A15.582,15.582,0,0,1,0,432.089a70.97,70.97,0,0,1,20.854-50.344c.153-.153.3-.3.452-.444a97.988,97.988,0,0,0,14.748,6.254,70.869,70.869,0,0,0-15.649,44.534,15.581,15.581,0,0,0,15.581,15.581Zm0,0" transform="translate(0 -187.674)" fill="#9773bd"/>
      <path id="Trazado_114115" data-name="Trazado 114115" d="M69.805,189.184a20.078,20.078,0,1,1-20.078-20.078A20.079,20.079,0,0,1,69.805,189.184Zm0,0" transform="translate(-14.593 -83.233)" fill="#f2bb88"/>
      <path id="Trazado_114116" data-name="Trazado 114116" d="M267.785,189.191a20.078,20.078,0,1,1-20.078-20.078A20.078,20.078,0,0,1,267.785,189.191Zm0,0" transform="translate(-112.037 -83.236)" fill="#f2bb88"/>
      <path id="Trazado_114117" data-name="Trazado 114117" d="M169.783,52.214V120.26a52.2,52.2,0,0,1-104.4,0V52.214a52.2,52.2,0,1,1,104.4,0Zm0,0" transform="translate(-32.179 -0.003)" fill="#f2bb88"/>
      <g id="Grupo_80444" data-name="Grupo 80444" transform="translate(41.899 85.561)">
        <path id="Trazado_114118" data-name="Trazado 114118" d="M164.669,264.156a3.957,3.957,0,0,0-3.957,3.959,6.664,6.664,0,0,1-13.328,0,3.957,3.957,0,1,0-7.915,0,14.579,14.579,0,0,0,29.157,0,3.957,3.957,0,0,0-3.957-3.959Zm0,0" transform="translate(-110.545 -215.577)" fill="#bc3f2a"/>
        <path id="Trazado_114119" data-name="Trazado 114119" d="M222.118,210.779a6.309,6.309,0,1,1-6.308-6.31A6.309,6.309,0,0,1,222.118,210.779Zm0,0" transform="translate(-145.014 -186.199)" fill="#bc3f2a"/>
        <path id="Trazado_114120" data-name="Trazado 114120" d="M224.2,171.8c-8.494-5.34-22.141-2.7-23.669-2.38a3.957,3.957,0,1,0,1.615,7.748c3.063-.641,12.913-1.765,17.841,1.333a3.958,3.958,0,0,0,4.213-6.7Zm0,0" transform="translate(-139.05 -168.491)" fill="#bc3f2a"/>
        <path id="Trazado_114121" data-name="Trazado 114121" d="M114.627,210.779a6.31,6.31,0,1,1-6.31-6.31A6.309,6.309,0,0,1,114.627,210.779Zm0,0" transform="translate(-92.106 -186.199)" fill="#bc3f2a"/>
        <path id="Trazado_114122" data-name="Trazado 114122" d="M108.03,169.425c-1.527-.319-15.175-2.958-23.669,2.382a3.958,3.958,0,0,0,4.213,6.7c4.921-3.094,14.55-2.011,17.845-1.333a3.958,3.958,0,0,0,1.611-7.75Zm0,0" transform="translate(-82.51 -168.492)" fill="#bc3f2a"/>
      </g>
      <path id="Trazado_114123" data-name="Trazado 114123" d="M109.771,117.294V93.234a3.957,3.957,0,1,0-7.915,0V117.3a5.672,5.672,0,1,0,7.915,0Zm0,0" transform="translate(-49.288 -43.941)" fill="#fff04a"/>
      <path id="Trazado_114124" data-name="Trazado 114124" d="M223.5,117.294V93.234a3.957,3.957,0,1,0-7.915,0v24.059a5.673,5.673,0,1,0,7.915,0Zm0,0" transform="translate(-105.266 -43.941)" fill="#fff04a"/>
      <path id="Trazado_114125" data-name="Trazado 114125" d="M145.639,103.085V79.024a3.957,3.957,0,0,0-7.915,0v24.061a5.673,5.673,0,1,0,7.915,0Zm0,0" transform="translate(-66.942 -36.947)" fill="#fff04a"/>
      <path id="Trazado_114126" data-name="Trazado 114126" d="M187.639,103.085V79.024a3.958,3.958,0,0,0-7.917,0v24.061a5.672,5.672,0,1,0,7.917,0Zm0,0" transform="translate(-87.614 -36.947)" fill="#fff04a"/>
      <path id="Trazado_114127" data-name="Trazado 114127" d="M51.211,175.738,64.48,224.672A86.008,86.008,0,0,1,61.8,277.849l-8.127,21.139a4.034,4.034,0,0,1-7.754-.4l-7.1-24.99a86.144,86.144,0,0,1-.8-43.911Zm0,0" transform="translate(-17.5 -86.497)" fill="#644189"/>
      <path id="Trazado_114128" data-name="Trazado 114128" d="M169.783,52.209V84.9a1.319,1.319,0,0,1-.895,1.275,1.281,1.281,0,0,1-1.613-.837A52.206,52.206,0,0,0,81.211,63.9c-.184.175-.365.353-.544.534A52.063,52.063,0,0,0,66.532,90.41a.583.583,0,0,1-1.152-.123V52.794C65.379,24.058,88.36.266,117.1,0a53.057,53.057,0,0,1,8.4.6,52.213,52.213,0,0,1,44.286,51.61Zm0,0" transform="translate(-32.179 0)" fill="#9773bd"/>
      <path id="Trazado_114129" data-name="Trazado 114129" d="M185.128,52.79V85.528a1.283,1.283,0,0,1-2.507.387A52.206,52.206,0,0,0,96.555,64.478V52.79A52.218,52.218,0,0,1,140.841,1.18a52.213,52.213,0,0,1,44.286,51.61Zm0,0" transform="translate(-47.524 -0.581)" fill="#a88ac8"/>
      <path id="Trazado_114130" data-name="Trazado 114130" d="M60.235,447.894V478.5H52.32V447.894a3.957,3.957,0,1,1,7.915,0Zm0,0" transform="translate(-25.752 -218.503)" fill="#644189"/>
      <path id="Trazado_114131" data-name="Trazado 114131" d="M276.368,447.894V478.5h-7.915V447.894a3.957,3.957,0,0,1,7.915,0Zm0,0" transform="translate(-132.131 -218.503)" fill="#644189"/>
    </g>
  </g>
</svg>
