<svg xmlns="http://www.w3.org/2000/svg" width="436.415" height="357.68" viewBox="0 0 436.415 357.68">
  <g id="Grupo_80533" data-name="Grupo 80533" transform="translate(-270.515 -263.308)">
    <g id="Grupo_80532" data-name="Grupo 80532" transform="translate(270.515 263.308)">
      <g id="Grupo_80453" data-name="Grupo 80453" transform="translate(25.18 0.26)">
        <path id="Trazado_114133" data-name="Trazado 114133" d="M654.112,614.273H277.027a982.061,982.061,0,0,1,4.122-126.05q3.032-30.2,8.263-60.274c4.495-25.653,10.187-51.522,20.982-75.117.9-1.982,1.845-3.965,2.826-5.908,1.668-3.315,3.454-6.593,5.358-9.794a154.316,154.316,0,0,1,13.72-19.51c.726-.862,1.433-1.686,2.139-2.51,2.061-2.377,4.181-4.693,6.4-6.95,1.315-1.372,2.689-2.748,4.083-4.041a158.2,158.2,0,0,1,17.233-14.367c.451-.353.922-.689,1.394-1q4.357-3.091,8.891-5.91,5.476-3.383,11.207-6.338a169.489,169.489,0,0,1,16.585-7.478,164.962,164.962,0,0,1,20.138-6.361c41.925-10.342,87.343-4.3,125.95,15,3.023,1.511,5.986,3.1,8.931,4.787a170.1,170.1,0,0,1,20.9,13.955c3.219,2.514,6.359,5.125,9.343,7.892.059.039.1.1.157.135a161.153,161.153,0,0,1,24.829,28.855c.53.744,1.021,1.509,1.531,2.277.687,1.038,1.354,2.079,1.982,3.121a202.614,202.614,0,0,1,17.94,36.074c2.218,5.731,4.22,11.58,5.986,17.508a292.593,292.593,0,0,1,7.557,31.07c.452,2.3.844,4.593,1.217,6.891,1.825,10.874,3.121,21.806,3.984,32.658,3.042,38.727,1.943,80.1,2.532,120.533C653.366,593.76,653.621,604.084,654.112,614.273Z" transform="translate(-276.575 -257.663)" fill="#cee284"/>
      </g>
      <g id="Grupo_80509" data-name="Grupo 80509">
        <g id="Grupo_80486" data-name="Grupo 80486">
          <g id="Grupo_80454" data-name="Grupo 80454" transform="translate(63.009 71.101)">
            <path id="Trazado_114134" data-name="Trazado 114134" d="M352.371,331.749c-1.411,8.919-1.959,18.089-5.15,26.536a37.189,37.189,0,0,1-13.894,18.034c-5.087,3.35-11.029,5.154-16.36,8.1a43.311,43.311,0,0,0-17.859,18.791c-3.421,7.017-4.773,15.682-.956,22.493,3.806,6.793,11.708,10.114,19.249,12.061,25.808,6.662,53.252,2.74,78.874-4.607,5.906-1.692,12.045-3.741,16.2-8.271,3.023-3.3,4.693-7.621,5.771-11.963,2.526-10.175,2.138-20.848.991-31.271a221.144,221.144,0,0,0-8.518-41.053c-3.386-10.964-7.733-21.847-14.933-30.786-5.99-7.441-14.664-14.108-24.258-15.879-10.053-1.855-12.275,11.007-14.577,18.34A136.059,136.059,0,0,0,352.371,331.749Z" transform="translate(-295.848 -293.756)" fill="#29100d"/>
          </g>
          <g id="Grupo_80464" data-name="Grupo 80464">
            <g id="Grupo_80455" data-name="Grupo 80455" transform="translate(0 40.933)">
              <path id="Trazado_114135" data-name="Trazado 114135" d="M335.042,504.229S280.92,464.14,269.9,436.743s-6.683-52.451,8.685-74.167,72.163-84.191,72.163-84.191l31.571,27.9s-62.306,89.7-55.291,99.39,36.749,25.057,36.749,25.057Z" transform="translate(-263.746 -278.386)" fill="#ffa686"/>
            </g>
            <g id="Grupo_80463" data-name="Grupo 80463" transform="translate(84.242)">
              <g id="Grupo_80456" data-name="Grupo 80456">
                <path id="Trazado_114136" data-name="Trazado 114136" d="M306.666,302.223,328.2,271s11.1-13.466,15.1-13.466a6.075,6.075,0,0,1,5.476,3.4s4.291-2.96,7.99-1.184a9.754,9.754,0,0,1,4.736,5.92s2.813-2.369,6.956.147a6.816,6.816,0,0,1,3.107,7.1,10.649,10.649,0,0,1,8.732,5.327c3.4,5.476-7.992,17.908-11.989,22.642s-14.8,16.723-19.09,21.755-16.426,10.063-16.426,10.063Z" transform="translate(-306.666 -257.531)" fill="#ffa686"/>
              </g>
              <g id="Grupo_80462" data-name="Grupo 80462" transform="translate(18.434 2.968)">
                <g id="Grupo_80457" data-name="Grupo 80457" transform="translate(3.347 2.04)">
                  <path id="Trazado_114137" data-name="Trazado 114137" d="M322.6,287.845a4.66,4.66,0,0,1-3.686-1.959,6.936,6.936,0,0,1-1.085-4.95,18.009,18.009,0,0,1,1.46-4.748,134.162,134.162,0,0,1,7.935-15.891.434.434,0,0,1,.6-.155.44.44,0,0,1,.155.6,132.573,132.573,0,0,0-7.886,15.786,17.406,17.406,0,0,0-1.4,4.518,6.1,6.1,0,0,0,.924,4.334,3.648,3.648,0,0,0,3.784,1.486.435.435,0,0,1,.245.834A3.761,3.761,0,0,1,322.6,287.845Z" transform="translate(-317.763 -260.082)" fill="#29100d"/>
                </g>
                <g id="Grupo_80458" data-name="Grupo 80458" transform="translate(8.939)">
                  <path id="Trazado_114138" data-name="Trazado 114138" d="M325.789,293.248a6.039,6.039,0,0,1-2.253-.4,4.88,4.88,0,0,1-2.732-2.9c-2.053-5.25,13.044-29.653,13.688-30.692a.435.435,0,1,1,.738.461c-4.322,6.956-15.192,25.891-13.618,29.912a4.048,4.048,0,0,0,2.249,2.416c2.373.958,5.46-.418,5.49-.432a.439.439,0,0,1,.575.214.434.434,0,0,1-.214.575A10.462,10.462,0,0,1,325.789,293.248Z" transform="translate(-320.612 -259.043)" fill="#29100d"/>
                </g>
                <g id="Grupo_80459" data-name="Grupo 80459" transform="translate(0 12.212)">
                  <path id="Trazado_114139" data-name="Trazado 114139" d="M349.346,301.317a.437.437,0,0,1-.434-.389q-.4-3.857-.822-7.71c-.485-4.451-1.068-9.71-1.715-14.974-.263-2.132-.53-4.259-.836-6.383-.045-.316-.084-.658-.12-1.017-.179-1.651-.379-3.523-1.645-4.332a4.548,4.548,0,0,0-3.066-.232,11.992,11.992,0,0,0-2.595.6c-2.326.926-2.616,3.437-2.9,5.863-.035.324-.075.642-.114.952-.269,1.994-.449,4.145-.585,6.972-.151,3.162-.206,6.032-.161,8.776a.425.425,0,0,1-.126.31.436.436,0,0,1-.306.133,32.772,32.772,0,0,0-17.176,5.133.434.434,0,0,1-.506-.7,33.659,33.659,0,0,1,17.239-5.292c-.031-2.63.022-5.382.167-8.4.137-2.854.322-5.029.591-7.046.041-.3.077-.618.116-.936.3-2.556.634-5.453,3.441-6.571a12.5,12.5,0,0,1,2.787-.648,5.157,5.157,0,0,1,3.662.357c1.619,1.032,1.853,3.217,2.041,4.972.037.345.071.677.116.981.31,2.132.577,4.267.838,6.4.648,5.272,1.231,10.534,1.715,14.986q.424,3.86.826,7.714a.436.436,0,0,1-.387.479Z" transform="translate(-316.058 -265.265)" fill="#29100d"/>
                </g>
                <g id="Grupo_80460" data-name="Grupo 80460" transform="translate(28.525 4.439)">
                  <path id="Trazado_114140" data-name="Trazado 114140" d="M331.025,271.832a.436.436,0,0,1-.351-.691l6.991-9.655a.435.435,0,0,1,.707.508l-6.993,9.657A.436.436,0,0,1,331.025,271.832Z" transform="translate(-330.591 -261.305)" fill="#29100d"/>
                </g>
                <g id="Grupo_80461" data-name="Grupo 80461" transform="translate(31.41 11.987)">
                  <path id="Trazado_114141" data-name="Trazado 114141" d="M332.495,287.443a.437.437,0,0,1-.3-.124.432.432,0,0,1-.012-.612c.037-.041.979-1.04,5.4-7.06,6.662-9.062,9.109-14.195,9.133-14.248a.435.435,0,0,1,.787.373c-.024.049-2.5,5.25-9.219,14.389-4.5,6.128-5.441,7.111-5.478,7.148A.435.435,0,0,1,332.495,287.443Z" transform="translate(-332.061 -265.15)" fill="#29100d"/>
                </g>
              </g>
            </g>
          </g>
          <g id="Grupo_80465" data-name="Grupo 80465" transform="translate(166.239 50.841)">
            <path id="Trazado_114142" data-name="Trazado 114142" d="M398.661,290.6c6.14,2.134,12.234,5.235,16.108,10.452,6.652,8.964,5.058,21.439,2.418,32.283-1.223,5.033-2.593,10.42-.775,15.268,1.317,3.513,4.141,6.228,7.042,8.607,10.507,8.618,23.716,15.2,29.526,27.481,2.932,6.2,3.6,13.235,3.482,20.093-.141,7.884-1.307,15.863-4.585,23.035s-8.828,13.5-16.059,16.646c-5.358,2.336-11.321,2.834-17.162,3.036a191.473,191.473,0,0,1-37.279-2.365c-5.2-.844-10.5-1.961-14.913-4.838-6.548-4.275-10.181-11.812-12.56-19.261-6.265-19.618-5.92-40.672-4.85-61.238.909-17.506,2.314-35.075,6.377-52.127,1.431-6,3.27-12.089,7.109-16.915,3.678-4.624,10.45-8.642,16.534-6.915C385.561,285.686,392.248,288.371,398.661,290.6Z" transform="translate(-348.442 -283.434)" fill="#29100d"/>
          </g>
          <g id="Grupo_80466" data-name="Grupo 80466" transform="translate(143.625 154.858)">
            <path id="Trazado_114143" data-name="Trazado 114143" d="M392.377,375.178s-6.673,9.362-21.708,11.7-26.063-6.679-26.063-6.679-.667-13.19-1-22.552c-.332-9.343-6.681-21.214-6.681-21.214l21.3,3.555,31.149,5.125,2.2,22.081Z" transform="translate(-336.921 -336.429)" fill="#ff9d86"/>
          </g>
          <g id="Grupo_80467" data-name="Grupo 80467" transform="translate(158.142 158.412)" opacity="0.52">
            <path id="Trazado_114144" data-name="Trazado 114144" d="M384.452,365.446c-5.358,2.373-11.934,1.472-17.8.057-6.713-1.629-18.744-4.868-21.846-11.99-1.924-4.436,2.2-11.052,6.3-15.272l31.149,5.125Z" transform="translate(-344.317 -338.24)" fill="#29100d"/>
          </g>
          <g id="Grupo_80484" data-name="Grupo 80484" transform="translate(118.387 47.815)">
            <g id="Grupo_80470" data-name="Grupo 80470" transform="translate(0 1.806)">
              <g id="Grupo_80468" data-name="Grupo 80468" transform="translate(12.543)">
                <path id="Trazado_114145" data-name="Trazado 114145" d="M422.762,328.315c-1.617-11.058-4.575-22.107-12.047-30.352a46.083,46.083,0,0,0-79.82,37.275l-.108.026s7.017,41.092,15.7,60.471c4.77,10.636,17.335,13.855,27.961,14.469a90.75,90.75,0,0,0,19.445-1.14c6.936-1.1,14.281-1.649,19.951-6.173,9.5-7.58,11.567-19.459,12.12-30.917C426.664,357.5,424.85,342.592,422.762,328.315Z" transform="translate(-330.453 -282.812)" fill="#ff9d86"/>
              </g>
              <g id="Grupo_80469" data-name="Grupo 80469" transform="translate(0 75.249)">
                <path id="Trazado_114146" data-name="Trazado 114146" d="M338.345,321.452c-3.757-.773-8.006-.11-10.752,2.567a12.292,12.292,0,0,0-3.242,6.658,18.691,18.691,0,0,0,22.218,21.647,12.718,12.718,0,0,0,4.644-1.874c3.645-2.516,5.129-7.4,4.5-11.786C354.43,329.615,347.042,323.242,338.345,321.452Z" transform="translate(-324.062 -321.15)" fill="#ff9d86"/>
              </g>
            </g>
            <g id="Grupo_80479" data-name="Grupo 80479" transform="translate(52.153 57.057)">
              <g id="Grupo_80471" data-name="Grupo 80471" transform="translate(23.242 36.618)">
                <path id="Trazado_114147" data-name="Trazado 114147" d="M378.256,334.158a61.93,61.93,0,0,1-8.224,1.549,42.514,42.514,0,0,1-7.557.61,13.526,13.526,0,0,1,.883-1.354,14.524,14.524,0,0,1,4.377-4.163,7.5,7.5,0,0,1,5.731-.962A8.1,8.1,0,0,1,378.256,334.158Z" transform="translate(-362.475 -329.618)" fill="#fff"/>
              </g>
              <g id="Grupo_80478" data-name="Grupo 80478">
                <g id="Grupo_80472" data-name="Grupo 80472" transform="translate(1.677 12.65)">
                  <path id="Trazado_114148" data-name="Trazado 114148" d="M361.233,322.281a4.873,4.873,0,1,1-4.872-4.874A4.873,4.873,0,0,1,361.233,322.281Z" transform="translate(-351.488 -317.407)" fill="#29100d"/>
                </g>
                <g id="Grupo_80473" data-name="Grupo 80473" transform="translate(39.947 11.182)">
                  <path id="Trazado_114149" data-name="Trazado 114149" d="M379.546,320.94a4.28,4.28,0,1,1-4.281-4.281A4.279,4.279,0,0,1,379.546,320.94Z" transform="translate(-370.986 -316.659)" fill="#29100d"/>
                </g>
                <g id="Grupo_80474" data-name="Grupo 80474" transform="translate(22.277 6.442)">
                  <path id="Trazado_114150" data-name="Trazado 114150" d="M364.365,342.583a2,2,0,0,1-.473-.057c-1.327-.31-2-1.729-1.9-4a.524.524,0,0,1,.514-.467.492.492,0,0,1,.467.514c-.037.813,0,2.728,1.138,3a2.563,2.563,0,0,0,1.766-.6,5.01,5.01,0,0,1,1.751-.775,4.913,4.913,0,0,1,2.6.518,3.192,3.192,0,0,0,2.251.371,3.553,3.553,0,0,0,1.013-.736,2.985,2.985,0,0,1,1.92-1.019,3.3,3.3,0,0,1,1.244.32,3.079,3.079,0,0,0,.858.241c.552-.016.981-.628,1.066-1.184a4.982,4.982,0,0,0-.353-2.141,162.772,162.772,0,0,1-5.246-21.751.487.487,0,0,1,.4-.565.474.474,0,0,1,.565.4,162.172,162.172,0,0,0,5.215,21.622,5.736,5.736,0,0,1,.389,2.581,2.27,2.27,0,0,1-2.008,2.02H377.5a3.122,3.122,0,0,1-1.217-.32,3.145,3.145,0,0,0-.85-.241,2.187,2.187,0,0,0-1.276.762,4.331,4.331,0,0,1-1.319.928,3.979,3.979,0,0,1-2.968-.377,4.117,4.117,0,0,0-2.079-.459,4.266,4.266,0,0,0-1.405.646A4.024,4.024,0,0,1,364.365,342.583Z" transform="translate(-361.984 -314.244)" fill="#29100d"/>
                </g>
                <g id="Grupo_80475" data-name="Grupo 80475" transform="translate(38.57)">
                  <path id="Trazado_114151" data-name="Trazado 114151" d="M382.77,313.62a2.212,2.212,0,0,1,.444.979c.131,1.079-1.007,1.847-2.016,2.253a19.649,19.649,0,0,1-6.7,1.4,5.581,5.581,0,0,1-1.927-.2,3.3,3.3,0,0,1-2.114-2.259C368.768,309.314,380.289,310.158,382.77,313.62Z" transform="translate(-370.285 -310.962)" fill="#29100d"/>
                </g>
                <g id="Grupo_80476" data-name="Grupo 80476" transform="translate(0 2.544)">
                  <path id="Trazado_114152" data-name="Trazado 114152" d="M350.98,315.636a2.184,2.184,0,0,0-.345,1.017c-.029,1.087,1.178,1.743,2.22,2.049a19.575,19.575,0,0,0,6.811.754,5.573,5.573,0,0,0,1.9-.385,3.29,3.29,0,0,0,1.886-2.45C364.5,310.007,353.117,311.952,350.98,315.636Z" transform="translate(-350.634 -312.258)" fill="#29100d"/>
                </g>
                <g id="Grupo_80477" data-name="Grupo 80477" transform="translate(22.77 41.158)">
                  <path id="Trazado_114153" data-name="Trazado 114153" d="M378.487,331.931a61.93,61.93,0,0,1-8.224,1.549,42.514,42.514,0,0,1-7.557.61c-.157,0-.314-.02-.471-.02" transform="translate(-362.235 -331.931)" fill="none"/>
                </g>
              </g>
            </g>
            <g id="Grupo_80480" data-name="Grupo 80480" transform="translate(2.807)">
              <path id="Trazado_114154" data-name="Trazado 114154" d="M338.528,359.66c1.945,4.41,3.641,7.137,5.888,11.4a35.782,35.782,0,0,0,5.033-8.261c15.5-6.12,29.608-15.977,39.5-29.394s15.38-30.254,14.142-46.875c-1.655-2.077-4.436-2.575-7.027-3.152-10.479-2.334-21.459-1.749-31.944.554a44.645,44.645,0,0,0-12.21,4.245c-6,3.331-10.617,8.707-14.326,14.477a77.4,77.4,0,0,0-10.295,58.013C330.508,358.734,334.269,358.909,338.528,359.66Z" transform="translate(-325.493 -281.892)" fill="#29100d"/>
            </g>
            <g id="Grupo_80483" data-name="Grupo 80483" transform="translate(2.986 83.98)">
              <g id="Grupo_80481" data-name="Grupo 80481">
                <path id="Trazado_114155" data-name="Trazado 114155" d="M346.1,345.251a.488.488,0,0,1-.475-.369,30.853,30.853,0,0,0-9.078-15.094c-2.039-1.851-6.106-4.84-10.379-3.977a.49.49,0,1,1-.192-.962c4.691-.946,9.05,2.236,11.231,4.21a31.863,31.863,0,0,1,9.368,15.58.49.49,0,0,1-.353.595A.517.517,0,0,1,346.1,345.251Z" transform="translate(-325.584 -324.679)" fill="#29100d"/>
              </g>
              <g id="Grupo_80482" data-name="Grupo 80482" transform="translate(2.199 9.257)">
                <path id="Trazado_114156" data-name="Trazado 114156" d="M345.075,340.447a.492.492,0,0,1-.389-.19c-2.542-3.3-6.534-7.847-11.826-9.276a22.065,22.065,0,0,0-5.667-.6h0a.492.492,0,1,1,.053-.981,22.736,22.736,0,0,1,5.871.64c5.576,1.5,9.718,6.214,12.348,9.623a.493.493,0,0,1-.09.689A.485.485,0,0,1,345.075,340.447Z" transform="translate(-326.704 -329.395)" fill="#29100d"/>
              </g>
            </g>
          </g>
          <g id="Grupo_80485" data-name="Grupo 80485" transform="translate(35.721 171.565)">
            <path id="Trazado_114157" data-name="Trazado 114157" d="M524.68,530.6h-.02l-.02-.353H350.622l-3.376-73.309-65.3-31.151,5.829-10.285,23-40.647,12.346-21.787,4.593-8.126s40.59,20.786,67.637,22.552V357.461s.53.2,1.511.532a86.471,86.471,0,0,0,21.1,3.965,57.438,57.438,0,0,0,14.21-.8c1.08-.177,2.179-.434,3.278-.707a39.722,39.722,0,0,0,8.852-3.435c.334-.177.667-.355,1-.552l2.179,12.524s31.718,3.982,56.763,13.816c2.355.924,4.671,1.906,6.87,2.944,1.924.885,3.768,1.806,5.515,2.787l4.141,73.017v.02l2.709,47.931v.037l.02.177,1.158,20.532Z" transform="translate(-281.945 -344.941)" fill="#ecdac9"/>
          </g>
        </g>
        <g id="Grupo_80487" data-name="Grupo 80487" transform="translate(262.394 212.153)">
          <path id="Trazado_114158" data-name="Trazado 114158" d="M405.45,368.627s33.575,18.042,44.1,44.6,15.535,69.156,15.535,69.156l-67.652,9.521,2.5-126.286Z" transform="translate(-397.432 -365.62)" fill="#ecdac9"/>
        </g>
        <g id="Grupo_80507" data-name="Grupo 80507" transform="translate(251.715 75.397)">
          <g id="Grupo_80488" data-name="Grupo 80488" transform="translate(25.524 163.626)">
            <path id="Trazado_114159" data-name="Trazado 114159" d="M472.259,382.411s-.2,3.611-.51,9.5c-1.3,23.771-4.593,84.774-5.1,95.745-.118,2.746-.393,7.007-.53,9.5-.02.214-.039.41-.039.607l-59.864-.253h-.02l-.02-.353-1.158-20.513-.02-.2h.02l13.68-1.863,16.311-86.028.216-1.2,1.531-8.047Z" transform="translate(-404.995 -379.31)" fill="#ffa686"/>
          </g>
          <g id="Grupo_80489" data-name="Grupo 80489" transform="translate(40.498 89.502)">
            <path id="Trazado_114160" data-name="Trazado 114160" d="M427.621,424.919s.7-10.509-1.168-14.713-14.715-29.192-13.781-37.367,8.409-31.294,12.146-31.294,3.969,9.574,4.2,17.983,7.708,18.216,7.708,18.216l35.966,17.592-8.564,34.021Z" transform="translate(-412.624 -341.545)" fill="#ffa686"/>
          </g>
          <g id="Grupo_80492" data-name="Grupo 80492" transform="translate(51.059 85.135)">
            <g id="Grupo_80490" data-name="Grupo 80490" transform="translate(0 0)">
              <path id="Trazado_114161" data-name="Trazado 114161" d="M458.8,407.832l-29.271,7.482-8.452-55.724-3.073-20.27,23.984,1.244,2.652,10.629Z" transform="translate(-418.005 -339.32)" fill="#ecdac9"/>
            </g>
            <g id="Grupo_80491" data-name="Grupo 80491">
              <path id="Trazado_114162" data-name="Trazado 114162" d="M444.642,351.193a90.769,90.769,0,0,1-23.508,8.4h-.055l-3.074-20.269,23.983,1.244Z" transform="translate(-418.005 -339.32)" fill="#0b481e"/>
            </g>
          </g>
          <g id="Grupo_80498" data-name="Grupo 80498" transform="translate(50.885 94.297)">
            <g id="Grupo_80493" data-name="Grupo 80493" transform="translate(1.301 0.09)">
              <path id="Trazado_114163" data-name="Trazado 114163" d="M464,403.606s10.9-22.264,9.5-25.534-3.427-3.892-3.427-3.892.467-9.031-2.8-11.054a23.8,23.8,0,0,0-4.826-2.491s-1.246-6.228-4.671-7.941-4.983-1.246-4.983-1.246-1.712-5.449-6.85-7.16-17.4,5.488-23.7,14.012c-3.405,4.6-5.839,14.634-.7,15.881,0,0-3.27,5.6,0,9.808s9.109-.234,9.109-.234-5.178,4.438-1.753,9.109,10.043-.934,10.043-.934-5.645,1.984-1.753,7.59,24.056-9.343,24.056-9.343l-3,13.117Z" transform="translate(-418.58 -344.034)" fill="#ff9d86"/>
            </g>
            <g id="Grupo_80494" data-name="Grupo 80494">
              <path id="Trazado_114164" data-name="Trazado 114164" d="M421.9,374.76a.456.456,0,0,1-.151-.027,5.3,5.3,0,0,1-3.5-3.482c-1.227-3.825,1.193-9.294,3.121-12.038a44.658,44.658,0,0,1,10.776-10.35c7.759-5.562,14.513-4.866,14.8-4.83a.457.457,0,1,1-.1.909c-.067-.01-6.7-.681-14.161,4.666a43.832,43.832,0,0,0-10.56,10.132c-1.751,2.493-4.114,7.749-3,11.231a4.433,4.433,0,0,0,2.932,2.9.457.457,0,0,1-.151.889Z" transform="translate(-417.917 -343.988)" fill="#29100d"/>
            </g>
            <g id="Grupo_80495" data-name="Grupo 80495" transform="translate(1.819 7.048)">
              <path id="Trazado_114165" data-name="Trazado 114165" d="M425.261,382.693a7.156,7.156,0,0,1-3.3-.73,5.762,5.762,0,0,1-2.866-3.714c-1.78-6.165,6.287-13.849,15.435-21.84a39.987,39.987,0,0,1,17.942-8.827.453.453,0,0,1,.522.381.459.459,0,0,1-.381.524,38.959,38.959,0,0,0-17.48,8.613c-8.563,7.476-16.787,15.249-15.16,20.9a4.9,4.9,0,0,0,2.406,3.154c2.489,1.3,5.843.173,5.882.161a.465.465,0,0,1,.579.285.458.458,0,0,1-.283.581A11.1,11.1,0,0,1,425.261,382.693Z" transform="translate(-418.844 -347.579)" fill="#29100d"/>
            </g>
            <g id="Grupo_80496" data-name="Grupo 80496" transform="translate(10.037 17.752)">
              <path id="Trazado_114166" data-name="Trazado 114166" d="M427.317,386.226a4.5,4.5,0,0,1-1.8-.336,4.392,4.392,0,0,1-2.412-3.6c-1.9-10.833,32.3-28.468,33.756-29.21a.456.456,0,1,1,.416.813c-.349.181-35.061,18.065-33.271,28.24a3.5,3.5,0,0,0,1.872,2.915c3.454,1.5,11.09-3.549,17.812-8a95.392,95.392,0,0,1,8.97-5.523l9.576-4.787a.457.457,0,0,1,.41.817l-9.576,4.787a96.515,96.515,0,0,0-8.878,5.468C437.935,381.961,431.49,386.226,427.317,386.226Z" transform="translate(-423.03 -353.032)" fill="#29100d"/>
            </g>
            <g id="Grupo_80497" data-name="Grupo 80497" transform="translate(17.896 42.626)">
              <path id="Trazado_114167" data-name="Trazado 114167" d="M431.1,380a2.971,2.971,0,0,1-.771-.086,4.134,4.134,0,0,1-2.9-2.216c-1.05-2.267.326-5.192.387-5.315a.457.457,0,0,1,.824.4c-.012.026-1.25,2.663-.379,4.538a3.266,3.266,0,0,0,2.3,1.711c3.8,1.029,20.768-9.221,26.957-13.253a.463.463,0,0,1,.634.133.457.457,0,0,1-.135.634C457.136,367.118,437.273,380,431.1,380Z" transform="translate(-427.034 -365.705)" fill="#29100d"/>
            </g>
          </g>
          <g id="Grupo_80506" data-name="Grupo 80506">
            <g id="Grupo_80499" data-name="Grupo 80499" transform="translate(0 34.626)">
              <path id="Trazado_114168" data-name="Trazado 114168" d="M467.565,369.858s-24.35.677-40.943,1.134c-.53,0-1.042.018-1.555.037-16.575.475-30.825-.934-32.929-20.544-1.959-18.332,16.061-23.91,29.271-26.764.932-.2,1.847-.385,2.726-.567,27.789-5.6,41.326-9.568,41.326-9.568Z" transform="translate(-391.991 -313.586)" fill="#ecdac9"/>
            </g>
            <g id="Grupo_80500" data-name="Grupo 80500" transform="translate(0 44.761)">
              <path id="Trazado_114169" data-name="Trazado 114169" d="M426.622,366.021c-.53,0-1.042.018-1.555.037-16.575.475-30.825-.934-32.929-20.544-1.959-18.332,16.061-23.91,29.271-26.764-.97,2.029-2.416,4.151-3,6.165A46.322,46.322,0,0,0,426.622,366.021Z" transform="translate(-391.991 -318.75)" fill="#0b481e"/>
            </g>
            <g id="Grupo_80505" data-name="Grupo 80505" transform="translate(67.641)">
              <g id="Grupo_80501" data-name="Grupo 80501">
                <path id="Trazado_114170" data-name="Trazado 114170" d="M438.84,313.628c-11.413,15.374-14.617,39.09-10.933,57.6,3.472,17.441,14.674,33.822,31.006,40.859,7.916,3.409,17.168,4.5,25.151,1.252,8.868-3.611,14.968-12,18.705-20.821,6.919-16.316,7.186-34.792,4.318-52.282-2.518-15.357-8.322-34.391-23.522-41.681C467.981,291.08,448.386,300.77,438.84,313.628Z" transform="translate(-426.453 -295.945)" fill="#adce32"/>
              </g>
              <g id="Grupo_80502" data-name="Grupo 80502" transform="translate(11.025 4.832)">
                <path id="Trazado_114171" data-name="Trazado 114171" d="M471.04,408.041a28.44,28.44,0,0,1-12.232-2.942c-12.725-6.12-22.521-20.511-25.561-37.552-2.752-15.419-1.036-37.726,9-52.806,8.132-12.228,24.23-20.764,37.092-13.879,9.943,5.321,16.483,18.209,19.435,38.3,2.711,18.432,1.515,34.535-3.549,47.862-2.55,6.711-7.311,15.49-15.5,19.215A20.938,20.938,0,0,1,471.04,408.041ZM469.6,299.34c-10.138,0-20.75,7.037-26.635,15.883h0c-9.9,14.878-11.584,36.923-8.866,52.172,3,16.776,12.607,30.923,25.088,36.921,7,3.366,14.354,3.782,20.175,1.136,7.926-3.6,12.56-12.175,15.052-18.733,5.011-13.186,6.187-29.145,3.5-47.428-2.911-19.808-9.3-32.48-18.99-37.665A19.544,19.544,0,0,0,469.6,299.34Z" transform="translate(-432.071 -298.407)" fill="#ecdac9"/>
              </g>
              <g id="Grupo_80503" data-name="Grupo 80503" transform="translate(12.965 41.676)">
                <path id="Trazado_114172" data-name="Trazado 114172" d="M435.42,360.272l-.3-.813,40.68-14.876c3.908-11.282-.281-14.988-.785-15.382l-41.956-11.19.222-.834,42.16,11.264c.232.149,5.608,3.835,1.109,16.621l-.067.192-.192.071Z" transform="translate(-433.059 -317.178)" fill="#ecdac9"/>
              </g>
              <g id="Grupo_80504" data-name="Grupo 80504" transform="translate(48.05 52.947)">
                <path id="Trazado_114173" data-name="Trazado 114173" d="M458.749,339.887a12.776,12.776,0,0,1-5.15-2.181c-2.253-1.871-3.185-5.331-2.379-8.815a8.716,8.716,0,0,1,2.312-4.385,5.351,5.351,0,0,1,4.769-1.478l-.19.842a4.51,4.51,0,0,0-3.982,1.262,7.861,7.861,0,0,0-2.065,3.955c-.732,3.168.086,6.291,2.086,7.951a12.131,12.131,0,0,0,4.813,2.008Z" transform="translate(-450.934 -322.921)" fill="#ecdac9"/>
              </g>
            </g>
          </g>
        </g>
        <g id="Grupo_80508" data-name="Grupo 80508" transform="translate(267.948 267.064)">
          <path id="Trazado_114174" data-name="Trazado 114174" d="M410.749,484.212a.458.458,0,0,1-.455-.434l-1.2-21.041a.449.449,0,0,1,.053-.263l.008-.02c.934-1.924,3.975-8.573,4.63-15.078.326-3.239-2.222-14.489-7.366-32.529a.389.389,0,0,1-.018-.126c-3.105-10.87-6.092-20.436-6.124-20.532a.458.458,0,0,1,.875-.271c.027.1,3.023,9.673,6.147,20.66a.537.537,0,0,1,.016.126c3.592,12.55,7.808,28.527,7.378,32.764-.665,6.611-3.723,13.339-4.679,15.307l.006.069,1.182,20.884a.456.456,0,0,1-.432.481Z" transform="translate(-400.262 -393.597)" fill="#29100d"/>
        </g>
      </g>
      <g id="Grupo_80513" data-name="Grupo 80513" transform="translate(233.595 23.105)">
        <g id="Grupo_80510" data-name="Grupo 80510">
          <path id="Trazado_114175" data-name="Trazado 114175" d="M382.851,298.947c3.233-4.738,6.263-9.6,9.256-14.5s6.057-9.8,9.3-14.572a1.3,1.3,0,1,1,2.159,1.46l-.035.049c-3.421,4.585-6.671,9.29-9.883,14.055s-6.479,9.517-9.934,14.122a.531.531,0,0,1-.864-.616Z" transform="translate(-382.76 -269.303)" fill="#0b481e"/>
        </g>
        <g id="Grupo_80511" data-name="Grupo 80511" transform="translate(7.951 14.552)">
          <path id="Trazado_114176" data-name="Trazado 114176" d="M387.08,302.451l35.065-25.484a1.3,1.3,0,1,1,1.533,2.108l-.029.022-.033.022-35.834,24.362a.622.622,0,0,1-.716-1.017Z" transform="translate(-386.81 -276.717)" fill="#0b481e"/>
        </g>
        <g id="Grupo_80512" data-name="Grupo 80512" transform="translate(13.658 41.897)">
          <path id="Trazado_114177" data-name="Trazado 114177" d="M390.073,299.825l29.235-9.117a1.3,1.3,0,1,1,.775,2.489l-.065.02-29.671,7.578a.5.5,0,0,1-.275-.97Z" transform="translate(-389.718 -290.649)" fill="#0b481e"/>
        </g>
      </g>
      <g id="Grupo_80517" data-name="Grupo 80517" transform="translate(356.372 46.673)">
        <g id="Grupo_80514" data-name="Grupo 80514" transform="translate(11.091 80.155)">
          <path id="Trazado_114178" data-name="Trazado 114178" d="M515.754,339.52l4.161-17.372-28.633,17.293,3.429-14.316-43.747,26.43,29.337-11-3.929,16.407Z" transform="translate(-450.964 -322.148)" fill="#0b481e"/>
        </g>
        <g id="Grupo_80515" data-name="Grupo 80515" transform="translate(0.185 115.544)">
          <path id="Trazado_114179" data-name="Trazado 114179" d="M465.392,404.04,483,407.053l-19.133-27.437,14.51,2.483-29.241-41.92,12.9,28.552-16.629-2.845Z" transform="translate(-445.407 -340.178)" fill="#0b481e"/>
        </g>
        <g id="Grupo_80516" data-name="Grupo 80516">
          <path id="Trazado_114180" data-name="Trazado 114180" d="M474.519,295.054l-11.41-13.744-3.322,33.284-9.4-11.326-5.07,50.858,8.78-30.077,10.777,12.98Z" transform="translate(-445.313 -281.31)" fill="#0b481e"/>
        </g>
      </g>
      <g id="Grupo_80531" data-name="Grupo 80531" transform="translate(45.783 21.21)">
        <g id="Grupo_80519" data-name="Grupo 80519" transform="translate(245.028 46.912)">
          <g id="Grupo_80518" data-name="Grupo 80518">
            <path id="Trazado_114181" data-name="Trazado 114181" d="M412.079,307.881a.2.2,0,0,1,.014-.395c3.176-.273,9.347-1.026,10.04-2.811.732-1.9,2.088-9.2,2.64-12.273a.2.2,0,0,1,.394.014c.389,3.425,1.488,12.071,2.734,12.882,1.187.771,6.754,1.588,9.347,1.935a.2.2,0,0,1,.01.393,48.4,48.4,0,0,0-6.165,1.452,9.262,9.262,0,0,0-3,1.407,4.582,4.582,0,0,0-1.49,2.96c-.61,2.689-1.023,5.429-1.429,8.155a.2.2,0,0,1-.395-.008c-.347-3.011-1.343-9.284-3.741-11.109C419.317,309.17,414.689,308.289,412.079,307.881Z" transform="translate(-411.91 -292.238)" fill="#ffa686"/>
          </g>
        </g>
        <g id="Grupo_80521" data-name="Grupo 80521" transform="translate(318.051 237.852)">
          <g id="Grupo_80520" data-name="Grupo 80520">
            <path id="Trazado_114182" data-name="Trazado 114182" d="M449.282,405.161a.2.2,0,0,1,.014-.395c3.178-.273,9.349-1.026,10.039-2.811.732-1.894,2.088-9.2,2.642-12.271a.2.2,0,0,1,.393.012c.391,3.425,1.488,12.071,2.736,12.884,1.185.769,6.752,1.588,9.345,1.933a.2.2,0,0,1,.01.393,48.3,48.3,0,0,0-6.163,1.454,9.163,9.163,0,0,0-3,1.407,4.563,4.563,0,0,0-1.49,2.958c-.612,2.689-1.025,5.431-1.431,8.157a.2.2,0,0,1-.395-.008c-.347-3.013-1.343-9.284-3.739-11.111C456.521,406.453,451.895,405.572,449.282,405.161Z" transform="translate(-449.115 -389.52)" fill="#ffa686"/>
          </g>
        </g>
        <g id="Grupo_80523" data-name="Grupo 80523" transform="translate(0 275.27)">
          <g id="Grupo_80522" data-name="Grupo 80522">
            <path id="Trazado_114183" data-name="Trazado 114183" d="M287.241,424.225a.2.2,0,0,1,.014-.395c3.176-.273,9.347-1.026,10.038-2.811.734-1.9,2.09-9.2,2.642-12.273a.2.2,0,0,1,.395.014c.389,3.425,1.486,12.071,2.734,12.882,1.188.771,6.752,1.588,9.347,1.935a.2.2,0,0,1,.008.393,48.377,48.377,0,0,0-6.163,1.452,9.243,9.243,0,0,0-3,1.407,4.581,4.581,0,0,0-1.49,2.96c-.61,2.689-1.025,5.429-1.429,8.157a.2.2,0,0,1-.4-.01c-.345-3.011-1.343-9.282-3.739-11.109C294.48,425.515,289.852,424.636,287.241,424.225Z" transform="translate(-287.072 -408.584)" fill="#ffa686"/>
          </g>
        </g>
        <g id="Grupo_80525" data-name="Grupo 80525" transform="translate(163.967)">
          <g id="Grupo_80524" data-name="Grupo 80524">
            <path id="Trazado_114184" data-name="Trazado 114184" d="M370.719,278.372a.128.128,0,0,1,.008-.253c2.039-.175,6-.658,6.44-1.8a79.054,79.054,0,0,0,1.7-7.873.127.127,0,0,1,.251.008c.251,2.2.954,7.745,1.755,8.265.762.495,4.332,1.019,6,1.24a.127.127,0,0,1,.006.251,31.29,31.29,0,0,0-3.955.932,5.973,5.973,0,0,0-1.924.9,2.943,2.943,0,0,0-.956,1.9c-.391,1.725-.656,3.484-.917,5.233a.128.128,0,0,1-.253-.006c-.224-1.931-.862-5.955-2.4-7.127C375.363,279.2,372.393,278.635,370.719,278.372Z" transform="translate(-370.611 -268.337)" fill="#ffa686"/>
          </g>
        </g>
        <g id="Grupo_80526" data-name="Grupo 80526" transform="translate(66.037 18.655)">
          <path id="Trazado_114185" data-name="Trazado 114185" d="M337.489,311.384a16.771,16.771,0,1,1,16.772-16.77A16.79,16.79,0,0,1,337.489,311.384Zm0-32.48a15.709,15.709,0,1,0,15.71,15.71A15.726,15.726,0,0,0,337.489,278.9Z" transform="translate(-320.717 -277.842)" fill="#ffa686"/>
        </g>
        <g id="Grupo_80527" data-name="Grupo 80527" transform="translate(86.533 278.725)">
          <path id="Trazado_114186" data-name="Trazado 114186" d="M347.931,443.888A16.772,16.772,0,1,1,364.7,427.116,16.79,16.79,0,0,1,347.931,443.888Zm0-32.482a15.71,15.71,0,1,0,15.71,15.71A15.726,15.726,0,0,0,347.931,411.406Z" transform="translate(-331.159 -410.344)" fill="#ffa686"/>
        </g>
        <g id="Grupo_80528" data-name="Grupo 80528" transform="translate(305.396 309.128)">
          <path id="Trazado_114187" data-name="Trazado 114187" d="M454.522,431.762a5.928,5.928,0,1,1-5.928-5.928A5.929,5.929,0,0,1,454.522,431.762Z" transform="translate(-442.667 -425.834)" fill="#ffa686"/>
        </g>
        <g id="Grupo_80529" data-name="Grupo 80529" transform="translate(38.794 112.018)">
          <path id="Trazado_114188" data-name="Trazado 114188" d="M318.694,331.337a5.928,5.928,0,1,1-5.929-5.927A5.929,5.929,0,0,1,318.694,331.337Z" transform="translate(-306.837 -325.409)" fill="#ffa686"/>
        </g>
        <g id="Grupo_80530" data-name="Grupo 80530" transform="translate(201.829 81.281)">
          <path id="Trazado_114189" data-name="Trazado 114189" d="M401.756,315.677a5.928,5.928,0,1,1-5.928-5.928A5.929,5.929,0,0,1,401.756,315.677Z" transform="translate(-389.901 -309.749)" fill="#ffa686"/>
        </g>
      </g>
    </g>
  </g>
</svg>
