<svg xmlns="http://www.w3.org/2000/svg" xmlns:xlink="http://www.w3.org/1999/xlink" width="56" height="56" viewBox="0 0 56 56">
  <defs>
    <clipPath id="clip-path">
      <rect id="Rectángulo_34028" data-name="Rectángulo 34028" width="56" height="56" transform="translate(321 1517)" fill="#fff" stroke="#707070" stroke-width="1"/>
    </clipPath>
  </defs>
  <g id="Enmascarar_grupo_79" data-name="Enmascarar grupo 79" transform="translate(-321 -1517)" clip-path="url(#clip-path)">
    <g id="asociaciones-publicas" transform="translate(321 1517)">
      <g id="Grupo_83984" data-name="Grupo 83984">
        <path id="Trazado_117688" data-name="Trazado 117688" d="M44.387,43.635c-1.559,1.56-3.946,2.672-5.781,3.7-.115.06.008,0-.537.29-8.805,4.627-17.426,3.665-24.827-3.741-7.465-7.469-8.592-17.247-5.81-26.95l.006-.017A23.347,23.347,0,1,1,47.773,40.391s-2.113,1.97-3.386,3.244Z" fill="#72706f"/>
        <path id="Trazado_117689" data-name="Trazado 117689" d="M47.674,39.627a23.287,23.287,0,0,1-5.12,3.879h0c-.115.06.009,0-.537.29A23.346,23.346,0,0,1,8.363,18.172a5.91,5.91,0,0,1-1.27-.583A23.35,23.35,0,0,0,38.831,48.682c.546-.289.423-.229.537-.29h0A23.462,23.462,0,0,0,48.984,38.2q-.62.733-1.31,1.424Z" fill="#686564"/>
        <circle id="Elipse_4820" data-name="Elipse 4820" cx="15.858" cy="15.858" r="15.858" transform="translate(12.142 12.143)" fill="#dfeef4"/>
        <path id="Trazado_117690" data-name="Trazado 117690" d="M41.671,28a13.587,13.587,0,0,1-1.533,6.287.436.436,0,0,1-.359.232l-1.556.1-.036,0a3.856,3.856,0,0,0-3.54,3.6l-.1,1.543a.436.436,0,0,1-.231.358,13.651,13.651,0,0,1-12.624,0,.436.436,0,0,1-.231-.358l-.105-1.6a3.855,3.855,0,0,0-3.6-3.54l-1.53-.1a.436.436,0,0,1-.358-.232,13.662,13.662,0,0,1,0-12.566.436.436,0,0,1,.358-.232l1.53-.1a3.855,3.855,0,0,0,3.6-3.54l.112-1.727a.219.219,0,0,1,.114-.179A13.814,13.814,0,0,1,28,14.33a13.582,13.582,0,0,1,6.31,1.546.436.436,0,0,1,.231.358l.1,1.543a3.856,3.856,0,0,0,3.54,3.6H38.2l1.573.1a.436.436,0,0,1,.359.232A13.585,13.585,0,0,1,41.671,28Z" fill="#f2fbff"/>
        <path id="Trazado_117691" data-name="Trazado 117691" d="M25.734,35.4a2.052,2.052,0,0,1-1.451-.6l-5.234-5.234a2.085,2.085,0,0,1-.087-2.883,2.052,2.052,0,0,1,2.954-.054l3.661,3.661a.219.219,0,0,0,.31,0l8.051-8.077a2.052,2.052,0,1,1,2.906,2.9L27.187,34.8a2.052,2.052,0,0,1-1.452.6Z" fill="#dfeef4"/>
        <g id="Grupo_83976" data-name="Grupo 83976">
          <path id="Trazado_117692" data-name="Trazado 117692" d="M44.28,15.589l.775,2.512-.775,1.811L42.2,19.777l-3.44-.765,1.328-3.134,2.712-.322Z" fill="#e88f77"/>
          <path id="Trazado_117693" data-name="Trazado 117693" d="M52.936,15.55l-3.683,3.683a2.935,2.935,0,0,1-2.275.853l-2.7-.175V15.589l1.761.04a.547.547,0,0,0,.4-.16l3.208-3.206a2.894,2.894,0,0,0,.878-2.21l4.148-3.109c.057.194.2.757.243.955a7.805,7.805,0,0,1-1.981,7.652Z" fill="#cae7ff"/>
          <path id="Trazado_117694" data-name="Trazado 117694" d="M49.023,1.642,45.989,5.479a3.05,3.05,0,0,0-2.259.884L40.5,9.593a.438.438,0,0,0-.128.319l.041,1.808-2.237,1.094L36.1,11.721l.2-2.683a2.935,2.935,0,0,1,.853-2.275l3.269-3.33a8.492,8.492,0,0,1,8.6-1.791Z" fill="#cae7ff"/>
          <path id="Trazado_117695" data-name="Trazado 117695" d="M42.838,17.44v.071a4.307,4.307,0,0,1-.642,2.265l-3.853-.249,1.91-4.029,2.542.057Z" fill="#e08369"/>
          <path id="Trazado_117696" data-name="Trazado 117696" d="M40.541,17.466v.045a2.023,2.023,0,0,1-1.782,2.009l-.073.007a2.233,2.233,0,0,1-2.051-2.142l-.216-5.538L38.1,11.72h2.311Z" fill="#e88f77"/>
          <path id="Trazado_117697" data-name="Trazado 117697" d="M48.777,1.349,48.34,2a7.574,7.574,0,0,0-5.822,2.171L38.845,7.841a2.935,2.935,0,0,0-.853,2.275l.109,1.6-.822.668L36.1,11.72l-.184-2.7a2.935,2.935,0,0,1,.853-2.275L40.44,3.074C41.95,1.565,44.735.135,48.777,1.349Z" fill="#b3dafe"/>
          <path id="Trazado_117698" data-name="Trazado 117698" d="M38.686,19.527A2.021,2.021,0,0,1,36.5,17.65l-.4-5.93h2l.074,1.094Z" fill="#e08369"/>
          <g id="Grupo_83975" data-name="Grupo 83975">
            <path id="Trazado_117699" data-name="Trazado 117699" d="M47.387,2.306a4.072,4.072,0,0,0,.093,6.058,4.116,4.116,0,0,0,6.094.2c.467-.467.751-.823,1.234-1.392a4.614,4.614,0,0,0-5.973-5.973c-.521.443-.981.645-1.447,1.112Z" fill="#e88f77"/>
            <path id="Trazado_117700" data-name="Trazado 117700" d="M54.806,7.167a4.611,4.611,0,1,1-5.973-5.973,4.614,4.614,0,0,0,5.973,5.973Z" fill="#e08369"/>
          </g>
        </g>
        <g id="Grupo_83978" data-name="Grupo 83978">
          <path id="Trazado_117701" data-name="Trazado 117701" d="M15.56,11.748l2.512-.775,1.811.775-.135,2.085-.765,3.44-3.134-1.328-.322-2.712Z" fill="#ffdcd0"/>
          <path id="Trazado_117702" data-name="Trazado 117702" d="M15.522,3.092l3.683,3.683a2.935,2.935,0,0,1,.853,2.275l-.175,2.7H15.56l.04-1.761a.547.547,0,0,0-.16-.4L12.234,6.38a2.894,2.894,0,0,0-2.21-.878L6.915,1.354c.194-.057.757-.2.955-.243a7.806,7.806,0,0,1,7.652,1.981Z" fill="#fece85"/>
          <path id="Trazado_117703" data-name="Trazado 117703" d="M1.614,7.005,5.45,10.039A3.05,3.05,0,0,0,6.334,12.3l3.231,3.231a.438.438,0,0,0,.319.128l1.808-.041,1.094,2.237-1.094,2.078-2.683-.2a2.935,2.935,0,0,1-2.275-.853L3.4,15.605a8.492,8.492,0,0,1-1.791-8.6Z" fill="#fece85"/>
          <path id="Trazado_117704" data-name="Trazado 117704" d="M17.412,13.191h.071a4.307,4.307,0,0,1,2.265.642L19.5,17.686l-4.029-1.91.057-2.542Z" fill="#ffc7b6"/>
          <path id="Trazado_117705" data-name="Trazado 117705" d="M17.438,15.487h.045a2.023,2.023,0,0,1,2.009,1.782q0,.037.007.073a2.233,2.233,0,0,1-2.142,2.051l-5.538.216-.127-1.682V15.616Z" fill="#ffdcd0"/>
          <path id="Trazado_117706" data-name="Trazado 117706" d="M1.321,7.251l.647.437A7.574,7.574,0,0,0,4.139,13.51l3.674,3.674a2.935,2.935,0,0,0,2.275.853l1.6-.109.668.822-.668,1.181-2.7.184a2.935,2.935,0,0,1-2.275-.853L3.046,15.588C1.536,14.079.107,11.293,1.321,7.251Z" fill="#fdb97e"/>
          <path id="Trazado_117707" data-name="Trazado 117707" d="M19.5,17.342a2.021,2.021,0,0,1-1.877,2.185l-5.93.4v-2l1.094-.074Z" fill="#ffc7b6"/>
          <g id="Grupo_83977" data-name="Grupo 83977">
            <path id="Trazado_117708" data-name="Trazado 117708" d="M2.343,2.333a4.072,4.072,0,0,0,.093,6.058,4.116,4.116,0,0,0,6.094.2C9,8.12,9.28,7.763,9.763,7.194A4.614,4.614,0,0,0,3.79,1.222c-.521.443-.981.645-1.447,1.112Z" fill="#ffdcd0"/>
            <path id="Trazado_117709" data-name="Trazado 117709" d="M9.763,7.194A4.611,4.611,0,1,1,3.79,1.222,4.614,4.614,0,0,0,9.763,7.194Z" fill="#ffc7b6"/>
          </g>
        </g>
        <g id="Grupo_83981" data-name="Grupo 83981">
          <path id="Trazado_117710" data-name="Trazado 117710" d="M11.726,40.419l-.775-2.512.775-1.811,2.085.135,3.44.765L15.923,40.13l-2.712.322Z" fill="#e88f77"/>
          <g id="Grupo_83979" data-name="Grupo 83979">
            <path id="Trazado_117711" data-name="Trazado 117711" d="M3.07,40.457l3.683-3.683a2.935,2.935,0,0,1,2.275-.853l2.7.175v4.323l-1.761-.04a.547.547,0,0,0-.4.16L6.358,43.746a2.894,2.894,0,0,0-.878,2.21L1.332,49.065c-.057-.194-.2-.757-.243-.955A7.805,7.805,0,0,1,3.07,40.457Z" fill="#bbf39b"/>
          </g>
          <path id="Trazado_117712" data-name="Trazado 117712" d="M6.983,54.366l3.034-3.837a3.05,3.05,0,0,0,2.259-.884l3.231-3.231a.438.438,0,0,0,.128-.319l-.041-1.808,2.237-1.094,2.078,1.094-.2,2.683a2.935,2.935,0,0,1-.853,2.275l-3.269,3.33a8.492,8.492,0,0,1-8.6,1.791Z" fill="#bbf39b"/>
          <path id="Trazado_117713" data-name="Trazado 117713" d="M13.169,38.567V38.5a4.307,4.307,0,0,1,.642-2.265l3.853.249-1.91,4.029-2.542-.057Z" fill="#e08369"/>
          <path id="Trazado_117714" data-name="Trazado 117714" d="M15.465,38.541V38.5a2.023,2.023,0,0,1,1.782-2.009l.073-.007a2.233,2.233,0,0,1,2.051,2.142l.216,5.538-1.682.127H15.594Z" fill="#e88f77"/>
          <path id="Trazado_117715" data-name="Trazado 117715" d="M7.229,54.658l.437-.647a7.574,7.574,0,0,0,5.822-2.171l3.674-3.674a2.935,2.935,0,0,0,.853-2.275l-.109-1.6.822-.668,1.181.668.184,2.7a2.935,2.935,0,0,1-.853,2.275l-3.674,3.674c-1.509,1.509-4.295,2.939-8.337,1.725Z" fill="#9ae59c"/>
          <path id="Trazado_117716" data-name="Trazado 117716" d="M17.32,36.481a2.021,2.021,0,0,1,2.185,1.877l.4,5.93h-2l-.074-1.094Z" fill="#e08369"/>
          <g id="Grupo_83980" data-name="Grupo 83980">
            <path id="Trazado_117717" data-name="Trazado 117717" d="M8.657,53.609A4.072,4.072,0,0,1,2.6,53.516a4.116,4.116,0,0,1-.2-6.094c.467-.467.823-.751,1.392-1.234a4.614,4.614,0,0,1,5.973,5.973c-.443.521-.645.981-1.112,1.447Z" fill="#e88f77"/>
            <path id="Trazado_117718" data-name="Trazado 117718" d="M3.8,46.189a4.611,4.611,0,1,0,5.973,5.973A4.614,4.614,0,0,1,3.8,46.189Z" fill="#e08369"/>
          </g>
        </g>
        <path id="Trazado_117719" data-name="Trazado 117719" d="M40.439,44.253l-2.512.775-1.811-.775.135-2.085.765-3.44,3.134,1.328.322,2.712Z" fill="#ffdcd0"/>
        <g id="Grupo_83982" data-name="Grupo 83982">
          <path id="Trazado_117720" data-name="Trazado 117720" d="M40.478,52.909l-3.683-3.683a2.935,2.935,0,0,1-.853-2.275l.175-2.7H40.44l-.04,1.761a.547.547,0,0,0,.16.4l3.206,3.208a2.894,2.894,0,0,0,2.21.878l3.109,4.148c-.194.057-.757.2-.955.243a7.805,7.805,0,0,1-7.652-1.981Z" fill="#ff7e7b"/>
        </g>
        <path id="Trazado_117721" data-name="Trazado 117721" d="M54.386,49l-3.837-3.034a3.05,3.05,0,0,0-.884-2.259l-3.231-3.231a.438.438,0,0,0-.319-.128l-1.808.041-1.094-2.237,1.094-2.078,2.683.2a2.935,2.935,0,0,1,2.275.853L52.6,40.4A8.492,8.492,0,0,1,54.386,49Z" fill="#ff7e7b"/>
        <path id="Trazado_117722" data-name="Trazado 117722" d="M38.588,42.811h-.071a4.307,4.307,0,0,1-2.265-.642l.249-3.853,4.029,1.91-.057,2.542Z" fill="#ffc7b6"/>
        <path id="Trazado_117723" data-name="Trazado 117723" d="M38.562,40.514h-.045a2.023,2.023,0,0,1-2.009-1.782c0-.024-.005-.049-.007-.073a2.233,2.233,0,0,1,2.142-2.051l5.538-.216.127,1.682v2.311Z" fill="#ffdcd0"/>
        <path id="Trazado_117724" data-name="Trazado 117724" d="M54.679,48.75l-.647-.437a7.574,7.574,0,0,0-2.171-5.822l-3.674-3.674a2.935,2.935,0,0,0-2.275-.853l-1.6.109-.668-.822.668-1.181,2.7-.184a2.935,2.935,0,0,1,2.275.853l3.674,3.674c1.509,1.509,2.939,4.295,1.725,8.337Z" fill="#f46969"/>
        <path id="Trazado_117725" data-name="Trazado 117725" d="M36.5,38.659a2.021,2.021,0,0,1,1.877-2.185l5.93-.4v2l-1.094.074Z" fill="#ffc7b6"/>
        <g id="Grupo_83983" data-name="Grupo 83983">
          <path id="Trazado_117726" data-name="Trazado 117726" d="M53.695,53.63a4.072,4.072,0,0,1-6.058-.093,4.116,4.116,0,0,1-.2-6.094c.467-.467.823-.751,1.392-1.234a4.614,4.614,0,0,1,5.973,5.973c-.443.521-.645.98-1.112,1.447Z" fill="#ffdcd0"/>
          <path id="Trazado_117727" data-name="Trazado 117727" d="M48.834,46.211a4.611,4.611,0,1,0,5.973,5.973,4.614,4.614,0,0,1-5.973-5.973Z" fill="#ffc7b6"/>
        </g>
      </g>
      <g id="Grupo_83985" data-name="Grupo 83985">
        <path id="Trazado_117728" data-name="Trazado 117728" d="M23.7,35.38a2.872,2.872,0,0,0,4.065,0l3.56-3.571a.82.82,0,1,0-1.162-1.158l-3.559,3.571a1.232,1.232,0,0,1-1.744,0l-5.269-5.269a1.232,1.232,0,1,1,1.742-1.742l3.816,3.816a.82.82,0,0,0,.58.24h0a.82.82,0,0,0,.58-.241l8.2-8.232a1.232,1.232,0,1,1,1.744,1.74l-3.384,3.395a.82.82,0,0,0,1.162,1.158l3.384-3.395a2.872,2.872,0,1,0-4.068-4.056l-7.625,7.65L22.5,26.049a2.872,2.872,0,0,0-4.062,4.062Z"/>
        <path id="Trazado_117729" data-name="Trazado 117729" d="M53.507,39.861l-3.035-3.035a24.334,24.334,0,0,0,0-17.651l3.045-3.045a8.746,8.746,0,0,0,2.1-8.806A5.429,5.429,0,0,0,48.6.407,8.468,8.468,0,0,0,39.86,2.494L36.825,5.529a24.333,24.333,0,0,0-17.651,0L16.13,2.484A8.581,8.581,0,0,0,7.721.282c-.132.029-.264.062-.395.1A5.43,5.43,0,0,0,3.486.443a.82.82,0,0,0,.605,1.525A3.791,3.791,0,1,1,1.934,4.179.82.82,0,0,0,.394,3.612,5.447,5.447,0,0,0,.407,7.4,8.469,8.469,0,0,0,2.493,16.14l3.035,3.035a24.144,24.144,0,0,0-1.27,4.459.82.82,0,0,0,.659.955.831.831,0,0,0,.149.014.82.82,0,0,0,.806-.673,22.521,22.521,0,0,1,.968-3.583,4.2,4.2,0,0,0,2.238.558l3.957-.27a16.687,16.687,0,0,0-.007,14.716L9.078,35.1a3.751,3.751,0,0,0-2.239.559,22.392,22.392,0,0,1-1.332-8.1.82.82,0,0,0-1.64-.032,24.019,24.019,0,0,0,1.661,9.3L2.483,39.871a8.746,8.746,0,0,0-2.1,8.806A5.432,5.432,0,0,0,7.4,55.594,10.491,10.491,0,0,0,10.2,56a8.193,8.193,0,0,0,3.274-.663.82.82,0,1,0-.649-1.507,6.805,6.805,0,0,1-3.458.482,5.4,5.4,0,0,0,1.5-3.028,3.583,3.583,0,0,0,1.984-1.066l3.362-3.362a.82.82,0,0,0,.24-.6L16.427,45.1h2.71l.132,1.932a2.116,2.116,0,0,1-.615,1.64L15.6,51.723a.82.82,0,0,0,1.16,1.16l2.411-2.411a24.329,24.329,0,0,0,17.65,0l3.045,3.045A8.161,8.161,0,0,0,45.843,56a11.944,11.944,0,0,0,2.834-.377A5.429,5.429,0,0,0,55.594,48.6a8.468,8.468,0,0,0-2.086-8.744Zm.8,6.768a5.4,5.4,0,0,0-3.025-1.494,3.58,3.58,0,0,0-1.066-1.984l-3.362-3.362a.823.823,0,0,0-.6-.24l-1.156.026v-2.71l1.932-.132a2.114,2.114,0,0,1,1.64.615l3.674,3.673a6.686,6.686,0,0,1,1.961,5.608Zm-7.641.039a5.4,5.4,0,0,0-1.514,2.948,2.027,2.027,0,0,1-.834-.548l-1.79-1.79a24.305,24.305,0,0,0,4.748-4.748l1.78,1.78a2.047,2.047,0,0,1,.547.846,5.4,5.4,0,0,0-2.937,1.512Zm-3.207-9.692v2.635l-4.973.111a1.2,1.2,0,0,1-1.193-1.06,1.212,1.212,0,0,1,0-.236,1.244,1.244,0,0,1,1.117-1.106ZM41.2,45.944l.1-4.644,4.644-.1.162.162a22.675,22.675,0,0,1-4.748,4.748Zm-4.073-4.928a2.837,2.837,0,0,0,1.43.346l1.106-.025-.048,2.124H36.963Zm12.039-5.361a3.755,3.755,0,0,0-2.239-.559l-3.957.27a16.687,16.687,0,0,0,.007-14.716l3.95.256a3.941,3.941,0,0,0,2.239-.559,22.7,22.7,0,0,1,0,15.308ZM36.975,12.54H39.61l.111,4.945a1.2,1.2,0,0,1-1.059,1.221,1.218,1.218,0,0,1-.236,0,1.244,1.244,0,0,1-1.106-1.117ZM45.156,6.4a5.413,5.413,0,0,0,4.459,4.449,2.023,2.023,0,0,1-.547.834l-1.79,1.79a24.317,24.317,0,0,0-4.748-4.748l1.78-1.78A2.046,2.046,0,0,1,45.156,6.4ZM41.3,14.7l-.1-4.644.162-.162a22.664,22.664,0,0,1,4.748,4.748l-.162.162Zm.037,1.642,2.124.048v2.646l-2.445-.158a2.843,2.843,0,0,0,.346-1.43Zm11.02-1.372-3.683,3.683a2.116,2.116,0,0,1-1.643.615l-1.93-.125V16.427l1.174.026a.82.82,0,0,0,.58-.24l3.372-3.372a3.526,3.526,0,0,0,1.065-1.976,5.4,5.4,0,0,0,3.025-1.5,6.73,6.73,0,0,1-1.961,5.607Zm.833-12.159a3.791,3.791,0,1,1-5.362,0A3.8,3.8,0,0,1,53.189,2.811ZM41.02,3.653a6.686,6.686,0,0,1,5.608-1.961,5.4,5.4,0,0,0-1.494,3.024A3.572,3.572,0,0,0,43.15,5.783L39.787,9.145a.82.82,0,0,0-.24.6l.026,1.156h-2.71l-.132-1.932a2.116,2.116,0,0,1,.615-1.64ZM35.654,6.84A3.754,3.754,0,0,0,35.1,9.079l.27,3.957a16.687,16.687,0,0,0-14.716-.007l.256-3.95a3.754,3.754,0,0,0-.559-2.239,22.7,22.7,0,0,1,15.308,0ZM12.539,19.025V16.391l4.945-.111a1.182,1.182,0,0,1,1.221,1.059,1.213,1.213,0,0,1-1.112,1.342Zm6.339-4.039a2.852,2.852,0,0,0-1.43-.347l-1.106.025.048-2.124h2.647ZM14.8,10.057,14.7,14.7l-4.644.1-.162-.162A22.668,22.668,0,0,1,14.643,9.9Zm.165-6.413,3.683,3.683a2.117,2.117,0,0,1,.615,1.643l-.125,1.93H16.427l.026-1.156a.82.82,0,0,0-.24-.6L12.841,5.773A3.534,3.534,0,0,0,10.865,4.71a5.4,5.4,0,0,0-1.5-3.027A6.73,6.73,0,0,1,14.97,3.644ZM9.333,9.333a5.4,5.4,0,0,0,1.513-2.948,2.016,2.016,0,0,1,.834.547l1.79,1.79a24.325,24.325,0,0,0-4.748,4.748l-1.78-1.78a2.046,2.046,0,0,1-.546-.846A5.4,5.4,0,0,0,9.333,9.333Zm-.366,9.935a2.117,2.117,0,0,1-1.64-.615L3.653,14.98A6.686,6.686,0,0,1,1.691,9.372a5.4,5.4,0,0,0,3.025,1.494,3.579,3.579,0,0,0,1.066,1.984l3.362,3.362a.817.817,0,0,0,.6.24l1.156-.026v2.71Zm4,8.732a15.01,15.01,0,0,1,2-7.5l2.742-.187a2.843,2.843,0,0,0,2.646-2.687l.174-2.678a15.045,15.045,0,0,1,14.972.012l.187,2.742a2.843,2.843,0,0,0,2.608,2.641l2.757.179A15.046,15.046,0,0,1,41.037,35.5l-2.742.187a2.843,2.843,0,0,0-2.646,2.687l-.174,2.679A15.046,15.046,0,0,1,20.5,41.038L20.317,38.3a2.843,2.843,0,0,0-2.682-2.645l-2.684-.174A15.015,15.015,0,0,1,12.962,28ZM14.7,41.3l.1,4.644-.162.162a22.682,22.682,0,0,1-4.748-4.748l.162-.162Zm-.037-1.642-2.124-.048V36.964l2.445.158a2.843,2.843,0,0,0-.346,1.43ZM3.643,41.031l3.683-3.683a2.117,2.117,0,0,1,1.643-.615l1.93.125v2.716l-1.156-.026a.819.819,0,0,0-.6.24L5.773,43.16a3.526,3.526,0,0,0-1.065,1.976,5.4,5.4,0,0,0-3.025,1.5,6.731,6.731,0,0,1,1.961-5.607ZM2.811,53.19a3.791,3.791,0,1,1,5.362,0A3.8,3.8,0,0,1,2.811,53.19Zm8.879-4.131a2.052,2.052,0,0,1-.846.546,5.413,5.413,0,0,0-4.459-4.45,2.023,2.023,0,0,1,.547-.834l1.79-1.79a24.3,24.3,0,0,0,4.748,4.748Zm4.7-5.6-.111-4.945A1.2,1.2,0,0,1,17.338,37.3a1.568,1.568,0,0,1,.234-.005,1.212,1.212,0,0,1,1.108,1.117l.344,5.054Zm3.956,5.7a3.754,3.754,0,0,0,.558-2.238l-.27-3.957a16.687,16.687,0,0,0,14.716.007l-.256,3.95a3.754,3.754,0,0,0,.559,2.238A22.712,22.712,0,0,1,20.346,49.161Zm20.684,3.2-3.683-3.683a2.117,2.117,0,0,1-.615-1.643l.125-1.93h2.716l-.026,1.156a.82.82,0,0,0,.24.6l3.372,3.372a3.525,3.525,0,0,0,1.976,1.066,5.4,5.4,0,0,0,1.5,3.025,6.73,6.73,0,0,1-5.607-1.961Zm12.159.833a3.79,3.79,0,1,1,0-5.362A3.8,3.8,0,0,1,53.189,53.19Z"/>
      </g>
    </g>
  </g>
</svg>
