<svg xmlns="http://www.w3.org/2000/svg" width="820.48" height="254" viewBox="0 0 820.48 254">
  <g id="Grupo_1003917" data-name="Grupo 1003917" transform="translate(-390.205 -2712)">
    <g id="Grupo_1003898" data-name="Grupo 1003898" transform="translate(299 -336.7)">
      <rect id="Rectángulo_34148" data-name="Rectángulo 34148" width="222" height="58" rx="29" transform="translate(390 3048.7)" fill="#adce32"/>
      <text id="Fuentes_de_información" data-name="Fuentes de información" transform="translate(501 3083.7)" fill="#12263f" font-size="15" font-family="Roboto-Black, Roboto" font-weight="800"><tspan x="-80.002" y="0">Fuentes de información</tspan></text>
    </g>
    <path id="Trazado_118338" data-name="Trazado 118338" d="M-862.4-8878s-9.733,2.385-9.733,21.456,5.353,18.733,5.6,41.21S-877-8784.681-877-8784.681s10.95,17.369,10.463,30.312-5.6,35.079-5.6,44.956,1.7,13.284,9.733,19.414" transform="translate(-8298.999 3722.8) rotate(90)" fill="none" stroke="#0b481e" stroke-width="2"/>
    <path id="Trazado_118357" data-name="Trazado 118357" d="M-862.4-8878s-9.733,2.385-9.733,21.456,5.353,18.733,5.6,41.21S-877-8784.681-877-8784.681s10.95,17.369,10.463,30.312-5.6,35.079-5.6,44.956,1.7,13.284,9.733,19.414" transform="translate(-7668.999 3722.8) rotate(90)" fill="none" stroke="#0b481e" stroke-width="2"/>
    <path id="Trazado_118355" data-name="Trazado 118355" d="M-862.4-8878s-9.733,2.385-9.733,21.456,5.353,18.733,5.6,41.21S-877-8784.681-877-8784.681s10.95,17.369,10.463,30.312-5.6,35.079-5.6,44.956,1.7,13.284,9.733,19.414" transform="translate(-8087.999 3722.8) rotate(90)" fill="none" stroke="#0b481e" stroke-width="2"/>
    <path id="Trazado_118356" data-name="Trazado 118356" d="M-862.4-8878s-9.733,2.385-9.733,21.456,5.353,18.733,5.6,41.21S-877-8784.681-877-8784.681s10.95,17.369,10.463,30.312-5.6,35.079-5.6,44.956,1.7,13.284,9.733,19.414" transform="translate(-7878.999 3722.8) rotate(90)" fill="none" stroke="#0b481e" stroke-width="2"/>
    <path id="Trazado_118358" data-name="Trazado 118358" d="M-862.4-8878s-9.733,10.336-9.733,93.012,5.353,81.211,5.6,178.648c.243,97.457-15.463,132.887-15.463,132.887s15.95,75.3,15.463,131.4-5.6,152.07-5.6,194.891,1.7,57.586,9.733,84.16" transform="translate(-7668 3662.8) rotate(90)" fill="none" stroke="#0b481e" stroke-width="2"/>
    <text id="Formato_o_soporte" data-name="Formato o soporte" transform="translate(490 2834)" fill="#12263f" font-size="16" font-family="Roboto-Black, Roboto" font-weight="800"><tspan x="-66.465" y="0">Formato o soporte</tspan></text>
    <text id="Tipo_de_información" data-name="Tipo de información" transform="translate(1120 2834)" fill="#12263f" font-size="16" font-family="Roboto-Black, Roboto" font-weight="800"><tspan x="-72.707" y="0">Tipo de información</tspan></text>
    <text id="Procedencia_u_origen" data-name="Procedencia u origen" transform="translate(692 2834)" fill="#12263f" font-size="16" font-family="Roboto-Black, Roboto" font-weight="800"><tspan x="-76.758" y="0">Procedencia u origen</tspan></text>
    <text id="Cobertura_geográfica" data-name="Cobertura geográfica" transform="translate(901 2834)" fill="#12263f" font-size="16" font-family="Roboto-Black, Roboto" font-weight="800"><tspan x="-76.938" y="0">Cobertura geográfica</tspan></text>
    <text id="Textual_o_escritura_Digital_o_audiovisuales" data-name="Textual o escritura
Digital o audiovisuales" transform="translate(413 2889)" fill="#12263f" font-size="16" font-family="Roboto-Regular, Roboto"><tspan x="0" y="0">Textual o escritura</tspan><tspan x="0" y="24">Digital o audiovisuales</tspan></text>
    <text id="Generales_Especializadas" data-name="Generales
Especializadas" transform="translate(1074 2889)" fill="#12263f" font-size="16" font-family="Roboto-Regular, Roboto"><tspan x="0" y="0">Generales</tspan><tspan x="0" y="24">Especializadas</tspan></text>
    <text id="Personales_Institucionales_Documentales" data-name="Personales
Institucionales
Documentales" transform="translate(651 2890)" fill="#12263f" font-size="16" font-family="Roboto-Regular, Roboto"><tspan x="0" y="0">Personales</tspan><tspan x="0" y="24">Institucionales</tspan><tspan x="0" y="48">Documentales</tspan></text>
    <text id="Nacionales_Internacionales_Regionales_Locales" data-name="Nacionales
Internacionales
Regionales
Locales" transform="translate(860 2890)" fill="#12263f" font-size="16" font-family="Roboto-Regular, Roboto"><tspan x="0" y="0">Nacionales</tspan><tspan x="0" y="24">Internacionales</tspan><tspan x="0" y="48">Regionales</tspan><tspan x="0" y="72">Locales</tspan></text>
    <circle id="Elipse_4852" data-name="Elipse 4852" cx="4" cy="4" r="4" transform="translate(395 2879)" fill="#ffa686"/>
    <circle id="Elipse_4876" data-name="Elipse 4876" cx="4" cy="4" r="4" transform="translate(1056 2879)" fill="#ffa686"/>
    <circle id="Elipse_4869" data-name="Elipse 4869" cx="4" cy="4" r="4" transform="translate(633 2880)" fill="#ffa686"/>
    <circle id="Elipse_4872" data-name="Elipse 4872" cx="4" cy="4" r="4" transform="translate(842 2880)" fill="#ffa686"/>
    <circle id="Elipse_4868" data-name="Elipse 4868" cx="4" cy="4" r="4" transform="translate(395 2902)" fill="#ffa686"/>
    <circle id="Elipse_4877" data-name="Elipse 4877" cx="4" cy="4" r="4" transform="translate(1056 2902)" fill="#ffa686"/>
    <circle id="Elipse_4870" data-name="Elipse 4870" cx="4" cy="4" r="4" transform="translate(633 2903)" fill="#ffa686"/>
    <circle id="Elipse_4873" data-name="Elipse 4873" cx="4" cy="4" r="4" transform="translate(842 2903)" fill="#ffa686"/>
    <circle id="Elipse_4871" data-name="Elipse 4871" cx="4" cy="4" r="4" transform="translate(633 2927)" fill="#ffa686"/>
    <circle id="Elipse_4874" data-name="Elipse 4874" cx="4" cy="4" r="4" transform="translate(842 2927)" fill="#ffa686"/>
    <circle id="Elipse_4875" data-name="Elipse 4875" cx="4" cy="4" r="4" transform="translate(842 2950)" fill="#ffa686"/>
  </g>
</svg>
