<svg xmlns="http://www.w3.org/2000/svg" width="239" height="373" viewBox="0 0 239 373">
  <g id="Grupo_80449" data-name="Grupo 80449" transform="translate(-430 -5217)">
    <rect id="Rectángulo_33774" data-name="Rectángulo 33774" width="239" height="373" transform="translate(430 5217)" fill="#cee284"/>
    <circle id="Elipse_4734" data-name="Elipse 4734" cx="119" cy="119" r="119" transform="translate(431 5268)" fill="#adce32"/>
    <g id="mujer_1_" data-name="mujer (1)" transform="translate(362.527 5306.157)">
      <path id="Trazado_114074" data-name="Trazado 114074" d="M272.807,409.626v12.245a5.711,5.711,0,0,1-5.711,5.711H107.184a5.711,5.711,0,0,1-5.711-5.711v-12.25a51.566,51.566,0,0,1,51.566-51.566h8.777a8.19,8.19,0,0,0,8.19-8.19v-27.3h34.267v27.3a8.19,8.19,0,0,0,8.19,8.19h8.771a51.572,51.572,0,0,1,51.572,51.572Z" transform="translate(0 -143.739)" fill="#d78878"/>
      <path id="Trazado_114075" data-name="Trazado 114075" d="M290.1,358.055h-8.771a8.19,8.19,0,0,1-8.19-8.19v-27.3H256v27.3a8.19,8.19,0,0,0,8.19,8.19h8.771a51.571,51.571,0,0,1,51.571,51.571V421.87a5.711,5.711,0,0,1-5.711,5.711h17.133a5.711,5.711,0,0,0,5.711-5.711V409.626A51.57,51.57,0,0,0,290.1,358.055Z" transform="translate(-68.86 -143.739)" fill="#ca6e59"/>
      <path id="Trazado_114076" data-name="Trazado 114076" d="M272.807,447.453V459.7a5.713,5.713,0,0,1-5.711,5.711H107.184a5.713,5.713,0,0,1-5.711-5.711v-12.25a51.472,51.472,0,0,1,19.018-40c11.171,10.9,32,24.421,66.649,24.421s55.472-13.518,66.643-24.415a51.45,51.45,0,0,1,19.024,40Z" transform="translate(0 -181.566)" fill="#f3f0f3"/>
      <g id="Grupo_80436" data-name="Grupo 80436" transform="translate(244.388 225.886)">
        <g id="Grupo_80435" data-name="Grupo 80435">
          <path id="Trazado_114077" data-name="Trazado 114077" d="M368.66,407.457a78.123,78.123,0,0,1-9.4,7.806,51.341,51.341,0,0,1,11.286,32.2V459.7a5.713,5.713,0,0,1-5.711,5.711h17.133a5.713,5.713,0,0,0,5.711-5.711V447.458A51.452,51.452,0,0,0,368.66,407.457Z" transform="translate(-359.265 -407.457)" fill="#e2dee2"/>
        </g>
      </g>
      <circle id="Elipse_4728" data-name="Elipse 4728" cx="29.326" cy="29.326" r="29.326" transform="translate(157.105 0)" fill="#855151"/>
      <g id="Grupo_80437" data-name="Grupo 80437" transform="translate(107.707 99.208)">
        <path id="Trazado_114078" data-name="Trazado 114078" d="M144.688,201.577c0,12.5-7.642,22.625-17.068,22.625s-14.9-11.633-14.9-24.128,5.476-21.121,14.9-21.121S144.688,189.082,144.688,201.577Z" transform="translate(-112.718 -178.952)" fill="#ca6e59"/>
        <path id="Trazado_114079" data-name="Trazado 114079" d="M341.614,201.577c0,12.5,7.642,22.625,17.068,22.625s14.9-11.633,14.9-24.128-5.476-21.121-14.9-21.121S341.614,189.082,341.614,201.577Z" transform="translate(-214.718 -178.952)" fill="#ca6e59"/>
      </g>
      <path id="Trazado_114080" data-name="Trazado 114080" d="M156.634,168.608V131.124a55.087,55.087,0,0,1,110.173,0V168.4c-.6,30.833-14.657,55.19-55.19,55.19s-54.983-24.617-54.983-54.983Z" transform="translate(-24.581 -33.884)" fill="#d78878"/>
      <path id="Trazado_114081" data-name="Trazado 114081" d="M249.045,76.037a55.52,55.52,0,0,0-8.567.664A55.1,55.1,0,0,1,287,131.124V168.4c-.554,28.546-12.649,51.537-46.605,54.792q4.067.391,8.548.4c40.533,0,54.591-24.357,55.19-55.19V131.124a55.086,55.086,0,0,0-55.086-55.087Z" transform="translate(-61.905 -33.884)" fill="#ca6e59"/>
      <g id="Grupo_80439" data-name="Grupo 80439" transform="translate(154.364 94.489)">
        <path id="Trazado_114082" data-name="Trazado 114082" d="M245.426,261.945a15.435,15.435,0,0,0,8.954,0,4.158,4.158,0,0,0-2.1-8.046,7.407,7.407,0,0,1-4.751,0,4.158,4.158,0,0,0-2.1,8.046Z" transform="translate(-217.127 -207.57)" fill="#ca6e59"/>
        <g id="Grupo_80438" data-name="Grupo 80438" transform="translate(0)">
          <path id="Trazado_114083" data-name="Trazado 114083" d="M219.8,176.777a4.158,4.158,0,0,0-2.973-5.073,28.7,28.7,0,0,0-16.843,0,4.158,4.158,0,0,0,2.1,8.046c5.08-1.327,7.561-1.327,12.642,0a4.153,4.153,0,0,0,5.073-2.973Z" transform="translate(-196.879 -170.44)" fill="#855151"/>
          <path id="Trazado_114084" data-name="Trazado 114084" d="M293.477,171.7a28.7,28.7,0,0,0-16.843,0,4.158,4.158,0,0,0,2.1,8.046c5.08-1.327,7.561-1.327,12.642,0a4.158,4.158,0,1,0,2.1-8.046Z" transform="translate(-231.034 -170.44)" fill="#855151"/>
          <path id="Trazado_114085" data-name="Trazado 114085" d="M209.39,208.459a4.158,4.158,0,0,0-4.158,4.158v3.427a4.158,4.158,0,1,0,8.316,0v-3.427A4.158,4.158,0,0,0,209.39,208.459Z" transform="translate(-200.601 -187.382)" fill="#855151"/>
          <path id="Trazado_114086" data-name="Trazado 114086" d="M295.926,208.459a4.158,4.158,0,0,0-4.158,4.158v3.427a4.158,4.158,0,1,0,8.316,0v-3.427A4.158,4.158,0,0,0,295.926,208.459Z" transform="translate(-239.163 -187.382)" fill="#855151"/>
        </g>
        <path id="Trazado_114087" data-name="Trazado 114087" d="M252.54,281.009a16.26,16.26,0,0,1-11.63,0,4.158,4.158,0,1,0-3.128,7.705,24.647,24.647,0,0,0,17.887,0,4.158,4.158,0,0,0-3.128-7.705Z" transform="translate(-213.949 -219.575)" fill="#ca6e59"/>
      </g>
      <path id="Trazado_114088" data-name="Trazado 114088" d="M270.789,102.128a14.073,14.073,0,0,0-6.91-12.119.722.722,0,0,1-.062-1.21,14.08,14.08,0,0,0-8.3-25.452H255.5a.731.731,0,0,1-.7-.96A14.083,14.083,0,0,0,235.04,45.427a.719.719,0,0,1-1.046-.559,14.077,14.077,0,0,0-24.852-7.262.723.723,0,0,1-1.207-.129,14.08,14.08,0,0,0-25.067,0,.722.722,0,0,1-1.207.129,14.077,14.077,0,0,0-24.852,7.262.72.72,0,0,1-1.046.559A14.084,14.084,0,0,0,136,62.4a.722.722,0,0,1-.7.946h-.011a14.08,14.08,0,0,0-8.3,25.452.722.722,0,0,1-.062,1.21,14.082,14.082,0,0,0-.2,24.118.714.714,0,0,1,.174,1.054,10.073,10.073,0,1,0,15.553-.243,1.137,1.137,0,0,1,.206-1.637,14.081,14.081,0,0,0,5.361-13.258,1.109,1.109,0,0,1,1.088-1.29h.014a14.082,14.082,0,0,0,13.764-11.118,1.128,1.128,0,0,1,1.243-.887,16.271,16.271,0,0,0,16.417-8.582,1.144,1.144,0,0,1,1.717-.383,21.592,21.592,0,0,0,26.278,0,1.145,1.145,0,0,1,1.717.383,16.271,16.271,0,0,0,16.417,8.582,1.127,1.127,0,0,1,1.243.887,14.082,14.082,0,0,0,13.764,11.118h.014a1.109,1.109,0,0,1,1.088,1.29,14.081,14.081,0,0,0,5.36,13.257,1.136,1.136,0,0,1,.212,1.632,10.072,10.072,0,1,0,15.546.247.712.712,0,0,1,.176-1.051A14.069,14.069,0,0,0,270.789,102.128Z" transform="translate(-8.262 -13.285)" fill="#9b5e5e"/>
      <g id="Grupo_80440" data-name="Grupo 80440" transform="translate(203.185 19.183)">
        <path id="Trazado_114089" data-name="Trazado 114089" d="M337.573,116.26a14.082,14.082,0,0,0-.2-24.118.722.722,0,0,1-.062-1.21,14.08,14.08,0,0,0-8.3-25.452H329a.731.731,0,0,1-.7-.96,14.083,14.083,0,0,0-19.768-16.959A.719.719,0,0,1,307.49,47a14.073,14.073,0,0,0-22.547-9.487A14.06,14.06,0,0,1,290.357,47a.72.72,0,0,0,1.046.559A14.084,14.084,0,0,1,311.17,64.52a.731.731,0,0,0,.7.96h.011a14.08,14.08,0,0,1,8.3,25.452.722.722,0,0,0,.062,1.21,14.073,14.073,0,0,1,1.393,23.287l0,0a1.136,1.136,0,0,1,.212,1.632,10.146,10.146,0,0,0-.893,1.247,10,10,0,0,1-.009,10.558A10.07,10.07,0,1,0,337.4,117.311a.714.714,0,0,1,.176-1.051Z" transform="translate(-284.943 -34.602)" fill="#855151"/>
      </g>
      <circle id="Elipse_4729" data-name="Elipse 4729" cx="10.851" cy="10.851" r="10.851" transform="translate(109.029 134.518)" fill="#e94444"/>
      <circle id="Elipse_4730" data-name="Elipse 4730" cx="10.851" cy="10.851" r="10.851" transform="translate(243.549 134.518)" fill="#e94444"/>
      <g id="Grupo_80441" data-name="Grupo 80441" transform="translate(118.986 234.473)">
        <circle id="Elipse_4731" data-name="Elipse 4731" cx="13.911" cy="13.911" r="13.911" transform="translate(0)" fill="#22b37f"/>
        <circle id="Elipse_4732" data-name="Elipse 4732" cx="13.911" cy="13.911" r="13.911" transform="translate(108.485)" fill="#22b37f"/>
      </g>
      <circle id="Elipse_4733" data-name="Elipse 4733" cx="13.911" cy="13.911" r="13.911" transform="translate(173.229 246.012)" fill="#22b37f"/>
      <path id="Trazado_114090" data-name="Trazado 114090" d="M268.186,395.12a8.567,8.567,0,0,0-12.113-.227c-10.272,9.895-29.083,21.69-60.361,21.69-31.364,0-50.2-11.855-60.477-21.8a8.567,8.567,0,0,0-11.915,12.313c12.55,12.145,35.3,26.622,72.391,26.622,36.989,0,59.7-14.4,72.247-26.483a8.566,8.566,0,0,0,.228-12.113Z" transform="translate(-8.573 -174.848)" fill="#e94444"/>
      <g id="Grupo_80442" data-name="Grupo 80442" transform="translate(178.572 217.649)">
        <path id="Trazado_114091" data-name="Trazado 114091" d="M321.587,395.221a8.567,8.567,0,0,0-12.113-.227c-1,.966-2.091,1.951-3.26,2.94a8.563,8.563,0,0,1-1.987,9.4c-11.543,11.118-31.711,24.192-63.681,26.207,2.77.175,5.618.276,8.567.276,36.989,0,59.7-14.4,72.247-26.483a8.565,8.565,0,0,0,.227-12.112Z" transform="translate(-240.546 -392.598)" fill="#d83131"/>
      </g>
    </g>
  </g>
</svg>
