<svg xmlns="http://www.w3.org/2000/svg" xmlns:xlink="http://www.w3.org/1999/xlink" width="85" height="78" viewBox="0 0 85 78">
  <defs>
    <clipPath id="clip-path">
      <rect id="Rectángulo_33962" data-name="Rectángulo 33962" width="85" height="78" transform="translate(200 5499)" fill="#01f6ff" stroke="#707070" stroke-width="1"/>
    </clipPath>
  </defs>
  <g id="Enmascarar_grupo_68" data-name="Enmascarar grupo 68" transform="translate(-200 -5499)" clip-path="url(#clip-path)">
    <g id="FILLED_OUTLINE" transform="translate(200.973 5496.541)">
      <path id="Trazado_116916" data-name="Trazado 116916" d="M3.893,79.161a37.634,37.634,0,0,1,75.268,0H67.481a25.954,25.954,0,0,0-51.909,0Z" fill="#59cea7"/>
      <path id="Trazado_116917" data-name="Trazado 116917" d="M27.928,33.109l-1.835-1.835,1.835-1.835a1.3,1.3,0,0,0,0-1.835l-1.835-1.835a1.3,1.3,0,0,0-1.835,0L22.422,27.6l-1.835-1.835,1.835-1.835a3.893,3.893,0,0,1,5.506,0l1.835,1.835a3.893,3.893,0,0,1,0,5.506Z" fill="#576cd3"/>
      <path id="Trazado_116918" data-name="Trazado 116918" d="M29.212,16.6l6.41,3.7,5.155-4.124L27.745,10.382A4.367,4.367,0,0,0,29.212,16.6Z" fill="#f4d1bd"/>
      <path id="Trazado_116919" data-name="Trazado 116919" d="M40.776,16.173l-7.692-3.419-2.926,4.388L35.622,20.3Z" fill="#4b64bf"/>
      <path id="Trazado_116920" data-name="Trazado 116920" d="M50.692,3.961,55,5.191l-2.879,6.717A5.191,5.191,0,0,1,48.606,14.9l-2.693.673a14.92,14.92,0,0,1,1,10.771l-.454,1.589a2.6,2.6,0,0,0,1.16,2.939l.66.4a5.191,5.191,0,0,1,1.972,6.773l-3.5,7a5.191,5.191,0,0,1-6.571,2.5l-2.054-.822,5.191-10.382-3.607-1.8a5.191,5.191,0,0,1-2.539-6.465l2.252-6.006-7.589,4.216a5.074,5.074,0,0,1-6.686-1.621L42.02,14.275,44.341,7.31a5.191,5.191,0,0,1,6.351-3.35Z" fill="#fcdcc8"/>
      <path id="Trazado_116921" data-name="Trazado 116921" d="M29.764,34.946,18.753,23.935a2.6,2.6,0,0,0-3.67,0L7.741,31.276a2.6,2.6,0,0,0,0,3.67L18.753,45.958a2.6,2.6,0,0,0,3.67,0l7.341-7.341a2.6,2.6,0,0,0,0-3.67Z" fill="#576cd3"/>
      <path id="Trazado_116922" data-name="Trazado 116922" d="M19.959,13.41a1.3,1.3,0,0,1-.411-.067L7.869,9.45a1.3,1.3,0,1,1,.821-2.462l11.68,3.893a1.3,1.3,0,0,1-.41,2.529Z" fill="#f4cf9b"/>
      <path id="Trazado_116923" data-name="Trazado 116923" d="M36.829,7.354a1.3,1.3,0,0,1-.411-.067L29.93,5.124a1.3,1.3,0,1,1,.821-2.462l6.489,2.163a1.3,1.3,0,0,1-.41,2.529Z" fill="#f4cf9b"/>
      <path id="Trazado_116924" data-name="Trazado 116924" d="M23.359,8.055a1.3,1.3,0,0,1-.411-.067L15.655,5.557a1.3,1.3,0,0,1,.821-2.462l7.294,2.431a1.3,1.3,0,0,1-.41,2.529Z" fill="#f4cf9b"/>
      <path id="Trazado_116925" data-name="Trazado 116925" d="M64.886,28.55a1.3,1.3,0,0,1-.411-.067L52.8,24.59a1.3,1.3,0,1,1,.821-2.462L65.3,26.021a1.3,1.3,0,0,1-.41,2.529Z" fill="#f4cf9b"/>
      <path id="Trazado_116926" data-name="Trazado 116926" d="M73.97,24.657a1.3,1.3,0,0,1-.411-.067l-9.084-3.028A1.3,1.3,0,1,1,65.3,19.1l9.084,3.028a1.3,1.3,0,0,1-.41,2.529Z" fill="#f4cf9b"/>
      <path id="Trazado_116927" data-name="Trazado 116927" d="M49.736,80.459A1.3,1.3,0,0,1,48.564,78.6a7.715,7.715,0,0,0,.749-3.336,1.3,1.3,0,0,1,2.6,0,10.292,10.292,0,0,1-1,4.45A1.3,1.3,0,0,1,49.736,80.459Z" fill="#f4cf9b"/>
      <path id="Trazado_116928" data-name="Trazado 116928" d="M33.318,80.459a1.3,1.3,0,0,1-1.173-.741,10.292,10.292,0,0,1-1-4.45,10.427,10.427,0,0,1,8.9-10.277,1.3,1.3,0,0,1,.368,2.569,7.819,7.819,0,0,0-6.672,7.707,7.715,7.715,0,0,0,.749,3.336,1.3,1.3,0,0,1-1.171,1.855Z" fill="#f4cf9b"/>
      <path id="Trazado_116929" data-name="Trazado 116929" d="M59.751,43.1l-.856-4.281A5.191,5.191,0,0,0,56.13,35.2l-7.85-3.933L45.42,36.336l7.786,5.191,1.3,7.786h.157a5.191,5.191,0,0,0,5.09-6.209Z" fill="#575757"/>
      <path id="Trazado_116930" data-name="Trazado 116930" d="M33.7,25.242l5.725-3.181-2.252,6.006a5.178,5.178,0,0,0-.33,1.78h9.815a2.591,2.591,0,0,1-.2-1.914l.454-1.589a14.92,14.92,0,0,0-1-10.771l-3.893-1.3L30.7,21.242Z" fill="#576cd3"/>
      <path id="Trazado_116931" data-name="Trazado 116931" d="M48.279,31.267l-.66-.4a2.588,2.588,0,0,1-.963-1.024H36.842a5.191,5.191,0,0,0,2.869,4.685l3.606,1.8L38.126,46.718l2.054.822a5.191,5.191,0,0,0,6.571-2.5l3.5-7a5.191,5.191,0,0,0-1.972-6.773Z" fill="#6e6e6e"/>
      <path id="Trazado_116932" data-name="Trazado 116932" d="M13.247,25.77,27.929,40.452l1.835-1.835a2.6,2.6,0,0,0,0-3.67L18.753,23.935a2.6,2.6,0,0,0-3.67,0Z" fill="#3f589e"/>
      <path id="Trazado_116933" data-name="Trazado 116933" d="M56.346,57.853A25.923,25.923,0,0,1,67.481,79.161H79.161A37.568,37.568,0,0,0,64.7,49.5Z" fill="#00b378"/>
      <path id="Trazado_116934" data-name="Trazado 116934" d="M41.527,71.374a3.893,3.893,0,1,0,3.893,3.893l30.5-30.5a2.753,2.753,0,1,0-3.893-3.893Z" fill="#f1bc75"/>
      <g id="Grupo_81550" data-name="Grupo 81550">
        <path id="Trazado_116935" data-name="Trazado 116935" d="M50.157,56.056a1.3,1.3,0,1,0,.909-2.431A27.26,27.26,0,0,0,26.88,56.19l-.008-.008-6.489-6.489c-.016-.016-.033-.03-.05-.045a36.24,36.24,0,0,1,14.927-6.285,1.3,1.3,0,0,0-.445-2.557A38.565,38.565,0,0,0,27.3,42.918l1.548-1.548h0l1.834-1.834a3.9,3.9,0,0,0,0-5.506l-1.835-1.835.917-.918A3.9,3.9,0,0,0,30.87,28.03a6.274,6.274,0,0,0,1.6-.619l4.505-2.5-1.013,2.7a6.474,6.474,0,0,0,3.173,8.082l2.446,1.223-4.61,9.221a1.3,1.3,0,0,0,.679,1.785l2.054.822a6.4,6.4,0,0,0,2.38.458,6.532,6.532,0,0,0,5.833-3.58l2.274-4.548,1.833,1.222,1.205,7.232a1.3,1.3,0,0,0,1.28,1.084h.157a6.489,6.489,0,0,0,6.363-7.761l-.856-4.281a6.447,6.447,0,0,0-3.456-4.529L48.9,30.129l-.617-.37a1.3,1.3,0,0,1-.58-1.469l.454-1.59a16.173,16.173,0,0,0-.443-10.242l1.2-.3a6.525,6.525,0,0,0,4.39-3.739L56.19,5.7a1.3,1.3,0,0,0-.836-1.759l-4.305-1.23h0A6.475,6.475,0,0,0,43.11,6.9l-2.172,6.517-1.329.818L28.272,9.2a1.3,1.3,0,0,0-1.607.466,5.665,5.665,0,0,0,1.9,8.061l2.786,1.592-5.7,3.508a3.868,3.868,0,0,0-3.229,1.111l-.918.918-1.835-1.835a3.893,3.893,0,0,0-5.506,0L6.824,30.358a3.9,3.9,0,0,0,0,5.506L17.835,46.875a3.9,3.9,0,0,0,.942.7A38.9,38.9,0,0,0,2.6,79.161a1.3,1.3,0,0,0,1.3,1.3H15.573a1.3,1.3,0,0,0,1.3-1.3,24.674,24.674,0,0,1,33.286-23.1ZM27.193,24.923l3.178-1.956,1.4,1.863-.563.313a3.8,3.8,0,0,1-4.012-.22Zm6.865-1.365L32.591,21.6l9.593-5.9,2.792.931a13.584,13.584,0,0,1,.69,9.359l-.454,1.589a3.876,3.876,0,0,0-.148.973H38.378c0-.009.005-.018.009-.027l2.252-6.006a1.3,1.3,0,0,0-1.845-1.59Zm11.532,20.9a3.916,3.916,0,0,1-4.928,1.874l-.744-.3,4.56-9.12a1.3,1.3,0,0,0-.58-1.741l-3.606-1.8a3.879,3.879,0,0,1-1.943-2.227h7.623a3.876,3.876,0,0,0,.981.839l.659.4a3.911,3.911,0,0,1,1.479,5.079Zm12.032-5.383.856,4.281A3.9,3.9,0,0,1,55.585,47.9l-1.1-6.592a1.3,1.3,0,0,0-.56-.866l-2.57-1.714.057-.113a6.45,6.45,0,0,0,.572-4.046l3.564,1.786a3.868,3.868,0,0,1,2.074,2.717ZM45.572,7.721a3.885,3.885,0,0,1,4.763-2.512l2.889.825-2.3,5.363a3.915,3.915,0,0,1-2.634,2.243l-2.326.582-2.3-.768ZM28.391,13.509a3.054,3.054,0,0,1,0-1.421l2.76,1.227-1.394,2.091a3.034,3.034,0,0,1-1.366-1.9ZM32.012,16.7l1.545-2.317,3.372,1.5-3.057,1.881ZM24.259,25.77c.018-.018.039-.034.058-.051a6.38,6.38,0,0,0,3.92,2.379,1.3,1.3,0,0,1-.308,1.342l-.918.918-3.67-3.67Zm-7.341-1.3a1.289,1.289,0,0,1,.918.38L20.588,27.6h0l8.258,8.258a1.3,1.3,0,0,1,0,1.835l-.918.918L15.083,25.77,16,24.852a1.289,1.289,0,0,1,.918-.38ZM8.659,34.028a1.3,1.3,0,0,1,0-1.835L13.247,27.6,26.094,40.452,21.506,45.04a1.3,1.3,0,0,1-1.835,0Zm5.646,43.834H5.214a36.306,36.306,0,0,1,13.1-26.655,1.3,1.3,0,0,0,.235.321l6.185,6.185A27.226,27.226,0,0,0,14.305,77.863Z" fill="#293a60"/>
        <path id="Trazado_116936" data-name="Trazado 116936" d="M72.4,55.444a1.3,1.3,0,1,0-2.057,1.582,35.96,35.96,0,0,1,7.495,20.836H68.749A27.114,27.114,0,0,0,64.29,64.171,1.3,1.3,0,1,0,62.123,65.6a24.549,24.549,0,0,1,4.06,13.56,1.3,1.3,0,0,0,1.3,1.3H79.161a1.3,1.3,0,0,0,1.3-1.3A38.568,38.568,0,0,0,72.4,55.444Z" fill="#293a60"/>
        <path id="Trazado_116937" data-name="Trazado 116937" d="M76.834,39.96a4.051,4.051,0,0,0-5.729,0L40.958,70.107a5.191,5.191,0,1,0,5.728,5.728L76.834,45.689a4.055,4.055,0,0,0,0-5.728ZM75,43.854,44.5,74.35a1.3,1.3,0,0,0-.38.918,2.6,2.6,0,1,1-2.6-2.6,1.3,1.3,0,0,0,.918-.38l30.5-30.5A1.455,1.455,0,1,1,75,43.854Z" fill="#293a60"/>
        <path id="Trazado_116938" data-name="Trazado 116938" d="M7.869,9.45l11.68,3.893a1.3,1.3,0,0,0,.821-2.462L8.689,6.988A1.3,1.3,0,0,0,7.869,9.45Z" fill="#293a60"/>
        <path id="Trazado_116939" data-name="Trazado 116939" d="M29.93,5.124l6.489,2.163a1.3,1.3,0,0,0,.821-2.462L30.751,2.662a1.3,1.3,0,1,0-.821,2.462Z" fill="#293a60"/>
        <path id="Trazado_116940" data-name="Trazado 116940" d="M15.655,5.557l7.294,2.431a1.3,1.3,0,0,0,.821-2.462L16.476,3.095a1.3,1.3,0,0,0-.821,2.462Z" fill="#293a60"/>
        <path id="Trazado_116941" data-name="Trazado 116941" d="M53.617,22.128A1.3,1.3,0,1,0,52.8,24.59l11.679,3.893a1.3,1.3,0,1,0,.821-2.462Z" fill="#293a60"/>
        <path id="Trazado_116942" data-name="Trazado 116942" d="M64.475,21.562l9.084,3.028a1.3,1.3,0,1,0,.821-2.462L65.3,19.1a1.3,1.3,0,1,0-.821,2.462Z" fill="#293a60"/>
        <path id="Trazado_116943" data-name="Trazado 116943" d="M50.611,73.97a1.3,1.3,0,0,0-1.3,1.3,7.715,7.715,0,0,1-.749,3.336,1.3,1.3,0,1,0,2.345,1.114,10.292,10.292,0,0,0,1-4.45,1.3,1.3,0,0,0-1.3-1.3Z" fill="#293a60"/>
        <path id="Trazado_116944" data-name="Trazado 116944" d="M40.413,67.56a1.3,1.3,0,0,0-.368-2.569,10.427,10.427,0,0,0-8.9,10.277,10.292,10.292,0,0,0,1,4.45A1.3,1.3,0,1,0,34.489,78.6a7.715,7.715,0,0,1-.749-3.336,7.819,7.819,0,0,1,6.672-7.707Z" fill="#293a60"/>
      </g>
    </g>
  </g>
</svg>
