<svg xmlns="http://www.w3.org/2000/svg" width="240" height="373" viewBox="0 0 240 373">
  <g id="Grupo_80445" data-name="Grupo 80445" transform="translate(6746 6483)">
    <rect id="Rectángulo_33796" data-name="Rectángulo 33796" width="240" height="373" transform="translate(-6746 -6483)" fill="#cee284"/>
    <circle id="Elipse_4738" data-name="Elipse 4738" cx="119" cy="119" r="119" transform="translate(-6745 -6432)" fill="#adce32"/>
    <g id="mujer" transform="translate(-6780.691 -6389)">
      <path id="Trazado_114024" data-name="Trazado 114024" d="M260.789,278.14H130.581L148.365,401l84.9-.011,7.863-4.155L244.608,401H276.96Z" transform="translate(-41.622 -122.001)" fill="#d97b7b"/>
      <path id="Trazado_114025" data-name="Trazado 114025" d="M108.715,186.352,124.277,360.74H75.665Z" transform="translate(-17.534 -81.74)" fill="#d16161"/>
      <path id="Trazado_114026" data-name="Trazado 114026" d="M294.318,325.438l11.339.011c5.2-6.715,7.966-16.972,15.809-61.449l16.543,61.449H354.85s-33.991-161.341-33.383-174.388C318.079,129.175,296,106.084,286.7,105.9c-20.209-.4-16.71,46.2-16.71,82.922,0,43.028,22.54,49.121,24.324,136.619" transform="translate(-102.671 -46.449)" fill="#d16161"/>
      <path id="Trazado_114027" data-name="Trazado 114027" d="M220.074,288.4c-23.915,0-36.381-4.48-36.381-4.48v28.068s12.466,10.093,36.381,10.093a72.925,72.925,0,0,0,23.6-3.712c-3.66-11.127-1.612-20.1-3.763-30.536C235.743,288.178,225.385,288.4,220.074,288.4Z" transform="translate(-64.918 -124.536)" fill="#f8e883"/>
      <path id="Trazado_114028" data-name="Trazado 114028" d="M296,283.92s-7.546,2.71-22.154,3.914c2.151,10.432,5.717,19.409,9.377,30.536,8.446-2.879,12.777-6.382,12.777-6.382Z" transform="translate(-104.461 -124.536)" fill="#eec06b"/>
      <path id="Trazado_114029" data-name="Trazado 114029" d="M193.71,259.425v23.833s7.567,10.093,30.757,10.093a58.355,58.355,0,0,0,18.278-2.621l-.807-33.916Z" transform="translate(-69.312 -112.647)" fill="#e3a76f"/>
      <path id="Trazado_114030" data-name="Trazado 114030" d="M255.225,267.031V219.82H193.71V243.2c8.026,5.76,17.152,9.17,25.144,9.17a40.644,40.644,0,0,0,18.111-4.869,110.853,110.853,0,0,0,5.78,27C251.855,271.513,255.225,267.031,255.225,267.031Z" transform="translate(-69.312 -96.42)" fill="#ab7b64"/>
      <path id="Trazado_114031" data-name="Trazado 114031" d="M334.534,214.964a508.772,508.772,0,0,0-4.843-53.56c-.644,13.833-11.814,33.628-29.313,45.734,1.69,37.614,27.19,47.149,29.68,125.877,9.533-19.634,19.638-57.406,4.476-118.051Z" transform="translate(-116.1 -70.797)" fill="#8c818f"/>
      <path id="Trazado_114032" data-name="Trazado 114032" d="M325.034,128.284C321.645,106.4,316,86.084,306.7,85.9c-20.209-.4-16.71,46.2-16.71,82.922,0,43.412,22.945,49.228,24.368,138.982a3.08,3.08,0,0,0,5.658,1.64,85.637,85.637,0,0,0,5.382-9.548c-2.4-75.946-20.993-87.5-23.821-121.991a6.993,6.993,0,0,1,2.624-6.022c15.245-12.2,20.221-30.551,20.829-43.6Z" transform="translate(-111.443 -37.676)" fill="#655e67"/>
      <path id="Trazado_114033" data-name="Trazado 114033" d="M151.3,208.748s-9.256,22.218-10.448,26.983c-15.163,60.646.557,98.417,10.091,118.051,2.153-68.049,17.3-84.405,22.462-111.881-1.92-1.057-22.1-33.153-22.1-33.153Z" transform="translate(-43.358 -91.563)" fill="#8c818f"/>
      <path id="Trazado_114034" data-name="Trazado 114034" d="M140.939,181.843c.662-2.649,2.083-7.148,3.213-10.621a2.65,2.65,0,0,1,4.624-.792c3.168,4.128,8.394,10.39,13.457,14.024a55.98,55.98,0,0,0,5.645,3.56,102.382,102.382,0,0,0,1.718-19.195c0-36.717,3.5-83.326-16.71-82.922s-23.175,95.946-23.175,95.946c-18.163,72.645-.068,112.479,9.869,127.618a3.079,3.079,0,0,0,5.648-1.654q.065-4.07.187-7.914c-9.533-19.633-19.639-57.4-4.476-118.05Z" transform="translate(-37.836 -37.676)" fill="#655e67"/>
      <path id="Trazado_114035" data-name="Trazado 114035" d="M182.684,76.318v29.64c0,25.578,18.993,46.313,36.947,46.313,12.364,0,27.445-8.162,36.966-20.562,5.654-7.363,9.347-28.916,9.347-31.782V51.282L219.621,30.011C219.216,30.281,182.684,50.908,182.684,76.318Z" transform="translate(-64.476 -13.164)" fill="#e3a76f"/>
      <path id="Trazado_114036" data-name="Trazado 114036" d="M180.98,105.953V76.313c0-25.41,30.918-46.037,31.324-46.307L212.289,30,166,51.277V99.921c0,2.867,3.691,24.413,9.341,31.775,9.521,12.4,24.6,20.57,36.972,20.57-13.332,0-31.333-20.735-31.333-46.313Z" transform="translate(-57.158 -13.159)" fill="#ab7b64"/>
      <path id="Trazado_114037" data-name="Trazado 114037" d="M189.776,157.557c-1.3-1.3-1.287-3.636-1.287-8.11a4.193,4.193,0,0,1,1.547-.3c3.994,0,7.53,3,8.8,7.46A11.319,11.319,0,0,1,194,169.44a10.9,10.9,0,0,1-3.332-8.5,3.194,3.194,0,0,0-.742-3.37c-.052,0-.1-.008-.152-.011Zm61.046-25.249c-3,0-6.721.972-11.433,2.2a103.8,103.8,0,0,1-15.547,3.185v-14.6a4.21,4.21,0,1,0-8.421,0v14.6a103.943,103.943,0,0,1-15.547-3.185c-4.712-1.23-8.434-2.2-11.433-2.2-.048,0-.095,0-.143,0l-5.614,3.825,5.614,4.595.143,0c1.918,0,5.506.937,9.306,1.929a106.037,106.037,0,0,0,17.674,3.5v6.334a4.21,4.21,0,1,0,8.421,0v-6.334a106.018,106.018,0,0,0,17.674-3.5c3.8-.993,7.389-1.929,9.306-1.929,3.89,0,6.971,1.276,8.675,3.594,1.817,2.47,2.1,6.12.806,10.279-1.284,4.117-3.6,7.068-6.357,8.1a4.49,4.49,0,0,1-4.01-.255,3.077,3.077,0,0,1-.6-4.876,4.21,4.21,0,0,0-.109-8.419c-3.994,0-7.53,3-8.8,7.46a11.336,11.336,0,0,0,5.079,13,12.867,12.867,0,0,0,11.088,1.082c5.654-7.363,9.348-16.22,9.348-25.749v-6.032c-3.358-4.257-8.7-6.6-15.123-6.6Zm-31.19,49.652a4.21,4.21,0,0,0-4.21,4.21v4.781a29.663,29.663,0,0,0,8.421,0V186.17A4.21,4.21,0,0,0,219.631,181.96Z" transform="translate(-64.476 -52.145)" fill="#d16161"/>
      <path id="Trazado_114038" data-name="Trazado 114038" d="M180.98,142.806v8.42c-3.821.031-6.849,1.3-8.532,3.591-1.817,2.47-2.1,6.12-.807,10.279,1.284,4.117,3.6,7.069,6.357,8.1a4.492,4.492,0,0,0,4.01-.254,3.162,3.162,0,0,0,1.342-1.506,56.447,56.447,0,0,0,3.332,8.5c-.084.054-.162.113-.247.166a12.509,12.509,0,0,1-6.6,1.859,13.627,13.627,0,0,1-4.49-.784C169.692,173.814,166,164.96,166,155.433V149.4c3.333-4.224,8.622-6.56,14.98-6.595Zm-2.472,21.048a4.207,4.207,0,0,0,3.95,4.2,55.522,55.522,0,0,1-1.287-8.11,4.208,4.208,0,0,0-2.663,3.913Z" transform="translate(-57.158 -62.639)" fill="#ae3030"/>
      <path id="Trazado_114039" data-name="Trazado 114039" d="M210.89,146.8a4.21,4.21,0,0,1-4.21-4.21v-8.947a4.21,4.21,0,0,1,8.421,0v8.947A4.21,4.21,0,0,1,210.89,146.8Z" transform="translate(-75.001 -56.773)" fill="#655e67"/>
      <path id="Trazado_114040" data-name="Trazado 114040" d="M280.89,146.8a4.21,4.21,0,0,1-4.21-4.21v-8.947a4.21,4.21,0,0,1,8.421,0v8.947A4.21,4.21,0,0,1,280.89,146.8Z" transform="translate(-105.705 -56.773)" fill="#655e67"/>
      <path id="Trazado_114041" data-name="Trazado 114041" d="M191.368,107.849c3.239-2.421,13.225-2.715,16.276.336a4.21,4.21,0,0,0,5.954-5.954c-4.5-4.5-14.008-5.772-21.345-3.821-.565,2.449-2.568,4.96-2.568,7.522C189.684,106.5,191.368,107.146,191.368,107.849Z" transform="translate(-67.546 -42.777)" fill="#8c818f"/>
      <path id="Trazado_114042" data-name="Trazado 114042" d="M180.406,108.876a4.21,4.21,0,0,0,5.954,0,3.679,3.679,0,0,1,.4-.336v-1.918a33.378,33.378,0,0,1,.884-7.522,16.019,16.019,0,0,0-7.235,3.821A4.209,4.209,0,0,0,180.406,108.876Z" transform="translate(-62.936 -43.469)" fill="#655e67"/>
      <path id="Trazado_114043" data-name="Trazado 114043" d="M269.707,108.184a4.21,4.21,0,0,1-5.954-5.954c6.277-6.277,22.3-6.277,28.582,0a4.21,4.21,0,0,1-5.954,5.954c-2.726-2.726-13.487-3.187-16.674,0Z" transform="translate(-99.495 -42.776)" fill="#8c818f"/>
      <path id="Trazado_114044" data-name="Trazado 114044" d="M236.728,207.087a25.188,25.188,0,0,1-13.236-4.042,4.21,4.21,0,0,1,4.746-6.956,15.273,15.273,0,0,0,16.983,0,4.21,4.21,0,0,1,4.745,6.956,25.188,25.188,0,0,1-13.236,4.042Z" transform="translate(-81.573 -85.692)" fill="#ab7b64"/>
      <path id="Trazado_114045" data-name="Trazado 114045" d="M121.38,63.448c4.457-17.763,20.366-38.186,42.938-38.186S202.8,45.685,207.257,63.448L261.342,279h18.227a4.207,4.207,0,0,0,4.085-5.23c-7.923-31.573-49.2-196.042-54.156-215.8C222.733,31,206.443,0,164.318,0c-12.182,0-22.2,2.6-30.454,6.934-12.428,14.33-23.43,35.1-27.428,51.032C100.947,79.84,56.581,279,56.581,279H67.294c5.532-22.048,50.47-201.143,54.086-215.552Z" transform="translate(-9.163)" fill="#e7afaf"/>
      <path id="Trazado_114046" data-name="Trazado 114046" d="M124.7,12.352C104.41,23.015,94.785,44.217,89.975,63.384c-4.959,19.762-46.233,184.231-54.156,215.8a4.207,4.207,0,0,0,4.085,5.23h7.514S97.4,85.258,102.887,63.384c4-15.932,9.386-36.7,21.814-51.032Z" transform="translate(0 -5.418)" fill="#d97b7b"/>
    </g>
  </g>
</svg>
