<svg xmlns="http://www.w3.org/2000/svg" xmlns:xlink="http://www.w3.org/1999/xlink" width="51" height="51" viewBox="0 0 51 51">
  <defs>
    <clipPath id="clip-path">
      <rect id="Rectángulo_33917" data-name="Rectángulo 33917" width="51" height="51" transform="translate(298 6905)" fill="#fff" stroke="#707070" stroke-width="1"/>
    </clipPath>
  </defs>
  <g id="Enmascarar_grupo_57" data-name="Enmascarar grupo 57" transform="translate(-298 -6905)" clip-path="url(#clip-path)">
    <g id="ph" transform="translate(298 6905)">
      <path id="Trazado_116643" data-name="Trazado 116643" d="M27.741,47.016,25.5,50l-2.241-2.988V29.285h4.482Z" fill="#8690af"/>
      <path id="Trazado_116644" data-name="Trazado 116644" d="M36.893,27.268,27.71,33.39a3.984,3.984,0,0,1-4.42,0l-9.183-6.122a7.969,7.969,0,0,1-3.548-6.63V4.981A3.984,3.984,0,0,1,14.543,1H36.457a3.984,3.984,0,0,1,3.984,3.984V20.638A7.969,7.969,0,0,1,36.893,27.268Z" fill="#fff2a0"/>
      <g id="Grupo_80979" data-name="Grupo 80979">
        <path id="Trazado_116645" data-name="Trazado 116645" d="M41.046,3.042A4.976,4.976,0,0,0,36.457,0H29.951a1,1,0,1,0,0,1.992h6.506A3,3,0,0,1,39.445,4.98v13.2H11.555V4.98a3,3,0,0,1,2.988-2.988h6.444a1,1,0,0,0,0-1.992H14.543a4.977,4.977,0,0,0-4.98,4.98V20.638A8.965,8.965,0,0,0,13.555,28.1L22.263,33.9V47.016a1,1,0,0,0,.2.6L24.7,50.6a1,1,0,0,0,1.594,0l2.241-2.988a1,1,0,0,0,.2-.6V33.9L37.445,28.1a8.966,8.966,0,0,0,3.992-7.459V4.98a4.94,4.94,0,0,0-.392-1.938Zm-1.6,17.6a6.968,6.968,0,0,1-.687,3.019H26.5V20.171H39.445ZM24.5,20.171v3.486H12.241a6.968,6.968,0,0,1-.686-3.019v-.467H24.5Zm1,28.173-1.245-1.66V34.9a4.986,4.986,0,0,0,2.49,0V46.684Zm1.658-15.783a2.987,2.987,0,0,1-3.315,0s-9.864-6.623-10.163-6.912H37.321c-.3.289-10.163,6.912-10.163,6.912Z"/>
        <circle id="Elipse_4769" data-name="Elipse 4769" cx="0.996" cy="0.996" r="0.996" transform="translate(24.473)"/>
        <path id="Trazado_116646" data-name="Trazado 116646" d="M27.492,15.539a1,1,0,0,0,1-1V11.156h3.486v3.387a1,1,0,1,0,1.992,0V5.777a1,1,0,0,0-1.992,0V9.164H28.488V5.777a1,1,0,0,0-1.992,0v8.766A1,1,0,0,0,27.492,15.539Z"/>
        <path id="Trazado_116647" data-name="Trazado 116647" d="M18.029,4.881a1,1,0,0,0-.993.937.509.509,0,0,0,0,.059v8.566a1,1,0,0,0,1.992,0V11.849c.6,0,1.312-.006,1.7-.006A3.644,3.644,0,0,0,24.5,8.362a3.644,3.644,0,0,0-3.78-3.481Zm4.482,3.481a1.682,1.682,0,0,1-1.788,1.489c-.388,0-1.1,0-1.7.006V6.873h1.7A1.682,1.682,0,0,1,22.512,8.362Z"/>
      </g>
    </g>
  </g>
</svg>
