<svg xmlns="http://www.w3.org/2000/svg" xmlns:xlink="http://www.w3.org/1999/xlink" width="56" height="56" viewBox="0 0 56 56">
  <defs>
    <clipPath id="clip-path">
      <rect id="Rectángulo_34013" data-name="Rectángulo 34013" width="56" height="56" transform="translate(947 1400)" fill="#fff" stroke="#707070" stroke-width="1"/>
    </clipPath>
  </defs>
  <g id="Enmascarar_grupo_78" data-name="Enmascarar grupo 78" transform="translate(-947 -1400)" clip-path="url(#clip-path)">
    <g id="ong" transform="translate(947 1400)">
      <g id="Grupo_83949" data-name="Grupo 83949">
        <path id="Trazado_117642" data-name="Trazado 117642" d="M15.073.82H40.927V15.4H15.073Z" fill="#fce25c"/>
      </g>
      <g id="Grupo_83950" data-name="Grupo 83950">
        <path id="Trazado_117643" data-name="Trazado 117643" d="M7.008,18.056H48.992v3.315H7.008Z" fill="#554e57"/>
      </g>
      <g id="Grupo_83951" data-name="Grupo 83951">
        <path id="Trazado_117644" data-name="Trazado 117644" d="M46.672,18.056h2.32v3.315h-2.32Z" fill="#453e43"/>
      </g>
      <g id="Grupo_83952" data-name="Grupo 83952">
        <path id="Trazado_117645" data-name="Trazado 117645" d="M7.008,21.371H48.992V51.865H7.008Z" fill="#eff3f5"/>
      </g>
      <g id="Grupo_83953" data-name="Grupo 83953">
        <path id="Trazado_117646" data-name="Trazado 117646" d="M46.672,21.371h2.32V51.865h-2.32Z" fill="#c9e2e7"/>
      </g>
      <g id="Grupo_83954" data-name="Grupo 83954">
        <path id="Trazado_117647" data-name="Trazado 117647" d="M4.8,51.865H51.2V55.18H4.8Z" fill="#554e57"/>
      </g>
      <g id="Grupo_83955" data-name="Grupo 83955">
        <path id="Trazado_117648" data-name="Trazado 117648" d="M47.446,51.865H51.2V55.18H47.446Z" fill="#453e43"/>
      </g>
      <g id="Grupo_83956" data-name="Grupo 83956">
        <path id="Trazado_117649" data-name="Trazado 117649" d="M10.322,24.685h3.315v5.3H10.322Z" fill="#62b4fd"/>
      </g>
      <g id="Grupo_83957" data-name="Grupo 83957">
        <path id="Trazado_117650" data-name="Trazado 117650" d="M16.73,24.685h3.315v5.3H16.73Z" fill="#62b4fd"/>
      </g>
      <g id="Grupo_83958" data-name="Grupo 83958">
        <path id="Trazado_117651" data-name="Trazado 117651" d="M23.139,24.685h3.315v5.3H23.139Z" fill="#62b4fd"/>
      </g>
      <g id="Grupo_83959" data-name="Grupo 83959">
        <path id="Trazado_117652" data-name="Trazado 117652" d="M29.547,24.685h3.315v5.3H29.547Z" fill="#62b4fd"/>
      </g>
      <g id="Grupo_83960" data-name="Grupo 83960">
        <path id="Trazado_117653" data-name="Trazado 117653" d="M35.955,24.685H39.27v5.3H35.955Z" fill="#62b4fd"/>
      </g>
      <g id="Grupo_83961" data-name="Grupo 83961">
        <path id="Trazado_117654" data-name="Trazado 117654" d="M42.363,24.685h3.315v5.3H42.363Z" fill="#62b4fd"/>
      </g>
      <g id="Grupo_83962" data-name="Grupo 83962">
        <path id="Trazado_117655" data-name="Trazado 117655" d="M10.322,33.3h3.315v5.3H10.322Z" fill="#62b4fd"/>
      </g>
      <g id="Grupo_83963" data-name="Grupo 83963">
        <path id="Trazado_117656" data-name="Trazado 117656" d="M16.73,33.3h3.315v5.3H16.73Z" fill="#62b4fd"/>
      </g>
      <g id="Grupo_83964" data-name="Grupo 83964">
        <path id="Trazado_117657" data-name="Trazado 117657" d="M23.139,33.3h3.315v5.3H23.139Z" fill="#62b4fd"/>
      </g>
      <g id="Grupo_83965" data-name="Grupo 83965">
        <path id="Trazado_117658" data-name="Trazado 117658" d="M29.547,33.3h3.315v5.3H29.547Z" fill="#62b4fd"/>
      </g>
      <g id="Grupo_83966" data-name="Grupo 83966">
        <path id="Trazado_117659" data-name="Trazado 117659" d="M35.955,33.3H39.27v5.3H35.955Z" fill="#62b4fd"/>
      </g>
      <g id="Grupo_83967" data-name="Grupo 83967">
        <path id="Trazado_117660" data-name="Trazado 117660" d="M42.363,33.3h3.315v5.3H42.363Z" fill="#62b4fd"/>
      </g>
      <g id="Grupo_83968" data-name="Grupo 83968">
        <path id="Trazado_117661" data-name="Trazado 117661" d="M10.322,41.921h3.315v5.3H10.322Z" fill="#62b4fd"/>
      </g>
      <g id="Grupo_83969" data-name="Grupo 83969">
        <path id="Trazado_117662" data-name="Trazado 117662" d="M16.73,41.921h3.315v5.3H16.73Z" fill="#62b4fd"/>
      </g>
      <g id="Grupo_83970" data-name="Grupo 83970">
        <path id="Trazado_117663" data-name="Trazado 117663" d="M23.139,41.921H28v9.944H23.139Z" fill="#d57e4b"/>
      </g>
      <g id="Grupo_83971" data-name="Grupo 83971">
        <path id="Trazado_117664" data-name="Trazado 117664" d="M35.955,41.921H39.27v5.3H35.955Z" fill="#62b4fd"/>
      </g>
      <g id="Grupo_83972" data-name="Grupo 83972">
        <path id="Trazado_117665" data-name="Trazado 117665" d="M42.363,41.921h3.315v5.3H42.363Z" fill="#62b4fd"/>
      </g>
      <g id="Grupo_83973" data-name="Grupo 83973">
        <path id="Trazado_117666" data-name="Trazado 117666" d="M28,41.921h4.861v9.944H28Z" transform="translate(60.861 93.786) rotate(180)" fill="#d57e4b"/>
      </g>
      <g id="Grupo_83974" data-name="Grupo 83974">
        <path id="Trazado_117667" data-name="Trazado 117667" d="M7,41.433H7a.82.82,0,0,0,.82-.82l.01-18.422H48.172v3.018a.82.82,0,0,0,1.641,0V18.056a.82.82,0,0,0-.82-.82H39.427V16.225h1.5a.82.82,0,0,0,.82-.82V10.434a.82.82,0,0,0-1.641,0v4.151H15.893V1.641H40.107V6.6a.82.82,0,1,0,1.641,0V.82a.82.82,0,0,0-.82-.82H15.073a.82.82,0,0,0-.82.82V15.4a.82.82,0,0,0,.82.82h1.5v1.011H7.008a.82.82,0,0,0-.82.82l-.01,22.556a.82.82,0,0,0,.82.821Zm30.789-24.2H36.554V16.225h1.232Zm-16.7,0V16.225H34.914v1.011Zm-2.873-1.011h1.232v1.011H18.214ZM7.828,18.876H48.172v1.674H7.828Z"/>
        <path id="Trazado_117668" data-name="Trazado 117668" d="M51.2,51.045H49.813V29.055a.82.82,0,0,0-1.641,0v21.99H33.682V41.921a.82.82,0,0,0-.82-.82H23.139a.82.82,0,0,0-.82.82v9.124H7.828v-6.58a.82.82,0,0,0-1.641,0v6.58H4.8a.82.82,0,0,0-.82.82V55.18A.82.82,0,0,0,4.8,56H51.2a.82.82,0,0,0,.82-.82V51.865a.82.82,0,0,0-.82-.82Zm-19.161,0H28.82v-8.3h3.221Zm-8.082-8.3H27.18v8.3H23.959ZM50.382,54.359H5.618V52.685H50.382v1.674Z"/>
        <path id="Trazado_117669" data-name="Trazado 117669" d="M22.365,13.352a.82.82,0,0,0,.82-.82V3.693a.82.82,0,1,0-1.641,0V8.342L18.766,5.563V3.693a.82.82,0,1,0-1.641,0v8.839a.82.82,0,0,0,1.641,0V7.883l2.779,2.779v1.87a.82.82,0,0,0,.82.82Z"/>
        <path id="Trazado_117670" data-name="Trazado 117670" d="M30.21,6.281a.82.82,0,0,0,.82-.82V3.693a.82.82,0,0,0-.82-.82H25.79a.82.82,0,0,0-.82.82v8.839a.82.82,0,0,0,.82.82H30.21a.82.82,0,0,0,.82-.82V8.665a.82.82,0,0,0-.82-.82H28.663a.82.82,0,1,0,0,1.641h.726v2.226H26.611v-7.2h2.779v.947A.82.82,0,0,0,30.21,6.281Z"/>
        <path id="Trazado_117671" data-name="Trazado 117671" d="M33.635,2.873a.82.82,0,0,0-.82.82v8.839a.82.82,0,0,0,.82.82h4.42a.82.82,0,0,0,.82-.82V3.693a.82.82,0,0,0-.82-.82Zm3.6,8.839H34.455v-7.2h2.779Z"/>
        <path id="Trazado_117672" data-name="Trazado 117672" d="M14.457,24.685a.82.82,0,0,0-.82-.82H10.322a.82.82,0,0,0-.82.82v5.3a.82.82,0,0,0,.82.82h3.315a.82.82,0,0,0,.82-.82Zm-1.641,4.483H11.142V25.506h1.674Z"/>
        <path id="Trazado_117673" data-name="Trazado 117673" d="M20.865,24.685a.82.82,0,0,0-.82-.82H16.73a.82.82,0,0,0-.82.82v5.3a.82.82,0,0,0,.82.82h3.315a.82.82,0,0,0,.82-.82Zm-1.641,4.483H17.551V25.506h1.674Z"/>
        <path id="Trazado_117674" data-name="Trazado 117674" d="M27.274,24.685a.82.82,0,0,0-.82-.82H23.139a.82.82,0,0,0-.82.82v5.3a.82.82,0,0,0,.82.82h3.315a.82.82,0,0,0,.82-.82Zm-1.641,4.483H23.959V25.506h1.674Z"/>
        <path id="Trazado_117675" data-name="Trazado 117675" d="M33.682,24.685a.82.82,0,0,0-.82-.82H29.547a.82.82,0,0,0-.82.82v5.3a.82.82,0,0,0,.82.82h3.315a.82.82,0,0,0,.82-.82Zm-1.641,4.483H30.367V25.506h1.674Z"/>
        <path id="Trazado_117676" data-name="Trazado 117676" d="M40.09,24.685a.82.82,0,0,0-.82-.82H35.955a.82.82,0,0,0-.82.82v5.3a.82.82,0,0,0,.82.82H39.27a.82.82,0,0,0,.82-.82Zm-1.641,4.483H36.775V25.506h1.674Z"/>
        <path id="Trazado_117677" data-name="Trazado 117677" d="M46.5,24.685a.82.82,0,0,0-.82-.82H42.363a.82.82,0,0,0-.82.82v5.3a.82.82,0,0,0,.82.82h3.315a.82.82,0,0,0,.82-.82Zm-1.641,4.483H43.184V25.506h1.674Z"/>
        <path id="Trazado_117678" data-name="Trazado 117678" d="M14.457,33.3a.82.82,0,0,0-.82-.82H10.322a.82.82,0,0,0-.82.82v5.3a.82.82,0,0,0,.82.82h3.315a.82.82,0,0,0,.82-.82Zm-1.641,4.483H11.142V34.124h1.674Z"/>
        <path id="Trazado_117679" data-name="Trazado 117679" d="M20.865,33.3a.82.82,0,0,0-.82-.82H16.73a.82.82,0,0,0-.82.82v5.3a.82.82,0,0,0,.82.82h3.315a.82.82,0,0,0,.82-.82Zm-1.641,4.483H17.551V34.124h1.674Z"/>
        <path id="Trazado_117680" data-name="Trazado 117680" d="M26.453,32.483H23.139a.82.82,0,0,0-.82.82v5.3a.82.82,0,0,0,.82.82h3.315a.82.82,0,0,0,.82-.82V33.3A.82.82,0,0,0,26.453,32.483Zm-.82,5.3H23.959V34.124h1.674Z"/>
        <path id="Trazado_117681" data-name="Trazado 117681" d="M32.861,32.483H29.547a.82.82,0,0,0-.82.82v5.3a.82.82,0,0,0,.82.82h3.315a.82.82,0,0,0,.82-.82V33.3A.82.82,0,0,0,32.861,32.483Zm-.82,5.3H30.367V34.124h1.674Z"/>
        <path id="Trazado_117682" data-name="Trazado 117682" d="M40.09,33.3a.82.82,0,0,0-.82-.82H35.955a.82.82,0,0,0-.82.82v5.3a.82.82,0,0,0,.82.82H39.27a.82.82,0,0,0,.82-.82Zm-1.641,4.483H36.775V34.124h1.674Z"/>
        <path id="Trazado_117683" data-name="Trazado 117683" d="M46.5,33.3a.82.82,0,0,0-.82-.82H42.363a.82.82,0,0,0-.82.82v5.3a.82.82,0,0,0,.82.82h3.315a.82.82,0,0,0,.82-.82Zm-1.641,4.483H43.184V34.124h1.674Z"/>
        <path id="Trazado_117684" data-name="Trazado 117684" d="M13.637,41.1H10.322a.82.82,0,0,0-.82.82v5.3a.82.82,0,0,0,.82.82h3.315a.82.82,0,0,0,.82-.82v-5.3A.82.82,0,0,0,13.637,41.1Zm-.82,5.3H11.142V42.742h1.674Z"/>
        <path id="Trazado_117685" data-name="Trazado 117685" d="M20.045,41.1H16.73a.82.82,0,0,0-.82.82v5.3a.82.82,0,0,0,.82.82h3.315a.82.82,0,0,0,.82-.82v-5.3A.82.82,0,0,0,20.045,41.1Zm-.82,5.3H17.551V42.742h1.674Z"/>
        <path id="Trazado_117686" data-name="Trazado 117686" d="M39.27,41.1H35.955a.82.82,0,0,0-.82.82v5.3a.82.82,0,0,0,.82.82H39.27a.82.82,0,0,0,.82-.82v-5.3A.82.82,0,0,0,39.27,41.1Zm-.82,5.3H36.775V42.742h1.674Z"/>
        <path id="Trazado_117687" data-name="Trazado 117687" d="M45.678,41.1H42.363a.82.82,0,0,0-.82.82v5.3a.82.82,0,0,0,.82.82h3.315a.82.82,0,0,0,.82-.82v-5.3A.82.82,0,0,0,45.678,41.1Zm-.82,5.3H43.184V42.742h1.674Z"/>
      </g>
    </g>
  </g>
</svg>
