<svg xmlns="http://www.w3.org/2000/svg" xmlns:xlink="http://www.w3.org/1999/xlink" width="56" height="56" viewBox="0 0 56 56">
  <defs>
    <clipPath id="clip-path">
      <rect id="Rectángulo_34014" data-name="Rectángulo 34014" width="56" height="56" transform="translate(1196 1400)" fill="#fff" stroke="#707070" stroke-width="1"/>
    </clipPath>
  </defs>
  <g id="Enmascarar_grupo_70" data-name="Enmascarar grupo 70" transform="translate(-1196 -1400)" clip-path="url(#clip-path)">
    <g id="fundacion" transform="translate(1196 1400)">
      <g id="Grupo_83835" data-name="Grupo 83835">
        <path id="Trazado_117414" data-name="Trazado 117414" d="M13.637,20.487H42.363v27.18H13.637Z" fill="#f1f4f6"/>
      </g>
      <g id="Grupo_83836" data-name="Grupo 83836">
        <path id="Trazado_117415" data-name="Trazado 117415" d="M34.629,47.667V41.037a6.629,6.629,0,1,0-13.258,0v6.629Z" fill="#c6865c"/>
      </g>
      <g id="Grupo_83843" data-name="Grupo 83843">
        <g id="Grupo_83837" data-name="Grupo 83837">
          <path id="Trazado_117416" data-name="Trazado 117416" d="M40.927,20.487h9.944v4.42H40.927Z" fill="#d0e2e7"/>
        </g>
        <g id="Grupo_83838" data-name="Grupo 83838">
          <path id="Trazado_117417" data-name="Trazado 117417" d="M48.661,20.487h2.21v4.42h-2.21Z" fill="#b4d0d5"/>
        </g>
        <g id="Grupo_83839" data-name="Grupo 83839">
          <path id="Trazado_117418" data-name="Trazado 117418" d="M42.363,24.906h7.071V43.247H42.363Z" fill="#9bb9c1"/>
        </g>
        <g id="Grupo_83840" data-name="Grupo 83840">
          <path id="Trazado_117419" data-name="Trazado 117419" d="M47,24.906h2.431V43.247H47Z" fill="#86a0af"/>
        </g>
        <g id="Grupo_83841" data-name="Grupo 83841">
          <path id="Trazado_117420" data-name="Trazado 117420" d="M40.927,43.247h9.944v4.42H40.927Z" transform="translate(91.798 90.914) rotate(180)" fill="#d0e2e7"/>
        </g>
        <g id="Grupo_83842" data-name="Grupo 83842">
          <path id="Trazado_117421" data-name="Trazado 117421" d="M48.661,43.247h2.21v4.42h-2.21Z" transform="translate(99.532 90.914) rotate(180)" fill="#b4d0d5"/>
        </g>
      </g>
      <g id="Grupo_83850" data-name="Grupo 83850">
        <g id="Grupo_83844" data-name="Grupo 83844">
          <path id="Trazado_117422" data-name="Trazado 117422" d="M5.129,20.487h9.944v4.42H5.129Z" transform="translate(20.202 45.393) rotate(180)" fill="#d0e2e7"/>
        </g>
        <g id="Grupo_83845" data-name="Grupo 83845">
          <path id="Trazado_117423" data-name="Trazado 117423" d="M12.863,20.487h2.21v4.42h-2.21Z" transform="translate(27.936 45.393) rotate(180)" fill="#b4d0d5"/>
        </g>
        <g id="Grupo_83846" data-name="Grupo 83846">
          <path id="Trazado_117424" data-name="Trazado 117424" d="M6.566,24.906h7.071V43.247H6.566Z" transform="translate(20.202 68.154) rotate(180)" fill="#9bb9c1"/>
        </g>
        <g id="Grupo_83847" data-name="Grupo 83847">
          <path id="Trazado_117425" data-name="Trazado 117425" d="M11.206,24.906h2.431V43.247H11.206Z" fill="#86a0af"/>
        </g>
        <g id="Grupo_83848" data-name="Grupo 83848">
          <path id="Trazado_117426" data-name="Trazado 117426" d="M5.129,43.247h9.944v4.42H5.129Z" fill="#d0e2e7"/>
        </g>
        <g id="Grupo_83849" data-name="Grupo 83849">
          <path id="Trazado_117427" data-name="Trazado 117427" d="M12.863,43.247h2.21v4.42h-2.21Z" fill="#b4d0d5"/>
        </g>
      </g>
      <g id="Grupo_83851" data-name="Grupo 83851">
        <path id="Trazado_117428" data-name="Trazado 117428" d="M2.588,47.667H53.412v3.757H2.588Z" fill="#9bb9c1"/>
      </g>
      <g id="Grupo_83852" data-name="Grupo 83852">
        <path id="Trazado_117429" data-name="Trazado 117429" d="M.82,51.423H55.18V55.18H.82Z" fill="#86a0af"/>
      </g>
      <g id="Grupo_83853" data-name="Grupo 83853">
        <path id="Trazado_117430" data-name="Trazado 117430" d="M53.412,11.538,28,.82,2.588,11.538v8.949H53.412Z" fill="#d0e2e7"/>
      </g>
      <g id="Grupo_83854" data-name="Grupo 83854">
        <path id="Trazado_117431" data-name="Trazado 117431" d="M50.871,10.466V20.487h2.541V11.538Z" fill="#b4d0d5"/>
      </g>
      <g id="Grupo_83857" data-name="Grupo 83857">
        <g id="Grupo_83855" data-name="Grupo 83855">
          <path id="Trazado_117432" data-name="Trazado 117432" d="M20.541,14.438a7.025,7.025,0,0,1-2.071-5,7.171,7.171,0,0,1,.044-.78L6.124,13.884v3.068H23.055Z" fill="#9bb9c1"/>
        </g>
        <g id="Grupo_83856" data-name="Grupo 83856">
          <path id="Trazado_117433" data-name="Trazado 117433" d="M37.486,8.658a7.2,7.2,0,0,1,.044.78,7.025,7.025,0,0,1-2.071,5l-2.513,2.513H49.876V13.884Z" fill="#9bb9c1"/>
        </g>
      </g>
      <g id="Grupo_83860" data-name="Grupo 83860">
        <g id="Grupo_83858" data-name="Grupo 83858">
          <path id="Trazado_117434" data-name="Trazado 117434" d="M32.959,6.938A3.535,3.535,0,0,0,28,6.9a3.535,3.535,0,0,0-4.959,5.039L28,16.9l4.959-4.959a3.536,3.536,0,0,0,0-5Z" fill="#dd636e"/>
        </g>
        <g id="Grupo_83859" data-name="Grupo 83859">
          <path id="Trazado_117435" data-name="Trazado 117435" d="M32.959,6.938a3.52,3.52,0,0,0-2.375-1.032,6.02,6.02,0,0,1-5.872,7.353c-.122,0-.242,0-.362-.012L28,16.9l4.959-4.959a3.536,3.536,0,0,0,0-5Z" fill="#da4a54"/>
        </g>
      </g>
      <g id="Grupo_83861" data-name="Grupo 83861">
        <path id="Trazado_117436" data-name="Trazado 117436" d="M21.371,26.122H34.629v3.757H21.371Z" fill="#86a0af"/>
      </g>
      <g id="Grupo_83862" data-name="Grupo 83862">
        <path id="Trazado_117437" data-name="Trazado 117437" d="M55.18,50.6h-.948V47.667a.82.82,0,0,0-.82-.82H51.691v-3.6a.82.82,0,0,0-.82-.82h-.616V39.7a.82.82,0,0,0-1.641,0v2.724h-5.43v-16.7h5.43V35.871a.82.82,0,0,0,1.641,0V25.727h.616a.82.82,0,0,0,.82-.82v-3.6h1.721a.82.82,0,0,0,.82-.82V11.538a.82.82,0,0,0-.5-.756L28.319.065a.82.82,0,0,0-.637,0L2.269,10.782a.82.82,0,0,0-.5.756v8.949a.82.82,0,0,0,.82.82H4.309v3.6a.82.82,0,0,0,.82.82h.616V28.45a.82.82,0,1,0,1.641,0V25.727h5.43v16.7H7.386V32.282a.82.82,0,1,0-1.641,0V42.427H5.129a.82.82,0,0,0-.82.82v3.6H2.588a.82.82,0,0,0-.82.82V50.6H.82a.82.82,0,0,0-.82.82V55.18A.82.82,0,0,0,.82,56H55.18a.82.82,0,0,0,.82-.82V51.423A.82.82,0,0,0,55.18,50.6ZM41.747,46.846V44.067h8.3v2.779Zm8.3-22.76h-8.3V21.307h8.3Zm-35.8-2.779v2.779H5.95V21.307Zm.2,4.42h.616a.82.82,0,0,0,.82-.82v-3.6H26.07a.82.82,0,0,0,0-1.641H3.408V12.082L28,1.711,52.592,12.082v7.585H29.93a.82.82,0,0,0,0,1.641H40.107v3.6a.82.82,0,0,0,.82.82h.616v16.7h-.616a.82.82,0,0,0-.82.82v3.6H35.45V41.038a7.449,7.449,0,1,0-14.9,0v5.809H15.893v-3.6a.82.82,0,0,0-.82-.82h-.616v-16.7ZM28.82,46.846V35.288a5.817,5.817,0,0,1,4.988,5.75v5.809Zm-6.629,0V41.037a5.817,5.817,0,0,1,4.988-5.75V46.846ZM5.95,44.068h8.3v2.779H5.95ZM3.408,48.487H52.592V50.6H3.408Zm50.951,5.872H1.641V52.243H54.359Z"/>
        <path id="Trazado_117438" data-name="Trazado 117438" d="M21.121,13.858a6.21,6.21,0,0,1-1.831-4.42,6.4,6.4,0,0,1,.039-.69A.82.82,0,0,0,18.195,7.9L5.8,13.128a.82.82,0,0,0-.5.756v3.068a.82.82,0,0,0,.82.82H23.055a.82.82,0,0,0,.58-1.4ZM6.944,16.131v-1.7L17.663,9.907a7.833,7.833,0,0,0,2.3,5.111l1.113,1.113Z"/>
        <path id="Trazado_117439" data-name="Trazado 117439" d="M32.365,16.371a.82.82,0,0,0,.58,1.4H49.876a.82.82,0,0,0,.82-.82V13.884a.82.82,0,0,0-.5-.756L37.805,7.9a.82.82,0,0,0-1.134.845,6.4,6.4,0,0,1,.039.69,6.21,6.21,0,0,1-1.831,4.42Zm3.674-1.353a7.833,7.833,0,0,0,2.3-5.111l10.719,4.521v1.7H34.926Z"/>
        <path id="Trazado_117440" data-name="Trazado 117440" d="M28,17.717a.821.821,0,0,0,.58-.24l4.959-4.959a4.356,4.356,0,0,0,0-6.16A4.379,4.379,0,0,0,28,5.844a4.379,4.379,0,0,0-5.539.514,4.356,4.356,0,0,0,0,6.16l4.959,4.959A.821.821,0,0,0,28,17.717ZM22.826,9.438a2.718,2.718,0,0,1,4.6-1.95.82.82,0,0,0,1.142,0,2.726,2.726,0,0,1,3.808.03h0a2.715,2.715,0,0,1,0,3.84L28,15.737l-4.379-4.379A2.7,2.7,0,0,1,22.826,9.438Z"/>
        <path id="Trazado_117441" data-name="Trazado 117441" d="M21.371,30.7H34.629a.82.82,0,0,0,.82-.82V26.122a.82.82,0,0,0-.82-.82H21.371a.82.82,0,0,0-.82.82v3.757a.82.82,0,0,0,.82.82Zm.82-3.757H33.809v2.116H22.191Z"/>
      </g>
    </g>
  </g>
</svg>
