<svg xmlns="http://www.w3.org/2000/svg" xmlns:xlink="http://www.w3.org/1999/xlink" width="51" height="51" viewBox="0 0 51 51">
  <defs>
    <clipPath id="clip-path">
      <rect id="Rectángulo_33927" data-name="Rectángulo 33927" width="51" height="51" transform="translate(854 7452)" fill="#fff" stroke="#707070" stroke-width="1"/>
    </clipPath>
  </defs>
  <g id="Enmascarar_grupo_62" data-name="Enmascarar grupo 62" transform="translate(-854 -7452)" clip-path="url(#clip-path)">
    <g id="sequia" transform="translate(854 7452)">
      <path id="Trazado_116726" data-name="Trazado 116726" d="M37.453,35.062v4.383a1.992,1.992,0,1,1-3.984,0V35.062Z" fill="#c99e85"/>
      <path id="Trazado_116727" data-name="Trazado 116727" d="M17.531,35.062v4.383a1.992,1.992,0,1,1-3.984,0V35.062Z" fill="#c99e85"/>
      <path id="Trazado_116728" data-name="Trazado 116728" d="M50.2,35.062v7.172a3.984,3.984,0,0,1-3.984,3.984H4.781A3.984,3.984,0,0,1,.8,42.234V35.062h12.75v4.383a1.992,1.992,0,1,0,3.984,0V35.062H33.469v4.383a1.992,1.992,0,1,0,3.984,0V35.062Z" fill="#956143"/>
      <path id="Trazado_116729" data-name="Trazado 116729" d="M9.562,24.7l3.984,10.359H.8V21.516Z" fill="#c99e85"/>
      <path id="Trazado_116730" data-name="Trazado 116730" d="M31.078,26.3l2.391,8.766H17.531L14.344,25.5l7.969,2.391Z" fill="#c99e85"/>
      <path id="Trazado_116731" data-name="Trazado 116731" d="M35.062,25.5l2.391,9.562H33.469L31.078,26.3l-8.766,1.594L14.344,25.5l3.188,9.562H13.547L9.562,24.7l2.391-3.187,10.359,2.391,14.344-3.984.781,4.686Z" fill="#b28364"/>
      <path id="Trazado_116732" data-name="Trazado 116732" d="M37.437,24.607l4-1.5L50.2,27.891v7.172H37.453L35.062,25.5Z" fill="#c99e85"/>
      <path id="Trazado_116733" data-name="Trazado 116733" d="M50.2,22.312v5.578l-8.766-4.781,1.594-3.984Z" fill="#b28364"/>
      <path id="Trazado_116734" data-name="Trazado 116734" d="M50.2,14.344v7.969l-7.172-3.187Z" fill="#c99e85"/>
      <path id="Trazado_116735" data-name="Trazado 116735" d="M34.122,7.825l1.737-3.044H46.219L50.2,9.562,39.047,15.937l-6.375-5.578Z" fill="#c99e85"/>
      <path id="Trazado_116736" data-name="Trazado 116736" d="M31.078,4.781,27.891,8.766l-9.562.8L16.734,4.781Z" fill="#c99e85"/>
      <path id="Trazado_116737" data-name="Trazado 116737" d="M50.2,9.562v4.781l-7.172,4.781-1.594,3.984-4,1.5-.781-4.686-7.172-7.969L17.531,13.547l-5.578,7.969L9.562,24.7.8,21.516V17.531l7.969,1.594,5.578-7.969-.8-3.187,3.188-3.187,1.594,4.781,9.562-.8,3.188-3.984,3.044,3.044-1.45,2.534,6.375,5.578Z" fill="#956143"/>
      <path id="Trazado_116738" data-name="Trazado 116738" d="M29.484,11.953l7.172,7.969L22.312,23.906,11.953,21.516l5.578-7.969Z" fill="#c99e85"/>
      <path id="Trazado_116739" data-name="Trazado 116739" d="M13.547,7.969l.8,3.187L8.766,19.125.8,17.531V8.766L6.375,4.781H12.75Z" fill="#c99e85"/>
      <g id="Grupo_80990" data-name="Grupo 80990">
        <circle id="Elipse_4787" data-name="Elipse 4787" cx="1.195" cy="1.195" r="1.195" transform="translate(7.172 7.172)" fill="#b28364"/>
        <circle id="Elipse_4788" data-name="Elipse 4788" cx="1.195" cy="1.195" r="1.195" transform="translate(39.844 25.5)" fill="#b28364"/>
        <circle id="Elipse_4789" data-name="Elipse 4789" cx="1.195" cy="1.195" r="1.195" transform="translate(16.734 18.328)" fill="#b28364"/>
        <circle id="Elipse_4790" data-name="Elipse 4790" cx="0.797" cy="0.797" r="0.797" transform="translate(7.969 31.078)" fill="#b28364"/>
        <circle id="Elipse_4791" data-name="Elipse 4791" cx="0.797" cy="0.797" r="0.797" transform="translate(38.25 11.156)" fill="#b28364"/>
      </g>
      <circle id="Elipse_4792" data-name="Elipse 4792" cx="1.195" cy="1.195" r="1.195" transform="translate(24.703 39.844)" fill="#252525"/>
      <circle id="Elipse_4793" data-name="Elipse 4793" cx="0.797" cy="0.797" r="0.797" transform="translate(6.375 39.844)" fill="#252525"/>
      <circle id="Elipse_4794" data-name="Elipse 4794" cx="0.797" cy="0.797" r="0.797" transform="translate(43.031 39.844)" fill="#252525"/>
      <path id="Trazado_116740" data-name="Trazado 116740" d="M50.815,9.052,46.831,4.27a.8.8,0,0,0-.612-.286H35.859a.8.8,0,0,0-.692.4l-1.22,2.14-2.305-2.3a.8.8,0,0,0-.563-.233H16.734a.8.8,0,0,0-.563.233L13.979,6.41l-.456-1.822a.8.8,0,0,0-.773-.6H6.375a.79.79,0,0,0-.463.149L.334,8.118A.8.8,0,0,0,0,8.766V42.234a4.786,4.786,0,0,0,4.781,4.781H46.219A4.786,4.786,0,0,0,51,42.234V9.562a.8.8,0,0,0-.185-.511ZM38.075,34.266,36.008,26l5.368-2.01,8.031,4.378v5.9Zm-6.228-8.178a.8.8,0,0,0-.912-.574l-8.578,1.559-7.785-2.336a.8.8,0,0,0-.985,1.015l3.16,9.311-.013,4.383a1.2,1.2,0,1,1-2.391,0V35.062c0-.1-3.879-10.234-3.879-10.234l1.814-2.419S22.128,24.7,22.187,24.7a.576.576,0,0,0,.339-.029l5.737-1.594a.8.8,0,1,0-.426-1.536l-5.543,1.54L13.283,21l4.7-6.714L29.174,12.8l6.031,6.7-3.544.981a.8.8,0,0,0,.427,1.536l3.928-1.092.528,3.167-1.762.66a.8.8,0,0,0-.492.94l2.367,9.372v4.383a1.2,1.2,0,0,1-2.391,0V35.062C34.266,34.992,31.847,26.087,31.847,26.087ZM18.106,34.266,15.585,26.7l6.5,1.949a.771.771,0,0,0,.371.02L30.5,27.211l1.922,7.055ZM1.594,22.653l7.355,2.675,3.438,8.938H1.594Zm41.87-2.463,5.942,2.641v3.717l-6.966-3.8Zm1.214-1.2,4.729-3.152v5.254ZM29.42,5.578,27.483,8l-8.6.717L17.84,5.578Zm-22.79,0h5.5L13.483,11,12.1,12.976a.8.8,0,1,0,1.305.914L15,11.613a.8.8,0,0,0,.12-.649l-.688-2.75,1.957-1.957,1.186,3.558a.8.8,0,0,0,.755.545.627.627,0,0,0,.067,0l9.562-.8a.8.8,0,0,0,.558-.3l2.63-3.289L33.128,7.96l-1.147,2a.8.8,0,0,0,.167,1l6.375,5.578a.8.8,0,0,0,.92.092l7.969-4.553a.8.8,0,0,0-.791-1.383l-7.475,4.271-5.458-4.775,2.635-4.608h9.523l3.56,4.273v4.064l-6.817,4.542a1.514,1.514,0,0,0-.3.367l-1.463,3.658-2.764,1.036-.622-3.732a1.393,1.393,0,0,0-.194-.4l-7.172-7.969a.8.8,0,0,0-.7-.257L17.426,12.756a.8.8,0,0,0-.547.333L11.3,21.058l-2.023,2.7-7.683-2.8V18.5s7.12,1.418,7.172,1.418a.8.8,0,0,0,.653-.34l1.673-2.391a.8.8,0,1,0-1.305-.913L8.412,18.242,1.594,16.878v-7.7ZM46.219,45.422H4.781a3.188,3.188,0,0,1-3.187-3.187V35.859H12.75v3.586a2.789,2.789,0,0,0,5.578,0V35.859H32.672v3.586a2.789,2.789,0,0,0,5.578,0V35.859H49.406v6.375A3.187,3.187,0,0,1,46.219,45.422Z" fill="#252525"/>
    </g>
  </g>
</svg>
