<svg xmlns="http://www.w3.org/2000/svg" xmlns:xlink="http://www.w3.org/1999/xlink" width="56" height="56" viewBox="0 0 56 56">
  <defs>
    <clipPath id="clip-path">
      <rect id="Rect치ngulo_34075" data-name="Rect치ngulo 34075" width="56" height="56" transform="translate(509 2584)" fill="#fff" stroke="#707070" stroke-width="1"/>
    </clipPath>
  </defs>
  <g id="Enmascarar_grupo_91" data-name="Enmascarar grupo 91" transform="translate(-509 -2584)" clip-path="url(#clip-path)">
    <g id="Filled_outline" data-name="Filled outline" transform="translate(507.133 2582.133)">
      <path id="Trazado_117966" data-name="Trazado 117966" d="M43.867,36.4V56.933h-30.8L10.251,51.56,9.38,49.9,8.7,48.587l-.873-1.666-2.5-4.768L2.8,37.333a5.771,5.771,0,0,1,8.86,1.854L14,43.867V17.733h7.467V36.4a3.733,3.733,0,0,1,7.467,0,3.733,3.733,0,0,1,7.467,0,3.733,3.733,0,1,1,7.467,0Z" fill="#fec9a3"/>
      <rect id="Rect치ngulo_34079" data-name="Rect치ngulo 34079" width="14.933" height="22.4" rx="2.8" transform="translate(10.267 2.8)" fill="#348fd9"/>
      <path id="Trazado_117967" data-name="Trazado 117967" d="M14,6.533h7.467v11.2H14Z" fill="#60d1e0"/>
      <path id="Trazado_117968" data-name="Trazado 117968" d="M14,17.733h7.467v3.733H14Z" fill="#e0e0de"/>
      <path id="Trazado_117969" data-name="Trazado 117969" d="M16.8,9.333h1.867V11.2H16.8Z" fill="#4eb9c7"/>
      <path id="Trazado_117970" data-name="Trazado 117970" d="M16.8,13.067h1.867v1.867H16.8Z" fill="#4eb9c7"/>
      <path id="Trazado_117971" data-name="Trazado 117971" d="M14,6.533h7.467V8.4H14Z" fill="#5ac6d4"/>
      <path id="Trazado_117972" data-name="Trazado 117972" d="M28.933,6.533v6.533l-4.667,2.8,4.667,2.8V25.2a3.733,3.733,0,0,0,3.733,3.733H53.2A3.733,3.733,0,0,0,56.933,25.2V6.533A3.733,3.733,0,0,0,53.2,2.8H32.667A3.733,3.733,0,0,0,28.933,6.533Z" fill="#a0dde5"/>
      <path id="Trazado_117973" data-name="Trazado 117973" d="M42.89,24.267l8.135-7.606a4.985,4.985,0,0,0-6.677-7.4L42.89,10.527,41.506,9.308a4.969,4.969,0,0,0-6.691,7.345Z" fill="#d75246"/>
      <path id="Trazado_117974" data-name="Trazado 117974" d="M42.933,19.6a.933.933,0,0,1-.835-.516l-2.081-4.161-.975,1.462a.933.933,0,0,1-.777.416H31.733V14.933h6.034l1.59-2.384a.933.933,0,0,1,1.611.1l1.843,3.686,2.048-5.463a.933.933,0,0,1,1.74-.019l1.632,4.08h5.9V16.8H47.6a.933.933,0,0,1-.867-.587l-.972-2.43-1.954,5.211a.933.933,0,0,1-.825.6h-.049Z" fill="#348fd9"/>
      <g id="Grupo_84061" data-name="Grupo 84061">
        <path id="Trazado_117975" data-name="Trazado 117975" d="M3.733,4.826H5.6v5.279H3.733Z" transform="translate(-3.913 5.487) rotate(-45)" fill="#e0e0de"/>
        <path id="Trazado_117976" data-name="Trazado 117976" d="M2.027,19.6H7.305v1.867H2.027Z" transform="translate(-13.152 9.314) rotate(-45)" fill="#e0e0de"/>
        <path id="Trazado_117977" data-name="Trazado 117977" d="M1.867,13.067H5.6v1.867H1.867Z" fill="#e0e0de"/>
      </g>
      <path id="Trazado_117978" data-name="Trazado 117978" d="M8.4,40.133,5.6,42l-.275.153L2.8,37.333A5.727,5.727,0,0,1,6.331,36Z" fill="#fed9bf"/>
      <path id="Trazado_117979" data-name="Trazado 117979" d="M11.728,46.5,8.7,48.587l-.873-1.666,2.849-1.956Z" fill="#feb784"/>
      <path id="Trazado_117980" data-name="Trazado 117980" d="M13.589,49.307,10.251,51.56,9.38,49.9l3.164-2.136Z" fill="#feb784"/>
      <path id="Trazado_117981" data-name="Trazado 117981" d="M14,25.2h7.467v1.867H14Z" fill="#fec093"/>
      <path id="Trazado_117982" data-name="Trazado 117982" d="M42.933,56h-29.3l-2.609-4.982,2.562-1.708-1.036-1.553-2.4,1.6-.7-1.335,2.266-1.511-1.036-1.553-2.1,1.4L6.553,42.486,8.918,40.91a.933.933,0,0,0,.317-1.194L7.951,37.15A4.794,4.794,0,0,1,10.824,39.6l2.34,4.68a.933.933,0,0,0,1.769-.417V28H13.067V39.914l-.572-1.144a6.74,6.74,0,0,0-6.188-3.706,6.628,6.628,0,0,0-4.1,1.553.933.933,0,0,0-.229,1.15l10.267,19.6a.933.933,0,0,0,.827.5h30.8a.933.933,0,0,0,.933-.933v-5.6H42.933ZM4,37.618A4.746,4.746,0,0,1,5.78,36.98L7.2,39.814l-1.515,1.01Z"/>
      <path id="Trazado_117983" data-name="Trazado 117983" d="M40.133,31.733a4.637,4.637,0,0,0-3.3,1.367,4.732,4.732,0,0,0-.435.5,4.665,4.665,0,0,0-7.031-.5,4.732,4.732,0,0,0-.435.5,4.667,4.667,0,0,0-6.531-.935V26.133A3.738,3.738,0,0,0,26.133,22.4V19.6H24.267v2.8A1.869,1.869,0,0,1,22.4,24.267H13.067A1.869,1.869,0,0,1,11.2,22.4V5.6a1.869,1.869,0,0,1,1.867-1.867H22.4A1.869,1.869,0,0,1,24.267,5.6v6.533h1.867V5.6A3.738,3.738,0,0,0,22.4,1.867H13.067A3.738,3.738,0,0,0,9.333,5.6V22.4a3.738,3.738,0,0,0,3.733,3.733h7.467V36.4a.933.933,0,0,0,1.867,0,2.8,2.8,0,1,1,5.6,0,.933.933,0,0,0,1.867,0,2.8,2.8,0,1,1,5.6,0,.933.933,0,0,0,1.867,0,2.8,2.8,0,1,1,5.6,0V49.467H44.8V36.4a4.672,4.672,0,0,0-4.667-4.667Z"/>
      <path id="Trazado_117984" data-name="Trazado 117984" d="M14,5.6a.933.933,0,0,0-.933.933V21.467A.933.933,0,0,0,14,22.4h7.467a.933.933,0,0,0,.933-.933V6.533a.933.933,0,0,0-.933-.933Zm6.533,14.933h-5.6V18.667h5.6Zm0-3.733h-5.6V7.467h5.6Z"/>
      <path id="Trazado_117985" data-name="Trazado 117985" d="M16.8,9.333h1.867V11.2H16.8Z"/>
      <path id="Trazado_117986" data-name="Trazado 117986" d="M16.8,13.067h1.867v1.867H16.8Z"/>
      <path id="Trazado_117987" data-name="Trazado 117987" d="M57.867,20.533v-14A4.672,4.672,0,0,0,53.2,1.867H32.667A4.672,4.672,0,0,0,28,6.533v6l-4.214,2.528a.933.933,0,0,0,0,1.6L28,19.2v6a4.672,4.672,0,0,0,4.667,4.667H53.2A4.672,4.672,0,0,0,57.867,25.2V22.4H56v2.8A2.8,2.8,0,0,1,53.2,28H32.667a2.8,2.8,0,0,1-2.8-2.8V18.667a.933.933,0,0,0-.453-.8l-3.333-2,3.333-2a.933.933,0,0,0,.453-.8V6.533a2.8,2.8,0,0,1,2.8-2.8H53.2a2.8,2.8,0,0,1,2.8,2.8v14Z"/>
      <path id="Trazado_117988" data-name="Trazado 117988" d="M31.733,16.8h1.943a5.921,5.921,0,0,0,.5.533l8.076,7.613a.933.933,0,0,0,1.278,0l8.135-7.606a5.939,5.939,0,0,0,.511-.543h1.959V14.933h-.911a5.919,5.919,0,0,0-9.486-6.379l-.842.733-.772-.679a5.9,5.9,0,0,0-9.488,6.326h-.9Zm11.16,6.186L36.331,16.8h1.936a.933.933,0,0,0,.777-.416l.975-1.462L42.1,19.084a.933.933,0,0,0,.835.516h.049a.933.933,0,0,0,.825-.6l1.954-5.211.972,2.43a.933.933,0,0,0,.866.587h1.91ZM34.321,12.011a4.009,4.009,0,0,1,2.726-2.833A4.061,4.061,0,0,1,38.233,9a4.01,4.01,0,0,1,2.656,1.008l1.385,1.219a.933.933,0,0,0,1.229,0l1.458-1.269a4.051,4.051,0,0,1,6.23,4.971h-2.96L46.6,10.853a.933.933,0,0,0-1.74.019l-2.049,5.463-1.843-3.686a.933.933,0,0,0-1.611-.1l-1.589,2.384H34.662a4.031,4.031,0,0,1-.341-2.923Z"/>
      <path id="Trazado_117989" data-name="Trazado 117989" d="M3.733,4.826H5.6v5.279H3.733Z" transform="translate(-3.913 5.487) rotate(-45)"/>
      <path id="Trazado_117990" data-name="Trazado 117990" d="M2.027,19.6H7.305v1.867H2.027Z" transform="translate(-13.152 9.314) rotate(-45)"/>
      <path id="Trazado_117991" data-name="Trazado 117991" d="M1.867,13.067H5.6v1.867H1.867Z"/>
    </g>
  </g>
</svg>
