<svg xmlns="http://www.w3.org/2000/svg" xmlns:xlink="http://www.w3.org/1999/xlink" width="51" height="51" viewBox="0 0 51 51">
  <defs>
    <clipPath id="clip-path">
      <rect id="Rectángulo_33931" data-name="Rectángulo 33931" width="51" height="51" transform="translate(854 7774)" fill="#fff" stroke="#707070" stroke-width="1"/>
    </clipPath>
  </defs>
  <g id="Enmascarar_grupo_64" data-name="Enmascarar grupo 64" transform="translate(-854 -7774)" clip-path="url(#clip-path)">
    <g id="gusano" transform="translate(854 7774)">
      <g id="Grupo_81001" data-name="Grupo 81001">
        <g id="Grupo_80997" data-name="Grupo 80997">
          <g id="Grupo_80996" data-name="Grupo 80996">
            <path id="Trazado_116760" data-name="Trazado 116760" d="M31.648,35.506a3.363,3.363,0,0,0-3.094-5.665c-1.914.419-4.533.671-6.136-.5-.964-.706-1.361-1.757-1.979-3.555-.72-2.094-1.617-4.7-4.205-6.684a10.243,10.243,0,0,0-1.1-.738,10.3,10.3,0,0,0-2.824-.845,14.734,14.734,0,0,0-3.4-.712,23.125,23.125,0,0,0-5.571.688,3.363,3.363,0,1,0,1.554,6.543,17.3,17.3,0,0,1,3.749-.511,5.637,5.637,0,0,1,3.5.7A6.226,6.226,0,0,1,13.8,27.172c.09.248.182.514.28.8.737,2.142,1.654,4.808,4.366,6.794,2.911,2.131,6.8,2.685,11.546,1.646A3.349,3.349,0,0,0,31.648,35.506Z" fill="#e9aa89"/>
          </g>
          <path id="Trazado_116761" data-name="Trazado 116761" d="M32.557,32.407a3.362,3.362,0,0,0-4-2.566c-1.914.419-4.533.671-6.136-.5-.964-.706-1.361-1.757-1.979-3.555-.72-2.094-1.617-4.7-4.205-6.684a10.243,10.243,0,0,0-1.1-.738,10.6,10.6,0,0,0-2.824-.845,14.326,14.326,0,0,0-3.4-.712,23.125,23.125,0,0,0-5.571.688,3.363,3.363,0,0,0-2.58,3.459,3.355,3.355,0,0,1,1.086-.471c5.473-1.3,9.813-.759,12.9,1.606,2.588,1.983,3.485,4.59,4.205,6.684.618,1.8,1.015,2.849,1.979,3.555,1.6,1.174,4.222.921,6.136.5a3.355,3.355,0,0,1,4.074,3.1,3.357,3.357,0,0,0,1.423-3.518Z" fill="#e4926a"/>
          <path id="Trazado_116762" data-name="Trazado 116762" d="M15.129,18.363a9.621,9.621,0,0,0-2.825-.847,15.816,15.816,0,0,0-3.4-.711,6.909,6.909,0,0,1-.268,6.72h0a5.7,5.7,0,0,1,3.506.911A5.458,5.458,0,0,1,13.8,27.172h0a7.609,7.609,0,0,0,1.33-8.808Z" fill="#f6df7f"/>
          <path id="Trazado_116763" data-name="Trazado 116763" d="M15.129,18.363a12.523,12.523,0,0,0-6.224-1.557h0a6.986,6.986,0,0,1,.742,3.17,11.076,11.076,0,0,1,5.091,2.111,10.12,10.12,0,0,1,1.129,1.007c.006-.035.013-.069.019-.1a7.679,7.679,0,0,0-.758-4.627Z" fill="#efd06f"/>
        </g>
        <g id="Grupo_80998" data-name="Grupo 80998">
          <path id="Trazado_116764" data-name="Trazado 116764" d="M46.956,42.488a5.045,5.045,0,0,0-2.776-4.517,4.747,4.747,0,0,0-2.72-.385,1.167,1.167,0,0,1-1.288-.838,4.382,4.382,0,0,0-5.613-3.05,1.165,1.165,0,0,1-1.28-.42,14.347,14.347,0,0,0-10.235-5.953c-.311-.024-7.709-.479-11.741,5.137A11.958,11.958,0,0,0,9.37,36.811a1.182,1.182,0,0,1-1.234.919,3.809,3.809,0,0,0-2.343.58,4.175,4.175,0,0,0-1.685,4.178c14.283.031,28.566-.031,42.849,0Z" fill="#ce9775"/>
        </g>
        <g id="Grupo_80999" data-name="Grupo 80999">
          <path id="Trazado_116765" data-name="Trazado 116765" d="M20.055,28.82a14.347,14.347,0,0,1,10.235,5.953,1.165,1.165,0,0,0,1.28.42,4.382,4.382,0,0,1,5.613,3.05,1.167,1.167,0,0,0,1.288.838,4.747,4.747,0,0,1,2.72.385,4.883,4.883,0,0,1,2.539,3.018l3.226,0a5.045,5.045,0,0,0-2.776-4.517,4.747,4.747,0,0,0-2.72-.385,1.167,1.167,0,0,1-1.288-.838,4.382,4.382,0,0,0-5.613-3.05,1.165,1.165,0,0,1-1.28-.42,14.347,14.347,0,0,0-10.235-5.953,15.4,15.4,0,0,0-8.9,2.374A16,16,0,0,1,20.055,28.82Z" fill="#c6855b"/>
        </g>
        <path id="Trazado_116766" data-name="Trazado 116766" d="M49.257,47.378H1.743a1,1,0,0,1-1-1V43.493a1,1,0,0,1,1-1H49.257a1,1,0,0,1,1,1v2.889A1,1,0,0,1,49.257,47.378Z" fill="#bee49d"/>
        <path id="Trazado_116767" data-name="Trazado 116767" d="M49.257,42.5H46.269a1,1,0,0,1,1,1v2.889a1,1,0,0,1-1,1h2.988a1,1,0,0,0,1-1V43.493A1,1,0,0,0,49.257,42.5Z" fill="#a3d8a4"/>
        <g id="Grupo_81000" data-name="Grupo 81000">
          <path id="Trazado_116768" data-name="Trazado 116768" d="M26.8,35.881h0a11.485,11.485,0,0,0-3.993-3.713,11.284,11.284,0,0,0-3.02-1.141,3.665,3.665,0,0,1,.476-.226c2.027-.792,4.6-2.17,5.364-4.243a4.424,4.424,0,0,0,.141-2.333c-.1-.623.222-1.137,0-1.983-.624-2.38-1.67-5.028-.5-8.455.159-.466.119-1.425.337-1.867,1.7-3.436,5.179-6.145,10.371-8.066A3.735,3.735,0,0,1,38.57,10.86c-2.511.929-5.67,2.523-6.462,4.839a6.064,6.064,0,0,0,.153,3.549c.07.285-.084,1.333,0,1.656.521,1.985,1.377,3.621.893,6.334a11.2,11.2,0,0,1-.513,1.891,13.4,13.4,0,0,1-5.84,6.752h0Z" fill="#e9aa89"/>
          <path id="Trazado_116769" data-name="Trazado 116769" d="M40.776,6.061a3.736,3.736,0,0,0-4.8-2.207l-.206.078a3.734,3.734,0,0,1-.19,6.928c-2.511.929-5.67,2.523-6.462,4.839-.422,1.236-.143,2.439.385,4.46.638,2.434,1.432,5.464.147,8.97a12.536,12.536,0,0,1-3.915,5.379A11.88,11.88,0,0,1,26.8,35.881h0a13.4,13.4,0,0,0,5.84-6.753,11.209,11.209,0,0,0,.513-1.891c.485-2.713-.372-4.348-.893-6.334-.085-.323.07-1.371,0-1.656a6.064,6.064,0,0,1-.153-3.549c.792-2.316,3.951-3.91,6.462-4.839a3.735,3.735,0,0,0,2.206-4.8Z" fill="#e4926a"/>
          <path id="Trazado_116770" data-name="Trazado 116770" d="M27.755,16.667a8.531,8.531,0,0,1-2.149-4.745,11.376,11.376,0,0,0-.568,1.361c-1.171,3.428-.4,6.39.228,8.77.222.846.4,1.549.5,2.172h0a8.483,8.483,0,0,0,2.092,1.8,8.931,8.931,0,0,0,5.295,1.213c.485-2.713-.372-4.348-.893-6.334-.085-.324.07-1.371,0-1.656h0a8.531,8.531,0,0,1-4.506-2.581Z" fill="#f6df7f"/>
          <path id="Trazado_116771" data-name="Trazado 116771" d="M33.326,25.046a25.621,25.621,0,0,0-1.065-5.8h0a8.576,8.576,0,0,1-3.287-1.482,21.085,21.085,0,0,0,.532,2.393A16.228,16.228,0,0,1,30.2,27a9.326,9.326,0,0,0,2.949.24,8.492,8.492,0,0,0,.173-2.192Z" fill="#efd06f"/>
        </g>
      </g>
      <path id="Trazado_116772" data-name="Trazado 116772" d="M4.3,19.989a.747.747,0,1,0,1.057,0A.747.747,0,0,0,4.3,19.989ZM37.773,7.643a.747.747,0,1,0-.879.586A.747.747,0,0,0,37.773,7.643ZM49.257,41.75H47.646A5.766,5.766,0,0,0,44.5,37.3a5.506,5.506,0,0,0-3.145-.449.418.418,0,0,1-.463-.3,5.129,5.129,0,0,0-6.548-3.563.417.417,0,0,1-.462-.146A16.374,16.374,0,0,0,32.5,31.2a12.374,12.374,0,0,0,.839-1.814c1.366-3.727.538-6.882-.126-9.416-.507-1.936-.755-2.994-.4-4.029.544-1.591,2.68-3.146,6.014-4.38a4.482,4.482,0,0,0-3.111-8.408A29.708,29.708,0,0,0,32,4.812.747.747,0,1,0,32.7,6.129a28.179,28.179,0,0,1,3.531-1.574A2.988,2.988,0,1,1,38.31,10.16c-2.662.985-6.022,2.7-6.909,5.3a5.316,5.316,0,0,0-.131,2.719,7.69,7.69,0,0,1-4.893-6.121,12.731,12.731,0,0,1,3.507-4.1.747.747,0,1,0-.922-1.175,13.405,13.405,0,0,0-4.63,6.265c-1.244,3.641-.437,6.724.212,9.2.387,1.479.856,2.762.381,4.059a3.2,3.2,0,0,1-.235.5,13.821,13.821,0,0,0-1.589-.216,12.9,12.9,0,0,0-1.586,0c-.12-.319-.241-.668-.37-1.043-.753-2.189-1.689-4.914-4.457-7.035C12.929,15.626,7.9,15.641,3.16,16.766a4.109,4.109,0,0,0,1.9,8c3.091-.734,5.445-.639,6.629.268.875.67,1.409,2.441,2,4.073a12.069,12.069,0,0,0-2.989,2.925,12.63,12.63,0,0,0-2.053,4.617.437.437,0,0,1-.459.339,4.55,4.55,0,0,0-2.8.7A4.822,4.822,0,0,0,3.3,41.75H1.743A1.745,1.745,0,0,0,0,43.493v2.889a1.745,1.745,0,0,0,1.743,1.743H49.257A1.745,1.745,0,0,0,51,46.382V43.493a1.745,1.745,0,0,0-1.743-1.743ZM8.889,20.325a6.192,6.192,0,0,1-.7,2.469,18.678,18.678,0,0,0-3.478.514A2.615,2.615,0,1,1,3.506,18.22a23.018,23.018,0,0,1,4.921-.666,6.176,6.176,0,0,1,.462,2.771Zm16.593-5.9A9.138,9.138,0,0,0,27.2,17.17a9.281,9.281,0,0,0,4.444,2.7c.04.156.081.315.124.48a16.207,16.207,0,0,1,.732,6.17,8,8,0,0,1-4.256-1.132,7.71,7.71,0,0,1-1.782-1.5c-.109-.605-.276-1.267-.475-2.026a14.562,14.562,0,0,1-.508-7.438Zm.846,12.39a4.416,4.416,0,0,0,.212-.8,9.1,9.1,0,0,0,.932.649,9.428,9.428,0,0,0,4.742,1.347c-.077.284-.167.571-.274.861A12.414,12.414,0,0,1,27,34.865a12.094,12.094,0,0,0-3.829-3.35,11.93,11.93,0,0,0-1.273-.609c1.781-.868,3.73-2.175,4.433-4.09Zm-9.7-3.713a8.287,8.287,0,0,0-.037-2.713,13.309,13.309,0,0,1,3.143,5.637c.085.248.167.485.249.711a15.593,15.593,0,0,0-4.99,1.578c-.114-.325-.225-.651-.337-.97A8.42,8.42,0,0,0,16.625,23.1Zm-4.029.742a5.528,5.528,0,0,0-2.78-1,7.68,7.68,0,0,0,.564-2.421,7.635,7.635,0,0,0-.345-2.815A11.326,11.326,0,0,1,14.56,18.9a6.844,6.844,0,0,1-.54,6.825A4.741,4.741,0,0,0,12.6,23.844ZM49.506,46.382a.249.249,0,0,1-.249.249H1.743a.249.249,0,0,1-.249-.249V43.493a.249.249,0,0,1,.249-.249H33.568a.747.747,0,1,0,0-1.494H4.793A3.36,3.36,0,0,1,6.2,38.937a3.035,3.035,0,0,1,1.887-.462,1.923,1.923,0,0,0,2.012-1.5,11.147,11.147,0,0,1,1.81-4.076c3.82-5.32,11.006-4.834,11.078-4.829.181.014.363.033.544.055a12.689,12.689,0,0,1-3.539,1.979c-.106.041-.21.087-.313.137-.22-.044-.442-.082-.665-.114a.747.747,0,0,0-.21,1.479,10.552,10.552,0,0,1,3.642,1.214,10.838,10.838,0,0,1,4.28,4.389.747.747,0,1,0,1.318-.7c-.068-.127-.142-.259-.22-.395a15.313,15.313,0,0,0,3.845-3.617,14.791,14.791,0,0,1,1.009,1.227,1.919,1.919,0,0,0,2.1.694,3.636,3.636,0,0,1,4.68,2.536,1.917,1.917,0,0,0,2.113,1.376,3.962,3.962,0,0,1,2.294.32,4.235,4.235,0,0,1,2.272,3.1H37.054a.747.747,0,0,0,0,1.494h12.2a.249.249,0,0,1,.249.249Z"/>
    </g>
  </g>
</svg>
