<svg xmlns="http://www.w3.org/2000/svg" xmlns:xlink="http://www.w3.org/1999/xlink" width="51" height="51" viewBox="0 0 51 51">
  <defs>
    <clipPath id="clip-path">
      <rect id="Rectángulo_33929" data-name="Rectángulo 33929" width="51" height="51" transform="translate(854 7613)" fill="#fff" stroke="#707070" stroke-width="1"/>
    </clipPath>
  </defs>
  <g id="Enmascarar_grupo_63" data-name="Enmascarar grupo 63" transform="translate(-854 -7613)" clip-path="url(#clip-path)">
    <g id="tierra_2_" data-name="tierra (2)" transform="translate(854 7613)">
      <g id="Grupo_80994" data-name="Grupo 80994">
        <path id="Trazado_116741" data-name="Trazado 116741" d="M50.23,48.93H.747v-9.5l24.742-2.25,24.742,2.25Z" fill="#d98f61"/>
        <path id="Trazado_116742" data-name="Trazado 116742" d="M26.982,37.312l-1.493-.136L.747,39.427v9.5H3.734v-9.5Z" fill="#d37f50"/>
        <path id="Trazado_116743" data-name="Trazado 116743" d="M50.23,22.642,25.488,24.933.747,22.642V19.549H50.23Z" fill="#b2e59f"/>
        <path id="Trazado_116744" data-name="Trazado 116744" d="M3.734,22.642V19.549H.747v3.093l24.742,2.291,1.493-.138Z" fill="#95d6a4"/>
        <path id="Trazado_116745" data-name="Trazado 116745" d="M.747,39.427V27.05L3.27,25.5l22.219-.571,22.3.571L50.23,27.05V39.427Z" fill="#bd6629"/>
        <path id="Trazado_116746" data-name="Trazado 116746" d="M6.257,25.427,3.27,25.5.747,27.05V39.427H3.734V27.05Z" fill="#a45924"/>
        <path id="Trazado_116747" data-name="Trazado 116747" d="M.747,27.05c2.4.023,2.426,1.194,4.876,1.194,2.474,0,2.474-1.195,4.948-1.195s2.474,1.195,4.948,1.195,2.474-1.195,4.948-1.195,2.474,1.195,4.948,1.195,2.474-1.195,4.948-1.195,2.474,1.195,4.948,1.195,2.474-1.195,4.948-1.195,2.474,1.195,4.949,1.195,2.474-1.195,4.949-1.195h.072V22.642H.747Z" fill="#d98f61"/>
        <circle id="Elipse_4795" data-name="Elipse 4795" cx="1.546" cy="1.546" r="1.546" transform="translate(8.479 42.744)" fill="#f3cbb1"/>
        <circle id="Elipse_4796" data-name="Elipse 4796" cx="1.546" cy="1.546" r="1.546" transform="translate(31.674 42.744)" fill="#f3cbb1"/>
        <g id="Grupo_80993" data-name="Grupo 80993">
          <g id="Grupo_80991" data-name="Grupo 80991">
            <path id="Trazado_116748" data-name="Trazado 116748" d="M34.215,13.8c-3.128.841-6.107-.115-6.973-3.217-.882-3.158,1.147-6.225,4.242-7.308C39.23.562,44.606,3.3,44.606,3.3,40.334,4.453,39.868,12.28,34.215,13.8Z" fill="#95d6a4"/>
          </g>
          <path id="Trazado_116749" data-name="Trazado 116749" d="M30.229,10.583c-.882-3.158,1.147-6.225,4.242-7.308a21.01,21.01,0,0,1,5.3-1.138,20.052,20.052,0,0,0-8.285,1.138c-3.095,1.084-5.123,4.15-4.242,7.308.815,2.921,3.5,3.938,6.426,3.345a4.524,4.524,0,0,1-3.439-3.345Z" fill="#85c691"/>
          <g id="Grupo_80992" data-name="Grupo 80992">
            <path id="Trazado_116750" data-name="Trazado 116750" d="M16.041,15.926c3.124.854,6.108-.09,6.986-3.189.895-3.154-1.122-6.229-4.212-7.325C11.081,2.668,5.693,5.388,5.693,5.388c4.268,1.166,4.7,8.995,10.348,10.538Z" fill="#95d6a4"/>
          </g>
          <path id="Trazado_116751" data-name="Trazado 116751" d="M19.028,15.926c-4.622-1.263-5.751-6.738-8.35-9.322A1.217,1.217,0,0,1,11.3,4.556a17.1,17.1,0,0,1,2.145-.31A15.747,15.747,0,0,0,5.693,5.388c4.268,1.166,4.7,8.995,10.348,10.538a7.235,7.235,0,0,0,3.561.137q-.286-.058-.574-.137Z" fill="#85c691"/>
        </g>
      </g>
      <g id="Grupo_80995" data-name="Grupo 80995">
        <path id="Trazado_116752" data-name="Trazado 116752" d="M50.23,18.8H26.392a16.008,16.008,0,0,1,1.587-5.511,5.817,5.817,0,0,0,4.137,1.548h0c8.129,0,8.446-9.674,12.683-10.813a.739.739,0,0,0,.552-.725c0-1.139-4.277-1.978-7.049-1.978-3.768,0-12.017,1.191-12.017,7.79A6.086,6.086,0,0,0,27,11.979a14.33,14.33,0,0,0-1.279,2.865,16.679,16.679,0,0,0-1.982-1.873,6.327,6.327,0,0,0,.251-1.759c0-5.844-6.994-7.28-7.7-7.28a.747.747,0,0,0-.163,1.475c.624.141,6.364,1.074,6.364,5.819a4.755,4.755,0,0,1-.067.793c-1.928-1.258-3.164-1.571-6.1-2.865a.747.747,0,1,0-.581,1.376L19.222,12a15.154,15.154,0,0,1,2.7,1.483,4.032,4.032,0,0,1-3.756,1.994c-6.357,0-7-7.257-10.6-9.972a17.527,17.527,0,0,1,5.466-.54.747.747,0,0,0,.041-1.492q-.591-.034-1.144-.033c-2.726,0-6.988.8-6.988,1.946a.738.738,0,0,0,.549.723C9.76,7.273,9.973,16.973,18.166,16.973a5.56,5.56,0,0,0,4.951-2.579A15.156,15.156,0,0,1,25.246,16.6a21.833,21.833,0,0,0-.356,2.2H.747A.747.747,0,0,0,0,19.549C0,34.516,0,48.93,0,48.93a.747.747,0,0,0,.747.747H50.23c.978,0,.746-.841.746-4.606V19.549a.747.747,0,0,0-.747-.747ZM27.783,9.084c0-6.376,10.4-6.258,10.543-6.258a16.163,16.163,0,0,1,4.4.588c-3.6,2.7-4.273,9.927-10.611,9.927a4.231,4.231,0,0,1-3.334-1.361c2.895-4.046,5.8-2.983,5.8-4.444,0-.085-.013-.142-.016-.126a.749.749,0,0,0-.727-.579,10.817,10.817,0,0,0-5.829,3.7,4.848,4.848,0,0,1-.223-1.445ZM49.483,20.3v1.6h-6.83a.747.747,0,0,0,0,1.493h6.83v2.945c-2.073.194-2.234,1.164-4.274,1.164C43,27.5,42.908,26.3,40.26,26.3S37.539,27.5,35.312,27.5c-2.21,0-2.3-1.195-4.948-1.195-2.287,0-2.735.917-4.146,1.138V23.388H39.4a.747.747,0,1,0,0-1.493H26.217c0-.29,0-.732.046-1.6ZM1.493,23.388h23.23v4.068c-1.519-.2-1.906-1.154-4.256-1.154-2.661,0-2.721,1.195-4.948,1.195-2.21,0-2.3-1.195-4.948-1.195S7.85,27.5,5.623,27.5c-2.01,0-2.159-.917-4.129-1.149Zm0-3.093H24.767c-.046.867-.041,1.44-.043,1.6H1.493Zm47.99,27.887H1.493V40.4h10a.747.747,0,1,0,0-1.493h-10V27.856c1.395.224,1.85,1.135,4.129,1.135,2.661,0,2.721-1.195,4.948-1.195,2.21,0,2.3,1.195,4.948,1.195S18.24,27.8,20.468,27.8c2.036,0,2.2.964,4.256,1.163v2.03l-4.56,1.438c-2.981-1.594-2.9-1.668-3.24-1.668a.748.748,0,0,0-.359,1.4L19.1,33.547l-1.3,2.628a.747.747,0,1,0,1.339.662l1.475-2.984,4.11-1.3v2.227a.747.747,0,1,0,1.493,0V32.574l4.05,1.278,1.475,2.984a.747.747,0,1,0,1.339-.662l-1.3-2.628,2.533-1.385a.747.747,0,1,0-.717-1.31l-2.882,1.576-4.5-1.419V28.947C28.2,28.72,28.346,27.8,30.363,27.8c2.21,0,2.3,1.195,4.948,1.195S38.033,27.8,40.26,27.8c2.211,0,2.3,1.195,4.949,1.195,2.373,0,2.723-.962,4.274-1.156V38.9H14.745a.747.747,0,1,0,0,1.493H49.483Z"/>
        <path id="Trazado_116753" data-name="Trazado 116753" d="M3.837,45.09a.747.747,0,1,0,.75.747A.748.748,0,0,0,3.837,45.09Z"/>
        <path id="Trazado_116754" data-name="Trazado 116754" d="M10.025,42a2.293,2.293,0,1,0,2.293,2.293A2.3,2.3,0,0,0,10.025,42Zm0,3.093a.8.8,0,1,1,.8-.8A.8.8,0,0,1,10.025,45.09Z"/>
        <path id="Trazado_116755" data-name="Trazado 116755" d="M33.22,46.584a2.293,2.293,0,1,0-2.293-2.293A2.3,2.3,0,0,0,33.22,46.584Zm0-3.093a.8.8,0,1,1-.8.8A.8.8,0,0,1,33.22,43.491Z"/>
        <path id="Trazado_116756" data-name="Trazado 116756" d="M17.756,43.491a.747.747,0,1,0-.747-.747A.747.747,0,0,0,17.756,43.491Z"/>
        <path id="Trazado_116757" data-name="Trazado 116757" d="M25.342,45.607a.747.747,0,1,0-.585-.585.747.747,0,0,0,.585.585Z"/>
        <path id="Trazado_116758" data-name="Trazado 116758" d="M41.1,46.569a.747.747,0,1,0-.893-.732A.746.746,0,0,0,41.1,46.569Z"/>
        <path id="Trazado_116759" data-name="Trazado 116759" d="M46.991,44.346a.746.746,0,1,0-.6-.732A.747.747,0,0,0,46.991,44.346Z"/>
      </g>
    </g>
  </g>
</svg>
