<svg xmlns="http://www.w3.org/2000/svg" xmlns:xlink="http://www.w3.org/1999/xlink" width="240.987" height="251.633" viewBox="0 0 240.987 251.633">
  <defs>
    <clipPath id="clip-path">
      <path id="Trazado_114246" data-name="Trazado 114246" d="M287.655,158.63c-3.258,6.147-7.518,11.692-11.671,17.259a133.514,133.514,0,0,0-12.321,19.129,105.468,105.468,0,0,0-7.827,22.278c-1.843,7.285-3.458,14.668-6.076,21.737-4.369,11.79-12.088,23.357-24.544,27.5-14.239,4.732-29.428-.553-43.787-1.86-15.768-1.436-31.358,3.34-47.109,1.757-6.711-.666-13.373-2.526-19-6.331-5.664-3.816-9.746-9.41-13.931-14.7A72.911,72.911,0,0,0,87.5,231.78c-5.046-3.73-10.4-7-15.5-10.641a59.659,59.659,0,0,1-13.178-12.1,36.329,36.329,0,0,1-7.1-18.077c-1.474-13.584,3.979-26.745,12.8-36.881a76.684,76.684,0,0,1,15.27-13.232c5.935-3.968,12.289-7.312,17.975-11.648.2-.152.39-.314.585-.472-.569-6.581-1.062-13.172-1.057-19.785.021-12.565,1.935-25.509,8.217-36.578,2.705-4.77,6.321-10.033,11.654-12.066a10.416,10.416,0,0,1,9.4.965,32.364,32.364,0,0,1,4.645-5.691A37.292,37.292,0,0,1,152.169,45.4a58.737,58.737,0,0,1,13.334-1.99,107.325,107.325,0,0,1,4.483-10.516c1.892-3.854,3.94-8.624,8-10.641a7.134,7.134,0,0,1,5.817-.39,8.053,8.053,0,0,1,3.962,4.445c1.924,4.4,1.962,9.367,1.528,14.061-.206,2.234-.5,4.467-.878,6.684.152.054.3.1.455.163a57.988,57.988,0,0,1,16.923,9.968,124.278,124.278,0,0,1,14.12,14.646c.455.537.917,1.074,1.377,1.61.141-.856.287-1.713.444-2.564a69.045,69.045,0,0,1,2.6-10.429c1.821-5.155,5.182-10.955,10.939-12.256a6.356,6.356,0,0,1,6.629,2.184c1.691,2.19,1.924,5.182,2.07,7.844.64,11.93-2.325,23.8-1.968,35.7a95.709,95.709,0,0,0,9.568,5.881c12.077,6.537,25.265,11.985,33.976,23.1a30.777,30.777,0,0,1,6.873,17.048C292.8,146.515,290.7,152.883,287.655,158.63Z" transform="translate(-51.481 -21.413)" fill="none"/>
    </clipPath>
  </defs>
  <g id="Grupo_80555" data-name="Grupo 80555" transform="translate(-51.481 -13.862)">
    <g id="Grupo_80548" data-name="Grupo 80548" transform="translate(51.481 18.445)">
      <g id="Grupo_80547" data-name="Grupo 80547" clip-path="url(#clip-path)">
        <path id="Trazado_114190" data-name="Trazado 114190" d="M287.655,172.848c-3.259,6.145-7.515,11.691-11.668,17.254a133.833,133.833,0,0,0-12.324,19.131,105.445,105.445,0,0,0-7.826,22.281c-1.843,7.285-3.455,14.668-6.076,21.734-4.371,11.788-12.088,23.358-24.545,27.5-14.242,4.734-29.428-.553-43.784-1.86-15.768-1.434-31.357,3.34-47.114,1.757-6.709-.668-13.372-2.528-19-6.329-5.661-3.818-9.744-9.41-13.931-14.7A72.813,72.813,0,0,0,87.5,246c-5.045-3.732-10.4-7-15.5-10.643a59.575,59.575,0,0,1-13.177-12.1,36.291,36.291,0,0,1-7.1-18.077c-1.474-13.585,3.98-26.745,12.8-36.88a76.825,76.825,0,0,1,15.267-13.234c5.937-3.968,12.29-7.308,17.979-11.645a46.446,46.446,0,0,0,13.418-16.188,81.353,81.353,0,0,0,6.531-19.609c1.555-7.239,2.206-14.691,4.238-21.815a35.511,35.511,0,0,1,9.254-16.015,37.286,37.286,0,0,1,20.957-10.176,60.307,60.307,0,0,1,36.7,1.814A58.087,58.087,0,0,1,205.8,71.4a124.7,124.7,0,0,1,14.115,14.645c4.486,5.241,8.886,10.579,13.873,15.359a81.091,81.091,0,0,0,17.789,12.612c12.077,6.536,25.265,11.984,33.978,23.1a30.773,30.773,0,0,1,6.87,17.047C292.8,160.731,290.7,167.1,287.655,172.848Z" transform="translate(-51.482 -35.629)" fill="#3e3e9b"/>
        <g id="Grupo_80544" data-name="Grupo 80544" transform="translate(37.804 41.263)">
          <path id="Trazado_114191" data-name="Trazado 114191" d="M145.318,96.04c2.667-2.092,5.486-4.06,7.681-6.645l.027.021a18.747,18.747,0,0,1-4.884,14.375c-3.068,3.29-7.415,5.573-9.459,9.535-1.973-2.765-1.761-6.672-.243-9.719C139.968,100.529,142.614,98.165,145.318,96.04Z" transform="translate(-122.997 -89.395)" fill="#ffbd39"/>
          <path id="Trazado_114192" data-name="Trazado 114192" d="M120.624,273.347l2.569.9a17.458,17.458,0,0,0-1.5,3.637Z" transform="translate(-116.461 -161.695)" fill="#332a56"/>
          <path id="Trazado_114193" data-name="Trazado 114193" d="M128.126,254.737a32,32,0,0,0-8.054.325,14.921,14.921,0,0,1-5.1-4.722c2.575.439,11.166,1.962,13.308,3.117,2.52,1.355,4.672,5.421,4.672,5.421S128.355,254.737,128.126,254.737Z" transform="translate(-114.239 -152.653)" fill="#332a56"/>
          <path id="Trazado_114194" data-name="Trazado 114194" d="M146.221,196.568c-.114-.081-1.827-1.318-4.163-2.916a.114.114,0,0,1-.033-.022c-3.268-1.865-8.9-5.551-9.345-5.843-.011-.005-.016-.011-.027-.016V134.493s4.271-3.73,11.464,0v58.46Z" transform="translate(-121.189 -106.468)" fill="#f9e7ca"/>
          <path id="Trazado_114195" data-name="Trazado 114195" d="M128.227,229.512v-.005s-10.673-8.922-10.673-10.255.607-5.1,3.545-5.475c.754-.1,2.277.531,4.131,1.517a154.562,154.562,0,0,1,13.573,8.8l-7.459-12.809a25.833,25.833,0,0,1-6.114-2.255c-1.5-.856-2.705-1.94-2.776-3.247-.059-1.128,1.09-1.854,2.776-2.3a31.3,31.3,0,0,1,11.464-.184c2.374.64,11.79,19.856,11.979,21.98s-.829,7.025-.829,7.025l-2.71,35.109L166.963,345.7h-35.3l-8.224-69.544a39.383,39.383,0,0,1-5.2-14.69,25.6,25.6,0,0,1,.683-11.025c.087.005.136.005.136.005l-.06-.26a17.457,17.457,0,0,1,1.5-3.637l-2.569-.9L119,250.185c-.027.081-.049.168-.076.255-.7-.038-4.033-.325-4.3-2.309-.3-2.223.152-8.965,2.792-10.852a6.143,6.143,0,0,1,2.19-.878,32,32,0,0,1,8.054-.325c.228,0,4.825,4.141,4.825,4.141s-2.152-4.065-4.672-5.421c-2.141-1.154-10.733-2.677-13.308-3.117a4.85,4.85,0,0,1-.558-3.816c.84-3.014,2.374-3.241,7.16-1.431C122.915,227.122,125.593,228.3,128.227,229.512Z" transform="translate(-113.765 -133.992)" fill="#ffa9a9"/>
          <path id="Trazado_114196" data-name="Trazado 114196" d="M144.087,254.091a18.241,18.241,0,0,0-5.386-7.386c-.27-.222-.619.194-.348.415a17.677,17.677,0,0,1,5.227,7.159A.271.271,0,0,0,144.087,254.091Z" transform="translate(-123.391 -151.199)" fill="#332a56"/>
          <path id="Trazado_114197" data-name="Trazado 114197" d="M133.58,264.836a.273.273,0,0,0-.378-.065,8.746,8.746,0,0,0-2.019,2.563c-.161.31.33.541.49.232a8.046,8.046,0,0,1,1.842-2.353A.278.278,0,0,0,133.58,264.836Z" transform="translate(-120.599 -158.304)" fill="#332a56"/>
          <path id="Trazado_114198" data-name="Trazado 114198" d="M135.682,266.328a.275.275,0,0,0-.378-.065,10.52,10.52,0,0,0-1.806,1.606.271.271,0,0,0,.415.348,9.752,9.752,0,0,1,1.7-1.512A.275.275,0,0,0,135.682,266.328Z" transform="translate(-121.496 -158.892)" fill="#332a56"/>
          <path id="Trazado_114199" data-name="Trazado 114199" d="M146.183,240.295a12.3,12.3,0,0,0-1.982.944.274.274,0,0,0-.064.378.277.277,0,0,0,.378.064,11.5,11.5,0,0,1,1.859-.879A.271.271,0,0,0,146.183,240.295Z" transform="translate(-125.683 -148.697)" fill="#332a56"/>
          <path id="Trazado_114200" data-name="Trazado 114200" d="M147.878,242.041a.274.274,0,0,0-.348-.16,6.15,6.15,0,0,0-1.42.86.271.271,0,0,0,.313.442,5.9,5.9,0,0,1,.64-.454c.055-.034.11-.066.166-.1l.085-.047.041-.022,0,0c.119-.059.238-.118.36-.171A.276.276,0,0,0,147.878,242.041Z" transform="translate(-126.433 -149.32)" fill="#332a56"/>
          <path id="Trazado_114201" data-name="Trazado 114201" d="M140.321,119.638a14,14,0,0,0-1.03,10.513c.2.668,1.215.289,1.017-.378a12.883,12.883,0,0,1,.994-9.672C141.63,119.483,140.648,119.023,140.321,119.638Z" transform="translate(-123.57 -101.167)" fill="#332a56"/>
          <path id="Trazado_114202" data-name="Trazado 114202" d="M146.917,151.553a.553.553,0,0,0-.493.587v5.877a.546.546,0,0,0,.588.492.553.553,0,0,0,.492-.587v-5.877A.546.546,0,0,0,146.917,151.553Z" transform="translate(-126.601 -113.825)" fill="#f7ce94"/>
          <path id="Trazado_114203" data-name="Trazado 114203" d="M146.316,167.69a.553.553,0,0,0-.493.587q.013,2.868-.181,5.73a.559.559,0,0,0,.435.631.546.546,0,0,0,.631-.435q.206-3.005.194-6.02A.546.546,0,0,0,146.316,167.69Z" transform="translate(-126.293 -120.167)" fill="#f7ce94"/>
          <path id="Trazado_114204" data-name="Trazado 114204" d="M142.043,163.318a.544.544,0,0,0-.7-.319.56.56,0,0,0-.319.7l.009.038.011.051c.011.052.022.1.032.155.022.112.042.225.061.337q.054.325.088.652a11.111,11.111,0,0,1,.056,1.341.544.544,0,0,0,.588.493.556.556,0,0,0,.492-.587A11.648,11.648,0,0,0,142.043,163.318Z" transform="translate(-124.471 -118.311)" fill="#f7ce94"/>
          <path id="Trazado_114205" data-name="Trazado 114205" d="M142.374,137.887a6.413,6.413,0,0,1-7.341.025c-.563-.406-1.264.422-.7.83a7.523,7.523,0,0,0,8.664.03A.542.542,0,0,0,142.374,137.887Z" transform="translate(-121.768 -108.413)" fill="#f7ce94"/>
        </g>
        <g id="Grupo_80545" data-name="Grupo 80545" transform="translate(93.234 4.034)">
          <path id="Trazado_114206" data-name="Trazado 114206" d="M245.092,252.162l-.135,11.773-.233,20.511-.217,19.134-.109,9.768-1.036,17.171H205.088l3.074-28.538,5.627-44.032v-.016l1.317-10.293s-.45-46.552,1.811-53.788a20.723,20.723,0,0,1,3.5-6.683l2.532,20.235s1.653-6.689,1.2-23.764c0,0,1.507-8.4,1.811-13.9.211-3.946,2.8-6.84,5.654-4.856a11.083,11.083,0,0,1,3.382,4.856c3.843,8.966,0,20.344,0,20.344a94.726,94.726,0,0,1,4.228,9.583,80.614,80.614,0,0,1,2.726,8.6,67.3,67.3,0,0,1,2.2,17.552c-.141,11.053-3.323,17.552-3.55,18.029.4-.6,6.824-10.25,8.076-17.1a4.627,4.627,0,0,0,1.686.163l.011.092S253.077,238,245.092,252.162Z" transform="translate(-205.088 -81.583)" fill="#f9b65d"/>
          <path id="Trazado_114207" data-name="Trazado 114207" d="M256.207,28.059s13.893,12.283-2.434,28.334c0,0-8.716-3.09-3.29-13.113S256.207,28.059,256.207,28.059Z" transform="translate(-222.231 -28.059)" fill="#ffbd39"/>
          <path id="Trazado_114208" data-name="Trazado 114208" d="M234.071,196.2c.45,17.075-1.2,23.764-1.2,23.764l-2.532-20.235A15.56,15.56,0,0,1,234.071,196.2Z" transform="translate(-215.011 -94.146)" fill="#332a56"/>
          <path id="Trazado_114209" data-name="Trazado 114209" d="M268.523,264.389a8.914,8.914,0,0,0,3.128,1.707c-1.273,6.96-7.887,16.815-8.093,17.124.108-.222,3.42-6.76,3.566-18.05a7.919,7.919,0,0,0,1.122-.808Z" transform="translate(-228.069 -120.935)" fill="#332a56"/>
          <path id="Trazado_114210" data-name="Trazado 114210" d="M260.516,339.9c-.223.444-.461.9-.716,1.377a87.538,87.538,0,0,1-7.372,11.464,99.432,99.432,0,0,1-8.982-7.979c7.264-6.337,14.294-15.953,16.6-24.637l.124-11.025s2.732,1.837,3.957,11.378C264.966,327.016,263.431,333.618,260.516,339.9Z" transform="translate(-220.164 -138.517)" fill="#161230"/>
          <path id="Trazado_114211" data-name="Trazado 114211" d="M271.106,359.839c-.228.5-.466.992-.716,1.485v-.108C270.645,360.739,270.883,360.283,271.106,359.839Z" transform="translate(-230.754 -158.461)" fill="#161230"/>
          <path id="Trazado_114212" data-name="Trazado 114212" d="M218.533,400.527s.9-7.236-.987-13.41a26.8,26.8,0,0,0-7.393-.211h0c2.569-1.453,6.342-3.7,10.51-6.6a66.949,66.949,0,0,0,8.559,11.481A99.876,99.876,0,0,1,218.533,400.527Z" transform="translate(-207.079 -166.506)" fill="#161230"/>
          <path id="Trazado_114213" data-name="Trazado 114213" d="M247.8,355.013h0a9.907,9.907,0,0,0-6.374,1.187c-1.886,6.174-.987,13.41-.987,13.41a62.814,62.814,0,0,1-9.941-8.738,66.95,66.95,0,0,1-8.559-11.481,61.562,61.562,0,0,1-7.285-18.663,60.078,60.078,0,0,1-.954-18.3c.954-9.573,4.672-10.776,4.672-10.776l-1.317,10.293v.016c-.58,11.291,6.613,21.78,14.646,29.873a99.43,99.43,0,0,0,8.982,7.979C243.365,351.929,245.831,353.685,247.8,355.013Z" transform="translate(-208.353 -135.59)" fill="#332a56"/>
          <path id="Trazado_114214" data-name="Trazado 114214" d="M260.159,153.683v9.2l-3.756,3.285H256.4a94.728,94.728,0,0,0-4.228-9.583s3.843-11.378,0-20.344a11.083,11.083,0,0,0-3.382-4.856v-50.6a10.161,10.161,0,0,1,11.372,0v61.328C256.441,149.651,257.991,152.61,260.159,153.683Z" transform="translate(-222.263 -48.086)" fill="#f9e7ca"/>
          <path id="Trazado_114215" data-name="Trazado 114215" d="M272.7,187.319c-1.106,2.071-2.39,3.708-3.323,3.827a6.1,6.1,0,0,1-3.312-.5c-2.168-1.073-3.718-4.033,0-11.568v-6.028s7.637,3.09,8.754,5.876C275.48,180.56,274.271,184.381,272.7,187.319Z" transform="translate(-228.174 -85.045)" fill="#f9b65d"/>
          <path id="Trazado_114216" data-name="Trazado 114216" d="M278.644,255.57a3.64,3.64,0,0,1-2.271,1.089,4.626,4.626,0,0,1-1.686-.163,8.914,8.914,0,0,1-3.128-1.707l-.276-.027a39.132,39.132,0,0,0,7.361-8.635,30.739,30.739,0,0,0,3.312-6.19,3.865,3.865,0,0,1,1.811,2.044C284.747,244.019,281.582,252.681,278.644,255.57Z" transform="translate(-231.105 -111.335)" fill="#f9b65d"/>
          <path id="Trazado_114217" data-name="Trazado 114217" d="M279.807,233.631a30.739,30.739,0,0,1-3.312,6.19,39.131,39.131,0,0,1-7.361,8.635,7.918,7.918,0,0,1-1.122.808,67.3,67.3,0,0,0-2.2-17.552s2.467,2.309,4.955-.7a44.464,44.464,0,0,0,4.3-7.041c4.114-.558,5.339,2.217,5.339,2.217S281.759,228.53,279.807,233.631Z" transform="translate(-228.957 -105.029)" fill="#f9b65d"/>
          <path id="Trazado_114218" data-name="Trazado 114218" d="M276.687,203.689c0,2.1-1.561,5.974-3.377,9.535a44.463,44.463,0,0,1-4.3,7.041c-2.488,3.014-4.955.7-4.955.7a80.617,80.617,0,0,0-2.726-8.6h.005l3.757-3.285v-9.2a6.1,6.1,0,0,0,3.312.5c.932-.119,2.217-1.756,3.323-3.827C272.849,197.385,276.687,200.41,276.687,203.689Z" transform="translate(-227.191 -94.287)" fill="#f9b65d"/>
          <path id="Trazado_114219" data-name="Trazado 114219" d="M277.462,233.022a42.427,42.427,0,0,1-8.044,11.865,6.59,6.59,0,0,1-2.85,2.3,111.96,111.96,0,0,0-2.519-16.208,4.275,4.275,0,0,0,3.991-.383,9.972,9.972,0,0,0,2.135-1.848,19.173,19.173,0,0,0,1.837-2.342,19.87,19.87,0,0,0,1.61-2.923c.142-.319-.348-.551-.49-.232a18.879,18.879,0,0,1-3.846,5.645,6.329,6.329,0,0,1-2.743,1.771,3.129,3.129,0,0,1-2.665-.433c-.222-.932-.453-1.862-.7-2.788q-.816-3.066-1.805-6.082c-.109-.331-.617-.143-.509.189q1.391,4.246,2.433,8.593a.261.261,0,0,0,.038.353c.018.016.037.029.055.045a111,111,0,0,1,2.273,12.913q.362,3.153.543,6.322a.271.271,0,0,0,.54-.047c-.038-.666-.09-1.33-.141-2a5.432,5.432,0,0,0,2.567-1.775q1.278-1.382,2.488-2.827a45.663,45.663,0,0,0,4.391-6.092,30.035,30.035,0,0,0,1.9-3.788C278.085,232.932,277.6,232.7,277.462,233.022Z" transform="translate(-227.004 -103.967)" fill="#332a56"/>
          <path id="Trazado_114220" data-name="Trazado 114220" d="M273.528,196.913a4.212,4.212,0,0,1-1.235,1.142c-.464.318-.931.638-1.425.909a7.331,7.331,0,0,1-3.429.884c-.349,0-.3.544.047.54a7.84,7.84,0,0,0,3.6-.927,17,17,0,0,0,1.567-.993,4.487,4.487,0,0,0,1.294-1.206C274.131,196.972,273.717,196.62,273.528,196.913Z" transform="translate(-229.5 -94.382)" fill="#332a56"/>
          <path id="Trazado_114221" data-name="Trazado 114221" d="M242.357,199.011a14.758,14.758,0,0,0-2.64-1.944.271.271,0,1,0-.232.49,14.2,14.2,0,0,1,2.523,1.869C242.265,199.664,242.612,199.247,242.357,199.011Z" transform="translate(-218.546 -94.474)" fill="#332a56"/>
          <path id="Trazado_114222" data-name="Trazado 114222" d="M242.8,204.3l-2.713-.676a.273.273,0,0,0-.316.217.276.276,0,0,0,.218.316l2.713.676a.271.271,0,0,0,.1-.534Z" transform="translate(-218.719 -97.061)" fill="#332a56"/>
          <path id="Trazado_114223" data-name="Trazado 114223" d="M256.64,66.866a26.925,26.925,0,0,0-.2,10.233c.119.682,1.2.594,1.08-.095a26.084,26.084,0,0,1,.182-9.943C257.852,66.379,256.785,66.185,256.64,66.866Z" transform="translate(-225.116 -43.145)" fill="#332a56"/>
          <path id="Trazado_114224" data-name="Trazado 114224" d="M263.152,144.1a.553.553,0,0,0-.492.587v5.275a.545.545,0,0,0,.587.492.553.553,0,0,0,.493-.587V144.6A.546.546,0,0,0,263.152,144.1Z" transform="translate(-227.716 -73.669)" fill="#f7ce94"/>
          <path id="Trazado_114225" data-name="Trazado 114225" d="M263.154,159.262a.549.549,0,0,0-.631.436q-.152,1.733-.3,3.465a.554.554,0,0,0,.435.631.549.549,0,0,0,.631-.435q.151-1.733.3-3.466A.556.556,0,0,0,263.154,159.262Z" transform="translate(-227.542 -79.625)" fill="#f7ce94"/>
          <path id="Trazado_114226" data-name="Trazado 114226" d="M259.18,154.531a.556.556,0,0,0-.493.587v2.11a.544.544,0,0,0,.588.493.556.556,0,0,0,.493-.588v-2.109A.544.544,0,0,0,259.18,154.531Z" transform="translate(-226.154 -77.766)" fill="#f7ce94"/>
          <path id="Trazado_114227" data-name="Trazado 114227" d="M257.672,84.681a8.554,8.554,0,0,1-7.759-.484c-.6-.356-1.06.628-.464.98a9.582,9.582,0,0,0,8.6.52C258.686,85.419,258.314,84.4,257.672,84.681Z" transform="translate(-222.414 -50.093)" fill="#f7ce94"/>
          <path id="Trazado_114228" data-name="Trazado 114228" d="M260.12,97.013a8.664,8.664,0,0,1-.821-2.594,10.59,10.59,0,0,1,.272-2.751.543.543,0,0,0-1.067-.2,9.218,9.218,0,0,0-.111,4.051c.376,1.425,1.129,2.7,1.43,4.156.251,1.215.524,2.773-.325,3.816a4.06,4.06,0,0,0-.862,1.215,7.953,7.953,0,0,0-.138,1.882,4.4,4.4,0,0,1-.56,1.752c-.144.251-.4.734-.705.444a1.747,1.747,0,0,1-.316-.939,12.951,12.951,0,0,1,.132-4.454,3.817,3.817,0,0,0-.342-3.21,2.038,2.038,0,0,0-1.212-.727,1.19,1.19,0,0,1-1.067-1.235,7.041,7.041,0,0,1,.507-2.161,4.981,4.981,0,0,0,.181-2.11,2.961,2.961,0,0,0-2.25-2.532c-.683-.151-.876.917-.2,1.066,1.656.365,1.509,2.359,1.13,3.6-.353,1.158-.775,2.416-.039,3.528a1.934,1.934,0,0,0,1.075.812c.352.1.7.084.97.37a1.493,1.493,0,0,1,.356.95,10.761,10.761,0,0,1-.313,2.2,14.207,14.207,0,0,0-.147,2.326c.019,1.082.009,2.71.954,3.467,1.006.805,1.933-.279,2.365-1.132a5.32,5.32,0,0,0,.528-1.715c.087-.688-.129-1.531.266-2.132a10.671,10.671,0,0,0,.971-1.28,4.3,4.3,0,0,0,.353-1.8A12.3,12.3,0,0,0,260.12,97.013Z" transform="translate(-223.624 -52.815)" fill="#f7ce94"/>
        </g>
        <g id="Grupo_80546" data-name="Grupo 80546" transform="translate(149.11 28.752)">
          <path id="Trazado_114229" data-name="Trazado 114229" d="M351.862,68.783s9.269,16.272-7.383,25.612c0,0-4.977-5.8-1.209-12.354S350.8,74.811,351.862,68.783Z" transform="translate(-314.72 -68.783)" fill="#ffbd39"/>
          <path id="Trazado_114230" data-name="Trazado 114230" d="M334.684,200.607v4a17.923,17.923,0,0,1-2.114,2.482c-2.044,1.6-4.369,8.6-4.515,9.03l2.558-10.684Z" transform="translate(-309.294 -120.595)" fill="#332a56"/>
          <path id="Trazado_114231" data-name="Trazado 114231" d="M361.563,211.137l-7.2,3.718s1.491-2.521,3.312-5.594C358.63,209.716,360.191,210.464,361.563,211.137Z" transform="translate(-319.635 -123.996)" fill="#332a56"/>
          <path id="Trazado_114232" data-name="Trazado 114232" d="M338.977,153.435V116.3s4.591-3.085,11.751,0v40.437c-3.827,3.339-8.819,10.369-11.751,14.191V153.435Z" transform="translate(-313.587 -86.92)" fill="#f9e7ca"/>
          <path id="Trazado_114233" data-name="Trazado 114233" d="M335.187,197.12c-1.822,3.073-3.312,5.594-3.312,5.594l7.2-3.718c.77.379,1.485.737,1.994,1.008,1.957,1.03-1.208,7.393-1.208,7.393,8.288-2.851,7.534,5.562,7.534,5.562s2.488-1.052,4.672,1.707.792,15.324-6.179,24.967a107.82,107.82,0,0,0-10.245,16.939l-.976,80.707H297.146l11.22-103.218s-.07-38.806.753-42.042,8.971-8.743,10.548-10.852a13.887,13.887,0,0,1,2.868-2.8v13.5l-4.071,4.824-2.558,10.684c.146-.433,2.472-7.426,4.515-9.03a17.921,17.921,0,0,0,2.114-2.482c2.932-3.821,7.924-10.852,11.751-14.191,1.5-1.3,2.824-2.044,3.767-1.8,4.141,1.068,5.122,3.556,2.862,7.475C339.719,189.428,337.241,193.628,335.187,197.12Z" transform="translate(-297.146 -111.855)" fill="#d67b38"/>
          <path id="Trazado_114234" data-name="Trazado 114234" d="M343.388,213.895l-4.519-.686c-.345-.052-.443.481-.1.534l4.519.685C343.635,214.48,343.733,213.947,343.388,213.895Z" transform="translate(-313.421 -125.546)" fill="#332a56"/>
          <path id="Trazado_114235" data-name="Trazado 114235" d="M343.813,218.557l-2.671-.628c-.341-.079-.436.454-.1.534l2.671.628C344.056,219.17,344.152,218.637,343.813,218.557Z" transform="translate(-314.317 -127.4)" fill="#332a56"/>
          <path id="Trazado_114236" data-name="Trazado 114236" d="M369.009,232.862l-2.971-1.519c-.311-.159-.542.332-.231.49l2.97,1.519C369.088,233.511,369.319,233.02,369.009,232.862Z" transform="translate(-324.074 -132.663)" fill="#332a56"/>
          <path id="Trazado_114237" data-name="Trazado 114237" d="M370.227,237.182l-2.276-1.1a.271.271,0,0,0-.232.49l2.276,1.1A.271.271,0,0,0,370.227,237.182Z" transform="translate(-324.825 -134.527)" fill="#332a56"/>
          <path id="Trazado_114238" data-name="Trazado 114238" d="M358.593,225.374a8.863,8.863,0,0,0-2.521-1.666c-.319-.14-.552.35-.231.49a8.4,8.4,0,0,1,2.4,1.591C358.5,226.03,358.846,225.613,358.593,225.374Z" transform="translate(-320.155 -129.665)" fill="#332a56"/>
          <path id="Trazado_114239" data-name="Trazado 114239" d="M378.7,242.693a.3.3,0,0,0-.206.046.279.279,0,0,0-.11.172c-.018.13.066.308.217.316a1.045,1.045,0,0,1,.209.031l.034.009.015.005c.033.013.065.026.1.042s.058.03.086.046l.005,0,.044.032a1.413,1.413,0,0,1,.15.132l.036.044c.021.025.039.052.058.079s.033.054.049.081l.006.012.02.044c.012.03.024.061.034.091s.011.036.016.055v0a1.25,1.25,0,0,1,.019.208.272.272,0,0,0,.294.246.278.278,0,0,0,.246-.294A1.458,1.458,0,0,0,378.7,242.693Z" transform="translate(-329.073 -137.136)" fill="#332a56"/>
          <path id="Trazado_114240" data-name="Trazado 114240" d="M346.654,102.86c-.815,3.187-1.59,6.547-.568,9.781.21.665,1.226.287,1.016-.378-.955-3.028-.143-6.232.618-9.207C347.893,102.379,346.826,102.188,346.654,102.86Z" transform="translate(-316.189 -82.012)" fill="#332a56"/>
          <path id="Trazado_114241" data-name="Trazado 114241" d="M353.547,159.252a.555.555,0,0,0-.493.588q-.054,2.41-.108,4.819a.545.545,0,0,0,.587.493.555.555,0,0,0,.493-.588q.055-2.409.108-4.819A.545.545,0,0,0,353.547,159.252Z" transform="translate(-319.077 -104.34)" fill="#f7ce94"/>
          <path id="Trazado_114242" data-name="Trazado 114242" d="M353.962,173.8a.542.542,0,0,0-1.066-.2,16.112,16.112,0,0,0-.173,3.457.547.547,0,0,0,.587.493.553.553,0,0,0,.493-.587A14.3,14.3,0,0,1,353.962,173.8Z" transform="translate(-318.979 -109.807)" fill="#f7ce94"/>
          <path id="Trazado_114243" data-name="Trazado 114243" d="M349.842,168.669a.593.593,0,0,0-.192-.368.554.554,0,0,0-.4-.124.548.548,0,0,0-.493.587,5.4,5.4,0,0,1,.109,1.185c0,.029,0,.194,0,.057a1.121,1.121,0,0,1-.01.135c-.008.1-.019.194-.032.291a5.382,5.382,0,0,1-.118.6.546.546,0,0,0,.436.631.556.556,0,0,0,.631-.436A5.785,5.785,0,0,0,349.842,168.669Z" transform="translate(-317.408 -107.847)" fill="#f7ce94"/>
          <path id="Trazado_114244" data-name="Trazado 114244" d="M349.171,118.595a9.323,9.323,0,0,1-4.543,1.257c-1.321.022-3.264-.138-4.082-1.337-.393-.577-1.278.049-.885.626,1,1.472,3.1,1.766,4.745,1.791a10.4,10.4,0,0,0,5.391-1.452C350.4,119.128,349.771,118.245,349.171,118.595Z" transform="translate(-313.817 -88.239)" fill="#f7ce94"/>
          <path id="Trazado_114245" data-name="Trazado 114245" d="M353.2,139.834a.542.542,0,0,0-1.066-.2c-.078.465.231,2.762-.69,2.435s-.507-2.387-.473-3.112c.047-1.024.153-2.064.123-3.089a3.394,3.394,0,0,0-.568-1.972,1.846,1.846,0,0,0-.784-.593c-.441-.177-.879-.133-1.171-.56-.558-.813-.073-2,.04-2.879a4.634,4.634,0,0,0-1.185-4.269c-.527-.458-1.224.373-.7.83,1.761,1.529.294,3.914.54,5.8a2.257,2.257,0,0,0,1.463,1.936c.521.167.888.16,1.114.733a3.619,3.619,0,0,1,.169,1.337c-.008,1.2-.105,2.4-.16,3.591-.047,1.015-.161,2.215.7,2.952a1.5,1.5,0,0,0,2.175-.117C353.409,141.832,353.043,140.786,353.2,139.834Z" transform="translate(-316.561 -91.061)" fill="#f7ce94"/>
        </g>
      </g>
    </g>
    <g id="Grupo_80554" data-name="Grupo 80554" transform="translate(70.8 13.863)">
      <g id="Grupo_80549" data-name="Grupo 80549" transform="translate(0 68.626)">
        <path id="Trazado_114247" data-name="Trazado 114247" d="M184.207,197.188a1.364,1.364,0,0,0-1.279-.706l-.347.078a1.328,1.328,0,0,0-.554.391l-.183.285a1.318,1.318,0,0,0-.123.683v.442a1.364,1.364,0,0,0,1.437,1.206l.347-.078a1.33,1.33,0,0,0,.554-.391l.183-.286a1.321,1.321,0,0,0,.122-.683v-.442A1,1,0,0,0,184.207,197.188Z" transform="translate(-121.988 -154.262)" fill="#ffd15f"/>
        <path id="Trazado_114248" data-name="Trazado 114248" d="M219.384,149.824a1.336,1.336,0,0,0-1.206,1.437,1.354,1.354,0,0,0,1.437,1.206,1.336,1.336,0,0,0,1.205-1.437A1.353,1.353,0,0,0,219.384,149.824Z" transform="translate(-136.317 -135.927)" fill="#ffd15f"/>
        <path id="Trazado_114249" data-name="Trazado 114249" d="M90.362,326.613a1.336,1.336,0,0,0-1.205,1.437,1.353,1.353,0,0,0,1.437,1.206,1.337,1.337,0,0,0,1.206-1.437A1.354,1.354,0,0,0,90.362,326.613Z" transform="translate(-85.607 -205.412)" fill="#ffd15f"/>
        <path id="Trazado_114250" data-name="Trazado 114250" d="M192.607,166.133a.792.792,0,0,0-.248-.321l-.228-.147a1.06,1.06,0,0,0-.546-.1l-.278.063a1.059,1.059,0,0,0-.442.313l-.443.442a1.092,1.092,0,0,0,.131,1.5l.228.146a1.054,1.054,0,0,0,.546.1l.278-.063a1.053,1.053,0,0,0,.442-.313l.442-.442a.8.8,0,0,0,.189-.359.96.96,0,0,0-.072-.815Z" transform="translate(-125.31 -142.113)" fill="#fff"/>
        <path id="Trazado_114251" data-name="Trazado 114251" d="M207.206,180.882c-1.366,0-1.173,2.114.185,2.114S208.564,180.882,207.206,180.882Z" transform="translate(-131.639 -148.134)" fill="#fff"/>
        <path id="Trazado_114252" data-name="Trazado 114252" d="M235.641,126.928c-1.366,0-1.173,2.114.185,2.114S237,126.928,235.641,126.928Z" transform="translate(-142.815 -126.928)" fill="#fff"/>
        <path id="Trazado_114253" data-name="Trazado 114253" d="M324.492,166.6a1.174,1.174,0,0,0-.347-.49l-.252-.162a1.172,1.172,0,0,0-.6-.108h-.49a1.207,1.207,0,0,0-1.068,1.272l.069.308a1.175,1.175,0,0,0,.346.49l.253.162a1.166,1.166,0,0,0,.6.108h.489a.884.884,0,0,0,.442-.14,1.207,1.207,0,0,0,.625-1.132C324.538,166.8,324.515,166.7,324.492,166.6Z" transform="translate(-177.016 -142.219)" fill="#fff"/>
        <path id="Trazado_114254" data-name="Trazado 114254" d="M86.769,298.437a1.324,1.324,0,0,0-.391-.554l-.285-.183a1.323,1.323,0,0,0-.683-.122h-.886a1.364,1.364,0,0,0-1.205,1.437l.078.347a1.324,1.324,0,0,0,.391.554l.286.183a1.32,1.32,0,0,0,.682.122h.886a1.474,1.474,0,0,0,.9-.469.984.984,0,0,0,.236-.449,1,1,0,0,0,.07-.519Z" transform="translate(-83.311 -193.998)" fill="#ffd15f"/>
        <path id="Trazado_114255" data-name="Trazado 114255" d="M408.461,192.986a1.362,1.362,0,0,0-1.279-.706l-.347.078a1.326,1.326,0,0,0-.553.391l-.183.285a1.317,1.317,0,0,0-.122.683v.442a1.363,1.363,0,0,0,1.437,1.206l.347-.078a1.33,1.33,0,0,0,.554-.391l.183-.286a1.321,1.321,0,0,0,.122-.683v-.442A1,1,0,0,0,408.461,192.986Z" transform="translate(-210.129 -152.61)" fill="#ffd15f"/>
        <path id="Trazado_114256" data-name="Trazado 114256" d="M387.542,192.417a1.479,1.479,0,0,0-1.335,1.59,1.5,1.5,0,0,0,1.59,1.335,1.48,1.48,0,0,0,1.335-1.59A1.5,1.5,0,0,0,387.542,192.417Z" transform="translate(-202.358 -152.668)" fill="#ffd15f"/>
        <path id="Trazado_114257" data-name="Trazado 114257" d="M205.2,274.686a1.337,1.337,0,0,0-1.206,1.437,1.354,1.354,0,0,0,1.437,1.206,1.337,1.337,0,0,0,1.206-1.437A1.354,1.354,0,0,0,205.2,274.686Z" transform="translate(-130.741 -185.002)" fill="#ffd15f"/>
        <path id="Trazado_114258" data-name="Trazado 114258" d="M194.6,308.351a1.334,1.334,0,0,0-.391-.554l-.286-.183a1.315,1.315,0,0,0-.683-.123H192.8a1.474,1.474,0,0,0-.9.469,1.474,1.474,0,0,0-.305.968l.078.347a1.324,1.324,0,0,0,.391.554l.285.183a1.323,1.323,0,0,0,.683.122h.442a1.363,1.363,0,0,0,1.206-1.437Z" transform="translate(-125.867 -197.894)" fill="#ffd15f"/>
        <path id="Trazado_114259" data-name="Trazado 114259" d="M192.338,287.471a1.07,1.07,0,0,0-.313-.443l-.229-.146a1.051,1.051,0,0,0-.546-.1h-.442a1.174,1.174,0,0,0-.72.375,1.179,1.179,0,0,0-.244.775l.062.278a1.064,1.064,0,0,0,.313.443l.228.147a1.057,1.057,0,0,0,.546.1h.442a1.09,1.09,0,0,0,.964-1.15Z" transform="translate(-125.179 -189.756)" fill="#fff"/>
        <path id="Trazado_114260" data-name="Trazado 114260" d="M206.143,297.723c-1.366,0-1.173,2.115.185,2.115S207.5,297.723,206.143,297.723Z" transform="translate(-131.222 -194.057)" fill="#fff"/>
        <path id="Trazado_114261" data-name="Trazado 114261" d="M103.02,276.828a1.06,1.06,0,0,0-.313-.443l-.228-.147a1.057,1.057,0,0,0-.546-.1h-.442a1.09,1.09,0,0,0-.964,1.15l.062.277a1.066,1.066,0,0,0,.313.443l.228.146a1.051,1.051,0,0,0,.546.1h.442a.8.8,0,0,0,.4-.127,1.09,1.09,0,0,0,.565-1.023Z" transform="translate(-90.074 -185.573)" fill="#fff"/>
        <path id="Trazado_114262" data-name="Trazado 114262" d="M101.78,322.67c-1.546,0-1.327,2.393.209,2.393S103.316,322.67,101.78,322.67Z" transform="translate(-90.154 -203.862)" fill="#fff"/>
        <path id="Trazado_114263" data-name="Trazado 114263" d="M111.769,304.534a1.059,1.059,0,0,0-.313-.442l-.229-.147a1.064,1.064,0,0,0-.546-.1h-.442a1.09,1.09,0,0,0-.964,1.15l.063.277a1.059,1.059,0,0,0,.313.443l.228.146a1.054,1.054,0,0,0,.546.1h.442a1.092,1.092,0,0,0,.965-1.15Z" transform="translate(-93.513 -196.462)" fill="#fff"/>
        <path id="Trazado_114264" data-name="Trazado 114264" d="M401.567,179.6c-1.366,0-1.173,2.115.185,2.115S402.925,179.6,401.567,179.6Z" transform="translate(-208.031 -147.628)" fill="#fff"/>
        <path id="Trazado_114265" data-name="Trazado 114265" d="M398.65,218.968c-1.366,0-1.173,2.115.185,2.115S400.008,218.968,398.65,218.968Z" transform="translate(-206.884 -163.103)" fill="#fff"/>
        <path id="Trazado_114266" data-name="Trazado 114266" d="M398.705,274.518a1.331,1.331,0,0,0-.391-.553l-.286-.183a1.321,1.321,0,0,0-.683-.122h-.885a1.28,1.28,0,0,0-1.137.918,1.008,1.008,0,0,0-.069.52l.078.347a1.32,1.32,0,0,0,.391.553l.285.183a1.317,1.317,0,0,0,.683.122h.885a1.363,1.363,0,0,0,1.206-1.437Z" transform="translate(-205.913 -184.597)" fill="#ffd15f"/>
        <path id="Trazado_114267" data-name="Trazado 114267" d="M414.955,252.909a1.059,1.059,0,0,0-.313-.443l-.228-.146a1.054,1.054,0,0,0-.546-.1h-.442a1.092,1.092,0,0,0-.965,1.15l.063.278a1.059,1.059,0,0,0,.313.442l.229.147a1.058,1.058,0,0,0,.546.1h.442a1.09,1.09,0,0,0,.964-1.15Z" transform="translate(-212.676 -176.172)" fill="#fff"/>
        <path id="Trazado_114268" data-name="Trazado 114268" d="M413.042,265.822a1.059,1.059,0,0,0-.313-.443l-.228-.146a1.06,1.06,0,0,0-.546-.1h-.442a.8.8,0,0,0-.4.127.956.956,0,0,0-.51.608.8.8,0,0,0-.055.415l.063.278a1.053,1.053,0,0,0,.313.442l.228.147a1.06,1.06,0,0,0,.546.1h.442a1.09,1.09,0,0,0,.965-1.15Z" transform="translate(-211.924 -181.247)" fill="#fff"/>
        <path id="Trazado_114269" data-name="Trazado 114269" d="M310.665,141.786a1.363,1.363,0,0,0-1.279-.707l-.347.078a1.319,1.319,0,0,0-.554.391l-.183.285a1.323,1.323,0,0,0-.122.683v.442a1.473,1.473,0,0,0,.469.9,1.474,1.474,0,0,0,.968.305l.347-.078a1.329,1.329,0,0,0,.554-.391l.183-.286a1.323,1.323,0,0,0,.122-.683v-.442A1,1,0,0,0,310.665,141.786Z" transform="translate(-171.691 -132.486)" fill="#ffd15f"/>
        <path id="Trazado_114270" data-name="Trazado 114270" d="M289.745,141.217a1.479,1.479,0,0,0-1.334,1.59,1.5,1.5,0,0,0,1.59,1.335,1.48,1.48,0,0,0,1.335-1.591A1.5,1.5,0,0,0,289.745,141.217Z" transform="translate(-163.921 -132.544)" fill="#ffd15f"/>
        <path id="Trazado_114271" data-name="Trazado 114271" d="M303.77,128.4c-1.366,0-1.173,2.115.185,2.115S305.128,128.4,303.77,128.4Z" transform="translate(-169.593 -127.505)" fill="#fff"/>
        <path id="Trazado_114272" data-name="Trazado 114272" d="M300.854,167.768c-1.366,0-1.173,2.114.185,2.114S302.212,167.768,300.854,167.768Z" transform="translate(-168.447 -142.98)" fill="#fff"/>
      </g>
      <g id="Grupo_80553" data-name="Grupo 80553" transform="translate(15.813)">
        <g id="Grupo_80550" data-name="Grupo 80550" transform="translate(67.219)">
          <circle id="Elipse_4743" data-name="Elipse 4743" cx="26.601" cy="26.601" r="26.601" fill="#ffd15f" opacity="0.4" style="mix-blend-mode: hard-light;isolation: isolate"/>
          <circle id="Elipse_4744" data-name="Elipse 4744" cx="17.218" cy="17.218" r="17.218" transform="translate(9.382 13.948)" fill="#ffd15f" opacity="0.4" style="mix-blend-mode: hard-light;isolation: isolate"/>
          <circle id="Elipse_4745" data-name="Elipse 4745" cx="10.514" cy="10.514" r="10.514" transform="translate(15.719 25.414)" fill="#ffd15f" opacity="0.4" style="mix-blend-mode: hard-light;isolation: isolate"/>
        </g>
        <g id="Grupo_80551" data-name="Grupo 80551" transform="translate(126.339 22.359)">
          <circle id="Elipse_4746" data-name="Elipse 4746" cx="22.192" cy="22.192" r="22.192" transform="translate(0 0)" fill="#ffd15f" opacity="0.4" style="mix-blend-mode: hard-light;isolation: isolate"/>
          <circle id="Elipse_4747" data-name="Elipse 4747" cx="14.365" cy="14.365" r="14.365" transform="translate(7.827 11.637)" fill="#ffd15f" opacity="0.4" style="mix-blend-mode: hard-light;isolation: isolate"/>
          <circle id="Elipse_4748" data-name="Elipse 4748" cx="8.771" cy="8.771" r="8.771" transform="translate(13.114 21.202)" fill="#ffd15f" opacity="0.4" style="mix-blend-mode: hard-light;isolation: isolate"/>
        </g>
        <g id="Grupo_80552" data-name="Grupo 80552" transform="translate(0 33.026)">
          <circle id="Elipse_4749" data-name="Elipse 4749" cx="21.979" cy="21.979" r="21.979" fill="#ffd15f" opacity="0.4" style="mix-blend-mode: hard-light;isolation: isolate"/>
          <circle id="Elipse_4750" data-name="Elipse 4750" cx="14.227" cy="14.227" r="14.227" transform="translate(7.752 11.525)" fill="#ffd15f" opacity="0.4" style="mix-blend-mode: hard-light;isolation: isolate"/>
          <circle id="Elipse_4751" data-name="Elipse 4751" cx="8.687" cy="8.687" r="8.687" transform="translate(12.988 20.998)" fill="#ffd15f" opacity="0.4" style="mix-blend-mode: hard-light;isolation: isolate"/>
        </g>
      </g>
    </g>
  </g>
</svg>
