<svg xmlns="http://www.w3.org/2000/svg" xmlns:xlink="http://www.w3.org/1999/xlink" width="51" height="51" viewBox="0 0 51 51">
  <defs>
    <clipPath id="clip-path">
      <rect id="Rectángulo_33918" data-name="Rectángulo 33918" width="51" height="51" transform="translate(698 6905)" fill="#fff" stroke="#707070" stroke-width="1"/>
    </clipPath>
  </defs>
  <g id="Enmascarar_grupo_58" data-name="Enmascarar grupo 58" transform="translate(-698 -6905)" clip-path="url(#clip-path)">
    <g id="tierra" transform="translate(698 6905)">
      <g id="Grupo_80980" data-name="Grupo 80980">
        <path id="Trazado_116648" data-name="Trazado 116648" d="M41.107,29.693a4.861,4.861,0,0,0-4.145-4.948c-.073-3.6-2.123-6.7-6.4-6.6a4.5,4.5,0,0,0-1.688-3.264c-2.8-2.214-8.1-1.126-8.448,3.264a6.4,6.4,0,0,0-3.416.791,6.586,6.586,0,0,0-2.976,5.807,4.858,4.858,0,0,0-4.145,4.948A6.145,6.145,0,0,0,6.52,33.864,5.949,5.949,0,0,0,.749,38.911h49.5a5.952,5.952,0,0,0-5.771-5.047A6.153,6.153,0,0,0,41.107,29.693Z" fill="#aa6a51" fill-rule="evenodd"/>
      </g>
      <g id="Grupo_80981" data-name="Grupo 80981">
        <path id="Trazado_116649" data-name="Trazado 116649" d="M34.424,26.229a4.858,4.858,0,0,1,4.145,4.948,6.156,6.156,0,0,1,3.374,4.174,6.083,6.083,0,0,1,5.367,3.56h2.942a5.952,5.952,0,0,0-5.771-5.047,6.153,6.153,0,0,0-3.374-4.171,4.861,4.861,0,0,0-4.145-4.948c-.073-3.6-2.123-6.7-6.4-6.6a4.5,4.5,0,0,0-1.688-3.264,5.6,5.6,0,0,0-7.333.544,5.669,5.669,0,0,1,4.794.943,4.486,4.486,0,0,1,1.691,3.264c4.272-.1,6.322,3,6.392,6.6Z" fill="#935b44" fill-rule="evenodd"/>
      </g>
      <g id="Grupo_80982" data-name="Grupo 80982">
        <path id="Trazado_116650" data-name="Trazado 116650" d="M50.994,38.819a6.7,6.7,0,0,0-5.927-5.657,6.85,6.85,0,0,0-3.211-3.919,5.431,5.431,0,0,0-1.716-3.709l1.274-2.123h8.731a.747.747,0,0,0,0-1.494H40.992a.747.747,0,0,0-.641.363L38.928,24.65a5.926,5.926,0,0,0-1.248-.508,8.505,8.505,0,0,0-.944-3.369.747.747,0,1,0-1.314.71,7.255,7.255,0,0,1,.794,3.277.747.747,0,0,0,.618.72,4.476,4.476,0,0,1,1.324.452L35.17,30.911a.747.747,0,1,0,1.281.769l2.895-4.823a3.877,3.877,0,0,1,1.015,2.8.747.747,0,0,0,.421.711,5.442,5.442,0,0,1,2.97,3.659.747.747,0,0,0,.7.586,5.312,5.312,0,0,1,4.873,3.553h-21.8a.747.747,0,1,0,0,1.494H50.256a.782.782,0,0,0,.6-.3.759.759,0,0,0,.139-.542Z"/>
        <path id="Trazado_116651" data-name="Trazado 116651" d="M27.214,32.148a.747.747,0,0,0,.185-1.04A7.1,7.1,0,0,0,21.534,28.1a4.839,4.839,0,0,0-3.785,1.826A4.627,4.627,0,0,0,12.36,33.4a.747.747,0,1,0,1.454.342,3.134,3.134,0,0,1,4.02-2.254.747.747,0,0,0,.866-.319,3.357,3.357,0,0,1,2.875-1.576,5.656,5.656,0,0,1,4.6,2.369.747.747,0,0,0,1.04.185Z"/>
        <path id="Trazado_116652" data-name="Trazado 116652" d="M32.363,35.1a.747.747,0,0,0,.747-.747v-.006a.747.747,0,1,0-.747.753Z"/>
        <path id="Trazado_116653" data-name="Trazado 116653" d="M31.955,24.954a4.628,4.628,0,0,0-5.935-3.333.747.747,0,1,0,.46,1.421A3.134,3.134,0,0,1,30.5,25.3a.747.747,0,1,0,1.454-.342Z"/>
        <path id="Trazado_116654" data-name="Trazado 116654" d="M5.063,12.836H8.11a.747.747,0,1,0,0-1.494H5.063a.747.747,0,1,0,0,1.494Z"/>
        <path id="Trazado_116655" data-name="Trazado 116655" d="M11.712,12.836H15.14a.747.747,0,0,0,0-1.494H11.712a.747.747,0,0,0,0,1.494Z"/>
        <path id="Trazado_116656" data-name="Trazado 116656" d="M9.872,21.04a.747.747,0,0,0,0-1.494H5.063a.747.747,0,0,0,0,1.494Z"/>
        <path id="Trazado_116657" data-name="Trazado 116657" d="M.745,39.657H24.079a.747.747,0,0,0,0-1.494H1.675A5.309,5.309,0,0,1,6.549,34.61a.747.747,0,0,0,.7-.586,5.364,5.364,0,0,1,2.969-3.659.747.747,0,0,0,.421-.712,4.124,4.124,0,0,1,3.527-4.172.747.747,0,0,0,.619-.721,6.333,6.333,0,0,1,1.733-4.522c.038-.036.077-.07.116-.105l2.388,3.978a.747.747,0,1,0,1.281-.769L17.9,19.33a5.949,5.949,0,0,1,2.517-.436.75.75,0,0,0,.763-.687A4.043,4.043,0,0,1,25.5,14.518a4.043,4.043,0,0,1,4.323,3.689.747.747,0,0,0,.744.688h.018a5.884,5.884,0,0,1,2.725.531.747.747,0,0,0,.652-1.344,7.05,7.05,0,0,0-2.742-.672A5.586,5.586,0,0,0,25.5,13.024a5.585,5.585,0,0,0-5.721,4.385,7.141,7.141,0,0,0-2.655.634l-1.343-2.237a.747.747,0,0,0-.641-.363H5.063a.747.747,0,0,0,0,1.494h9.654l1.139,1.9c-.127.1-.251.21-.37.324a7.6,7.6,0,0,0-2.166,4.985,5.615,5.615,0,0,0-4.175,5.1,6.844,6.844,0,0,0-3.211,3.919A6.694,6.694,0,0,0,.007,38.82a.761.761,0,0,0,.207.639.739.739,0,0,0,.531.2Z"/>
        <path id="Trazado_116658" data-name="Trazado 116658" d="M47.1,19.308h3.047a.747.747,0,1,0,0-1.494H47.1a.747.747,0,1,0,0,1.494Z"/>
        <path id="Trazado_116659" data-name="Trazado 116659" d="M40.992,19.308h2.5a.747.747,0,1,0,0-1.494h-2.5a.747.747,0,0,0,0,1.494Z"/>
        <path id="Trazado_116660" data-name="Trazado 116660" d="M50.145,26.02H45.337a.747.747,0,0,0,0,1.494h4.808a.747.747,0,1,0,0-1.494Z"/>
      </g>
    </g>
  </g>
</svg>
