<svg xmlns="http://www.w3.org/2000/svg" xmlns:xlink="http://www.w3.org/1999/xlink" width="56" height="56" viewBox="0 0 56 56">
  <defs>
    <clipPath id="clip-path">
      <rect id="Rectángulo_34073" data-name="Rectángulo 34073" width="56" height="56" transform="translate(1196 2467)" fill="#fff" stroke="#707070" stroke-width="1"/>
    </clipPath>
  </defs>
  <g id="Enmascarar_grupo_89" data-name="Enmascarar grupo 89" transform="translate(-1196 -2467)" clip-path="url(#clip-path)">
    <g id="hipertension" transform="translate(1196 2467)">
      <g id="Grupo_84045" data-name="Grupo 84045">
        <path id="Trazado_117924" data-name="Trazado 117924" d="M30.536,44.269a4.9,4.9,0,0,1-5.072,0C18.714,40.183.82,28.125.82,15.125A14.323,14.323,0,0,1,28,8.831a14.323,14.323,0,0,1,27.18,6.294C55.18,28.125,37.286,40.183,30.536,44.269Z" fill="#fe646f"/>
      </g>
      <g id="Grupo_84046" data-name="Grupo 84046">
        <path id="Trazado_117925" data-name="Trazado 117925" d="M55.18,15.125a14.321,14.321,0,0,0-17.4-13.969,14.31,14.31,0,0,1,11.216,13.97,18.368,18.368,0,0,1-2.6,8.935,4.426,4.426,0,0,1-6.666,1.276,18.548,18.548,0,0,0-29.067,7.753,87.089,87.089,0,0,0,14.8,11.182,4.9,4.9,0,0,0,5.074,0C37.29,40.18,55.18,28.124,55.18,15.125Z" fill="#fd4755"/>
      </g>
      <g id="Grupo_84047" data-name="Grupo 84047">
        <circle id="Elipse_4824" data-name="Elipse 4824" cx="15.468" cy="15.468" r="15.468" transform="translate(12.532 24.243)" fill="#4f66d0"/>
      </g>
      <g id="Grupo_84048" data-name="Grupo 84048">
        <path id="Trazado_117926" data-name="Trazado 117926" d="M37.186,27.266A15.468,15.468,0,0,1,15.555,48.9,15.468,15.468,0,1,0,37.186,27.266Z" fill="#314dc9"/>
      </g>
      <g id="Grupo_84049" data-name="Grupo 84049">
        <path id="Trazado_117927" data-name="Trazado 117927" d="M28,31.315a8.406,8.406,0,0,0-8.4,8.4H16.068a11.933,11.933,0,0,0,23.865,0H36.4a8.407,8.407,0,0,0-8.4-8.4Z" fill="#e6f7fe"/>
      </g>
      <g id="Grupo_84052" data-name="Grupo 84052">
        <g id="Grupo_84050" data-name="Grupo 84050">
          <path id="Trazado_117928" data-name="Trazado 117928" d="M33.965,29.38,32.2,32.443a8.4,8.4,0,0,1,4.2,7.269h3.536A11.939,11.939,0,0,0,33.965,29.38Z" fill="#fe646f"/>
        </g>
        <g id="Grupo_84051" data-name="Grupo 84051">
          <path id="Trazado_117929" data-name="Trazado 117929" d="M22.035,29.38a11.94,11.94,0,0,0-5.968,10.332H19.6a8.4,8.4,0,0,1,4.2-7.269L22.035,29.38Z" fill="#9be69d"/>
        </g>
      </g>
      <g id="Grupo_84053" data-name="Grupo 84053">
        <path id="Trazado_117930" data-name="Trazado 117930" d="M28,27.779a11.859,11.859,0,0,0-5.965,1.6L23.8,32.443a8.367,8.367,0,0,1,8.393,0l1.768-3.063A11.86,11.86,0,0,0,28,27.779Z" fill="#ffe177"/>
      </g>
      <g id="Grupo_84054" data-name="Grupo 84054">
        <circle id="Elipse_4825" data-name="Elipse 4825" cx="1.436" cy="1.436" r="1.436" transform="translate(26.122 40.489) rotate(-66.922)" fill="#4f66d0"/>
      </g>
      <g id="Grupo_84055" data-name="Grupo 84055">
        <path id="Trazado_117931" data-name="Trazado 117931" d="M48.656,29.594a.82.82,0,0,0-1.158.068,55.451,55.451,0,0,1-4.268,4.273,16.288,16.288,0,0,0-30.458,0,46.032,46.032,0,0,1-7.485-8.4c-2.419-3.626-3.645-7.129-3.645-10.412a13.372,13.372,0,0,1,2.7-8.092.82.82,0,0,0-1.312-.985A15,15,0,0,0,0,15.125c0,3.612,1.319,7.422,3.921,11.322a48.626,48.626,0,0,0,8.3,9.2,16.288,16.288,0,1,0,31.55,0,58.245,58.245,0,0,0,4.949-4.895.82.82,0,0,0-.068-1.158ZM28,54.359A14.648,14.648,0,1,1,42.648,39.712,14.664,14.664,0,0,1,28,54.359Z"/>
        <path id="Trazado_117932" data-name="Trazado 117932" d="M40.875,0A15.224,15.224,0,0,0,28,7.135,15.224,15.224,0,0,0,15.125,0,14.977,14.977,0,0,0,5.866,3.166a.82.82,0,1,0,1.005,1.3,13.351,13.351,0,0,1,8.254-2.821A13.538,13.538,0,0,1,27.262,9.19a.82.82,0,0,0,1.476,0,13.5,13.5,0,0,1,25.621,5.936c0,3.65-1.513,7.561-4.5,11.624a.82.82,0,1,0,1.323.971C54.38,23.37,56,19.132,56,15.125A15.143,15.143,0,0,0,40.875,0Z"/>
        <path id="Trazado_117933" data-name="Trazado 117933" d="M28,26.959A12.756,12.756,0,0,0,15.907,43.766a.82.82,0,1,0,1.555-.522,11.047,11.047,0,0,1-.544-2.712H19.6a.82.82,0,0,0,.82-.82,7.577,7.577,0,0,1,15.153,0,.82.82,0,0,0,.82.82h2.685a11.109,11.109,0,0,1-19.959,5.857.82.82,0,0,0-1.31.988A12.751,12.751,0,1,0,28,26.959ZM18.82,38.891h-1.9a11.116,11.116,0,0,1,4.833-8.363l.951,1.648A9.267,9.267,0,0,0,18.82,38.891Zm5.3-7.538-.952-1.648a11.1,11.1,0,0,1,9.66,0l-.952,1.648a9.185,9.185,0,0,0-7.757,0Zm9.176.823.951-1.648a11.117,11.117,0,0,1,4.833,8.363h-1.9A9.267,9.267,0,0,0,33.3,32.176Z"/>
        <path id="Trazado_117934" data-name="Trazado 117934" d="M33.036,37.081a.82.82,0,0,0-1.107-.347L29.48,38.013a2.253,2.253,0,1,0,.776,1.7,2.281,2.281,0,0,0-.014-.246l2.446-1.278A.82.82,0,0,0,33.036,37.081ZM28,40.327a.616.616,0,1,1,.616-.616A.616.616,0,0,1,28,40.327Z"/>
        <path id="Trazado_117935" data-name="Trazado 117935" d="M26.232,47.288a.82.82,0,0,0,0,1.641h3.536a.82.82,0,0,0,0-1.641Z"/>
        <path id="Trazado_117936" data-name="Trazado 117936" d="M24.528,44.573a.82.82,0,0,0,.82.82h5.3a.82.82,0,0,0,0-1.641h-5.3a.82.82,0,0,0-.82.82Z"/>
        <path id="Trazado_117937" data-name="Trazado 117937" d="M32.2,18.656a.82.82,0,0,0,.775-.552l1.238-3.575,2.3,6.242a.82.82,0,0,0,1.569-.1l2.381-10.263L43.33,23.535a.82.82,0,0,0,.77.645h.031a.82.82,0,0,0,.786-.585l1.482-4.94h4.472a.82.82,0,0,0,0-1.641H45.788A.82.82,0,0,0,45,17.6l-.747,2.489L41.287,6.5a.82.82,0,0,0-.8-.645h-.005a.82.82,0,0,0-.8.635L37.1,17.628l-2.145-5.822a.82.82,0,0,0-1.545.015l-1.8,5.193H28a.82.82,0,0,0,0,1.641h4.2Z"/>
      </g>
    </g>
  </g>
</svg>
