<svg xmlns="http://www.w3.org/2000/svg" xmlns:xlink="http://www.w3.org/1999/xlink" width="51" height="51" viewBox="0 0 51 51">
  <defs>
    <clipPath id="clip-path">
      <rect id="Rectángulo_33923" data-name="Rectángulo 33923" width="51" height="51" transform="translate(319 7452)" fill="#fff" stroke="#707070" stroke-width="1"/>
    </clipPath>
  </defs>
  <g id="Enmascarar_grupo_60" data-name="Enmascarar grupo 60" transform="translate(-319 -7452)" clip-path="url(#clip-path)">
    <g id="tierra_1_" data-name="tierra (1)" transform="translate(319 7452)">
      <g id="Grupo_80987" data-name="Grupo 80987">
        <path id="Trazado_116672" data-name="Trazado 116672" d="M16.479,23.189,5.492,34.213a.44.44,0,0,0,.311.75H34.423a.989.989,0,0,0,.7-.291L46.11,23.648a.44.44,0,0,0-.311-.75H17.18a.989.989,0,0,0-.7.291Z" fill="#ffa78f"/>
        <circle id="Elipse_4784" data-name="Elipse 4784" cx="2.577" cy="2.577" r="2.577" transform="translate(22.415 26.84)" fill="#f89580"/>
        <path id="Trazado_116673" data-name="Trazado 116673" d="M45.8,22.9H42.611a.44.44,0,0,1,.311.75L31.936,34.672a.989.989,0,0,1-.7.291h3.187a.989.989,0,0,0,.7-.291L46.11,23.648a.44.44,0,0,0-.311-.75Z" fill="#f89580"/>
        <path id="Trazado_116674" data-name="Trazado 116674" d="M16.479,16.6,5.492,27.619a.44.44,0,0,0,.311.75H34.423a.989.989,0,0,0,.7-.291L46.11,17.055a.44.44,0,0,0-.311-.75H17.18a.989.989,0,0,0-.7.291Z" fill="#e8ad8c"/>
        <path id="Trazado_116675" data-name="Trazado 116675" d="M45.8,16.3H42.611a.44.44,0,0,1,.311.75L31.936,28.078a.989.989,0,0,1-.7.291h3.187a.989.989,0,0,0,.7-.291L46.11,17.055A.44.44,0,0,0,45.8,16.3Z" fill="#e19974"/>
        <path id="Trazado_116676" data-name="Trazado 116676" d="M16.479,10,5.492,21.026a.44.44,0,0,0,.311.75H34.423a.989.989,0,0,0,.7-.291L46.11,10.461a.44.44,0,0,0-.311-.75H17.18a.989.989,0,0,0-.7.291Z" fill="#68ca44"/>
        <path id="Trazado_116677" data-name="Trazado 116677" d="M45.8,9.712H42.611a.44.44,0,0,1,.311.75L31.936,21.485a.989.989,0,0,1-.7.291h3.187a.989.989,0,0,0,.7-.291L46.11,10.461a.44.44,0,0,0-.311-.75Z" fill="#4fc123"/>
        <circle id="Elipse_4785" data-name="Elipse 4785" cx="1.657" cy="1.657" r="1.657" transform="translate(3.345 1.034) rotate(-9.208)" fill="#2ed1e2"/>
        <circle id="Elipse_4786" data-name="Elipse 4786" cx="1.657" cy="1.657" r="1.657" transform="translate(41.644 38.7) rotate(-9.208)" fill="#ffe177"/>
        <path id="Trazado_116678" data-name="Trazado 116678" d="M16.88,31.663c-1.533,0-2.776.9-2.776,2a1.711,1.711,0,0,0,.66,1.3H19a1.711,1.711,0,0,0,.66-1.3C19.656,32.56,18.413,31.663,16.88,31.663Z" fill="#f89580"/>
      </g>
      <g id="Grupo_80988" data-name="Grupo 80988">
        <path id="Trazado_116679" data-name="Trazado 116679" d="M3.59,8.31h3.3a.747.747,0,0,0,0-1.494H3.59a.747.747,0,0,0,0,1.494Z"/>
        <path id="Trazado_116680" data-name="Trazado 116680" d="M3.59,11.295H9.1A.747.747,0,0,0,9.1,9.8H3.59a.747.747,0,1,0,0,1.494Z"/>
        <path id="Trazado_116681" data-name="Trazado 116681" d="M9.848,13.533a.747.747,0,0,0-.747-.747H3.59a.747.747,0,1,0,0,1.494H9.1A.747.747,0,0,0,9.848,13.533Z"/>
        <path id="Trazado_116682" data-name="Trazado 116682" d="M43.556,42.47a2.4,2.4,0,1,0-2.285-3.151H36.147l-3.61-3.61h1.886a1.746,1.746,0,0,0,1.229-.51l2.234-2.241A.747.747,0,0,0,36.828,31.9l-2.235,2.242a.239.239,0,0,1-.171.071h-3.38l-1.821-1.821a.747.747,0,0,0-1.057,1.056l.765.765h-8.6a2.217,2.217,0,0,0,.07-.549c0-1.542-1.548-2.75-3.523-2.75s-3.523,1.208-3.523,2.75a2.217,2.217,0,0,0,.07.549H6.545l5.082-5.1H21.682c-.009.1-.014.2-.014.3a3.323,3.323,0,1,0,6.647,0c0-.1-.005-.2-.014-.3h6.122a1.746,1.746,0,0,0,1.229-.51l2.032-2.039.019-.017.018-.02c3.228-3.352.277-.278,2.874-2.884h4.462l-5.769,5.789a.747.747,0,0,0,1.058,1.055l6.292-6.314a1.187,1.187,0,0,0-.84-2.023H42.085l.788-.79.014-.012.013-.015,3.74-3.753a1.187,1.187,0,0,0-.84-2.023H42.086l4.554-4.569A1.187,1.187,0,0,0,45.8,8.965H33.551a.747.747,0,0,0,0,1.494H45.058l-10.464,10.5a.241.241,0,0,1-.171.071H6.544l10.464-10.5a.244.244,0,0,1,.171-.071h2.982l2.042,1.83a.747.747,0,0,0,1-1.113l-.8-.717h7.664a.747.747,0,1,0,0-1.494H20.733L12.788,1.847a.747.747,0,0,0-.5-.191H7.531a2.4,2.4,0,1,0,0,1.494H12l6.489,5.814H17.18a1.748,1.748,0,0,0-1.23.51L4.963,20.5A1.187,1.187,0,0,0,5.8,22.523H9.517C8.268,23.776,5.952,26.1,4.964,27.091A1.186,1.186,0,0,0,5.8,29.116H9.517L4.964,33.685A1.186,1.186,0,0,0,5.8,35.709H30.424l4.885,4.885a.747.747,0,0,0,.528.219h5.434a2.408,2.408,0,0,0,2.284,1.657ZM5.246,3.314a.91.91,0,1,1,.91-.91A.911.911,0,0,1,5.246,3.314Zm11.8,19.209,5.1,5.1h-3.08l-5.1-5.1Zm5.193,0,5.1,5.1h-3.08l-5.1-5.1Zm5.192,0,5.1,5.1h-3.08l-5.1-5.1Zm-.607,6.893a1.829,1.829,0,1,1-3.632-.3h3.605A1.838,1.838,0,0,1,26.821,29.416Zm7.773-1.865-.013.011-5.04-5.039h3.08l3.5,3.5Zm4.474-8.965L41.3,20.82l-1.536,1.541-2.234-2.234Zm5.99-1.534-2.7,2.71-2.234-2.235.474-.476Zm-8.581,4.134,2.234,2.234-1.537,1.542L34.709,22.5a1.721,1.721,0,0,0,.944-.485ZM11.85,22.523l5.1,5.1h-3.08L10.2,23.954l1.426-1.43h.224Zm-2.7,2.489,2.61,2.61H6.545Zm5.7,8.654c0-.669.948-1.256,2.029-1.256s2.029.587,2.029,1.256a.862.862,0,0,1-.221.549H15.071a.861.861,0,0,1-.221-.549Zm28.705,5.49a.91.91,0,1,1-.91.91A.911.911,0,0,1,43.556,39.156Z"/>
        <path id="Trazado_116683" data-name="Trazado 116683" d="M41.9,45.03h3.3a.747.747,0,0,0,0-1.494H41.9a.747.747,0,0,0,0,1.494Z"/>
        <path id="Trazado_116684" data-name="Trazado 116684" d="M41.152,47.268a.747.747,0,0,0,.747.747H47.41a.747.747,0,0,0,0-1.494H41.9A.747.747,0,0,0,41.152,47.268Z"/>
        <path id="Trazado_116685" data-name="Trazado 116685" d="M47.41,49.506H41.9A.747.747,0,0,0,41.9,51H47.41a.747.747,0,0,0,0-1.494Z"/>
      </g>
    </g>
  </g>
</svg>
