<svg xmlns="http://www.w3.org/2000/svg" xmlns:xlink="http://www.w3.org/1999/xlink" width="56" height="56" viewBox="0 0 56 56">
  <defs>
    <clipPath id="clip-path">
      <rect id="Rectángulo_34077" data-name="Rectángulo 34077" width="56" height="56" transform="translate(1009 2584)" fill="#fff" stroke="#707070" stroke-width="1"/>
    </clipPath>
  </defs>
  <g id="Enmascarar_grupo_93" data-name="Enmascarar grupo 93" transform="translate(-1009 -2584)" clip-path="url(#clip-path)">
    <g id="caries" transform="translate(1009 2584)">
      <path id="Trazado_118003" data-name="Trazado 118003" d="M46.409,42.012a1.808,1.808,0,0,0-1.753-1.369H11.345a1.806,1.806,0,0,0-1.752,1.369L6.32,55.1H49.68Z" fill="#fca7ca"/>
      <path id="Trazado_118004" data-name="Trazado 118004" d="M6.32,55.1H49.68l-.9-3.613H7.224Z" fill="#fd79a8"/>
      <path id="Trazado_118005" data-name="Trazado 118005" d="M36.678,11.737h0a8.776,8.776,0,0,0-4.9,1.559,6.779,6.779,0,0,1-7.557,0,8.776,8.776,0,0,0-4.9-1.559h0a8.484,8.484,0,0,0-8.485,8.485v2.6a22.1,22.1,0,0,0,5,13.993h0a22.1,22.1,0,0,1,4.335,8.634l1.126,4.5a2.028,2.028,0,0,0,1.968,1.537h0a2.028,2.028,0,0,0,2.029-2.028V37.934A2.71,2.71,0,0,1,28,35.224h0a2.71,2.71,0,0,1,2.71,2.71V49.455a2.029,2.029,0,0,0,2.029,2.029h0a2.028,2.028,0,0,0,1.968-1.537l1.126-4.5a22.1,22.1,0,0,1,4.335-8.634h0a22.1,22.1,0,0,0,5-13.994v-2.6A8.484,8.484,0,0,0,36.678,11.737Z" fill="#ececec"/>
      <path id="Trazado_118006" data-name="Trazado 118006" d="M28,31.61a30.032,30.032,0,0,1-16.79-4.8,22.1,22.1,0,0,0,4.622,10,22.1,22.1,0,0,1,4.335,8.634l1.126,4.5a2.029,2.029,0,0,0,4-.491V37.934a2.71,2.71,0,0,1,5.42,0V49.455a2.029,2.029,0,0,0,4,.492l1.126-4.5a22.1,22.1,0,0,1,4.335-8.634,22.1,22.1,0,0,0,4.622-10A30.039,30.039,0,0,1,28,31.61Z" fill="#b6c1ce"/>
      <g id="Grupo_84062" data-name="Grupo 84062">
        <path id="Trazado_118007" data-name="Trazado 118007" d="M40.646,21.674v2.71L38.84,26.191V29.8h2.71l1.783,1.783a22.068,22.068,0,0,0,1.83-8.768v-2.6c0-.118-.013-.234-.018-.351-.3,0-.585,0-.885,0Z" fill="#b27946"/>
        <path id="Trazado_118008" data-name="Trazado 118008" d="M15.354,22.577h2.71l.9,1.807h1.807v2.71l-1.807.9V29.8h-2.71v-2.71l-1.807-.9Z" fill="#b27946"/>
      </g>
      <path id="Trazado_118009" data-name="Trazado 118009" d="M47.285,41.793a2.706,2.706,0,0,0-2.63-2.052h-5.45a21.062,21.062,0,0,1,1.661-2.356,23.062,23.062,0,0,0,5.2-14.565v-2.6a9.4,9.4,0,0,0-9.388-9.388,9.673,9.673,0,0,0-5.4,1.713,5.872,5.872,0,0,1-6.547,0,9.673,9.673,0,0,0-5.4-1.713,9.4,9.4,0,0,0-9.388,9.388v2.6a23.065,23.065,0,0,0,5.2,14.566,21.062,21.062,0,0,1,1.661,2.356h-5.45a2.708,2.708,0,0,0-2.63,2.052L5.163,56H50.837ZM43.007,29.984,41.924,28.9H39.743V26.565l1.807-1.807V22.286L44.26,21.2v1.617A21.2,21.2,0,0,1,43.007,29.984ZM11.74,22.819v-2.6a7.59,7.59,0,0,1,7.582-7.582,7.873,7.873,0,0,1,4.395,1.4,7.683,7.683,0,0,0,8.568,0,7.868,7.868,0,0,1,4.394-1.4,7.588,7.588,0,0,1,7.516,6.64l-4.452,1.781V24.01l-1.807,1.807v4.891h3.239l1.081,1.081a21.138,21.138,0,0,1-2.789,4.452,23.161,23.161,0,0,0-4.513,8.986l-1.126,4.5a1.125,1.125,0,0,1-2.217-.272V37.934a3.613,3.613,0,0,0-7.227,0V49.455a1.126,1.126,0,0,1-2.218.273l-1.126-4.5a23.136,23.136,0,0,0-4.513-8.986A21.26,21.26,0,0,1,11.74,22.819ZM10.468,42.232a.9.9,0,0,1,.876-.685h6.441a21.17,21.17,0,0,1,1.507,4.118l1.126,4.5a2.932,2.932,0,0,0,5.777-.711V37.934a1.807,1.807,0,0,1,3.613,0V49.455a2.932,2.932,0,0,0,5.777.711l1.126-4.5a21.17,21.17,0,0,1,1.507-4.118h6.441a.9.9,0,0,1,.876.685l2.99,11.962H7.478Z"/>
      <path id="Trazado_118010" data-name="Trazado 118010" d="M48.776,22.577a20.61,20.61,0,0,1-1.883,8.656l1.641.753A22.655,22.655,0,0,0,49.3,15.05l-1.7.6A20.716,20.716,0,0,1,48.776,22.577Z"/>
      <path id="Trazado_118011" data-name="Trazado 118011" d="M34.926,2.983l.6-1.7a22.777,22.777,0,0,0-15.055,0l.6,1.7A20.968,20.968,0,0,1,34.926,2.983Z"/>
      <path id="Trazado_118012" data-name="Trazado 118012" d="M9.107,31.234a20.852,20.852,0,0,1-.7-15.582l-1.7-.6a22.655,22.655,0,0,0,.763,16.937Z"/>
      <path id="Trazado_118013" data-name="Trazado 118013" d="M36.631,17.909l-1-1.506c-.026.017-2.6,1.658-7.633,1.658s-7.607-1.64-7.633-1.658l-1,1.506c.12.079,3,1.958,8.631,1.958S36.511,17.988,36.631,17.909Z"/>
      <path id="Trazado_118014" data-name="Trazado 118014" d="M21.677,23.481H19.525l-.9-1.807H14.648l-1.25,5,1.956.977v3.055H19.87V28.555l1.807-.9ZM19.87,26.536l-1.807.9V28.9h-.9V26.536L15.5,25.707l.556-2.227h1.446l.9,1.807H19.87Z"/>
      <rect id="Rectángulo_34080" data-name="Rectángulo 34080" width="1.807" height="1.807" transform="translate(25.29 25.287)"/>
      <rect id="Rectángulo_34081" data-name="Rectángulo 34081" width="1.807" height="1.807" transform="translate(32.517 29.804)"/>
      <rect id="Rectángulo_34082" data-name="Rectángulo 34082" width="1.807" height="1.807" transform="translate(18.394 4.133) rotate(150.007)"/>
      <rect id="Rectángulo_34083" data-name="Rectángulo 34083" width="1.807" height="1.807" transform="translate(13.948 7.247) rotate(135)"/>
      <rect id="Rectángulo_34084" data-name="Rectángulo 34084" width="1.807" height="1.807" transform="translate(10.459 11.406) rotate(119.993)"/>
      <rect id="Rectángulo_34085" data-name="Rectángulo 34085" width="1.807" height="1.807" transform="translate(48.009 12.067) rotate(150.007)"/>
      <rect id="Rectángulo_34086" data-name="Rectángulo 34086" width="1.807" height="1.807" transform="translate(44.608 7.246) rotate(135)"/>
      <rect id="Rectángulo_34087" data-name="Rectángulo 34087" width="1.807" height="1.807" transform="translate(40.073 3.47) rotate(119.993)"/>
    </g>
  </g>
</svg>
