<svg xmlns="http://www.w3.org/2000/svg" xmlns:xlink="http://www.w3.org/1999/xlink" width="56" height="56" viewBox="0 0 56 56">
  <defs>
    <clipPath id="clip-path">
      <rect id="Rectángulo_34076" data-name="Rectángulo 34076" width="56" height="56" transform="translate(760 2584)" fill="#fff" stroke="#707070" stroke-width="1"/>
    </clipPath>
  </defs>
  <g id="Enmascarar_grupo_92" data-name="Enmascarar grupo 92" transform="translate(-760 -2584)" clip-path="url(#clip-path)">
    <g id="gordo" transform="translate(760 2584)">
      <path id="Trazado_117992" data-name="Trazado 117992" d="M55.067,34.476H14a20.472,20.472,0,0,0,6.533,15.014v5.52H50.4v-7.5a20.445,20.445,0,0,0,4.667-13.031Z" fill="#1d5c88"/>
      <path id="Trazado_117993" data-name="Trazado 117993" d="M40.133,47.542A6.533,6.533,0,0,1,33.6,41.009v-.933h6.533Z" fill="#2bb3ce"/>
      <path id="Trazado_117994" data-name="Trazado 117994" d="M27.067,34.476v5.6h27.22a20.5,20.5,0,0,0,.783-5.6Z" fill="#9a615b"/>
      <path id="Trazado_117995" data-name="Trazado 117995" d="M43.869,34.476H47.6v8.4H43.869Z" fill="#1d5c88"/>
      <path id="Trazado_117996" data-name="Trazado 117996" d="M39.2,40.076h1.867V55.009H39.2Z" fill="#1473a8"/>
      <path id="Trazado_117997" data-name="Trazado 117997" d="M55.067.876H22.4A21.467,21.467,0,0,0,.933,22.342v.933a19.592,19.592,0,0,0,35.672,11.2H55.067Z" fill="#f8c09c"/>
      <path id="Trazado_117998" data-name="Trazado 117998" d="M28,24.209a22.306,22.306,0,0,0,15.773,6.533l11.293-.067V.876H22.4a21.467,21.467,0,0,0-20.952,16.8H12.227A22.306,22.306,0,0,1,28,24.209Z" fill="#7d8f9f"/>
      <path id="Trazado_117999" data-name="Trazado 117999" d="M6.067,28.876V27.009a1.4,1.4,0,1,0,0-2.8V22.342a3.267,3.267,0,0,1,0,6.533Z" fill="#ef937d"/>
      <path id="Trazado_118000" data-name="Trazado 118000" d="M.936,11.142H55.069v6.533H.936Z" fill="#ffd884"/>
      <path id="Trazado_118001" data-name="Trazado 118001" d="M6.067,22.4v1.867a1.4,1.4,0,0,1,0,2.8v1.867a3.267,3.267,0,0,0,0-6.533Z"/>
      <path id="Trazado_118002" data-name="Trazado 118002" d="M55.067,0H22.4A22.252,22.252,0,0,0,3.583,10.267H.933A.933.933,0,0,0,0,11.2v6.533a.915.915,0,0,0,.354.714A22.645,22.645,0,0,0,0,22.4v.933A20.567,20.567,0,0,0,14.84,43.057a21.665,21.665,0,0,0,4.76,6.892v5.118a.933.933,0,0,0,.933.933H50.4a.933.933,0,0,0,.933-.933V47.9A21.512,21.512,0,0,0,56,34.533V.933A.933.933,0,0,0,55.067,0Zm-.933,18.667v11.2H43.773a21.233,21.233,0,0,1-15.111-6.26,23.2,23.2,0,0,0-7.289-4.94ZM22.4,1.867H54.133v8.4H5.845A20.383,20.383,0,0,1,22.4,1.867ZM1.867,12.133H54.133V16.8H52.267V14H50.4v2.8H48.533V14.933H46.667V16.8H44.8V14.933H42.933V16.8H41.067V14.933H39.2V16.8H37.333V14H35.467v2.8H33.6V14.933H31.733V16.8H29.867V14.933H28V16.8H26.133V14.933H24.267V16.8H22.4V14H20.533v2.8H18.667V14.933H16.8V16.8H14.933V14.933H13.067V16.8H11.2V14.933H9.333V16.8H7.467V14H5.6v2.8H1.867Zm0,11.2V22.4a20.7,20.7,0,0,1,.345-3.733H12.227a21.233,21.233,0,0,1,15.12,6.26,23.086,23.086,0,0,0,16.427,6.807h10.36V33.6H36.4v.025a.933.933,0,0,0-.56.373A18.658,18.658,0,0,1,1.867,23.333ZM53.555,39.2H48.533V35.467h5.578a19.525,19.525,0,0,1-.556,3.733ZM39.2,46.583a5.606,5.606,0,0,1-4.667-5.516H39.2ZM33.54,39.2a20.6,20.6,0,0,0,3.547-3.733h5.846V39.2ZM44.8,35.467h1.867V42H44.8Zm-23.627,13.4a19.777,19.777,0,0,1-4.02-5.278,20.425,20.425,0,0,0,13.714-2.52h1.8a7.474,7.474,0,0,0,6.533,7.4v5.664H21.467V49.548A.933.933,0,0,0,21.173,48.865Zm28.509-1.891a.933.933,0,0,0-.212.593v6.567h-8.4V41.067h1.867v1.867a.933.933,0,0,0,.933.933H47.6a.933.933,0,0,0,.933-.933V41.067H53a19.559,19.559,0,0,1-3.314,5.907Z"/>
    </g>
  </g>
</svg>
