<svg xmlns="http://www.w3.org/2000/svg" xmlns:xlink="http://www.w3.org/1999/xlink" width="56" height="56" viewBox="0 0 56 56">
  <defs>
    <clipPath id="clip-path">
      <rect id="Rectángulo_34071" data-name="Rectángulo 34071" width="56" height="56" transform="translate(696 2467)" fill="#fff" stroke="#707070" stroke-width="1"/>
    </clipPath>
  </defs>
  <g id="Enmascarar_grupo_87" data-name="Enmascarar grupo 87" transform="translate(-696 -2467)" clip-path="url(#clip-path)">
    <g id="mareado" transform="translate(696 2467)">
      <path id="Trazado_117884" data-name="Trazado 117884" d="M38.536,20.95h-.331l.5-6.786h1.8a2.286,2.286,0,0,1,2.286,2.286v.25A4.25,4.25,0,0,1,38.536,20.95Z" fill="#e2a770"/>
      <path id="Trazado_117885" data-name="Trazado 117885" d="M17.844,20.95h.331l-.5-6.786h-1.8a2.286,2.286,0,0,0-2.286,2.286v.25A4.25,4.25,0,0,0,17.844,20.95Z" fill="#f1b986"/>
      <path id="Trazado_117886" data-name="Trazado 117886" d="M38.432,17.876l-2.238-2.238A4.012,4.012,0,0,1,35.019,12.8V9.451a.2.2,0,0,0-.3-.167,13.433,13.433,0,0,1-6.426,1.3c-2.912,0-5.428-.581-6.616-1.423a.2.2,0,0,0-.31.163V12.8a4.012,4.012,0,0,1-1.175,2.837l-2.238,2.238.315,4.274c.383,5.2,6.793,8.8,9.927,8.8s9.544-3.6,9.927-8.8C38.117,22.15,38.432,17.876,38.432,17.876Z" fill="#f1d0a5"/>
      <path id="Trazado_117887" data-name="Trazado 117887" d="M36.194,15.637A4.012,4.012,0,0,1,35.019,12.8V9.451a.2.2,0,0,0-.3-.167,10.5,10.5,0,0,1-4.071,1.166v.164a4.012,4.012,0,0,0,1.175,2.837l.733.733A4.648,4.648,0,0,1,33.9,17.811l-.158,2.152c-.383,5.2-6.793,8.8-9.927,8.8a6.341,6.341,0,0,1-1.575-.23,11.188,11.188,0,0,0,5.95,2.417c3.134,0,9.544-3.6,9.927-8.8l.315-4.274-2.238-2.238Z" fill="#f1b986"/>
      <path id="Trazado_117888" data-name="Trazado 117888" d="M28.308.821A10.672,10.672,0,0,0,17.545,12.4l.4,5.473,2.238-2.238A4.012,4.012,0,0,0,21.362,12.8V9.322a.2.2,0,0,1,.31-.163c1.188.842,3.7,1.423,6.616,1.423a13.435,13.435,0,0,0,6.426-1.3.2.2,0,0,1,.3.167V12.8a4.012,4.012,0,0,0,1.175,2.837l2.238,2.238.4-5.486A10.744,10.744,0,0,0,28.308.821Z" fill="#d09080"/>
      <path id="Trazado_117889" data-name="Trazado 117889" d="M28.194,41.285a7.878,7.878,0,0,0,7.878-7.772h-.137a2.3,2.3,0,0,1-2.3-2.3V28.9a10.775,10.775,0,0,1-5.44,2.052A10.774,10.774,0,0,1,22.75,28.9v2.308a2.3,2.3,0,0,1-2.3,2.3h-.13a7.878,7.878,0,0,0,7.877,7.772Z" fill="#e2a770"/>
      <path id="Trazado_117890" data-name="Trazado 117890" d="M28.194,44.02A10.625,10.625,0,0,0,38.806,33.513H36.071a7.878,7.878,0,0,1-15.755,0H17.582A10.625,10.625,0,0,0,28.194,44.02Z" fill="#f1f1f4"/>
      <path id="Trazado_117891" data-name="Trazado 117891" d="M48,48.711v-7.5a7.7,7.7,0,0,0-7.7-7.7H38.806a10.613,10.613,0,0,1-21.224,0h-1.5a7.7,7.7,0,0,0-7.7,7.7v7.5h6.1V55.18H41.9V48.711Z" fill="#bcdf95"/>
      <path id="Trazado_117892" data-name="Trazado 117892" d="M8.385,48.711v5.844a.625.625,0,0,0,.625.625h5.475V48.711Z" fill="#f1d0a5"/>
      <path id="Trazado_117893" data-name="Trazado 117893" d="M8.385,52.992v1.563a.625.625,0,0,0,.625.625h5.475V52.992Z" fill="#f1b986"/>
      <path id="Trazado_117894" data-name="Trazado 117894" d="M41.9,48.711V55.18h5.468A.625.625,0,0,0,48,54.555V48.711Z" fill="#f1d0a5"/>
      <path id="Trazado_117895" data-name="Trazado 117895" d="M43.516,48.711A5.332,5.332,0,0,1,41.9,51.577v3.6h5.468A.625.625,0,0,0,48,54.555V48.711Z" fill="#f1b986"/>
      <path id="Trazado_117896" data-name="Trazado 117896" d="M38.282,52.992h-23.8V55.18H41.9v-3.6A5.32,5.32,0,0,1,38.282,52.992Z" fill="#aad880"/>
      <path id="Trazado_117897" data-name="Trazado 117897" d="M41.374,33.588a7.672,7.672,0,0,1,2.246,5.434v8.632a5.367,5.367,0,0,1-.1,1.057H48v-7.5A7.7,7.7,0,0,0,41.374,33.588Z" fill="#aad880"/>
      <path id="Trazado_117898" data-name="Trazado 117898" d="M28.194,21.771a2.661,2.661,0,0,0,2.658-2.658V15.886a.82.82,0,0,0-1.641,0v3.226a1.019,1.019,0,0,1-1.018,1.018.82.82,0,1,0,0,1.641Z"/>
      <path id="Trazado_117899" data-name="Trazado 117899" d="M24.986,26.828a.82.82,0,0,0,1.095-.384,2.408,2.408,0,0,1,4.422-.057.82.82,0,1,0,1.462-.743,4.046,4.046,0,0,0-7.363.09.821.821,0,0,0,.384,1.095Z"/>
      <path id="Trazado_117900" data-name="Trazado 117900" d="M14.655,11.349a.82.82,0,1,0,.332-1.607c-3.868-.8-4.448-1.625-4.512-1.743.045-.084.344-.52,1.921-1.061a.82.82,0,0,0-.532-1.552C9.821,6.086,8.829,6.941,8.829,8,8.829,9.464,10.68,10.528,14.655,11.349Z"/>
      <path id="Trazado_117901" data-name="Trazado 117901" d="M50.421,3.272l-.613-.354.613-.354a.82.82,0,0,0-.82-1.421l-.613.354V.82a.82.82,0,1,0-1.641,0V1.5l-.586-.338a.82.82,0,0,0-.82,1.421l.586.338-.586.338a.82.82,0,0,0,.82,1.421l.586-.338v.708a.82.82,0,1,0,1.641,0V4.338l.613.354a.82.82,0,0,0,.82-1.421Z"/>
      <path id="Trazado_117902" data-name="Trazado 117902" d="M8.626,17V16.29l.613.354a.82.82,0,1,0,.82-1.421l-.613-.354.613-.354a.82.82,0,1,0-.82-1.421l-.613.354v-.676a.82.82,0,1,0-1.641,0v.676L6.4,13.11a.82.82,0,0,0-.82,1.421l.586.338-.586.338a.82.82,0,1,0,.82,1.421l.586-.338V17a.82.82,0,1,0,1.641,0Z"/>
      <path id="Trazado_117903" data-name="Trazado 117903" d="M40.3,32.693H35.934a1.485,1.485,0,0,1-1.484-1.484V29.326c2.354-1.715,4.269-4.193,4.485-7.116l.034-.458A5.077,5.077,0,0,0,43.606,16.7v-.25A3.109,3.109,0,0,0,40.5,13.345h-.912l.066-.895a11.7,11.7,0,0,0-1.577-6.759c1.026.127,1.994.275,2.889.443C44.858,6.864,45.99,7.726,46.1,8c-.06.112-.641.968-4.689,1.781a.82.82,0,0,0,.323,1.609c4.1-.823,6.011-1.9,6.011-3.387S45.8,5.415,41.626,4.59c-1.444-.285-3.079-.519-4.847-.7a11.466,11.466,0,0,0-17.246.028c-1.355.141-2.629.315-3.791.52a.82.82,0,1,0,.285,1.616c.7-.124,1.447-.236,2.228-.336a11.806,11.806,0,0,0-1.527,6.741l.065.882H15.88a3.109,3.109,0,0,0-3.106,3.106v.25a5.077,5.077,0,0,0,4.637,5.052l.034.458c.215,2.924,2.129,5.4,4.485,7.116v1.883a1.485,1.485,0,0,1-1.484,1.484H16.081a8.526,8.526,0,0,0-8.517,8.517v2.214a.82.82,0,0,0,1.641,0V41.209a6.884,6.884,0,0,1,6.876-6.876H16.8a11.433,11.433,0,0,0,22.791,0h.71a6.884,6.884,0,0,1,6.876,6.876V47.89H42.716V44.909a.82.82,0,1,0-1.641,0v9.45H15.305v-9.45a.82.82,0,0,0-1.641,0V47.89H9.205v-.639a.82.82,0,1,0-1.641,0v7.3A1.447,1.447,0,0,0,9.009,56H47.371a1.447,1.447,0,0,0,1.445-1.445V41.21A8.526,8.526,0,0,0,40.3,32.693Zm.2-17.708a1.467,1.467,0,0,1,1.465,1.465v.25a3.435,3.435,0,0,1-2.874,3.385l.376-5.1H40.5ZM28.19,1.641a9.669,9.669,0,0,1,5.979,2.04A93.244,93.244,0,0,0,22.136,3.7a9.736,9.736,0,0,1,6.054-2.06Zm7.758,3.823a10.054,10.054,0,0,1,2.07,6.865c-.336,4.556-.043.587-.272,3.7l-.972-.972a3.17,3.17,0,0,1-.935-2.256V9.451a1.019,1.019,0,0,0-1.556-.865,12.923,12.923,0,0,1-6,1.176c-3,0-5.248-.639-6.141-1.272a1.018,1.018,0,0,0-1.605.832V12.8a3.17,3.17,0,0,1-.935,2.256l-.972.972-.272-3.687a10.118,10.118,0,0,1,2.011-6.854,89.55,89.55,0,0,1,15.574-.024ZM14.415,16.7v-.25a1.467,1.467,0,0,1,1.465-1.465h1.033l.376,5.1A3.435,3.435,0,0,1,14.415,16.7Zm4.667,5.389-.287-3.9,1.973-1.973A4.8,4.8,0,0,0,22.182,12.8V10.369a18.7,18.7,0,0,0,12.016.084V12.8a4.8,4.8,0,0,0,1.415,3.417l1.973,1.973-.287,3.9c-.317,4.3-5.891,8.043-9.109,8.043-3.008,0-8.777-3.535-9.109-8.043ZM28.194,43.2a9.828,9.828,0,0,1-9.749-8.866h1.1a8.7,8.7,0,0,0,13.744,6.125.82.82,0,1,0-.962-1.329,7.006,7.006,0,0,1-4.132,1.336,7.089,7.089,0,0,1-7.008-6.22,3.13,3.13,0,0,0,2.385-3.036v-.844a10.329,10.329,0,0,0,4.62,1.408,10.329,10.329,0,0,0,4.62-1.408v.844A3.13,3.13,0,0,0,35.2,34.247a6.963,6.963,0,0,1-.675,2.277A.82.82,0,0,0,36,37.25a8.593,8.593,0,0,0,.845-2.916h1.1A9.827,9.827,0,0,1,28.194,43.2ZM9.205,49.531h4.459v4.828H9.205Zm33.518,4.828V49.531h4.452v4.828Z"/>
    </g>
  </g>
</svg>
