<svg xmlns="http://www.w3.org/2000/svg" xmlns:xlink="http://www.w3.org/1999/xlink" width="51" height="51" viewBox="0 0 51 51">
  <defs>
    <clipPath id="clip-path">
      <rect id="Rectángulo_33926" data-name="Rectángulo 33926" width="51" height="51" transform="translate(854 7303)" fill="#fff" stroke="#707070" stroke-width="1"/>
    </clipPath>
  </defs>
  <g id="Enmascarar_grupo_61" data-name="Enmascarar grupo 61" transform="translate(-854 -7303)" clip-path="url(#clip-path)">
    <g id="suelo" transform="translate(852.3 7301.3)">
      <path id="Trazado_116686" data-name="Trazado 116686" d="M51.85,2.55v49.3H2.55V3.4L5.1,2.55,9.35,5.1l6.8-2.55h3.4l5.1,2.55,5.1-2.55h3.4l5.1,1.7,3.4-1.7,3.4,1.7Z" fill="#db8638"/>
      <path id="Trazado_116687" data-name="Trazado 116687" d="M51.85,16.15v35.7H2.55V15.3H5.1l2.55,2.55,4.25-1.7,2.55,1.7,5.1-3.4h1.7l3.4,3.4H27.2l1.7-1.7h1.7l1.7-1.7h7.65l2.55,1.7Z" fill="#c47220"/>
      <path id="Trazado_116688" data-name="Trazado 116688" d="M51.85,34V51.85H2.55V33.15L5.1,30.6H8.5L17,34l2.55-2.55H22.1l1.7,1.7h6.8l4.25-1.7H39.1L46.75,34Z" fill="#b66514"/>
      <g id="Grupo_80989" data-name="Grupo 80989">
        <path id="Trazado_116689" data-name="Trazado 116689" d="M6.8,42.5l2.55-2.55h1.7l1.7,1.7H15.3V44.2l-4.25,3.4H9.35Z" fill="#a2590d"/>
        <path id="Trazado_116690" data-name="Trazado 116690" d="M19.55,40.8V37.4l1.7-1.7,2.55,2.55Z" fill="#a2590d"/>
        <path id="Trazado_116691" data-name="Trazado 116691" d="M22.95,43.35l1.7,5.1,6.8-2.55-1.7-3.4Z" fill="#a2590d"/>
        <path id="Trazado_116692" data-name="Trazado 116692" d="M32.3,39.1l2.55,2.55,2.55-1.7V39.1l-4.25-1.7Z" fill="#a2590d"/>
        <path id="Trazado_116693" data-name="Trazado 116693" d="M43.35,44.2l5.1-2.55v5.1l-2.55.85Z" fill="#a2590d"/>
      </g>
      <path id="Trazado_116694" data-name="Trazado 116694" d="M52.373,1.88a.85.85,0,0,0-.729-.155L45.149,3.349,42.03,1.79a.85.85,0,0,0-.76,0L38.185,3.332,33.419,1.744A.851.851,0,0,0,33.15,1.7h-3.4a.85.85,0,0,0-.38.09L24.65,4.15,19.93,1.79a.85.85,0,0,0-.38-.09h-3.4a.85.85,0,0,0-.3.054L9.436,4.16l-3.9-2.339a.85.85,0,0,0-.706-.078l-2.55.85A.85.85,0,0,0,1.7,3.4V51.85a.85.85,0,0,0,.85.85h49.3a.85.85,0,0,0,.85-.85V2.55a.85.85,0,0,0-.327-.67ZM5,3.48,8.913,5.829a.85.85,0,0,0,.736.067L16.3,3.4h3.045L24.27,5.86a.85.85,0,0,0,.76,0l4.92-2.46h3.061l4.969,1.656a.85.85,0,0,0,.649-.046L41.65,3.5l3.02,1.51a.851.851,0,0,0,.586.064L51,3.639V15.3H42.757l-2.336-1.557a.85.85,0,0,0-.471-.143H32.3a.85.85,0,0,0-.6.249L30.248,15.3H28.9a.85.85,0,0,0-.6.249L26.848,17H25l-3.151-3.151a.85.85,0,0,0-.6-.249h-1.7a.85.85,0,0,0-.471.143L14.45,16.828l-2.079-1.386a.85.85,0,0,0-.787-.082l-3.73,1.492L5.7,14.7a.85.85,0,0,0-.6-.249H3.4V4.013ZM51,17V33.15H46.888l-7.519-2.506A.851.851,0,0,0,39.1,30.6H34.85a.85.85,0,0,0-.316.061l-4.1,1.639H24.152L22.7,30.849a.85.85,0,0,0-.6-.249H19.55a.85.85,0,0,0-.6.249L16.8,33l-7.98-3.192A.85.85,0,0,0,8.5,29.75H5.1A.85.85,0,0,0,4.5,30L3.4,31.1V16.15H4.748l2.3,2.3a.85.85,0,0,0,.917.188L11.8,17.105l2.178,1.452a.85.85,0,0,0,.943,0L19.807,15.3H20.9l3.151,3.151a.85.85,0,0,0,.6.249H27.2a.85.85,0,0,0,.6-.249L29.252,17H30.6a.85.85,0,0,0,.6-.249L32.652,15.3h7.041l2.336,1.557A.85.85,0,0,0,42.5,17ZM3.4,51V33.5L5.452,31.45H8.336l8.348,3.339A.85.85,0,0,0,17.6,34.6l2.3-2.3h1.846L23.2,33.751a.85.85,0,0,0,.6.249h6.8a.85.85,0,0,0,.316-.061l4.1-1.639h3.948l7.519,2.506a.851.851,0,0,0,.269.044H51V51Z"/>
      <path id="Trazado_116695" data-name="Trazado 116695" d="M15.3,40.8H13.1l-1.451-1.451a.85.85,0,0,0-.6-.249H9.35a.85.85,0,0,0-.6.249L6.2,41.9a.85.85,0,0,0-.159.981l2.55,5.1a.85.85,0,0,0,.76.47h1.7a.85.85,0,0,0,.531-.186l4.25-3.4a.85.85,0,0,0,.319-.664V41.65a.85.85,0,0,0-.85-.85Zm-.85,2.991-3.7,2.959H9.875L7.834,42.668,9.7,40.8h1l1.451,1.451a.85.85,0,0,0,.6.249h1.7Z"/>
      <path id="Trazado_116696" data-name="Trazado 116696" d="M19.131,41.54a.85.85,0,0,0,.856-.011l4.25-2.55a.85.85,0,0,0,.164-1.33l-2.55-2.55a.85.85,0,0,0-1.2,0l-1.7,1.7a.85.85,0,0,0-.249.6v3.4a.85.85,0,0,0,.431.74ZM20.4,37.752l.85-.85,1.179,1.179L20.4,39.3Z"/>
      <path id="Trazado_116697" data-name="Trazado 116697" d="M30.51,42.12a.851.851,0,0,0-.866-.463l-6.8.85a.85.85,0,0,0-.7,1.112l1.7,5.1a.85.85,0,0,0,1.1.527l6.8-2.55a.85.85,0,0,0,.462-1.176Zm-5.333,5.225-1.093-3.28,5.174-.647,1.009,2.018Z"/>
      <path id="Trazado_116698" data-name="Trazado 116698" d="M35.322,42.357l2.55-1.7a.85.85,0,0,0,.379-.707V39.1a.85.85,0,0,0-.534-.789l-4.25-1.7a.85.85,0,0,0-1.076.409l-.85,1.7a.85.85,0,0,0,.159.981l2.55,2.55a.85.85,0,0,0,1.073.106Zm-1.987-3.425.226-.452,2.82,1.128-1.423.948Z"/>
      <path id="Trazado_116699" data-name="Trazado 116699" d="M48.9,40.927a.85.85,0,0,0-.827-.037l-5.1,2.55a.85.85,0,0,0-.3,1.27l2.55,3.4a.85.85,0,0,0,.949.3l2.55-.85a.85.85,0,0,0,.581-.806v-5.1a.85.85,0,0,0-.4-.723Zm-1.3,5.21-1.388.463-1.571-2.1L47.6,43.025Z"/>
      <path id="Trazado_116700" data-name="Trazado 116700" d="M7.65,34.85h1.7v1.7H7.65Z"/>
      <path id="Trazado_116701" data-name="Trazado 116701" d="M14.45,47.6h1.7v1.7h-1.7Z"/>
      <path id="Trazado_116702" data-name="Trazado 116702" d="M18.7,45.9h1.7v1.7H18.7Z"/>
      <path id="Trazado_116703" data-name="Trazado 116703" d="M26.35,37.4h1.7v1.7h-1.7Z"/>
      <path id="Trazado_116704" data-name="Trazado 116704" d="M37.4,44.2h1.7v1.7H37.4Z"/>
      <path id="Trazado_116705" data-name="Trazado 116705" d="M41.65,35.7h1.7v1.7h-1.7Z"/>
      <path id="Trazado_116706" data-name="Trazado 116706" d="M45.05,37.4h1.7v1.7h-1.7Z"/>
      <path id="Trazado_116707" data-name="Trazado 116707" d="M34.85,46.75h1.7v1.7h-1.7Z"/>
      <path id="Trazado_116708" data-name="Trazado 116708" d="M6.8,25.5H9.35v1.7H6.8Z"/>
      <path id="Trazado_116709" data-name="Trazado 116709" d="M10.2,20.4h2.55v1.7H10.2Z"/>
      <path id="Trazado_116710" data-name="Trazado 116710" d="M5.1,11.05H7.65v1.7H5.1Z"/>
      <path id="Trazado_116711" data-name="Trazado 116711" d="M29.75,21.25H32.3v1.7H29.75Z"/>
      <path id="Trazado_116712" data-name="Trazado 116712" d="M32.3,24.65h2.55v1.7H32.3Z"/>
      <path id="Trazado_116713" data-name="Trazado 116713" d="M40.8,20.4h2.55v1.7H40.8Z"/>
      <path id="Trazado_116714" data-name="Trazado 116714" d="M42.5,25.5h2.55v1.7H42.5Z"/>
      <path id="Trazado_116715" data-name="Trazado 116715" d="M13.6,25.5h1.7v1.7H13.6Z"/>
      <path id="Trazado_116716" data-name="Trazado 116716" d="M22.95,26.35h1.7v1.7h-1.7Z"/>
      <path id="Trazado_116717" data-name="Trazado 116717" d="M36.55,9.35h1.7v1.7h-1.7Z"/>
      <path id="Trazado_116718" data-name="Trazado 116718" d="M45.05,6.8h1.7V8.5h-1.7Z"/>
      <path id="Trazado_116719" data-name="Trazado 116719" d="M45.9,11.9h1.7v1.7H45.9Z"/>
      <path id="Trazado_116720" data-name="Trazado 116720" d="M22.1,7.65h1.7v1.7H22.1Z"/>
      <path id="Trazado_116721" data-name="Trazado 116721" d="M23.8,11.9h1.7v1.7H23.8Z"/>
      <path id="Trazado_116722" data-name="Trazado 116722" d="M46.75,27.2h1.7v1.7h-1.7Z"/>
      <path id="Trazado_116723" data-name="Trazado 116723" d="M17.85,21.25H20.4v1.7H17.85Z"/>
      <path id="Trazado_116724" data-name="Trazado 116724" d="M32.3,6.8h2.55V8.5H32.3Z"/>
      <path id="Trazado_116725" data-name="Trazado 116725" d="M11.135,7.522h1.7v1.7h-1.7Z"/>
    </g>
  </g>
</svg>
