<svg xmlns="http://www.w3.org/2000/svg" xmlns:xlink="http://www.w3.org/1999/xlink" width="190" height="208" viewBox="0 0 190 208">
  <defs>
    <clipPath id="clip-path">
      <rect id="Rect치ngulo_34090" data-name="Rect치ngulo 34090" width="190" height="190" transform="translate(227 518)" fill="#fff" stroke="#707070" stroke-width="1"/>
    </clipPath>
  </defs>
  <g id="Grupo_81051" data-name="Grupo 81051" transform="translate(-180 -438)">
    <rect id="Rect치ngulo_33934" data-name="Rect치ngulo 33934" width="190" height="160" transform="translate(180 486)" fill="#fff"/>
    <g id="Enmascarar_grupo_94" data-name="Enmascarar grupo 94" transform="translate(-47 -80)" clip-path="url(#clip-path)">
      <g id="votar" transform="translate(234.594 518)">
        <path id="Trazado_118015" data-name="Trazado 118015" d="M141.482,35.777c.009-.019.02-.035.03-.053l-5.825-8.379a5.39,5.39,0,0,0-4.426-2.314H32.607a5.555,5.555,0,0,0-4.562,2.385L5.771,59.459h0a3.4,3.4,0,0,1,2.48-1.075H156.14Z" transform="translate(-2.061 23.999)" fill="#f7cf9c"/>
        <g id="Grupo_84065" data-name="Grupo 84065" transform="translate(2.783 49.031)">
          <path id="Trazado_118016" data-name="Trazado 118016" d="M40.3,27.416a5.556,5.556,0,0,1,4.562-2.385H32.607a5.556,5.556,0,0,0-4.562,2.385L5.771,59.459h0a3.4,3.4,0,0,1,2.48-1.075H18.768Z" transform="translate(-4.844 -25.032)" fill="#eab883"/>
          <path id="Trazado_118017" data-name="Trazado 118017" d="M155.982,41.87H8.708A3.41,3.41,0,0,0,5.3,45.28v92.794a9,9,0,0,0,9,9H150.392a9,9,0,0,0,9-9V45.28A3.41,3.41,0,0,0,155.982,41.87Z" transform="translate(-5.298 -8.888)" fill="#eab883"/>
        </g>
        <path id="Trazado_118018" data-name="Trazado 118018" d="M16.429,138.074V45.28a3.41,3.41,0,0,1,3.41-3.41H8.707A3.41,3.41,0,0,0,5.3,45.28v92.794a9,9,0,0,0,9,9H25.429A9,9,0,0,1,16.429,138.074Z" transform="translate(-2.515 40.143)" fill="#e0a773"/>
        <path id="Trazado_118019" data-name="Trazado 118019" d="M46.491,63.388,30.71,54.277a3.943,3.943,0,0,1-1.444-5.386l26.268-45.5A3.943,3.943,0,0,1,60.921,1.95l34.226,19.76A3.943,3.943,0,0,1,96.59,27.1L75.638,63.387H46.491Z" transform="translate(19.959 1.363)" fill="#f94a46"/>
        <path id="Trazado_118020" data-name="Trazado 118020" d="M65.308,9.179A4.7,4.7,0,0,1,69.372,6.83l-8.451-4.88a3.942,3.942,0,0,0-5.386,1.444l-26.268,45.5a3.943,3.943,0,0,0,1.444,5.386l6.42,3.707Z" transform="translate(19.959 1.363)" fill="#ed3e3e"/>
        <path id="Trazado_118021" data-name="Trazado 118021" d="M124.871,67.151h0a9.819,9.819,0,0,1-9.819-9.819H27.561a9.819,9.819,0,0,1-9.819,9.819h0a1.758,1.758,0,0,0-1.757,1.757v24.3a1.821,1.821,0,0,0,1.757,1.757,9.819,9.819,0,0,1,9.819,9.819h87.49a9.819,9.819,0,0,1,9.819-9.819h0a2.428,2.428,0,0,0,2.428-2.428V69.579A2.428,2.428,0,0,0,124.871,67.151Z" transform="translate(7.732 54.967)" fill="#70b5e8"/>
        <path id="Trazado_118022" data-name="Trazado 118022" d="M28.874,90.139h0a1.758,1.758,0,0,1-1.758-1.757V73.732a1.758,1.758,0,0,1,1.758-1.757h0c6.53-1.515,10.518-9.956,9.819-14.643H27.562a9.819,9.819,0,0,1-9.819,9.819h0a1.758,1.758,0,0,0-1.757,1.757v24.3a1.758,1.758,0,0,0,1.757,1.757h0a9.819,9.819,0,0,1,9.819,9.819H38.693C39.392,100.1,35.4,91.655,28.874,90.139Z" transform="translate(7.732 54.968)" fill="#52a5d8"/>
        <path id="Trazado_118023" data-name="Trazado 118023" d="M113.822,49.98,111.894,48.1c-2.792-2.721-1.152-6.041-1.116-7.412a3.07,3.07,0,0,0-2.586-3.559c-1.308-.386-5.012.124-6.728-3.355l-1.194-2.418A3.07,3.07,0,0,0,96.087,30c-1.285.456-3.975,3.042-7.408,1.237L86.326,30a3.071,3.071,0,0,0-4.184,1.36c-.78,1.139-1.439,4.831-5.283,5.389l-2.638.383a3.069,3.069,0,0,0-2.586,3.559c.036,1.351,1.661,4.706-1.116,7.412l-1.927,1.879a3.069,3.069,0,0,0,0,4.4l1.927,1.879c2.792,2.722,1.152,6.041,1.116,7.413a3.07,3.07,0,0,0,2.586,3.559c1.306.385,5.011-.124,6.728,3.355.778,1.132,1.2,4.132,3.953,4.132,1.187,0,1.734-.6,3.778-1.592,3.456-1.817,6.085.767,7.408,1.237A3.07,3.07,0,0,0,100.272,73l1.194-2.418c1.726-3.5,5.393-2.961,6.728-3.355a3.07,3.07,0,0,0,2.586-3.559l-.447-2.6c-.66-3.849,2.63-5.569,3.49-6.686A3.072,3.072,0,0,0,113.822,49.98Z" transform="translate(57.279 28.42)" fill="#92b620"/>
        <path id="Trazado_118024" data-name="Trazado 118024" d="M81.068,60.664A22.533,22.533,0,0,1,87.861,30.8L86.326,30a3.072,3.072,0,0,0-4.184,1.36c-.78,1.139-1.439,4.831-5.283,5.389l-2.638.384a3.069,3.069,0,0,0-2.586,3.559c.036,1.351,1.661,4.706-1.116,7.412l-1.927,1.879a3.069,3.069,0,0,0,0,4.4l1.927,1.879c2.792,2.722,1.152,6.041,1.116,7.413a3.07,3.07,0,0,0,2.586,3.559c1.306.385,5.011-.124,6.728,3.355.778,1.132,1.2,4.132,3.953,4.132,1.187,0,1.734-.6,3.778-1.592,3.456-1.817,6.085.767,7.408,1.237A3.07,3.07,0,0,0,100.272,73l.529-1.072A22.527,22.527,0,0,1,81.068,60.664Z" transform="translate(57.279 28.421)" fill="#83a00b"/>
        <path id="Trazado_118025" data-name="Trazado 118025" d="M25.659,66.15C32.319,86.971,31.275,86.613,33,87.372c1.851.815,4.909.464,5.445-1.275,6.148-20.241,6.148-20.018,6.148-20.307,0-1.768-4.338-3.06-4.938-1.145L35.109,81.421,30.531,64.646C29.914,62.681,25.135,64.071,25.659,66.15Z" transform="translate(16.969 61.069)"/>
        <path id="Trazado_118026" data-name="Trazado 118026" d="M36.767,83.68A8.2,8.2,0,0,0,41,87.408a12.417,12.417,0,0,0,6.328,0c2.849-.79,4.872-3.129,4.872-7.308-.322-7.16,1.07-11.7-2.322-14.634-3.264-2.818-13.734-3.282-13.734,5.968C36.285,79.038,35.771,81.35,36.767,83.68Zm5.248-14.732a3.314,3.314,0,0,1,4.3,0c1.277,1.277.593,3.358.785,11.151a3.4,3.4,0,0,1-.785,2.485,3.314,3.314,0,0,1-4.3,0,3.444,3.444,0,0,1-.769-2.485C41.437,72.206,40.767,70.223,42.015,68.948Z" transform="translate(27.05 61.051)"/>
        <path id="Trazado_118027" data-name="Trazado 118027" d="M56.2,86.044V68.288c4.135-.175,5.011.446,5.657-.687.759-1.329.449-3.891-1.145-3.891-14.534.232-14.673-.541-15.3.719-.716,1.431-.358,3.859,1.177,3.859H51.1V86.044C51.1,88.153,56.2,88.111,56.2,86.044Z" transform="translate(35.605 61.057)"/>
        <path id="Trazado_118028" data-name="Trazado 118028" d="M55.578,87.222c1.2.684,1.33.271,13.179.393,1.565,0,1.914-2.461,1.145-3.777-.681-1.163-1.21-.469-9.909-.671V77.608c4.577-.166,5.49.411,6.083-.638.749-1.329.259-3.286-1.177-3.286H59.993V68.157c8.589-.2,9.226.5,9.909-.671a3.317,3.317,0,0,0,.033-3.074c-.63-1.228-1.038-.484-12.819-.7-1.018,0-2.224.453-2.224,1.569C55.12,86.862,54.324,86.5,55.578,87.222Z" transform="translate(44.993 61.057)"/>
        <path id="Trazado_118029" data-name="Trazado 118029" d="M23.257,56.012h87.49a2.783,2.783,0,1,0,0-5.566H23.257a2.783,2.783,0,1,0,0,5.566Z" transform="translate(12.036 48.366)"/>
        <path id="Trazado_118030" data-name="Trazado 118030" d="M110.747,85.617H23.257a2.783,2.783,0,1,0,0,5.566h87.49a2.783,2.783,0,0,0,0-5.566Z" transform="translate(12.036 82.087)"/>
        <path id="Trazado_118031" data-name="Trazado 118031" d="M93.341,38.258a2.783,2.783,0,0,0-3.926.272l-7.388,8.489L79.654,44.07a2.783,2.783,0,0,0-4.336,3.49L79.776,53.1a2.784,2.784,0,0,0,4.267.082l9.57-11A2.783,2.783,0,0,0,93.341,38.258Z" transform="translate(64.028 36.024)"/>
        <path id="Trazado_118032" data-name="Trazado 118032" d="M126.233,99.109a5.217,5.217,0,0,0,5.211-5.211V70.941a5.217,5.217,0,0,0-5.211-5.211,7.044,7.044,0,0,1-7.037-7.036,2.783,2.783,0,0,0-2.783-2.783H52.122a2.783,2.783,0,1,0,0,5.566H113.94a12.626,12.626,0,0,0,11.938,9.814V93.548a12.627,12.627,0,0,0-11.938,9.814H31.4A12.632,12.632,0,0,0,20.13,93.584V71.254A12.631,12.631,0,0,0,31.4,61.476h7.738a2.783,2.783,0,1,0,0-5.566H28.924a2.783,2.783,0,0,0-2.783,2.783A7.044,7.044,0,0,1,19.1,65.73a4.545,4.545,0,0,0-4.54,4.54v24.3a4.545,4.545,0,0,0,4.54,4.54,7.044,7.044,0,0,1,7.037,7.037,2.783,2.783,0,0,0,2.783,2.783h87.49a2.783,2.783,0,0,0,2.783-2.783A7.044,7.044,0,0,1,126.233,99.109Z" transform="translate(6.369 53.605)"/>
        <path id="Trazado_118033" data-name="Trazado 118033" d="M174.992,74.528c-2.279-2.222,1.5-5.46-1.348-9.38s-7.123-1.336-8.528-4.184c-.916-1.44-1.365-4.334-4.633-5.4-4.592-1.492-6.559,3.093-9.353,1.624-1.09-.236-3.536-2.936-7.216-1.5l-4.127-5.936a8.176,8.176,0,0,0-6.712-3.509H113.37l9.467-16.4a6.733,6.733,0,0,0-2.462-9.187L86.148.9a6.722,6.722,0,0,0-9.188,2.462l-4.519,7.827a2.783,2.783,0,1,0,4.82,2.783l4.519-7.827a1.159,1.159,0,0,1,1.585-.425l34.226,19.761a1.162,1.162,0,0,1,.425,1.585l-20.149,34.9h-26.8L55.938,53.23a1.162,1.162,0,0,1-.571-1.149c.041-.334-.948,1.46,15.4-26.857a2.783,2.783,0,1,0-4.82-2.783L52.2,46.247H34.423a8.345,8.345,0,0,0-6.847,3.579c-23.96,34.812-23.7,32.938-23.7,35.967v92.424A11.8,11.8,0,0,0,15.66,190H150.883a12.668,12.668,0,0,0,12.654-12.654,2.783,2.783,0,0,0-5.566,0,7.1,7.1,0,0,1-7.088,7.088H15.659a6.224,6.224,0,0,1-6.217-6.217c.064-95.123-.365-93.048.625-93.05h116.9l1.648,1.606C131,89.1,127.1,92.4,130.007,96.4s7.276,1.316,8.749,4.3c.678.918,1.689,5.788,6.548,5.788,1.894,0,2.913-.779,5.169-1.952,2.528-1.33,4.058,1.787,7.5,1.95v57.507a2.783,2.783,0,1,0,5.566,0V103.312a31.444,31.444,0,0,0,1.579-3.077c.933-1.89,3.032-1.416,4.816-1.862a5.85,5.85,0,0,0,4.744-6.753l-.447-2.605c-.538-3.138,4.458-3.571,4.458-8.416C178.688,77.174,176.035,75.792,174.992,74.528ZM130.513,72.69c-.028,2.661-3.729,3.046-4.4,6.911H13.657L32.146,53a2.773,2.773,0,0,1,2.277-1.191H49.8a6.771,6.771,0,0,0,1.407,4.539c1.105,1.424,1.613,1.492,8.728,5.615H55.875a2.783,2.783,0,1,0,0,5.566H114.9a2.783,2.783,0,0,0,0-5.566H104.294l5.863-10.155h22.92a2.608,2.608,0,0,1,2.141,1.12l4.887,7.03a4.684,4.684,0,0,1-1.474,2.076c-1.662,1.073-5.17-.167-7.55,3.109C128.956,68.074,130.534,70.754,130.513,72.69Zm38.232,17.265c.439,2.729.522,2.652.4,2.824-.462.636-6.317-.478-9.016,4.992l-1.194,2.418c-.154.31-.464.148-1.339-.358-4.519-2.615-6.879-2-10.652.087-1.447.8-.776.708-2.34-2.148-2.684-5.438-8.534-4.328-9.016-4.992-.448-.617,2.395-5.844-1.966-10.095-2.122-2.08-1.9-1.835-1.969-1.938-.178-.289.057-.341,1.969-2.233,4.645-4.527,1.044-10.046,2.159-10.21l2.638-.384c6.475-.941,6.772-7.56,7.772-7.04l2.353,1.237c5.379,2.827,9.5-1.5,10.222-1.257.2.066.094.059,1.363,2.566,2.687,5.445,8.524,4.319,9.016,4.992.453.623-2.4,5.842,1.966,10.094l1.927,1.879h0C173.855,81.193,167.633,83.473,168.745,89.955Z" transform="translate(-3.877 0)"/>
      </g>
    </g>
  </g>
</svg>
