<svg xmlns="http://www.w3.org/2000/svg" xmlns:xlink="http://www.w3.org/1999/xlink" width="56" height="56" viewBox="0 0 56 56">
  <defs>
    <clipPath id="clip-path">
      <rect id="Rect치ngulo_34074" data-name="Rect치ngulo 34074" width="56" height="56" transform="translate(259 2584)" fill="#fff" stroke="#707070" stroke-width="1"/>
    </clipPath>
  </defs>
  <g id="Enmascarar_grupo_90" data-name="Enmascarar grupo 90" transform="translate(-259 -2584)" clip-path="url(#clip-path)">
    <g id="paciente" transform="translate(259 2584)">
      <path id="Trazado_117938" data-name="Trazado 117938" d="M15.966,8.15V6.016a.548.548,0,0,0-.547-.547H8.729a.548.548,0,0,0-.547.547V8.15Z" fill="#48c1e1"/>
      <path id="Trazado_117939" data-name="Trazado 117939" d="M46.868,35.971H42.052a10.619,10.619,0,0,1-8.263,4.176,10.62,10.62,0,0,1-8.263-4.176H20.709A2.53,2.53,0,0,0,18.181,38.5V54.548a.632.632,0,0,0,.632.632H48.764a.632.632,0,0,0,.632-.632V38.5A2.53,2.53,0,0,0,46.868,35.971Z" fill="#a2dff9"/>
      <path id="Trazado_117940" data-name="Trazado 117940" d="M39.125,51.091H36.586l.675-.675a1.149,1.149,0,1,0-1.625-1.625l-1.7,1.7a.629.629,0,0,1,.135.39v4.3h5.056a1.163,1.163,0,0,0,1.16-1.16V52.251A1.163,1.163,0,0,0,39.125,51.091Z" fill="#ffd5b3"/>
      <path id="Trazado_117941" data-name="Trazado 117941" d="M33.437,50.251H23.652V44.546a1.265,1.265,0,0,0-1.264-1.264H19.445a1.265,1.265,0,0,0-1.264,1.264v10a.632.632,0,0,0,.632.632H34.069v-4.3A.632.632,0,0,0,33.437,50.251Z" fill="#48c1e1"/>
      <path id="Trazado_117942" data-name="Trazado 117942" d="M22.3,35.971l1.251,1.573a12.788,12.788,0,0,0,20.483,0l1.251-1.573Z" fill="#0291c9"/>
      <g id="Grupo_84056" data-name="Grupo 84056" opacity="0.1">
        <path id="Trazado_117943" data-name="Trazado 117943" d="M21.6,54.548V38.5a2.53,2.53,0,0,1,2.527-2.527h-3.42A2.53,2.53,0,0,0,18.181,38.5V54.548a.632.632,0,0,0,.632.632h3.42A.632.632,0,0,1,21.6,54.548Z"/>
      </g>
      <path id="Trazado_117944" data-name="Trazado 117944" d="M42.507,50.367a.406.406,0,0,1-.288-.119l-3.166-3.166a2.024,2.024,0,1,1,2.862-2.862l.6.6.6-.6a2.024,2.024,0,1,1,2.862,2.862l-3.191,3.167A.4.4,0,0,1,42.507,50.367Z" fill="#fb8276"/>
      <path id="Trazado_117945" data-name="Trazado 117945" d="M33.788,4.359a10.147,10.147,0,0,1,2.913.427,5.011,5.011,0,0,0,1.316-3.431A.534.534,0,0,0,37.484.82H30.093a.534.534,0,0,0-.534.534,5.011,5.011,0,0,0,1.316,3.431A10.145,10.145,0,0,1,33.788,4.359Z" fill="#ef5050"/>
      <path id="Trazado_117946" data-name="Trazado 117946" d="M33.788,4.359l.155,0a5.068,5.068,0,0,1-.967-3.007A.534.534,0,0,1,33.51.82H30.093a.534.534,0,0,0-.534.534,5.011,5.011,0,0,0,1.316,3.431A10.141,10.141,0,0,1,33.788,4.359Z" opacity="0.1"/>
      <g id="Grupo_84057" data-name="Grupo 84057">
        <path id="Trazado_117947" data-name="Trazado 117947" d="M37.327,33.964a9.837,9.837,0,0,1-7.077,0v2.007H25.525a10.619,10.619,0,0,0,8.263,4.176,10.62,10.62,0,0,0,8.263-4.176H37.327Z" fill="#ffb98a"/>
        <path id="Trazado_117948" data-name="Trazado 117948" d="M22.89,22.977V21.732h-.539a2.97,2.97,0,1,0,0,5.94h1.515A11.9,11.9,0,0,1,22.89,22.977Z" fill="#ffb98a"/>
        <path id="Trazado_117949" data-name="Trazado 117949" d="M45.225,21.732h-.539v1.245a11.9,11.9,0,0,1-.977,4.695h1.515a2.97,2.97,0,0,0,0-5.94Z" fill="#ffb98a"/>
      </g>
      <path id="Trazado_117950" data-name="Trazado 117950" d="M22.89,20.372v2.605c0,6.131,4.879,11.645,10.9,11.645s10.9-5.514,10.9-11.645V20.372Z" fill="#ffd5b3"/>
      <g id="Grupo_84058" data-name="Grupo 84058" opacity="0.1">
        <path id="Trazado_117951" data-name="Trazado 117951" d="M25.648,22.977V20.372H22.89v2.605c0,6.131,4.879,11.645,10.9,11.645a9.809,9.809,0,0,0,1.379-.1C29.8,33.762,25.648,28.632,25.648,22.977Z"/>
      </g>
      <path id="Trazado_117952" data-name="Trazado 117952" d="M10.255,23.365V25.8a.548.548,0,0,0,.547.547h2.543a.548.548,0,0,0,.547-.547V23.365Z" fill="#48c1e1"/>
      <path id="Trazado_117953" data-name="Trazado 117953" d="M17.543,22.818a.548.548,0,0,1-.547.547H7.151a.548.548,0,0,1-.547-.547V8.7a.548.548,0,0,1,.547-.547H17a.548.548,0,0,1,.547.547Z" fill="#a2dff9"/>
      <rect id="Rect치ngulo_34078" data-name="Rect치ngulo 34078" width="10.939" height="9.953" transform="translate(6.604 10.664)" fill="#fff"/>
      <g id="Grupo_84059" data-name="Grupo 84059" opacity="0.1">
        <path id="Trazado_117954" data-name="Trazado 117954" d="M9.34,22.818V8.7a.548.548,0,0,1,.547-.547H7.151A.548.548,0,0,0,6.6,8.7V22.818a.548.548,0,0,0,.547.547H9.887A.548.548,0,0,1,9.34,22.818Z"/>
      </g>
      <path id="Trazado_117955" data-name="Trazado 117955" d="M22.5,15.642H45.078l.047,0C44.381,9.274,39.589,4.359,33.789,4.359S23.2,9.274,22.452,15.645Z" fill="#c0272d"/>
      <path id="Trazado_117956" data-name="Trazado 117956" d="M22.5,15.642h3.345C26.515,9.906,30.468,5.35,35.484,4.5a10.159,10.159,0,0,0-1.7-.143c-5.8,0-10.592,4.915-11.336,11.286Z" opacity="0.1"/>
      <path id="Trazado_117957" data-name="Trazado 117957" d="M46.718,18.731a1.645,1.645,0,0,1-1.641,1.641H22.5a1.645,1.645,0,0,1-1.641-1.641V17.283A1.645,1.645,0,0,1,22.5,15.642H45.078a1.645,1.645,0,0,1,1.641,1.641Z" fill="#ef5050"/>
      <g id="Grupo_84060" data-name="Grupo 84060" opacity="0.1">
        <path id="Trazado_117958" data-name="Trazado 117958" d="M24.289,18.731V17.283a1.645,1.645,0,0,1,1.641-1.641H22.5a1.645,1.645,0,0,0-1.641,1.641v1.448A1.645,1.645,0,0,0,22.5,20.372h3.43A1.645,1.645,0,0,1,24.289,18.731Z"/>
      </g>
      <path id="Trazado_117959" data-name="Trazado 117959" d="M46.868,35.151H38.147v-.633A11.92,11.92,0,0,0,42.1,31.654a12.936,12.936,0,0,0,2.135-3.162h.992A3.79,3.79,0,0,0,46.032,21a2.465,2.465,0,0,0,1.506-2.268V17.283a2.464,2.464,0,0,0-1.682-2.334A13.57,13.57,0,0,0,38.017,4.387a5.932,5.932,0,0,0,.821-3.033A1.356,1.356,0,0,0,37.484,0H30.093a1.356,1.356,0,0,0-1.354,1.354,5.932,5.932,0,0,0,.821,3.033A13.57,13.57,0,0,0,21.72,14.949a2.465,2.465,0,0,0-1.682,2.334v1.448A2.465,2.465,0,0,0,21.544,21a3.79,3.79,0,0,0,.807,7.493h.992a12.931,12.931,0,0,0,2.135,3.162,11.924,11.924,0,0,0,3.951,2.864v.633H20.709A3.352,3.352,0,0,0,17.361,38.5v10.68H15.355a2.464,2.464,0,0,1-2.461-2.461V27.168h.451A1.369,1.369,0,0,0,14.712,25.8V24.185H17a1.369,1.369,0,0,0,1.367-1.367V8.7A1.369,1.369,0,0,0,17,7.33h-.21V6.016a1.369,1.369,0,0,0-1.367-1.367H8.729A1.369,1.369,0,0,0,7.362,6.016V7.33h-.21A1.369,1.369,0,0,0,5.784,8.7V22.818a1.369,1.369,0,0,0,1.367,1.367H9.435V25.8A1.369,1.369,0,0,0,10.8,27.168h.451V46.717a4.106,4.106,0,0,0,4.1,4.1h2.006v3.729A1.454,1.454,0,0,0,18.813,56H48.764a1.454,1.454,0,0,0,1.452-1.452V38.5A3.352,3.352,0,0,0,46.868,35.151ZM7.425,11.484h4.224a.82.82,0,0,0,0-1.641H7.425V8.97h9.3v.873H15.7a.82.82,0,0,0,0,1.641h1.028V19.8h-9.3ZM9,6.289h6.143V7.33H9ZM7.425,21.438h9.3v1.107h-9.3Zm3.651,2.748h2v1.342h-2ZM25.138,36.791a11.048,11.048,0,0,0,17.3,0h1.142l-.193.242a12.307,12.307,0,0,1-9.6,4.82,12.307,12.307,0,0,1-9.6-4.82L24,36.791ZM47.375,24.7a2.152,2.152,0,0,1-2.149,2.149h-.338a12.634,12.634,0,0,0,.619-3.874v-.4A2.151,2.151,0,0,1,47.375,24.7ZM30.388,1.641h6.8a4.234,4.234,0,0,1-.78,2.217,10.936,10.936,0,0,0-5.241,0A4.235,4.235,0,0,1,30.388,1.641Zm3.4,3.539c5.092,0,9.358,4.14,10.382,9.643H41.4a.82.82,0,0,0,0,1.641h3.679a.821.821,0,0,1,.82.82v1.448a.821.821,0,0,1-.82.82H22.5a.821.821,0,0,1-.82-.82V17.283a.821.821,0,0,1,.82-.82H36.914a.82.82,0,0,0,0-1.641H23.406C24.431,9.319,28.7,5.179,33.788,5.179ZM22.352,26.852a2.148,2.148,0,0,1-.281-4.278v.4a12.634,12.634,0,0,0,.619,3.874Zm4.335,3.692a11.316,11.316,0,0,1-2.976-7.566V21.192H43.866v1.785a11.316,11.316,0,0,1-2.976,7.566,9.369,9.369,0,0,1-14.2,0Zm7.1,4.9a10.709,10.709,0,0,0,2.718-.351v.879a.82.82,0,0,0,.82.82h2.834a9.276,9.276,0,0,1-12.744,0H30.25a.82.82,0,0,0,.82-.82v-.879A10.705,10.705,0,0,0,33.788,35.443Zm2.039,15.963a.82.82,0,0,0,.758.506h2.539a.344.344,0,0,1,.34.34V54.02a.344.344,0,0,1-.34.34H34.889V50.883a1.474,1.474,0,0,0-.011-.174l1.337-1.337a.343.343,0,0,1,.243-.1.324.324,0,0,1,.229.093.339.339,0,0,1-.008.473l-.675.675A.82.82,0,0,0,35.828,51.405Zm12.748,2.954h-7.5a1.963,1.963,0,0,0,.03-.34V52.251a1.982,1.982,0,0,0-1.98-1.98H38.3a1.971,1.971,0,0,0-.455-2.067,1.951,1.951,0,0,0-1.389-.573,1.971,1.971,0,0,0-1.4.581l-1.264,1.265a1.445,1.445,0,0,0-.354-.045h-2.21a.82.82,0,0,0,0,1.641h2.022v3.288H19V44.1h3.386a.444.444,0,0,1,.444.443v5.705a.82.82,0,0,0,.82.82H27.4a.82.82,0,0,0,0-1.641H24.472V44.546a2.086,2.086,0,0,0-2.084-2.084H19V38.5a1.709,1.709,0,0,1,1.707-1.707H21.9l1,1.263a13.608,13.608,0,0,0,21.767,0l1-1.263h1.192A1.709,1.709,0,0,1,48.575,38.5Z"/>
      <path id="Trazado_117960" data-name="Trazado 117960" d="M44.554,42.806a2.825,2.825,0,0,0-2.011.833l-.024.024-.024-.024a2.844,2.844,0,0,0-4.022,4.022l3.167,3.167a1.228,1.228,0,0,0,1.733,0l3.193-3.169a2.844,2.844,0,0,0-2.011-4.855Zm.853,3.693-2.9,2.878L39.633,46.5a1.2,1.2,0,1,1,1.7-1.7l.6.6a.82.82,0,0,0,1.16,0l.6-.6a1.2,1.2,0,0,1,1.7,1.7Z"/>
      <path id="Trazado_117961" data-name="Trazado 117961" d="M31.18,22.753a.82.82,0,0,0-1.16,0,1.842,1.842,0,0,1-2.6,0,.82.82,0,1,0-1.16,1.16,3.485,3.485,0,0,0,4.923,0A.82.82,0,0,0,31.18,22.753Z"/>
      <path id="Trazado_117962" data-name="Trazado 117962" d="M38.858,24.931a3.47,3.47,0,0,0,2.461-1.018.82.82,0,0,0-1.16-1.16,1.842,1.842,0,0,1-2.6,0,.82.82,0,1,0-1.16,1.16A3.47,3.47,0,0,0,38.858,24.931Z"/>
      <path id="Trazado_117963" data-name="Trazado 117963" d="M34.335,27.577h.717a.82.82,0,0,0,0-1.641h-.443V24.1a.82.82,0,1,0-1.641,0v2.107A1.369,1.369,0,0,0,34.335,27.577Z"/>
      <path id="Trazado_117964" data-name="Trazado 117964" d="M37.431,30.127a.82.82,0,1,0-1.16-1.16,3.515,3.515,0,0,1-4.965,0,.82.82,0,1,0-1.16,1.16,5.157,5.157,0,0,0,7.285,0Z"/>
      <path id="Trazado_117965" data-name="Trazado 117965" d="M13.848,14.924h-.99v-.99a.82.82,0,0,0-1.641,0v.99h-.99a.82.82,0,1,0,0,1.641h.99v.99a.82.82,0,0,0,1.641,0v-.99h.99a.82.82,0,1,0,0-1.641Z"/>
    </g>
  </g>
</svg>
