<svg xmlns="http://www.w3.org/2000/svg" xmlns:xlink="http://www.w3.org/1999/xlink" width="118.618" height="119.458" viewBox="0 0 118.618 119.458">
  <defs>
    <radialGradient id="radial-gradient" cx="0.076" cy="0.019" r="1.465" gradientTransform="translate(0.001)" gradientUnits="objectBoundingBox">
      <stop offset="0" stop-color="#f6f6f7"/>
      <stop offset="0.477" stop-color="#f9f9fa"/>
      <stop offset="0.715" stop-color="#fff"/>
    </radialGradient>
    <filter id="Trazado_40937" x="0" y="0.962" width="118.618" height="118.496" filterUnits="userSpaceOnUse">
      <feOffset dy="7" input="SourceAlpha"/>
      <feGaussianBlur stdDeviation="2.5" result="blur"/>
      <feFlood flood-opacity="0.102"/>
      <feComposite operator="in" in2="blur"/>
      <feComposite in="SourceGraphic"/>
    </filter>
    <clipPath id="clip-path">
      <rect id="Rectángulo_34090" data-name="Rectángulo 34090" width="65" height="65" transform="translate(227.4 518.4)" fill="#fff" stroke="#707070" stroke-width="1"/>
    </clipPath>
  </defs>
  <g id="Grupo_1003918" data-name="Grupo 1003918" transform="translate(-268.841 -3496)">
    <g id="Grupo_997988" data-name="Grupo 997988" transform="translate(275 3496)">
      <g id="Grupo_18423" data-name="Grupo 18423" transform="translate(0 0)">
        <g id="Grupo_18421" data-name="Grupo 18421">
          <g id="Grupo_18420" data-name="Grupo 18420">
            <g id="Grupo_18419" data-name="Grupo 18419">
              <path id="Trazado_40936" data-name="Trazado 40936" d="M299.581,2198.2a52.479,52.479,0,1,1-52.478-52.478A52.479,52.479,0,0,1,299.581,2198.2Z" transform="translate(-194.623 -2145.721)" fill="#fff"/>
            </g>
          </g>
        </g>
        <g transform="matrix(1, 0, 0, 1, -6.16, 0)" filter="url(#Trazado_40937)">
          <path id="Trazado_40937-2" data-name="Trazado 40937" d="M299.095,2197.668a52.478,52.478,0,1,0-52.478,52.48A52.271,52.271,0,0,0,299.095,2197.668Z" transform="translate(-187.98 -2145.19)" fill="url(#radial-gradient)"/>
        </g>
        <g id="Grupo_18422" data-name="Grupo 18422" transform="translate(9.297 29.463)">
          <path id="Trazado_40939" data-name="Trazado 40939" d="M290.9,2164.488a52.485,52.485,0,0,1-90.355,52.261,52.319,52.319,0,0,0,90.355-52.261Z" transform="translate(-200.545 -2164.488)" fill="#eceef0"/>
        </g>
      </g>
    </g>
    <g id="Enmascarar_grupo_94" data-name="Enmascarar grupo 94" transform="translate(69.6 2995.6)" clip-path="url(#clip-path)">
      <g id="votar" transform="translate(229.644 518)">
        <path id="Trazado_118015" data-name="Trazado 118015" d="M53.017,28.773l.01-.018L51,25.837a1.876,1.876,0,0,0-1.541-.806H15.114a1.934,1.934,0,0,0-1.588.83L5.771,37.017h0a1.183,1.183,0,0,1,.863-.374H58.12Z" transform="translate(-4.479 -7.962)" fill="#f7cf9c"/>
        <g id="Grupo_84065" data-name="Grupo 84065" transform="translate(0.969 17.069)">
          <path id="Trazado_118016" data-name="Trazado 118016" d="M17.79,25.862a1.934,1.934,0,0,1,1.588-.83H15.113a1.934,1.934,0,0,0-1.588.83L5.771,37.017h0a1.183,1.183,0,0,1,.863-.374H10.3Z" transform="translate(-5.448 -25.032)" fill="#eab883"/>
          <path id="Trazado_118017" data-name="Trazado 118017" d="M57.756,41.87H6.485A1.187,1.187,0,0,0,5.3,43.057V75.362A3.133,3.133,0,0,0,8.431,78.5H55.81a3.133,3.133,0,0,0,3.133-3.133V43.057A1.187,1.187,0,0,0,57.756,41.87Z" transform="translate(-5.298 -30.388)" fill="#eab883"/>
        </g>
        <path id="Trazado_118018" data-name="Trazado 118018" d="M9.173,75.362V43.057A1.187,1.187,0,0,1,10.36,41.87H6.485A1.187,1.187,0,0,0,5.3,43.057V75.362A3.133,3.133,0,0,0,8.431,78.5h3.875A3.133,3.133,0,0,1,9.173,75.362Z" transform="translate(-4.329 -13.318)" fill="#e0a773"/>
        <path id="Trazado_118019" data-name="Trazado 118019" d="M34.918,22.995l-5.494-3.172a1.373,1.373,0,0,1-.5-1.875L38.067,2.108a1.373,1.373,0,0,1,1.875-.5L51.857,8.485a1.373,1.373,0,0,1,.5,1.875L45.065,22.994H34.918Z" transform="translate(-11.785 -0.452)" fill="#ffa686"/>
        <path id="Trazado_118020" data-name="Trazado 118020" d="M41.47,4.122A1.636,1.636,0,0,1,42.884,3.3l-2.942-1.7a1.372,1.372,0,0,0-1.875.5L28.922,17.948a1.373,1.373,0,0,0,.5,1.875l2.235,1.29Z" transform="translate(-11.785 -0.452)" fill="#de805e"/>
        <path id="Trazado_118021" data-name="Trazado 118021" d="M53.892,60.75h0a3.418,3.418,0,0,1-3.418-3.418H20.015A3.418,3.418,0,0,1,16.6,60.75h0a.612.612,0,0,0-.612.612v8.459a.634.634,0,0,0,.612.612,3.418,3.418,0,0,1,3.418,3.418H50.473a3.418,3.418,0,0,1,3.418-3.418h0a.845.845,0,0,0,.845-.845V61.6A.845.845,0,0,0,53.892,60.75Z" transform="translate(-7.728 -18.236)" fill="#ffd947"/>
        <path id="Trazado_118022" data-name="Trazado 118022" d="M20.472,68.753h0a.612.612,0,0,1-.612-.612v-5.1a.612.612,0,0,1,.612-.612h0c2.273-.527,3.662-3.466,3.418-5.1H20.015A3.418,3.418,0,0,1,16.6,60.75h0a.612.612,0,0,0-.612.612v8.459a.612.612,0,0,0,.612.612h0a3.418,3.418,0,0,1,3.418,3.418H23.89C24.134,72.22,22.745,69.281,20.472,68.753Z" transform="translate(-7.728 -18.236)" fill="#dab527"/>
        <path id="Trazado_118023" data-name="Trazado 118023" d="M83.733,36.723l-.671-.654c-.972-.947-.4-2.1-.388-2.58a1.069,1.069,0,0,0-.9-1.239c-.455-.134-1.745.043-2.342-1.168l-.416-.842a1.069,1.069,0,0,0-1.457-.473c-.447.159-1.384,1.059-2.579.431l-.819-.431a1.069,1.069,0,0,0-1.456.473c-.271.4-.5,1.682-1.839,1.876l-.919.133a1.069,1.069,0,0,0-.9,1.239c.013.47.578,1.638-.388,2.58l-.671.654a1.069,1.069,0,0,0,0,1.532l.671.654c.972.947.4,2.1.388,2.581a1.069,1.069,0,0,0,.9,1.239c.454.134,1.745-.043,2.342,1.168.271.394.419,1.439,1.376,1.439.413,0,.6-.21,1.315-.554,1.2-.633,2.118.267,2.579.431a1.069,1.069,0,0,0,1.457-.473l.416-.842c.6-1.218,1.878-1.031,2.342-1.168a1.069,1.069,0,0,0,.9-1.239l-.156-.907c-.23-1.34.915-1.939,1.215-2.328A1.069,1.069,0,0,0,83.733,36.723Z" transform="translate(-24.166 -9.429)" fill="#adce32"/>
        <path id="Trazado_118024" data-name="Trazado 118024" d="M72.33,40.443a7.845,7.845,0,0,1,2.365-10.4l-.534-.281a1.069,1.069,0,0,0-1.457.473c-.271.4-.5,1.682-1.839,1.876l-.919.134a1.069,1.069,0,0,0-.9,1.239c.013.47.578,1.638-.388,2.58l-.671.654a1.069,1.069,0,0,0,0,1.532l.671.654c.972.947.4,2.1.388,2.581a1.069,1.069,0,0,0,.9,1.239c.454.134,1.745-.043,2.342,1.168.271.394.419,1.439,1.376,1.439.413,0,.6-.21,1.315-.554,1.2-.633,2.118.267,2.579.431a1.069,1.069,0,0,0,1.457-.473l.184-.373A7.843,7.843,0,0,1,72.33,40.443Z" transform="translate(-24.166 -9.429)" fill="#83a00b"/>
        <path id="Trazado_118025" data-name="Trazado 118025" d="M25.633,64.55c2.319,7.249,1.955,7.124,2.556,7.388.644.284,1.709.162,1.9-.444,2.14-7.047,2.14-6.969,2.14-7.069,0-.615-1.51-1.065-1.719-.4l-1.582,5.84-1.594-5.84C27.114,63.343,25.45,63.827,25.633,64.55Z" transform="translate(-10.793 -20.261)"/>
        <path id="Trazado_118026" data-name="Trazado 118026" d="M36.354,70.64a2.854,2.854,0,0,0,1.474,1.3,4.323,4.323,0,0,0,2.2,0,2.366,2.366,0,0,0,1.7-2.544c-.112-2.493.373-4.074-.808-5.095-1.136-.981-4.781-1.143-4.781,2.078C36.187,69.024,36.008,69.829,36.354,70.64Zm1.827-5.129a1.154,1.154,0,0,1,1.5,0c.444.444.206,1.169.273,3.882a1.182,1.182,0,0,1-.273.865,1.154,1.154,0,0,1-1.5,0,1.2,1.2,0,0,1-.268-.865C37.98,66.646,37.747,65.956,38.181,65.512Z" transform="translate(-14.137 -20.254)"/>
        <path id="Trazado_118027" data-name="Trazado 118027" d="M48.938,71.468V65.286c1.44-.061,1.744.155,1.97-.239.264-.463.156-1.355-.4-1.355-5.06.081-5.108-.188-5.328.25-.249.5-.125,1.343.41,1.343h1.571v6.182C47.162,72.2,48.938,72.188,48.938,71.468Z" transform="translate(-16.976 -20.257)"/>
        <path id="Trazado_118028" data-name="Trazado 118028" d="M55.1,71.878c.417.238.463.094,4.588.137.545,0,.666-.857.4-1.315-.237-.4-.421-.163-3.45-.233V68.531c1.593-.058,1.911.143,2.118-.222.261-.463.09-1.144-.41-1.144H56.64V65.24c2.99-.069,3.212.173,3.45-.233a1.155,1.155,0,0,0,.011-1.07c-.219-.428-.361-.168-4.463-.245-.354,0-.774.158-.774.546C54.943,71.752,54.666,71.628,55.1,71.878Z" transform="translate(-20.09 -20.256)"/>
        <path id="Trazado_118029" data-name="Trazado 118029" d="M21.443,52.384H51.9a.969.969,0,0,0,0-1.938H21.443a.969.969,0,1,0,0,1.938Z" transform="translate(-9.156 -16.046)"/>
        <path id="Trazado_118030" data-name="Trazado 118030" d="M51.9,85.617H21.443a.969.969,0,0,0,0,1.938H51.9a.969.969,0,0,0,0-1.938Z" transform="translate(-9.156 -27.233)"/>
        <path id="Trazado_118031" data-name="Trazado 118031" d="M81.192,37.812a.969.969,0,0,0-1.367.095l-2.572,2.955-.826-1.027a.969.969,0,0,0-1.51,1.215l1.552,1.928a.969.969,0,0,0,1.486.029l3.332-3.828A.969.969,0,0,0,81.192,37.812Z" transform="translate(-26.405 -11.952)"/>
        <path id="Trazado_118032" data-name="Trazado 118032" d="M53.44,70.949a1.816,1.816,0,0,0,1.814-1.814V61.143a1.816,1.816,0,0,0-1.814-1.814,2.452,2.452,0,0,1-2.45-2.45.969.969,0,0,0-.969-.969H27.639a.969.969,0,1,0,0,1.938H49.16a4.4,4.4,0,0,0,4.156,3.417v7.748A4.4,4.4,0,0,0,49.16,72.43H20.424a4.4,4.4,0,0,0-3.923-3.4V61.252a4.4,4.4,0,0,0,3.923-3.4h2.694a.969.969,0,0,0,0-1.938H19.563a.969.969,0,0,0-.969.969,2.452,2.452,0,0,1-2.45,2.45,1.582,1.582,0,0,0-1.581,1.581v8.459a1.582,1.582,0,0,0,1.581,1.581,2.452,2.452,0,0,1,2.45,2.45.969.969,0,0,0,.969.969H50.021a.969.969,0,0,0,.969-.969A2.452,2.452,0,0,1,53.44,70.949Z" transform="translate(-7.276 -17.784)"/>
        <path id="Trazado_118033" data-name="Trazado 118033" d="M63.448,25.946c-.793-.773.522-1.9-.469-3.266s-2.48-.465-2.969-1.457c-.319-.5-.475-1.509-1.613-1.879-1.6-.519-2.283,1.077-3.256.565-.38-.082-1.231-1.022-2.512-.522l-1.437-2.067A2.846,2.846,0,0,0,48.856,16.1H42l3.3-5.708a2.344,2.344,0,0,0-.857-3.2L32.519.315a2.34,2.34,0,0,0-3.2.857L27.747,3.9a.969.969,0,1,0,1.678.969L31,2.14a.4.4,0,0,1,.552-.148L43.465,8.872a.4.4,0,0,1,.148.552L36.6,21.573H27.27L22,18.531a.4.4,0,0,1-.2-.4c.014-.116-.33.508,5.362-9.35a.969.969,0,1,0-1.678-.969L20.7,16.1h-6.19a2.905,2.905,0,0,0-2.384,1.246C3.786,29.466,3.877,28.813,3.877,29.868V62.044a4.107,4.107,0,0,0,4.1,4.1H55.055a4.41,4.41,0,0,0,4.405-4.405.969.969,0,0,0-1.938,0,2.47,2.47,0,0,1-2.468,2.468H7.979a2.167,2.167,0,0,1-2.164-2.164c.022-33.116-.127-32.393.218-32.394h40.7l.574.559c.83.809-.527,1.959.484,3.351s2.533.458,3.046,1.5c.236.32.588,2.015,2.279,2.015a3.681,3.681,0,0,0,1.8-.679c.88-.463,1.413.622,2.61.679v20.02a.969.969,0,0,0,1.938,0V35.967a10.947,10.947,0,0,0,.55-1.071c.325-.658,1.055-.493,1.677-.648A2.036,2.036,0,0,0,63.339,31.9l-.156-.907c-.187-1.092,1.552-1.243,1.552-2.93C64.735,26.867,63.811,26.386,63.448,25.946Zm-15.485-.64c-.01.926-1.3,1.06-1.532,2.406H7.282l6.437-9.259a.965.965,0,0,1,.793-.415h5.355a2.357,2.357,0,0,0,.49,1.58c.385.5.562.519,3.039,1.955H21.979a.969.969,0,1,0,0,1.938H42.529a.969.969,0,0,0,0-1.938H38.836l2.041-3.535h7.979a.908.908,0,0,1,.745.39l1.7,2.448a1.631,1.631,0,0,1-.513.723c-.579.374-1.8-.058-2.629,1.082C47.422,23.7,47.971,24.632,47.964,25.306Zm13.31,6.01c.153.95.182.923.138.983-.161.221-2.2-.166-3.139,1.738l-.416.842c-.053.108-.162.051-.466-.125a3.1,3.1,0,0,0-3.708.03c-.5.278-.27.246-.815-.748-.934-1.893-2.971-1.507-3.139-1.738-.156-.215.834-2.034-.684-3.514-.739-.724-.663-.639-.685-.675-.062-.1.02-.119.685-.777,1.617-1.576.363-3.5.751-3.555l.918-.134c2.254-.327,2.358-2.632,2.706-2.451l.819.431c1.873.984,3.306-.521,3.559-.438.071.023.033.021.475.893.935,1.9,2.968,1.5,3.139,1.738.158.217-.835,2.034.684,3.514l.671.654h0C63.052,28.266,60.886,29.06,61.274,31.317Z" transform="translate(-3.877 0)"/>
      </g>
    </g>
  </g>
</svg>
