<svg xmlns="http://www.w3.org/2000/svg" xmlns:xlink="http://www.w3.org/1999/xlink" width="121" height="121" viewBox="0 0 121 121">
  <defs>
    <clipPath id="clip-path">
      <rect id="Rectángulo_33820" data-name="Rectángulo 33820" width="121" height="121" transform="translate(1272.667 9885.667)" fill="#ffa686"/>
    </clipPath>
  </defs>
  <g id="Enmascarar_grupo_53" data-name="Enmascarar grupo 53" transform="translate(-1272.667 -9885.667)" clip-path="url(#clip-path)">
    <g id="sin-violencia" transform="translate(1273 9886)">
      <path id="Trazado_114273" data-name="Trazado 114273" d="M120.333,60.167a60.19,60.19,0,0,1-39.11,56.379c-1.074.4-.557-1.841-1.66-1.5a60.151,60.151,0,0,1-17.791,2.674q-2.361,0-4.678-.179c-.633-.049-2.87,2.507-3.5,2.439A60.111,60.111,0,0,1,11.9,96.091c-.536-.718,1.072-1.511.568-2.254A59.836,59.836,0,0,1,2.244,63.882C2.2,63.113.036,62.4.017,61.628Q0,60.9,0,60.167a60.167,60.167,0,0,1,120.333,0Z" transform="translate(0 0)" fill="#ffc143"/>
      <path id="Trazado_114274" data-name="Trazado 114274" d="M102.693,58.173a44.52,44.52,0,1,1-44.52-44.52A44.52,44.52,0,0,1,102.693,58.173Z" transform="translate(1.994 1.994)" fill="#ffcd6b"/>
      <path id="Trazado_114275" data-name="Trazado 114275" d="M.015,53.775h47.9V88.238H11.9A59.881,59.881,0,0,1,.015,53.775Z" transform="translate(0.002 7.853)" fill="#6f3f8b"/>
      <path id="Trazado_114276" data-name="Trazado 114276" d="M7.394,79.38H26.411a2.559,2.559,0,0,1,0,5.118H10.817A60.364,60.364,0,0,1,7.394,79.38Z" transform="translate(1.08 11.592)" fill="#5b3374"/>
      <path id="Trazado_114277" data-name="Trazado 114277" d="M50.087,80.877H73.909v23.858a60.035,60.035,0,0,1-21.057,3.788q-1.39,0-2.765-.063Z" transform="translate(7.314 11.811)" fill="#c96e59"/>
      <path id="Trazado_114278" data-name="Trazado 114278" d="M46.767,80.877h4.56V108.49q-2.3-.075-4.56-.322Z" transform="translate(6.829 11.811)" fill="#bb5d4c"/>
      <path id="Trazado_114279" data-name="Trazado 114279" d="M65.147,52.812,40.121,64.654A5.118,5.118,0,1,1,35.743,55.4L60.769,43.559a5.118,5.118,0,1,1,4.379,9.253Z" transform="translate(4.792 6.289)" fill="#6f3f8b"/>
      <path id="Trazado_114280" data-name="Trazado 114280" d="M110.665,78.88a54.878,54.878,0,1,1-72.033-70.7v3.868a51.352,51.352,0,1,0,68.2,66.831Z" transform="translate(0.674 1.195)" fill="#ff0364"/>
      <path id="Trazado_114281" data-name="Trazado 114281" d="M110.678,59.493a54.636,54.636,0,0,1-5.96,24.932,1.779,1.779,0,0,1-3.166-1.624A51.343,51.343,0,0,0,32.491,13.74a1.776,1.776,0,0,1-2.065-.326h0a1.779,1.779,0,0,1,.44-2.84,54.9,54.9,0,0,1,79.812,48.919Z" transform="translate(4.367 0.674)" fill="#ff3980"/>
      <path id="Trazado_114282" data-name="Trazado 114282" d="M90.315,33.232A4.7,4.7,0,0,1,84.8,29.515L81.256,11.274a4.7,4.7,0,1,1,9.228-1.794l3.547,18.241A4.7,4.7,0,0,1,90.315,33.232Z" transform="translate(11.853 0.829)" fill="#a44f3e"/>
      <path id="Trazado_114283" data-name="Trazado 114283" d="M102.009,28.555a4.679,4.679,0,0,1-.914,2.785l.013.024L74.4,65.8V96.43a59.978,59.978,0,0,1-23.361,4.7c-.142,0-4.266-14.174-4.266-14.174V50.085a4.689,4.689,0,0,1,1.362-3.691l26.51-26.51a4.774,4.774,0,0,1,6.6-.2,4.7,4.7,0,0,1,.123,6.767L62.5,45.316a2.644,2.644,0,0,0,3.739,3.739L92.608,22.69V5.165A4.774,4.774,0,0,1,97.137.355a4.7,4.7,0,0,1,4.872,4.7Z" transform="translate(6.828 0.051)" fill="#c96e59"/>
      <path id="Trazado_114284" data-name="Trazado 114284" d="M52.692,48.634a4.691,4.691,0,0,0-1.362,3.691v48.806h-.294q-2.159,0-4.28-.15V80.2h.014V50.085a4.689,4.689,0,0,1,1.362-3.691l26.51-26.51a4.774,4.774,0,0,1,6.6-.2,4.721,4.721,0,0,1,.842,1.042,4.88,4.88,0,0,0-2.885,1.4ZM97.138.355a4.774,4.774,0,0,0-4.529,4.81V22.69L66.32,48.979A2.649,2.649,0,0,0,70.8,51.3L97.169,24.931V7.4a4.789,4.789,0,0,1,4.165-4.783,4.7,4.7,0,0,0-4.2-2.268Z" transform="translate(6.828 0.051)" fill="#bb5d4c"/>
      <path id="Trazado_114285" data-name="Trazado 114285" d="M78.484,19.194a2.35,2.35,0,0,1,0,3.324L74.57,26.432a1.175,1.175,0,0,1-1.662,0L71.246,24.77a1.175,1.175,0,0,1,0-1.662l3.914-3.914A2.35,2.35,0,0,1,78.484,19.194ZM96.133,0a1.175,1.175,0,0,0-1.175,1.175v5.8a.881.881,0,0,0,.881.881H97.6a.881.881,0,0,0,.881-.881V2.35A2.35,2.35,0,0,0,96.133,0Z" transform="translate(10.354)" fill="#d78878"/>
      <path id="Trazado_114286" data-name="Trazado 114286" d="M90.1,67.939a5.118,5.118,0,0,1-5.118,5.118h-1.8a5.118,5.118,0,0,1,0,10.236h-5.85a5.118,5.118,0,1,1,0,10.236H50.8a7.676,7.676,0,0,1-5.011-1.852,14.016,14.016,0,0,0-9.136-3.267H26.78V53.949H46.422a7.673,7.673,0,0,1,4.38-1.365H83.84a5.118,5.118,0,0,1,0,10.236h1.139A5.119,5.119,0,0,1,90.1,67.939Z" transform="translate(3.911 7.679)" fill="#6f3f8b"/>
      <path id="Trazado_114287" data-name="Trazado 114287" d="M83.115,87A5.122,5.122,0,0,1,78.1,93.153H51.579A7.676,7.676,0,0,1,46.567,91.3a14.016,14.016,0,0,0-9.136-3.267H24.023a2.559,2.559,0,0,1,0-5.118H39.351a14.016,14.016,0,0,1,9.136,3.267A7.678,7.678,0,0,0,53.5,88.035H80.023A5.094,5.094,0,0,0,83.115,87ZM70.938,62.444H84.5a5.2,5.2,0,0,0,5.239-5.1,5.1,5.1,0,0,0-.477-2.178,5.119,5.119,0,0,1-4.641,2.958H70.938a2.16,2.16,0,0,0,0,4.32ZM83.953,78.6H70.274a2.16,2.16,0,0,0,0,4.32H83.832a5.2,5.2,0,0,0,5.239-5.1,5.1,5.1,0,0,0-.477-2.178A5.12,5.12,0,0,1,83.953,78.6ZM90.4,65.4a5.119,5.119,0,0,1-4.641,2.958H72.079a2.16,2.16,0,0,0,0,4.32H85.637a5.2,5.2,0,0,0,5.239-5.1A5.1,5.1,0,0,0,90.4,65.4Z" transform="translate(3.134 8.056)" fill="#5b3374"/>
      <path id="Trazado_114288" data-name="Trazado 114288" d="M95.786,95.786a1.763,1.763,0,0,1-2.493,0L19.115,21.608a1.763,1.763,0,0,1,2.493-2.493L95.786,93.293a1.763,1.763,0,0,1,0,2.493Z" transform="translate(2.716 2.716)" fill="#ff0364"/>
      <path id="Trazado_114289" data-name="Trazado 114289" d="M78.667,78.666a1.763,1.763,0,0,1-2.493,0L34.136,36.628a1.763,1.763,0,0,1,2.494-2.492L78.667,76.175a1.763,1.763,0,0,1,0,2.492Z" transform="translate(4.91 4.91)" fill="#ff3980"/>
      <path id="Trazado_114290" data-name="Trazado 114290" d="M38.012,46.345a1.192,1.192,0,0,0,1.146,1.519h3.959a1.192,1.192,0,0,1,1,1.836L28.277,74.345a1.192,1.192,0,0,1-2.191-.729l1.748-24.475a1.192,1.192,0,0,0-1.189-1.277H21.783a1.192,1.192,0,0,1-1.146-1.519L27.678,21.7a1.192,1.192,0,0,1,1.146-.864h14.9a1.192,1.192,0,0,1,1.146,1.519Z" transform="translate(3.007 3.043)" fill="#ffe7bf"/>
      <path id="Trazado_114291" data-name="Trazado 114291" d="M37.108,46.345a1.192,1.192,0,0,0,1.146,1.519h3.959a1.192,1.192,0,0,1,1,1.836l-10.7,16.652,1.512-21.173A1.192,1.192,0,0,0,32.835,43.9H27.973a1.192,1.192,0,0,1-1.146-1.519l6.157-21.547h9.833a1.192,1.192,0,0,1,1.146,1.519Z" transform="translate(3.911 3.043)" fill="#fff"/>
    </g>
  </g>
</svg>
