<svg xmlns="http://www.w3.org/2000/svg" xmlns:xlink="http://www.w3.org/1999/xlink" width="56" height="56" viewBox="0 0 56 56">
  <defs>
    <clipPath id="clip-path">
      <rect id="Rectángulo_34072" data-name="Rectángulo 34072" width="56" height="56" transform="translate(947 2467)" fill="#fff" stroke="#707070" stroke-width="1"/>
    </clipPath>
  </defs>
  <g id="Enmascarar_grupo_88" data-name="Enmascarar grupo 88" transform="translate(-947 -2467)" clip-path="url(#clip-path)">
    <g id="artritis" transform="translate(947 2467)">
      <path id="Trazado_117904" data-name="Trazado 117904" d="M37.829,55.18V39.6c0-3.982,1.086-12.528-.476-18.7C35.071,11.891,18.728.82,18.728.82H.821v16.4S6.138,28.429,16.839,31.309a84.949,84.949,0,0,0,.215,12.126A34.457,34.457,0,0,0,20.911,55.18Z" fill="#fed2a4"/>
      <path id="Trazado_117905" data-name="Trazado 117905" d="M37.353,20.9C35.071,11.891,18.728.82,18.728.82H14.309S30.652,11.891,32.933,20.9c1.562,6.17.476,14.716.476,18.7V55.18h4.419V39.6C37.829,35.619,38.915,27.073,37.353,20.9Z" fill="#ffbd86"/>
      <path id="Trazado_117906" data-name="Trazado 117906" d="M26.854,16.862s9.006,1.375,7.566,11.33H23.27l-2.862-5.008Z" fill="#fd8087"/>
      <path id="Trazado_117907" data-name="Trazado 117907" d="M30.652,23.187c-.206,0-.41.01-.613.026a7.336,7.336,0,0,0,.7-4.734,10.52,10.52,0,0,0-3.888-1.618l-6.446,6.322,2.862,5.008H34.42a12.7,12.7,0,0,0,0-3.948,7.239,7.239,0,0,0-3.4-1.047c-.125-.006-.251-.009-.375-.009Z" fill="#fe646f"/>
      <path id="Trazado_117908" data-name="Trazado 117908" d="M26.854,16.862a4.415,4.415,0,0,0-4.07-1.378,3.768,3.768,0,0,1-3.341-1.039L5.82.82h-5L.847,5.847l13.6,13.6a3.767,3.767,0,0,1,1.039,3.341,4.42,4.42,0,1,0,8.722,1.421,4.419,4.419,0,0,0,2.649-7.344Z" fill="#dff6fd"/>
      <path id="Trazado_117909" data-name="Trazado 117909" d="M26.854,16.862a4.415,4.415,0,0,0-4.07-1.378,3.768,3.768,0,0,1-3.341-1.039L5.82.82H.977L17.022,16.865A3.767,3.767,0,0,0,20.363,17.9a4.417,4.417,0,0,1,4.884,6.019,4.42,4.42,0,0,0,1.607-7.062Z" fill="#c8effe"/>
      <path id="Trazado_117910" data-name="Trazado 117910" d="M35.066,30.264a4.415,4.415,0,0,1-1.9,3.852,3.767,3.767,0,0,0-1.627,3.1V55.18H28v-11.4A3.221,3.221,0,0,0,26.232,40.9a3.221,3.221,0,0,1-1.768-2.875v-.813a3.768,3.768,0,0,0-1.627-3.1A4.42,4.42,0,1,1,28,26.944a4.42,4.42,0,0,1,7.066,3.32Z" fill="#dff6fd"/>
      <path id="Trazado_117911" data-name="Trazado 117911" d="M35.066,30.264a4.419,4.419,0,0,0-6.185-3.833,4.417,4.417,0,0,1,.747,7.686A3.767,3.767,0,0,0,28,37.214V55.18h3.536V37.214a3.768,3.768,0,0,1,1.627-3.1,4.415,4.415,0,0,0,1.9-3.852Z" fill="#c8effe"/>
      <g id="Grupo_84043" data-name="Grupo 84043">
        <path id="Trazado_117912" data-name="Trazado 117912" d="M51.138,13.224l4.041,4.041-5.122.212.227,2.13-7.877-.772,4.238-1.993-.089-2.156Z" fill="#ffe177"/>
        <path id="Trazado_117913" data-name="Trazado 117913" d="M41.738,6.274h5.715l-3.472,3.772,1.667,1.346-6.116,5.024L41.12,12.01l-1.587-1.462Z" fill="#ffe177"/>
        <path id="Trazado_117914" data-name="Trazado 117914" d="M51.535,25.694v5.715l-3.772-3.472L46.417,29.6l-5.024-6.116L45.8,25.075l1.462-1.587Z" fill="#ffe177"/>
      </g>
      <g id="Grupo_84044" data-name="Grupo 84044">
        <path id="Trazado_117915" data-name="Trazado 117915" d="M11.875,8.035a.82.82,0,1,0,1.16-1.16L6.4.24A.82.82,0,0,0,5.24,1.4Z"/>
        <path id="Trazado_117916" data-name="Trazado 117916" d="M35.27,28.025c.384-3.03.031-7.1-3.594-9.882A11.483,11.483,0,0,0,27.264,16.1a5.211,5.211,0,0,0-4.626-1.429,2.947,2.947,0,0,1-2.614-.812L15.741,9.581a.82.82,0,0,0-1.16,1.16l4.283,4.283a4.589,4.589,0,0,0,4.069,1.266,3.585,3.585,0,0,1,3.315,1.123,3.624,3.624,0,0,1,.007,4.826,3.557,3.557,0,0,1-2.164,1.155.82.82,0,0,0-.7.7,3.558,3.558,0,0,1-1.156,2.165,3.623,3.623,0,0,1-4.825-.007,3.586,3.586,0,0,1-1.123-3.316,4.589,4.589,0,0,0-1.266-4.069l-13.6-13.6a.82.82,0,0,0-1.16,1.16l13.6,13.6a2.948,2.948,0,0,1,.812,2.614,5.218,5.218,0,0,0,5.155,6.169,5.353,5.353,0,0,0,.566-.031,5.115,5.115,0,0,0-.283,1.449,5.218,5.218,0,0,0,2.256,4.566,2.948,2.948,0,0,1,1.274,2.423V55.18a.82.82,0,0,0,1.641,0v-13.9a4.1,4.1,0,0,0,.577.357,2.389,2.389,0,0,1,1.318,2.143v11.4a.82.82,0,0,0,1.641,0v-11.4A4.022,4.022,0,0,0,26.6,40.169a2.389,2.389,0,0,1-1.318-2.143v-.813A4.589,4.589,0,0,0,23.3,33.441a3.587,3.587,0,0,1-1.55-3.139,3.625,3.625,0,0,1,3.406-3.418,3.56,3.56,0,0,1,2.347.715.82.82,0,0,0,.985,0,3.568,3.568,0,0,1,2.347-.715A3.625,3.625,0,0,1,34.247,30.3a3.587,3.587,0,0,1-1.55,3.139,4.589,4.589,0,0,0-1.981,3.772V55.18a.82.82,0,1,0,1.641,0V37.213a2.949,2.949,0,0,1,1.274-2.423,5.218,5.218,0,0,0,2.256-4.566,5.145,5.145,0,0,0-.615-2.2Zm-4.347-2.779A5.257,5.257,0,0,0,28,25.96a5.261,5.261,0,0,0-2.923-.713c-.1,0-.192.013-.286.023q.062-.182.111-.368a5.231,5.231,0,0,0,3.66-6.67,9.482,9.482,0,0,1,2.117,1.213,7.973,7.973,0,0,1,3.077,6.829A5.183,5.183,0,0,0,30.923,25.246Z"/>
        <path id="Trazado_117917" data-name="Trazado 117917" d="M55.76,16.685l-4.041-4.041a.82.82,0,0,0-.83-.2L46.307,13.9a.82.82,0,0,0-.57.815l.066,1.612-3.745,1.762a.82.82,0,0,0,.269,1.559l7.877.772q.04,0,.08,0a.82.82,0,0,0,.816-.907l-.134-1.26,4.248-.176a.82.82,0,0,0,.546-1.4Zm-5.736-.028a.82.82,0,0,0-.782.906l.12,1.129-3.91-.383,1.542-.725a.82.82,0,0,0,.47-.776L47.4,15.278l3.51-1.12,2.366,2.366Z"/>
        <path id="Trazado_117918" data-name="Trazado 117918" d="M46.469,11.389a.82.82,0,0,0-.3-.635l-.986-.8L48.057,6.83a.82.82,0,0,0-.6-1.376H41.738a.82.82,0,0,0-.729.444L38.8,10.172a.82.82,0,0,0,.173.98l1.186,1.093-1.4,3.894a.82.82,0,0,0,1.292.912l6.116-5.024a.821.821,0,0,0,.3-.638Zm-5.155,2.5.577-1.6a.82.82,0,0,0-.216-.881l-1.127-1.038,1.69-3.274h3.345l-2.206,2.4a.82.82,0,0,0,.088,1.194l.883.713Z"/>
        <path id="Trazado_117919" data-name="Trazado 117919" d="M51.911,24.965l-4.274-2.206a.82.82,0,0,0-.98.173l-1.093,1.186-3.894-1.4a.82.82,0,0,0-.912,1.292l5.024,6.116a.82.82,0,0,0,.634.3h0a.82.82,0,0,0,.635-.3l.8-.986,3.128,2.879a.82.82,0,0,0,1.376-.6V25.693a.82.82,0,0,0-.444-.729Zm-1.2,4.574-2.4-2.206a.82.82,0,0,0-.556-.217l-.06,0a.82.82,0,0,0-.578.3l-.713.883-2.494-3.035,1.6.577a.82.82,0,0,0,.881-.216L47.441,24.5l3.274,1.69Z"/>
        <path id="Trazado_117920" data-name="Trazado 117920" d="M19.189.141a.82.82,0,0,0-.92,1.358c.161.109,16.111,11,18.289,19.6,1.14,4.5.827,10.4.6,14.708-.079,1.486-.147,2.77-.147,3.79V47.71a.82.82,0,0,0,1.641,0V39.6c0-.977.067-2.24.145-3.7.234-4.412.555-10.454-.646-15.2C35.816,11.493,19.866.6,19.189.141Z"/>
        <path id="Trazado_117921" data-name="Trazado 117921" d="M37.828,50.718a.82.82,0,0,0-.82.82V55.18a.82.82,0,1,0,1.641,0V51.538A.82.82,0,0,0,37.828,50.718Z"/>
        <path id="Trazado_117922" data-name="Trazado 117922" d="M17.869,43.346a84.671,84.671,0,0,1-.211-11.987.82.82,0,0,0-.605-.841A21.869,21.869,0,0,1,7.7,25.057a.82.82,0,1,0-1.13,1.189,23.739,23.739,0,0,0,9.414,5.672,82.8,82.8,0,0,0,.251,11.606A34.933,34.933,0,0,0,20.2,55.587a.82.82,0,0,0,1.424-.815,33.883,33.883,0,0,1-3.754-11.427Z"/>
        <path id="Trazado_117923" data-name="Trazado 117923" d="M1.562,16.868a.82.82,0,1,0-1.482.7,31.168,31.168,0,0,0,3.823,5.8A.82.82,0,1,0,5.17,22.326a30.13,30.13,0,0,1-3.608-5.457Z"/>
      </g>
    </g>
  </g>
</svg>
