<svg xmlns="http://www.w3.org/2000/svg" xmlns:xlink="http://www.w3.org/1999/xlink" width="51" height="51" viewBox="0 0 51 51">
  <defs>
    <clipPath id="clip-path">
      <rect id="Rectángulo_33921" data-name="Rectángulo 33921" width="51" height="51" transform="translate(319 7303)" fill="#fff" stroke="#707070" stroke-width="1"/>
    </clipPath>
  </defs>
  <g id="Enmascarar_grupo_59" data-name="Enmascarar grupo 59" transform="translate(-319 -7303)" clip-path="url(#clip-path)">
    <g id="densidad" transform="translate(319 7303)">
      <circle id="Elipse_4770" data-name="Elipse 4770" cx="19.923" cy="19.923" r="19.923" transform="translate(5.577 5.577)" fill="#ae774a"/>
      <path id="Trazado_116661" data-name="Trazado 116661" d="M37.054,9.267A19.925,19.925,0,0,1,9.267,37.054,19.924,19.924,0,1,0,37.054,9.267Z" fill="#7b4626"/>
      <circle id="Elipse_4771" data-name="Elipse 4771" cx="4.83" cy="4.83" r="4.83" transform="translate(20.67 5.577)" fill="#4d2410"/>
      <circle id="Elipse_4772" data-name="Elipse 4772" cx="4.83" cy="4.83" r="4.83" transform="translate(10.709 31.94)" fill="#4d2410"/>
      <circle id="Elipse_4773" data-name="Elipse 4773" cx="3.22" cy="3.22" r="3.22" transform="translate(22.28 38.983)" fill="#4d2410"/>
      <circle id="Elipse_4774" data-name="Elipse 4774" cx="3.22" cy="3.22" r="3.22" transform="translate(35.965 22.28)" fill="#4d2410"/>
      <circle id="Elipse_4775" data-name="Elipse 4775" cx="3.22" cy="3.22" r="3.22" transform="translate(12.319 13.023)" fill="#4d2410"/>
      <circle id="Elipse_4776" data-name="Elipse 4776" cx="1.61" cy="1.61" r="1.61" transform="translate(34.053 31.034)" fill="#4d2410"/>
      <g id="Grupo_80985" data-name="Grupo 80985">
        <circle id="Elipse_4777" data-name="Elipse 4777" cx="1.61" cy="1.61" r="1.61" transform="translate(32.644 17.45)" fill="#4d2410"/>
        <circle id="Elipse_4778" data-name="Elipse 4778" cx="1.61" cy="1.61" r="1.61" transform="translate(6.324 20.871)" fill="#4d2410"/>
        <circle id="Elipse_4779" data-name="Elipse 4779" cx="1.61" cy="1.61" r="1.61" transform="translate(12.721 25.299)" fill="#4d2410"/>
        <circle id="Elipse_4780" data-name="Elipse 4780" cx="1.61" cy="1.61" r="1.61" transform="translate(28.016 33.852)" fill="#4d2410"/>
      </g>
      <circle id="Elipse_4781" data-name="Elipse 4781" cx="2.415" cy="2.415" r="2.415" transform="translate(33.047 37.474)" fill="#4d2410"/>
      <circle id="Elipse_4782" data-name="Elipse 4782" cx="2.415" cy="2.415" r="2.415" transform="translate(35.562 10.809)" fill="#4d2410"/>
      <circle id="Elipse_4783" data-name="Elipse 4783" cx="6.44" cy="6.44" r="6.44" transform="translate(19.06 19.06)" fill="#4d2410"/>
      <g id="Grupo_80986" data-name="Grupo 80986">
        <path id="Trazado_116662" data-name="Trazado 116662" d="M43.531,7.469A25.5,25.5,0,0,0,7.469,43.531,25.5,25.5,0,0,0,43.531,7.469ZM42.475,42.475A24.006,24.006,0,0,1,8.525,8.525,24.006,24.006,0,0,1,42.475,42.475Z"/>
        <path id="Trazado_116663" data-name="Trazado 116663" d="M7.38,31.79A19.121,19.121,0,0,1,6.324,25.5c0-.424.015-.843.042-1.26A2.357,2.357,0,1,0,7.041,20.3,19.245,19.245,0,0,1,21.252,6.8a5.577,5.577,0,1,0,8.494,0,19.05,19.05,0,0,1,2.449.73.747.747,0,1,0,.522-1.4A20.682,20.682,0,0,0,5.969,32.281a.747.747,0,1,0,1.411-.49Zm.553-10.172a.863.863,0,1,1-.863.863A.864.864,0,0,1,7.934,21.618ZM29.583,10.407a4.083,4.083,0,1,1-4.1-4.082h.029a4.087,4.087,0,0,1,4.069,4.082Z"/>
        <path id="Trazado_116664" data-name="Trazado 116664" d="M43.361,15.091a20.79,20.79,0,0,0-7.381-7.41.747.747,0,1,0-.758,1.287A19.186,19.186,0,0,1,37.055,10.2a3.162,3.162,0,1,0,3.931,3.994,19.155,19.155,0,0,1-2.389,25.3,3.162,3.162,0,1,0-4.6,3.2,19.021,19.021,0,0,1-5.187,1.7,3.968,3.968,0,1,0-6.615,0A19.191,19.191,0,0,1,16.26,42.3a5.576,5.576,0,1,0-6.3-5.561,19.206,19.206,0,0,1-1.209-1.89.747.747,0,1,0-1.3.729A20.673,20.673,0,1,0,43.361,15.091Zm-5.384-.2a1.668,1.668,0,1,1,1.668-1.668A1.67,1.67,0,0,1,37.977,14.892ZM35.462,38.221a1.668,1.668,0,1,1-1.668,1.668A1.67,1.67,0,0,1,35.462,38.221ZM23.027,42.2a2.473,2.473,0,1,1,2.484,2.473h-.024a2.475,2.475,0,0,1-2.46-2.473Zm-7.489-9.516a4.083,4.083,0,1,1-4.083,4.083A4.087,4.087,0,0,1,15.538,32.687Z"/>
        <path id="Trazado_116665" data-name="Trazado 116665" d="M43.152,25.5a3.967,3.967,0,1,0-3.967,3.967A3.971,3.971,0,0,0,43.152,25.5Zm-6.44,0a2.473,2.473,0,1,1,2.473,2.473A2.476,2.476,0,0,1,36.712,25.5Z"/>
        <path id="Trazado_116666" data-name="Trazado 116666" d="M19.505,16.243a3.967,3.967,0,1,0-3.967,3.967A3.971,3.971,0,0,0,19.505,16.243Zm-3.967,2.473a2.473,2.473,0,1,1,2.473-2.473A2.476,2.476,0,0,1,15.538,18.716Z"/>
        <path id="Trazado_116667" data-name="Trazado 116667" d="M33.306,32.644a2.357,2.357,0,1,0,2.357-2.357A2.36,2.36,0,0,0,33.306,32.644Zm3.22,0a.863.863,0,1,1-.863-.863A.864.864,0,0,1,36.526,32.644Z"/>
        <path id="Trazado_116668" data-name="Trazado 116668" d="M34.254,16.7a2.357,2.357,0,1,0,2.357,2.357A2.36,2.36,0,0,0,34.254,16.7Zm0,3.22a.863.863,0,1,1,.863-.863A.864.864,0,0,1,34.254,19.923Z"/>
        <path id="Trazado_116669" data-name="Trazado 116669" d="M11.974,26.909a2.357,2.357,0,1,0,2.357-2.357,2.36,2.36,0,0,0-2.357,2.357Zm3.22,0a.863.863,0,1,1-.863-.863A.864.864,0,0,1,15.194,26.909Z"/>
        <path id="Trazado_116670" data-name="Trazado 116670" d="M27.268,35.462A2.357,2.357,0,1,0,29.626,33.1,2.36,2.36,0,0,0,27.268,35.462Zm3.22,0a.863.863,0,1,1-.863-.863A.864.864,0,0,1,30.488,35.462Z"/>
        <path id="Trazado_116671" data-name="Trazado 116671" d="M25.5,18.313a7.19,7.19,0,0,0-6.255,10.73.747.747,0,1,0,1.3-.737,5.691,5.691,0,1,1,2.163,2.156.747.747,0,0,0-.735,1.3A7.187,7.187,0,1,0,25.5,18.313Z"/>
      </g>
    </g>
  </g>
</svg>
