<svg xmlns="http://www.w3.org/2000/svg" width="385.153" height="689.901" viewBox="0 0 385.153 689.901">
  <g id="Grupo_1003908" data-name="Grupo 1003908" transform="translate(3347.812 9073)">
    <path id="Trazado_118338" data-name="Trazado 118338" d="M-861-8878s-10.667,1.307-10.667,11.755,5.867,10.264,6.133,22.578S-877-8826.873-877-8826.873s12,9.517,11.467,16.607-6.133,19.219-6.133,24.63S-869.8-8778.357-861-8775" transform="translate(-2327 -87.001)" fill="none" stroke="#0b481e" stroke-width="3"/>
    <path id="Trazado_118341" data-name="Trazado 118341" d="M-861-8878s-10.667,1.307-10.667,11.755,5.867,10.264,6.133,22.578S-877-8826.873-877-8826.873s12,9.517,11.467,16.607-6.133,19.219-6.133,24.63S-869.8-8778.357-861-8775" transform="translate(-2327 390.499)" fill="none" stroke="#0b481e" stroke-width="3"/>
    <path id="Trazado_118339" data-name="Trazado 118339" d="M-861-8878s-10.667,1.967-10.667,17.689,5.867,15.445,6.133,33.977S-877-8801.061-877-8801.061s12,14.32,11.467,24.99-6.133,28.922-6.133,37.064S-869.8-8728.053-861-8723" transform="translate(-2327 204.499)" fill="none" stroke="#0b481e" stroke-width="3"/>
    <path id="Trazado_118340" data-name="Trazado 118340" d="M-861-8878s-10.667,1.534-10.667,13.809,5.867,12.058,6.133,26.523A21.232,21.232,0,0,1-877-8817.937s12,11.18,11.467,19.51-6.133,22.577-6.133,28.934,1.867,8.551,10.667,12.5" transform="translate(-2327 53.499)" fill="none" stroke="#0b481e" stroke-width="3"/>
    <text id="Formato_o_soporte" data-name="Formato o
soporte" transform="translate(-3283 -8920.501)" fill="#12263f" font-size="20" font-family="Roboto-Black, Roboto" font-weight="800"><tspan x="-45.698" y="0">Formato o</tspan><tspan x="-34.893" y="27">soporte</tspan></text>
    <text id="Textual_o_escritura_Digital_o_audiovisuales" data-name="Textual o escritura
Digital o audiovisuales" transform="translate(-3155 -8923.501)" fill="#12263f" font-size="18" font-family="Roboto-Regular, Roboto"><tspan x="0" y="0">Textual o escritura</tspan><tspan x="0" y="33">Digital o audiovisuales</tspan></text>
    <text id="Generales_Especializadas" data-name="Generales
Especializadas" transform="translate(-3155 -8446.001)" fill="#12263f" font-size="18" font-family="Roboto-Regular, Roboto"><tspan x="0" y="0">Generales</tspan><tspan x="0" y="33">Especializadas</tspan></text>
    <text id="Nacionales_Internacionales_Regionales_Locales" data-name="Nacionales
Internacionales
Regionales
Locales" transform="translate(-3155 -8639.001)" fill="#12263f" font-size="18" font-family="Roboto-Regular, Roboto"><tspan x="0" y="0">Nacionales</tspan><tspan x="0" y="33">Internacionales</tspan><tspan x="0" y="66">Regionales</tspan><tspan x="0" y="99">Locales</tspan></text>
    <text id="Personales_Institucionales_Documentales" data-name="Personales
Institucionales
Documentales" transform="translate(-3155 -8791.001)" fill="#12263f" font-size="18" font-family="Roboto-Regular, Roboto"><tspan x="0" y="0">Personales</tspan><tspan x="0" y="33">Institucionales</tspan><tspan x="0" y="66">Documentales</tspan></text>
    <text id="Cobertura_geográfica" data-name="Cobertura
geográfica" transform="translate(-3283 -8619.501)" fill="#12263f" font-size="20" font-family="Roboto-Black, Roboto" font-weight="800"><tspan x="-45.308" y="0">Cobertura</tspan><tspan x="-48.374" y="27">geográfica</tspan></text>
    <text id="Procedencia_u_origen" data-name="Procedencia
u origen" transform="translate(-3283 -8770.501)" fill="#12263f" font-size="20" font-family="Roboto-Black, Roboto" font-weight="800"><tspan x="-56.338" y="0">Procedencia</tspan><tspan x="-37.119" y="27">u origen</tspan></text>
    <text id="Tipo_de_información" data-name="Tipo de
información" transform="translate(-3283 -8442.501)" fill="#12263f" font-size="20" font-family="Roboto-Black, Roboto" font-weight="800"><tspan x="-33.857" y="0">Tipo de</tspan><tspan x="-54.536" y="27">información</tspan></text>
    <circle id="Elipse_4852" data-name="Elipse 4852" cx="3.5" cy="3.5" r="3.5" transform="translate(-3175 -8934.501)" fill="#ffa686"/>
    <circle id="Elipse_4880" data-name="Elipse 4880" cx="3.5" cy="3.5" r="3.5" transform="translate(-3175 -8800.501)" fill="#ffa686"/>
    <circle id="Elipse_4882" data-name="Elipse 4882" cx="3.5" cy="3.5" r="3.5" transform="translate(-3175 -8650.501)" fill="#ffa686"/>
    <circle id="Elipse_4884" data-name="Elipse 4884" cx="3.5" cy="3.5" r="3.5" transform="translate(-3175 -8583.501)" fill="#ffa686"/>
    <circle id="Elipse_4886" data-name="Elipse 4886" cx="3.5" cy="3.5" r="3.5" transform="translate(-3175 -8455.501)" fill="#ffa686"/>
    <circle id="Elipse_4878" data-name="Elipse 4878" cx="3.5" cy="3.5" r="3.5" transform="translate(-3175 -8900.501)" fill="#ffa686"/>
    <circle id="Elipse_4879" data-name="Elipse 4879" cx="3.5" cy="3.5" r="3.5" transform="translate(-3175 -8766.501)" fill="#ffa686"/>
    <circle id="Elipse_4887" data-name="Elipse 4887" cx="3.5" cy="3.5" r="3.5" transform="translate(-3175 -8736.501)" fill="#ffa686"/>
    <circle id="Elipse_4881" data-name="Elipse 4881" cx="3.5" cy="3.5" r="3.5" transform="translate(-3175 -8616.501)" fill="#ffa686"/>
    <circle id="Elipse_4883" data-name="Elipse 4883" cx="3.5" cy="3.5" r="3.5" transform="translate(-3175 -8549.501)" fill="#ffa686"/>
    <circle id="Elipse_4885" data-name="Elipse 4885" cx="3.5" cy="3.5" r="3.5" transform="translate(-3175 -8421.501)" fill="#ffa686"/>
    <g id="Grupo_1003907" data-name="Grupo 1003907" transform="translate(-3659 -12121.7)">
      <rect id="Rectángulo_34148" data-name="Rectángulo 34148" width="222" height="58" rx="29" transform="translate(390 3048.7)" fill="#adce32"/>
      <text id="Fuentes_de_información" data-name="Fuentes de información" transform="translate(501 3083.7)" fill="#12263f" font-size="15" font-family="Roboto-Black, Roboto" font-weight="800"><tspan x="-80.002" y="0">Fuentes de información</tspan></text>
    </g>
    <path id="Trazado_118361" data-name="Trazado 118361" d="M-862.4-8878s-9.733,4.857-9.733,43.71,5.353,38.164,5.6,83.954S-882-8687.888-882-8687.888s15.95,35.385,15.463,61.751-5.6,71.464-5.6,91.587,1.7,27.062,9.733,39.55" transform="translate(-11842 -8122.2) rotate(90)" fill="none" stroke="#0b481e" stroke-width="3"/>
  </g>
</svg>
