<?xml version="1.0" encoding="utf-8"?>
<!-- Generator: Adobe Illustrator 28.3.0, SVG Export Plug-In . SVG Version: 6.00 Build 0)  -->
<svg version="1.1" id="Capa_1" xmlns="http://www.w3.org/2000/svg" xmlns:xlink="http://www.w3.org/1999/xlink" x="0px" y="0px"
	 viewBox="0 0 1359 1349.2" style="enable-background:new 0 0 1359 1349.2;" xml:space="preserve">
<style type="text/css">
	.st0{clip-path:url(#SVGID_00000168832976830183464270000004742626822798281614_);}
	.st1{fill:#FFFFFF;}
	.st2{fill:#0B481E;}
	.st3{fill:#ADCE32;}
	.st4{fill:#CEE284;}
	.st5{fill:#DEEBAD;}
	.st6{fill:#FFE9E1;}
	.st7{fill:#EFF5D6;}
	.st8{font-family:'Roboto-Bold';}
	.st9{font-size:20px;}
	.st10{fill:#12263F;}
	.st11{font-size:16px;}
	.st12{font-family:'Roboto-Regular';}
	.st13{fill:none;stroke:#0B481E;stroke-width:3;}
	.st14{fill:none;stroke:#0B481E;stroke-width:3;stroke-linecap:round;}
	.st15{font-family:'Roboto-Italic';}
</style>
<g>
	<defs>
		<rect id="SVGID_1_" x="-92.2" width="1600" height="1919.8"/>
	</defs>
	<clipPath id="SVGID_00000134963492844430360440000017340579663119969715_">
		<use xlink:href="#SVGID_1_"  style="overflow:visible;"/>
	</clipPath>
	<g id="Sintesis" style="clip-path:url(#SVGID_00000134963492844430360440000017340579663119969715_);">
		<rect x="-2.2" class="st1" width="1360" height="1349.8"/>
		<g id="Grupo_84078" transform="translate(0 -88)">
			<path id="Rectángulo_34091" class="st2" d="M544.2,145h328c19.9,0,36,16.1,36,36l0,0c0,19.9-16.1,36-36,36h-328
				c-19.9,0-36-16.1-36-36l0,0C508.2,161.1,524.3,145,544.2,145z"/>
			<path id="Rectángulo_34092" class="st3" d="M567.2,276h282c5.5,0,10,4.5,10,10v52c0,5.5-4.5,10-10,10h-282c-5.5,0-10-4.5-10-10
				v-52C557.2,280.5,561.7,276,567.2,276z"/>
			<path id="Rectángulo_34094" class="st4" d="M120.2,327h182c5.5,0,10,4.5,10,10v52c0,5.5-4.5,10-10,10h-182c-5.5,0-10-4.5-10-10
				v-52C110.2,331.5,114.7,327,120.2,327z"/>
			<path id="Rectángulo_34100" class="st4" d="M1136.2,339h138c5.5,0,10,4.5,10,10v26c0,5.5-4.5,10-10,10h-138c-5.5,0-10-4.5-10-10
				v-26C1126.2,343.5,1130.7,339,1136.2,339z"/>
			<path id="Rectángulo_34118" class="st5" d="M1136.2,414h138c5.5,0,10,4.5,10,10v26c0,5.5-4.5,10-10,10h-138c-5.5,0-10-4.5-10-10
				v-26C1126.2,418.5,1130.7,414,1136.2,414z"/>
			<path id="Rectángulo_34119" class="st5" d="M1136.2,489h138c5.5,0,10,4.5,10,10v44c0,5.5-4.5,10-10,10h-138c-5.5,0-10-4.5-10-10
				v-44C1126.2,493.5,1130.7,489,1136.2,489z"/>
			<path id="Rectángulo_34120" class="st6" d="M1136.2,584h138c5.5,0,10,4.5,10,10v157c0,5.5-4.5,10-10,10h-138
				c-5.5,0-10-4.5-10-10V594C1126.2,588.5,1130.7,584,1136.2,584z"/>
			<path id="Rectángulo_34095" class="st4" d="M120.2,430h182c5.5,0,10,4.5,10,10v52c0,5.5-4.5,10-10,10h-182c-5.5,0-10-4.5-10-10
				v-52C110.2,434.5,114.7,430,120.2,430z"/>
			<path id="Rectángulo_34096" class="st4" d="M120.2,533h182c5.5,0,10,4.5,10,10v52c0,5.5-4.5,10-10,10h-182c-5.5,0-10-4.5-10-10
				v-52C110.2,537.5,114.7,533,120.2,533z"/>
			<path id="Rectángulo_34101" class="st7" d="M211.2,636h182c5.5,0,10,4.5,10,10v52c0,5.5-4.5,10-10,10h-182c-5.5,0-10-4.5-10-10
				v-52C201.2,640.5,205.7,636,211.2,636z"/>
			<path id="Rectángulo_34105" class="st7" d="M124.2,1046h182c5.5,0,10,4.5,10,10v52c0,5.5-4.5,10-10,10h-182c-5.5,0-10-4.5-10-10
				v-52C114.2,1050.5,118.7,1046,124.2,1046z"/>
			<path id="Rectángulo_34103" class="st7" d="M211.2,800h182c5.5,0,10,4.5,10,10v52c0,5.5-4.5,10-10,10h-182c-5.5,0-10-4.5-10-10
				v-52C201.2,804.5,205.7,800,211.2,800z"/>
			<path id="Rectángulo_34106" class="st7" d="M124.2,1210h182c5.5,0,10,4.5,10,10v52c0,5.5-4.5,10-10,10h-182c-5.5,0-10-4.5-10-10
				v-52C114.2,1214.5,118.7,1210,124.2,1210z"/>
			<path id="Rectángulo_34102" class="st7" d="M211.2,718h182c5.5,0,10,4.5,10,10v52c0,5.5-4.5,10-10,10h-182c-5.5,0-10-4.5-10-10
				v-52C201.2,722.5,205.7,718,211.2,718z"/>
			<path id="Rectángulo_34107" class="st7" d="M124.2,1128h182c5.5,0,10,4.5,10,10v52c0,5.5-4.5,10-10,10h-182c-5.5,0-10-4.5-10-10
				v-52C114.2,1132.5,118.7,1128,124.2,1128z"/>
			<path id="Rectángulo_34104" class="st7" d="M211.2,882h182c5.5,0,10,4.5,10,10v52c0,5.5-4.5,10-10,10h-182c-5.5,0-10-4.5-10-10
				v-52C201.2,886.5,205.7,882,211.2,882z"/>
			<path id="Rectángulo_34108" class="st7" d="M124.2,1292h182c5.5,0,10,4.5,10,10v52c0,5.5-4.5,10-10,10h-182c-5.5,0-10-4.5-10-10
				v-52C114.2,1296.5,118.7,1292,124.2,1292z"/>
			<path id="Rectángulo_34093" class="st3" d="M567.2,378h282c5.5,0,10,4.5,10,10v52c0,5.5-4.5,10-10,10h-282c-5.5,0-10-4.5-10-10
				v-52C557.2,382.5,561.7,378,567.2,378z"/>
			<path id="Rectángulo_34097" class="st3" d="M623.2,481h170c5.5,0,10,4.5,10,10v52c0,5.5-4.5,10-10,10h-170c-5.5,0-10-4.5-10-10
				v-52C613.2,485.5,617.7,481,623.2,481z"/>
			<path id="Rectángulo_34109" class="st5" d="M676.2,600h117c5.5,0,10,4.5,10,10v27c0,5.5-4.5,10-10,10h-117c-5.5,0-10-4.5-10-10
				v-27C666.2,604.5,670.7,600,676.2,600z"/>
			<path id="Rectángulo_34114" class="st5" d="M889.2,577h114c5.5,0,10,4.5,10,10v27c0,5.5-4.5,10-10,10h-114c-5.5,0-10-4.5-10-10
				v-27C879.2,581.5,883.7,577,889.2,577z"/>
			<path id="Rectángulo_34116" class="st5" d="M889.2,896h114c5.5,0,10,4.5,10,10v75c0,5.5-4.5,10-10,10h-114c-5.5,0-10-4.5-10-10
				v-75C879.2,900.5,883.7,896,889.2,896z"/>
			<path id="Rectángulo_34117" class="st6" d="M889.2,1020h211c5.5,0,10,4.5,10,10v108c0,5.5-4.5,10-10,10h-211
				c-5.5,0-10-4.5-10-10v-108C879.2,1024.5,883.7,1020,889.2,1020z"/>
			<path id="Rectángulo_34110" class="st5" d="M676.2,657h117c5.5,0,10,4.5,10,10v27c0,5.5-4.5,10-10,10h-117c-5.5,0-10-4.5-10-10
				v-27C666.2,661.5,670.7,657,676.2,657z"/>
			<path id="Rectángulo_34111" class="st5" d="M676.2,714h117c5.5,0,10,4.5,10,10v27c0,5.5-4.5,10-10,10h-117c-5.5,0-10-4.5-10-10
				v-27C666.2,718.5,670.7,714,676.2,714z"/>
			<path id="Rectángulo_34112" class="st5" d="M676.2,771h117c5.5,0,10,4.5,10,10v69c0,5.5-4.5,10-10,10h-117c-5.5,0-10-4.5-10-10
				v-69C666.2,775.5,670.7,771,676.2,771z"/>
			<path id="Rectángulo_34113" class="st6" d="M656.2,894h157c5.5,0,10,4.5,10,10v69c0,5.5-4.5,10-10,10h-157c-5.5,0-10-4.5-10-10
				v-69C646.2,898.5,650.7,894,656.2,894z"/>
			<path id="Rectángulo_34099" class="st3" d="M833.2,481h215c5.5,0,10,4.5,10,10v52c0,5.5-4.5,10-10,10h-215c-5.5,0-10-4.5-10-10
				v-52C823.2,485.5,827.7,481,833.2,481z"/>
			<path id="Rectángulo_34098" class="st3" d="M365.2,481h218c5.5,0,10,4.5,10,10v119c0,5.5-4.5,10-10,10h-218c-5.5,0-10-4.5-10-10
				V491C355.2,485.5,359.7,481,365.2,481z"/>
			<text transform="matrix(1 0 0 1 554.4593 188)" class="st1 st8 st9">PROPUESTAS AGROECOLÓGICAS</text>
			<text transform="matrix(1 0 0 1 604.0673 319)" class="st10 st8 st11">Caracterización del territorio</text>
			<text transform="matrix(1 0 0 1 135.5473 369)" class="st10 st8 st11">Analiza y comprende</text>
			<text transform="matrix(1 0 0 1 1171.0243 368)" class="st10 st8 st11">Territorio</text>
			<text transform="matrix(1 0 0 1 1153.2502 443)" class="st10 st12 st11">Usos del suelo</text>
			<text transform="matrix(1 0 0 1 1149.6722 518)" class="st10 st12 st11">Características </text>
			<text transform="matrix(1 0 0 1 1170.7032 538)" class="st10 st12 st11">biofísicas</text>
			<text transform="matrix(1 0 0 1 1161.1803 613)" class="st10 st12 st11">Textura</text>
			<text transform="matrix(1 0 0 1 1161.1803 633)" class="st10 st12 st11">pH</text>
			<text transform="matrix(1 0 0 1 1161.1803 653)" class="st10 st12 st11">Color</text>
			<text transform="matrix(1 0 0 1 1161.1803 673)" class="st10 st12 st11">Densidad</text>
			<text transform="matrix(1 0 0 1 1161.1803 693)" class="st10 st12 st11">Fertilidad</text>
			<text transform="matrix(1 0 0 1 1161.1803 713)" class="st10 st12 st11">Estructura</text>
			<text transform="matrix(1 0 0 1 1161.1803 733)" class="st10 st12 st11">Organismos</text>
			<text transform="matrix(1 0 0 1 133.4773 472)" class="st10 st8 st11">Actores comunitarios</text>
			<text transform="matrix(1 0 0 1 156.4103 575)" class="st10 st8 st11">Características</text>
			<text transform="matrix(1 0 0 1 239.0203 668)" class="st10 st12 st11">Influyentes por su</text>
			<text transform="matrix(1 0 0 1 239.0393 688)" class="st10 st12 st11">poder de decisión</text>
			<text transform="matrix(1 0 0 1 162.0553 1078)" class="st10 st12 st11">Diversidad étnica</text>
			<text transform="matrix(1 0 0 1 191.0083 1098)" class="st10 st12 st11">y cultural</text>
			<text transform="matrix(1 0 0 1 225.5283 832)" class="st10 st12 st11">Identifican en grupos </text>
			<text transform="matrix(1 0 0 1 267.2463 852)" class="st10 st12 st11">de interés</text>
			<text transform="matrix(1 0 0 1 139.4773 1242)" class="st10 st12 st11">Hábitos y costumbre </text>
			<text transform="matrix(1 0 0 1 172.1213 1262)" class="st10 st12 st11">alimenticias</text>
			<text transform="matrix(1 0 0 1 227.8053 750)" class="st10 st12 st11">Capitalizan mejor las</text>
			<text transform="matrix(1 0 0 1 250.5473 770)" class="st10 st12 st11">oportunidades</text>
			<text transform="matrix(1 0 0 1 146.6213 1160)" class="st10 st12 st11">Enfoque diferencial </text>
			<text transform="matrix(1 0 0 1 174.1143 1180)" class="st10 st12 st11">y de género</text>
			<text transform="matrix(1 0 0 1 241.9423 914)" class="st10 st12 st11">Aporta de forma </text>
			<text transform="matrix(1 0 0 1 257.1493 934)" class="st10 st12 st11">transparente</text>
			<text transform="matrix(1 0 0 1 166.3133 1324)" class="st10 st12 st11">Participación </text>
			<text transform="matrix(1 0 0 1 178.1493 1344)" class="st10 st12 st11">ciudadana</text>
			<text transform="matrix(1 0 0 1 607.3993 421)" class="st10 st8 st11">Metodologías participativas</text>
			<text transform="matrix(1 0 0 1 647.4893 524)" class="st10 st12 st11">Métodos análisis</text>
			<text transform="matrix(1 0 0 1 685.5163 629)" class="st10 st12 st11">Cualitativas</text>
			<text transform="matrix(1 0 0 1 897.7463 606)" class="st10 st12 st11">Diagnóstico</text>
			<text transform="matrix(1 0 0 1 905.1803 929)" class="st10 st12 st11">Planeación</text>
			<text transform="matrix(1 0 0 1 905.1803 949)" class="st10 st12 st11">monitoreo</text>
			<text transform="matrix(1 0 0 1 905.1803 969)" class="st10 st12 st11">evaluación.</text>
			<text transform="matrix(1 0 0 1 905.1803 1051)" class="st10 st12 st11">Matrices reflexivas</text>
			<text transform="matrix(1 0 0 1 905.1803 1071)" class="st10 st12 st11">Matriz de evaluación</text>
			<text transform="matrix(1 0 0 1 905.1803 1091)" class="st10 st12 st11">Presupuesto colaborativo</text>
			<text transform="matrix(1 0 0 1 905.1803 1111)" class="st10 st12 st11">Conferencia de consenso</text>
			<text transform="matrix(1 0 0 1 905.1803 1131)" class="st10 st12 st11">Taller</text>
			<text transform="matrix(1 0 0 1 686.4303 686)" class="st10 st12 st11">Cuantitativas</text>
			<text transform="matrix(1 0 0 1 685.2003 743)" class="st10 st12 st11">Mixtas</text>
			<text transform="matrix(1 0 0 1 680.1373 800)" class="st10 st12 st11">Investigación y </text>
			<text transform="matrix(1 0 0 1 709.5353 820)" class="st10 st12 st11">acción </text>
			<text transform="matrix(1 0 0 1 674.7703 840)" class="st10 st12 st11">participativa AIP</text>
			<text transform="matrix(1 0 0 1 673.3403 923)" class="st10 st12 st11">Relación entre el </text>
			<text transform="matrix(1 0 0 1 661.4533 943)" class="st10 st12 st11">problema social y el </text>
			<text transform="matrix(1 0 0 1 671.2853 963)" class="st10 st12 st11">sujeto de estudio</text>
			<text transform="matrix(1 0 0 1 854.6533 524)" class="st10 st12 st11">Técnicas y herramientas</text>
			<text transform="matrix(1 0 0 1 398.8953 516)" class="st10 st12 st11">Generan procesos de </text>
			<text transform="matrix(1 0 0 1 420.4223 536)" class="st10 st12 st11">cambios social</text>
			<text transform="matrix(1 0 0 1 401.2663 556)" class="st10 st12 st11">Fomenta interacción </text>
			<text transform="matrix(1 0 0 1 391.8873 576)" class="st10 st12 st11">interna y externa de los </text>
			<text transform="matrix(1 0 0 1 449.3993 596)" class="st10 st12 st11">grupos</text>
			<g id="Grupo_84067">
				<line id="Línea_154" class="st13" x1="707.7" y1="217.5" x2="707.7" y2="274.5"/>
				<path id="Trazado_118034" class="st14" d="M697.8,268.8l10,6l10-6"/>
			</g>
			<g id="Grupo_84069" transform="translate(1253.499 113) rotate(90)">
				<line id="Línea_154-2" class="st13" x1="249.8" y1="723.8" x2="249.8" y2="941"/>
				<path id="Trazado_118034-2" class="st14" d="M240,935.3l10,6l10-6"/>
			</g>
			<g id="Grupo_84068" transform="translate(0 101.834)">
				<line id="Línea_154-3" class="st13" x1="707.7" y1="245.7" x2="707.7" y2="274.5"/>
				<path id="Trazado_118034-3" class="st14" d="M697.8,268.8l10,6l10-6"/>
			</g>
			<g id="Grupo_84072" transform="translate(0 204.834)">
				<line id="Línea_154-4" class="st13" x1="707.7" y1="245.7" x2="707.7" y2="274.5"/>
				<path id="Trazado_118034-4" class="st14" d="M697.8,268.8l10,6l10-6"/>
			</g>
			<g id="Grupo_84073" transform="translate(28.833 614.334)">
				<line id="Línea_154-5" class="st13" x1="707.7" y1="245.7" x2="707.7" y2="274.5"/>
				<path id="Trazado_118034-5" class="st14" d="M697.8,268.8l10,6l10-6"/>
			</g>
			<g id="Grupo_84075" transform="translate(190 378.334)">
				<line id="Línea_154-6" class="st13" x1="707.7" y1="245.7" x2="707.7" y2="274.5"/>
				<path id="Trazado_118034-6" class="st14" d="M697.8,268.8l10,6l10-6"/>
			</g>
			<g id="Grupo_84077" transform="translate(447 307.334)">
				<line id="Línea_154-7" class="st13" x1="707.7" y1="245.7" x2="707.7" y2="274.5"/>
				<path id="Trazado_118034-7" class="st14" d="M697.8,268.8l10,6l10-6"/>
			</g>
			<g id="Grupo_84076" transform="translate(190 745.166)">
				<line id="Línea_154-8" class="st13" x1="707.7" y1="245.7" x2="707.7" y2="274.5"/>
				<path id="Trazado_118034-8" class="st14" d="M697.8,268.8l10,6l10-6"/>
			</g>
			<g id="Grupo_84070" transform="translate(-496.667 153.75)">
				<line id="Línea_154-9" class="st13" x1="707.7" y1="245.7" x2="707.7" y2="274.5"/>
				<path id="Trazado_118034-9" class="st14" d="M697.8,268.8l10,6l10-6"/>
			</g>
			<g id="Grupo_84071" transform="translate(-496.667 256.75)">
				<line id="Línea_154-10" class="st13" x1="707.7" y1="245.7" x2="707.7" y2="274.5"/>
				<path id="Trazado_118034-10" class="st14" d="M697.8,268.8l10,6l10-6"/>
			</g>
			<path id="Trazado_118035" class="st13" d="M556.7,312h-25.5v102h25.5"/>
			<path id="Trazado_118036" class="st13" d="M474.2,481v-18h467v18"/>
			<path id="Trazado_118037" class="st13" d="M1205.2,339v-27H857.8"/>
			<path id="Trazado_118038" class="st13" d="M200.8,918.5h-25.7V605"/>
			<path id="Trazado_118040" class="st13" d="M665.8,817h-25.7V553"/>
			<path id="Trazado_118041" class="st13" d="M878.8,943.5h-25.7V553"/>
			<line id="Línea_155" class="st13" x1="201.2" y1="672" x2="175.2" y2="672"/>
			<line id="Línea_164" class="st13" x1="666.2" y1="620" x2="640.2" y2="620"/>
			<line id="Línea_167" class="st13" x1="879.2" y1="600" x2="853.2" y2="600"/>
			<line id="Línea_156" class="st13" x1="201.2" y1="754" x2="175.2" y2="754"/>
			<line id="Línea_165" class="st13" x1="666.2" y1="682" x2="640.2" y2="682"/>
			<line id="Línea_157" class="st13" x1="201.2" y1="836" x2="175.2" y2="836"/>
			<line id="Línea_166" class="st13" x1="666.2" y1="739" x2="640.2" y2="739"/>
			<line id="Línea_158" class="st13" x1="114.2" y1="1083" x2="88.2" y2="1083"/>
			<line id="Línea_159" class="st13" x1="114.2" y1="1165" x2="88.2" y2="1165"/>
			<line id="Línea_160" class="st13" x1="114.2" y1="1247" x2="88.2" y2="1247"/>
			<path id="Trazado_118039" class="st13" d="M110.2,463H87.8v865.5h26.8"/>
			<circle id="Elipse_4835" class="st2" cx="896.2" cy="1044" r="4"/>
			<circle id="Elipse_4842" class="st2" cx="1153.2" cy="608" r="4"/>
			<circle id="Elipse_4844" class="st2" cx="1153.2" cy="648" r="4"/>
			<circle id="Elipse_4843" class="st2" cx="1153.2" cy="630" r="4"/>
			<circle id="Elipse_4846" class="st2" cx="1153.2" cy="688" r="4"/>
			<circle id="Elipse_4848" class="st2" cx="1153.2" cy="728" r="4"/>
			<circle id="Elipse_4845" class="st2" cx="1153.2" cy="668" r="4"/>
			<circle id="Elipse_4847" class="st2" cx="1153.2" cy="708" r="4"/>
			<circle id="Elipse_4836" class="st2" cx="896.2" cy="1084" r="4"/>
			<circle id="Elipse_4837" class="st2" cx="896.2" cy="1124" r="4"/>
			<circle id="Elipse_4840" class="st2" cx="896.2" cy="1067" r="4"/>
			<circle id="Elipse_4841" class="st2" cx="896.2" cy="1104" r="4"/>
			<g id="Grupo_84074" transform="translate(-154 79)">
				<path id="Rectángulo_34115" class="st6" d="M1043.2,577h190c5.5,0,10,4.5,10,10v190c0,5.5-4.5,10-10,10h-190
					c-5.5,0-10-4.5-10-10V587C1033.2,581.5,1037.7,577,1043.2,577z"/>
				<text transform="matrix(1 0 0 1 1059.1803 608)" class="st10 st12 st11">Consulta popular</text>
				<text transform="matrix(1 0 0 1 1059.1803 628)" class="st10 st12 st11">Matriz DAFO</text>
				<text transform="matrix(1 0 0 1 1059.1803 648)" class="st10 st12 st11">Sociograma</text>
				<text transform="matrix(1 0 0 1 1059.1803 668)" class="st10 st12 st11">Flujograma</text>
				<text transform="matrix(1 0 0 1 1059.1803 688)" class="st10 st12 st11">Transectos</text>
				<text transform="matrix(1 0 0 1 1059.1803 708)" class="st10 st15 st11">Photo voice</text>
				<text transform="matrix(1 0 0 1 1059.1803 728)" class="st10 st12 st11">Sondeo</text>
				<text transform="matrix(1 0 0 1 1059.1803 748)" class="st10 st12 st11">Encuestas deliberativas</text>
				<text transform="matrix(1 0 0 1 1059.1803 768)" class="st10 st12 st11">Paneles ciudadanos</text>
				<circle id="Elipse_4826" class="st2" cx="1050.2" cy="601" r="4"/>
				<circle id="Elipse_4828" class="st2" cx="1050.2" cy="641" r="4"/>
				<circle id="Elipse_4830" class="st2" cx="1050.2" cy="681" r="4"/>
				<circle id="Elipse_4832" class="st2" cx="1050.2" cy="721" r="4"/>
				<circle id="Elipse_4834" class="st2" cx="1050.2" cy="761" r="4"/>
				<circle id="Elipse_4827" class="st2" cx="1050.2" cy="624" r="4"/>
				<circle id="Elipse_4829" class="st2" cx="1050.2" cy="661" r="4"/>
				<circle id="Elipse_4831" class="st2" cx="1050.2" cy="701" r="4"/>
				<circle id="Elipse_4833" class="st2" cx="1050.2" cy="741" r="4"/>
			</g>
			<path id="Trazado_118042" class="st13" d="M1126.2,362.5h-19V521h19"/>
		</g>
	</g>
</g>
</svg>
